<svg width="448" height="368" xmlns="http://www.w3.org/2000/svg">
  <!-- Background -->
  <rect width="448" height="368" fill="#1a1a1a"/>
  
  <!-- Icon Grid -->
  <!-- Icon 1: zoom-out -->
  <g transform="translate(20, 20)">
    <rect width="48" height="48" fill="#1a1a1a" stroke="#333333" stroke-width="1" rx="4"/>
    <svg x="8" y="8" width="32" height="32" viewBox="0 0 16 16" style="color: #ffffff; fill: #ffffff;">
      
  <path fill-rule="evenodd" d="M6.5 12a5.5 5.5 0 1 0 0-11 5.5 5.5 0 0 0 0 11M13 6.5a6.5 6.5 0 1 1-13 0 6.5 6.5 0 0 1 13 0"/>
  <path d="M10.344 11.742q.044.06.098.115l3.85 3.85a1 1 0 0 0 1.415-1.414l-3.85-3.85a1 1 0 0 0-.115-.1 6.5 6.5 0 0 1-1.398 1.4z"/>
  <path fill-rule="evenodd" d="M3 6.5a.5.5 0 0 1 .5-.5h6a.5.5 0 0 1 0 1h-6a.5.5 0 0 1-.5-.5"/>

    </svg>
  </g>
  <!-- Icon 2: vinyl -->
  <g transform="translate(80, 20)">
    <rect width="48" height="48" fill="#1a1a1a" stroke="#333333" stroke-width="1" rx="4"/>
    <svg x="8" y="8" width="32" height="32" viewBox="0 0 16 16" style="color: #ffffff; fill: #ffffff;">
      
  <path d="M8 15A7 7 0 1 1 8 1a7 7 0 0 1 0 14m0 1A8 8 0 1 0 8 0a8 8 0 0 0 0 16"/>
  <path d="M8 6a2 2 0 1 0 0 4 2 2 0 0 0 0-4M4 8a4 4 0 1 1 8 0 4 4 0 0 1-8 0"/>
  <path d="M9 8a1 1 0 1 1-2 0 1 1 0 0 1 2 0"/>

    </svg>
  </g>
  <!-- Icon 3: tsunami -->
  <g transform="translate(140, 20)">
    <rect width="48" height="48" fill="#1a1a1a" stroke="#333333" stroke-width="1" rx="4"/>
    <svg x="8" y="8" width="32" height="32" viewBox="0 0 16 16" style="color: #ffffff; fill: #ffffff;">
      
  <path d="M.036 12.314a.5.5 0 0 1 .65-.278l1.757.703a1.5 1.5 0 0 0 1.114 0l1.014-.406a2.5 2.5 0 0 1 1.857 0l1.015.406a1.5 1.5 0 0 0 1.114 0l1.014-.406a2.5 2.5 0 0 1 1.857 0l1.015.406a1.5 1.5 0 0 0 1.114 0l1.757-.703a.5.5 0 1 1 .372.928l-1.758.703a2.5 2.5 0 0 1-1.857 0l-1.014-.406a1.5 1.5 0 0 0-1.114 0l-1.015.406a2.5 2.5 0 0 1-1.857 0l-1.014-.406a1.5 1.5 0 0 0-1.114 0l-1.015.406a2.5 2.5 0 0 1-1.857 0l-1.757-.703a.5.5 0 0 1-.278-.65m0 2a.5.5 0 0 1 .65-.278l1.757.703a1.5 1.5 0 0 0 1.114 0l1.014-.406a2.5 2.5 0 0 1 1.857 0l1.015.406a1.5 1.5 0 0 0 1.114 0l1.014-.406a2.5 2.5 0 0 1 1.857 0l1.015.406a1.5 1.5 0 0 0 1.114 0l1.757-.703a.5.5 0 1 1 .372.928l-1.758.703a2.5 2.5 0 0 1-1.857 0l-1.014-.406a1.5 1.5 0 0 0-1.114 0l-1.015.406a2.5 2.5 0 0 1-1.857 0l-1.014-.406a1.5 1.5 0 0 0-1.114 0l-1.015.406a2.5 2.5 0 0 1-1.857 0l-1.757-.703a.5.5 0 0 1-.278-.65M2.662 8.08c-.456 1.063-.994 2.098-1.842 2.804a.5.5 0 0 1-.64-.768c.652-.544 1.114-1.384 1.564-2.43.14-.328.281-.68.427-1.044.302-.754.624-1.559 1.01-2.308C3.763 3.2 4.528 2.105 5.7 1.299 6.877.49 8.418 0 10.5 0c1.463 0 2.511.4 3.179 1.058.67.66.893 1.518.819 2.302-.074.771-.441 1.516-1.02 1.965a1.88 1.88 0 0 1-1.904.27c-.65.642-.907 1.679-.71 2.614C11.076 9.215 11.784 10 13 10h2.5a.5.5 0 0 1 0 1H13c-1.784 0-2.826-1.215-3.114-2.585-.232-1.1.005-2.373.758-3.284L10.5 5.06l-.777.388a.5.5 0 0 1-.447 0l-1-.5a.5.5 0 0 1 .447-.894l.777.388.776-.388a.5.5 0 0 1 .447 0l1 .5.034.018c.44.264.81.195 1.108-.036.328-.255.586-.729.637-1.27.05-.529-.1-1.076-.525-1.495s-1.19-.77-2.477-.77c-1.918 0-3.252.448-4.232 1.123C5.283 2.8 4.61 3.738 4.07 4.79c-.365.71-.655 1.433-.945 2.16-.15.376-.301.753-.463 1.13"/>

    </svg>
  </g>
  <!-- Icon 4: text-right -->
  <g transform="translate(200, 20)">
    <rect width="48" height="48" fill="#1a1a1a" stroke="#333333" stroke-width="1" rx="4"/>
    <svg x="8" y="8" width="32" height="32" viewBox="0 0 16 16" style="color: #ffffff; fill: #ffffff;">
      
  <path fill-rule="evenodd" d="M6 12.5a.5.5 0 0 1 .5-.5h7a.5.5 0 0 1 0 1h-7a.5.5 0 0 1-.5-.5m-4-3a.5.5 0 0 1 .5-.5h11a.5.5 0 0 1 0 1h-11a.5.5 0 0 1-.5-.5m4-3a.5.5 0 0 1 .5-.5h7a.5.5 0 0 1 0 1h-7a.5.5 0 0 1-.5-.5m-4-3a.5.5 0 0 1 .5-.5h11a.5.5 0 0 1 0 1h-11a.5.5 0 0 1-.5-.5"/>

    </svg>
  </g>
  <!-- Icon 5: suit-diamond -->
  <g transform="translate(260, 20)">
    <rect width="48" height="48" fill="#1a1a1a" stroke="#333333" stroke-width="1" rx="4"/>
    <svg x="8" y="8" width="32" height="32" viewBox="0 0 16 16" style="color: #ffffff; fill: #ffffff;">
      
  <path d="M8.384 1.226a.463.463 0 0 0-.768 0l-4.56 6.468a.54.54 0 0 0 0 .612l4.56 6.469a.463.463 0 0 0 .768 0l4.56-6.469a.54.54 0 0 0 0-.612zM6.848.613a1.39 1.39 0 0 1 2.304 0l4.56 6.468a1.61 1.61 0 0 1 0 1.838l-4.56 6.468a1.39 1.39 0 0 1-2.304 0L2.288 8.92a1.61 1.61 0 0 1 0-1.838z"/>

    </svg>
  </g>
  <!-- Icon 6: sliders2-vertical -->
  <g transform="translate(320, 20)">
    <rect width="48" height="48" fill="#1a1a1a" stroke="#333333" stroke-width="1" rx="4"/>
    <svg x="8" y="8" width="32" height="32" viewBox="0 0 16 16" style="color: #ffffff; fill: #ffffff;">
      
  <path fill-rule="evenodd" d="M0 10.5a.5.5 0 0 0 .5.5h4a.5.5 0 0 0 0-1H3V1.5a.5.5 0 0 0-1 0V10H.5a.5.5 0 0 0-.5.5M2.5 12a.5.5 0 0 0-.5.5v2a.5.5 0 0 0 1 0v-2a.5.5 0 0 0-.5-.5m3-6.5A.5.5 0 0 0 6 6h1.5v8.5a.5.5 0 0 0 1 0V6H10a.5.5 0 0 0 0-1H6a.5.5 0 0 0-.5.5M8 1a.5.5 0 0 0-.5.5v2a.5.5 0 0 0 1 0v-2A.5.5 0 0 0 8 1m3 9.5a.5.5 0 0 0 .5.5h4a.5.5 0 0 0 0-1H14V1.5a.5.5 0 0 0-1 0V10h-1.5a.5.5 0 0 0-.5.5m2.5 1.5a.5.5 0 0 0-.5.5v2a.5.5 0 0 0 1 0v-2a.5.5 0 0 0-.5-.5"/>

    </svg>
  </g>
  <!-- Icon 7: sign-stop-fill -->
  <g transform="translate(380, 20)">
    <rect width="48" height="48" fill="#1a1a1a" stroke="#333333" stroke-width="1" rx="4"/>
    <svg x="8" y="8" width="32" height="32" viewBox="0 0 16 16" style="color: #ffffff; fill: #ffffff;">
      
  <path d="M10.371 8.277v-.553c0-.827-.422-1.234-.987-1.234-.572 0-.99.407-.99 1.234v.553c0 .83.418 1.237.99 1.237.565 0 .987-.408.987-1.237m2.586-.24c.463 0 .735-.272.735-.744s-.272-.741-.735-.741h-.774v1.485z"/>
  <path d="M4.893 0a.5.5 0 0 0-.353.146L.146 4.54A.5.5 0 0 0 0 4.893v6.214a.5.5 0 0 0 .146.353l4.394 4.394a.5.5 0 0 0 .353.146h6.214a.5.5 0 0 0 .353-.146l4.394-4.394a.5.5 0 0 0 .146-.353V4.893a.5.5 0 0 0-.146-.353L11.46.146A.5.5 0 0 0 11.107 0zM3.16 10.08c-.931 0-1.447-.493-1.494-1.132h.653c.065.346.396.583.891.583.524 0 .83-.246.83-.62 0-.303-.203-.467-.637-.572l-.656-.164c-.61-.147-.978-.51-.978-1.078 0-.706.597-1.184 1.444-1.184.853 0 1.386.475 1.436 1.087h-.645c-.064-.32-.352-.542-.797-.542-.472 0-.77.246-.77.6 0 .261.196.437.553.522l.654.161c.673.164 1.06.487 1.06 1.11 0 .736-.574 1.228-1.544 1.228Zm3.427-3.51V10h-.665V6.57H4.753V6h3.006v.568H6.587Zm4.458 1.16v.544c0 1.131-.636 1.805-1.661 1.805-1.026 0-1.664-.674-1.664-1.805V7.73c0-1.136.638-1.807 1.664-1.807s1.66.674 1.66 1.807ZM11.52 6h1.535c.82 0 1.316.55 1.316 1.292 0 .747-.501 1.289-1.321 1.289h-.865V10h-.665V6.001Z"/>

    </svg>
  </g>
  <!-- Icon 8: send-exclamation -->
  <g transform="translate(20, 80)">
    <rect width="48" height="48" fill="#1a1a1a" stroke="#333333" stroke-width="1" rx="4"/>
    <svg x="8" y="8" width="32" height="32" viewBox="0 0 16 16" style="color: #ffffff; fill: #ffffff;">
      
  <path d="M15.964.686a.5.5 0 0 0-.65-.65L.767 5.855a.75.75 0 0 0-.124 1.329l4.995 3.178 1.531 2.406a.5.5 0 0 0 .844-.536L6.637 10.07l7.494-7.494-1.895 4.738a.5.5 0 1 0 .928.372zm-2.54 1.183L5.93 9.363 1.591 6.602z"/>
  <path d="M12.5 16a3.5 3.5 0 1 0 0-7 3.5 3.5 0 0 0 0 7m.5-5v1.5a.5.5 0 0 1-1 0V11a.5.5 0 0 1 1 0m0 3a.5.5 0 1 1-1 0 .5.5 0 0 1 1 0"/>

    </svg>
  </g>
  <!-- Icon 9: record-btn-fill -->
  <g transform="translate(80, 80)">
    <rect width="48" height="48" fill="#1a1a1a" stroke="#333333" stroke-width="1" rx="4"/>
    <svg x="8" y="8" width="32" height="32" viewBox="0 0 16 16" style="color: #ffffff; fill: #ffffff;">
      
  <path d="M0 12V4a2 2 0 0 1 2-2h12a2 2 0 0 1 2 2v8a2 2 0 0 1-2 2H2a2 2 0 0 1-2-2m8-1a3 3 0 1 0 0-6 3 3 0 0 0 0 6"/>

    </svg>
  </g>
  <!-- Icon 10: play -->
  <g transform="translate(140, 80)">
    <rect width="48" height="48" fill="#1a1a1a" stroke="#333333" stroke-width="1" rx="4"/>
    <svg x="8" y="8" width="32" height="32" viewBox="0 0 16 16" style="color: #ffffff; fill: #ffffff;">
      
  <path d="M10.804 8 5 4.633v6.734zm.792-.696a.802.802 0 0 1 0 1.392l-6.363 3.692C4.713 12.69 4 12.345 4 11.692V4.308c0-.653.713-.998 1.233-.696z"/>

    </svg>
  </g>
  <!-- Icon 11: person-fill-dash -->
  <g transform="translate(200, 80)">
    <rect width="48" height="48" fill="#1a1a1a" stroke="#333333" stroke-width="1" rx="4"/>
    <svg x="8" y="8" width="32" height="32" viewBox="0 0 16 16" style="color: #ffffff; fill: #ffffff;">
      
  <path d="M12.5 16a3.5 3.5 0 1 0 0-7 3.5 3.5 0 0 0 0 7M11 12h3a.5.5 0 0 1 0 1h-3a.5.5 0 0 1 0-1m0-7a3 3 0 1 1-6 0 3 3 0 0 1 6 0"/>
  <path d="M2 13c0 1 1 1 1 1h5.256A4.5 4.5 0 0 1 8 12.5a4.5 4.5 0 0 1 1.544-3.393Q8.844 9.002 8 9c-5 0-6 3-6 4"/>

    </svg>
  </g>
  <!-- Icon 12: palette2 -->
  <g transform="translate(260, 80)">
    <rect width="48" height="48" fill="#1a1a1a" stroke="#333333" stroke-width="1" rx="4"/>
    <svg x="8" y="8" width="32" height="32" viewBox="0 0 16 16" style="color: #ffffff; fill: #ffffff;">
      
  <path d="M0 .5A.5.5 0 0 1 .5 0h5a.5.5 0 0 1 .5.5v5.277l4.147-4.131a.5.5 0 0 1 .707 0l3.535 3.536a.5.5 0 0 1 0 .708L10.261 10H15.5a.5.5 0 0 1 .5.5v5a.5.5 0 0 1-.5.5H3a3 3 0 0 1-2.121-.879A3 3 0 0 1 0 13.044m6-.21 7.328-7.3-2.829-2.828L6 7.188zM4.5 13a1.5 1.5 0 1 0-3 0 1.5 1.5 0 0 0 3 0M15 15v-4H9.258l-4.015 4zM0 .5v12.495zm0 12.495V13z"/>

    </svg>
  </g>
  <!-- Icon 13: meta -->
  <g transform="translate(320, 80)">
    <rect width="48" height="48" fill="#1a1a1a" stroke="#333333" stroke-width="1" rx="4"/>
    <svg x="8" y="8" width="32" height="32" viewBox="0 0 16 16" style="color: #ffffff; fill: #ffffff;">
      
  <path fill-rule="evenodd" d="M8.217 5.243C9.145 3.988 10.171 3 11.483 3 13.96 3 16 6.153 16.001 9.907c0 2.29-.986 3.725-2.757 3.725-1.543 0-2.395-.866-3.924-3.424l-.667-1.123-.118-.197a55 55 0 0 0-.53-.877l-1.178 2.08c-1.673 2.925-2.615 3.541-3.923 3.541C1.086 13.632 0 12.217 0 9.973 0 6.388 1.995 3 4.598 3q.477-.001.924.122c.31.086.611.22.913.407.577.359 1.154.915 1.782 1.714m1.516 2.224q-.378-.615-.727-1.133L9 6.326c.845-1.305 1.543-1.954 2.372-1.954 1.723 0 3.102 2.537 3.102 5.653 0 1.188-.39 1.877-1.195 1.877-.773 0-1.142-.51-2.61-2.87zM4.846 4.756c.725.1 1.385.634 2.34 2.001A212 212 0 0 0 5.551 9.3c-1.357 2.126-1.826 2.603-2.581 2.603-.777 0-1.24-.682-1.24-1.9 0-2.602 1.298-5.264 2.846-5.264q.137 0 .27.018"/>

    </svg>
  </g>
  <!-- Icon 14: leaf-fill -->
  <g transform="translate(380, 80)">
    <rect width="48" height="48" fill="#1a1a1a" stroke="#333333" stroke-width="1" rx="4"/>
    <svg x="8" y="8" width="32" height="32" viewBox="0 0 16 16" style="color: #ffffff; fill: #ffffff;">
      
  <path d="M1.4 1.7c.217.289.65.84 1.725 1.274 1.093.44 2.885.774 5.834.528 2.02-.168 3.431.51 4.326 1.556C14.161 6.082 14.5 7.41 14.5 8.5q0 .344-.027.734C13.387 8.252 11.877 7.76 10.39 7.5c-2.016-.288-4.188-.445-5.59-2.045-.142-.162-.402-.102-.379.112.108.985 1.104 1.82 1.844 2.308 2.37 1.566 5.772-.118 7.6 3.071.505.8 1.374 2.7 1.75 4.292.07.298-.066.611-.354.715a.7.7 0 0 1-.161.042 1 1 0 0 1-1.08-.794c-.13-.97-.396-1.913-.868-2.77C12.173 13.386 10.565 14 8 14c-1.854 0-3.32-.544-4.45-1.435-1.124-.887-1.889-2.095-2.39-3.383-1-2.562-1-5.536-.65-7.28L.73.806z"/>

    </svg>
  </g>
  <!-- Icon 15: indent -->
  <g transform="translate(20, 140)">
    <rect width="48" height="48" fill="#1a1a1a" stroke="#333333" stroke-width="1" rx="4"/>
    <svg x="8" y="8" width="32" height="32" viewBox="0 0 16 16" style="color: #ffffff; fill: #ffffff;">
      
  <path fill-rule="evenodd" d="M3 8a.5.5 0 0 1 .5-.5h6.793L8.146 5.354a.5.5 0 1 1 .708-.708l3 3a.5.5 0 0 1 0 .708l-3 3a.5.5 0 0 1-.708-.708L10.293 8.5H3.5A.5.5 0 0 1 3 8"/>
  <path fill-rule="evenodd" d="M12.5 4a.5.5 0 0 1 .5.5v7a.5.5 0 0 1-1 0v-7a.5.5 0 0 1 .5-.5"/>

    </svg>
  </g>
  <!-- Icon 16: heart-pulse -->
  <g transform="translate(80, 140)">
    <rect width="48" height="48" fill="#1a1a1a" stroke="#333333" stroke-width="1" rx="4"/>
    <svg x="8" y="8" width="32" height="32" viewBox="0 0 16 16" style="color: #ffffff; fill: #ffffff;">
      
  <path d="m8 2.748-.717-.737C5.6.281 2.514.878 1.4 3.053.918 3.995.78 5.323 1.508 7H.43c-2.128-5.697 4.165-8.83 7.394-5.857q.09.083.176.171a3 3 0 0 1 .176-.17c3.23-2.974 9.522.159 7.394 5.856h-1.078c.728-1.677.59-3.005.108-3.947C13.486.878 10.4.28 8.717 2.01zM2.212 10h1.315C4.593 11.183 6.05 12.458 8 13.795c1.949-1.337 3.407-2.612 4.473-3.795h1.315c-1.265 1.566-3.14 3.25-5.788 5-2.648-1.75-4.523-3.434-5.788-5"/>
  <path d="M10.464 3.314a.5.5 0 0 0-.945.049L7.921 8.956 6.464 5.314a.5.5 0 0 0-.88-.091L3.732 8H.5a.5.5 0 0 0 0 1H4a.5.5 0 0 0 .416-.223l1.473-2.209 1.647 4.118a.5.5 0 0 0 .945-.049l1.598-5.593 1.457 3.642A.5.5 0 0 0 12 9h3.5a.5.5 0 0 0 0-1h-3.162z"/>

    </svg>
  </g>
  <!-- Icon 17: globe-asia-australia -->
  <g transform="translate(140, 140)">
    <rect width="48" height="48" fill="#1a1a1a" stroke="#333333" stroke-width="1" rx="4"/>
    <svg x="8" y="8" width="32" height="32" viewBox="0 0 16 16" style="color: #ffffff; fill: #ffffff;">
      
  <path d="m10.495 6.92 1.278-.619a.483.483 0 0 0 .126-.782c-.252-.244-.682-.139-.932.107-.23.226-.513.373-.816.53l-.102.054c-.338.178-.264.626.1.736a.48.48 0 0 0 .346-.027ZM7.741 9.808V9.78a.413.413 0 1 1 .783.183l-.22.443a.6.6 0 0 1-.12.167l-.193.185a.36.36 0 1 1-.5-.516l.112-.108a.45.45 0 0 0 .138-.326M5.672 12.5l.482.233A.386.386 0 1 0 6.32 12h-.416a.7.7 0 0 1-.419-.139l-.277-.206a.302.302 0 1 0-.298.52z"/>
  <path d="M8 0a8 8 0 1 0 0 16A8 8 0 0 0 8 0M1.612 10.867l.756-1.288a1 1 0 0 1 1.545-.225l1.074 1.005a.986.986 0 0 0 1.36-.011l.038-.037a.88.88 0 0 0 .26-.755c-.075-.548.37-1.033.92-1.099.728-.086 1.587-.324 1.728-.957.086-.386-.114-.83-.361-1.2-.207-.312 0-.8.374-.8.123 0 .24-.055.318-.15l.393-.474c.196-.237.491-.368.797-.403.554-.064 1.407-.277 1.583-.973.098-.391-.192-.634-.484-.88-.254-.212-.51-.426-.515-.741a7 7 0 0 1 3.425 7.692 1 1 0 0 0-.087-.063l-.316-.204a1 1 0 0 0-.977-.06l-.169.082a1 1 0 0 1-.741.051l-1.021-.329A1 1 0 0 0 11.205 9h-.165a1 1 0 0 0-.945.674l-.172.499a1 1 0 0 1-.404.514l-.802.518a1 1 0 0 0-.458.84v.455a1 1 0 0 0 1 1h.257a1 1 0 0 1 .542.16l.762.49a1 1 0 0 0 .283.126 7 7 0 0 1-9.49-3.409Z"/>

    </svg>
  </g>
  <!-- Icon 18: fire -->
  <g transform="translate(200, 140)">
    <rect width="48" height="48" fill="#1a1a1a" stroke="#333333" stroke-width="1" rx="4"/>
    <svg x="8" y="8" width="32" height="32" viewBox="0 0 16 16" style="color: #ffffff; fill: #ffffff;">
      
  <path d="M8 16c3.314 0 6-2 6-5.5 0-1.5-.5-4-2.5-6 .25 1.5-1.25 2-1.25 2C11 4 9 .5 6 0c.357 2 .5 4-2 6-1.25 1-2 2.729-2 4.5C2 14 4.686 16 8 16m0-1c-1.657 0-3-1-3-2.75 0-.75.25-2 1.25-3C6.125 10 7 10.5 7 10.5c-.375-1.25.5-3.25 2-3.5-.179 1-.25 2 1 3 .625.5 1 1.364 1 2.25C11 14 9.657 15 8 15"/>

    </svg>
  </g>
  <!-- Icon 19: files -->
  <g transform="translate(260, 140)">
    <rect width="48" height="48" fill="#1a1a1a" stroke="#333333" stroke-width="1" rx="4"/>
    <svg x="8" y="8" width="32" height="32" viewBox="0 0 16 16" style="color: #ffffff; fill: #ffffff;">
      
  <path d="M13 0H6a2 2 0 0 0-2 2 2 2 0 0 0-2 2v10a2 2 0 0 0 2 2h7a2 2 0 0 0 2-2 2 2 0 0 0 2-2V2a2 2 0 0 0-2-2m0 13V4a2 2 0 0 0-2-2H5a1 1 0 0 1 1-1h7a1 1 0 0 1 1 1v10a1 1 0 0 1-1 1M3 4a1 1 0 0 1 1-1h7a1 1 0 0 1 1 1v10a1 1 0 0 1-1 1H4a1 1 0 0 1-1-1z"/>

    </svg>
  </g>
  <!-- Icon 20: file-earmark-spreadsheet -->
  <g transform="translate(320, 140)">
    <rect width="48" height="48" fill="#1a1a1a" stroke="#333333" stroke-width="1" rx="4"/>
    <svg x="8" y="8" width="32" height="32" viewBox="0 0 16 16" style="color: #ffffff; fill: #ffffff;">
      
  <path d="M14 14V4.5L9.5 0H4a2 2 0 0 0-2 2v12a2 2 0 0 0 2 2h8a2 2 0 0 0 2-2M9.5 3A1.5 1.5 0 0 0 11 4.5h2V9H3V2a1 1 0 0 1 1-1h5.5zM3 12v-2h2v2zm0 1h2v2H4a1 1 0 0 1-1-1zm3 2v-2h3v2zm4 0v-2h3v1a1 1 0 0 1-1 1zm3-3h-3v-2h3zm-7 0v-2h3v2z"/>

    </svg>
  </g>
  <!-- Icon 21: file-check -->
  <g transform="translate(380, 140)">
    <rect width="48" height="48" fill="#1a1a1a" stroke="#333333" stroke-width="1" rx="4"/>
    <svg x="8" y="8" width="32" height="32" viewBox="0 0 16 16" style="color: #ffffff; fill: #ffffff;">
      
  <path d="M10.854 6.146a.5.5 0 0 1 0 .708l-3 3a.5.5 0 0 1-.708 0l-1.5-1.5a.5.5 0 1 1 .708-.708L7.5 8.793l2.646-2.647a.5.5 0 0 1 .708 0"/>
  <path d="M4 0a2 2 0 0 0-2 2v12a2 2 0 0 0 2 2h8a2 2 0 0 0 2-2V2a2 2 0 0 0-2-2zm0 1h8a1 1 0 0 1 1 1v12a1 1 0 0 1-1 1H4a1 1 0 0 1-1-1V2a1 1 0 0 1 1-1"/>

    </svg>
  </g>
  <!-- Icon 22: envelope-paper -->
  <g transform="translate(20, 200)">
    <rect width="48" height="48" fill="#1a1a1a" stroke="#333333" stroke-width="1" rx="4"/>
    <svg x="8" y="8" width="32" height="32" viewBox="0 0 16 16" style="color: #ffffff; fill: #ffffff;">
      
  <path d="M4 0a2 2 0 0 0-2 2v1.133l-.941.502A2 2 0 0 0 0 5.4V14a2 2 0 0 0 2 2h12a2 2 0 0 0 2-2V5.4a2 2 0 0 0-1.059-1.765L14 3.133V2a2 2 0 0 0-2-2zm10 4.267.47.25A1 1 0 0 1 15 5.4v.817l-1 .6zm-1 3.15-3.75 2.25L8 8.917l-1.25.75L3 7.417V2a1 1 0 0 1 1-1h8a1 1 0 0 1 1 1zm-11-.6-1-.6V5.4a1 1 0 0 1 .53-.882L2 4.267zm13 .566v5.734l-4.778-2.867zm-.035 6.88A1 1 0 0 1 14 15H2a1 1 0 0 1-.965-.738L8 10.083zM1 13.116V7.383l4.778 2.867L1 13.117Z"/>

    </svg>
  </g>
  <!-- Icon 23: egg -->
  <g transform="translate(80, 200)">
    <rect width="48" height="48" fill="#1a1a1a" stroke="#333333" stroke-width="1" rx="4"/>
    <svg x="8" y="8" width="32" height="32" viewBox="0 0 16 16" style="color: #ffffff; fill: #ffffff;">
      
  <path d="M8 15a5 5 0 0 1-5-5c0-1.956.69-4.286 1.742-6.12.524-.913 1.112-1.658 1.704-2.164C7.044 1.206 7.572 1 8 1s.956.206 1.554.716c.592.506 1.18 1.251 1.704 2.164C12.31 5.714 13 8.044 13 10a5 5 0 0 1-5 5m0 1a6 6 0 0 0 6-6c0-4.314-3-10-6-10S2 5.686 2 10a6 6 0 0 0 6 6"/>

    </svg>
  </g>
  <!-- Icon 24: database -->
  <g transform="translate(140, 200)">
    <rect width="48" height="48" fill="#1a1a1a" stroke="#333333" stroke-width="1" rx="4"/>
    <svg x="8" y="8" width="32" height="32" viewBox="0 0 16 16" style="color: #ffffff; fill: #ffffff;">
      
  <path d="M4.318 2.687C5.234 2.271 6.536 2 8 2s2.766.27 3.682.687C12.644 3.125 13 3.627 13 4c0 .374-.356.875-1.318 1.313C10.766 5.729 9.464 6 8 6s-2.766-.27-3.682-.687C3.356 4.875 3 4.373 3 4c0-.374.356-.875 1.318-1.313M13 5.698V7c0 .374-.356.875-1.318 1.313C10.766 8.729 9.464 9 8 9s-2.766-.27-3.682-.687C3.356 7.875 3 7.373 3 7V5.698c.271.202.58.378.904.525C4.978 6.711 6.427 7 8 7s3.022-.289 4.096-.777A5 5 0 0 0 13 5.698M14 4c0-1.007-.875-1.755-1.904-2.223C11.022 1.289 9.573 1 8 1s-3.022.289-4.096.777C2.875 2.245 2 2.993 2 4v9c0 1.007.875 1.755 1.904 2.223C4.978 15.71 6.427 16 8 16s3.022-.289 4.096-.777C13.125 14.755 14 14.007 14 13zm-1 4.698V10c0 .374-.356.875-1.318 1.313C10.766 11.729 9.464 12 8 12s-2.766-.27-3.682-.687C3.356 10.875 3 10.373 3 10V8.698c.271.202.58.378.904.525C4.978 9.71 6.427 10 8 10s3.022-.289 4.096-.777A5 5 0 0 0 13 8.698m0 3V13c0 .374-.356.875-1.318 1.313C10.766 14.729 9.464 15 8 15s-2.766-.27-3.682-.687C3.356 13.875 3 13.373 3 13v-1.302c.271.202.58.378.904.525C4.978 12.71 6.427 13 8 13s3.022-.289 4.096-.777c.324-.147.633-.323.904-.525"/>

    </svg>
  </g>
  <!-- Icon 25: controller -->
  <g transform="translate(200, 200)">
    <rect width="48" height="48" fill="#1a1a1a" stroke="#333333" stroke-width="1" rx="4"/>
    <svg x="8" y="8" width="32" height="32" viewBox="0 0 16 16" style="color: #ffffff; fill: #ffffff;">
      
  <path d="M11.5 6.027a.5.5 0 1 1-1 0 .5.5 0 0 1 1 0m-1.5 1.5a.5.5 0 1 0 0-1 .5.5 0 0 0 0 1m2.5-.5a.5.5 0 1 1-1 0 .5.5 0 0 1 1 0m-1.5 1.5a.5.5 0 1 0 0-1 .5.5 0 0 0 0 1m-6.5-3h1v1h1v1h-1v1h-1v-1h-1v-1h1z"/>
  <path d="M3.051 3.26a.5.5 0 0 1 .354-.613l1.932-.518a.5.5 0 0 1 .62.39c.655-.079 1.35-.117 2.043-.117.72 0 1.443.041 2.12.126a.5.5 0 0 1 .622-.399l1.932.518a.5.5 0 0 1 .306.729q.211.136.373.297c.408.408.78 1.05 1.095 1.772.32.733.599 1.591.805 2.466s.34 1.78.364 2.606c.024.816-.059 1.602-.328 2.21a1.42 1.42 0 0 1-1.445.83c-.636-.067-1.115-.394-1.513-.773-.245-.232-.496-.526-.739-.808-.126-.148-.25-.292-.368-.423-.728-.804-1.597-1.527-3.224-1.527s-2.496.723-3.224 1.527c-.119.131-.242.275-.368.423-.243.282-.494.575-.739.808-.398.38-.877.706-1.513.773a1.42 1.42 0 0 1-1.445-.83c-.27-.608-.352-1.395-.329-2.21.024-.826.16-1.73.365-2.606.206-.875.486-1.733.805-2.466.315-.722.687-1.364 1.094-1.772a2.3 2.3 0 0 1 .433-.335l-.028-.079zm2.036.412c-.877.185-1.469.443-1.733.708-.276.276-.587.783-.885 1.465a14 14 0 0 0-.748 2.295 12.4 12.4 0 0 0-.339 2.406c-.022.755.062 1.368.243 1.776a.42.42 0 0 0 .426.24c.327-.034.61-.199.929-.502.212-.202.4-.423.615-.674.133-.156.276-.323.44-.504C4.861 9.969 5.978 9.027 8 9.027s3.139.942 3.965 1.855c.164.181.307.348.44.504.214.251.403.472.615.674.318.303.601.468.929.503a.42.42 0 0 0 .426-.241c.18-.408.265-1.02.243-1.776a12.4 12.4 0 0 0-.339-2.406 14 14 0 0 0-.748-2.295c-.298-.682-.61-1.19-.885-1.465-.264-.265-.856-.523-1.733-.708-.85-.179-1.877-.27-2.913-.27s-2.063.091-2.913.27"/>

    </svg>
  </g>
  <!-- Icon 26: cloud-download-fill -->
  <g transform="translate(260, 200)">
    <rect width="48" height="48" fill="#1a1a1a" stroke="#333333" stroke-width="1" rx="4"/>
    <svg x="8" y="8" width="32" height="32" viewBox="0 0 16 16" style="color: #ffffff; fill: #ffffff;">
      
  <path fill-rule="evenodd" d="M8 0a5.53 5.53 0 0 0-3.594 1.342c-.766.66-1.321 1.52-1.464 2.383C1.266 4.095 0 5.555 0 7.318 0 9.366 1.708 11 3.781 11H7.5V5.5a.5.5 0 0 1 1 0V11h4.188C14.502 11 16 9.57 16 7.773c0-1.636-1.242-2.969-2.834-3.194C12.923 1.999 10.69 0 8 0m-.354 15.854a.5.5 0 0 0 .708 0l3-3a.5.5 0 0 0-.708-.708L8.5 14.293V11h-1v3.293l-2.146-2.147a.5.5 0 0 0-.708.708z"/>

    </svg>
  </g>
  <!-- Icon 27: chevron-compact-down -->
  <g transform="translate(320, 200)">
    <rect width="48" height="48" fill="#1a1a1a" stroke="#333333" stroke-width="1" rx="4"/>
    <svg x="8" y="8" width="32" height="32" viewBox="0 0 16 16" style="color: #ffffff; fill: #ffffff;">
      
  <path fill-rule="evenodd" d="M1.553 6.776a.5.5 0 0 1 .67-.223L8 9.44l5.776-2.888a.5.5 0 1 1 .448.894l-6 3a.5.5 0 0 1-.448 0l-6-3a.5.5 0 0 1-.223-.67"/>

    </svg>
  </g>
  <!-- Icon 28: cc-square-fill -->
  <g transform="translate(380, 200)">
    <rect width="48" height="48" fill="#1a1a1a" stroke="#333333" stroke-width="1" rx="4"/>
    <svg x="8" y="8" width="32" height="32" viewBox="0 0 16 16" style="color: #ffffff; fill: #ffffff;">
      
  <path d="M2 0a2 2 0 0 0-2 2v12a2 2 0 0 0 2 2h12a2 2 0 0 0 2-2V2a2 2 0 0 0-2-2zm3.408 5.89c-.83 0-1.318.64-1.318 1.753v.742c0 1.108.479 1.727 1.318 1.727.69 0 1.138-.435 1.187-1.05h1.147v.114c-.058 1.147-1.029 1.938-2.343 1.938-1.612 0-2.518-1.028-2.518-2.729v-.747c0-1.7.914-2.75 2.518-2.75 1.319 0 2.29.812 2.343 1.999v.11H6.595c-.049-.638-.506-1.108-1.187-1.108Zm5.404 0c-.831 0-1.319.64-1.319 1.753v.742c0 1.108.48 1.727 1.319 1.727.69 0 1.138-.435 1.186-1.05h1.147v.114c-.057 1.147-1.028 1.938-2.342 1.938-1.613 0-2.518-1.028-2.518-2.729v-.747c0-1.7.914-2.75 2.518-2.75 1.318 0 2.29.812 2.342 1.999v.11h-1.147c-.048-.638-.505-1.108-1.186-1.108Z"/>

    </svg>
  </g>
  <!-- Icon 29: calendar4-week -->
  <g transform="translate(20, 260)">
    <rect width="48" height="48" fill="#1a1a1a" stroke="#333333" stroke-width="1" rx="4"/>
    <svg x="8" y="8" width="32" height="32" viewBox="0 0 16 16" style="color: #ffffff; fill: #ffffff;">
      
  <path d="M3.5 0a.5.5 0 0 1 .5.5V1h8V.5a.5.5 0 0 1 1 0V1h1a2 2 0 0 1 2 2v11a2 2 0 0 1-2 2H2a2 2 0 0 1-2-2V3a2 2 0 0 1 2-2h1V.5a.5.5 0 0 1 .5-.5M2 2a1 1 0 0 0-1 1v1h14V3a1 1 0 0 0-1-1zm13 3H1v9a1 1 0 0 0 1 1h12a1 1 0 0 0 1-1z"/>
  <path d="M11 7.5a.5.5 0 0 1 .5-.5h1a.5.5 0 0 1 .5.5v1a.5.5 0 0 1-.5.5h-1a.5.5 0 0 1-.5-.5zm-3 0a.5.5 0 0 1 .5-.5h1a.5.5 0 0 1 .5.5v1a.5.5 0 0 1-.5.5h-1a.5.5 0 0 1-.5-.5zm-2 3a.5.5 0 0 1 .5-.5h1a.5.5 0 0 1 .5.5v1a.5.5 0 0 1-.5.5h-1a.5.5 0 0 1-.5-.5zm-3 0a.5.5 0 0 1 .5-.5h1a.5.5 0 0 1 .5.5v1a.5.5 0 0 1-.5.5h-1a.5.5 0 0 1-.5-.5z"/>

    </svg>
  </g>
  <!-- Icon 30: calculator -->
  <g transform="translate(80, 260)">
    <rect width="48" height="48" fill="#1a1a1a" stroke="#333333" stroke-width="1" rx="4"/>
    <svg x="8" y="8" width="32" height="32" viewBox="0 0 16 16" style="color: #ffffff; fill: #ffffff;">
      
  <path d="M12 1a1 1 0 0 1 1 1v12a1 1 0 0 1-1 1H4a1 1 0 0 1-1-1V2a1 1 0 0 1 1-1zM4 0a2 2 0 0 0-2 2v12a2 2 0 0 0 2 2h8a2 2 0 0 0 2-2V2a2 2 0 0 0-2-2z"/>
  <path d="M4 2.5a.5.5 0 0 1 .5-.5h7a.5.5 0 0 1 .5.5v2a.5.5 0 0 1-.5.5h-7a.5.5 0 0 1-.5-.5zm0 4a.5.5 0 0 1 .5-.5h1a.5.5 0 0 1 .5.5v1a.5.5 0 0 1-.5.5h-1a.5.5 0 0 1-.5-.5zm0 3a.5.5 0 0 1 .5-.5h1a.5.5 0 0 1 .5.5v1a.5.5 0 0 1-.5.5h-1a.5.5 0 0 1-.5-.5zm0 3a.5.5 0 0 1 .5-.5h1a.5.5 0 0 1 .5.5v1a.5.5 0 0 1-.5.5h-1a.5.5 0 0 1-.5-.5zm3-6a.5.5 0 0 1 .5-.5h1a.5.5 0 0 1 .5.5v1a.5.5 0 0 1-.5.5h-1a.5.5 0 0 1-.5-.5zm0 3a.5.5 0 0 1 .5-.5h1a.5.5 0 0 1 .5.5v1a.5.5 0 0 1-.5.5h-1a.5.5 0 0 1-.5-.5zm0 3a.5.5 0 0 1 .5-.5h1a.5.5 0 0 1 .5.5v1a.5.5 0 0 1-.5.5h-1a.5.5 0 0 1-.5-.5zm3-6a.5.5 0 0 1 .5-.5h1a.5.5 0 0 1 .5.5v1a.5.5 0 0 1-.5.5h-1a.5.5 0 0 1-.5-.5zm0 3a.5.5 0 0 1 .5-.5h1a.5.5 0 0 1 .5.5v4a.5.5 0 0 1-.5.5h-1a.5.5 0 0 1-.5-.5z"/>

    </svg>
  </g>
  <!-- Icon 31: briefcase-fill -->
  <g transform="translate(140, 260)">
    <rect width="48" height="48" fill="#1a1a1a" stroke="#333333" stroke-width="1" rx="4"/>
    <svg x="8" y="8" width="32" height="32" viewBox="0 0 16 16" style="color: #ffffff; fill: #ffffff;">
      
  <path d="M6.5 1A1.5 1.5 0 0 0 5 2.5V3H1.5A1.5 1.5 0 0 0 0 4.5v1.384l7.614 2.03a1.5 1.5 0 0 0 .772 0L16 5.884V4.5A1.5 1.5 0 0 0 14.5 3H11v-.5A1.5 1.5 0 0 0 9.5 1zm0 1h3a.5.5 0 0 1 .5.5V3H6v-.5a.5.5 0 0 1 .5-.5"/>
  <path d="M0 12.5A1.5 1.5 0 0 0 1.5 14h13a1.5 1.5 0 0 0 1.5-1.5V6.85L8.129 8.947a.5.5 0 0 1-.258 0L0 6.85z"/>

    </svg>
  </g>
  <!-- Icon 32: bookmark-heart-fill -->
  <g transform="translate(200, 260)">
    <rect width="48" height="48" fill="#1a1a1a" stroke="#333333" stroke-width="1" rx="4"/>
    <svg x="8" y="8" width="32" height="32" viewBox="0 0 16 16" style="color: #ffffff; fill: #ffffff;">
      
  <path d="M2 15.5a.5.5 0 0 0 .74.439L8 13.069l5.26 2.87A.5.5 0 0 0 14 15.5V2a2 2 0 0 0-2-2H4a2 2 0 0 0-2 2zM8 4.41c1.387-1.425 4.854 1.07 0 4.277C3.146 5.48 6.613 2.986 8 4.412z"/>

    </svg>
  </g>
  <!-- Icon 33: bag-heart-fill -->
  <g transform="translate(260, 260)">
    <rect width="48" height="48" fill="#1a1a1a" stroke="#333333" stroke-width="1" rx="4"/>
    <svg x="8" y="8" width="32" height="32" viewBox="0 0 16 16" style="color: #ffffff; fill: #ffffff;">
      
  <path d="M11.5 4v-.5a3.5 3.5 0 1 0-7 0V4H1v10a2 2 0 0 0 2 2h10a2 2 0 0 0 2-2V4zM8 1a2.5 2.5 0 0 1 2.5 2.5V4h-5v-.5A2.5 2.5 0 0 1 8 1m0 6.993c1.664-1.711 5.825 1.283 0 5.132-5.825-3.85-1.664-6.843 0-5.132"/>

    </svg>
  </g>
  <!-- Icon 34: arrow-up -->
  <g transform="translate(320, 260)">
    <rect width="48" height="48" fill="#1a1a1a" stroke="#333333" stroke-width="1" rx="4"/>
    <svg x="8" y="8" width="32" height="32" viewBox="0 0 16 16" style="color: #ffffff; fill: #ffffff;">
      
  <path fill-rule="evenodd" d="M8 15a.5.5 0 0 0 .5-.5V2.707l3.146 3.147a.5.5 0 0 0 .708-.708l-4-4a.5.5 0 0 0-.708 0l-4 4a.5.5 0 1 0 .708.708L7.5 2.707V14.5a.5.5 0 0 0 .5.5"/>

    </svg>
  </g>
  <!-- Icon 35: arrow-90deg-left -->
  <g transform="translate(380, 260)">
    <rect width="48" height="48" fill="#1a1a1a" stroke="#333333" stroke-width="1" rx="4"/>
    <svg x="8" y="8" width="32" height="32" viewBox="0 0 16 16" style="color: #ffffff; fill: #ffffff;">
      
  <path fill-rule="evenodd" d="M1.146 4.854a.5.5 0 0 1 0-.708l4-4a.5.5 0 1 1 .708.708L2.707 4H12.5A2.5 2.5 0 0 1 15 6.5v8a.5.5 0 0 1-1 0v-8A1.5 1.5 0 0 0 12.5 5H2.707l3.147 3.146a.5.5 0 1 1-.708.708z"/>

    </svg>
  </g>

  <!-- Title Background -->
  <rect x="0" y="323" width="448" height="60" fill="#1a1a1a"/>
  
  <!-- Title -->
  <text x="20" y="348" text-anchor="start" font-family="system-ui, -apple-system, sans-serif" font-size="18" font-weight="bold" fill="#ffffff">Bootstrap Icons - default</text>

</svg>