<svg width="800" height="600" xmlns="http://www.w3.org/2000/svg">
  <!-- Background -->
  <rect width="800" height="600" fill="#ffffff"/>
  
  <!-- Header Background -->
  <rect width="800" height="80" fill="#f8f9fa"/>
  
  <!-- Title -->
  <text x="400" y="30" text-anchor="middle" font-family="system-ui, -apple-system, sans-serif" font-size="20" font-weight="bold" fill="#212529">Bootstrap Icons - unfilled</text>
  
  <!-- Subtitle -->
  <text x="400" y="55" text-anchor="middle" font-family="system-ui, -apple-system, sans-serif" font-size="14" fill="#6c757d">1,373 icons</text>
  
  <!-- Icon Grid -->
  <!-- Icon 1: zoom-out -->
  <g transform="translate(12, 92)">
    <rect width="48" height="48" fill="#ffffff" stroke="#e9ecef" stroke-width="1" rx="4"/>
    <svg x="8" y="8" width="32" height="32" viewBox="0 0 16 16">
      
  <path fill-rule="evenodd" d="M6.5 12a5.5 5.5 0 1 0 0-11 5.5 5.5 0 0 0 0 11M13 6.5a6.5 6.5 0 1 1-13 0 6.5 6.5 0 0 1 13 0"/>
  <path d="M10.344 11.742q.044.06.098.115l3.85 3.85a1 1 0 0 0 1.415-1.414l-3.85-3.85a1 1 0 0 0-.115-.1 6.5 6.5 0 0 1-1.398 1.4z"/>
  <path fill-rule="evenodd" d="M3 6.5a.5.5 0 0 1 .5-.5h6a.5.5 0 0 1 0 1h-6a.5.5 0 0 1-.5-.5"/>

    </svg>
  </g>
  <!-- Icon 2: wallet -->
  <g transform="translate(72, 92)">
    <rect width="48" height="48" fill="#ffffff" stroke="#e9ecef" stroke-width="1" rx="4"/>
    <svg x="8" y="8" width="32" height="32" viewBox="0 0 16 16">
      
  <path d="M0 3a2 2 0 0 1 2-2h13.5a.5.5 0 0 1 0 1H15v2a1 1 0 0 1 1 1v8.5a1.5 1.5 0 0 1-1.5 1.5h-12A2.5 2.5 0 0 1 0 12.5zm1 1.732V12.5A1.5 1.5 0 0 0 2.5 14h12a.5.5 0 0 0 .5-.5V5H2a2 2 0 0 1-1-.268M1 3a1 1 0 0 0 1 1h12V2H2a1 1 0 0 0-1 1"/>

    </svg>
  </g>
  <!-- Icon 3: ubuntu -->
  <g transform="translate(132, 92)">
    <rect width="48" height="48" fill="#ffffff" stroke="#e9ecef" stroke-width="1" rx="4"/>
    <svg x="8" y="8" width="32" height="32" viewBox="0 0 16 16">
      
  <path d="M2.273 9.53a2.273 2.273 0 1 0 0-4.546 2.273 2.273 0 0 0 0 4.547Zm9.467-4.984a2.273 2.273 0 1 0 0-4.546 2.273 2.273 0 0 0 0 4.546M7.4 13.108a5.54 5.54 0 0 1-3.775-2.88 3.27 3.27 0 0 1-1.944.24 7.4 7.4 0 0 0 5.328 4.465c.53.113 1.072.169 1.614.166a3.25 3.25 0 0 1-.666-1.9 6 6 0 0 1-.557-.091m3.828 2.285a2.273 2.273 0 1 0 0-4.546 2.273 2.273 0 0 0 0 4.546m3.163-3.108a7.44 7.44 0 0 0 .373-8.726 3.3 3.3 0 0 1-1.278 1.498 5.57 5.57 0 0 1-.183 5.535 3.26 3.26 0 0 1 1.088 1.693M2.098 3.998a3.3 3.3 0 0 1 1.897.486 5.54 5.54 0 0 1 4.464-2.388c.037-.67.277-1.313.69-1.843a7.47 7.47 0 0 0-7.051 3.745"/>

    </svg>
  </g>
  <!-- Icon 4: toggles -->
  <g transform="translate(192, 92)">
    <rect width="48" height="48" fill="#ffffff" stroke="#e9ecef" stroke-width="1" rx="4"/>
    <svg x="8" y="8" width="32" height="32" viewBox="0 0 16 16">
      
  <path d="M4.5 9a3.5 3.5 0 1 0 0 7h7a3.5 3.5 0 1 0 0-7zm7 6a2.5 2.5 0 1 1 0-5 2.5 2.5 0 0 1 0 5m-7-14a2.5 2.5 0 1 0 0 5 2.5 2.5 0 0 0 0-5m2.45 0A3.5 3.5 0 0 1 8 3.5 3.5 3.5 0 0 1 6.95 6h4.55a2.5 2.5 0 0 0 0-5zM4.5 0h7a3.5 3.5 0 1 1 0 7h-7a3.5 3.5 0 1 1 0-7"/>

    </svg>
  </g>
  <!-- Icon 5: telephone-minus -->
  <g transform="translate(252, 92)">
    <rect width="48" height="48" fill="#ffffff" stroke="#e9ecef" stroke-width="1" rx="4"/>
    <svg x="8" y="8" width="32" height="32" viewBox="0 0 16 16">
      
  <path fill-rule="evenodd" d="M10 3.5a.5.5 0 0 1 .5-.5h4a.5.5 0 0 1 0 1h-4a.5.5 0 0 1-.5-.5"/>
  <path d="M3.654 1.328a.678.678 0 0 0-1.015-.063L1.605 2.3c-.483.484-.661 1.169-.45 1.77a17.6 17.6 0 0 0 4.168 6.608 17.6 17.6 0 0 0 6.608 4.168c.601.211 1.286.033 1.77-.45l1.034-1.034a.678.678 0 0 0-.063-1.015l-2.307-1.794a.68.68 0 0 0-.58-.122l-2.19.547a1.75 1.75 0 0 1-1.657-.459L5.482 8.062a1.75 1.75 0 0 1-.46-1.657l.548-2.19a.68.68 0 0 0-.122-.58zM1.884.511a1.745 1.745 0 0 1 2.612.163L6.29 2.98c.329.423.445.974.315 1.494l-.547 2.19a.68.68 0 0 0 .178.643l2.457 2.457a.68.68 0 0 0 .644.178l2.189-.547a1.75 1.75 0 0 1 1.494.315l2.306 1.794c.829.645.905 1.87.163 2.611l-1.034 1.034c-.74.74-1.846 1.065-2.877.702a18.6 18.6 0 0 1-7.01-4.42 18.6 18.6 0 0 1-4.42-7.009c-.362-1.03-.037-2.137.703-2.877z"/>

    </svg>
  </g>
  <!-- Icon 6: star-half -->
  <g transform="translate(312, 92)">
    <rect width="48" height="48" fill="#ffffff" stroke="#e9ecef" stroke-width="1" rx="4"/>
    <svg x="8" y="8" width="32" height="32" viewBox="0 0 16 16">
      
  <path d="M5.354 5.119 7.538.792A.52.52 0 0 1 8 .5c.183 0 .366.097.465.292l2.184 4.327 4.898.696A.54.54 0 0 1 16 6.32a.55.55 0 0 1-.17.445l-3.523 3.356.83 4.73c.078.443-.36.79-.746.592L8 13.187l-4.389 2.256a.5.5 0 0 1-.146.05c-.342.06-.668-.254-.6-.642l.83-4.73L.173 6.765a.55.55 0 0 1-.172-.403.6.6 0 0 1 .085-.302.51.51 0 0 1 .37-.245zM8 12.027a.5.5 0 0 1 .232.056l3.686 1.894-.694-3.957a.56.56 0 0 1 .162-.505l2.907-2.77-4.052-.576a.53.53 0 0 1-.393-.288L8.001 2.223 8 2.226z"/>

    </svg>
  </g>
  <!-- Icon 7: skip-start-circle -->
  <g transform="translate(372, 92)">
    <rect width="48" height="48" fill="#ffffff" stroke="#e9ecef" stroke-width="1" rx="4"/>
    <svg x="8" y="8" width="32" height="32" viewBox="0 0 16 16">
      
  <path d="M8 15A7 7 0 1 1 8 1a7 7 0 0 1 0 14m0 1A8 8 0 1 0 8 0a8 8 0 0 0 0 16"/>
  <path d="M10.229 5.055a.5.5 0 0 0-.52.038L7 7.028V5.5a.5.5 0 0 0-1 0v5a.5.5 0 0 0 1 0V8.972l2.71 1.935a.5.5 0 0 0 .79-.407v-5a.5.5 0 0 0-.271-.445"/>

    </svg>
  </g>
  <!-- Icon 8: shop-window -->
  <g transform="translate(12, 152)">
    <rect width="48" height="48" fill="#ffffff" stroke="#e9ecef" stroke-width="1" rx="4"/>
    <svg x="8" y="8" width="32" height="32" viewBox="0 0 16 16">
      
  <path d="M2.97 1.35A1 1 0 0 1 3.73 1h8.54a1 1 0 0 1 .76.35l2.609 3.044A1.5 1.5 0 0 1 16 5.37v.255a2.375 2.375 0 0 1-4.25 1.458A2.37 2.37 0 0 1 9.875 8 2.37 2.37 0 0 1 8 7.083 2.37 2.37 0 0 1 6.125 8a2.37 2.37 0 0 1-1.875-.917A2.375 2.375 0 0 1 0 5.625V5.37a1.5 1.5 0 0 1 .361-.976zm1.78 4.275a1.375 1.375 0 0 0 2.75 0 .5.5 0 0 1 1 0 1.375 1.375 0 0 0 2.75 0 .5.5 0 0 1 1 0 1.375 1.375 0 1 0 2.75 0V5.37a.5.5 0 0 0-.12-.325L12.27 2H3.73L1.12 5.045A.5.5 0 0 0 1 5.37v.255a1.375 1.375 0 0 0 2.75 0 .5.5 0 0 1 1 0M1.5 8.5A.5.5 0 0 1 2 9v6h12V9a.5.5 0 0 1 1 0v6h.5a.5.5 0 0 1 0 1H.5a.5.5 0 0 1 0-1H1V9a.5.5 0 0 1 .5-.5m2 .5a.5.5 0 0 1 .5.5V13h8V9.5a.5.5 0 0 1 1 0V13a1 1 0 0 1-1 1H4a1 1 0 0 1-1-1V9.5a.5.5 0 0 1 .5-.5"/>

    </svg>
  </g>
  <!-- Icon 9: robot -->
  <g transform="translate(72, 152)">
    <rect width="48" height="48" fill="#ffffff" stroke="#e9ecef" stroke-width="1" rx="4"/>
    <svg x="8" y="8" width="32" height="32" viewBox="0 0 16 16">
      
  <path d="M6 12.5a.5.5 0 0 1 .5-.5h3a.5.5 0 0 1 0 1h-3a.5.5 0 0 1-.5-.5M3 8.062C3 6.76 4.235 5.765 5.53 5.886a26.6 26.6 0 0 0 4.94 0C11.765 5.765 13 6.76 13 8.062v1.157a.93.93 0 0 1-.765.935c-.845.147-2.34.346-4.235.346s-3.39-.2-4.235-.346A.93.93 0 0 1 3 9.219zm4.542-.827a.25.25 0 0 0-.217.068l-.92.9a25 25 0 0 1-1.871-.183.25.25 0 0 0-.068.495c.55.076 1.232.149 2.02.193a.25.25 0 0 0 .189-.071l.754-.736.847 1.71a.25.25 0 0 0 .404.062l.932-.97a25 25 0 0 0 1.922-.188.25.25 0 0 0-.068-.495c-.538.074-1.207.145-1.98.189a.25.25 0 0 0-.166.076l-.754.785-.842-1.7a.25.25 0 0 0-.182-.135"/>
  <path d="M8.5 1.866a1 1 0 1 0-1 0V3h-2A4.5 4.5 0 0 0 1 7.5V8a1 1 0 0 0-1 1v2a1 1 0 0 0 1 1v1a2 2 0 0 0 2 2h10a2 2 0 0 0 2-2v-1a1 1 0 0 0 1-1V9a1 1 0 0 0-1-1v-.5A4.5 4.5 0 0 0 10.5 3h-2zM14 7.5V13a1 1 0 0 1-1 1H3a1 1 0 0 1-1-1V7.5A3.5 3.5 0 0 1 5.5 4h5A3.5 3.5 0 0 1 14 7.5"/>

    </svg>
  </g>
  <!-- Icon 10: printer -->
  <g transform="translate(132, 152)">
    <rect width="48" height="48" fill="#ffffff" stroke="#e9ecef" stroke-width="1" rx="4"/>
    <svg x="8" y="8" width="32" height="32" viewBox="0 0 16 16">
      
  <path d="M2.5 8a.5.5 0 1 0 0-1 .5.5 0 0 0 0 1"/>
  <path d="M5 1a2 2 0 0 0-2 2v2H2a2 2 0 0 0-2 2v3a2 2 0 0 0 2 2h1v1a2 2 0 0 0 2 2h6a2 2 0 0 0 2-2v-1h1a2 2 0 0 0 2-2V7a2 2 0 0 0-2-2h-1V3a2 2 0 0 0-2-2zM4 3a1 1 0 0 1 1-1h6a1 1 0 0 1 1 1v2H4zm1 5a2 2 0 0 0-2 2v1H2a1 1 0 0 1-1-1V7a1 1 0 0 1 1-1h12a1 1 0 0 1 1 1v3a1 1 0 0 1-1 1h-1v-1a2 2 0 0 0-2-2zm7 2v3a1 1 0 0 1-1 1H5a1 1 0 0 1-1-1v-3a1 1 0 0 1 1-1h6a1 1 0 0 1 1 1"/>

    </svg>
  </g>
  <!-- Icon 11: person-video -->
  <g transform="translate(192, 152)">
    <rect width="48" height="48" fill="#ffffff" stroke="#e9ecef" stroke-width="1" rx="4"/>
    <svg x="8" y="8" width="32" height="32" viewBox="0 0 16 16">
      
  <path d="M8 9.05a2.5 2.5 0 1 0 0-5 2.5 2.5 0 0 0 0 5"/>
  <path d="M2 2a2 2 0 0 0-2 2v8a2 2 0 0 0 2 2h12a2 2 0 0 0 2-2V4a2 2 0 0 0-2-2zm10.798 11c-.453-1.27-1.76-3-4.798-3-3.037 0-4.345 1.73-4.798 3H2a1 1 0 0 1-1-1V4a1 1 0 0 1 1-1h12a1 1 0 0 1 1 1v8a1 1 0 0 1-1 1z"/>

    </svg>
  </g>
  <!-- Icon 12: paypal -->
  <g transform="translate(252, 152)">
    <rect width="48" height="48" fill="#ffffff" stroke="#e9ecef" stroke-width="1" rx="4"/>
    <svg x="8" y="8" width="32" height="32" viewBox="0 0 16 16">
      
  <path d="M14.06 3.713c.12-1.071-.093-1.832-.702-2.526C12.628.356 11.312 0 9.626 0H4.734a.7.7 0 0 0-.691.59L2.005 13.509a.42.42 0 0 0 .415.486h2.756l-.202 1.28a.628.628 0 0 0 .62.726H8.14c.429 0 .793-.31.862-.731l.025-.13.48-3.043.03-.164.001-.007a.35.35 0 0 1 .348-.297h.38c1.266 0 2.425-.256 3.345-.91q.57-.403.993-1.005a4.94 4.94 0 0 0 .88-2.195c.242-1.246.13-2.356-.57-3.154a2.7 2.7 0 0 0-.76-.59l-.094-.061ZM6.543 8.82a.7.7 0 0 1 .321-.079H8.3c2.82 0 5.027-1.144 5.672-4.456l.003-.016q.326.186.548.438c.546.623.679 1.535.45 2.71-.272 1.397-.866 2.307-1.663 2.874-.802.57-1.842.815-3.043.815h-.38a.87.87 0 0 0-.863.734l-.03.164-.48 3.043-.024.13-.001.004a.35.35 0 0 1-.348.296H5.595a.106.106 0 0 1-.105-.123l.208-1.32z"/>

    </svg>
  </g>
  <!-- Icon 13: mouse -->
  <g transform="translate(312, 152)">
    <rect width="48" height="48" fill="#ffffff" stroke="#e9ecef" stroke-width="1" rx="4"/>
    <svg x="8" y="8" width="32" height="32" viewBox="0 0 16 16">
      
  <path d="M8 3a.5.5 0 0 1 .5.5v2a.5.5 0 0 1-1 0v-2A.5.5 0 0 1 8 3m4 8a4 4 0 0 1-8 0V5a4 4 0 1 1 8 0zM8 0a5 5 0 0 0-5 5v6a5 5 0 0 0 10 0V5a5 5 0 0 0-5-5"/>

    </svg>
  </g>
  <!-- Icon 14: list-ul -->
  <g transform="translate(372, 152)">
    <rect width="48" height="48" fill="#ffffff" stroke="#e9ecef" stroke-width="1" rx="4"/>
    <svg x="8" y="8" width="32" height="32" viewBox="0 0 16 16">
      
  <path fill-rule="evenodd" d="M5 11.5a.5.5 0 0 1 .5-.5h9a.5.5 0 0 1 0 1h-9a.5.5 0 0 1-.5-.5m0-4a.5.5 0 0 1 .5-.5h9a.5.5 0 0 1 0 1h-9a.5.5 0 0 1-.5-.5m0-4a.5.5 0 0 1 .5-.5h9a.5.5 0 0 1 0 1h-9a.5.5 0 0 1-.5-.5m-3 1a1 1 0 1 0 0-2 1 1 0 0 0 0 2m0 4a1 1 0 1 0 0-2 1 1 0 0 0 0 2m0 4a1 1 0 1 0 0-2 1 1 0 0 0 0 2"/>

    </svg>
  </g>
  <!-- Icon 15: justify -->
  <g transform="translate(12, 212)">
    <rect width="48" height="48" fill="#ffffff" stroke="#e9ecef" stroke-width="1" rx="4"/>
    <svg x="8" y="8" width="32" height="32" viewBox="0 0 16 16">
      
  <path fill-rule="evenodd" d="M2 12.5a.5.5 0 0 1 .5-.5h11a.5.5 0 0 1 0 1h-11a.5.5 0 0 1-.5-.5m0-3a.5.5 0 0 1 .5-.5h11a.5.5 0 0 1 0 1h-11a.5.5 0 0 1-.5-.5m0-3a.5.5 0 0 1 .5-.5h11a.5.5 0 0 1 0 1h-11a.5.5 0 0 1-.5-.5m0-3a.5.5 0 0 1 .5-.5h11a.5.5 0 0 1 0 1h-11a.5.5 0 0 1-.5-.5"/>

    </svg>
  </g>
  <!-- Icon 16: house -->
  <g transform="translate(72, 212)">
    <rect width="48" height="48" fill="#ffffff" stroke="#e9ecef" stroke-width="1" rx="4"/>
    <svg x="8" y="8" width="32" height="32" viewBox="0 0 16 16">
      
  <path d="M8.707 1.5a1 1 0 0 0-1.414 0L.646 8.146a.5.5 0 0 0 .708.708L2 8.207V13.5A1.5 1.5 0 0 0 3.5 15h9a1.5 1.5 0 0 0 1.5-1.5V8.207l.646.647a.5.5 0 0 0 .708-.708L13 5.793V2.5a.5.5 0 0 0-.5-.5h-1a.5.5 0 0 0-.5.5v1.293zM13 7.207V13.5a.5.5 0 0 1-.5.5h-9a.5.5 0 0 1-.5-.5V7.207l5-5z"/>

    </svg>
  </g>
  <!-- Icon 17: handbag -->
  <g transform="translate(132, 212)">
    <rect width="48" height="48" fill="#ffffff" stroke="#e9ecef" stroke-width="1" rx="4"/>
    <svg x="8" y="8" width="32" height="32" viewBox="0 0 16 16">
      
  <path d="M8 1a2 2 0 0 1 2 2v2H6V3a2 2 0 0 1 2-2m3 4V3a3 3 0 1 0-6 0v2H3.36a1.5 1.5 0 0 0-1.483 1.277L.85 13.13A2.5 2.5 0 0 0 3.322 16h9.355a2.5 2.5 0 0 0 2.473-2.87l-1.028-6.853A1.5 1.5 0 0 0 12.64 5zm-1 1v1.5a.5.5 0 0 0 1 0V6h1.639a.5.5 0 0 1 .494.426l1.028 6.851A1.5 1.5 0 0 1 12.678 15H3.322a1.5 1.5 0 0 1-1.483-1.723l1.028-6.851A.5.5 0 0 1 3.36 6H5v1.5a.5.5 0 1 0 1 0V6z"/>

    </svg>
  </g>
  <!-- Icon 18: gender-ambiguous -->
  <g transform="translate(192, 212)">
    <rect width="48" height="48" fill="#ffffff" stroke="#e9ecef" stroke-width="1" rx="4"/>
    <svg x="8" y="8" width="32" height="32" viewBox="0 0 16 16">
      
  <path fill-rule="evenodd" d="M11.5 1a.5.5 0 0 1 0-1h4a.5.5 0 0 1 .5.5v4a.5.5 0 0 1-1 0V1.707l-3.45 3.45A4 4 0 0 1 8.5 10.97V13H10a.5.5 0 0 1 0 1H8.5v1.5a.5.5 0 0 1-1 0V14H6a.5.5 0 0 1 0-1h1.5v-2.03a4 4 0 1 1 3.471-6.648L14.293 1zm-.997 4.346a3 3 0 1 0-5.006 3.309 3 3 0 0 0 5.006-3.31z"/>

    </svg>
  </g>
  <!-- Icon 19: filetype-xml -->
  <g transform="translate(252, 212)">
    <rect width="48" height="48" fill="#ffffff" stroke="#e9ecef" stroke-width="1" rx="4"/>
    <svg x="8" y="8" width="32" height="32" viewBox="0 0 16 16">
      
  <path fill-rule="evenodd" d="M14 4.5V14a2 2 0 0 1-2 2v-1a1 1 0 0 0 1-1V4.5h-2A1.5 1.5 0 0 1 9.5 3V1H4a1 1 0 0 0-1 1v9H2V2a2 2 0 0 1 2-2h5.5zM3.527 11.85h-.893l-.823 1.439h-.036L.943 11.85H.012l1.227 1.983L0 15.85h.861l.853-1.415h.035l.85 1.415h.908l-1.254-1.992zm.954 3.999v-2.66h.038l.952 2.159h.516l.946-2.16h.038v2.661h.715V11.85h-.8l-1.14 2.596h-.025L4.58 11.85h-.806v3.999zm4.71-.674h1.696v.674H8.4V11.85h.791z"/>

    </svg>
  </g>
  <!-- Icon 20: filetype-exe -->
  <g transform="translate(312, 212)">
    <rect width="48" height="48" fill="#ffffff" stroke="#e9ecef" stroke-width="1" rx="4"/>
    <svg x="8" y="8" width="32" height="32" viewBox="0 0 16 16">
      
  <path fill-rule="evenodd" d="M14 4.5V14a2 2 0 0 1-2 2h-1v-1h1a1 1 0 0 0 1-1V4.5h-2A1.5 1.5 0 0 1 9.5 3V1H4a1 1 0 0 0-1 1v9H2V2a2 2 0 0 1 2-2h5.5zM2.575 15.202H.785v-1.073H2.47v-.606H.785v-1.025h1.79v-.648H0v3.999h2.575zM6.31 11.85h-.893l-.823 1.439h-.036l-.832-1.439h-.931l1.227 1.983-1.239 2.016h.861l.853-1.415h.035l.85 1.415h.908l-1.254-1.992zm1.025 3.352h1.79v.647H6.548V11.85h2.576v.648h-1.79v1.025h1.684v.606H7.334v1.073Z"/>

    </svg>
  </g>
  <!-- Icon 21: file-earmark-text -->
  <g transform="translate(372, 212)">
    <rect width="48" height="48" fill="#ffffff" stroke="#e9ecef" stroke-width="1" rx="4"/>
    <svg x="8" y="8" width="32" height="32" viewBox="0 0 16 16">
      
  <path d="M5.5 7a.5.5 0 0 0 0 1h5a.5.5 0 0 0 0-1zM5 9.5a.5.5 0 0 1 .5-.5h5a.5.5 0 0 1 0 1h-5a.5.5 0 0 1-.5-.5m0 2a.5.5 0 0 1 .5-.5h2a.5.5 0 0 1 0 1h-2a.5.5 0 0 1-.5-.5"/>
  <path d="M9.5 0H4a2 2 0 0 0-2 2v12a2 2 0 0 0 2 2h8a2 2 0 0 0 2-2V4.5zm0 1v2A1.5 1.5 0 0 0 11 4.5h2V14a1 1 0 0 1-1 1H4a1 1 0 0 1-1-1V2a1 1 0 0 1 1-1z"/>

    </svg>
  </g>
  <!-- Icon 22: fast-forward-circle -->
  <g transform="translate(12, 272)">
    <rect width="48" height="48" fill="#ffffff" stroke="#e9ecef" stroke-width="1" rx="4"/>
    <svg x="8" y="8" width="32" height="32" viewBox="0 0 16 16">
      
  <path d="M8 15A7 7 0 1 1 8 1a7 7 0 0 1 0 14m0 1A8 8 0 1 0 8 0a8 8 0 0 0 0 16"/>
  <path d="M4.271 5.055a.5.5 0 0 1 .52.038L8 7.386V5.5a.5.5 0 0 1 .79-.407l3.5 2.5a.5.5 0 0 1 0 .814l-3.5 2.5A.5.5 0 0 1 8 10.5V8.614l-3.21 2.293A.5.5 0 0 1 4 10.5v-5a.5.5 0 0 1 .271-.445"/>

    </svg>
  </g>
  <!-- Icon 23: emoji-tear -->
  <g transform="translate(72, 272)">
    <rect width="48" height="48" fill="#ffffff" stroke="#e9ecef" stroke-width="1" rx="4"/>
    <svg x="8" y="8" width="32" height="32" viewBox="0 0 16 16">
      
  <path d="M8 15A7 7 0 1 1 8 1a7 7 0 0 1 0 14m0 1A8 8 0 1 0 8 0a8 8 0 0 0 0 16"/>
  <path d="M6.831 11.43A3.1 3.1 0 0 1 8 11.196c.916 0 1.607.408 2.25.826.212.138.424-.069.282-.277-.564-.83-1.558-2.049-2.532-2.049-.53 0-1.066.361-1.536.824q.126.27.232.535.069.174.135.373ZM6 11.333C6 12.253 5.328 13 4.5 13S3 12.254 3 11.333c0-.706.882-2.29 1.294-2.99a.238.238 0 0 1 .412 0c.412.7 1.294 2.284 1.294 2.99M7 6.5C7 7.328 6.552 8 6 8s-1-.672-1-1.5S5.448 5 6 5s1 .672 1 1.5m4 0c0 .828-.448 1.5-1 1.5s-1-.672-1-1.5S9.448 5 10 5s1 .672 1 1.5m-1.5-3A.5.5 0 0 1 10 3c1.162 0 2.35.584 2.947 1.776a.5.5 0 1 1-.894.448C11.649 4.416 10.838 4 10 4a.5.5 0 0 1-.5-.5M7 3.5a.5.5 0 0 0-.5-.5c-1.162 0-2.35.584-2.947 1.776a.5.5 0 1 0 .894.448C4.851 4.416 5.662 4 6.5 4a.5.5 0 0 0 .5-.5"/>

    </svg>
  </g>
  <!-- Icon 24: disc -->
  <g transform="translate(132, 272)">
    <rect width="48" height="48" fill="#ffffff" stroke="#e9ecef" stroke-width="1" rx="4"/>
    <svg x="8" y="8" width="32" height="32" viewBox="0 0 16 16">
      
  <path d="M8 15A7 7 0 1 1 8 1a7 7 0 0 1 0 14m0 1A8 8 0 1 0 8 0a8 8 0 0 0 0 16"/>
  <path d="M10 8a2 2 0 1 1-4 0 2 2 0 0 1 4 0M8 4a4 4 0 0 0-4 4 .5.5 0 0 1-1 0 5 5 0 0 1 5-5 .5.5 0 0 1 0 1m4.5 3.5a.5.5 0 0 1 .5.5 5 5 0 0 1-5 5 .5.5 0 0 1 0-1 4 4 0 0 0 4-4 .5.5 0 0 1 .5-.5"/>

    </svg>
  </g>
  <!-- Icon 25: cup -->
  <g transform="translate(192, 272)">
    <rect width="48" height="48" fill="#ffffff" stroke="#e9ecef" stroke-width="1" rx="4"/>
    <svg x="8" y="8" width="32" height="32" viewBox="0 0 16 16">
      
  <path fill-rule="evenodd" d="M.11 3.187A.5.5 0 0 1 .5 3h13a.5.5 0 0 1 .488.608l-.22.991a3.001 3.001 0 0 1-1.3 5.854l-.132.59A2.5 2.5 0 0 1 9.896 13H4.104a2.5 2.5 0 0 1-2.44-1.958L.012 3.608a.5.5 0 0 1 .098-.42Zm12.574 6.288a2 2 0 0 0 .866-3.899zM1.124 4l1.516 6.825A1.5 1.5 0 0 0 4.104 12h5.792a1.5 1.5 0 0 0 1.464-1.175L12.877 4H1.123Z"/>

    </svg>
  </g>
  <!-- Icon 26: cloud-lightning -->
  <g transform="translate(252, 272)">
    <rect width="48" height="48" fill="#ffffff" stroke="#e9ecef" stroke-width="1" rx="4"/>
    <svg x="8" y="8" width="32" height="32" viewBox="0 0 16 16">
      
  <path d="M13.405 4.027a5.001 5.001 0 0 0-9.499-1.004A3.5 3.5 0 1 0 3.5 10H13a3 3 0 0 0 .405-5.973M8.5 1a4 4 0 0 1 3.976 3.555.5.5 0 0 0 .5.445H13a2 2 0 0 1 0 4H3.5a2.5 2.5 0 1 1 .605-4.926.5.5 0 0 0 .596-.329A4 4 0 0 1 8.5 1M7.053 11.276A.5.5 0 0 1 7.5 11h1a.5.5 0 0 1 .474.658l-.28.842H9.5a.5.5 0 0 1 .39.812l-2 2.5a.5.5 0 0 1-.875-.433L7.36 14H6.5a.5.5 0 0 1-.447-.724z"/>

    </svg>
  </g>
  <!-- Icon 27: chevron-double-up -->
  <g transform="translate(312, 272)">
    <rect width="48" height="48" fill="#ffffff" stroke="#e9ecef" stroke-width="1" rx="4"/>
    <svg x="8" y="8" width="32" height="32" viewBox="0 0 16 16">
      
  <path fill-rule="evenodd" d="M7.646 2.646a.5.5 0 0 1 .708 0l6 6a.5.5 0 0 1-.708.708L8 3.707 2.354 9.354a.5.5 0 1 1-.708-.708z"/>
  <path fill-rule="evenodd" d="M7.646 6.646a.5.5 0 0 1 .708 0l6 6a.5.5 0 0 1-.708.708L8 7.707l-5.646 5.647a.5.5 0 0 1-.708-.708z"/>

    </svg>
  </g>
  <!-- Icon 28: chat-left-quote -->
  <g transform="translate(372, 272)">
    <rect width="48" height="48" fill="#ffffff" stroke="#e9ecef" stroke-width="1" rx="4"/>
    <svg x="8" y="8" width="32" height="32" viewBox="0 0 16 16">
      
  <path d="M14 1a1 1 0 0 1 1 1v8a1 1 0 0 1-1 1H4.414A2 2 0 0 0 3 11.586l-2 2V2a1 1 0 0 1 1-1zM2 0a2 2 0 0 0-2 2v12.793a.5.5 0 0 0 .854.353l2.853-2.853A1 1 0 0 1 4.414 12H14a2 2 0 0 0 2-2V2a2 2 0 0 0-2-2z"/>
  <path d="M7.066 4.76A1.665 1.665 0 0 0 4 5.668a1.667 1.667 0 0 0 2.561 1.406c-.131.389-.375.804-.777 1.22a.417.417 0 1 0 .6.58c1.486-1.54 1.293-3.214.682-4.112zm4 0A1.665 1.665 0 0 0 8 5.668a1.667 1.667 0 0 0 2.561 1.406c-.131.389-.375.804-.777 1.22a.417.417 0 1 0 .6.58c1.486-1.54 1.293-3.214.682-4.112z"/>

    </svg>
  </g>
  <!-- Icon 29: camera-video -->
  <g transform="translate(12, 332)">
    <rect width="48" height="48" fill="#ffffff" stroke="#e9ecef" stroke-width="1" rx="4"/>
    <svg x="8" y="8" width="32" height="32" viewBox="0 0 16 16">
      
  <path fill-rule="evenodd" d="M0 5a2 2 0 0 1 2-2h7.5a2 2 0 0 1 1.983 1.738l3.11-1.382A1 1 0 0 1 16 4.269v7.462a1 1 0 0 1-1.406.913l-3.111-1.382A2 2 0 0 1 9.5 13H2a2 2 0 0 1-2-2zm11.5 5.175 3.5 1.556V4.269l-3.5 1.556zM2 4a1 1 0 0 0-1 1v6a1 1 0 0 0 1 1h7.5a1 1 0 0 0 1-1V5a1 1 0 0 0-1-1z"/>

    </svg>
  </g>
  <!-- Icon 30: c-circle -->
  <g transform="translate(72, 332)">
    <rect width="48" height="48" fill="#ffffff" stroke="#e9ecef" stroke-width="1" rx="4"/>
    <svg x="8" y="8" width="32" height="32" viewBox="0 0 16 16">
      
  <path d="M1 8a7 7 0 1 0 14 0A7 7 0 0 0 1 8m15 0A8 8 0 1 1 0 8a8 8 0 0 1 16 0M8.146 4.992c-1.212 0-1.927.92-1.927 2.502v1.06c0 1.571.703 2.462 1.927 2.462.979 0 1.641-.586 1.729-1.418h1.295v.093c-.1 1.448-1.354 2.467-3.03 2.467-2.091 0-3.269-1.336-3.269-3.603V7.482c0-2.261 1.201-3.638 3.27-3.638 1.681 0 2.935 1.054 3.029 2.572v.088H9.875c-.088-.879-.768-1.512-1.729-1.512"/>

    </svg>
  </g>
  <!-- Icon 31: box-arrow-up-right -->
  <g transform="translate(132, 332)">
    <rect width="48" height="48" fill="#ffffff" stroke="#e9ecef" stroke-width="1" rx="4"/>
    <svg x="8" y="8" width="32" height="32" viewBox="0 0 16 16">
      
  <path fill-rule="evenodd" d="M8.636 3.5a.5.5 0 0 0-.5-.5H1.5A1.5 1.5 0 0 0 0 4.5v10A1.5 1.5 0 0 0 1.5 16h10a1.5 1.5 0 0 0 1.5-1.5V7.864a.5.5 0 0 0-1 0V14.5a.5.5 0 0 1-.5.5h-10a.5.5 0 0 1-.5-.5v-10a.5.5 0 0 1 .5-.5h6.636a.5.5 0 0 0 .5-.5"/>
  <path fill-rule="evenodd" d="M16 .5a.5.5 0 0 0-.5-.5h-5a.5.5 0 0 0 0 1h3.793L6.146 9.146a.5.5 0 1 0 .708.708L15 1.707V5.5a.5.5 0 0 0 1 0z"/>

    </svg>
  </g>
  <!-- Icon 32: bookmark-dash -->
  <g transform="translate(192, 332)">
    <rect width="48" height="48" fill="#ffffff" stroke="#e9ecef" stroke-width="1" rx="4"/>
    <svg x="8" y="8" width="32" height="32" viewBox="0 0 16 16">
      
  <path fill-rule="evenodd" d="M5.5 6.5A.5.5 0 0 1 6 6h4a.5.5 0 0 1 0 1H6a.5.5 0 0 1-.5-.5"/>
  <path d="M2 2a2 2 0 0 1 2-2h8a2 2 0 0 1 2 2v13.5a.5.5 0 0 1-.777.416L8 13.101l-5.223 2.815A.5.5 0 0 1 2 15.5zm2-1a1 1 0 0 0-1 1v12.566l4.723-2.482a.5.5 0 0 1 .554 0L13 14.566V2a1 1 0 0 0-1-1z"/>

    </svg>
  </g>
  <!-- Icon 33: bag-dash -->
  <g transform="translate(252, 332)">
    <rect width="48" height="48" fill="#ffffff" stroke="#e9ecef" stroke-width="1" rx="4"/>
    <svg x="8" y="8" width="32" height="32" viewBox="0 0 16 16">
      
  <path fill-rule="evenodd" d="M5.5 10a.5.5 0 0 1 .5-.5h4a.5.5 0 0 1 0 1H6a.5.5 0 0 1-.5-.5"/>
  <path d="M8 1a2.5 2.5 0 0 1 2.5 2.5V4h-5v-.5A2.5 2.5 0 0 1 8 1m3.5 3v-.5a3.5 3.5 0 1 0-7 0V4H1v10a2 2 0 0 0 2 2h10a2 2 0 0 0 2-2V4zM2 5h12v9a1 1 0 0 1-1 1H3a1 1 0 0 1-1-1z"/>

    </svg>
  </g>
  <!-- Icon 34: arrow-up-right-square -->
  <g transform="translate(312, 332)">
    <rect width="48" height="48" fill="#ffffff" stroke="#e9ecef" stroke-width="1" rx="4"/>
    <svg x="8" y="8" width="32" height="32" viewBox="0 0 16 16">
      
  <path fill-rule="evenodd" d="M15 2a1 1 0 0 0-1-1H2a1 1 0 0 0-1 1v12a1 1 0 0 0 1 1h12a1 1 0 0 0 1-1zM0 2a2 2 0 0 1 2-2h12a2 2 0 0 1 2 2v12a2 2 0 0 1-2 2H2a2 2 0 0 1-2-2zm5.854 8.803a.5.5 0 1 1-.708-.707L9.243 6H6.475a.5.5 0 1 1 0-1h3.975a.5.5 0 0 1 .5.5v3.975a.5.5 0 1 1-1 0V6.707z"/>

    </svg>
  </g>
  <!-- Icon 35: arrow-90deg-down -->
  <g transform="translate(372, 332)">
    <rect width="48" height="48" fill="#ffffff" stroke="#e9ecef" stroke-width="1" rx="4"/>
    <svg x="8" y="8" width="32" height="32" viewBox="0 0 16 16">
      
  <path fill-rule="evenodd" d="M4.854 14.854a.5.5 0 0 1-.708 0l-4-4a.5.5 0 0 1 .708-.708L4 13.293V3.5A2.5 2.5 0 0 1 6.5 1h8a.5.5 0 0 1 0 1h-8A1.5 1.5 0 0 0 5 3.5v9.793l3.146-3.147a.5.5 0 0 1 .708.708z"/>

    </svg>
  </g>
  
  <!-- Footer -->
  <text x="400" y="580" text-anchor="middle" font-family="system-ui, -apple-system, sans-serif" font-size="12" fill="#6c757d">
    Showing 35 of 1373 icons
  </text>
  
</svg>