<svg width="800" height="600" xmlns="http://www.w3.org/2000/svg">
  <!-- Background -->
  <rect width="800" height="600" fill="#ffffff"/>
  
  <!-- Header Background -->
  <rect width="800" height="80" fill="#f8f9fa"/>
  
  <!-- Title -->
  <text x="400" y="30" text-anchor="middle" font-family="system-ui, -apple-system, sans-serif" font-size="20" font-weight="bold" fill="#212529">Boxicons - solid</text>
  
  <!-- Subtitle -->
  <text x="400" y="55" text-anchor="middle" font-family="system-ui, -apple-system, sans-serif" font-size="14" fill="#6c757d">665 icons</text>
  
  <!-- Icon Grid -->
  <!-- Icon 1: bxs-zoom-out -->
  <g transform="translate(12, 92)">
    <rect width="48" height="48" fill="#ffffff" stroke="#e9ecef" stroke-width="1" rx="4"/>
    <svg x="8" y="8" width="32" height="32" viewBox="0 0 24 24">
      <path d="M10 18a7.952 7.952 0 0 0 4.897-1.688l4.396 4.396 1.414-1.414-4.396-4.396A7.952 7.952 0 0 0 18 10c0-4.411-3.589-8-8-8s-8 3.589-8 8 3.589 8 8 8zM6 9h8v2H6V9z"/>
    </svg>
  </g>
  <!-- Icon 2: bxs-volume-mute -->
  <g transform="translate(72, 92)">
    <rect width="48" height="48" fill="#ffffff" stroke="#e9ecef" stroke-width="1" rx="4"/>
    <svg x="8" y="8" width="32" height="32" viewBox="0 0 24 24">
      <path d="m7.727 6.313-4.02-4.02-1.414 1.414 18 18 1.414-1.414-2.02-2.02A9.578 9.578 0 0 0 21.999 12c0-4.091-2.472-7.453-5.999-9v2c2.387 1.386 3.999 4.047 3.999 7a8.13 8.13 0 0 1-1.671 4.914l-1.286-1.286C17.644 14.536 18 13.19 18 12c0-1.771-.775-3.9-2-5v7.586l-2-2V2.132L7.727 6.313zM4 17h2.697L14 21.868v-3.747L3.102 7.223A1.995 1.995 0 0 0 2 9v6c0 1.103.897 2 2 2z"/>
    </svg>
  </g>
  <!-- Icon 3: bxs-user-detail -->
  <g transform="translate(132, 92)">
    <rect width="48" height="48" fill="#ffffff" stroke="#e9ecef" stroke-width="1" rx="4"/>
    <svg x="8" y="8" width="32" height="32" viewBox="0 0 24 24">
      <path d="M15 11h7v2h-7zm1 4h6v2h-6zm-2-8h8v2h-8zM4 19h10v-1c0-2.757-2.243-5-5-5H7c-2.757 0-5 2.243-5 5v1h2zm4-7c1.995 0 3.5-1.505 3.5-3.5S9.995 5 8 5 4.5 6.505 4.5 8.5 6.005 12 8 12z"/>
    </svg>
  </g>
  <!-- Icon 4: bxs-train -->
  <g transform="translate(192, 92)">
    <rect width="48" height="48" fill="#ffffff" stroke="#e9ecef" stroke-width="1" rx="4"/>
    <svg x="8" y="8" width="32" height="32" viewBox="0 0 24 24">
      <path d="M16.375 2H7.621c-.224 0-1.399.065-2.503 1.351C4.031 4.616 4 5.862 4 6v11a2 2 0 0 0 2 2h1l-2 3h2.353l.667-1h8l.677 1H19l-2-3h1a2 2 0 0 0 2-2V6c.001-.188-.032-1.434-1.129-2.665C17.715 2.037 16.509 2 16.375 2zM10 4h4v2h-4V4zM7.5 17a1.5 1.5 0 1 1 .001-3.001A1.5 1.5 0 0 1 7.5 17zm9 0a1.5 1.5 0 1 1 .001-3.001A1.5 1.5 0 0 1 16.5 17zm1.5-5H6V8h12v4z"/>
    </svg>
  </g>
  <!-- Icon 5: bxs-tag-alt -->
  <g transform="translate(252, 92)">
    <rect width="48" height="48" fill="#ffffff" stroke="#e9ecef" stroke-width="1" rx="4"/>
    <svg x="8" y="8" width="32" height="32" viewBox="0 0 24 24">
      <path d="m21.868 11.504-4-7A1 1 0 0 0 17 4H3a1 1 0 0 0-.868 1.496L5.849 12l-3.717 6.504A1 1 0 0 0 3 20h14a1 1 0 0 0 .868-.504l4-7a.998.998 0 0 0 0-.992z"/>
    </svg>
  </g>
  <!-- Icon 6: bxs-slideshow -->
  <g transform="translate(312, 92)">
    <rect width="48" height="48" fill="#ffffff" stroke="#e9ecef" stroke-width="1" rx="4"/>
    <svg x="8" y="8" width="32" height="32" viewBox="0 0 24 24">
      <path d="M20 3H4c-1.103 0-2 .897-2 2v10c0 1.103.897 2 2 2h7v3H8v2h8v-2h-3v-3h7c1.103 0 2-.897 2-2V5c0-1.103-.897-2-2-2zM10 13V7l5 3-5 3z"/>
    </svg>
  </g>
  <!-- Icon 7: bxs-shapes -->
  <g transform="translate(372, 92)">
    <rect width="48" height="48" fill="#ffffff" stroke="#e9ecef" stroke-width="1" rx="4"/>
    <svg x="8" y="8" width="32" height="32" viewBox="0 0 24 24">
      <path d="M17.867 2.504c-.355-.624-1.381-.623-1.736 0l-3.999 7A1 1 0 0 0 13 11h8a1.001 1.001 0 0 0 .868-1.496l-4.001-7zM3 22h7a1 1 0 0 0 1-1v-7a1 1 0 0 0-1-1H3a1 1 0 0 0-1 1v7a1 1 0 0 0 1 1zm14.5-9c-2.481 0-4.5 2.019-4.5 4.5s2.019 4.5 4.5 4.5 4.5-2.019 4.5-4.5-2.019-4.5-4.5-4.5z"/>
    </svg>
  </g>
  <!-- Icon 8: bxs-rename -->
  <g transform="translate(12, 152)">
    <rect width="48" height="48" fill="#ffffff" stroke="#e9ecef" stroke-width="1" rx="4"/>
    <svg x="8" y="8" width="32" height="32" viewBox="0 0 24 24">
      <path d="M20 5.995h-1v12h1c1.103 0 2-.897 2-2v-8c0-1.102-.897-2-2-2z"/><path d="M17 17.995V4h2.995V2h-8v2H15v1.995H4c-1.103 0-2 .897-2 2v8c0 1.103.897 2 2 2h11V20h-3.005v2h8v-2H17v-2.005zm-11-4v-4h9v4H6z"/>
    </svg>
  </g>
  <!-- Icon 9: bxs-plus-square -->
  <g transform="translate(72, 152)">
    <rect width="48" height="48" fill="#ffffff" stroke="#e9ecef" stroke-width="1" rx="4"/>
    <svg x="8" y="8" width="32" height="32" viewBox="0 0 24 24">
      <path d="M5 21h14a2 2 0 0 0 2-2V5a2 2 0 0 0-2-2H5a2 2 0 0 0-2 2v14a2 2 0 0 0 2 2zm2-10h4V7h2v4h4v2h-4v4h-2v-4H7v-2z"/>
    </svg>
  </g>
  <!-- Icon 10: bxs-phone-incoming -->
  <g transform="translate(132, 152)">
    <rect width="48" height="48" fill="#ffffff" stroke="#e9ecef" stroke-width="1" rx="4"/>
    <svg x="8" y="8" width="32" height="32" viewBox="0 0 24 24">
      <path d="M15.793 6.793 13 4v7h7l-2.793-2.793 4.5-4.5-1.414-1.414z"/><path d="M16.422 13.443a1.001 1.001 0 0 0-1.391.043l-2.392 2.461c-.576-.11-1.734-.471-2.926-1.66-1.192-1.193-1.553-2.354-1.66-2.926l2.459-2.394a1 1 0 0 0 .043-1.391L6.86 3.513a1 1 0 0 0-1.391-.087l-2.17 1.861a1.001 1.001 0 0 0-.291.649c-.015.25-.301 6.172 4.291 10.766C11.305 20.707 16.324 21 17.705 21c.203 0 .326-.006.359-.008a.99.99 0 0 0 .648-.291l1.861-2.171a1.001 1.001 0 0 0-.086-1.391l-4.065-3.696z"/>
    </svg>
  </g>
  <!-- Icon 11: bxs-objects-horizontal-center -->
  <g transform="translate(192, 152)">
    <rect width="48" height="48" fill="#ffffff" stroke="#e9ecef" stroke-width="1" rx="4"/>
    <svg x="8" y="8" width="32" height="32" viewBox="0 0 24 24">
      <path d="M19 13h-6v-2h4a1 1 0 0 0 1-1V6a1 1 0 0 0-1-1h-4V2h-2v3H7a1 1 0 0 0-1 1v4a1 1 0 0 0 1 1h4v2H5a1 1 0 0 0-1 1v4a1 1 0 0 0 1 1h6v3h2v-3h6a1 1 0 0 0 1-1v-4a1 1 0 0 0-1-1z"/>
    </svg>
  </g>
  <!-- Icon 12: bxs-microphone -->
  <g transform="translate(252, 152)">
    <rect width="48" height="48" fill="#ffffff" stroke="#e9ecef" stroke-width="1" rx="4"/>
    <svg x="8" y="8" width="32" height="32" viewBox="0 0 24 24">
      <path d="M12 16c2.206 0 4-1.794 4-4V6c0-2.217-1.785-4.021-3.979-4.021a.933.933 0 0 0-.209.025A4.006 4.006 0 0 0 8 6v6c0 2.206 1.794 4 4 4z"/><path d="M11 19.931V22h2v-2.069c3.939-.495 7-3.858 7-7.931h-2c0 3.309-2.691 6-6 6s-6-2.691-6-6H4c0 4.072 3.061 7.436 7 7.931z"/>
    </svg>
  </g>
  <!-- Icon 13: bxs-message-rounded-error -->
  <g transform="translate(312, 152)">
    <rect width="48" height="48" fill="#ffffff" stroke="#e9ecef" stroke-width="1" rx="4"/>
    <svg x="8" y="8" width="32" height="32" viewBox="0 0 24 24">
      <path d="M12 2C6.486 2 2 5.589 2 10c0 2.907 1.897 5.516 5 6.934V22l5.34-4.005C17.697 17.854 22 14.32 22 10c0-4.411-4.486-8-10-8zm1 12h-2v-2h2v2zm0-4h-2V5h2v5z"/>
    </svg>
  </g>
  <!-- Icon 14: bxs-message-alt-check -->
  <g transform="translate(372, 152)">
    <rect width="48" height="48" fill="#ffffff" stroke="#e9ecef" stroke-width="1" rx="4"/>
    <svg x="8" y="8" width="32" height="32" viewBox="0 0 24 24">
      <path d="M3 4v12c0 1.103.897 2 2 2h3.5l3.5 4 3.5-4H19c1.103 0 2-.897 2-2V4c0-1.103-.897-2-2-2H5c-1.103 0-2 .897-2 2zm5.707 4.293L11 10.586l4.793-4.793 1.414 1.414L11 13.414 7.293 9.707l1.414-1.414z"/>
    </svg>
  </g>
  <!-- Icon 15: bxs-log-in-circle -->
  <g transform="translate(12, 212)">
    <rect width="48" height="48" fill="#ffffff" stroke="#e9ecef" stroke-width="1" rx="4"/>
    <svg x="8" y="8" width="32" height="32" viewBox="0 0 24 24">
      <path d="M12 3c-4.625 0-8.442 3.507-8.941 8.001H10v-3l5 4-5 4v-3H3.06C3.56 17.494 7.376 21 12 21c4.963 0 9-4.037 9-9s-4.037-9-9-9z"/>
    </svg>
  </g>
  <!-- Icon 16: bxs-laugh -->
  <g transform="translate(72, 212)">
    <rect width="48" height="48" fill="#ffffff" stroke="#e9ecef" stroke-width="1" rx="4"/>
    <svg x="8" y="8" width="32" height="32" viewBox="0 0 24 24">
      <path d="M12 2C6.486 2 2 6.486 2 12s4.486 10 10 10 10-4.486 10-10S17.514 2 12 2zm-6.447 9.105 2.459-1.229-1.567-1.044 1.109-1.664 3 2a1 1 0 0 1-.108 1.727l-4 2-.893-1.79zM12 18c-4 0-5-4-5-4h10s-1 4-5 4zm5.553-5.105-4-2a1 1 0 0 1-.108-1.727l3-2 1.109 1.664-1.566 1.044 2.459 1.229-.894 1.79z"/>
    </svg>
  </g>
  <!-- Icon 17: bxs-hourglass -->
  <g transform="translate(132, 212)">
    <rect width="48" height="48" fill="#ffffff" stroke="#e9ecef" stroke-width="1" rx="4"/>
    <svg x="8" y="8" width="32" height="32" viewBox="0 0 24 24">
      <path d="M19 22h1v-2h-1v-1a7.014 7.014 0 0 0-3.433-6.02c-.355-.21-.567-.547-.567-.901v-.158c0-.354.212-.691.566-.9A7.016 7.016 0 0 0 19 5V4h1V2H4v2h1v1a7.016 7.016 0 0 0 3.434 6.021c.354.209.566.545.566.9v.158c0 .354-.212.691-.566.9A7.016 7.016 0 0 0 5 19v1H4v2h15zM17 4v1a5.005 5.005 0 0 1-1.004 3H8.004A5.005 5.005 0 0 1 7 5V4h10zM9.45 14.702c.971-.574 1.55-1.554 1.55-2.623V12h2v.079c0 1.068.579 2.049 1.551 2.623A4.98 4.98 0 0 1 16.573 17H7.427a4.977 4.977 0 0 1 2.023-2.298z"/>
    </svg>
  </g>
  <!-- Icon 18: bxs-happy-beaming -->
  <g transform="translate(192, 212)">
    <rect width="48" height="48" fill="#ffffff" stroke="#e9ecef" stroke-width="1" rx="4"/>
    <svg x="8" y="8" width="32" height="32" viewBox="0 0 24 24">
      <path d="M12 2C6.486 2 2 6.486 2 12s4.486 10 10 10 10-4.486 10-10S17.514 2 12 2zM8 9c2.201 0 3 1.794 3 3H9c-.012-.45-.194-1-1-1s-.988.55-1 1.012L5 12c0-1.206.799-3 3-3zm4 9c-4 0-5-4-5-4h10s-1 4-5 4zm5-6c-.012-.45-.194-1-1-1s-.988.55-1 1.012L13 12c0-1.206.799-3 3-3s3 1.794 3 3h-2z"/>
    </svg>
  </g>
  <!-- Icon 19: bxs-folder-plus -->
  <g transform="translate(252, 212)">
    <rect width="48" height="48" fill="#ffffff" stroke="#e9ecef" stroke-width="1" rx="4"/>
    <svg x="8" y="8" width="32" height="32" viewBox="0 0 24 24">
      <path d="M20 5h-9.586L8.707 3.293A.997.997 0 0 0 8 3H4c-1.103 0-2 .897-2 2v14c0 1.103.897 2 2 2h16c1.103 0 2-.897 2-2V7c0-1.103-.897-2-2-2zm-4 9h-3v3h-2v-3H8v-2h3V9h2v3h3v2z"/>
    </svg>
  </g>
  <!-- Icon 20: bxs-file-js -->
  <g transform="translate(312, 212)">
    <rect width="48" height="48" fill="#ffffff" stroke="#e9ecef" stroke-width="1" rx="4"/>
    <svg x="8" y="8" width="32" height="32" viewBox="0 0 24 24">
      <path d="M14 2H6a2 2 0 0 0-2 2v16a2 2 0 0 0 2 2h12a2 2 0 0 0 2-2V8l-6-6zm-2.745 14.186c0 1.345-.644 1.814-1.681 1.814-.245 0-.567-.042-.777-.112l.119-.861c.147.049.336.084.546.084.448 0 .729-.203.729-.938v-2.97h1.064v2.983zm2.043 1.807c-.539 0-1.071-.141-1.337-.287l.217-.883c.287.147.729.294 1.184.294.491 0 .749-.203.749-.511 0-.295-.224-.463-.791-.666-.784-.272-1.295-.707-1.295-1.394 0-.806.672-1.422 1.786-1.422.533 0 .925.112 1.205.238l-.238.861c-.189-.091-.525-.224-.987-.224s-.687.21-.687.455c0 .301.267.435.875.665.834.309 1.226.742 1.226 1.408-.002.793-.61 1.466-1.907 1.466zM14 9h-1V4l5 5h-4z"/>
    </svg>
  </g>
  <!-- Icon 21: bxs-ev-station -->
  <g transform="translate(372, 212)">
    <rect width="48" height="48" fill="#ffffff" stroke="#e9ecef" stroke-width="1" rx="4"/>
    <svg x="8" y="8" width="32" height="32" viewBox="0 0 24 24">
      <path d="m19.616 6.48.014-.017-4-3.24-1.26 1.554 2.067 1.674a2.99 2.99 0 0 0-1.394 3.062c.15.899.769 1.676 1.57 2.111.895.487 1.68.442 2.378.194L18.976 18a.996.996 0 0 1-1.39.922.995.995 0 0 1-.318-.217.996.996 0 0 1-.291-.705L17 16a2.98 2.98 0 0 0-.877-2.119A3 3 0 0 0 14 13h-1V5a2 2 0 0 0-2-2H4a2 2 0 0 0-2 2v14a2 2 0 0 0 2 2h7a2 2 0 0 0 2-2v-4h1c.136 0 .267.027.391.078a1.028 1.028 0 0 1 .531.533A.994.994 0 0 1 15 16l-.024 2c0 .406.079.799.236 1.168.151.359.368.68.641.951a2.97 2.97 0 0 0 2.123.881c.406 0 .798-.078 1.168-.236.358-.15.68-.367.951-.641A2.983 2.983 0 0 0 20.976 18L21 9a2.997 2.997 0 0 0-1.384-2.52zM6 18l1-5H4l5-7-1 5h3l-5 7zm12-8a1 1 0 1 1 0-2 1 1 0 0 1 0 2z"/>
    </svg>
  </g>
  <!-- Icon 22: bxs-down-arrow-square -->
  <g transform="translate(12, 272)">
    <rect width="48" height="48" fill="#ffffff" stroke="#e9ecef" stroke-width="1" rx="4"/>
    <svg x="8" y="8" width="32" height="32" viewBox="0 0 24 24">
      <path d="M19 21a2 2 0 0 0 2-2V5a2 2 0 0 0-2-2H5a2 2 0 0 0-2 2v14a2 2 0 0 0 2 2h14zm-8-9V7h2v5h4l-5 5-5-5h4z"/>
    </svg>
  </g>
  <!-- Icon 23: bxs-direction-right -->
  <g transform="translate(72, 272)">
    <rect width="48" height="48" fill="#ffffff" stroke="#e9ecef" stroke-width="1" rx="4"/>
    <svg x="8" y="8" width="32" height="32" viewBox="0 0 24 24">
      <path d="m2.295 12.707 8.978 9c.389.39 1.025.391 1.414.002l9.021-9a1 1 0 0 0 0-1.416l-9.021-9a.999.999 0 0 0-1.414.002l-8.978 9a.998.998 0 0 0 0 1.412zm6.707-2.706h5v-2l3 3-3 3v-2h-3v4h-2v-6z"/>
    </svg>
  </g>
  <!-- Icon 24: bxs-crop -->
  <g transform="translate(132, 272)">
    <rect width="48" height="48" fill="#ffffff" stroke="#e9ecef" stroke-width="1" rx="4"/>
    <svg x="8" y="8" width="32" height="32" viewBox="0 0 24 24">
      <path d="M19 7.5C19 6.121 17.879 5 16.5 5H8V2H5v3H2v3h14v14h3v-3h3v-3h-3V7.5z"/><path d="M8 10H5v6.5C5 17.879 6.121 19 7.5 19H14v-3H8v-6z"/>
    </svg>
  </g>
  <!-- Icon 25: bxs-comment-error -->
  <g transform="translate(192, 272)">
    <rect width="48" height="48" fill="#ffffff" stroke="#e9ecef" stroke-width="1" rx="4"/>
    <svg x="8" y="8" width="32" height="32" viewBox="0 0 24 24">
      <path d="M20 2H4c-1.103 0-2 .897-2 2v18l4-4h14c1.103 0 2-.897 2-2V4c0-1.103-.897-2-2-2zm-7 13h-2v-2h2v2zm0-4h-2V5h2v6z"/>
    </svg>
  </g>
  <!-- Icon 26: bxs-cloud-lightning -->
  <g transform="translate(252, 272)">
    <rect width="48" height="48" fill="#ffffff" stroke="#e9ecef" stroke-width="1" rx="4"/>
    <svg x="8" y="8" width="32" height="32" viewBox="0 0 24 24">
      <path d="M18.944 10.112C18.507 6.67 15.56 4 12 4 9.244 4 6.85 5.611 5.757 8.15 3.609 8.792 2 10.82 2 13c0 2.757 2.243 5 5 5h1.333L10 13h4l-2 3h2.975l-1.325 2H18c2.206 0 4-1.794 4-4a4.01 4.01 0 0 0-3.056-3.888zM11 18H8.333L8 19h3v3l2.649-4H11.5z"/>
    </svg>
  </g>
  <!-- Icon 27: bxs-chevron-right-circle -->
  <g transform="translate(312, 272)">
    <rect width="48" height="48" fill="#ffffff" stroke="#e9ecef" stroke-width="1" rx="4"/>
    <svg x="8" y="8" width="32" height="32" viewBox="0 0 24 24">
      <path d="M12 2C6.486 2 2 6.486 2 12s4.486 10 10 10 10-4.486 10-10S17.514 2 12 2zm-1.293 15.707-1.414-1.414L13.586 12 9.293 7.707l1.414-1.414L16.414 12l-5.707 5.707z"/>
    </svg>
  </g>
  <!-- Icon 28: bxs-cctv -->
  <g transform="translate(372, 272)">
    <rect width="48" height="48" fill="#ffffff" stroke="#e9ecef" stroke-width="1" rx="4"/>
    <svg x="8" y="8" width="32" height="32" viewBox="0 0 24 24">
      <path d="M18.618 7.462 6.403 2.085a1.007 1.007 0 0 0-.77-.016 1.002 1.002 0 0 0-.552.537l-3 7a1 1 0 0 0 .525 1.313L9.563 13.9 8.323 17H4v-3H2v8h2v-3h4.323c.823 0 1.552-.494 1.856-1.258l1.222-3.054 3.419 1.465a1 1 0 0 0 1.311-.518l3-6.857a1 1 0 0 0-.513-1.316zm1.312 8.91-1.858-.742 1.998-5 1.858.741z"/>
    </svg>
  </g>
  <!-- Icon 29: bxs-car -->
  <g transform="translate(12, 332)">
    <rect width="48" height="48" fill="#ffffff" stroke="#e9ecef" stroke-width="1" rx="4"/>
    <svg x="8" y="8" width="32" height="32" viewBox="0 0 24 24">
      <path d="m20.772 10.155-1.368-4.104A2.995 2.995 0 0 0 16.559 4H7.441a2.995 2.995 0 0 0-2.845 2.051l-1.368 4.104A2 2 0 0 0 2 12v5c0 .738.404 1.376 1 1.723V21a1 1 0 0 0 1 1h1a1 1 0 0 0 1-1v-2h12v2a1 1 0 0 0 1 1h1a1 1 0 0 0 1-1v-2.277A1.99 1.99 0 0 0 22 17v-5a2 2 0 0 0-1.228-1.845zM7.441 6h9.117c.431 0 .813.274.949.684L18.613 10H5.387l1.105-3.316A1 1 0 0 1 7.441 6zM5.5 16a1.5 1.5 0 1 1 .001-3.001A1.5 1.5 0 0 1 5.5 16zm13 0a1.5 1.5 0 1 1 .001-3.001A1.5 1.5 0 0 1 18.5 16z"/>
    </svg>
  </g>
  <!-- Icon 30: bxs-calendar-heart -->
  <g transform="translate(72, 332)">
    <rect width="48" height="48" fill="#ffffff" stroke="#e9ecef" stroke-width="1" rx="4"/>
    <svg x="8" y="8" width="32" height="32" viewBox="0 0 24 24">
      <path d="M19 4h-2V2h-2v2H9V2H7v2H5c-1.103 0-2 .897-2 2v14c0 1.103.897 2 2 2h14c1.103 0 2-.897 2-2V6c0-1.103-.897-2-2-2zm-3.648 11.711L12.002 19l-3.349-3.289a2.129 2.129 0 0 1 0-3.069 2.224 2.224 0 0 1 3.125 0l.224.219.224-.219a2.225 2.225 0 0 1 3.126 0 2.129 2.129 0 0 1 0 3.069zM19 9H5V7h14v2z"/>
    </svg>
  </g>
  <!-- Icon 31: bxs-bug -->
  <g transform="translate(132, 332)">
    <rect width="48" height="48" fill="#ffffff" stroke="#e9ecef" stroke-width="1" rx="4"/>
    <svg x="8" y="8" width="32" height="32" viewBox="0 0 24 24">
      <path d="M6.787 7h10.426c-.108-.158-.201-.331-.318-.481l2.813-2.812-1.414-1.414-2.846 2.846a6.575 6.575 0 0 0-.723-.454 5.778 5.778 0 0 0-5.45 0c-.25.132-.488.287-.722.453L5.707 2.293 4.293 3.707l2.813 2.812c-.118.151-.21.323-.319.481zM5.756 9H2v2h2.307c-.065.495-.107.997-.107 1.5 0 .507.042 1.013.107 1.511H2v2h2.753c.013.039.021.08.034.118.188.555.421 1.093.695 1.6.044.081.095.155.141.234l-2.33 2.33 1.414 1.414 2.11-2.111a7.477 7.477 0 0 0 2.068 1.619c.479.253.982.449 1.496.58.204.052.411.085.618.118V16h2v5.914a6.23 6.23 0 0 0 .618-.118 6.812 6.812 0 0 0 1.496-.58c.465-.246.914-.55 1.333-.904.258-.218.5-.462.734-.716l2.111 2.111 1.414-1.414-2.33-2.33c.047-.08.098-.155.142-.236.273-.505.507-1.043.694-1.599.013-.039.021-.079.034-.118H22v-2h-2.308c.065-.499.107-1.004.107-1.511 0-.503-.042-1.005-.106-1.5H22V9H5.756z"/>
    </svg>
  </g>
  <!-- Icon 32: bxs-bookmark-minus -->
  <g transform="translate(192, 332)">
    <rect width="48" height="48" fill="#ffffff" stroke="#e9ecef" stroke-width="1" rx="4"/>
    <svg x="8" y="8" width="32" height="32" viewBox="0 0 24 24">
      <path d="M17 2H7a2 2 0 0 0-2 2v18l7-4.848L19 22V4a2 2 0 0 0-2-2zm-1 9H8V9h8v2z"/>
    </svg>
  </g>
  <!-- Icon 33: bxs-binoculars -->
  <g transform="translate(252, 332)">
    <rect width="48" height="48" fill="#ffffff" stroke="#e9ecef" stroke-width="1" rx="4"/>
    <svg x="8" y="8" width="32" height="32" viewBox="0 0 24 24">
      <path d="M19.447 5.345A3.27 3.27 0 0 0 16.29 3a3.293 3.293 0 0 0-3.277 3h-2.025a3.297 3.297 0 0 0-3.284-3 3.268 3.268 0 0 0-3.151 2.345l-2.511 8.368A1.027 1.027 0 0 0 2 14v1a5.006 5.006 0 0 0 5.001 5 5.003 5.003 0 0 0 4.576-3h.846a5.003 5.003 0 0 0 4.576 3A5.006 5.006 0 0 0 22 14.999V14c0-.098-.015-.194-.042-.287l-2.511-8.368zM7.001 18A3.005 3.005 0 0 1 4 15c0-.076.017-.147.022-.222A2.995 2.995 0 0 1 7 12a3 3 0 0 1 3 3v.009A3.004 3.004 0 0 1 7.001 18zm9.998 0A3.004 3.004 0 0 1 14 15.009V15a3 3 0 0 1 6-.001A3.005 3.005 0 0 1 16.999 18z"/>
    </svg>
  </g>
  <!-- Icon 34: bxs-bar-chart-square -->
  <g transform="translate(312, 332)">
    <rect width="48" height="48" fill="#ffffff" stroke="#e9ecef" stroke-width="1" rx="4"/>
    <svg x="8" y="8" width="32" height="32" viewBox="0 0 24 24">
      <path d="M21 19V5a2 2 0 0 0-2-2H5a2 2 0 0 0-2 2v14a2 2 0 0 0 2 2h14a2 2 0 0 0 2-2zM9 18H7v-6h2v6zm4 0h-2V7h2v11zm4 0h-2v-8h2v8z"/>
    </svg>
  </g>
  <!-- Icon 35: bxs-arrow-from-left -->
  <g transform="translate(372, 332)">
    <rect width="48" height="48" fill="#ffffff" stroke="#e9ecef" stroke-width="1" rx="4"/>
    <svg x="8" y="8" width="32" height="32" viewBox="0 0 24 24">
      <path d="M4 6h2v12H4zm10 5H8v2h6v5l6-6-6-6z"/>
    </svg>
  </g>
  
  <!-- Footer -->
  <text x="400" y="580" text-anchor="middle" font-family="system-ui, -apple-system, sans-serif" font-size="12" fill="#6c757d">
    Showing 35 of 665 icons
  </text>
  
</svg>