<svg width="800" height="600" xmlns="http://www.w3.org/2000/svg">
  <!-- Background -->
  <rect width="800" height="600" fill="#ffffff"/>
  
  <!-- Header Background -->
  <rect width="800" height="80" fill="#f8f9fa"/>
  
  <!-- Title -->
  <text x="400" y="30" text-anchor="middle" font-family="system-ui, -apple-system, sans-serif" font-size="20" font-weight="bold" fill="#212529">Boxicons - logos</text>
  
  <!-- Subtitle -->
  <text x="400" y="55" text-anchor="middle" font-family="system-ui, -apple-system, sans-serif" font-size="14" fill="#6c757d">155 icons</text>
  
  <!-- Icon Grid -->
  <!-- Icon 1: bxl-zoom -->
  <g transform="translate(12, 92)">
    <rect width="48" height="48" fill="#ffffff" stroke="#e9ecef" stroke-width="1" rx="4"/>
    <svg x="8" y="8" width="32" height="32" viewBox="0 0 24 24">
      <path d="M1.984 7.506v6.74c.006 1.524 1.361 2.75 3.014 2.745h10.693c.303 0 .549-.225.549-.498v-6.74c-.008-1.523-1.363-2.75-3.014-2.744H2.531c-.302 0-.547.224-.547.497zm14.936 2.63 4.416-2.963c.383-.292.68-.219.68.309v9.036c0 .601-.363.528-.68.309L16.92 13.87v-3.734z"/>
    </svg>
  </g>
  <!-- Icon 2: bxl-xing -->
  <g transform="translate(72, 92)">
    <rect width="48" height="48" fill="#ffffff" stroke="#e9ecef" stroke-width="1" rx="4"/>
    <svg x="8" y="8" width="32" height="32" viewBox="0 0 24 24">
      <path d="M5 6a.4.4 0 0 0-.38.62l2 3.38-3.06 5.4a.45.45 0 0 0 0 .45.43.43 0 0 0 .38.19h2.87a.89.89 0 0 0 .79-.55s3-5.31 3.11-5.51l-2-3.46A.91.91 0 0 0 7.92 6zm12.16-4a.84.84 0 0 0-.77.55L10 13.93l4.09 7.52a.91.91 0 0 0 .81.55h2.88a.43.43 0 0 0 .38-.18.45.45 0 0 0 0-.45l-4.07-7.43 6.36-11.31a.45.45 0 0 0 0-.45.44.44 0 0 0-.38-.18z"/>
    </svg>
  </g>
  <!-- Icon 3: bxl-wikipedia -->
  <g transform="translate(132, 92)">
    <rect width="48" height="48" fill="#ffffff" stroke="#e9ecef" stroke-width="1" rx="4"/>
    <svg x="8" y="8" width="32" height="32" viewBox="0 0 24 24">
      <path d="M12.081 12.932c-.78 1.611-1.849 3.792-2.379 4.776-.513.896-.94.776-1.278.024-1.172-2.77-3.58-7.625-4.712-10.347-.209-.502-.367-.823-.516-.95-.151-.125-.462-.2-.936-.227-.174-.019-.26-.061-.26-.131v-.379l.043-.038c.771-.004 4.503 0 4.503 0l.042.038v.362c0 .1-.063.147-.188.147l-.47.024c-.403.026-.605.137-.605.365 0 .112.044.275.139.501.902 2.206 4.017 8.772 4.017 8.772l.114.039 2.01-4.012-.402-.89L9.82 8.285s-.265-.545-.357-.727c-.607-1.203-.593-1.265-1.206-1.347-.173-.02-.261-.042-.261-.125v-.39l.05-.037h3.578l.095.03v.376c0 .088-.063.125-.189.125l-.257.039c-.66.051-.551.318-.113 1.186l1.319 2.712 1.465-2.922c.244-.533.194-.668.093-.789-.058-.07-.255-.185-.677-.2l-.168-.018a.191.191 0 0 1-.121-.043.125.125 0 0 1-.056-.107v-.357l.051-.037c1.04-.007 3.371 0 3.371 0l.05.037v.364c0 .101-.05.148-.161.148-.539.024-.652.079-.854.366-.1.154-.313.49-.538.865l-1.919 3.563-.054.112 2.328 4.763.142.041 3.665-8.704c.129-.352.107-.602-.053-.746-.165-.144-.289-.228-.716-.246l-.35-.014a.211.211 0 0 1-.127-.037.128.128 0 0 1-.06-.1v-.361l.049-.038h4.137l.034.038v.364c0 .1-.062.15-.174.15-.541.024-.94.15-1.203.351-.263.213-.465.514-.614.89 0 0-3.371 7.72-4.524 10.289-.438.84-.878.765-1.253-.026-.477-.977-1.478-3.156-2.206-4.761l.045-.03z"/>
    </svg>
  </g>
  <!-- Icon 4: bxl-vk -->
  <g transform="translate(192, 92)">
    <rect width="48" height="48" fill="#ffffff" stroke="#e9ecef" stroke-width="1" rx="4"/>
    <svg x="8" y="8" width="32" height="32" viewBox="0 0 24 24">
      <path d="M21.579 6.855c.14-.465 0-.806-.662-.806h-2.193c-.558 0-.813.295-.953.619 0 0-1.115 2.719-2.695 4.482-.51.513-.743.675-1.021.675-.139 0-.341-.162-.341-.627V6.855c0-.558-.161-.806-.626-.806H9.642c-.348 0-.558.258-.558.504 0 .528.79.65.871 2.138v3.228c0 .707-.127.836-.407.836-.743 0-2.551-2.729-3.624-5.853-.209-.607-.42-.852-.98-.852H2.752c-.627 0-.752.295-.752.619 0 .582.743 3.462 3.461 7.271 1.812 2.601 4.363 4.011 6.687 4.011 1.393 0 1.565-.313 1.565-.853v-1.966c0-.626.133-.752.574-.752.324 0 .882.164 2.183 1.417 1.486 1.486 1.732 2.153 2.567 2.153h2.192c.626 0 .939-.313.759-.931-.197-.615-.907-1.51-1.849-2.569-.512-.604-1.277-1.254-1.51-1.579-.325-.419-.231-.604 0-.976.001.001 2.672-3.761 2.95-5.04z"/>
    </svg>
  </g>
  <!-- Icon 5: bxl-venmo -->
  <g transform="translate(252, 92)">
    <rect width="48" height="48" fill="#ffffff" stroke="#e9ecef" stroke-width="1" rx="4"/>
    <svg x="8" y="8" width="32" height="32" viewBox="0 0 24 24">
      <path d="M14 3.27a7.49 7.49 0 0 1 .66 3.35c0 2.72-1.93 6.72-3.49 9.27L9.53 2.44l-6.91.65L5.79 22h7.88c3.45-4.54 7.71-11 7.71-16a7.3 7.3 0 0 0-1.06-4z"/>
    </svg>
  </g>
  <!-- Icon 6: bxl-typescript -->
  <g transform="translate(312, 92)">
    <rect width="48" height="48" fill="#ffffff" stroke="#e9ecef" stroke-width="1" rx="4"/>
    <svg x="8" y="8" width="32" height="32" viewBox="0 0 24 24">
      <path d="M19.24 3H4.76A1.76 1.76 0 0 0 3 4.76v14.48A1.76 1.76 0 0 0 4.76 21h14.48A1.76 1.76 0 0 0 21 19.24V4.76A1.76 1.76 0 0 0 19.24 3zm-5.8 10h-2.25v6.44H9.4V13H7.15v-1.46h6.29zm5.8 5.28a1.71 1.71 0 0 1-.67.74 3 3 0 0 1-1 .39 5.81 5.81 0 0 1-1.2.12 7 7 0 0 1-1.23-.11 4.52 4.52 0 0 1-1-.33v-1.71l-.06-.06h.06v.07a3.41 3.41 0 0 0 1 .54 3.06 3.06 0 0 0 1.13.2 2.58 2.58 0 0 0 .6-.06 1.47 1.47 0 0 0 .42-.17.75.75 0 0 0 .25-.25.69.69 0 0 0-.06-.74 1.24 1.24 0 0 0-.35-.33 3.12 3.12 0 0 0-.53-.3l-.67-.28a3.57 3.57 0 0 1-1.37-1 2 2 0 0 1-.46-1.33 2.16 2.16 0 0 1 .24-1.06 2.09 2.09 0 0 1 .66-.71 2.88 2.88 0 0 1 1-.42 5.11 5.11 0 0 1 1.19-.13 7 7 0 0 1 1.09.07 4.53 4.53 0 0 1 .88.23v1.65a2.42 2.42 0 0 0-.42-.24 3.58 3.58 0 0 0-.49-.17 3 3 0 0 0-.49-.1 2.45 2.45 0 0 0-.46 0 2.29 2.29 0 0 0-.56.06 1.54 1.54 0 0 0-.43.16.78.78 0 0 0-.26.25.63.63 0 0 0-.09.33.62.62 0 0 0 .1.35 1.19 1.19 0 0 0 .3.29 2.15 2.15 0 0 0 .46.28l.63.28a6.56 6.56 0 0 1 .84.42 2.65 2.65 0 0 1 .64.49 1.79 1.79 0 0 1 .42.63 2.48 2.48 0 0 1 .14.85 2.68 2.68 0 0 1-.25 1.08z"/>
    </svg>
  </g>
  <!-- Icon 7: bxl-tumblr -->
  <g transform="translate(372, 92)">
    <rect width="48" height="48" fill="#ffffff" stroke="#e9ecef" stroke-width="1" rx="4"/>
    <svg x="8" y="8" width="32" height="32" viewBox="0 0 24 24">
      <path d="M14.078 20.953c-2.692 0-4.699-1.385-4.699-4.7v-5.308H6.931V8.07c2.694-.699 3.821-3.017 3.95-5.023h2.796v4.558h3.263v3.34h-3.263v4.622c0 1.386.699 1.864 1.813 1.864h1.58v3.522h-2.992z"/>
    </svg>
  </g>
  <!-- Icon 8: bxl-telegram -->
  <g transform="translate(12, 152)">
    <rect width="48" height="48" fill="#ffffff" stroke="#e9ecef" stroke-width="1" rx="4"/>
    <svg x="8" y="8" width="32" height="32" viewBox="0 0 24 24">
      <path d="m20.665 3.717-17.73 6.837c-1.21.486-1.203 1.161-.222 1.462l4.552 1.42 10.532-6.645c.498-.303.953-.14.579.192l-8.533 7.701h-.002l.002.001-.314 4.692c.46 0 .663-.211.921-.46l2.211-2.15 4.599 3.397c.848.467 1.457.227 1.668-.785l3.019-14.228c.309-1.239-.473-1.8-1.282-1.434z"/>
    </svg>
  </g>
  <!-- Icon 9: bxl-stack-overflow -->
  <g transform="translate(72, 152)">
    <rect width="48" height="48" fill="#ffffff" stroke="#e9ecef" stroke-width="1" rx="4"/>
    <svg x="8" y="8" width="32" height="32" viewBox="0 0 24 24">
      <path d="M17.24 19.399v-4.804h1.6V21H4.381v-6.405h1.598v4.804H17.24zM7.582 17.8h8.055v-1.604H7.582V17.8zm.195-3.64 7.859 1.641.34-1.552-7.861-1.642-.338 1.553zm1.018-3.794 7.281 3.398.678-1.463-7.281-3.399-.678 1.454v.01zm2.037-3.589 6.166 5.142 1.018-1.216-6.162-5.14-1.016 1.213-.006.001zm3.982-3.778-1.311.969 4.803 6.454 1.313-.971-4.807-6.452h.002z"/>
    </svg>
  </g>
  <!-- Icon 10: bxl-soundcloud -->
  <g transform="translate(132, 152)">
    <rect width="48" height="48" fill="#ffffff" stroke="#e9ecef" stroke-width="1" rx="4"/>
    <svg x="8" y="8" width="32" height="32" viewBox="0 0 24 24">
      <path d="M2.971 12.188c-.041 0-.078.038-.083.082l-.194 1.797.194 1.756c.005.049.042.082.083.082s.075-.033.084-.082l.211-1.756-.225-1.797c0-.046-.037-.082-.074-.082m-.75.691c-.051 0-.076.03-.088.079l-.138 1.109.138 1.092c0 .046.037.078.075.078.039 0 .073-.038.087-.087l.176-1.1-.176-1.112c0-.051-.037-.076-.075-.076m1.526-1.025c-.052 0-.1.039-.1.087l-.176 2.139.188 2.051c0 .049.037.1.099.1.052 0 .089-.051.102-.1l.211-2.064-.211-2.126c-.013-.049-.052-.1-.102-.1m.79-.075c-.063 0-.114.051-.126.113l-.161 2.201.177 2.123c.012.063.061.114.122.114.064 0 .113-.051.125-.124l.201-2.113-.201-2.187a.11.11 0 0 0-.111-.112l-.026-.015zm.962.301a.128.128 0 0 0-.133-.125.134.134 0 0 0-.137.125l-.182 2.026.169 2.138a.13.13 0 0 0 .132.131c.062 0 .123-.055.123-.132l.189-2.139-.189-2.036.028.012zm.674-1.426a.154.154 0 0 0-.148.15l-.176 3.3.156 2.139c0 .077.066.137.15.137.078 0 .145-.074.15-.15l.174-2.137-.173-3.313c-.007-.088-.074-.152-.15-.152m.8-.762a.178.178 0 0 0-.17.163l-.15 4.063.138 2.125c0 .1.075.174.163.174.086 0 .161-.074.174-.174l.162-2.125-.161-4.052c-.013-.1-.088-.175-.175-.175m.826-.372c-.102 0-.176.073-.188.173l-.139 4.4.139 2.102c.012.1.086.188.188.188a.193.193 0 0 0 .187-.188l.163-2.102-.164-4.4c0-.1-.087-.188-.188-.188m1.038.038a.196.196 0 0 0-.199-.199.205.205 0 0 0-.201.199l-.125 4.538.124 2.089c.015.111.101.199.214.199s.201-.088.201-.199l.136-2.089-.136-4.55-.014.012zm.625-.111c-.113 0-.213.1-.213.211l-.125 4.439.125 2.063c0 .125.1.213.213.213a.221.221 0 0 0 .214-.224l.125-2.064-.14-4.428c0-.122-.1-.225-.225-.225m.838.139a.236.236 0 0 0-.237.237l-.086 4.29.113 2.063c0 .124.1.231.236.231.125 0 .227-.1.237-.237l.101-2.038-.112-4.265c-.01-.137-.113-.238-.237-.238m.988-.786a.27.27 0 0 0-.139-.037c-.05 0-.1.013-.137.037a.25.25 0 0 0-.125.214v.05l-.086 5.044.096 2.043v.007c.006.05.024.112.06.15.05.051.12.086.196.086a.28.28 0 0 0 .175-.074.262.262 0 0 0 .076-.188l.013-.201.097-1.838-.113-5.075a.24.24 0 0 0-.111-.199l-.002-.019zm.837-.457a.155.155 0 0 0-.124-.052.283.283 0 0 0-.174.052.265.265 0 0 0-.1.201v.023l-.114 5.513.063 1.014.052.988a.274.274 0 0 0 .548-.012l.125-2.013-.125-5.536a.273.273 0 0 0-.138-.231m7.452 3.15c-.336 0-.663.072-.949.193a4.34 4.34 0 0 0-5.902-3.651c-.188.075-.227.151-.238.301v7.812a.31.31 0 0 0 .275.29h6.827a2.428 2.428 0 0 0 2.45-2.438 2.457 2.457 0 0 0-2.45-2.463"/>
    </svg>
  </g>
  <!-- Icon 11: bxl-skype -->
  <g transform="translate(192, 152)">
    <rect width="48" height="48" fill="#ffffff" stroke="#e9ecef" stroke-width="1" rx="4"/>
    <svg x="8" y="8" width="32" height="32" viewBox="0 0 24 24">
      <path d="M11.857 17.417c-2.947 0-4.294-1.524-4.294-2.641 0-.266.108-.521.298-.705a.946.946 0 0 1 .71-.264c1.261 0 .931 1.92 3.286 1.92 1.203 0 1.91-.736 1.91-1.425 0-.415-.234-.889-1.028-1.079l-2.629-.673c-2.111-.545-2.479-1.737-2.479-2.842 0-2.293 2.068-3.124 4.036-3.124 1.814 0 3.97 1.016 3.97 2.391 0 .592-.488.91-1.055.91-1.078 0-.897-1.536-3.063-1.536-1.077 0-1.645.513-1.645 1.23s.839.96 1.574 1.123l1.941.445c2.126.486 2.691 1.751 2.691 2.963 0 1.865-1.423 3.305-4.226 3.305m8.139-3.942c.086-.49.128-.986.128-1.482a8.472 8.472 0 0 0-2.952-6.474 8.211 8.211 0 0 0-6.788-1.856A4.818 4.818 0 0 0 7.935 3a4.954 4.954 0 0 0-4.27 2.519 5.103 5.103 0 0 0-.015 5.011 8.51 8.51 0 0 0 2.282 7.453 8.23 8.23 0 0 0 7.333 2.355 4.823 4.823 0 0 0 2.443.662 4.954 4.954 0 0 0 4.269-2.518 5.095 5.095 0 0 0 .016-5.009"/>
    </svg>
  </g>
  <!-- Icon 12: bxl-redux -->
  <g transform="translate(252, 152)">
    <rect width="48" height="48" fill="#ffffff" stroke="#e9ecef" stroke-width="1" rx="4"/>
    <svg x="8" y="8" width="32" height="32" viewBox="0 0 24 24">
      <path d="M15.661 15.549a1.315 1.315 0 0 0 1.185-1.386 1.363 1.363 0 0 0-1.35-1.302h-.048a1.352 1.352 0 0 0-1.303 1.397c.024.379.179.687.391.911-.827 1.609-2.07 2.794-3.954 3.788-1.266.663-2.604.912-3.905.734-1.089-.153-1.94-.64-2.463-1.421-.78-1.185-.852-2.462-.201-3.74a5.597 5.597 0 0 1 1.658-1.931 7.88 7.88 0 0 1-.331-1.218c-3.506 2.51-3.148 5.942-2.084 7.564.794 1.184 2.415 1.941 4.19 1.941.474 0 .972-.035 1.457-.154 3.077-.592 5.409-2.438 6.747-5.16l.011-.023z"/><path d="M19.887 12.589c-1.834-2.154-4.533-3.337-7.611-3.337h-.403c-.2-.438-.661-.711-1.183-.711h-.036c-.744 0-1.325.64-1.301 1.385.023.71.627 1.302 1.35 1.302h.059a1.332 1.332 0 0 0 1.183-.828h.439c1.824 0 3.551.532 5.126 1.574 1.206.792 2.072 1.834 2.557 3.077.425 1.019.402 2.013-.035 2.843-.675 1.302-1.812 1.988-3.314 1.988-.947 0-1.871-.296-2.345-.509-.283.235-.758.626-1.102.863 1.042.473 2.096.746 3.113.746 2.309 0 4.023-1.302 4.676-2.557.709-1.422.651-3.813-1.161-5.859l-.012.023z"/><path d="M7.647 15.975c.023.71.626 1.302 1.35 1.302h.048a1.334 1.334 0 0 0 1.302-1.397c0-.71-.616-1.301-1.338-1.301h-.048c-.048 0-.118 0-.178.022-.982-1.657-1.397-3.434-1.242-5.349.094-1.445.567-2.7 1.42-3.742.71-.888 2.048-1.326 2.96-1.35 2.556-.048 3.622 3.138 3.704 4.404l1.184.354C16.536 5.036 14.122 3 11.813 3 9.647 3 7.647 4.574 6.842 6.884c-1.102 3.077-.379 6.036.971 8.404-.118.154-.189.426-.166.687z"/>
    </svg>
  </g>
  <!-- Icon 13: bxl-quora -->
  <g transform="translate(312, 152)">
    <rect width="48" height="48" fill="#ffffff" stroke="#e9ecef" stroke-width="1" rx="4"/>
    <svg x="8" y="8" width="32" height="32" viewBox="0 0 24 24">
      <path d="M12.555 17.025c-.624-1.227-1.354-2.465-2.781-2.465-.271 0-.546.046-.795.157l-.484-.967c.59-.509 1.544-.911 2.77-.911 1.908 0 2.889.922 3.667 2.094.459-1.001.678-2.354.678-4.03 0-4.188-1.308-6.336-4.366-6.336-3.014 0-4.318 2.148-4.318 6.336 0 4.164 1.305 6.291 4.318 6.291.478 0 .913-.051 1.311-.169zm.747 1.461a7.977 7.977 0 0 1-2.059.274c-4.014 0-7.941-3.202-7.941-7.858C3.303 6.203 7.229 3 11.243 3c4.081 0 7.972 3.179 7.972 7.903 0 2.628-1.226 4.763-3.007 6.143.572.861 1.157 1.436 1.988 1.436.899 0 1.261-.687 1.328-1.236h1.167c.07.73-.301 3.754-3.574 3.754-1.989 0-3.035-1.146-3.822-2.496l.007-.018z"/>
    </svg>
  </g>
  <!-- Icon 14: bxl-pocket -->
  <g transform="translate(372, 152)">
    <rect width="48" height="48" fill="#ffffff" stroke="#e9ecef" stroke-width="1" rx="4"/>
    <svg x="8" y="8" width="32" height="32" viewBox="0 0 24 24">
      <path d="M19.327 3.983H4.746c-.947 0-1.736.726-1.736 1.673v5.396c0 4.892 4.04 8.964 9.026 8.964 4.955 0 8.964-4.072 8.964-8.964V5.656c0-.947-.758-1.673-1.673-1.673zm-2.178 6.691-4.293 4.04c-.221.253-.567.348-.82.348-.315 0-.631-.095-.884-.348l-4.229-4.04c-.441-.473-.504-1.262 0-1.768.475-.441 1.263-.504 1.736 0l3.377 3.251 3.44-3.251c.441-.504 1.23-.441 1.673 0 .442.506.442 1.295 0 1.768z"/>
    </svg>
  </g>
  <!-- Icon 15: bxl-php -->
  <g transform="translate(12, 212)">
    <rect width="48" height="48" fill="#ffffff" stroke="#e9ecef" stroke-width="1" rx="4"/>
    <svg x="8" y="8" width="32" height="32" viewBox="0 0 24 24">
      <path d="M2.15 16.78h1.57a.14.14 0 0 0 .14-.12l.35-1.82h1.22a4.88 4.88 0 0 0 1.51-.2A2.79 2.79 0 0 0 8 14a3.18 3.18 0 0 0 .67-.85 3.43 3.43 0 0 0 .36-1 2.43 2.43 0 0 0-.41-2.16 2.64 2.64 0 0 0-2.09-.78h-3a.16.16 0 0 0-.15.13L2 16.6a.19.19 0 0 0 0 .13.17.17 0 0 0 .15.05zM5 10.62h1a1.45 1.45 0 0 1 1.08.29c.17.18.2.52.11 1a1.81 1.81 0 0 1-.57 1.12 2.17 2.17 0 0 1-1.33.33h-.8zm9.8-.95a2.7 2.7 0 0 0-1.88-.51h-1.19l.33-1.76a.15.15 0 0 0 0-.13.16.16 0 0 0-.11 0h-1.57a.14.14 0 0 0-.14.12l-1.38 7.27a.13.13 0 0 0 0 .12.13.13 0 0 0 .11.06h1.54a.14.14 0 0 0 .14-.13l.77-4.07h1.11c.45 0 .61.1.66.16a.81.81 0 0 1 0 .62l-.61 3.24a.13.13 0 0 0 0 .12.14.14 0 0 0 .11.06h1.56a.16.16 0 0 0 .15-.13l.64-3.4a1.7 1.7 0 0 0-.24-1.64zm4.52-.51h-3.13a.14.14 0 0 0-.15.13l-1.46 7.31a.16.16 0 0 0 0 .13.14.14 0 0 0 .11.05h1.63a.14.14 0 0 0 .15-.12l.37-1.82h1.27a5.28 5.28 0 0 0 1.56-.2 3 3 0 0 0 1.18-.64 3.31 3.31 0 0 0 .7-.85 3.45 3.45 0 0 0 .37-1 2.38 2.38 0 0 0-.42-2.16 2.81 2.81 0 0 0-2.18-.83zm.62 2.77a1.83 1.83 0 0 1-.6 1.12 2.28 2.28 0 0 1-1.37.33h-.8l.54-2.76h1a1.6 1.6 0 0 1 1.13.29c.16.18.16.52.1 1.02z"/>
    </svg>
  </g>
  <!-- Icon 16: bxl-opera -->
  <g transform="translate(72, 212)">
    <rect width="48" height="48" fill="#ffffff" stroke="#e9ecef" stroke-width="1" rx="4"/>
    <svg x="8" y="8" width="32" height="32" viewBox="0 0 24 24">
      <path d="M8.71 6.366C7.604 7.67 6.888 9.602 6.838 11.765v.471c.05 2.165.766 4.094 1.872 5.397 1.434 1.865 3.564 3.046 5.948 3.046a7.218 7.218 0 0 0 4.006-1.225 9.943 9.943 0 0 1-7.139 2.533A9.995 9.995 0 0 1 2 12C2 6.477 6.478 2 12 2h.038a9.971 9.971 0 0 1 6.627 2.545c-1.173-.773-2.543-1.225-4.009-1.225-2.382 0-4.514 1.184-5.95 3.046h.004zM22 12a9.971 9.971 0 0 1-3.335 7.455c-2.564 1.25-4.954.375-5.747-.172 2.52-.553 4.422-3.6 4.422-7.283 0-3.686-1.901-6.73-4.422-7.283.792-.545 3.183-1.42 5.747-.172A9.971 9.971 0 0 1 22 12z"/>
    </svg>
  </g>
  <!-- Icon 17: bxl-mongodb -->
  <g transform="translate(132, 212)">
    <rect width="48" height="48" fill="#ffffff" stroke="#e9ecef" stroke-width="1" rx="4"/>
    <svg x="8" y="8" width="32" height="32" viewBox="0 0 24 24">
      <path d="M13.74 4.23c-.84-1-1.57-2-1.71-2.22H12c-.14.21-.87 1.22-1.71 2.22-7.2 9.19 1.14 15.39 1.14 15.39l.07.05c.06.95.22 2.33.22 2.33h.62s.15-1.37.21-2.33l.07-.06s8.32-6.19 1.12-15.38zM12 19.48a3.48 3.48 0 0 1-.48-.48L12 9l.45 10a3.57 3.57 0 0 1-.45.48z"/>
    </svg>
  </g>
  <!-- Icon 18: bxl-messenger -->
  <g transform="translate(192, 212)">
    <rect width="48" height="48" fill="#ffffff" stroke="#e9ecef" stroke-width="1" rx="4"/>
    <svg x="8" y="8" width="32" height="32" viewBox="0 0 24 24">
      <path d="M12 3c-4.92 0-8.91 3.729-8.91 8.332 0 2.616 1.291 4.952 3.311 6.479V21l3.041-1.687c.811.228 1.668.35 2.559.35 4.92 0 8.91-3.73 8.91-8.331C20.91 6.729 16.92 3 12 3zm.938 11.172-2.305-2.394-4.438 2.454 4.865-5.163 2.305 2.395 4.439-2.455-4.866 5.163z"/>
    </svg>
  </g>
  <!-- Icon 19: bxl-mastodon -->
  <g transform="translate(252, 212)">
    <rect width="48" height="48" fill="#ffffff" stroke="#e9ecef" stroke-width="1" rx="4"/>
    <svg x="8" y="8" width="32" height="32" viewBox="0 0 24 24">
      <path d="M16 17.24c2.5-.3 4.69-1.84 5-3.25a33.59 33.59 0 0 0 .4-5.42C21.33 4.23 18.48 3 18.48 3A17.64 17.64 0 0 0 12 2a17.64 17.64 0 0 0-6.48 1S2.68 4.23 2.68 8.57v3.44c.1 4.24.78 8.42 4.7 9.46A14.73 14.73 0 0 0 12 22a9.21 9.21 0 0 0 3.54-.81l-.07-1.64A11.41 11.41 0 0 1 12 20c-1.8-.06-3.71-.19-4-2.4a4.26 4.26 0 0 1 0-.63 22.68 22.68 0 0 0 4 .54 23.6 23.6 0 0 0 4-.27zm-6.54-9.8q-1.35 0-1.35 1.62v5.1H6V8.9a3.78 3.78 0 0 1 .82-2.56 2.85 2.85 0 0 1 2.23-1 2.68 2.68 0 0 1 2.4 1.23l.52.87.52-.87a2.68 2.68 0 0 1 2.4-1.23 2.85 2.85 0 0 1 2.23 1A3.78 3.78 0 0 1 18 8.9v5.26h-2.11v-5.1q0-1.62-1.35-1.62c-1 0-1.51.64-1.51 1.92v2.79H11V9.36c0-1.28-.54-1.92-1.54-1.92z"/>
    </svg>
  </g>
  <!-- Icon 20: bxl-magento -->
  <g transform="translate(312, 212)">
    <rect width="48" height="48" fill="#ffffff" stroke="#e9ecef" stroke-width="1" rx="4"/>
    <svg x="8" y="8" width="32" height="32" viewBox="0 0 24 24">
      <path d="m12 22.019-3.717-2.146V9.863l2.479-1.43v10.01l1.238.753 1.238-.753V8.434l2.479 1.43v10.01L12 22.019zm8.666-15.014v10.009l-2.475 1.43V8.434L12 4.861 5.807 8.434v10.01l-2.473-1.43V7.005L12 2l8.666 5.005z"/>
    </svg>
  </g>
  <!-- Icon 21: bxl-kubernetes -->
  <g transform="translate(372, 212)">
    <rect width="48" height="48" fill="#ffffff" stroke="#e9ecef" stroke-width="1" rx="4"/>
    <svg x="8" y="8" width="32" height="32" viewBox="0 0 24 24">
      <path d="m10.013 13.738-2.254.387a4.475 4.475 0 0 0 1.753 2.231l.865-2.095a.27.27 0 0 0 .022-.228c-.022-.18-.204-.295-.386-.295zm.865-2.914c.205 0 .387-.159.387-.364l.114-2.277-.456.091a4.516 4.516 0 0 0-2.118 1.162l1.89 1.343c.069.022.115.045.183.045zm-1.002 1.48a.366.366 0 0 0-.045-.524l-1.685-1.503a4.797 4.797 0 0 0-.661 2.778l2.209-.637c.091-.023.137-.046.182-.114zm1.457.797.616.296.614-.296.16-.661-.433-.546h-.683l-.433.546zm1.344-2.436c.114.159.341.182.5.091l1.867-1.32a4.286 4.286 0 0 0-2.573-1.23l.137 2.3a.215.215 0 0 0 .069.159z"/><path d="m21.944 14.103-1.73-7.446c-.113-.364-.387-.66-.729-.842L12.541 2.49c-.182-.091-.387-.114-.569-.114s-.387 0-.569.045L4.457 5.769a1.22 1.22 0 0 0-.683.842l-1.708 7.492c-.068.387.023.774.25 1.093l4.805 5.943c.273.273.66.456 1.047.479h7.651c.41.045.797-.137 1.048-.479l4.805-5.943c.227-.319.318-.706.272-1.093zm-2.845.501c-.046 0-.068 0-.114-.023-.022-.023-.022-.023-.045-.023-.046 0-.068-.022-.092-.022-.091-.023-.159-.068-.25-.114a.32.32 0 0 1-.137-.045h-.022a3.91 3.91 0 0 0-.729-.205h-.022a.26.26 0 0 0-.182.068s0 .023-.023.023l-.183-.024a5.628 5.628 0 0 1-2.46 3.097l.068.182s-.022 0-.022.022a.264.264 0 0 0-.022.228c.091.228.205.455.364.66v.045a.396.396 0 0 1 .091.114.81.81 0 0 1 .159.228c.023.022.046.045.046.068 0 0 .022 0 .022.022a.582.582 0 0 1 .023.342.38.38 0 0 1-.205.25c-.068.022-.114.045-.183.045a.511.511 0 0 1-.433-.273c-.022 0-.022-.022-.022-.022-.022-.023-.022-.045-.046-.068-.045-.068-.068-.159-.091-.25l-.046-.137v-.022a3.816 3.816 0 0 0-.296-.706.353.353 0 0 0-.182-.137c0-.023 0-.023-.023-.023l-.091-.159c-.228.068-.479.159-.729.205-.41.114-.82.159-1.229.159a5.368 5.368 0 0 1-1.981-.364l-.091.182c0 .023 0 .023-.023.023a.35.35 0 0 0-.182.137c-.114.228-.228.455-.296.706l-.045.137c-.023.091-.068.159-.091.25-.022.023-.045.045-.045.068-.023 0-.023.022-.023.022a.508.508 0 0 1-.433.273.434.434 0 0 1-.159-.045.469.469 0 0 1-.182-.615c.023 0 .023-.023.023-.023.022-.023.022-.045.045-.068.068-.091.114-.182.159-.228s.068-.068.091-.114v-.023a3.73 3.73 0 0 0 .364-.66.268.268 0 0 0-.023-.228s-.022 0-.022-.022l.114-.16a3.578 3.578 0 0 1-.615-.41 5.493 5.493 0 0 1-1.867-2.664l-.205.022s0-.022-.023-.022a.256.256 0 0 0-.182-.068h-.022a4.015 4.015 0 0 0-.751.205h-.024c-.045 0-.091.023-.137.046-.068.022-.159.068-.25.091-.022 0-.091-.022-.091 0 0 .023 0 .023-.023.023-.045.023-.068.023-.114.023a.424.424 0 0 1-.456-.319.445.445 0 0 1 .364-.524c.023-.023.023-.023.046-.023.045 0 .068-.022.091-.022.091 0 .182-.023.273-.023.045-.022.091-.022.137-.022a4.2 4.2 0 0 0 .774-.137c.068-.046.137-.091.16-.16 0 0 .022 0 .022-.022l.182-.046c-.205-1.298.091-2.618.797-3.734.022-.045.045-.068.068-.114l-.131-.132a.106.106 0 0 1-.004.019v-.023l.004.004c.01-.065-.031-.145-.072-.186-.182-.182-.41-.319-.638-.455l-.136-.069a2.587 2.587 0 0 1-.251-.136c-.022 0-.068-.045-.068-.045s0-.023-.022-.023a.49.49 0 0 1-.092-.639c.068-.114.182-.159.319-.159a.54.54 0 0 1 .319.114l.023.023c.022.022.045.022.068.045.068.069.114.137.182.205.023.022.068.045.091.091.159.182.364.364.569.524.045.022.091.045.137.045.045 0 .068-.023.091-.023h.023l.137.091a5.426 5.426 0 0 1 2.801-1.594c.273-.046.523-.091.774-.114l.023-.182v-.045c.068-.045.091-.114.114-.182 0-.273 0-.524-.045-.774v-.023c0-.045 0-.091-.023-.137a1.129 1.129 0 0 1-.045-.273v-.113c0-.114.045-.228.137-.319.114-.114.25-.182.387-.159a.45.45 0 0 1 .387.478v.137c-.023.091-.023.182-.045.273 0 .045-.023.091-.023.136v.023c-.048.273-.048.524-.048.774.023.068.045.136.114.182v-.023l.023.182a5.84 5.84 0 0 1 2.96 1.184c.183.182.387.364.569.546l.183-.114h.022c.022.023.068.023.091.023.046 0 .091-.023.137-.045.205-.137.41-.319.569-.501.022-.023.068-.046.091-.091.046-.068.114-.137.183-.205.022 0 .045-.022.068-.045l.022-.023a.546.546 0 0 1 .318-.114c.114 0 .251.068.319.16.159.205.113.478-.091.637 0 .023.022.023 0 .046-.023.022-.046.022-.068.045-.092.045-.16.091-.251.137l-.137.068a4.104 4.104 0 0 0-.638.455c-.045.046-.068.137-.068.205v.023l-.136.137c.364.569.638 1.207.797 1.867.137.66.182 1.343.091 2.003l.182.046a.278.278 0 0 0 .16.159c.25.068.523.114.773.137h.023a.297.297 0 0 0 .137.022c.091 0 .182 0 .272.023.046 0 .092 0 .092.023 0 .022.022.022.045.022a.537.537 0 0 1 .41.479.49.49 0 0 1-.453.32z"/><path d="M12.085 14.718a.352.352 0 0 0-.455.091l-1.116 2.027c.456.136.957.228 1.435.228.341 0 .66-.045.979-.114.159-.045.296-.068.433-.091l-1.093-1.981c-.069-.069-.115-.115-.183-.16zm3.644-4.441-1.708 1.548a.36.36 0 0 0-.091.16c-.046.205.068.41.273.455l2.163.615a4.375 4.375 0 0 0-.092-1.435 4.63 4.63 0 0 0-.545-1.343zm-2.073 3.484a.371.371 0 0 0-.205.433l.889 2.141a4.366 4.366 0 0 0 1.366-1.366c.182-.25.318-.547.433-.865l-2.277-.387a.634.634 0 0 0-.206.044z"/>
    </svg>
  </g>
  <!-- Icon 22: bxl-joomla -->
  <g transform="translate(12, 272)">
    <rect width="48" height="48" fill="#ffffff" stroke="#e9ecef" stroke-width="1" rx="4"/>
    <svg x="8" y="8" width="32" height="32" viewBox="0 0 24 24">
      <path d="m15.539 14.059-1.874 1.875-1.777 1.777-.347.35a3.993 3.993 0 0 1-3.785 1.048A2.41 2.41 0 0 1 3 18.567c0-1.138.792-2.092 1.852-2.342a3.993 3.993 0 0 1 1.047-3.811l.135-.135 1.777 1.778-.138.135a1.48 1.48 0 0 0 0 2.092 1.462 1.462 0 0 0 2.09 0l.349-.349 1.775-1.778 1.877-1.879 1.775 1.781zm.693 4.988a3.986 3.986 0 0 1-3.996-.988l-.135-.139 1.773-1.777.135.139a1.48 1.48 0 0 0 2.09 0 1.474 1.474 0 0 0-.002-2.086l-.35-.349-1.773-1.777-1.877-1.878 1.777-1.776 1.875 1.879 1.774 1.777.349.349a3.962 3.962 0 0 1 1.058 3.766 2.407 2.407 0 0 1-.336 4.79 2.392 2.392 0 0 1-2.352-1.924l-.01-.006zm-8.001-8.962 1.881-1.879 1.777-1.777.347-.346a3.972 3.972 0 0 1 3.949-1.002 2.408 2.408 0 1 1 2.699 2.716 3.98 3.98 0 0 1-1.012 3.925l-.137.139-1.777-1.777.139-.138a1.474 1.474 0 1 0-2.086-2.085l-.347.346-1.777 1.776-1.879 1.876-1.777-1.774zm-1.99 1.984-.346-.347a3.984 3.984 0 0 1-.999-3.965 2.414 2.414 0 0 1-1.874-2.35A2.41 2.41 0 0 1 5.43 3c1.197 0 2.19.875 2.378 2.019a3.99 3.99 0 0 1 3.734 1.061l.138.14-1.778 1.776-.137-.136a1.481 1.481 0 0 0-2.088 0 1.481 1.481 0 0 0-.004 2.092l.349.35 1.777 1.777 1.879 1.879-1.775 1.777-1.883-1.879-1.778-1.777v-.01h-.001z"/>
    </svg>
  </g>
  <!-- Icon 23: bxl-internet-explorer -->
  <g transform="translate(72, 272)">
    <rect width="48" height="48" fill="#ffffff" stroke="#e9ecef" stroke-width="1" rx="4"/>
    <svg x="8" y="8" width="32" height="32" viewBox="0 0 24 24">
      <path d="M20.154 8.514c.85-2.039.906-3.738-.113-4.757-1.133-1.132-3.852-.792-6.737.565h-.341c-2.037 0-4.02.738-5.492 2.039-1.244 1.133-2.15 2.605-2.547 4.246.283-.337 1.869-2.207 3.68-3.226.058 0 .51-.283.51-.283-.057 0-.905.85-1.074 1.02-3.965 4.076-6.285 10.248-4.473 12.059 1.188 1.189 3.34.906 5.831-.452 1.075.51 2.265.735 3.565.735 1.699 0 3.285-.453 4.643-1.359 1.416-.906 2.436-2.319 3.059-3.962h-4.416c-.566 1.075-1.869 1.812-3.227 1.812-1.926 0-3.512-1.586-3.568-3.397v-.169h11.551v-.17c0-.283.057-.623.057-.848-.001-1.362-.341-2.664-.908-3.853zM4.811 19.838c-.906-.906-.621-2.662.453-4.756.51 1.416 1.359 2.662 2.435 3.567.341.282.735.565 1.133.792-1.814.963-3.285 1.133-4.021.397zm11.606-8.606H9.51v-.057c.113-1.756 1.754-3.285 3.681-3.285 1.812 0 3.284 1.416 3.397 3.285v.057h-.171zm3.454-3.171a6.948 6.948 0 0 0-1.303-1.585 8.445 8.445 0 0 0-2.718-1.699c1.813-.849 3.341-.961 4.134-.169.623.736.567 1.981-.113 3.453 0 .057 0 .057 0 0 0 .057 0 .057 0 0z"/>
    </svg>
  </g>
  <!-- Icon 24: bxl-html5 -->
  <g transform="translate(132, 272)">
    <rect width="48" height="48" fill="#ffffff" stroke="#e9ecef" stroke-width="1" rx="4"/>
    <svg x="8" y="8" width="32" height="32" viewBox="0 0 24 24">
      <path d="M4.136 3.012h15.729l-1.431 16.15-6.451 1.826-6.414-1.826-1.433-16.15zm5.266 7.302-.173-2.035 7.533.002.173-1.963-9.87-.002.522 5.998h6.835l-.243 2.566-2.179.602-2.214-.605-.141-1.58H7.691l.247 3.123L12 17.506l4.028-1.08.558-6.111H9.402v-.001z"/>
    </svg>
  </g>
  <!-- Icon 25: bxl-google-plus -->
  <g transform="translate(192, 272)">
    <rect width="48" height="48" fill="#ffffff" stroke="#e9ecef" stroke-width="1" rx="4"/>
    <svg x="8" y="8" width="32" height="32" viewBox="0 0 24 24">
      <path d="M19.545 15.025v-2.421h2.422v-1.815h-2.422V8.368H17.73v2.421h-2.421v1.815h2.421v2.421zM8.052 8.302c1.133 0 1.896.484 2.33.896l1.722-1.67c-1.048-.98-2.415-1.58-4.052-1.58C4.714 5.947 2 8.659 2 12s2.714 6.053 6.052 6.053c3.493 0 5.812-2.457 5.812-5.913 0-.503-.064-.86-.153-1.24H8.049v2.256h3.332c-.158.951-1.011 2.556-3.329 2.556-2.003 0-3.637-1.665-3.637-3.704 0-2.042 1.634-3.706 3.637-3.706z"/>
    </svg>
  </g>
  <!-- Icon 26: bxl-gmail -->
  <g transform="translate(252, 272)">
    <rect width="48" height="48" fill="#ffffff" stroke="#e9ecef" stroke-width="1" rx="4"/>
    <svg x="8" y="8" width="32" height="32" viewBox="0 0 24 24">
      <path d="m18.73 5.41-1.28 1L12 10.46 6.55 6.37l-1.28-1A2 2 0 0 0 2 7.05v11.59A1.36 1.36 0 0 0 3.36 20h3.19v-7.72L12 16.37l5.45-4.09V20h3.19A1.36 1.36 0 0 0 22 18.64V7.05a2 2 0 0 0-3.27-1.64z"/>
    </svg>
  </g>
  <!-- Icon 27: bxl-foursquare -->
  <g transform="translate(312, 272)">
    <rect width="48" height="48" fill="#ffffff" stroke="#e9ecef" stroke-width="1" rx="4"/>
    <svg x="8" y="8" width="32" height="32" viewBox="0 0 24 24">
      <path d="m17.549 5.557-.403 2.113c-.049.229-.337.47-.605.47h-3.76c-.425 0-.729.296-.729.714v.463c0 .43.307.725.73.725h3.194c.298 0 .591.33.524.646l-.404 2.083c-.037.181-.237.475-.592.475h-2.609c-.477 0-.617.069-.936.454-.316.395-3.175 3.827-3.175 3.827-.026.033-.054.022-.054-.011V5.522c0-.271.234-.588.586-.588h7.756c.283 0 .549.269.477.618v.005zm.341 8.288c.111-.437 1.319-6.63 1.722-8.593m-1.489-2.311H8.457c-1.33 0-1.723 1.002-1.723 1.635v15.353c0 .71.381.975.596 1.062.214.087.807.161 1.163-.247 0 0 4.563-5.296 4.64-5.373.125-.118.125-.118.238-.118h2.954c1.245 0 1.438-.885 1.574-1.405.114-.429 1.325-6.622 1.721-8.595.307-1.496-.079-2.311-1.495-2.311h-.002z"/>
    </svg>
  </g>
  <!-- Icon 28: bxl-flask -->
  <g transform="translate(372, 272)">
    <rect width="48" height="48" fill="#ffffff" stroke="#e9ecef" stroke-width="1" rx="4"/>
    <svg x="8" y="8" width="32" height="32" viewBox="0 0 24 24">
      <path d="M13.78 18.29c0 .12.15 0 0 0zm-3.35-2.7c.39.17-.31-.6 0 0zm-5.03.28c.15.26 0-.12 0 0zm5.6.39c-.27-.42-.2.06 0 .32.48.47.18-.26 0-.32z"/><path d="M20.24 19.06c-.53.63-1-.07-1.63.13-1.1 0 .09-.5.06-1-.58-.45-1.24.61-1.62.9a10.75 10.75 0 0 1-2.67-.83 8 8 0 0 1-2.6-1.94 8.36 8.36 0 0 1-1.87-2.84 21.36 21.36 0 0 1-.84-5.74c.07-1.3 1.44.14 2-.33-.21-.67-1.29-.88-1.89-1.16-.58 0-.79-.55-1.4-.59 0-.73-1.13-.33-1.56-.84.42-1.08-1.37 0-1.23-.91.58-1.2-1.78-1-.8.06.95.54-.93.93-.38 1.29a.59.59 0 0 1-.53.86c-.74.07-.67 1.09.06.55.81-.25.14.11-.25.18a1.3 1.3 0 0 0-.95 1.9 35.32 35.32 0 0 1 1 3.42A16.25 16.25 0 0 0 5.84 17 9.78 9.78 0 0 0 8 19a9.89 9.89 0 0 0 2.43 1.22 18 18 0 0 0 4.73.73 16.53 16.53 0 0 0 2.9-.24c.87.09 1.49-.65 2.26-.26.48-.42 1.16-.23 1.63-.54.32-1.22-1.22-.27-1.71-.85zm-1.74-.74c-.22 0 .05-.34 0 0zm-7.63-11c-.1 0-.08-.12-.16-.15-.8-.37.39-.23.16.19zm6.76 11.39c-.35-.08.28-.25 0 0zm-2.81.11c-.23 0 .18-.14 0 0zm-1.88-1.18c-.13 0 0-.13 0 0zm-.22-.17c-.36 0-.09-.23 0 0zm-.42-.36c-.33.08 0-.34 0 0zm-6-11.66c-.53-.28.11.33-.34.32-.24 0-.69-.52-.54-.78.3.16.83.21.92.5zm-.92-.81h-.11c-.03-.27.87-.06.15.04zm-1.02-.79c-.42-.19 0-.93.44-.58.51.73-.95-.08-.44.58zm.49.69c-.27.11.16-.21 0 0zm.48.92c.6.46-.34 0-.72.29-.61.06.66-.34.72-.29zm.17.6c.35 0 1.88-.69 1.37-.07.47.55.1.37-.21 0 .28.19.06 1-.37.45s-.5-.18-.17.21C5.8 6 4.88 6.28 4.21 6.5c-.43-.04 1.13-.37 1.29-.44zM3.58 7.51c-.16.4.24.53.62.6.62-.17-.41-.28.06-.44.26 0-.82-.26.08-.38S6.09 6.77 7 6.58a8.71 8.71 0 0 1 2.35-.19c.3.35-.23.94-.77 1a8.61 8.61 0 0 1-2 .39c-.8-.1-1.37.61-2.19.7.22-.4-.18-.14-.59-.16.21.82-1.47-.21-.48-.41-.74-.26-.75.52-.67 1-.65-.91.07-1.29.93-1.4zm1.88 1.08c-.22-.05.17-.2 0 0zm-.72.88s-.34-.08-.2-.17c1 .13-.9-.33.13-.22.66-.02.44.36.07.39zm.33.17c-.12.12 0-.24 0 0zm-.71 0c-.44-.09.21-.22 0 0zm-.06 1.43c-.07.1-.1-.08 0 0zM4 10.9c-.55-.19 0-.21 0 0zm-.12 1.28c-.26-.09-.25-.5-.37-.72-.38-1.03.41.4.33.72zm.23-1.49c-.69-.08-.05-.49 0 0zm0-.34h-.09c-.76-.35.45-.17-.02 0zM4 9.56c-.61-.31.58-.36 0 0zm.21.26c-.34.06.05-.32 0 0zm-1.3.07c-.12.08 0-.23 0 0zM3 9.75c-.16 0 0-.27 0 0zm.08-1c-.4-.1.33-.25 0 0zm.26 2c-.44-.1-.12-.65 0 0zm.3 1.25c.42.51.26.79.69 1.41-.56-.35-.67-1.2-1-1.75-.41-.9.23-.01.31.34zm4.09 6.38c-.34-.07-.57-.43-.81-.66a4.88 4.88 0 0 1-1.57-1.94 12.26 12.26 0 0 1-1.46-2.38c-.41-.92.25.07.35.42.21.68.88 1.07.94 1.52.74.42.36 1.12 1 1.31.27-.14.3.84.89.64-.33.15.13.33.3.61.35-.05 1.17.82.36.52zM4.62 12c-.31-.07.33-.11 0 0zm.2.47c-.55-.14.52-.2 0 0zm1.39.47c.4-.17.16.78.55.9.76 1-.53 0-1-.07.06 0-.38-.12-.19-.16-.14-.15-.45-.66.26-.32.6.24.65.06.38-.39zm1.31 1.76c0 .15-.72.13-.06.42-.38 0-.5 0 0 .3-.22.17.43.31.21.57.66.52-.12.13-.4-.08s-.85-.35-.75-.5c.81.42.21 0-.15-.3.65.16-.51-.48.1-.31.19.05-.27-.38.33-.07-.54-.52.47-.12.72-.07zm.48-.17c-.61-.14 0-.34 0 0zm-.17 2c-.61-.26.39 0 0 0zm-.45-.17c-.71-.23.52 0 0 0zm-.09.11c-.22 0 0-.17 0 0zm-1.08-1.55c-.72-.3-.2-.33 0 0zm-.54-.35c-.58-.33-.08-.33 0 0zm0 .65c-.57-.44-.07-.25 0 0zm-.15-1.34c-.35 0 .13-.2 0 0zM8 17.38c-.51-.15 0-.14 0 0zM7.63 17h-.16c-.68-.54.31-.38.75-.14.97.14-.22.39-.59.14zm2.7 1.65c-.68-.16.16-.27 0 0zm-.17-.52c-.05 0-.1-.11 0 0zm-.86-1.34c-.59-.14.21-.19.36 0 1.02.21-.06.26-.36 0zM9.51 18H9.4l-.13-.06c-.56-.59 1.19.28.24.06zm-.28.69c-.15.06 0-.14 0 0zm.29-1.19-.16-.05c-.66-.45.84.09.16 0zm.16 1.72c-.4-.16.26-.25 0 0zm.1-.74c-.58-.14.36-.13 0 0zm.13-.61c-.44-.06.05-.21 0 0zm-.72-.88c.46.06.47.27 0 .14-.09 0-.24 0-.28-.17-.76-.5.03-.25.28-.02zm-.06 2c-.2.12 0-.22 0 0zm-.31-.51c-.53 0 .4-.26 0 0zm-.12.35c-.26-.1.17-.08 0 0zm.3-.89c-.52-.14.25-.18 0 0zm-.16-.57c-.28 0-.06-.16 0 0zm-.54-.95c-.57-.46 1.18.38 0 0zm-.06.19c0 .06-.11-.09 0 0zm3.65 3.78a9.4 9.4 0 0 1-2.56-.85l-.33-.2c-.57-.31-.5-.38.06-.07.19.16 1.59.73.93.35-.29-.07-1.9-.95-.84-.57a20.92 20.92 0 0 0 2.74 1.21 7.14 7.14 0 0 0 2.43.15c.65.33 1.33-.08 2 .21a13.05 13.05 0 0 1-4.45-.23zm-1.25-.7c-.51-.09.16-.23 0 0zm.73-1c-.58-.11.6-.23 0 0zm.84 1.31c1 .37-.6.12-.93-.09-.92-.38.72.09.93.09zm-1.06-1.1c-.81-.12.9 0 0 0zm1.52.85c-.29.23 0-.3 0 0zm.29.05c-.15.06 0-.17 0 0zm.27-.38c-.16.2 0-.23 0 0zm.31 0c-.45.17.47-.39 0 0zm.14 0c.49-.42.51-.22.5.13-.43.48-.17-.2-.44.06s-.19-.1-.06-.17zm.83.45c-.5 0 .51-.54 0 0zm0 .18c-.2.05 0-.13 0 0zm-.16-.35c-.39-.26.94-.61 0 0zm.57.09h-.08c-.03-.23.54-.27.08.02zm.15.19c-.3-.08.47-.4 0 0zm.36-.1c-.51.18.48-.4 0 0zm.22.11-.12.08c-.23-.14.71-.48.12-.07zm-.43-.53c-.54-.18-1.4-.76-2-.37-.8.51.41-.56-.24-.08-.66.79-.45-.5-1.09-.11 0-.12-.57-.16-.17-.37-.36 0-.13-.05 0-.34-.16 0-1 0-1.36-.29-.4-.52.07-.3.48-.23-.67.12.24.5.68.29-.2-.09-.43-.52-1-.9a18.83 18.83 0 0 0-2.13-1c-.84-.5.18-.18.47.08.84.37.51-.51 0-.74-.54 0-.67-.59-1.1-.56.67.11 1.14-.17.39-.85s.3.63-.11.44c-.19-.25-.05-.6-.65-.73 0 .23-.08.58-.21.1-.17 0-.36.21-.5-.28.13-.57-.56-.7-.67-1.06.6.38.87.08.45-.33s-.33-.11-.49 0c-.59.6-.06-1-.32-.56-.26 0-.11.29-.1.65-.86-.21.2.45.45.81-.39-.4-.32.31-.65 0-.11-.3-.12-.77-.67-.85.62-.22-.36-.65-.28-.67.35-.32.4-.76.82-.07-.53 0 0 .88.12.6 0-.47.22-1-.59-1.19-.24.32-.65-.63-.18-.43-.06-.63.74-.26.69-.53.42-.18-.5-.77 0-1 .38.24 1.36-.36.7-.44.42 0 .75.18.79-.24.33.07 1.24.36.42-.09a3.45 3.45 0 0 1 1.13-.25c.79-.61.63 1 .45 1.45.3-.21.24.94.14 1.37.16-.22.23.36 0 .77 0-.07.4-.13.12.35-.22-.47-.31 1-.17.32.37-.61.28 0 .39.24.08.55.32 1.06.4 1.56.35.35-.15.11-.15.59.11-.14.58.19.57.68 0-.78.09-.18.47 0a5.48 5.48 0 0 0 1 1.42c.37.43 0 .13.14.39a3.19 3.19 0 0 0 2.09 1.28 1.46 1.46 0 0 0 1.57.7c-.6.37 1.68.47.91.67-.23.16-.62-.2-1.01-.18zM8.7 15.89c-.24 0 0-.2 0 0zm.38.22c-.18 0-.12-.24 0 0zm-2.61-3.65c-.24-.07.1-.09 0 0zm-.59 0c-.26 0 0-.34 0 0zm-.3-.08c-.1.05 0-.11 0 0zm11 8.25c-.39-.07.32-.22 0 0zm.73-1.05h-.3c.06-.45 1.33-.1 1.85-.09-.16.34-1.13.04-1.55.13zm2 0c-.27 0 .12-.32 0 0zm1-.09c-.25.13 0-.3 0 0zm.48.11c-.52-.12.24-.12.4-.14.94.02 0 .16-.47.16z"/><path d="M6.51 7.11c1-.2-.38-.33-.69 0 .18.13.41-.21.69 0zm-.82.13c0 .19.18-.22 0 0zm2.62-.48c.67-.11.11-.41-.09.1.07.14.11-.05.09-.1zm-.62.1c.93.36-.05-1 0 0zm-2.92.93a.51.51 0 0 1 .33.1c.75.52-.1-.84-.33-.1z"/><path d="M4.81 7.43c.16.13.29-.21 0 0zm.37.01.14.12c.68.06-.11-.46-.14-.12zM10.69 16c.09.3 0-.39 0 0zm-4.78-5c.1.18.18-.18 0 0zm.09.61c.19.34 0-.51 0 0zm.21-.49c.33.21-.28-.52 0 0zm-.41-.82c.07.15.24.16.37.2 1.32.61-.95-1-.37-.2zm.54 1.43c.31.53.18-.37 0 0zm.48-.16c.37.92-.23-.12-.3-.43a2.11 2.11 0 0 0 .28 1c.34.51.19-.28.55.23-.2-.45.1-.2.06-.4s-1-1.17-.59-.4zm.36 1.78c.09.31.18 0 0 0zM5.85 9c.06.14.11 0 0 0zm.67.42c.32.41.17-.36 0 0zm-.89 1.14.14.15c.99.29-1.05-.95-.14-.15zm.7-.37c1 .41-.09-.27-.44-.2.11.13.32.07.44.2zm-.18-.44c.18.18.82.51.31.06.32-.06 0-.16-.24-.32-.44-.67.07.06-.07.26z"/><path d="M5.51 10.64c-.53-.44.16.21-.06.2-.55-.4-.32-.11 0 .2.33.5.6-.3.06-.4zm2.14.64c.12.11-.06-.68 0 0zm1.02-3.5c0 .12.07-.1 0 0zM9 12.47c0 .21 0-.18 0 0zm-.29-1.22c.08.46.1-.78 0 0zm.14.22v.1c.21-.51.04-.79 0-.1zm-.1-2.7c-.14.7-.27.41-.08-.11-.05-.67-.45.41-.27.72.29.47.6-1.16.35-.61zm1.01 5.98c.13.35.11-.42 0 0zm-1.35-4.28c0 .2 0-.14 0 0zm.64 1.7c0 .26.11-.38 0 0zM9.5 14l.07.11c.14-.49-.36-.79-.07-.11zm-1.56-.52c.27.22-.13-.23 0 0zm1.23-.85c.08.29 0-.42 0 0zM8.14 9.81c.15.33-.05-.27 0 0z"/><path d="M8.3 10.23c.24.34-.26-.64 0 0zm-.06 1.15c-.13-1-.42.45 0 .69.13.34.25.2.3-.19-.32 0 .08-.62-.3-.5z"/>
    </svg>
  </g>
  <!-- Icon 29: bxl-facebook -->
  <g transform="translate(12, 332)">
    <rect width="48" height="48" fill="#ffffff" stroke="#e9ecef" stroke-width="1" rx="4"/>
    <svg x="8" y="8" width="32" height="32" viewBox="0 0 24 24">
      <path d="M13.397 20.997v-8.196h2.765l.411-3.209h-3.176V7.548c0-.926.258-1.56 1.587-1.56h1.684V3.127A22.336 22.336 0 0 0 14.201 3c-2.444 0-4.122 1.492-4.122 4.231v2.355H7.332v3.209h2.753v8.202h3.312z"/>
    </svg>
  </g>
  <!-- Icon 30: bxl-edge -->
  <g transform="translate(72, 332)">
    <rect width="48" height="48" fill="#ffffff" stroke="#e9ecef" stroke-width="1" rx="4"/>
    <svg x="8" y="8" width="32" height="32" viewBox="0 0 24 24">
      <path d="M20.349 13.684H8.874c0 .433.063.825.195 1.178a3.334 3.334 0 0 0 1.381 1.634c.309.196.646.359 1.005.484.356.13.729.226 1.107.288.821.13 1.658.123 2.477-.021a9.79 9.79 0 0 0 2.421-.783c.393-.18.79-.376 1.201-.594v3.805a13.453 13.453 0 0 1-2.711.978c-.457.112-.92.196-1.396.246-.486.054-.975.079-1.464.079a8.185 8.185 0 0 1-1.95-.232 7.679 7.679 0 0 1-1.762-.668 7.29 7.29 0 0 1-1.51-1.062 6.67 6.67 0 0 1-1.941-3.103 6.978 6.978 0 0 1-.267-1.953c0-.737.101-1.439.303-2.11a6.718 6.718 0 0 1 2.264-3.342 7.38 7.38 0 0 1 1.847-1.066 3.891 3.891 0 0 0-.869 1.329 5.682 5.682 0 0 0-.401 1.538h6.391c0-.646-.063-1.207-.196-1.689-.131-.484-.342-.885-.637-1.201A2.64 2.64 0 0 0 13.23 6.7c-.462-.16-1.021-.241-1.675-.241-.771 0-1.543.111-2.314.344a9.804 9.804 0 0 0-2.2.955c-.695.412-1.335.897-1.919 1.452a9.167 9.167 0 0 0-1.474 1.819c.084-.742.247-1.474.485-2.18a9.304 9.304 0 0 1 .912-1.938 8.622 8.622 0 0 1 1.303-1.609 7.735 7.735 0 0 1 1.655-1.235 8.45 8.45 0 0 1 1.955-.792 10.042 10.042 0 0 1 2.233-.254c.46 0 .917.041 1.375.124.457.084.903.196 1.339.342a8.012 8.012 0 0 1 2.315 1.239 7.95 7.95 0 0 1 1.711 1.833c.463.692.813 1.459 1.055 2.292s.365 1.701.365 2.602v2.23h-.002z"/>
    </svg>
  </g>
  <!-- Icon 31: bxl-dribbble -->
  <g transform="translate(132, 332)">
    <rect width="48" height="48" fill="#ffffff" stroke="#e9ecef" stroke-width="1" rx="4"/>
    <svg x="8" y="8" width="32" height="32" viewBox="0 0 24 24">
      <path d="M20.66 6.98a9.932 9.932 0 0 0-3.641-3.64C15.486 2.447 13.813 2 12 2s-3.486.447-5.02 1.34c-1.533.893-2.747 2.107-3.64 3.64S2 10.187 2 12s.446 3.487 1.34 5.02a9.924 9.924 0 0 0 3.641 3.64C8.514 21.553 10.187 22 12 22s3.486-.447 5.02-1.34a9.932 9.932 0 0 0 3.641-3.64C21.554 15.487 22 13.813 22 12s-.446-3.487-1.34-5.02zM12 3.66c2 0 3.772.64 5.32 1.919-.92 1.174-2.286 2.14-4.1 2.9-1.002-1.813-2.088-3.327-3.261-4.54A7.715 7.715 0 0 1 12 3.66zM5.51 6.8a8.116 8.116 0 0 1 2.711-2.22c1.212 1.201 2.325 2.7 3.34 4.5-2 .6-4.114.9-6.341.9-.573 0-1.006-.013-1.3-.04A8.549 8.549 0 0 1 5.51 6.8zM3.66 12c0-.054.003-.12.01-.2.007-.08.01-.146.01-.2.254.014.641.02 1.161.02 2.666 0 5.146-.367 7.439-1.1.187.373.381.793.58 1.26-1.32.293-2.674 1.006-4.061 2.14S6.4 16.247 5.76 17.5c-1.4-1.587-2.1-3.42-2.1-5.5zM12 20.34c-1.894 0-3.594-.587-5.101-1.759.601-1.187 1.524-2.322 2.771-3.401 1.246-1.08 2.483-1.753 3.71-2.02a29.441 29.441 0 0 1 1.56 6.62 8.166 8.166 0 0 1-2.94.56zm7.08-3.96a8.351 8.351 0 0 1-2.58 2.621c-.24-2.08-.7-4.107-1.379-6.081.932-.066 1.765-.1 2.5-.1.799 0 1.686.034 2.659.1a8.098 8.098 0 0 1-1.2 3.46zm-1.24-5c-1.16 0-2.233.047-3.22.14a27.053 27.053 0 0 0-.68-1.62c2.066-.906 3.532-2.006 4.399-3.3 1.2 1.414 1.854 3.027 1.96 4.84-.812-.04-1.632-.06-2.459-.06z"/>
    </svg>
  </g>
  <!-- Icon 32: bxl-discord -->
  <g transform="translate(192, 332)">
    <rect width="48" height="48" fill="#ffffff" stroke="#e9ecef" stroke-width="1" rx="4"/>
    <svg x="8" y="8" width="32" height="32" viewBox="0 0 24 24">
      <path d="M9.593 10.971c-.542 0-.969.475-.969 1.055 0 .578.437 1.055.969 1.055.541 0 .968-.477.968-1.055.011-.581-.427-1.055-.968-1.055zm3.468 0c-.542 0-.969.475-.969 1.055 0 .578.437 1.055.969 1.055.541 0 .968-.477.968-1.055-.001-.581-.427-1.055-.968-1.055z"/><path d="M17.678 3H4.947A1.952 1.952 0 0 0 3 4.957v12.844c0 1.083.874 1.957 1.947 1.957H15.72l-.505-1.759 1.217 1.131 1.149 1.064L19.625 22V4.957A1.952 1.952 0 0 0 17.678 3zM14.01 15.407s-.342-.408-.626-.771c1.244-.352 1.719-1.13 1.719-1.13-.39.256-.76.438-1.093.562a6.679 6.679 0 0 1-3.838.398 7.944 7.944 0 0 1-1.396-.41 5.402 5.402 0 0 1-.693-.321c-.029-.021-.057-.029-.085-.048a.117.117 0 0 1-.039-.03c-.171-.094-.266-.16-.266-.16s.456.76 1.663 1.121c-.285.36-.637.789-.637.789-2.099-.067-2.896-1.444-2.896-1.444 0-3.059 1.368-5.538 1.368-5.538 1.368-1.027 2.669-.998 2.669-.998l.095.114c-1.71.495-2.499 1.245-2.499 1.245s.21-.114.561-.275c1.016-.446 1.823-.57 2.156-.599.057-.009.105-.019.162-.019a7.756 7.756 0 0 1 4.778.893s-.751-.712-2.366-1.206l.133-.152s1.302-.029 2.669.998c0 0 1.368 2.479 1.368 5.538 0-.001-.807 1.376-2.907 1.443z"/>
    </svg>
  </g>
  <!-- Icon 33: bxl-deviantart -->
  <g transform="translate(252, 332)">
    <rect width="48" height="48" fill="#ffffff" stroke="#e9ecef" stroke-width="1" rx="4"/>
    <svg x="8" y="8" width="32" height="32" viewBox="0 0 24 24">
      <path d="M17.57 3h-3.271l-.326.33-1.544 2.942-.486.327H6.432v4.495h3.03l.27.327-3.3 6.305v3.273h3.272l.327-.33 1.543-2.943.486-.326h5.511v-4.495h-3.03l-.269-.329 3.299-6.303L17.57 3z"/>
    </svg>
  </g>
  <!-- Icon 34: bxl-css3 -->
  <g transform="translate(312, 332)">
    <rect width="48" height="48" fill="#ffffff" stroke="#e9ecef" stroke-width="1" rx="4"/>
    <svg x="8" y="8" width="32" height="32" viewBox="0 0 24 24">
      <path d="M4.192 3.143h15.615l-1.42 16.034-6.404 1.812-6.369-1.813L4.192 3.143zM16.9 6.424l-9.8-.002.158 1.949 7.529.002-.189 2.02H9.66l.179 1.913h4.597l-.272 2.62-2.164.598-2.197-.603-.141-1.569h-1.94l.216 2.867L12 17.484l3.995-1.137.905-9.923z"/>
    </svg>
  </g>
  <!-- Icon 35: bxl-c-plus-plus -->
  <g transform="translate(372, 332)">
    <rect width="48" height="48" fill="#ffffff" stroke="#e9ecef" stroke-width="1" rx="4"/>
    <svg x="8" y="8" width="32" height="32" viewBox="0 0 24 24">
      <path d="M20.66 7a1.51 1.51 0 0 0-.55-.57l-7.34-4.24a1.67 1.67 0 0 0-1.54 0L3.89 6.43a1.68 1.68 0 0 0-.77 1.33v8.48a1.57 1.57 0 0 0 .22.76 1.51 1.51 0 0 0 .55.57l7.34 4.24a1.67 1.67 0 0 0 1.54 0l7.34-4.24a1.51 1.51 0 0 0 .55-.57 1.57 1.57 0 0 0 .22-.76V7.76a1.57 1.57 0 0 0-.22-.76zM12 17.92A5.92 5.92 0 1 1 17.13 9L16 9.71l-.36.2-1 .61A3 3 0 0 0 9 12a2.88 2.88 0 0 0 .4 1.48 3 3 0 0 0 5.13 0l2.6 1.52A5.94 5.94 0 0 1 12 17.92zm5.92-5.59h-.66V13h-.65v-.66H16v-.66h.66V11h.65v.66h.66zm2.47 0h-.66V13h-.66v-.66h-.65v-.66h.65V11h.66v.66h.66z"/>
    </svg>
  </g>
  
  <!-- Footer -->
  <text x="400" y="580" text-anchor="middle" font-family="system-ui, -apple-system, sans-serif" font-size="12" fill="#6c757d">
    Showing 35 of 155 icons
  </text>
  
</svg>