<svg width="800" height="600" xmlns="http://www.w3.org/2000/svg">
  <!-- Background -->
  <rect width="800" height="600" fill="#ffffff"/>
  
  <!-- Header Background -->
  <rect width="800" height="80" fill="#f8f9fa"/>
  
  <!-- Title -->
  <text x="400" y="30" text-anchor="middle" font-family="system-ui, -apple-system, sans-serif" font-size="20" font-weight="bold" fill="#212529">coolicons</text>
  
  <!-- Subtitle -->
  <text x="400" y="55" text-anchor="middle" font-family="system-ui, -apple-system, sans-serif" font-size="14" fill="#6c757d">442 icons</text>
  
  <!-- Icon Grid -->
  <!-- Icon 1: Wavy_Warning -->
  <g transform="translate(12, 92)">
    <rect width="48" height="48" fill="#ffffff" stroke="#e9ecef" stroke-width="1" rx="4"/>
    <svg x="8" y="8" width="32" height="32" viewBox="0 0 24 24">
      
<g id="Warning / Wavy_Warning">
<path id="Vector" d="M12 8.45V12.45M13.246 3.45879L14.467 4.49929C14.7746 4.76143 15.1566 4.91991 15.5594 4.95206L17.1585 5.0795C18.0986 5.15452 18.8453 5.9008 18.9204 6.84093L19.0475 8.44024C19.0797 8.8431 19.2387 9.22559 19.5008 9.53319L20.5409 10.7538C21.1526 11.4716 21.1527 12.5275 20.541 13.2454L19.5009 14.4662C19.2388 14.7738 19.08 15.1564 19.0478 15.5593L18.9199 17.1583C18.8449 18.0984 18.0993 18.8452 17.1591 18.9202L15.5595 19.0478C15.1567 19.08 14.7744 19.2381 14.4667 19.5002L13.246 20.5407C12.5282 21.1525 11.4717 21.1526 10.7539 20.5409L9.53316 19.5003C9.22555 19.2382 8.84325 19.0798 8.44038 19.0477L6.84077 18.9202C5.90064 18.8452 5.15505 18.0986 5.08003 17.1585L4.9521 15.5594C4.91995 15.1565 4.76111 14.7742 4.49898 14.4666L3.45894 13.2454C2.84721 12.5276 2.84693 11.472 3.45865 10.7542L4.49963 9.53301C4.76176 9.22541 4.91908 8.84311 4.95122 8.44024L5.07915 6.84112C5.15417 5.90099 5.90192 5.15442 6.84205 5.0794L8.43989 4.95196C8.84276 4.91981 9.22525 4.76146 9.53285 4.49932L10.754 3.45879C11.4718 2.84707 12.5282 2.84707 13.246 3.45879ZM12.0498 15.45V15.55L11.9501 15.5496V15.45H12.0498Z" stroke="#2563eb" stroke-width="2" stroke-linecap="round" stroke-linejoin="round"/>
</g>

    </svg>
  </g>
  <!-- Icon 2: Octagon_Warning -->
  <g transform="translate(72, 92)">
    <rect width="48" height="48" fill="#ffffff" stroke="#e9ecef" stroke-width="1" rx="4"/>
    <svg x="8" y="8" width="32" height="32" viewBox="0 0 24 24">
      
<g id="Warning / Octagon_Warning">
<path id="Vector" d="M12 8.44971V12.4497M7.33173 3.9375L3.9375 7.33173L3.93442 7.33462C3.59057 7.67847 3.41824 7.85081 3.29492 8.05204C3.18526 8.23098 3.10425 8.4263 3.05526 8.63037C3 8.86055 3 9.10506 3 9.59424V14.4058C3 14.8949 3 15.1395 3.05526 15.3697C3.10425 15.5738 3.18526 15.7688 3.29492 15.9478C3.41857 16.1495 3.59182 16.3228 3.9375 16.6685L7.33173 20.0627C7.67763 20.4086 7.85021 20.5812 8.05204 20.7048C8.23099 20.8145 8.42581 20.8958 8.62988 20.9448C8.85971 21 9.10382 21 9.59151 21H14.4075C14.8952 21 15.1404 21 15.3702 20.9448C15.5743 20.8958 15.7693 20.8145 15.9482 20.7049C16.1501 20.5812 16.323 20.4086 16.6689 20.0627L20.0632 16.6685C20.4091 16.3226 20.5817 16.1496 20.7053 15.9478C20.815 15.7688 20.8953 15.5738 20.9443 15.3697C20.9996 15.1395 21 14.895 21 14.4058V9.59424C21 9.10506 20.9996 8.86055 20.9443 8.63037C20.8953 8.4263 20.815 8.23099 20.7053 8.05205C20.5817 7.85022 20.4091 7.67761 20.0632 7.33173L16.6689 3.9375C16.3233 3.59181 16.15 3.41857 15.9482 3.29492C15.7693 3.18526 15.5743 3.10425 15.3702 3.05526C15.14 3 14.8945 3 14.4053 3H9.59375C9.10457 3 8.86006 3 8.62988 3.05526C8.42581 3.10425 8.23099 3.18526 8.05204 3.29492C7.85204 3.41748 7.68106 3.58847 7.3414 3.92813L7.33173 3.9375ZM12.0498 15.4497V15.5497L11.9502 15.5499V15.4497H12.0498Z" stroke="#2563eb" stroke-width="2" stroke-linecap="round" stroke-linejoin="round"/>
</g>

    </svg>
  </g>
  <!-- Icon 3: User_Remove -->
  <g transform="translate(132, 92)">
    <rect width="48" height="48" fill="#ffffff" stroke="#e9ecef" stroke-width="1" rx="4"/>
    <svg x="8" y="8" width="32" height="32" viewBox="0 0 24 24">
      
<g id="User / User_Remove">
<path id="Vector" d="M15 19C15 16.7909 12.3137 15 9 15C5.68629 15 3 16.7909 3 19M15 13H21M9 12C6.79086 12 5 10.2091 5 8C5 5.79086 6.79086 4 9 4C11.2091 4 13 5.79086 13 8C13 10.2091 11.2091 12 9 12Z" stroke="#2563eb" stroke-width="2" stroke-linecap="round" stroke-linejoin="round"/>
</g>

    </svg>
  </g>
  <!-- Icon 4: Shield -->
  <g transform="translate(192, 92)">
    <rect width="48" height="48" fill="#ffffff" stroke="#e9ecef" stroke-width="1" rx="4"/>
    <svg x="8" y="8" width="32" height="32" viewBox="0 0 24 24">
      
<g id="Shape / Shield">
<path id="Vector" d="M12.9258 20.6314C15.0319 19.6781 20 16.7333 20 10.165V6.19691C20 5.07899 20 4.5192 19.7822 4.0918C19.5905 3.71547 19.2837 3.40973 18.9074 3.21799C18.4796 3 17.9203 3 16.8002 3H7.2002C6.08009 3 5.51962 3 5.0918 3.21799C4.71547 3.40973 4.40973 3.71547 4.21799 4.0918C4 4.51962 4 5.08009 4 6.2002V10.165C4 16.7333 8.9678 19.6781 11.074 20.6314C11.2972 20.7325 11.4094 20.7829 11.6621 20.8263C11.8215 20.8537 12.1795 20.8537 12.3389 20.8263C12.5907 20.7831 12.7017 20.7328 12.9235 20.6324L12.9258 20.6314Z" stroke="#2563eb" stroke-width="2" stroke-linecap="round" stroke-linejoin="round"/>
</g>

    </svg>
  </g>
  <!-- Icon 5: Wifi_Medium -->
  <g transform="translate(252, 92)">
    <rect width="48" height="48" fill="#ffffff" stroke="#e9ecef" stroke-width="1" rx="4"/>
    <svg x="8" y="8" width="32" height="32" viewBox="0 0 24 24">
      
<g id="System / Wifi_Medium">
<path id="Vector" d="M8.34375 14.5898C8.80959 14.0903 9.37285 13.6915 9.99877 13.418C10.6247 13.1446 11.2995 13.0024 11.9826 13C12.6656 12.9977 13.3418 13.1353 13.9697 13.4044C14.5975 13.6735 15.1637 14.0683 15.633 14.5646M6.14941 11.5439C6.89476 10.7446 7.79597 10.1065 8.79745 9.66899C9.79893 9.23146 10.8802 9.00386 11.9731 9.00005C13.066 8.99623 14.1475 9.21648 15.1521 9.64701C16.1566 10.0775 17.0617 10.7084 17.8127 11.5025M12 19C11.4477 19 11 18.5523 11 18C11 17.4478 11.4477 17 12 17C12.5523 17 13 17.4478 13 18C13 18.5523 12.5523 19 12 19Z" stroke="#2563eb" stroke-width="2" stroke-linecap="round" stroke-linejoin="round"/>
</g>

    </svg>
  </g>
  <!-- Icon 6: Monitor -->
  <g transform="translate(312, 92)">
    <rect width="48" height="48" fill="#ffffff" stroke="#e9ecef" stroke-width="1" rx="4"/>
    <svg x="8" y="8" width="32" height="32" viewBox="0 0 24 24">
      
<g id="System / Monitor">
<path id="Vector" d="M15 20H9M4 13.8002V8.2002C4 7.08009 4 6.51962 4.21799 6.0918C4.40973 5.71547 4.71547 5.40973 5.0918 5.21799C5.51962 5 6.08009 5 7.2002 5H16.8002C17.9203 5 18.4796 5 18.9074 5.21799C19.2837 5.40973 19.5905 5.71547 19.7822 6.0918C20 6.5192 20 7.07899 20 8.19691V13.8031C20 14.921 20 15.48 19.7822 15.9074C19.5905 16.2837 19.2837 16.5905 18.9074 16.7822C18.48 17 17.921 17 16.8031 17H7.19691C6.07899 17 5.5192 17 5.0918 16.7822C4.71547 16.5905 4.40973 16.2837 4.21799 15.9074C4 15.4796 4 14.9203 4 13.8002Z" stroke="#2563eb" stroke-width="2" stroke-linecap="round" stroke-linejoin="round"/>
</g>

    </svg>
  </g>
  <!-- Icon 7: Bar_Top -->
  <g transform="translate(372, 92)">
    <rect width="48" height="48" fill="#ffffff" stroke="#e9ecef" stroke-width="1" rx="4"/>
    <svg x="8" y="8" width="32" height="32" viewBox="0 0 24 24">
      
<g id="System / Bar_Top">
<path id="Vector" d="M4 9H20M4 9V16.8002C4 17.9203 4 18.4796 4.21799 18.9074C4.40973 19.2837 4.71547 19.5905 5.0918 19.7822C5.5192 20 6.07901 20 7.19692 20H16.8031C17.921 20 18.48 20 18.9074 19.7822C19.2837 19.5905 19.5905 19.2837 19.7822 18.9074C20 18.48 20 17.921 20 16.8031V9M4 9V7.2002C4 6.08009 4 5.51962 4.21799 5.0918C4.40973 4.71547 4.71547 4.40973 5.0918 4.21799C5.51962 4 6.08009 4 7.2002 4H16.8002C17.9203 4 18.4796 4 18.9074 4.21799C19.2837 4.40973 19.5905 4.71547 19.7822 5.0918C20 5.5192 20 6.07899 20 7.19691V9" stroke="#2563eb" stroke-width="2" stroke-linecap="round" stroke-linejoin="round"/>
</g>

    </svg>
  </g>
  <!-- Icon 8: House_02 -->
  <g transform="translate(12, 152)">
    <rect width="48" height="48" fill="#ffffff" stroke="#e9ecef" stroke-width="1" rx="4"/>
    <svg x="8" y="8" width="32" height="32" viewBox="0 0 24 24">
      
<g id="Navigation / House_02">
<path id="Vector" d="M4 11.4522V16.8002C4 17.9203 4 18.4807 4.21799 18.9086C4.40973 19.2849 4.71547 19.5906 5.0918 19.7823C5.5192 20.0001 6.07899 20.0001 7.19691 20.0001H16.8031C17.921 20.0001 18.48 20.0001 18.9074 19.7823C19.2837 19.5906 19.5905 19.2849 19.7822 18.9086C20 18.4811 20 17.9216 20 16.8037V11.4522C20 10.9179 19.9995 10.6506 19.9346 10.4019C19.877 10.1816 19.7825 9.97307 19.6546 9.78464C19.5102 9.57201 19.3096 9.39569 18.9074 9.04383L14.1074 4.84383C13.3608 4.19054 12.9875 3.86406 12.5674 3.73982C12.1972 3.63035 11.8026 3.63035 11.4324 3.73982C11.0126 3.86397 10.6398 4.19014 9.89436 4.84244L5.09277 9.04383C4.69064 9.39569 4.49004 9.57201 4.3457 9.78464C4.21779 9.97307 4.12255 10.1816 4.06497 10.4019C4 10.6506 4 10.9179 4 11.4522Z" stroke="#2563eb" stroke-width="2" stroke-linecap="round" stroke-linejoin="round"/>
</g>

    </svg>
  </g>
  <!-- Icon 9: More_Grid_Small -->
  <g transform="translate(72, 152)">
    <rect width="48" height="48" fill="#ffffff" stroke="#e9ecef" stroke-width="1" rx="4"/>
    <svg x="8" y="8" width="32" height="32" viewBox="0 0 24 24">
      
<g id="Menu / More_Grid_Small">
<g id="Vector">
<path d="M14 15C14 15.5523 14.4477 16 15 16C15.5523 16 16 15.5523 16 15C16 14.4477 15.5523 14 15 14C14.4477 14 14 14.4477 14 15Z" stroke="#2563eb" stroke-width="2" stroke-linecap="round" stroke-linejoin="round"/>
<path d="M8 15C8 15.5523 8.44772 16 9 16C9.55228 16 10 15.5523 10 15C10 14.4477 9.55228 14 9 14C8.44772 14 8 14.4477 8 15Z" stroke="#2563eb" stroke-width="2" stroke-linecap="round" stroke-linejoin="round"/>
<path d="M14 9C14 9.55228 14.4477 10 15 10C15.5523 10 16 9.55228 16 9C16 8.44772 15.5523 8 15 8C14.4477 8 14 8.44772 14 9Z" stroke="#2563eb" stroke-width="2" stroke-linecap="round" stroke-linejoin="round"/>
<path d="M8 9C8 9.55228 8.44772 10 9 10C9.55228 10 10 9.55228 10 9C10 8.44772 9.55228 8 9 8C8.44772 8 8 8.44772 8 9Z" stroke="#2563eb" stroke-width="2" stroke-linecap="round" stroke-linejoin="round"/>
</g>
</g>

    </svg>
  </g>
  <!-- Icon 10: Close_MD -->
  <g transform="translate(132, 152)">
    <rect width="48" height="48" fill="#ffffff" stroke="#e9ecef" stroke-width="1" rx="4"/>
    <svg x="8" y="8" width="32" height="32" viewBox="0 0 24 24">
      
<g id="Menu / Close_MD">
<path id="Vector" d="M18 18L12 12M12 12L6 6M12 12L18 6M12 12L6 18" stroke="#2563eb" stroke-width="2" stroke-linecap="round" stroke-linejoin="round"/>
</g>

    </svg>
  </g>
  <!-- Icon 11: Shuffle -->
  <g transform="translate(192, 152)">
    <rect width="48" height="48" fill="#ffffff" stroke="#e9ecef" stroke-width="1" rx="4"/>
    <svg x="8" y="8" width="32" height="32" viewBox="0 0 24 24">
      
<g id="Media / Shuffle">
<path id="Vector" d="M18 20L21 17M21 17L18 14M21 17H17C14.2386 17 12 14.7614 12 12C12 9.23858 9.76142 7 7 7H3M18 4L21 7M21 7L18 10M21 7L17 7C15.8744 7 14.8357 7.37194 14 7.99963M3 17H7C8.12561 17 9.16434 16.6277 10 16" stroke="#2563eb" stroke-width="2" stroke-linecap="round" stroke-linejoin="round"/>
</g>

    </svg>
  </g>
  <!-- Icon 12: Notebook -->
  <g transform="translate(252, 152)">
    <rect width="48" height="48" fill="#ffffff" stroke="#e9ecef" stroke-width="1" rx="4"/>
    <svg x="8" y="8" width="32" height="32" viewBox="0 0 24 24">
      
<g id="File / Notebook">
<path id="Vector" d="M8 4H7.2002C6.08009 4 5.51962 4 5.0918 4.21799C4.71547 4.40973 4.40973 4.71547 4.21799 5.0918C4 5.51962 4 6.08009 4 7.2002V16.8002C4 17.9203 4 18.4801 4.21799 18.9079C4.40973 19.2842 4.71547 19.5905 5.0918 19.7822C5.5192 20 6.07899 20 7.19691 20H8M8 4H16.8002C17.9203 4 18.4796 4 18.9074 4.21799C19.2837 4.40973 19.5905 4.71547 19.7822 5.0918C20 5.5192 20 6.07899 20 7.19691V16.8036C20 17.9215 20 18.4805 19.7822 18.9079C19.5905 19.2842 19.2837 19.5905 18.9074 19.7822C18.48 20 17.921 20 16.8031 20H8M8 4V20M12 11H16M12 8H16" stroke="#2563eb" stroke-width="2" stroke-linecap="round" stroke-linejoin="round"/>
</g>

    </svg>
  </g>
  <!-- Icon 13: Folder_Code -->
  <g transform="translate(312, 152)">
    <rect width="48" height="48" fill="#ffffff" stroke="#e9ecef" stroke-width="1" rx="4"/>
    <svg x="8" y="8" width="32" height="32" viewBox="0 0 24 24">
      
<g id="File / Folder_Code">
<path id="Vector" d="M14 11L16 13L14 15M10 15L8 13L10 11M3 6V16.8C3 17.9201 3 18.4798 3.21799 18.9076C3.40973 19.2839 3.71547 19.5905 4.0918 19.7822C4.5192 20 5.07899 20 6.19691 20H17.8031C18.921 20 19.48 20 19.9074 19.7822C20.2837 19.5905 20.5905 19.2841 20.7822 18.9078C21.0002 18.48 21.0002 17.9199 21.0002 16.7998L21.0002 9.19978C21.0002 8.07967 21.0002 7.51962 20.7822 7.0918C20.5905 6.71547 20.2839 6.40973 19.9076 6.21799C19.4798 6 18.9201 6 17.8 6H12M3 6H12M3 6C3 4.89543 3.89543 4 5 4H8.67452C9.1637 4 9.40886 4 9.63904 4.05526C9.84311 4.10425 10.0379 4.18526 10.2168 4.29492C10.4186 4.41857 10.5918 4.59182 10.9375 4.9375L12 6" stroke="#2563eb" stroke-width="2" stroke-linecap="round" stroke-linejoin="round"/>
</g>

    </svg>
  </g>
  <!-- Icon 14: File_Code -->
  <g transform="translate(372, 152)">
    <rect width="48" height="48" fill="#ffffff" stroke="#e9ecef" stroke-width="1" rx="4"/>
    <svg x="8" y="8" width="32" height="32" viewBox="0 0 24 24">
      
<g id="File / File_Code">
<path id="Vector" d="M13 3.00087C12.9045 3 12.7973 3 12.6747 3H8.2002C7.08009 3 6.51962 3 6.0918 3.21799C5.71547 3.40973 5.40973 3.71547 5.21799 4.0918C5 4.51962 5 5.08009 5 6.2002V17.8002C5 18.9203 5 19.4801 5.21799 19.9079C5.40973 20.2842 5.71547 20.5905 6.0918 20.7822C6.51921 21 7.079 21 8.19694 21L15.8031 21C16.921 21 17.48 21 17.9074 20.7822C18.2837 20.5905 18.5905 20.2842 18.7822 19.9079C19 19.4805 19 18.9215 19 17.8036V9.32568C19 9.20296 19 9.09561 18.9991 9M13 3.00087C13.2856 3.00347 13.4663 3.01385 13.6388 3.05526C13.8429 3.10425 14.0379 3.18526 14.2168 3.29492C14.4186 3.41857 14.5918 3.59182 14.9375 3.9375L18.063 7.06298C18.4089 7.40889 18.5809 7.58136 18.7046 7.78319C18.8142 7.96214 18.8953 8.15726 18.9443 8.36133C18.9857 8.53376 18.9963 8.71451 18.9991 9M13 3.00087V5.8C13 6.9201 13 7.47977 13.218 7.90759C13.4097 8.28392 13.7155 8.59048 14.0918 8.78223C14.5192 9 15.079 9 16.1969 9H18.9991M18.9991 9H19.0002M14 13L16 15L14 17M10 17L8 15L10 13" stroke="#2563eb" stroke-width="2" stroke-linecap="round" stroke-linejoin="round"/>
</g>

    </svg>
  </g>
  <!-- Icon 15: Cloud_Add -->
  <g transform="translate(12, 212)">
    <rect width="48" height="48" fill="#ffffff" stroke="#e9ecef" stroke-width="1" rx="4"/>
    <svg x="8" y="8" width="32" height="32" viewBox="0 0 24 24">
      
<g id="File / Cloud_Add">
<path id="Vector" d="M12 16V13M12 13V10M12 13H9M12 13H15M23 15C23 12.7909 21.2091 11 19 11C18.9764 11 18.9532 11.0002 18.9297 11.0006C18.4447 7.60802 15.5267 5 12 5C9.20335 5 6.79019 6.64004 5.66895 9.01082C3.06206 9.18144 1 11.3498 1 13.9999C1 16.7613 3.23858 19.0001 6 19.0001L19 19C21.2091 19 23 17.2091 23 15Z" stroke="#2563eb" stroke-width="2" stroke-linecap="round" stroke-linejoin="round"/>
</g>

    </svg>
  </g>
  <!-- Icon 16: Star -->
  <g transform="translate(72, 212)">
    <rect width="48" height="48" fill="#ffffff" stroke="#e9ecef" stroke-width="1" rx="4"/>
    <svg x="8" y="8" width="32" height="32" viewBox="0 0 24 24">
      
<g id="Interface / Star">
<path id="Vector" d="M2.33496 10.3368C2.02171 10.0471 2.19187 9.52339 2.61557 9.47316L8.61914 8.76107C8.79182 8.74059 8.94181 8.63215 9.01465 8.47425L11.5469 2.98446C11.7256 2.59703 12.2764 2.59695 12.4551 2.98439L14.9873 8.47413C15.0601 8.63204 15.2092 8.74077 15.3818 8.76124L21.3857 9.47316C21.8094 9.52339 21.9791 10.0472 21.6659 10.3369L17.2278 14.4419C17.1001 14.56 17.0433 14.7357 17.0771 14.9063L18.255 20.8359C18.3382 21.2544 17.8928 21.5787 17.5205 21.3703L12.2451 18.4166C12.0934 18.3317 11.9091 18.3321 11.7573 18.417L6.48144 21.3695C6.10913 21.5779 5.66294 21.2544 5.74609 20.8359L6.92414 14.9066C6.95803 14.7361 6.90134 14.5599 6.77367 14.4419L2.33496 10.3368Z" stroke="#2563eb" stroke-width="2" stroke-linecap="round" stroke-linejoin="round"/>
</g>

    </svg>
  </g>
  <!-- Icon 17: Radio_Fill -->
  <g transform="translate(132, 212)">
    <rect width="48" height="48" fill="#ffffff" stroke="#e9ecef" stroke-width="1" rx="4"/>
    <svg x="8" y="8" width="32" height="32" viewBox="0 0 24 24">
      
<g id="Interface / Radio_Fill">
<g id="Vector">
<path d="M12 4C7.58172 4 4 7.58172 4 12C4 16.4183 7.58172 20 12 20C16.4183 20 20 16.4183 20 12C20 7.58172 16.4183 4 12 4Z" stroke="#2563eb" stroke-width="2" stroke-linecap="round" stroke-linejoin="round"/>
<path d="M12 9C10.3431 9 9 10.3431 9 12C9 13.6569 10.3431 15 12 15C13.6569 15 15 13.6569 15 12C15 10.3431 13.6569 9 12 9Z" stroke="#2563eb" stroke-width="2" stroke-linecap="round" stroke-linejoin="round"/>
</g>
</g>

    </svg>
  </g>
  <!-- Icon 18: Link_Break -->
  <g transform="translate(192, 212)">
    <rect width="48" height="48" fill="#ffffff" stroke="#e9ecef" stroke-width="1" rx="4"/>
    <svg x="8" y="8" width="32" height="32" viewBox="0 0 24 24">
      
<g id="Interface / Link_Break">
<path id="Vector" d="M16 20V18M18 16H20M7.04996 11.293L5.63574 12.7072C4.07365 14.2693 4.07466 16.8016 5.63675 18.3637C7.19885 19.9258 9.7308 19.9262 11.2929 18.3641L12.7076 16.9497M6 8H4M8 4V6M11.293 7.05044L12.7072 5.63623C14.2693 4.07413 16.8016 4.07368 18.3637 5.63578C19.9258 7.19787 19.9254 9.7308 18.3633 11.2929L16.9492 12.7071" stroke="#2563eb" stroke-width="2" stroke-linecap="round" stroke-linejoin="round"/>
</g>

    </svg>
  </g>
  <!-- Icon 19: Filter_Off -->
  <g transform="translate(252, 212)">
    <rect width="48" height="48" fill="#ffffff" stroke="#e9ecef" stroke-width="1" rx="4"/>
    <svg x="8" y="8" width="32" height="32" viewBox="0 0 24 24">
      
<g id="Interface / Filter_Off">
<path id="Vector" d="M13 4H18.4C18.9601 4 19.2409 4 19.4548 4.10899C19.6429 4.20487 19.7948 4.35774 19.8906 4.5459C19.9996 4.75981 20 5.04005 20 5.6001V6.3448C20 6.58444 20 6.70551 19.9727 6.81942C19.9482 6.92146 19.9072 7.01893 19.8524 7.1084C19.7906 7.20931 19.7043 7.2958 19.5314 7.46875L18 9.00012M7.49961 4H5.59961C5.03956 4 4.75981 4 4.5459 4.10899C4.35774 4.20487 4.20487 4.35774 4.10899 4.5459C4 4.75981 4 5.04005 4 5.6001V6.33736C4 6.58195 4 6.70433 4.02763 6.81942C4.05213 6.92146 4.09263 7.01893 4.14746 7.1084C4.20928 7.20928 4.29591 7.29591 4.46875 7.46875L9.53149 12.5315C9.70443 12.7044 9.79044 12.7904 9.85228 12.8914C9.90711 12.9808 9.94816 13.0786 9.97266 13.1807C10 13.2946 10 13.4155 10 13.6552V18.411C10 19.2682 10 19.6971 10.1805 19.9552C10.3382 20.1806 10.5814 20.331 10.8535 20.3712C11.1651 20.4172 11.5487 20.2257 12.3154 19.8424L13.1154 19.4424C13.4365 19.2819 13.5966 19.2013 13.7139 19.0815C13.8176 18.9756 13.897 18.8485 13.9453 18.7083C14 18.5499 14 18.37 14 18.011V13.6626C14 13.418 14 13.2958 14.0276 13.1807C14.0521 13.0786 14.0926 12.9809 14.1475 12.8915C14.2091 12.7909 14.2952 12.7048 14.4669 12.5331L14.4688 12.5314L15.5001 11.5001M15.5001 11.5001L5 1M15.5001 11.5001L19 15" stroke="#2563eb" stroke-width="2" stroke-linecap="round" stroke-linejoin="round"/>
</g>

    </svg>
  </g>
  <!-- Icon 20: Credit_Card_01 -->
  <g transform="translate(312, 212)">
    <rect width="48" height="48" fill="#ffffff" stroke="#e9ecef" stroke-width="1" rx="4"/>
    <svg x="8" y="8" width="32" height="32" viewBox="0 0 24 24">
      
<g id="Interface / Credit_Card_01">
<path id="Vector" d="M3 11V15.8002C3 16.9203 3 17.4801 3.21799 17.9079C3.40973 18.2842 3.71547 18.5905 4.0918 18.7822C4.5192 19 5.07899 19 6.19691 19H17.8031C18.921 19 19.48 19 19.9074 18.7822C20.2837 18.5905 20.5905 18.2842 20.7822 17.9079C21 17.4805 21 16.9215 21 15.8036V11M3 11V9M3 11H21M3 9V8.2002C3 7.08009 3 6.51962 3.21799 6.0918C3.40973 5.71547 3.71547 5.40973 4.0918 5.21799C4.51962 5 5.08009 5 6.2002 5H17.8002C18.9203 5 19.4796 5 19.9074 5.21799C20.2837 5.40973 20.5905 5.71547 20.7822 6.0918C21 6.5192 21 7.07899 21 8.19691V9M3 9H21M7 15H11M21 11V9" stroke="#2563eb" stroke-width="2" stroke-linecap="round" stroke-linejoin="round"/>
</g>

    </svg>
  </g>
  <!-- Icon 21: Chart_Bar_Horizontal_01 -->
  <g transform="translate(372, 212)">
    <rect width="48" height="48" fill="#ffffff" stroke="#e9ecef" stroke-width="1" rx="4"/>
    <svg x="8" y="8" width="32" height="32" viewBox="0 0 24 24">
      
<g id="Interface / Chart_Bar_Horizontal_01">
<path id="Vector" d="M13 9H4M13 9V4.6001C13 4.04005 12.9996 3.75981 12.8906 3.5459C12.7948 3.35774 12.6429 3.20487 12.4548 3.10899C12.2409 3 11.9601 3 11.4 3H4V9M13 9H18.4C18.9601 9 19.2409 9 19.4548 9.10899C19.6429 9.20487 19.7948 9.35774 19.8906 9.5459C19.9996 9.75981 20 10.04 20 10.6001V13.4001C20 13.9601 19.9996 14.2398 19.8906 14.4537C19.7948 14.6419 19.6429 14.7952 19.4548 14.8911C19.2411 15 18.961 15 18.402 15H16M4 9V15M4 15V21H14.402C14.961 21 15.2411 21 15.4548 20.8911C15.6429 20.7952 15.7948 20.642 15.8906 20.4538C15.9996 20.2399 16 19.9601 16 19.4V15M4 15H16" stroke="#2563eb" stroke-width="2" stroke-linecap="round" stroke-linejoin="round"/>
</g>

    </svg>
  </g>
  <!-- Icon 22: Chat_Conversation_Circle -->
  <g transform="translate(12, 272)">
    <rect width="48" height="48" fill="#ffffff" stroke="#e9ecef" stroke-width="1" rx="4"/>
    <svg x="8" y="8" width="32" height="32" viewBox="0 0 24 24">
      
<g id="Communication / Chat_Conversation_Circle">
<path id="Vector" d="M9.33814 15.9905C12.4946 15.8151 15 13.2003 15 10C15 6.68629 12.3137 4 9 4C5.68629 4 3 6.68629 3 10C3 11.1807 3.34094 12.2817 3.92989 13.21L3.50586 14.482L3.50518 14.4839C3.34278 14.9711 3.26154 15.2149 3.31938 15.3771C3.36979 15.5184 3.48169 15.6299 3.62305 15.6803C3.78472 15.7379 4.02675 15.6573 4.51069 15.4959L4.51758 15.4939L5.79004 15.0698C6.7183 15.6588 7.81935 15.9998 9.00006 15.9998C9.11352 15.9998 9.22624 15.9967 9.33814 15.9905ZM9.33814 15.9905C9.33822 15.9907 9.33806 15.9902 9.33814 15.9905ZM9.33814 15.9905C10.1591 18.3259 12.3841 20.0002 15.0001 20.0002C16.1808 20.0002 17.2817 19.6588 18.2099 19.0698L19.482 19.4939L19.4845 19.4944C19.9717 19.6567 20.2158 19.7381 20.378 19.6803C20.5194 19.6299 20.6299 19.5184 20.6803 19.3771C20.7382 19.2146 20.6572 18.9706 20.4943 18.4821L20.0703 17.21L20.2123 16.9746C20.7138 16.0979 20.9995 15.0823 20.9995 14C20.9995 10.6863 18.3137 8 15 8L14.7754 8.00414L14.6621 8.00967" stroke="#2563eb" stroke-width="2" stroke-linecap="round" stroke-linejoin="round"/>
</g>

    </svg>
  </g>
  <!-- Icon 23: Bell_Ring -->
  <g transform="translate(72, 272)">
    <rect width="48" height="48" fill="#ffffff" stroke="#e9ecef" stroke-width="1" rx="4"/>
    <svg x="8" y="8" width="32" height="32" viewBox="0 0 24 24">
      
<g id="Communication / Bell_Ring">
<path id="Vector" d="M15 17V18C15 19.6569 13.6569 21 12 21C10.3431 21 9 19.6569 9 18V17M15 17H9M15 17H18.5905C18.973 17 19.1652 17 19.3201 16.9478C19.616 16.848 19.8475 16.6156 19.9473 16.3198C19.9997 16.1643 19.9997 15.9715 19.9997 15.5859C19.9997 15.4172 19.9995 15.3329 19.9863 15.2524C19.9614 15.1004 19.9024 14.9563 19.8126 14.8312C19.7651 14.7651 19.7047 14.7048 19.5858 14.5858L19.1963 14.1963C19.0706 14.0706 19 13.9001 19 13.7224V10C19 6.134 15.866 2.99999 12 3C8.13401 3.00001 5 6.13401 5 10V13.7224C5 13.9002 4.92924 14.0706 4.80357 14.1963L4.41406 14.5858C4.29477 14.7051 4.23504 14.765 4.1875 14.8312C4.09766 14.9564 4.03815 15.1004 4.0132 15.2524C4 15.3329 4 15.4172 4 15.586C4 15.9715 4 16.1642 4.05245 16.3197C4.15225 16.6156 4.3848 16.848 4.68066 16.9478C4.83556 17 5.02701 17 5.40956 17H9M18.0186 2.01367C19.3978 3.05299 20.4843 4.43177 21.1724 6.01574M5.98197 2.01367C4.60275 3.05299 3.5162 4.43177 2.82812 6.01574" stroke="#2563eb" stroke-width="2" stroke-linecap="round" stroke-linejoin="round"/>
</g>

    </svg>
  </g>
  <!-- Icon 24: Text_Align_Center -->
  <g transform="translate(132, 272)">
    <rect width="48" height="48" fill="#ffffff" stroke="#e9ecef" stroke-width="1" rx="4"/>
    <svg x="8" y="8" width="32" height="32" viewBox="0 0 24 24">
      
<g id="Edit / Text_Align_Center">
<path id="Vector" d="M17 18H7M20 14H4M17 10H7M20 6H4" stroke="#2563eb" stroke-width="2" stroke-linecap="round" stroke-linejoin="round"/>
</g>

    </svg>
  </g>
  <!-- Icon 25: Select_Multiple -->
  <g transform="translate(192, 272)">
    <rect width="48" height="48" fill="#ffffff" stroke="#e9ecef" stroke-width="1" rx="4"/>
    <svg x="8" y="8" width="32" height="32" viewBox="0 0 24 24">
      
<g id="Edit / Select_Multiple">
<path id="Vector" d="M3 9V19.4C3 19.9601 3 20.2399 3.10899 20.4538C3.20487 20.642 3.35774 20.7952 3.5459 20.8911C3.7596 21 4.0395 21 4.59846 21H15.0001M17 8L13 12L11 10M7 13.8002V6.2002C7 5.08009 7 4.51962 7.21799 4.0918C7.40973 3.71547 7.71547 3.40973 8.0918 3.21799C8.51962 3 9.08009 3 10.2002 3H17.8002C18.9203 3 19.4801 3 19.9079 3.21799C20.2842 3.40973 20.5905 3.71547 20.7822 4.0918C21.0002 4.51962 21.0002 5.07969 21.0002 6.19978L21.0002 13.7998C21.0002 14.9199 21.0002 15.48 20.7822 15.9078C20.5905 16.2841 20.2842 16.5905 19.9079 16.7822C19.4805 17 18.9215 17 17.8036 17H10.1969C9.07899 17 8.5192 17 8.0918 16.7822C7.71547 16.5905 7.40973 16.2842 7.21799 15.9079C7 15.4801 7 14.9203 7 13.8002Z" stroke="#2563eb" stroke-width="2" stroke-linecap="round" stroke-linejoin="round"/>
</g>

    </svg>
  </g>
  <!-- Icon 26: Move -->
  <g transform="translate(252, 272)">
    <rect width="48" height="48" fill="#ffffff" stroke="#e9ecef" stroke-width="1" rx="4"/>
    <svg x="8" y="8" width="32" height="32" viewBox="0 0 24 24">
      
<g id="Edit / Move">
<path id="Vector" d="M12 21V12M12 21L15 18M12 21L9 18M12 12V3M12 12H3M12 12H21M12 3L9 6M12 3L15 6M3 12L6 15M3 12L6 9M21 12L18 9M21 12L18 15" stroke="#2563eb" stroke-width="2" stroke-linecap="round" stroke-linejoin="round"/>
</g>

    </svg>
  </g>
  <!-- Icon 27: Heading_H6 -->
  <g transform="translate(312, 272)">
    <rect width="48" height="48" fill="#ffffff" stroke="#e9ecef" stroke-width="1" rx="4"/>
    <svg x="8" y="8" width="32" height="32" viewBox="0 0 24 24">
      
<g id="Edit / Heading_H6">
<path id="Vector" d="M15.4024 14.5249C14.574 15.9516 15.0656 17.7759 16.5005 18.5997C17.9354 19.4234 19.7701 18.9346 20.5986 17.5078C21.427 16.0811 20.9352 14.2571 19.5003 13.4334C18.0655 12.6097 16.2309 13.0982 15.4024 14.5249ZM15.4024 14.5249L18.9998 8M3 5V12M3 12V19M3 12H11M11 5V12M11 12V19" stroke="#2563eb" stroke-width="2" stroke-linecap="round" stroke-linejoin="round"/>
</g>

    </svg>
  </g>
  <!-- Icon 28: Edit_Pencil_01 -->
  <g transform="translate(372, 272)">
    <rect width="48" height="48" fill="#ffffff" stroke="#e9ecef" stroke-width="1" rx="4"/>
    <svg x="8" y="8" width="32" height="32" viewBox="0 0 24 24">
      
<g id="Edit / Edit_Pencil_01">
<path id="Vector" d="M12 8.00012L4 16.0001V20.0001L8 20.0001L16 12.0001M12 8.00012L14.8686 5.13146L14.8704 5.12976C15.2652 4.73488 15.463 4.53709 15.691 4.46301C15.8919 4.39775 16.1082 4.39775 16.3091 4.46301C16.5369 4.53704 16.7345 4.7346 17.1288 5.12892L18.8686 6.86872C19.2646 7.26474 19.4627 7.46284 19.5369 7.69117C19.6022 7.89201 19.6021 8.10835 19.5369 8.3092C19.4628 8.53736 19.265 8.73516 18.8695 9.13061L18.8686 9.13146L16 12.0001M12 8.00012L16 12.0001" stroke="#2563eb" stroke-width="2" stroke-linecap="round" stroke-linejoin="round"/>
</g>

    </svg>
  </g>
  <!-- Icon 29: Add_To_Queue -->
  <g transform="translate(12, 332)">
    <rect width="48" height="48" fill="#ffffff" stroke="#e9ecef" stroke-width="1" rx="4"/>
    <svg x="8" y="8" width="32" height="32" viewBox="0 0 24 24">
      
<g id="Edit / Add_To_Queue">
<path id="Vector" d="M3 9V19.4C3 19.9601 3 20.2399 3.10899 20.4538C3.20487 20.642 3.35774 20.7952 3.5459 20.8911C3.7596 21 4.0395 21 4.59846 21H15.0001M14 13V10M14 10V7M14 10H11M14 10H17M7 13.8002V6.2002C7 5.08009 7 4.51962 7.21799 4.0918C7.40973 3.71547 7.71547 3.40973 8.0918 3.21799C8.51962 3 9.08009 3 10.2002 3H17.8002C18.9203 3 19.4801 3 19.9079 3.21799C20.2842 3.40973 20.5905 3.71547 20.7822 4.0918C21.0002 4.51962 21.0002 5.07969 21.0002 6.19978L21.0002 13.7998C21.0002 14.9199 21.0002 15.48 20.7822 15.9078C20.5905 16.2841 20.2842 16.5905 19.9079 16.7822C19.4805 17 18.9215 17 17.8036 17H10.1969C9.07899 17 8.5192 17 8.0918 16.7822C7.71547 16.5905 7.40973 16.2842 7.21799 15.9079C7 15.4801 7 14.9203 7 13.8002Z" stroke="#2563eb" stroke-width="2" stroke-linecap="round" stroke-linejoin="round"/>
</g>

    </svg>
  </g>
  <!-- Icon 30: Calendar_Week -->
  <g transform="translate(72, 332)">
    <rect width="48" height="48" fill="#ffffff" stroke="#e9ecef" stroke-width="1" rx="4"/>
    <svg x="8" y="8" width="32" height="32" viewBox="0 0 24 24">
      
<g id="Calendar / Calendar_Week">
<path id="Vector" d="M4 8H20M4 8V16.8002C4 17.9203 4 18.4801 4.21799 18.9079C4.40973 19.2842 4.71547 19.5905 5.0918 19.7822C5.5192 20 6.07899 20 7.19691 20H16.8031C17.921 20 18.48 20 18.9074 19.7822C19.2837 19.5905 19.5905 19.2842 19.7822 18.9079C20 18.4805 20 17.9215 20 16.8036V8M4 8V7.2002C4 6.08009 4 5.51962 4.21799 5.0918C4.40973 4.71547 4.71547 4.40973 5.0918 4.21799C5.51962 4 6.08009 4 7.2002 4H8M20 8V7.19691C20 6.07899 20 5.5192 19.7822 5.0918C19.5905 4.71547 19.2837 4.40973 18.9074 4.21799C18.4796 4 17.9203 4 16.8002 4H16M8 4H16M8 4V2M16 4V2M16 12H8" stroke="#2563eb" stroke-width="2" stroke-linecap="round" stroke-linejoin="round"/>
</g>

    </svg>
  </g>
  <!-- Icon 31: Puzzle -->
  <g transform="translate(132, 332)">
    <rect width="48" height="48" fill="#ffffff" stroke="#e9ecef" stroke-width="1" rx="4"/>
    <svg x="8" y="8" width="32" height="32" viewBox="0 0 24 24">
      
<g id="Environment / Puzzle">
<path id="Vector" d="M20 7H17.8486C17.3511 7 17 6.49751 17 6C17 4.34315 15.6569 3 14 3C12.3431 3 11 4.34315 11 6C11 6.49751 10.6488 7 10.1513 7H8C7.44771 7 7 7.44772 7 8V10.1513C7 10.6488 6.49751 11 6 11C4.34315 11 3 12.3431 3 14C3 15.6569 4.34315 17 6 17C6.49751 17 7 17.3511 7 17.8486V20C7 20.5523 7.44771 21 8 21L20 21C20.5523 21 21 20.5523 21 20V17.8486C21 17.3511 20.4975 17 20 17C18.3431 17 17 15.6569 17 14C17 12.3431 18.3431 11 20 11C20.4975 11 21 10.6488 21 10.1513L21 8C21 7.44772 20.5523 7 20 7Z" stroke="#2563eb" stroke-width="2" stroke-linecap="round" stroke-linejoin="round"/>
</g>

    </svg>
  </g>
  <!-- Icon 32: Shrink -->
  <g transform="translate(192, 332)">
    <rect width="48" height="48" fill="#ffffff" stroke="#e9ecef" stroke-width="1" rx="4"/>
    <svg x="8" y="8" width="32" height="32" viewBox="0 0 24 24">
      
<g id="Arrow / Shrink">
<path id="Vector" d="M5 14H10V19M19 10H14V5" stroke="#2563eb" stroke-width="2" stroke-linecap="round" stroke-linejoin="round"/>
</g>

    </svg>
  </g>
  <!-- Icon 33: Caret_Up_SM -->
  <g transform="translate(252, 332)">
    <rect width="48" height="48" fill="#ffffff" stroke="#e9ecef" stroke-width="1" rx="4"/>
    <svg x="8" y="8" width="32" height="32" viewBox="0 0 24 24">
      
<g id="Arrow / Caret_Up_SM">
<path id="Vector" d="M9 13L12 10L15 13" stroke="#2563eb" stroke-width="2" stroke-linecap="round" stroke-linejoin="round"/>
</g>

    </svg>
  </g>
  <!-- Icon 34: Arrow_Up_Right_SM -->
  <g transform="translate(312, 332)">
    <rect width="48" height="48" fill="#ffffff" stroke="#e9ecef" stroke-width="1" rx="4"/>
    <svg x="8" y="8" width="32" height="32" viewBox="0 0 24 24">
      
<g id="Arrow / Arrow_Up_Right_SM">
<path id="Vector" d="M8 16L16 8M16 8H10M16 8V14" stroke="#2563eb" stroke-width="2" stroke-linecap="round" stroke-linejoin="round"/>
</g>

    </svg>
  </g>
  <!-- Icon 35: Arrow_Sub_Up_Right -->
  <g transform="translate(372, 332)">
    <rect width="48" height="48" fill="#ffffff" stroke="#e9ecef" stroke-width="1" rx="4"/>
    <svg x="8" y="8" width="32" height="32" viewBox="0 0 24 24">
      
<g id="Arrow / Arrow_Sub_Up_Right">
<path id="Vector" d="M13 13L18 8M18 8L13 3M18 8H10.2002C9.08009 8 8.51962 8 8.0918 8.21799C7.71547 8.40973 7.40973 8.71547 7.21799 9.0918C7 9.51962 7 10.0801 7 11.2002V21.0002" stroke="#2563eb" stroke-width="2" stroke-linecap="round" stroke-linejoin="round"/>
</g>

    </svg>
  </g>
  
  <!-- Footer -->
  <text x="400" y="580" text-anchor="middle" font-family="system-ui, -apple-system, sans-serif" font-size="12" fill="#6c757d">
    Showing 35 of 442 icons
  </text>
  
</svg>