<svg width="448" height="368" xmlns="http://www.w3.org/2000/svg">
  <!-- Background -->
  <rect width="448" height="368" fill="#1a1a1a"/>
  
  <!-- Icon Grid -->
  <!-- Icon 1: Wavy_Warning -->
  <g transform="translate(20, 20)">
    <rect width="48" height="48" fill="#1a1a1a" stroke="#333333" stroke-width="1" rx="4"/>
    <svg x="8" y="8" width="32" height="32" viewBox="0 0 24 24" style="stroke: #ffffff; fill: none; stroke-width: 2; stroke-linecap: round; stroke-linejoin: round;">
      
<g id="Warning / Wavy_Warning">
<path id="Vector" d="M12 8.45V12.45M13.246 3.45879L14.467 4.49929C14.7746 4.76143 15.1566 4.91991 15.5594 4.95206L17.1585 5.0795C18.0986 5.15452 18.8453 5.9008 18.9204 6.84093L19.0475 8.44024C19.0797 8.8431 19.2387 9.22559 19.5008 9.53319L20.5409 10.7538C21.1526 11.4716 21.1527 12.5275 20.541 13.2454L19.5009 14.4662C19.2388 14.7738 19.08 15.1564 19.0478 15.5593L18.9199 17.1583C18.8449 18.0984 18.0993 18.8452 17.1591 18.9202L15.5595 19.0478C15.1567 19.08 14.7744 19.2381 14.4667 19.5002L13.246 20.5407C12.5282 21.1525 11.4717 21.1526 10.7539 20.5409L9.53316 19.5003C9.22555 19.2382 8.84325 19.0798 8.44038 19.0477L6.84077 18.9202C5.90064 18.8452 5.15505 18.0986 5.08003 17.1585L4.9521 15.5594C4.91995 15.1565 4.76111 14.7742 4.49898 14.4666L3.45894 13.2454C2.84721 12.5276 2.84693 11.472 3.45865 10.7542L4.49963 9.53301C4.76176 9.22541 4.91908 8.84311 4.95122 8.44024L5.07915 6.84112C5.15417 5.90099 5.90192 5.15442 6.84205 5.0794L8.43989 4.95196C8.84276 4.91981 9.22525 4.76146 9.53285 4.49932L10.754 3.45879C11.4718 2.84707 12.5282 2.84707 13.246 3.45879ZM12.0498 15.45V15.55L11.9501 15.5496V15.45H12.0498Z"  stroke-width="2" stroke-linecap="round" stroke-linejoin="round"/>
</g>

    </svg>
  </g>
  <!-- Icon 2: Octagon_Warning -->
  <g transform="translate(80, 20)">
    <rect width="48" height="48" fill="#1a1a1a" stroke="#333333" stroke-width="1" rx="4"/>
    <svg x="8" y="8" width="32" height="32" viewBox="0 0 24 24" style="stroke: #ffffff; fill: none; stroke-width: 2; stroke-linecap: round; stroke-linejoin: round;">
      
<g id="Warning / Octagon_Warning">
<path id="Vector" d="M12 8.44971V12.4497M7.33173 3.9375L3.9375 7.33173L3.93442 7.33462C3.59057 7.67847 3.41824 7.85081 3.29492 8.05204C3.18526 8.23098 3.10425 8.4263 3.05526 8.63037C3 8.86055 3 9.10506 3 9.59424V14.4058C3 14.8949 3 15.1395 3.05526 15.3697C3.10425 15.5738 3.18526 15.7688 3.29492 15.9478C3.41857 16.1495 3.59182 16.3228 3.9375 16.6685L7.33173 20.0627C7.67763 20.4086 7.85021 20.5812 8.05204 20.7048C8.23099 20.8145 8.42581 20.8958 8.62988 20.9448C8.85971 21 9.10382 21 9.59151 21H14.4075C14.8952 21 15.1404 21 15.3702 20.9448C15.5743 20.8958 15.7693 20.8145 15.9482 20.7049C16.1501 20.5812 16.323 20.4086 16.6689 20.0627L20.0632 16.6685C20.4091 16.3226 20.5817 16.1496 20.7053 15.9478C20.815 15.7688 20.8953 15.5738 20.9443 15.3697C20.9996 15.1395 21 14.895 21 14.4058V9.59424C21 9.10506 20.9996 8.86055 20.9443 8.63037C20.8953 8.4263 20.815 8.23099 20.7053 8.05205C20.5817 7.85022 20.4091 7.67761 20.0632 7.33173L16.6689 3.9375C16.3233 3.59181 16.15 3.41857 15.9482 3.29492C15.7693 3.18526 15.5743 3.10425 15.3702 3.05526C15.14 3 14.8945 3 14.4053 3H9.59375C9.10457 3 8.86006 3 8.62988 3.05526C8.42581 3.10425 8.23099 3.18526 8.05204 3.29492C7.85204 3.41748 7.68106 3.58847 7.3414 3.92813L7.33173 3.9375ZM12.0498 15.4497V15.5497L11.9502 15.5499V15.4497H12.0498Z"  stroke-width="2" stroke-linecap="round" stroke-linejoin="round"/>
</g>

    </svg>
  </g>
  <!-- Icon 3: Octagon -->
  <g transform="translate(140, 20)">
    <rect width="48" height="48" fill="#1a1a1a" stroke="#333333" stroke-width="1" rx="4"/>
    <svg x="8" y="8" width="32" height="32" viewBox="0 0 24 24" style="stroke: #ffffff; fill: none; stroke-width: 2; stroke-linecap: round; stroke-linejoin: round;">
      
<g id="Shape / Octagon">
<path id="Vector" d="M14.4053 21H9.59375C9.10457 21 8.86006 20.9996 8.62988 20.9443C8.42581 20.8953 8.23099 20.815 8.05204 20.7053C7.85021 20.5817 7.67763 20.4091 7.33173 20.0632L3.9375 16.6689C3.59182 16.3233 3.41857 16.15 3.29492 15.9482C3.18526 15.7693 3.10425 15.5743 3.05526 15.3702C3 15.14 3 14.8945 3 14.4053V9.59375C3 9.10457 3 8.86006 3.05526 8.62988C3.10425 8.42581 3.18526 8.23098 3.29492 8.05204C3.41748 7.85205 3.58846 7.68107 3.92809 7.34144L3.9375 7.33173L7.33173 3.9375L7.3414 3.92813C7.68106 3.58847 7.85204 3.41748 8.05204 3.29492C8.23099 3.18526 8.42581 3.10425 8.62988 3.05526C8.86006 3 9.10457 3 9.59375 3H14.4053C14.8945 3 15.14 3 15.3702 3.05526C15.5743 3.10425 15.7693 3.18526 15.9482 3.29492C16.15 3.41857 16.3233 3.59181 16.6689 3.9375L20.0632 7.33173C20.409 7.67759 20.5817 7.85022 20.7053 8.05205C20.815 8.23099 20.8953 8.42581 20.9443 8.62988C20.9996 8.86006 21 9.10457 21 9.59375V14.4053M20.9996 14.4062C20.9996 14.8954 20.9996 15.14 20.9443 15.3702C20.8953 15.5743 20.815 15.7693 20.7053 15.9482C20.5817 16.1501 20.4091 16.323 20.0632 16.6689L16.6689 20.0632C16.323 20.4091 16.1501 20.5817 15.9482 20.7053C15.7693 20.815 15.5743 20.8953 15.3702 20.9443C15.14 20.9996 14.8954 20.9996 14.4062 20.9996"  stroke-width="2" stroke-linecap="round" stroke-linejoin="round"/>
</g>

    </svg>
  </g>
  <!-- Icon 4: User_03 -->
  <g transform="translate(200, 20)">
    <rect width="48" height="48" fill="#1a1a1a" stroke="#333333" stroke-width="1" rx="4"/>
    <svg x="8" y="8" width="32" height="32" viewBox="0 0 24 24" style="stroke: #ffffff; fill: none; stroke-width: 2; stroke-linecap: round; stroke-linejoin: round;">
      
<g id="User / User_03">
<path id="Vector" d="M18 19C18 16.7909 15.3137 15 12 15C8.68629 15 6 16.7909 6 19M12 12C9.79086 12 8 10.2091 8 8C8 5.79086 9.79086 4 12 4C14.2091 4 16 5.79086 16 8C16 10.2091 14.2091 12 12 12Z"  stroke-width="2" stroke-linecap="round" stroke-linejoin="round"/>
</g>

    </svg>
  </g>
  <!-- Icon 5: House_01 -->
  <g transform="translate(260, 20)">
    <rect width="48" height="48" fill="#1a1a1a" stroke="#333333" stroke-width="1" rx="4"/>
    <svg x="8" y="8" width="32" height="32" viewBox="0 0 24 24" style="stroke: #ffffff; fill: none; stroke-width: 2; stroke-linecap: round; stroke-linejoin: round;">
      
<g id="Navigation / House_01">
<path id="Vector" d="M20 17.0002V11.4522C20 10.9179 19.9995 10.6506 19.9346 10.4019C19.877 10.1816 19.7825 9.97307 19.6546 9.78464C19.5102 9.57201 19.3096 9.39569 18.9074 9.04383L14.1074 4.84383C13.3608 4.19054 12.9875 3.86406 12.5674 3.73982C12.1972 3.63035 11.8026 3.63035 11.4324 3.73982C11.0126 3.86397 10.6398 4.19014 9.89436 4.84244L5.09277 9.04383C4.69064 9.39569 4.49004 9.57201 4.3457 9.78464C4.21779 9.97307 4.12255 10.1816 4.06497 10.4019C4 10.6506 4 10.9179 4 11.4522V17.0002C4 17.932 4 18.3978 4.15224 18.7654C4.35523 19.2554 4.74432 19.6452 5.23438 19.8482C5.60192 20.0005 6.06786 20.0005 6.99974 20.0005C7.93163 20.0005 8.39808 20.0005 8.76562 19.8482C9.25568 19.6452 9.64467 19.2555 9.84766 18.7654C9.9999 18.3979 10 17.932 10 17.0001V16.0001C10 14.8955 10.8954 14.0001 12 14.0001C13.1046 14.0001 14 14.8955 14 16.0001V17.0001C14 17.932 14 18.3979 14.1522 18.7654C14.3552 19.2555 14.7443 19.6452 15.2344 19.8482C15.6019 20.0005 16.0679 20.0005 16.9997 20.0005C17.9316 20.0005 18.3981 20.0005 18.7656 19.8482C19.2557 19.6452 19.6447 19.2554 19.8477 18.7654C19.9999 18.3978 20 17.932 20 17.0002Z"  stroke-width="2" stroke-linecap="round" stroke-linejoin="round"/>
</g>

    </svg>
  </g>
  <!-- Icon 6: Window_Close -->
  <g transform="translate(320, 20)">
    <rect width="48" height="48" fill="#1a1a1a" stroke="#333333" stroke-width="1" rx="4"/>
    <svg x="8" y="8" width="32" height="32" viewBox="0 0 24 24" style="stroke: #ffffff; fill: none; stroke-width: 2; stroke-linecap: round; stroke-linejoin: round;">
      
<g id="System / Window_Close">
<path id="Vector" d="M3 6H3.01919M3.01919 6H20.9809M3.01919 6C3 6.31438 3 6.70191 3 7.2002V16.8002C3 17.9203 3 18.4796 3.21799 18.9074C3.40973 19.2837 3.71547 19.5905 4.0918 19.7822C4.51921 20 5.079 20 6.19694 20L17.8031 20C18.921 20 19.48 20 19.9074 19.7822C20.2837 19.5905 20.5905 19.2837 20.7822 18.9074C21 18.48 21 17.921 21 16.8031L21 7.19691C21 6.70021 21 6.31368 20.9809 6M3.01919 6C3.04314 5.60768 3.09697 5.3293 3.21799 5.0918C3.40973 4.71547 3.71547 4.40973 4.0918 4.21799C4.51962 4 5.08009 4 6.2002 4H17.8002C18.9203 4 19.4796 4 19.9074 4.21799C20.2837 4.40973 20.5905 4.71547 20.7822 5.0918C20.9032 5.3293 20.957 5.60768 20.9809 6M20.9809 6H21M10 15L12 13M12 13L14 11M12 13L10 11M12 13L14 15"  stroke-width="2" stroke-linecap="round" stroke-linejoin="round"/>
</g>

    </svg>
  </g>
  <!-- Icon 7: Save -->
  <g transform="translate(380, 20)">
    <rect width="48" height="48" fill="#1a1a1a" stroke="#333333" stroke-width="1" rx="4"/>
    <svg x="8" y="8" width="32" height="32" viewBox="0 0 24 24" style="stroke: #ffffff; fill: none; stroke-width: 2; stroke-linecap: round; stroke-linejoin: round;">
      
<g id="System / Save">
<path id="Vector" d="M17 21.0002L7 21M17 21.0002L17.8031 21C18.921 21 19.48 21 19.9074 20.7822C20.2837 20.5905 20.5905 20.2843 20.7822 19.908C21 19.4806 21 18.921 21 17.8031V9.21955C21 8.77072 21 8.54521 20.9521 8.33105C20.9095 8.14 20.8393 7.95652 20.7432 7.78595C20.6366 7.59674 20.487 7.43055 20.1929 7.10378L17.4377 4.04241C17.0969 3.66374 16.9242 3.47181 16.7168 3.33398C16.5303 3.21 16.3242 3.11858 16.1073 3.06287C15.8625 3 15.5998 3 15.075 3H6.2002C5.08009 3 4.51962 3 4.0918 3.21799C3.71547 3.40973 3.40973 3.71547 3.21799 4.0918C3 4.51962 3 5.08009 3 6.2002V17.8002C3 18.9203 3 19.4796 3.21799 19.9074C3.40973 20.2837 3.71547 20.5905 4.0918 20.7822C4.5192 21 5.07899 21 6.19691 21H7M17 21.0002V17.1969C17 16.079 17 15.5192 16.7822 15.0918C16.5905 14.7155 16.2837 14.4097 15.9074 14.218C15.4796 14 14.9203 14 13.8002 14H10.2002C9.08009 14 8.51962 14 8.0918 14.218C7.71547 14.4097 7.40973 14.7155 7.21799 15.0918C7 15.5196 7 16.0801 7 17.2002V21M15 7H9"  stroke-width="2" stroke-linecap="round" stroke-linejoin="round"/>
</g>

    </svg>
  </g>
  <!-- Icon 8: Desktop_Tower -->
  <g transform="translate(20, 80)">
    <rect width="48" height="48" fill="#1a1a1a" stroke="#333333" stroke-width="1" rx="4"/>
    <svg x="8" y="8" width="32" height="32" viewBox="0 0 24 24" style="stroke: #ffffff; fill: none; stroke-width: 2; stroke-linecap: round; stroke-linejoin: round;">
      
<g id="System / Desktop_Tower">
<path id="Vector" d="M10 20H7M18 17H16M13.0002 9H6.2002C5.08009 9 4.51962 9 4.0918 9.21799C3.71547 9.40973 3.40973 9.71547 3.21799 10.0918C3 10.5196 3 11.0801 3 12.2002V13.8002C3 14.9203 3 15.4796 3.21799 15.9074C3.40973 16.2837 3.71547 16.5905 4.0918 16.7822C4.5192 17 5.07899 17 6.19691 17H13.0001M13.0002 9L13 16.8002C13 16.8689 13 16.9354 13.0001 17M13.0002 9L13 7.2002C13 6.08009 13 5.51962 13.218 5.0918C13.4097 4.71547 13.7155 4.40973 14.0918 4.21799C14.5196 4 15.0801 4 16.2002 4H17.8002C18.9203 4 19.4796 4 19.9074 4.21799C20.2837 4.40973 20.5905 4.71547 20.7822 5.0918C21 5.5192 21 6.07899 21 7.19691V16.8031C21 17.921 21 18.48 20.7822 18.9074C20.5905 19.2837 20.2837 19.5905 19.9074 19.7822C19.48 20 18.921 20 17.8031 20H16.1969C15.079 20 14.5192 20 14.0918 19.7822C13.7155 19.5905 13.4097 19.2837 13.218 18.9074C13.0134 18.5058 13.0008 17.9884 13.0001 17M17.002 7V7.002L17 7.00195V7H17.002Z"  stroke-width="2" stroke-linecap="round" stroke-linejoin="round"/>
</g>

    </svg>
  </g>
  <!-- Icon 9: Volume_Off -->
  <g transform="translate(80, 80)">
    <rect width="48" height="48" fill="#1a1a1a" stroke="#333333" stroke-width="1" rx="4"/>
    <svg x="8" y="8" width="32" height="32" viewBox="0 0 24 24" style="stroke: #ffffff; fill: none; stroke-width: 2; stroke-linecap: round; stroke-linejoin: round;">
      
<g id="Media / Volume_Off">
<path id="Vector" d="M16.1716 9.17117L21.8284 14.828M16.1716 14.828L21.8284 9.17117M7.4803 15.4065L9.15553 17.4796C10.0288 18.5603 10.4655 19.1006 10.848 19.1594C11.1792 19.2104 11.5138 19.092 11.7394 18.8443C12 18.5581 12 17.8634 12 16.4739V7.52526C12 6.13581 12 5.44109 11.7394 5.1549C11.5138 4.90715 11.1792 4.78884 10.848 4.83975C10.4655 4.89858 10.0288 5.43893 9.15553 6.51963L7.4803 8.59273C7.30388 8.81105 7.21567 8.92021 7.10652 8.99876C7.00982 9.06835 6.90147 9.1201 6.78656 9.15158C6.65687 9.1871 6.51652 9.1871 6.23583 9.1871H4.8125C4.0563 9.1871 3.6782 9.1871 3.37264 9.28804C2.77131 9.4867 2.2996 9.95841 2.10094 10.5597C2 10.8653 2 11.2434 2 11.9996C2 12.7558 2 13.1339 2.10094 13.4395C2.2996 14.0408 2.77131 14.5125 3.37264 14.7112C3.6782 14.8121 4.0563 14.8121 4.8125 14.8121H6.23583C6.51652 14.8121 6.65687 14.8121 6.78656 14.8476C6.90147 14.8791 7.00982 14.9308 7.10652 15.0004C7.21567 15.079 7.30388 15.1881 7.4803 15.4065Z"  stroke-width="2" stroke-linecap="round" stroke-linejoin="round"/>
</g>

    </svg>
  </g>
  <!-- Icon 10: Pause_Circle -->
  <g transform="translate(140, 80)">
    <rect width="48" height="48" fill="#1a1a1a" stroke="#333333" stroke-width="1" rx="4"/>
    <svg x="8" y="8" width="32" height="32" viewBox="0 0 24 24" style="stroke: #ffffff; fill: none; stroke-width: 2; stroke-linecap: round; stroke-linejoin: round;">
      
<g id="Media / Pause_Circle">
<path id="Vector" d="M14 9V15M10 9V15M12 21C7.02944 21 3 16.9706 3 12C3 7.02944 7.02944 3 12 3C16.9706 3 21 7.02944 21 12C21 16.9706 16.9706 21 12 21Z"  stroke-width="2" stroke-linecap="round" stroke-linejoin="round"/>
</g>

    </svg>
  </g>
  <!-- Icon 11: Folders -->
  <g transform="translate(200, 80)">
    <rect width="48" height="48" fill="#1a1a1a" stroke="#333333" stroke-width="1" rx="4"/>
    <svg x="8" y="8" width="32" height="32" viewBox="0 0 24 24" style="stroke: #ffffff; fill: none; stroke-width: 2; stroke-linecap: round; stroke-linejoin: round;">
      
<g id="File / Folders">
<path id="Vector" d="M3 11V19.4C3 19.9601 3 20.2396 3.10899 20.4535C3.20487 20.6417 3.35774 20.7952 3.5459 20.8911C3.7596 21 4.03901 21 4.59797 21L15.4014 21C15.9603 21 16.2408 21 16.4545 20.8911C16.6427 20.7952 16.7948 20.6421 16.8906 20.4539C16.9996 20.24 16.9996 19.96 16.9996 19.3999L17.0011 15.0006M3 11H10M3 11L3 10.6001C3 10.0401 3 9.75979 3.10899 9.5459C3.20486 9.35774 3.35774 9.20486 3.5459 9.10898C3.75977 9.00001 4.03975 9.00001 4.59961 9.00001L7 9M10 11H15.4C15.96 11 16.242 11 16.456 11.109C16.6441 11.2049 16.7948 11.3577 16.8906 11.5459C16.9996 11.7598 16.9996 12.0398 16.9996 12.5999L17.0011 15.0006M10 11L8.9248 9.61768C8.74861 9.39115 8.66017 9.27743 8.5498 9.1958C8.45201 9.12347 8.34303 9.06979 8.2259 9.037C8.09373 9.00001 7.9488 9.00001 7.66191 9.00001L7 9M7 5H19.4C19.9601 5 20.242 5 20.4559 5.10899C20.6441 5.20487 20.7948 5.35774 20.8906 5.5459C20.9996 5.75981 20.9996 6.03984 20.9996 6.59989V13.3999C20.9996 13.96 20.9996 14.24 20.8906 14.4539C20.7948 14.6421 20.6432 14.7952 20.4551 14.8911C20.2414 15 19.9613 15 19.4023 15L17.0011 15.0006M7 5V9M7 5L7 4.6001C7 4.04014 7 3.75979 7.10899 3.5459C7.20486 3.35774 7.35774 3.20487 7.5459 3.10899C7.75981 3 8.03956 3 8.59961 3H11.6615C11.9487 3 12.0913 3 12.2236 3.03701C12.3407 3.0698 12.452 3.12347 12.5498 3.1958C12.6602 3.27743 12.7486 3.39115 12.9248 3.61768L13.9999 4.99998"  stroke-width="2" stroke-linecap="round" stroke-linejoin="round"/>
</g>

    </svg>
  </g>
  <!-- Icon 12: Folder -->
  <g transform="translate(260, 80)">
    <rect width="48" height="48" fill="#1a1a1a" stroke="#333333" stroke-width="1" rx="4"/>
    <svg x="8" y="8" width="32" height="32" viewBox="0 0 24 24" style="stroke: #ffffff; fill: none; stroke-width: 2; stroke-linecap: round; stroke-linejoin: round;">
      
<g id="File / Folder">
<path id="Vector" d="M3 6V16.8C3 17.9201 3 18.4798 3.21799 18.9076C3.40973 19.2839 3.71547 19.5905 4.0918 19.7822C4.5192 20 5.07899 20 6.19691 20H17.8031C18.921 20 19.48 20 19.9074 19.7822C20.2837 19.5905 20.5905 19.2841 20.7822 18.9078C21.0002 18.48 21.0002 17.9199 21.0002 16.7998L21.0002 9.19978C21.0002 8.07967 21.0002 7.51962 20.7822 7.0918C20.5905 6.71547 20.2839 6.40973 19.9076 6.21799C19.4798 6 18.9201 6 17.8 6H12M3 6H12M3 6C3 4.89543 3.89543 4 5 4H8.67452C9.1637 4 9.40886 4 9.63904 4.05526C9.84311 4.10425 10.0379 4.18526 10.2168 4.29492C10.4186 4.41857 10.5918 4.59182 10.9375 4.9375L12 6"  stroke-width="2" stroke-linecap="round" stroke-linejoin="round"/>
</g>

    </svg>
  </g>
  <!-- Icon 13: File_Add -->
  <g transform="translate(320, 80)">
    <rect width="48" height="48" fill="#1a1a1a" stroke="#333333" stroke-width="1" rx="4"/>
    <svg x="8" y="8" width="32" height="32" viewBox="0 0 24 24" style="stroke: #ffffff; fill: none; stroke-width: 2; stroke-linecap: round; stroke-linejoin: round;">
      
<g id="File / File_Add">
<path id="Vector" d="M12 18V15M12 15V12M12 15H9M12 15H15M13 3.00087C12.9045 3 12.7973 3 12.6747 3H8.2002C7.08009 3 6.51962 3 6.0918 3.21799C5.71547 3.40973 5.40973 3.71547 5.21799 4.0918C5 4.51962 5 5.08009 5 6.2002V17.8002C5 18.9203 5 19.4801 5.21799 19.9079C5.40973 20.2842 5.71547 20.5905 6.0918 20.7822C6.51921 21 7.079 21 8.19694 21L15.8031 21C16.921 21 17.48 21 17.9074 20.7822C18.2837 20.5905 18.5905 20.2842 18.7822 19.9079C19 19.4805 19 18.9215 19 17.8036V9.32568C19 9.20296 19 9.09561 18.9991 9M13 3.00087C13.2856 3.00347 13.4663 3.01385 13.6388 3.05526C13.8429 3.10425 14.0379 3.18526 14.2168 3.29492C14.4186 3.41857 14.5918 3.59182 14.9375 3.9375L18.063 7.06298C18.4089 7.40889 18.5809 7.58136 18.7046 7.78319C18.8142 7.96214 18.8953 8.15726 18.9443 8.36133C18.9857 8.53376 18.9963 8.71451 18.9991 9M13 3.00087V5.8C13 6.9201 13 7.47977 13.218 7.90759C13.4097 8.28392 13.7155 8.59048 14.0918 8.78223C14.5192 9 15.079 9 16.1969 9H18.9991M18.9991 9H19.0002"  stroke-width="2" stroke-linecap="round" stroke-linejoin="round"/>
</g>

    </svg>
  </g>
  <!-- Icon 14: Sun -->
  <g transform="translate(380, 80)">
    <rect width="48" height="48" fill="#1a1a1a" stroke="#333333" stroke-width="1" rx="4"/>
    <svg x="8" y="8" width="32" height="32" viewBox="0 0 24 24" style="stroke: #ffffff; fill: none; stroke-width: 2; stroke-linecap: round; stroke-linejoin: round;">
      
<g id="Environment / Sun">
<path id="Vector" d="M12 4V2M12 20V22M6.41421 6.41421L5 5M17.728 17.728L19.1422 19.1422M4 12H2M20 12H22M17.7285 6.41421L19.1427 5M6.4147 17.728L5.00049 19.1422M12 17C9.23858 17 7 14.7614 7 12C7 9.23858 9.23858 7 12 7C14.7614 7 17 9.23858 17 12C17 14.7614 14.7614 17 12 17Z"  stroke-width="2" stroke-linecap="round" stroke-linejoin="round"/>
</g>

    </svg>
  </g>
  <!-- Icon 15: Trending_Up -->
  <g transform="translate(20, 140)">
    <rect width="48" height="48" fill="#1a1a1a" stroke="#333333" stroke-width="1" rx="4"/>
    <svg x="8" y="8" width="32" height="32" viewBox="0 0 24 24" style="stroke: #ffffff; fill: none; stroke-width: 2; stroke-linecap: round; stroke-linejoin: round;">
      
<g id="Interface / Trending_Up">
<path id="Vector" d="M20.0005 7L14.1543 12.9375C14.0493 13.0441 13.9962 13.0976 13.9492 13.1396C13.1899 13.8193 12.0416 13.8193 11.2822 13.1396C11.2352 13.0976 11.1817 13.0442 11.0767 12.9375C10.9716 12.8308 10.9191 12.7774 10.8721 12.7354C10.1127 12.0557 8.96397 12.0557 8.20461 12.7354C8.15771 12.7773 8.10532 12.8305 8.00078 12.9367L4 17M20.0005 7L20 13M20.0005 7H14"  stroke-width="2" stroke-linecap="round" stroke-linejoin="round"/>
</g>

    </svg>
  </g>
  <!-- Icon 16: Slider_01 -->
  <g transform="translate(80, 140)">
    <rect width="48" height="48" fill="#1a1a1a" stroke="#333333" stroke-width="1" rx="4"/>
    <svg x="8" y="8" width="32" height="32" viewBox="0 0 24 24" style="stroke: #ffffff; fill: none; stroke-width: 2; stroke-linecap: round; stroke-linejoin: round;">
      
<g id="Interface / Slider_01">
<path id="Vector" d="M14 15H21M3 15H5M5 15C5 16.3807 6.11929 17.5 7.5 17.5C8.88071 17.5 10 16.3807 10 15C10 13.6193 8.88071 12.5 7.5 12.5C6.11929 12.5 5 13.6193 5 15ZM20 9H21M3 9H10M16.5 11.5C15.1193 11.5 14 10.3807 14 9C14 7.61929 15.1193 6.5 16.5 6.5C17.8807 6.5 19 7.61929 19 9C19 10.3807 17.8807 11.5 16.5 11.5Z"  stroke-width="2" stroke-linecap="round" stroke-linejoin="round"/>
</g>

    </svg>
  </g>
  <!-- Icon 17: Magnifying_Glass_Plus -->
  <g transform="translate(140, 140)">
    <rect width="48" height="48" fill="#1a1a1a" stroke="#333333" stroke-width="1" rx="4"/>
    <svg x="8" y="8" width="32" height="32" viewBox="0 0 24 24" style="stroke: #ffffff; fill: none; stroke-width: 2; stroke-linecap: round; stroke-linejoin: round;">
      
<g id="Interface / Magnifying_Glass_Plus">
<path id="Vector" d="M7 10H10M10 10H13M10 10V7M10 10V13M15 15L21 21M10 17C6.13401 17 3 13.866 3 10C3 6.13401 6.13401 3 10 3C13.866 3 17 6.13401 17 10C17 13.866 13.866 17 10 17Z"  stroke-width="2" stroke-linecap="round" stroke-linejoin="round"/>
</g>

    </svg>
  </g>
  <!-- Icon 18: Line_S -->
  <g transform="translate(200, 140)">
    <rect width="48" height="48" fill="#1a1a1a" stroke="#333333" stroke-width="1" rx="4"/>
    <svg x="8" y="8" width="32" height="32" viewBox="0 0 24 24" style="stroke: #ffffff; fill: none; stroke-width: 2; stroke-linecap: round; stroke-linejoin: round;">
      
<g id="Interface / Line_S">
<path id="Vector" d="M12 15V9"  stroke-width="2" stroke-linecap="round" stroke-linejoin="round"/>
</g>

    </svg>
  </g>
  <!-- Icon 19: Exit -->
  <g transform="translate(260, 140)">
    <rect width="48" height="48" fill="#1a1a1a" stroke="#333333" stroke-width="1" rx="4"/>
    <svg x="8" y="8" width="32" height="32" viewBox="0 0 24 24" style="stroke: #ffffff; fill: none; stroke-width: 2; stroke-linecap: round; stroke-linejoin: round;">
      
<g id="Interface / Exit">
<path id="Vector" d="M12 15L15 12M15 12L12 9M15 12H4M4 7.24802V7.2002C4 6.08009 4 5.51962 4.21799 5.0918C4.40973 4.71547 4.71547 4.40973 5.0918 4.21799C5.51962 4 6.08009 4 7.2002 4H16.8002C17.9203 4 18.4796 4 18.9074 4.21799C19.2837 4.40973 19.5905 4.71547 19.7822 5.0918C20 5.5192 20 6.07899 20 7.19691V16.8036C20 17.9215 20 18.4805 19.7822 18.9079C19.5905 19.2842 19.2837 19.5905 18.9074 19.7822C18.48 20 17.921 20 16.8031 20H7.19691C6.07899 20 5.5192 20 5.0918 19.7822C4.71547 19.5905 4.40973 19.2839 4.21799 18.9076C4 18.4798 4 17.9201 4 16.8V16.75"  stroke-width="2" stroke-linecap="round" stroke-linejoin="round"/>
</g>

    </svg>
  </g>
  <!-- Icon 20: Checkbox_Fill -->
  <g transform="translate(320, 140)">
    <rect width="48" height="48" fill="#1a1a1a" stroke="#333333" stroke-width="1" rx="4"/>
    <svg x="8" y="8" width="32" height="32" viewBox="0 0 24 24" style="stroke: #ffffff; fill: none; stroke-width: 2; stroke-linecap: round; stroke-linejoin: round;">
      
<g id="Interface / Checkbox_Fill">
<g id="Vector">
<path d="M4 7.2002V16.8002C4 17.9203 4 18.4801 4.21799 18.9079C4.40973 19.2842 4.71547 19.5905 5.0918 19.7822C5.5192 20 6.07899 20 7.19691 20H16.8031C17.921 20 18.48 20 18.9074 19.7822C19.2837 19.5905 19.5905 19.2842 19.7822 18.9079C20 18.4805 20 17.9215 20 16.8036V7.19691C20 6.07899 20 5.5192 19.7822 5.0918C19.5905 4.71547 19.2837 4.40973 18.9074 4.21799C18.4796 4 17.9203 4 16.8002 4H7.2002C6.08009 4 5.51962 4 5.0918 4.21799C4.71547 4.40973 4.40973 4.71547 4.21799 5.0918C4 5.51962 4 6.08009 4 7.2002Z"  stroke-width="2" stroke-linecap="round" stroke-linejoin="round"/>
<path d="M15 13.4001V10.6001C15 10.04 14.9996 9.75981 14.8906 9.5459C14.7948 9.35774 14.6423 9.20487 14.4542 9.10899C14.2403 9 13.9597 9 13.3996 9H10.5996C10.0396 9 9.75981 9 9.5459 9.10899C9.35774 9.20487 9.20487 9.35774 9.10899 9.5459C9 9.75981 9 10.04 9 10.6001V13.4001C9 13.9601 9 14.2398 9.10899 14.4537C9.20487 14.6419 9.35774 14.7952 9.5459 14.8911C9.7596 15 10.039 15 10.598 15H13.4011C13.96 15 14.2405 15 14.4542 14.8911C14.6423 14.7952 14.7948 14.6419 14.8906 14.4537C14.9996 14.2398 15 13.9601 15 13.4001Z"  stroke-width="2" stroke-linecap="round" stroke-linejoin="round"/>
</g>
</g>

    </svg>
  </g>
  <!-- Icon 21: Book -->
  <g transform="translate(380, 140)">
    <rect width="48" height="48" fill="#1a1a1a" stroke="#333333" stroke-width="1" rx="4"/>
    <svg x="8" y="8" width="32" height="32" viewBox="0 0 24 24" style="stroke: #ffffff; fill: none; stroke-width: 2; stroke-linecap: round; stroke-linejoin: round;">
      
<g id="Interface / Book">
<path id="Vector" d="M5 19.5002V6.2002C5 5.08009 5 4.51962 5.21799 4.0918C5.40973 3.71547 5.71547 3.40973 6.0918 3.21799C6.51962 3 7.08009 3 8.2002 3H17.4002C17.9602 3 18.2407 3 18.4546 3.10899C18.6427 3.20487 18.7948 3.35774 18.8906 3.5459C18.9996 3.75981 19 4.04005 19 4.6001V16.4001C19 16.9601 18.9996 17.2398 18.8906 17.4537C18.7948 17.6419 18.6429 17.7952 18.4548 17.8911C18.2411 18 17.961 18 17.402 18H7.25C6.00736 18 5 19.0074 5 20.25C5 20.6642 5.33579 21 5.75 21H16.402C16.961 21 17.2411 21 17.4548 20.8911C17.6429 20.7952 17.7948 20.642 17.8906 20.4538C17.9996 20.2399 18 19.9601 18 19.4V18"  stroke-width="2" stroke-linecap="round" stroke-linejoin="round"/>
</g>

    </svg>
  </g>
  <!-- Icon 22: Calendar_Add -->
  <g transform="translate(20, 200)">
    <rect width="48" height="48" fill="#1a1a1a" stroke="#333333" stroke-width="1" rx="4"/>
    <svg x="8" y="8" width="32" height="32" viewBox="0 0 24 24" style="stroke: #ffffff; fill: none; stroke-width: 2; stroke-linecap: round; stroke-linejoin: round;">
      
<g id="Calendar / Calendar_Add">
<path id="Vector" d="M4 8H20M4 8V16.8002C4 17.9203 4 18.4801 4.21799 18.9079C4.40973 19.2842 4.71547 19.5905 5.0918 19.7822C5.5192 20 6.07899 20 7.19691 20H16.8036C17.9215 20 18.4805 20 18.9079 19.7822C19.2842 19.5905 19.5905 19.2842 19.7822 18.9079C20 18.4805 20 17.9215 20 16.8036V8M4 8V7.2002C4 6.08009 4 5.51962 4.21799 5.0918C4.40973 4.71547 4.71547 4.40973 5.0918 4.21799C5.51962 4 6.08009 4 7.2002 4H8M20 8V7.19691C20 6.07899 20 5.5192 19.7822 5.0918C19.5905 4.71547 19.2842 4.40973 18.9079 4.21799C18.4801 4 17.9203 4 16.8002 4H16M8 4H16M8 4V2M16 4V2M14.5 14H12M12 14H9.5M12 14V11.5M12 14V16.5"  stroke-width="2" stroke-linecap="round" stroke-linejoin="round"/>
</g>

    </svg>
  </g>
  <!-- Icon 23: Chat_Conversation -->
  <g transform="translate(80, 200)">
    <rect width="48" height="48" fill="#1a1a1a" stroke="#333333" stroke-width="1" rx="4"/>
    <svg x="8" y="8" width="32" height="32" viewBox="0 0 24 24" style="stroke: #ffffff; fill: none; stroke-width: 2; stroke-linecap: round; stroke-linejoin: round;">
      
<g id="Communication / Chat_Conversation">
<path id="Vector" d="M16 8H20C20.5523 8 21 8.44772 21 9V20L17.667 17.231C17.4875 17.0818 17.2608 17 17.0273 17H9C8.44771 17 8 16.5523 8 16V13M16 8V5C16 4.44772 15.5523 4 15 4H4C3.44772 4 3 4.44772 3 5V16.0003L6.33301 13.2308C6.51255 13.0817 6.73924 13 6.97266 13H8M16 8V12C16 12.5523 15.5523 13 15 13H8"  stroke-width="2" stroke-linecap="round" stroke-linejoin="round"/>
</g>

    </svg>
  </g>
  <!-- Icon 24: Bell_Remove -->
  <g transform="translate(140, 200)">
    <rect width="48" height="48" fill="#1a1a1a" stroke="#333333" stroke-width="1" rx="4"/>
    <svg x="8" y="8" width="32" height="32" viewBox="0 0 24 24" style="stroke: #ffffff; fill: none; stroke-width: 2; stroke-linecap: round; stroke-linejoin: round;">
      
<g id="Communication / Bell_Remove">
<path id="Vector" d="M15 17V18C15 19.6569 13.6569 21 12 21C10.3431 21 9 19.6569 9 18V17M15 17H9M15 17H18.5905C18.973 17 19.1652 17 19.3201 16.9478C19.616 16.848 19.8475 16.6156 19.9473 16.3198C19.9997 16.1643 19.9997 15.9715 19.9997 15.5859C19.9997 15.4172 19.9995 15.3329 19.9863 15.2524C19.9614 15.1004 19.9024 14.9563 19.8126 14.8312C19.7651 14.7651 19.7048 14.7048 19.5858 14.5858L19.1963 14.1963C19.0706 14.0706 19 13.9001 19 13.7224V10C19 6.134 15.866 2.99999 12 3C8.13401 3.00001 5 6.13401 5 10V13.7224C5 13.9002 4.92924 14.0706 4.80357 14.1963L4.41406 14.5858C4.29476 14.7051 4.23504 14.765 4.1875 14.8312C4.09766 14.9564 4.03815 15.1004 4.0132 15.2524C4 15.3329 4 15.4172 4 15.586C4 15.9715 4 16.1642 4.05245 16.3197C4.15225 16.6156 4.3848 16.848 4.68066 16.9478C4.83556 17 5.02701 17 5.40956 17H9M9 10H15"  stroke-width="2" stroke-linecap="round" stroke-linejoin="round"/>
</g>

    </svg>
  </g>
  <!-- Icon 25: Menu_Alt_05 -->
  <g transform="translate(200, 200)">
    <rect width="48" height="48" fill="#1a1a1a" stroke="#333333" stroke-width="1" rx="4"/>
    <svg x="8" y="8" width="32" height="32" viewBox="0 0 24 24" style="stroke: #ffffff; fill: none; stroke-width: 2; stroke-linecap: round; stroke-linejoin: round;">
      
<g id="Menu / Menu_Alt_05">
<path id="Vector" d="M5 17H13M5 12H19M11 7H19"  stroke-width="2" stroke-linecap="round" stroke-linejoin="round"/>
</g>

    </svg>
  </g>
  <!-- Icon 26: Text_Align_Right -->
  <g transform="translate(260, 200)">
    <rect width="48" height="48" fill="#1a1a1a" stroke="#333333" stroke-width="1" rx="4"/>
    <svg x="8" y="8" width="32" height="32" viewBox="0 0 24 24" style="stroke: #ffffff; fill: none; stroke-width: 2; stroke-linecap: round; stroke-linejoin: round;">
      
<g id="Edit / Text_Align_Right">
<path id="Vector" d="M20 18H10M20 14H4M20 10H10M20 6H4"  stroke-width="2" stroke-linecap="round" stroke-linejoin="round"/>
</g>

    </svg>
  </g>
  <!-- Icon 27: Single_Quotes_R -->
  <g transform="translate(320, 200)">
    <rect width="48" height="48" fill="#1a1a1a" stroke="#333333" stroke-width="1" rx="4"/>
    <svg x="8" y="8" width="32" height="32" viewBox="0 0 24 24" style="stroke: #ffffff; fill: none; stroke-width: 2; stroke-linecap: round; stroke-linejoin: round;">
      
<g id="Edit / Single_Quotes_R">
<path id="Vector" d="M12 17C13.6569 17 15 15.6569 15 14V12M15 12V8.59846C15 8.0395 15 7.7596 14.8911 7.5459C14.7952 7.35774 14.6419 7.20487 14.4537 7.10899C14.2398 7 13.9602 7 13.4001 7H11.6001C11.04 7 10.7598 7 10.5459 7.10899C10.3577 7.20487 10.2049 7.35774 10.109 7.5459C10 7.75981 10 8.04005 10 8.6001V10.4001C10 10.9602 10 11.2398 10.109 11.4537C10.2049 11.6419 10.3577 11.7952 10.5459 11.8911C10.7596 12 11.0395 12 11.5985 12H15Z"  stroke-width="2" stroke-linecap="round" stroke-linejoin="round"/>
</g>

    </svg>
  </g>
  <!-- Icon 28: Paperclip_Attechment_Horizontal -->
  <g transform="translate(380, 200)">
    <rect width="48" height="48" fill="#1a1a1a" stroke="#333333" stroke-width="1" rx="4"/>
    <svg x="8" y="8" width="32" height="32" viewBox="0 0 24 24" style="stroke: #ffffff; fill: none; stroke-width: 2; stroke-linecap: round; stroke-linejoin: round;">
      
<g id="Edit / Paperclip_Attechment_Horizontal">
<path id="Vector" d="M7 6H16.75C19.6495 6 22 8.35051 22 11.25C22 14.1495 19.6495 16.5 16.75 16.5H5.5C3.567 16.5 2 14.933 2 13C2 11.067 3.567 9.5 5.5 9.5H16.75C17.7165 9.5 18.5 10.2835 18.5 11.25C18.5 12.2165 17.7165 13 16.75 13H7"  stroke-width="2" stroke-linecap="round" stroke-linejoin="round"/>
</g>

    </svg>
  </g>
  <!-- Icon 29: Layer -->
  <g transform="translate(20, 260)">
    <rect width="48" height="48" fill="#1a1a1a" stroke="#333333" stroke-width="1" rx="4"/>
    <svg x="8" y="8" width="32" height="32" viewBox="0 0 24 24" style="stroke: #ffffff; fill: none; stroke-width: 2; stroke-linecap: round; stroke-linejoin: round;">
      
<g id="Edit / Layer">
<path id="Vector" d="M21 14L12 20L3 14M21 10L12 16L3 10L12 4L21 10Z"  stroke-width="2" stroke-linecap="round" stroke-linejoin="round"/>
</g>

    </svg>
  </g>
  <!-- Icon 30: Edit_Pencil_Line_02 -->
  <g transform="translate(80, 260)">
    <rect width="48" height="48" fill="#1a1a1a" stroke="#333333" stroke-width="1" rx="4"/>
    <svg x="8" y="8" width="32" height="32" viewBox="0 0 24 24" style="stroke: #ffffff; fill: none; stroke-width: 2; stroke-linecap: round; stroke-linejoin: round;">
      
<g id="Edit / Edit_Pencil_Line_02">
<path id="Vector" d="M4 20.0001H20M4 20.0001V16.0001L14.8686 5.13146L14.8704 5.12976C15.2652 4.73488 15.463 4.53709 15.691 4.46301C15.8919 4.39775 16.1082 4.39775 16.3091 4.46301C16.5369 4.53704 16.7345 4.7346 17.1288 5.12892L18.8686 6.86872C19.2646 7.26474 19.4627 7.46284 19.5369 7.69117C19.6022 7.89201 19.6021 8.10835 19.5369 8.3092C19.4628 8.53736 19.265 8.73516 18.8695 9.13061L18.8686 9.13146L8 20.0001L4 20.0001Z"  stroke-width="2" stroke-linecap="round" stroke-linejoin="round"/>
</g>

    </svg>
  </g>
  <!-- Icon 31: Close_Square -->
  <g transform="translate(140, 260)">
    <rect width="48" height="48" fill="#1a1a1a" stroke="#333333" stroke-width="1" rx="4"/>
    <svg x="8" y="8" width="32" height="32" viewBox="0 0 24 24" style="stroke: #ffffff; fill: none; stroke-width: 2; stroke-linecap: round; stroke-linejoin: round;">
      
<g id="Edit / Close_Square">
<path id="Vector" d="M9 9L11.9999 11.9999M11.9999 11.9999L14.9999 14.9999M11.9999 11.9999L9 14.9999M11.9999 11.9999L14.9999 9M4 16.8002V7.2002C4 6.08009 4 5.51962 4.21799 5.0918C4.40973 4.71547 4.71547 4.40973 5.0918 4.21799C5.51962 4 6.08009 4 7.2002 4H16.8002C17.9203 4 18.4801 4 18.9079 4.21799C19.2842 4.40973 19.5905 4.71547 19.7822 5.0918C20.0002 5.51962 20.0002 6.07967 20.0002 7.19978V16.7998C20.0002 17.9199 20.0002 18.48 19.7822 18.9078C19.5905 19.2841 19.2842 19.5905 18.9079 19.7822C18.4805 20 17.9215 20 16.8036 20H7.19691C6.07899 20 5.5192 20 5.0918 19.7822C4.71547 19.5905 4.40973 19.2842 4.21799 18.9079C4 18.4801 4 17.9203 4 16.8002Z"  stroke-width="2" stroke-linecap="round" stroke-linejoin="round"/>
</g>

    </svg>
  </g>
  <!-- Icon 32: Shrink -->
  <g transform="translate(200, 260)">
    <rect width="48" height="48" fill="#1a1a1a" stroke="#333333" stroke-width="1" rx="4"/>
    <svg x="8" y="8" width="32" height="32" viewBox="0 0 24 24" style="stroke: #ffffff; fill: none; stroke-width: 2; stroke-linecap: round; stroke-linejoin: round;">
      
<g id="Arrow / Shrink">
<path id="Vector" d="M5 14H10V19M19 10H14V5"  stroke-width="2" stroke-linecap="round" stroke-linejoin="round"/>
</g>

    </svg>
  </g>
  <!-- Icon 33: Caret_Up_SM -->
  <g transform="translate(260, 260)">
    <rect width="48" height="48" fill="#1a1a1a" stroke="#333333" stroke-width="1" rx="4"/>
    <svg x="8" y="8" width="32" height="32" viewBox="0 0 24 24" style="stroke: #ffffff; fill: none; stroke-width: 2; stroke-linecap: round; stroke-linejoin: round;">
      
<g id="Arrow / Caret_Up_SM">
<path id="Vector" d="M9 13L12 10L15 13"  stroke-width="2" stroke-linecap="round" stroke-linejoin="round"/>
</g>

    </svg>
  </g>
  <!-- Icon 34: Arrow_Up_Right_SM -->
  <g transform="translate(320, 260)">
    <rect width="48" height="48" fill="#1a1a1a" stroke="#333333" stroke-width="1" rx="4"/>
    <svg x="8" y="8" width="32" height="32" viewBox="0 0 24 24" style="stroke: #ffffff; fill: none; stroke-width: 2; stroke-linecap: round; stroke-linejoin: round;">
      
<g id="Arrow / Arrow_Up_Right_SM">
<path id="Vector" d="M8 16L16 8M16 8H10M16 8V14"  stroke-width="2" stroke-linecap="round" stroke-linejoin="round"/>
</g>

    </svg>
  </g>
  <!-- Icon 35: Arrow_Sub_Up_Right -->
  <g transform="translate(380, 260)">
    <rect width="48" height="48" fill="#1a1a1a" stroke="#333333" stroke-width="1" rx="4"/>
    <svg x="8" y="8" width="32" height="32" viewBox="0 0 24 24" style="stroke: #ffffff; fill: none; stroke-width: 2; stroke-linecap: round; stroke-linejoin: round;">
      
<g id="Arrow / Arrow_Sub_Up_Right">
<path id="Vector" d="M13 13L18 8M18 8L13 3M18 8H10.2002C9.08009 8 8.51962 8 8.0918 8.21799C7.71547 8.40973 7.40973 8.71547 7.21799 9.0918C7 9.51962 7 10.0801 7 11.2002V21.0002"  stroke-width="2" stroke-linecap="round" stroke-linejoin="round"/>
</g>

    </svg>
  </g>

  <!-- Title Background -->
  <rect x="0" y="323" width="448" height="60" fill="#1a1a1a"/>
  
  <!-- Title -->
  <text x="20" y="348" text-anchor="start" font-family="system-ui, -apple-system, sans-serif" font-size="18" font-weight="bold" fill="#ffffff">coolicons</text>

</svg>