<svg width="800" height="600" xmlns="http://www.w3.org/2000/svg">
  <!-- Background -->
  <rect width="800" height="600" fill="#ffffff"/>
  
  <!-- Header Background -->
  <rect width="800" height="80" fill="#f8f9fa"/>
  
  <!-- Title -->
  <text x="400" y="30" text-anchor="middle" font-family="system-ui, -apple-system, sans-serif" font-size="20" font-weight="bold" fill="#212529">coolicons</text>
  
  <!-- Subtitle -->
  <text x="400" y="55" text-anchor="middle" font-family="system-ui, -apple-system, sans-serif" font-size="14" fill="#6c757d">442 icons</text>
  
  <!-- Icon Grid -->
  <!-- Icon 1: Users_Group -->
  <g transform="translate(196, 92)">
    <rect width="48" height="48" fill="#ffffff" stroke="#e9ecef" stroke-width="1" rx="4"/>
    <svg x="8" y="8" width="32" height="32" viewBox="0 0 24 24">
      
<g id="User / Users_Group">
<path id="Vector" d="M17 20C17 18.3431 14.7614 17 12 17C9.23858 17 7 18.3431 7 20M21 17.0004C21 15.7702 19.7659 14.7129 18 14.25M3 17.0004C3 15.7702 4.2341 14.7129 6 14.25M18 10.2361C18.6137 9.68679 19 8.8885 19 8C19 6.34315 17.6569 5 16 5C15.2316 5 14.5308 5.28885 14 5.76389M6 10.2361C5.38625 9.68679 5 8.8885 5 8C5 6.34315 6.34315 5 8 5C8.76835 5 9.46924 5.28885 10 5.76389M12 14C10.3431 14 9 12.6569 9 11C9 9.34315 10.3431 8 12 8C13.6569 8 15 9.34315 15 11C15 12.6569 13.6569 14 12 14Z" stroke="#2563eb" stroke-width="2" stroke-linecap="round" stroke-linejoin="round"/>
</g>

    </svg>
  </g>
  <!-- Icon 2: User_01 -->
  <g transform="translate(256, 92)">
    <rect width="48" height="48" fill="#ffffff" stroke="#e9ecef" stroke-width="1" rx="4"/>
    <svg x="8" y="8" width="32" height="32" viewBox="0 0 24 24">
      
<g id="User / User_01">
<path id="Vector" d="M19 21C19 17.134 15.866 14 12 14C8.13401 14 5 17.134 5 21M12 11C9.79086 11 8 9.20914 8 7C8 4.79086 9.79086 3 12 3C14.2091 3 16 4.79086 16 7C16 9.20914 14.2091 11 12 11Z" stroke="#2563eb" stroke-width="2" stroke-linecap="round" stroke-linejoin="round"/>
</g>

    </svg>
  </g>
  <!-- Icon 3: Wifi_High -->
  <g transform="translate(316, 92)">
    <rect width="48" height="48" fill="#ffffff" stroke="#e9ecef" stroke-width="1" rx="4"/>
    <svg x="8" y="8" width="32" height="32" viewBox="0 0 24 24">
      
<g id="System / Wifi_High">
<path id="Vector" d="M8.34277 14.5899C8.80861 14.0903 9.37187 13.6915 9.9978 13.418C10.6237 13.1446 11.2995 13.0025 11.9826 13.0001C12.6656 12.9977 13.3419 13.1353 13.9697 13.4044C14.5975 13.6735 15.1637 14.0683 15.633 14.5646M6.14941 11.5439C6.89476 10.7446 7.79597 10.1066 8.79745 9.66902C9.79893 9.23148 10.8793 9.00389 11.9721 9.00007C13.065 8.99626 14.1466 9.21651 15.1511 9.64704C16.1556 10.0776 17.0617 10.7094 17.8127 11.5035M3.22363 8.81635C4.34165 7.61742 5.69347 6.66028 7.19569 6.00398C8.69791 5.34768 10.3179 5.0058 11.9572 5.00007C13.5966 4.99435 15.2208 5.32472 16.7276 5.97052C18.2344 6.61632 19.5931 7.56458 20.7195 8.75568M12 19.0001C11.4477 19.0001 11 18.5524 11 18.0001C11 17.4478 11.4477 17.0001 12 17.0001C12.5523 17.0001 13 17.4478 13 18.0001C13 18.5524 12.5523 19.0001 12 19.0001Z" stroke="#2563eb" stroke-width="2" stroke-linecap="round" stroke-linejoin="round"/>
</g>

    </svg>
  </g>
  <!-- Icon 4: Mobile -->
  <g transform="translate(376, 92)">
    <rect width="48" height="48" fill="#ffffff" stroke="#e9ecef" stroke-width="1" rx="4"/>
    <svg x="8" y="8" width="32" height="32" viewBox="0 0 24 24">
      
<g id="System / Mobile">
<path id="Vector" d="M7 6.2002V17.8002C7 18.9203 7 19.4796 7.21799 19.9074C7.40973 20.2837 7.71547 20.5905 8.0918 20.7822C8.5192 21 9.07899 21 10.1969 21H13.8031C14.921 21 15.48 21 15.9074 20.7822C16.2837 20.5905 16.5905 20.2837 16.7822 19.9074C17 19.48 17 18.921 17 17.8031V6.19691C17 5.07899 17 4.5192 16.7822 4.0918C16.5905 3.71547 16.2837 3.40973 15.9074 3.21799C15.4796 3 14.9203 3 13.8002 3H10.2002C9.08009 3 8.51962 3 8.0918 3.21799C7.71547 3.40973 7.40973 3.71547 7.21799 4.0918C7 4.51962 7 5.08009 7 6.2002Z" stroke="#2563eb" stroke-width="2" stroke-linecap="round" stroke-linejoin="round"/>
</g>

    </svg>
  </g>
  <!-- Icon 5: Bar_Left -->
  <g transform="translate(436, 92)">
    <rect width="48" height="48" fill="#ffffff" stroke="#e9ecef" stroke-width="1" rx="4"/>
    <svg x="8" y="8" width="32" height="32" viewBox="0 0 24 24">
      
<g id="System / Bar_Left">
<path id="Vector" d="M9 20V4M9 20H16.8031C17.921 20 18.48 20 18.9074 19.7822C19.2837 19.5905 19.5905 19.2837 19.7822 18.9074C20 18.48 20 17.921 20 16.8031V7.19691C20 6.07899 20 5.5192 19.7822 5.0918C19.5905 4.71547 19.2837 4.40973 18.9074 4.21799C18.4796 4 17.9203 4 16.8002 4H9M9 20H7.19692C6.07901 20 5.5192 20 5.0918 19.7822C4.71547 19.5905 4.40973 19.2837 4.21799 18.9074C4 18.4796 4 17.9203 4 16.8002V7.2002C4 6.08009 4 5.51962 4.21799 5.0918C4.40973 4.71547 4.71547 4.40973 5.0918 4.21799C5.51962 4 6.08009 4 7.2002 4H9" stroke="#2563eb" stroke-width="2" stroke-linecap="round" stroke-linejoin="round"/>
</g>

    </svg>
  </g>
  <!-- Icon 6: Triangle_Warning -->
  <g transform="translate(496, 92)">
    <rect width="48" height="48" fill="#ffffff" stroke="#e9ecef" stroke-width="1" rx="4"/>
    <svg x="8" y="8" width="32" height="32" viewBox="0 0 24 24">
      
<g id="Warning / Triangle_Warning">
<path id="Vector" d="M12 9.00006V13.0001M4.37891 15.1999C3.46947 16.775 3.01489 17.5629 3.08281 18.2092C3.14206 18.7729 3.43792 19.2851 3.89648 19.6182C4.42204 20.0001 5.3309 20.0001 7.14853 20.0001H16.8515C18.6691 20.0001 19.5778 20.0001 20.1034 19.6182C20.5619 19.2851 20.8579 18.7729 20.9172 18.2092C20.9851 17.5629 20.5307 16.775 19.6212 15.1999L14.7715 6.79986C13.8621 5.22468 13.4071 4.43722 12.8135 4.17291C12.2957 3.94236 11.704 3.94236 11.1862 4.17291C10.5928 4.43711 10.1381 5.22458 9.22946 6.79845L4.37891 15.1999ZM12.0508 16.0001V16.1001L11.9502 16.1003V16.0001H12.0508Z" stroke="#2563eb" stroke-width="2" stroke-linecap="round" stroke-linejoin="round"/>
</g>

    </svg>
  </g>
  <!-- Icon 7: Help -->
  <g transform="translate(556, 92)">
    <rect width="48" height="48" fill="#ffffff" stroke="#e9ecef" stroke-width="1" rx="4"/>
    <svg x="8" y="8" width="32" height="32" viewBox="0 0 24 24">
      
<g id="Warning / Help">
<path id="Vector" d="M8.19531 8.76498C8.42304 8.06326 8.84053 7.43829 9.40137 6.95899C9.96221 6.47968 10.6444 6.16501 11.373 6.0494C12.1017 5.9338 12.8486 6.02202 13.5303 6.3042C14.2119 6.58637 14.8016 7.05166 15.2354 7.64844C15.6691 8.24521 15.9295 8.95008 15.9875 9.68554C16.0455 10.421 15.8985 11.1581 15.5636 11.8154C15.2287 12.4728 14.7192 13.0251 14.0901 13.4106C13.4611 13.7961 12.7377 14.0002 12 14.0002V14.9998M12.0498 19V19.1L11.9502 19.1002V19H12.0498Z" stroke="#2563eb" stroke-width="2" stroke-linecap="round" stroke-linejoin="round"/>
</g>

    </svg>
  </g>
  <!-- Icon 8: House_02 -->
  <g transform="translate(196, 152)">
    <rect width="48" height="48" fill="#ffffff" stroke="#e9ecef" stroke-width="1" rx="4"/>
    <svg x="8" y="8" width="32" height="32" viewBox="0 0 24 24">
      
<g id="Navigation / House_02">
<path id="Vector" d="M4 11.4522V16.8002C4 17.9203 4 18.4807 4.21799 18.9086C4.40973 19.2849 4.71547 19.5906 5.0918 19.7823C5.5192 20.0001 6.07899 20.0001 7.19691 20.0001H16.8031C17.921 20.0001 18.48 20.0001 18.9074 19.7823C19.2837 19.5906 19.5905 19.2849 19.7822 18.9086C20 18.4811 20 17.9216 20 16.8037V11.4522C20 10.9179 19.9995 10.6506 19.9346 10.4019C19.877 10.1816 19.7825 9.97307 19.6546 9.78464C19.5102 9.57201 19.3096 9.39569 18.9074 9.04383L14.1074 4.84383C13.3608 4.19054 12.9875 3.86406 12.5674 3.73982C12.1972 3.63035 11.8026 3.63035 11.4324 3.73982C11.0126 3.86397 10.6398 4.19014 9.89436 4.84244L5.09277 9.04383C4.69064 9.39569 4.49004 9.57201 4.3457 9.78464C4.21779 9.97307 4.12255 10.1816 4.06497 10.4019C4 10.6506 4 10.9179 4 11.4522Z" stroke="#2563eb" stroke-width="2" stroke-linecap="round" stroke-linejoin="round"/>
</g>

    </svg>
  </g>
  <!-- Icon 9: More_Grid_Small -->
  <g transform="translate(256, 152)">
    <rect width="48" height="48" fill="#ffffff" stroke="#e9ecef" stroke-width="1" rx="4"/>
    <svg x="8" y="8" width="32" height="32" viewBox="0 0 24 24">
      
<g id="Menu / More_Grid_Small">
<g id="Vector">
<path d="M14 15C14 15.5523 14.4477 16 15 16C15.5523 16 16 15.5523 16 15C16 14.4477 15.5523 14 15 14C14.4477 14 14 14.4477 14 15Z" stroke="#2563eb" stroke-width="2" stroke-linecap="round" stroke-linejoin="round"/>
<path d="M8 15C8 15.5523 8.44772 16 9 16C9.55228 16 10 15.5523 10 15C10 14.4477 9.55228 14 9 14C8.44772 14 8 14.4477 8 15Z" stroke="#2563eb" stroke-width="2" stroke-linecap="round" stroke-linejoin="round"/>
<path d="M14 9C14 9.55228 14.4477 10 15 10C15.5523 10 16 9.55228 16 9C16 8.44772 15.5523 8 15 8C14.4477 8 14 8.44772 14 9Z" stroke="#2563eb" stroke-width="2" stroke-linecap="round" stroke-linejoin="round"/>
<path d="M8 9C8 9.55228 8.44772 10 9 10C9.55228 10 10 9.55228 10 9C10 8.44772 9.55228 8 9 8C8.44772 8 8 8.44772 8 9Z" stroke="#2563eb" stroke-width="2" stroke-linecap="round" stroke-linejoin="round"/>
</g>
</g>

    </svg>
  </g>
  <!-- Icon 10: Close_MD -->
  <g transform="translate(316, 152)">
    <rect width="48" height="48" fill="#ffffff" stroke="#e9ecef" stroke-width="1" rx="4"/>
    <svg x="8" y="8" width="32" height="32" viewBox="0 0 24 24">
      
<g id="Menu / Close_MD">
<path id="Vector" d="M18 18L12 12M12 12L6 6M12 12L18 6M12 12L6 18" stroke="#2563eb" stroke-width="2" stroke-linecap="round" stroke-linejoin="round"/>
</g>

    </svg>
  </g>
  <!-- Icon 11: Shuffle -->
  <g transform="translate(376, 152)">
    <rect width="48" height="48" fill="#ffffff" stroke="#e9ecef" stroke-width="1" rx="4"/>
    <svg x="8" y="8" width="32" height="32" viewBox="0 0 24 24">
      
<g id="Media / Shuffle">
<path id="Vector" d="M18 20L21 17M21 17L18 14M21 17H17C14.2386 17 12 14.7614 12 12C12 9.23858 9.76142 7 7 7H3M18 4L21 7M21 7L18 10M21 7L17 7C15.8744 7 14.8357 7.37194 14 7.99963M3 17H7C8.12561 17 9.16434 16.6277 10 16" stroke="#2563eb" stroke-width="2" stroke-linecap="round" stroke-linejoin="round"/>
</g>

    </svg>
  </g>
  <!-- Icon 12: Notebook -->
  <g transform="translate(436, 152)">
    <rect width="48" height="48" fill="#ffffff" stroke="#e9ecef" stroke-width="1" rx="4"/>
    <svg x="8" y="8" width="32" height="32" viewBox="0 0 24 24">
      
<g id="File / Notebook">
<path id="Vector" d="M8 4H7.2002C6.08009 4 5.51962 4 5.0918 4.21799C4.71547 4.40973 4.40973 4.71547 4.21799 5.0918C4 5.51962 4 6.08009 4 7.2002V16.8002C4 17.9203 4 18.4801 4.21799 18.9079C4.40973 19.2842 4.71547 19.5905 5.0918 19.7822C5.5192 20 6.07899 20 7.19691 20H8M8 4H16.8002C17.9203 4 18.4796 4 18.9074 4.21799C19.2837 4.40973 19.5905 4.71547 19.7822 5.0918C20 5.5192 20 6.07899 20 7.19691V16.8036C20 17.9215 20 18.4805 19.7822 18.9079C19.5905 19.2842 19.2837 19.5905 18.9074 19.7822C18.48 20 17.921 20 16.8031 20H8M8 4V20M12 11H16M12 8H16" stroke="#2563eb" stroke-width="2" stroke-linecap="round" stroke-linejoin="round"/>
</g>

    </svg>
  </g>
  <!-- Icon 13: Folder_Code -->
  <g transform="translate(496, 152)">
    <rect width="48" height="48" fill="#ffffff" stroke="#e9ecef" stroke-width="1" rx="4"/>
    <svg x="8" y="8" width="32" height="32" viewBox="0 0 24 24">
      
<g id="File / Folder_Code">
<path id="Vector" d="M14 11L16 13L14 15M10 15L8 13L10 11M3 6V16.8C3 17.9201 3 18.4798 3.21799 18.9076C3.40973 19.2839 3.71547 19.5905 4.0918 19.7822C4.5192 20 5.07899 20 6.19691 20H17.8031C18.921 20 19.48 20 19.9074 19.7822C20.2837 19.5905 20.5905 19.2841 20.7822 18.9078C21.0002 18.48 21.0002 17.9199 21.0002 16.7998L21.0002 9.19978C21.0002 8.07967 21.0002 7.51962 20.7822 7.0918C20.5905 6.71547 20.2839 6.40973 19.9076 6.21799C19.4798 6 18.9201 6 17.8 6H12M3 6H12M3 6C3 4.89543 3.89543 4 5 4H8.67452C9.1637 4 9.40886 4 9.63904 4.05526C9.84311 4.10425 10.0379 4.18526 10.2168 4.29492C10.4186 4.41857 10.5918 4.59182 10.9375 4.9375L12 6" stroke="#2563eb" stroke-width="2" stroke-linecap="round" stroke-linejoin="round"/>
</g>

    </svg>
  </g>
  <!-- Icon 14: File_Code -->
  <g transform="translate(556, 152)">
    <rect width="48" height="48" fill="#ffffff" stroke="#e9ecef" stroke-width="1" rx="4"/>
    <svg x="8" y="8" width="32" height="32" viewBox="0 0 24 24">
      
<g id="File / File_Code">
<path id="Vector" d="M13 3.00087C12.9045 3 12.7973 3 12.6747 3H8.2002C7.08009 3 6.51962 3 6.0918 3.21799C5.71547 3.40973 5.40973 3.71547 5.21799 4.0918C5 4.51962 5 5.08009 5 6.2002V17.8002C5 18.9203 5 19.4801 5.21799 19.9079C5.40973 20.2842 5.71547 20.5905 6.0918 20.7822C6.51921 21 7.079 21 8.19694 21L15.8031 21C16.921 21 17.48 21 17.9074 20.7822C18.2837 20.5905 18.5905 20.2842 18.7822 19.9079C19 19.4805 19 18.9215 19 17.8036V9.32568C19 9.20296 19 9.09561 18.9991 9M13 3.00087C13.2856 3.00347 13.4663 3.01385 13.6388 3.05526C13.8429 3.10425 14.0379 3.18526 14.2168 3.29492C14.4186 3.41857 14.5918 3.59182 14.9375 3.9375L18.063 7.06298C18.4089 7.40889 18.5809 7.58136 18.7046 7.78319C18.8142 7.96214 18.8953 8.15726 18.9443 8.36133C18.9857 8.53376 18.9963 8.71451 18.9991 9M13 3.00087V5.8C13 6.9201 13 7.47977 13.218 7.90759C13.4097 8.28392 13.7155 8.59048 14.0918 8.78223C14.5192 9 15.079 9 16.1969 9H18.9991M18.9991 9H19.0002M14 13L16 15L14 17M10 17L8 15L10 13" stroke="#2563eb" stroke-width="2" stroke-linecap="round" stroke-linejoin="round"/>
</g>

    </svg>
  </g>
  <!-- Icon 15: Cloud_Add -->
  <g transform="translate(196, 212)">
    <rect width="48" height="48" fill="#ffffff" stroke="#e9ecef" stroke-width="1" rx="4"/>
    <svg x="8" y="8" width="32" height="32" viewBox="0 0 24 24">
      
<g id="File / Cloud_Add">
<path id="Vector" d="M12 16V13M12 13V10M12 13H9M12 13H15M23 15C23 12.7909 21.2091 11 19 11C18.9764 11 18.9532 11.0002 18.9297 11.0006C18.4447 7.60802 15.5267 5 12 5C9.20335 5 6.79019 6.64004 5.66895 9.01082C3.06206 9.18144 1 11.3498 1 13.9999C1 16.7613 3.23858 19.0001 6 19.0001L19 19C21.2091 19 23 17.2091 23 15Z" stroke="#2563eb" stroke-width="2" stroke-linecap="round" stroke-linejoin="round"/>
</g>

    </svg>
  </g>
  <!-- Icon 16: Cookie -->
  <g transform="translate(256, 212)">
    <rect width="48" height="48" fill="#ffffff" stroke="#e9ecef" stroke-width="1" rx="4"/>
    <svg x="8" y="8" width="32" height="32" viewBox="0 0 24 24">
      
<g id="Environment / Cookie">
<g id="Vector">
<path d="M12.1521 4.08723C12.1513 3.71959 12.1001 3.3538 12 3C16.9683 3.00545 20.9944 7.03979 21 12C21.0161 16.9625 16.9705 20.9835 12 20.9997C7.02946 21.0158 3.01615 16.963 3 12.0005C4.11168 12.2363 5.27038 11.9981 6.1499 11.2795C7.0562 10.5452 7.5789 9.43935 7.5702 8.27407C7.56959 8.01195 7.5461 7.75072 7.5 7.49268C8.51784 7.89624 9.67043 7.76409 10.5708 7.14162C11.5696 6.44537 12.161 5.3034 12.1521 4.08723Z" stroke="#2563eb" stroke-width="2" stroke-linecap="round" stroke-linejoin="round"/>
<path d="M3.00195 7.002V7H3V7.00195L3.00195 7.002Z" stroke="#2563eb" stroke-width="2" stroke-linecap="round" stroke-linejoin="round"/>
<path d="M8.00195 3.002V3H8V3.00195L8.00195 3.002Z" stroke="#2563eb" stroke-width="2" stroke-linecap="round" stroke-linejoin="round"/>
<path d="M4.00195 3.002V3H4V3.00195L4.00195 3.002Z" stroke="#2563eb" stroke-width="2" stroke-linecap="round" stroke-linejoin="round"/>
<path d="M10.002 17.002V17H10V17.002L10.002 17.002Z" stroke="#2563eb" stroke-width="2" stroke-linecap="round" stroke-linejoin="round"/>
<path d="M15.002 15.002V15H15V15.002L15.002 15.002Z" stroke="#2563eb" stroke-width="2" stroke-linecap="round" stroke-linejoin="round"/>
<path d="M11.002 12.002V12H11V12.002L11.002 12.002Z" stroke="#2563eb" stroke-width="2" stroke-linecap="round" stroke-linejoin="round"/>
<path d="M16.002 10.002V10H16V10.002L16.002 10.002Z" stroke="#2563eb" stroke-width="2" stroke-linecap="round" stroke-linejoin="round"/>
<path d="M3.00195 7.002V7H3V7.00195L3.00195 7.002Z" stroke="#2563eb" stroke-width="2" stroke-linecap="round" stroke-linejoin="round"/>
<path d="M8.00195 3.002V3H8V3.00195L8.00195 3.002Z" stroke="#2563eb" stroke-width="2" stroke-linecap="round" stroke-linejoin="round"/>
<path d="M4.00195 3.002V3H4V3.00195L4.00195 3.002Z" stroke="#2563eb" stroke-width="2" stroke-linecap="round" stroke-linejoin="round"/>
</g>
</g>

    </svg>
  </g>
  <!-- Icon 17: Chat_Conversation_Circle -->
  <g transform="translate(316, 212)">
    <rect width="48" height="48" fill="#ffffff" stroke="#e9ecef" stroke-width="1" rx="4"/>
    <svg x="8" y="8" width="32" height="32" viewBox="0 0 24 24">
      
<g id="Communication / Chat_Conversation_Circle">
<path id="Vector" d="M9.33814 15.9905C12.4946 15.8151 15 13.2003 15 10C15 6.68629 12.3137 4 9 4C5.68629 4 3 6.68629 3 10C3 11.1807 3.34094 12.2817 3.92989 13.21L3.50586 14.482L3.50518 14.4839C3.34278 14.9711 3.26154 15.2149 3.31938 15.3771C3.36979 15.5184 3.48169 15.6299 3.62305 15.6803C3.78472 15.7379 4.02675 15.6573 4.51069 15.4959L4.51758 15.4939L5.79004 15.0698C6.7183 15.6588 7.81935 15.9998 9.00006 15.9998C9.11352 15.9998 9.22624 15.9967 9.33814 15.9905ZM9.33814 15.9905C9.33822 15.9907 9.33806 15.9902 9.33814 15.9905ZM9.33814 15.9905C10.1591 18.3259 12.3841 20.0002 15.0001 20.0002C16.1808 20.0002 17.2817 19.6588 18.2099 19.0698L19.482 19.4939L19.4845 19.4944C19.9717 19.6567 20.2158 19.7381 20.378 19.6803C20.5194 19.6299 20.6299 19.5184 20.6803 19.3771C20.7382 19.2146 20.6572 18.9706 20.4943 18.4821L20.0703 17.21L20.2123 16.9746C20.7138 16.0979 20.9995 15.0823 20.9995 14C20.9995 10.6863 18.3137 8 15 8L14.7754 8.00414L14.6621 8.00967" stroke="#2563eb" stroke-width="2" stroke-linecap="round" stroke-linejoin="round"/>
</g>

    </svg>
  </g>
  <!-- Icon 18: Bell_Ring -->
  <g transform="translate(376, 212)">
    <rect width="48" height="48" fill="#ffffff" stroke="#e9ecef" stroke-width="1" rx="4"/>
    <svg x="8" y="8" width="32" height="32" viewBox="0 0 24 24">
      
<g id="Communication / Bell_Ring">
<path id="Vector" d="M15 17V18C15 19.6569 13.6569 21 12 21C10.3431 21 9 19.6569 9 18V17M15 17H9M15 17H18.5905C18.973 17 19.1652 17 19.3201 16.9478C19.616 16.848 19.8475 16.6156 19.9473 16.3198C19.9997 16.1643 19.9997 15.9715 19.9997 15.5859C19.9997 15.4172 19.9995 15.3329 19.9863 15.2524C19.9614 15.1004 19.9024 14.9563 19.8126 14.8312C19.7651 14.7651 19.7047 14.7048 19.5858 14.5858L19.1963 14.1963C19.0706 14.0706 19 13.9001 19 13.7224V10C19 6.134 15.866 2.99999 12 3C8.13401 3.00001 5 6.13401 5 10V13.7224C5 13.9002 4.92924 14.0706 4.80357 14.1963L4.41406 14.5858C4.29477 14.7051 4.23504 14.765 4.1875 14.8312C4.09766 14.9564 4.03815 15.1004 4.0132 15.2524C4 15.3329 4 15.4172 4 15.586C4 15.9715 4 16.1642 4.05245 16.3197C4.15225 16.6156 4.3848 16.848 4.68066 16.9478C4.83556 17 5.02701 17 5.40956 17H9M18.0186 2.01367C19.3978 3.05299 20.4843 4.43177 21.1724 6.01574M5.98197 2.01367C4.60275 3.05299 3.5162 4.43177 2.82812 6.01574" stroke="#2563eb" stroke-width="2" stroke-linecap="round" stroke-linejoin="round"/>
</g>

    </svg>
  </g>
  <!-- Icon 19: Calendar_Week -->
  <g transform="translate(436, 212)">
    <rect width="48" height="48" fill="#ffffff" stroke="#e9ecef" stroke-width="1" rx="4"/>
    <svg x="8" y="8" width="32" height="32" viewBox="0 0 24 24">
      
<g id="Calendar / Calendar_Week">
<path id="Vector" d="M4 8H20M4 8V16.8002C4 17.9203 4 18.4801 4.21799 18.9079C4.40973 19.2842 4.71547 19.5905 5.0918 19.7822C5.5192 20 6.07899 20 7.19691 20H16.8031C17.921 20 18.48 20 18.9074 19.7822C19.2837 19.5905 19.5905 19.2842 19.7822 18.9079C20 18.4805 20 17.9215 20 16.8036V8M4 8V7.2002C4 6.08009 4 5.51962 4.21799 5.0918C4.40973 4.71547 4.71547 4.40973 5.0918 4.21799C5.51962 4 6.08009 4 7.2002 4H8M20 8V7.19691C20 6.07899 20 5.5192 19.7822 5.0918C19.5905 4.71547 19.2837 4.40973 18.9074 4.21799C18.4796 4 17.9203 4 16.8002 4H16M8 4H16M8 4V2M16 4V2M16 12H8" stroke="#2563eb" stroke-width="2" stroke-linecap="round" stroke-linejoin="round"/>
</g>

    </svg>
  </g>
  <!-- Icon 20: Text_Align_Left -->
  <g transform="translate(496, 212)">
    <rect width="48" height="48" fill="#ffffff" stroke="#e9ecef" stroke-width="1" rx="4"/>
    <svg x="8" y="8" width="32" height="32" viewBox="0 0 24 24">
      
<g id="Edit / Text_Align_Left">
<path id="Vector" d="M4 18H14M4 14H20M4 10H14M4 6H20" stroke="#2563eb" stroke-width="2" stroke-linecap="round" stroke-linejoin="round"/>
</g>

    </svg>
  </g>
  <!-- Icon 21: Single_Quotes_L -->
  <g transform="translate(556, 212)">
    <rect width="48" height="48" fill="#ffffff" stroke="#e9ecef" stroke-width="1" rx="4"/>
    <svg x="8" y="8" width="32" height="32" viewBox="0 0 24 24">
      
<g id="Edit / Single_Quotes_L">
<path id="Vector" d="M10 12V15.4C10 15.9601 10 16.2399 10.109 16.4538C10.2049 16.642 10.3577 16.7952 10.5459 16.8911C10.7596 17 11.0395 17 11.5985 17H13.4015C13.9605 17 14.24 17 14.4537 16.8911C14.6419 16.7952 14.7952 16.6419 14.8911 16.4537C15 16.24 15 15.9605 15 15.4015V13.5985C15 13.0395 15 12.7596 14.8911 12.5459C14.7952 12.3577 14.642 12.2049 14.4538 12.109C14.2399 12 13.9601 12 13.4 12H10ZM10 12V10C10 8.34315 11.3431 7 13 7" stroke="#2563eb" stroke-width="2" stroke-linecap="round" stroke-linejoin="round"/>
</g>

    </svg>
  </g>
  <!-- Icon 22: Move_Vertical -->
  <g transform="translate(196, 272)">
    <rect width="48" height="48" fill="#ffffff" stroke="#e9ecef" stroke-width="1" rx="4"/>
    <svg x="8" y="8" width="32" height="32" viewBox="0 0 24 24">
      
<g id="Edit / Move_Vertical">
<path id="Vector" d="M12 21V3M12 21L15 18M12 21L9 18M12 3L9 6M12 3L15 6" stroke="#2563eb" stroke-width="2" stroke-linecap="round" stroke-linejoin="round"/>
</g>

    </svg>
  </g>
  <!-- Icon 23: Italic -->
  <g transform="translate(256, 272)">
    <rect width="48" height="48" fill="#ffffff" stroke="#e9ecef" stroke-width="1" rx="4"/>
    <svg x="8" y="8" width="32" height="32" viewBox="0 0 24 24">
      
<g id="Edit / Italic">
<path id="Vector" d="M8 19H10M10 19H12M10 19L14 5M12 5H14M14 5H16" stroke="#2563eb" stroke-width="2" stroke-linecap="round" stroke-linejoin="round"/>
</g>

    </svg>
  </g>
  <!-- Icon 24: Edit_Pencil_Line_01 -->
  <g transform="translate(316, 272)">
    <rect width="48" height="48" fill="#ffffff" stroke="#e9ecef" stroke-width="1" rx="4"/>
    <svg x="8" y="8" width="32" height="32" viewBox="0 0 24 24">
      
<g id="Edit / Edit_Pencil_Line_01">
<path id="Vector" d="M4 20.0001H20M4 20.0001V16.0001L12 8.00012M4 20.0001L8 20.0001L16 12.0001M12 8.00012L14.8686 5.13146L14.8704 5.12976C15.2652 4.73488 15.463 4.53709 15.691 4.46301C15.8919 4.39775 16.1082 4.39775 16.3091 4.46301C16.5369 4.53704 16.7345 4.7346 17.1288 5.12892L18.8686 6.86872C19.2646 7.26474 19.4627 7.46284 19.5369 7.69117C19.6022 7.89201 19.6021 8.10835 19.5369 8.3092C19.4628 8.53736 19.265 8.73516 18.8695 9.13061L18.8686 9.13146L16 12.0001M12 8.00012L16 12.0001" stroke="#2563eb" stroke-width="2" stroke-linecap="round" stroke-linejoin="round"/>
</g>

    </svg>
  </g>
  <!-- Icon 25: Close_Circle -->
  <g transform="translate(376, 272)">
    <rect width="48" height="48" fill="#ffffff" stroke="#e9ecef" stroke-width="1" rx="4"/>
    <svg x="8" y="8" width="32" height="32" viewBox="0 0 24 24">
      
<g id="Edit / Close_Circle">
<path id="Vector" d="M9 9L11.9999 11.9999M11.9999 11.9999L14.9999 14.9999M11.9999 11.9999L9 14.9999M11.9999 11.9999L14.9999 9M12 21C7.02944 21 3 16.9706 3 12C3 7.02944 7.02944 3 12 3C16.9706 3 21 7.02944 21 12C21 16.9706 16.9706 21 12 21Z" stroke="#2563eb" stroke-width="2" stroke-linecap="round" stroke-linejoin="round"/>
</g>

    </svg>
  </g>
  <!-- Icon 26: Trash_Empty -->
  <g transform="translate(436, 272)">
    <rect width="48" height="48" fill="#ffffff" stroke="#e9ecef" stroke-width="1" rx="4"/>
    <svg x="8" y="8" width="32" height="32" viewBox="0 0 24 24">
      
<g id="Interface / Trash_Empty">
<path id="Vector" d="M6 6V17.8C6 18.9201 6 19.4798 6.21799 19.9076C6.40973 20.2839 6.71547 20.5905 7.0918 20.7822C7.5192 21 8.07899 21 9.19691 21H14.8031C15.921 21 16.48 21 16.9074 20.7822C17.2837 20.5905 17.5905 20.2839 17.7822 19.9076C18 19.4802 18 18.921 18 17.8031V6M6 6H8M6 6H4M8 6H16M8 6C8 5.06812 8 4.60241 8.15224 4.23486C8.35523 3.74481 8.74432 3.35523 9.23438 3.15224C9.60192 3 10.0681 3 11 3H13C13.9319 3 14.3978 3 14.7654 3.15224C15.2554 3.35523 15.6447 3.74481 15.8477 4.23486C15.9999 4.6024 16 5.06812 16 6M16 6H18M18 6H20" stroke="#2563eb" stroke-width="2" stroke-linecap="round" stroke-linejoin="round"/>
</g>

    </svg>
  </g>
  <!-- Icon 27: Shopping_Bag_02 -->
  <g transform="translate(496, 272)">
    <rect width="48" height="48" fill="#ffffff" stroke="#e9ecef" stroke-width="1" rx="4"/>
    <svg x="8" y="8" width="32" height="32" viewBox="0 0 24 24">
      
<g id="Interface / Shopping_Bag_02">
<path id="Vector" d="M8 8H6.77734C5.47772 8 4.82845 8 4.36621 8.26514C3.96058 8.49781 3.64877 8.86535 3.48595 9.30371C3.30053 9.80294 3.40726 10.4433 3.62065 11.7237L3.62109 11.7261L4.55443 17.3261C4.71276 18.276 4.79244 18.7512 5.02947 19.1077C5.23841 19.4219 5.5317 19.6703 5.87598 19.8247C6.26653 19.9999 6.74787 20 7.71094 20H16.2893C17.2524 20 17.7334 19.9999 18.124 19.8247C18.4682 19.6703 18.7618 19.4219 18.9707 19.1077C19.2077 18.7512 19.287 18.276 19.4453 17.3261L20.3786 11.7261L20.3796 11.7222C20.5928 10.4428 20.6995 9.80274 20.5141 9.30371C20.3513 8.86535 20.0402 8.49781 19.6346 8.26514C19.1724 8 18.522 8 17.2224 8H16M8 8H16M8 8C8 5.79086 9.79086 4 12 4C14.2091 4 16 5.79086 16 8" stroke="#2563eb" stroke-width="2" stroke-linecap="round" stroke-linejoin="round"/>
</g>

    </svg>
  </g>
  <!-- Icon 28: Lock_Open -->
  <g transform="translate(556, 272)">
    <rect width="48" height="48" fill="#ffffff" stroke="#e9ecef" stroke-width="1" rx="4"/>
    <svg x="8" y="8" width="32" height="32" viewBox="0 0 24 24">
      
<g id="Interface / Lock_Open">
<path id="Vector" d="M9 9H7.2002C6.08009 9 5.51962 9 5.0918 9.21799C4.71547 9.40973 4.40973 9.71547 4.21799 10.0918C4 10.5196 4 11.0801 4 12.2002V17.8002C4 18.9203 4 19.4801 4.21799 19.9079C4.40973 20.2842 4.71547 20.5905 5.0918 20.7822C5.51921 21 6.07901 21 7.19694 21L16.8031 21C17.921 21 18.48 21 18.9074 20.7822C19.2837 20.5905 19.5905 20.2842 19.7822 19.9079C20 19.4805 20 18.9215 20 17.8036V12.1969C20 11.079 20 10.5192 19.7822 10.0918C19.5905 9.71547 19.2837 9.40973 18.9074 9.21799C18.4796 9 17.9203 9 16.8002 9H9ZM9 9V6.12012C9 4.39699 10.3 3 11.9037 3C12.7277 3 13.4708 3.36879 13.9993 3.96113" stroke="#2563eb" stroke-width="2" stroke-linecap="round" stroke-linejoin="round"/>
</g>

    </svg>
  </g>
  <!-- Icon 29: Label -->
  <g transform="translate(196, 332)">
    <rect width="48" height="48" fill="#ffffff" stroke="#e9ecef" stroke-width="1" rx="4"/>
    <svg x="8" y="8" width="32" height="32" viewBox="0 0 24 24">
      
<g id="Interface / Label">
<path id="Vector" d="M19.2933 9.95137L16.96 7.15137C16.6073 6.72814 16.43 6.51639 16.2139 6.36426C16.0223 6.22946 15.8084 6.12953 15.5822 6.06868C15.327 6 15.0523 6 14.5014 6H7.2002C6.08009 6 5.51962 6 5.0918 6.21799C4.71547 6.40973 4.40973 6.71547 4.21799 7.0918C4 7.51962 4 8.08009 4 9.2002V14.8002C4 15.9203 4 16.4801 4.21799 16.9079C4.40973 17.2842 4.71547 17.5905 5.0918 17.7822C5.5192 18 6.07899 18 7.19691 18H14.5014C15.0523 18 15.327 17.9998 15.5822 17.9312C15.8084 17.8703 16.0223 17.7702 16.2139 17.6354C16.43 17.4833 16.6073 17.2721 16.96 16.8488L19.2933 14.0488C19.9006 13.32 20.2036 12.9556 20.3197 12.5488C20.422 12.1902 20.422 11.8095 20.3197 11.4509C20.2036 11.0441 19.9006 10.6801 19.2933 9.95137Z" stroke="#2563eb" stroke-width="2" stroke-linecap="round" stroke-linejoin="round"/>
</g>

    </svg>
  </g>
  <!-- Icon 30: Dummy_Circle_Small -->
  <g transform="translate(256, 332)">
    <rect width="48" height="48" fill="#ffffff" stroke="#e9ecef" stroke-width="1" rx="4"/>
    <svg x="8" y="8" width="32" height="32" viewBox="0 0 24 24">
      
<g id="Interface / Dummy_Circle_Small">
<path id="Vector" d="M12 8C9.79086 8 8 9.79086 8 12C8 14.2091 9.79086 16 12 16C14.2091 16 16 14.2091 16 12C16 9.79086 14.2091 8 12 8Z" stroke="#2563eb" stroke-width="2" stroke-linecap="round" stroke-linejoin="round"/>
</g>

    </svg>
  </g>
  <!-- Icon 31: Check_All_Big -->
  <g transform="translate(316, 332)">
    <rect width="48" height="48" fill="#ffffff" stroke="#e9ecef" stroke-width="1" rx="4"/>
    <svg x="8" y="8" width="32" height="32" viewBox="0 0 24 24">
      
<g id="Interface / Check_All_Big">
<path id="Vector" d="M7 12L11.9497 16.9497L22.5572 6.34326M2.0498 12.0503L6.99955 17M17.606 6.39355L12.3027 11.6969" stroke="#2563eb" stroke-width="2" stroke-linecap="round" stroke-linejoin="round"/>
</g>

    </svg>
  </g>
  <!-- Icon 32: Shrink -->
  <g transform="translate(376, 332)">
    <rect width="48" height="48" fill="#ffffff" stroke="#e9ecef" stroke-width="1" rx="4"/>
    <svg x="8" y="8" width="32" height="32" viewBox="0 0 24 24">
      
<g id="Arrow / Shrink">
<path id="Vector" d="M5 14H10V19M19 10H14V5" stroke="#2563eb" stroke-width="2" stroke-linecap="round" stroke-linejoin="round"/>
</g>

    </svg>
  </g>
  <!-- Icon 33: Caret_Up_SM -->
  <g transform="translate(436, 332)">
    <rect width="48" height="48" fill="#ffffff" stroke="#e9ecef" stroke-width="1" rx="4"/>
    <svg x="8" y="8" width="32" height="32" viewBox="0 0 24 24">
      
<g id="Arrow / Caret_Up_SM">
<path id="Vector" d="M9 13L12 10L15 13" stroke="#2563eb" stroke-width="2" stroke-linecap="round" stroke-linejoin="round"/>
</g>

    </svg>
  </g>
  <!-- Icon 34: Arrow_Up_Right_SM -->
  <g transform="translate(496, 332)">
    <rect width="48" height="48" fill="#ffffff" stroke="#e9ecef" stroke-width="1" rx="4"/>
    <svg x="8" y="8" width="32" height="32" viewBox="0 0 24 24">
      
<g id="Arrow / Arrow_Up_Right_SM">
<path id="Vector" d="M8 16L16 8M16 8H10M16 8V14" stroke="#2563eb" stroke-width="2" stroke-linecap="round" stroke-linejoin="round"/>
</g>

    </svg>
  </g>
  <!-- Icon 35: Arrow_Sub_Up_Right -->
  <g transform="translate(556, 332)">
    <rect width="48" height="48" fill="#ffffff" stroke="#e9ecef" stroke-width="1" rx="4"/>
    <svg x="8" y="8" width="32" height="32" viewBox="0 0 24 24">
      
<g id="Arrow / Arrow_Sub_Up_Right">
<path id="Vector" d="M13 13L18 8M18 8L13 3M18 8H10.2002C9.08009 8 8.51962 8 8.0918 8.21799C7.71547 8.40973 7.40973 8.71547 7.21799 9.0918C7 9.51962 7 10.0801 7 11.2002V21.0002" stroke="#2563eb" stroke-width="2" stroke-linecap="round" stroke-linejoin="round"/>
</g>

    </svg>
  </g>
  
  <!-- Footer -->
  <text x="400" y="580" text-anchor="middle" font-family="system-ui, -apple-system, sans-serif" font-size="12" fill="#6c757d">
    Showing 35 of 442 icons
  </text>
  
</svg>