<svg width="800" height="600" xmlns="http://www.w3.org/2000/svg">
  <!-- Background -->
  <rect width="800" height="600" fill="#ffffff"/>
  
  <!-- Header Background -->
  <rect width="800" height="80" fill="#f8f9fa"/>
  
  <!-- Title -->
  <text x="400" y="30" text-anchor="middle" font-family="system-ui, -apple-system, sans-serif" font-size="20" font-weight="bold" fill="#212529">coolicons</text>
  
  <!-- Subtitle -->
  <text x="400" y="55" text-anchor="middle" font-family="system-ui, -apple-system, sans-serif" font-size="14" fill="#6c757d">442 icons</text>
  
  <!-- Icon Grid -->
  <!-- Icon 1: Wavy_Warning -->
  <g transform="translate(196, 92)">
    <rect width="48" height="48" fill="#ffffff" stroke="#e9ecef" stroke-width="1" rx="4"/>
    <svg x="8" y="8" width="32" height="32" viewBox="0 0 24 24">
      
<g id="Warning / Wavy_Warning">
<path id="Vector" d="M12 8.45V12.45M13.246 3.45879L14.467 4.49929C14.7746 4.76143 15.1566 4.91991 15.5594 4.95206L17.1585 5.0795C18.0986 5.15452 18.8453 5.9008 18.9204 6.84093L19.0475 8.44024C19.0797 8.8431 19.2387 9.22559 19.5008 9.53319L20.5409 10.7538C21.1526 11.4716 21.1527 12.5275 20.541 13.2454L19.5009 14.4662C19.2388 14.7738 19.08 15.1564 19.0478 15.5593L18.9199 17.1583C18.8449 18.0984 18.0993 18.8452 17.1591 18.9202L15.5595 19.0478C15.1567 19.08 14.7744 19.2381 14.4667 19.5002L13.246 20.5407C12.5282 21.1525 11.4717 21.1526 10.7539 20.5409L9.53316 19.5003C9.22555 19.2382 8.84325 19.0798 8.44038 19.0477L6.84077 18.9202C5.90064 18.8452 5.15505 18.0986 5.08003 17.1585L4.9521 15.5594C4.91995 15.1565 4.76111 14.7742 4.49898 14.4666L3.45894 13.2454C2.84721 12.5276 2.84693 11.472 3.45865 10.7542L4.49963 9.53301C4.76176 9.22541 4.91908 8.84311 4.95122 8.44024L5.07915 6.84112C5.15417 5.90099 5.90192 5.15442 6.84205 5.0794L8.43989 4.95196C8.84276 4.91981 9.22525 4.76146 9.53285 4.49932L10.754 3.45879C11.4718 2.84707 12.5282 2.84707 13.246 3.45879ZM12.0498 15.45V15.55L11.9501 15.5496V15.45H12.0498Z" stroke="#2563eb" stroke-width="2" stroke-linecap="round" stroke-linejoin="round"/>
</g>

    </svg>
  </g>
  <!-- Icon 2: Octagon_Warning -->
  <g transform="translate(256, 92)">
    <rect width="48" height="48" fill="#ffffff" stroke="#e9ecef" stroke-width="1" rx="4"/>
    <svg x="8" y="8" width="32" height="32" viewBox="0 0 24 24">
      
<g id="Warning / Octagon_Warning">
<path id="Vector" d="M12 8.44971V12.4497M7.33173 3.9375L3.9375 7.33173L3.93442 7.33462C3.59057 7.67847 3.41824 7.85081 3.29492 8.05204C3.18526 8.23098 3.10425 8.4263 3.05526 8.63037C3 8.86055 3 9.10506 3 9.59424V14.4058C3 14.8949 3 15.1395 3.05526 15.3697C3.10425 15.5738 3.18526 15.7688 3.29492 15.9478C3.41857 16.1495 3.59182 16.3228 3.9375 16.6685L7.33173 20.0627C7.67763 20.4086 7.85021 20.5812 8.05204 20.7048C8.23099 20.8145 8.42581 20.8958 8.62988 20.9448C8.85971 21 9.10382 21 9.59151 21H14.4075C14.8952 21 15.1404 21 15.3702 20.9448C15.5743 20.8958 15.7693 20.8145 15.9482 20.7049C16.1501 20.5812 16.323 20.4086 16.6689 20.0627L20.0632 16.6685C20.4091 16.3226 20.5817 16.1496 20.7053 15.9478C20.815 15.7688 20.8953 15.5738 20.9443 15.3697C20.9996 15.1395 21 14.895 21 14.4058V9.59424C21 9.10506 20.9996 8.86055 20.9443 8.63037C20.8953 8.4263 20.815 8.23099 20.7053 8.05205C20.5817 7.85022 20.4091 7.67761 20.0632 7.33173L16.6689 3.9375C16.3233 3.59181 16.15 3.41857 15.9482 3.29492C15.7693 3.18526 15.5743 3.10425 15.3702 3.05526C15.14 3 14.8945 3 14.4053 3H9.59375C9.10457 3 8.86006 3 8.62988 3.05526C8.42581 3.10425 8.23099 3.18526 8.05204 3.29492C7.85204 3.41748 7.68106 3.58847 7.3414 3.92813L7.33173 3.9375ZM12.0498 15.4497V15.5497L11.9502 15.5499V15.4497H12.0498Z" stroke="#2563eb" stroke-width="2" stroke-linecap="round" stroke-linejoin="round"/>
</g>

    </svg>
  </g>
  <!-- Icon 3: User_Remove -->
  <g transform="translate(316, 92)">
    <rect width="48" height="48" fill="#ffffff" stroke="#e9ecef" stroke-width="1" rx="4"/>
    <svg x="8" y="8" width="32" height="32" viewBox="0 0 24 24">
      
<g id="User / User_Remove">
<path id="Vector" d="M15 19C15 16.7909 12.3137 15 9 15C5.68629 15 3 16.7909 3 19M15 13H21M9 12C6.79086 12 5 10.2091 5 8C5 5.79086 6.79086 4 9 4C11.2091 4 13 5.79086 13 8C13 10.2091 11.2091 12 9 12Z" stroke="#2563eb" stroke-width="2" stroke-linecap="round" stroke-linejoin="round"/>
</g>

    </svg>
  </g>
  <!-- Icon 4: Shield -->
  <g transform="translate(376, 92)">
    <rect width="48" height="48" fill="#ffffff" stroke="#e9ecef" stroke-width="1" rx="4"/>
    <svg x="8" y="8" width="32" height="32" viewBox="0 0 24 24">
      
<g id="Shape / Shield">
<path id="Vector" d="M12.9258 20.6314C15.0319 19.6781 20 16.7333 20 10.165V6.19691C20 5.07899 20 4.5192 19.7822 4.0918C19.5905 3.71547 19.2837 3.40973 18.9074 3.21799C18.4796 3 17.9203 3 16.8002 3H7.2002C6.08009 3 5.51962 3 5.0918 3.21799C4.71547 3.40973 4.40973 3.71547 4.21799 4.0918C4 4.51962 4 5.08009 4 6.2002V10.165C4 16.7333 8.9678 19.6781 11.074 20.6314C11.2972 20.7325 11.4094 20.7829 11.6621 20.8263C11.8215 20.8537 12.1795 20.8537 12.3389 20.8263C12.5907 20.7831 12.7017 20.7328 12.9235 20.6324L12.9258 20.6314Z" stroke="#2563eb" stroke-width="2" stroke-linecap="round" stroke-linejoin="round"/>
</g>

    </svg>
  </g>
  <!-- Icon 5: House_01 -->
  <g transform="translate(436, 92)">
    <rect width="48" height="48" fill="#ffffff" stroke="#e9ecef" stroke-width="1" rx="4"/>
    <svg x="8" y="8" width="32" height="32" viewBox="0 0 24 24">
      
<g id="Navigation / House_01">
<path id="Vector" d="M20 17.0002V11.4522C20 10.9179 19.9995 10.6506 19.9346 10.4019C19.877 10.1816 19.7825 9.97307 19.6546 9.78464C19.5102 9.57201 19.3096 9.39569 18.9074 9.04383L14.1074 4.84383C13.3608 4.19054 12.9875 3.86406 12.5674 3.73982C12.1972 3.63035 11.8026 3.63035 11.4324 3.73982C11.0126 3.86397 10.6398 4.19014 9.89436 4.84244L5.09277 9.04383C4.69064 9.39569 4.49004 9.57201 4.3457 9.78464C4.21779 9.97307 4.12255 10.1816 4.06497 10.4019C4 10.6506 4 10.9179 4 11.4522V17.0002C4 17.932 4 18.3978 4.15224 18.7654C4.35523 19.2554 4.74432 19.6452 5.23438 19.8482C5.60192 20.0005 6.06786 20.0005 6.99974 20.0005C7.93163 20.0005 8.39808 20.0005 8.76562 19.8482C9.25568 19.6452 9.64467 19.2555 9.84766 18.7654C9.9999 18.3979 10 17.932 10 17.0001V16.0001C10 14.8955 10.8954 14.0001 12 14.0001C13.1046 14.0001 14 14.8955 14 16.0001V17.0001C14 17.932 14 18.3979 14.1522 18.7654C14.3552 19.2555 14.7443 19.6452 15.2344 19.8482C15.6019 20.0005 16.0679 20.0005 16.9997 20.0005C17.9316 20.0005 18.3981 20.0005 18.7656 19.8482C19.2557 19.6452 19.6447 19.2554 19.8477 18.7654C19.9999 18.3978 20 17.932 20 17.0002Z" stroke="#2563eb" stroke-width="2" stroke-linecap="round" stroke-linejoin="round"/>
</g>

    </svg>
  </g>
  <!-- Icon 6: More_Grid_Big -->
  <g transform="translate(496, 92)">
    <rect width="48" height="48" fill="#ffffff" stroke="#e9ecef" stroke-width="1" rx="4"/>
    <svg x="8" y="8" width="32" height="32" viewBox="0 0 24 24">
      
<g id="Menu / More_Grid_Big">
<g id="Vector">
<path d="M17 18C17 18.5523 17.4477 19 18 19C18.5523 19 19 18.5523 19 18C19 17.4477 18.5523 17 18 17C17.4477 17 17 17.4477 17 18Z" stroke="#2563eb" stroke-width="2" stroke-linecap="round" stroke-linejoin="round"/>
<path d="M11 18C11 18.5523 11.4477 19 12 19C12.5523 19 13 18.5523 13 18C13 17.4477 12.5523 17 12 17C11.4477 17 11 17.4477 11 18Z" stroke="#2563eb" stroke-width="2" stroke-linecap="round" stroke-linejoin="round"/>
<path d="M5 18C5 18.5523 5.44772 19 6 19C6.55228 19 7 18.5523 7 18C7 17.4477 6.55228 17 6 17C5.44772 17 5 17.4477 5 18Z" stroke="#2563eb" stroke-width="2" stroke-linecap="round" stroke-linejoin="round"/>
<path d="M17 12C17 12.5523 17.4477 13 18 13C18.5523 13 19 12.5523 19 12C19 11.4477 18.5523 11 18 11C17.4477 11 17 11.4477 17 12Z" stroke="#2563eb" stroke-width="2" stroke-linecap="round" stroke-linejoin="round"/>
<path d="M11 12C11 12.5523 11.4477 13 12 13C12.5523 13 13 12.5523 13 12C13 11.4477 12.5523 11 12 11C11.4477 11 11 11.4477 11 12Z" stroke="#2563eb" stroke-width="2" stroke-linecap="round" stroke-linejoin="round"/>
<path d="M5 12C5 12.5523 5.44772 13 6 13C6.55228 13 7 12.5523 7 12C7 11.4477 6.55228 11 6 11C5.44772 11 5 11.4477 5 12Z" stroke="#2563eb" stroke-width="2" stroke-linecap="round" stroke-linejoin="round"/>
<path d="M17 6C17 6.55228 17.4477 7 18 7C18.5523 7 19 6.55228 19 6C19 5.44772 18.5523 5 18 5C17.4477 5 17 5.44772 17 6Z" stroke="#2563eb" stroke-width="2" stroke-linecap="round" stroke-linejoin="round"/>
<path d="M11 6C11 6.55228 11.4477 7 12 7C12.5523 7 13 6.55228 13 6C13 5.44772 12.5523 5 12 5C11.4477 5 11 5.44772 11 6Z" stroke="#2563eb" stroke-width="2" stroke-linecap="round" stroke-linejoin="round"/>
<path d="M5 6C5 6.55228 5.44772 7 6 7C6.55228 7 7 6.55228 7 6C7 5.44772 6.55228 5 6 5C5.44772 5 5 5.44772 5 6Z" stroke="#2563eb" stroke-width="2" stroke-linecap="round" stroke-linejoin="round"/>
</g>
</g>

    </svg>
  </g>
  <!-- Icon 7: Close_LG -->
  <g transform="translate(556, 92)">
    <rect width="48" height="48" fill="#ffffff" stroke="#e9ecef" stroke-width="1" rx="4"/>
    <svg x="8" y="8" width="32" height="32" viewBox="0 0 24 24">
      
<g id="Menu / Close_LG">
<path id="Vector" d="M21 21L12 12M12 12L3 3M12 12L21.0001 3M12 12L3 21.0001" stroke="#2563eb" stroke-width="2" stroke-linecap="round" stroke-linejoin="round"/>
</g>

    </svg>
  </g>
  <!-- Icon 8: Rewind -->
  <g transform="translate(196, 152)">
    <rect width="48" height="48" fill="#ffffff" stroke="#e9ecef" stroke-width="1" rx="4"/>
    <svg x="8" y="8" width="32" height="32" viewBox="0 0 24 24">
      
<g id="Media / Rewind">
<path id="Vector" d="M12 12L21 17V7L12 12ZM12 12V7L3 12L12 17V12Z" stroke="#2563eb" stroke-width="2" stroke-linecap="round" stroke-linejoin="round"/>
</g>

    </svg>
  </g>
  <!-- Icon 9: Sun -->
  <g transform="translate(256, 152)">
    <rect width="48" height="48" fill="#ffffff" stroke="#e9ecef" stroke-width="1" rx="4"/>
    <svg x="8" y="8" width="32" height="32" viewBox="0 0 24 24">
      
<g id="Environment / Sun">
<path id="Vector" d="M12 4V2M12 20V22M6.41421 6.41421L5 5M17.728 17.728L19.1422 19.1422M4 12H2M20 12H22M17.7285 6.41421L19.1427 5M6.4147 17.728L5.00049 19.1422M12 17C9.23858 17 7 14.7614 7 12C7 9.23858 9.23858 7 12 7C14.7614 7 17 9.23858 17 12C17 14.7614 14.7614 17 12 17Z" stroke="#2563eb" stroke-width="2" stroke-linecap="round" stroke-linejoin="round"/>
</g>

    </svg>
  </g>
  <!-- Icon 10: Notebook -->
  <g transform="translate(316, 152)">
    <rect width="48" height="48" fill="#ffffff" stroke="#e9ecef" stroke-width="1" rx="4"/>
    <svg x="8" y="8" width="32" height="32" viewBox="0 0 24 24">
      
<g id="File / Notebook">
<path id="Vector" d="M8 4H7.2002C6.08009 4 5.51962 4 5.0918 4.21799C4.71547 4.40973 4.40973 4.71547 4.21799 5.0918C4 5.51962 4 6.08009 4 7.2002V16.8002C4 17.9203 4 18.4801 4.21799 18.9079C4.40973 19.2842 4.71547 19.5905 5.0918 19.7822C5.5192 20 6.07899 20 7.19691 20H8M8 4H16.8002C17.9203 4 18.4796 4 18.9074 4.21799C19.2837 4.40973 19.5905 4.71547 19.7822 5.0918C20 5.5192 20 6.07899 20 7.19691V16.8036C20 17.9215 20 18.4805 19.7822 18.9079C19.5905 19.2842 19.2837 19.5905 18.9074 19.7822C18.48 20 17.921 20 16.8031 20H8M8 4V20M12 11H16M12 8H16" stroke="#2563eb" stroke-width="2" stroke-linecap="round" stroke-linejoin="round"/>
</g>

    </svg>
  </g>
  <!-- Icon 11: Folder_Code -->
  <g transform="translate(376, 152)">
    <rect width="48" height="48" fill="#ffffff" stroke="#e9ecef" stroke-width="1" rx="4"/>
    <svg x="8" y="8" width="32" height="32" viewBox="0 0 24 24">
      
<g id="File / Folder_Code">
<path id="Vector" d="M14 11L16 13L14 15M10 15L8 13L10 11M3 6V16.8C3 17.9201 3 18.4798 3.21799 18.9076C3.40973 19.2839 3.71547 19.5905 4.0918 19.7822C4.5192 20 5.07899 20 6.19691 20H17.8031C18.921 20 19.48 20 19.9074 19.7822C20.2837 19.5905 20.5905 19.2841 20.7822 18.9078C21.0002 18.48 21.0002 17.9199 21.0002 16.7998L21.0002 9.19978C21.0002 8.07967 21.0002 7.51962 20.7822 7.0918C20.5905 6.71547 20.2839 6.40973 19.9076 6.21799C19.4798 6 18.9201 6 17.8 6H12M3 6H12M3 6C3 4.89543 3.89543 4 5 4H8.67452C9.1637 4 9.40886 4 9.63904 4.05526C9.84311 4.10425 10.0379 4.18526 10.2168 4.29492C10.4186 4.41857 10.5918 4.59182 10.9375 4.9375L12 6" stroke="#2563eb" stroke-width="2" stroke-linecap="round" stroke-linejoin="round"/>
</g>

    </svg>
  </g>
  <!-- Icon 12: File_Code -->
  <g transform="translate(436, 152)">
    <rect width="48" height="48" fill="#ffffff" stroke="#e9ecef" stroke-width="1" rx="4"/>
    <svg x="8" y="8" width="32" height="32" viewBox="0 0 24 24">
      
<g id="File / File_Code">
<path id="Vector" d="M13 3.00087C12.9045 3 12.7973 3 12.6747 3H8.2002C7.08009 3 6.51962 3 6.0918 3.21799C5.71547 3.40973 5.40973 3.71547 5.21799 4.0918C5 4.51962 5 5.08009 5 6.2002V17.8002C5 18.9203 5 19.4801 5.21799 19.9079C5.40973 20.2842 5.71547 20.5905 6.0918 20.7822C6.51921 21 7.079 21 8.19694 21L15.8031 21C16.921 21 17.48 21 17.9074 20.7822C18.2837 20.5905 18.5905 20.2842 18.7822 19.9079C19 19.4805 19 18.9215 19 17.8036V9.32568C19 9.20296 19 9.09561 18.9991 9M13 3.00087C13.2856 3.00347 13.4663 3.01385 13.6388 3.05526C13.8429 3.10425 14.0379 3.18526 14.2168 3.29492C14.4186 3.41857 14.5918 3.59182 14.9375 3.9375L18.063 7.06298C18.4089 7.40889 18.5809 7.58136 18.7046 7.78319C18.8142 7.96214 18.8953 8.15726 18.9443 8.36133C18.9857 8.53376 18.9963 8.71451 18.9991 9M13 3.00087V5.8C13 6.9201 13 7.47977 13.218 7.90759C13.4097 8.28392 13.7155 8.59048 14.0918 8.78223C14.5192 9 15.079 9 16.1969 9H18.9991M18.9991 9H19.0002M14 13L16 15L14 17M10 17L8 15L10 13" stroke="#2563eb" stroke-width="2" stroke-linecap="round" stroke-linejoin="round"/>
</g>

    </svg>
  </g>
  <!-- Icon 13: Cloud_Add -->
  <g transform="translate(496, 152)">
    <rect width="48" height="48" fill="#ffffff" stroke="#e9ecef" stroke-width="1" rx="4"/>
    <svg x="8" y="8" width="32" height="32" viewBox="0 0 24 24">
      
<g id="File / Cloud_Add">
<path id="Vector" d="M12 16V13M12 13V10M12 13H9M12 13H15M23 15C23 12.7909 21.2091 11 19 11C18.9764 11 18.9532 11.0002 18.9297 11.0006C18.4447 7.60802 15.5267 5 12 5C9.20335 5 6.79019 6.64004 5.66895 9.01082C3.06206 9.18144 1 11.3498 1 13.9999C1 16.7613 3.23858 19.0001 6 19.0001L19 19C21.2091 19 23 17.2091 23 15Z" stroke="#2563eb" stroke-width="2" stroke-linecap="round" stroke-linejoin="round"/>
</g>

    </svg>
  </g>
  <!-- Icon 14: Star -->
  <g transform="translate(556, 152)">
    <rect width="48" height="48" fill="#ffffff" stroke="#e9ecef" stroke-width="1" rx="4"/>
    <svg x="8" y="8" width="32" height="32" viewBox="0 0 24 24">
      
<g id="Interface / Star">
<path id="Vector" d="M2.33496 10.3368C2.02171 10.0471 2.19187 9.52339 2.61557 9.47316L8.61914 8.76107C8.79182 8.74059 8.94181 8.63215 9.01465 8.47425L11.5469 2.98446C11.7256 2.59703 12.2764 2.59695 12.4551 2.98439L14.9873 8.47413C15.0601 8.63204 15.2092 8.74077 15.3818 8.76124L21.3857 9.47316C21.8094 9.52339 21.9791 10.0472 21.6659 10.3369L17.2278 14.4419C17.1001 14.56 17.0433 14.7357 17.0771 14.9063L18.255 20.8359C18.3382 21.2544 17.8928 21.5787 17.5205 21.3703L12.2451 18.4166C12.0934 18.3317 11.9091 18.3321 11.7573 18.417L6.48144 21.3695C6.10913 21.5779 5.66294 21.2544 5.74609 20.8359L6.92414 14.9066C6.95803 14.7361 6.90134 14.5599 6.77367 14.4419L2.33496 10.3368Z" stroke="#2563eb" stroke-width="2" stroke-linecap="round" stroke-linejoin="round"/>
</g>

    </svg>
  </g>
  <!-- Icon 15: Radio_Fill -->
  <g transform="translate(196, 212)">
    <rect width="48" height="48" fill="#ffffff" stroke="#e9ecef" stroke-width="1" rx="4"/>
    <svg x="8" y="8" width="32" height="32" viewBox="0 0 24 24">
      
<g id="Interface / Radio_Fill">
<g id="Vector">
<path d="M12 4C7.58172 4 4 7.58172 4 12C4 16.4183 7.58172 20 12 20C16.4183 20 20 16.4183 20 12C20 7.58172 16.4183 4 12 4Z" stroke="#2563eb" stroke-width="2" stroke-linecap="round" stroke-linejoin="round"/>
<path d="M12 9C10.3431 9 9 10.3431 9 12C9 13.6569 10.3431 15 12 15C13.6569 15 15 13.6569 15 12C15 10.3431 13.6569 9 12 9Z" stroke="#2563eb" stroke-width="2" stroke-linecap="round" stroke-linejoin="round"/>
</g>
</g>

    </svg>
  </g>
  <!-- Icon 16: Link_Break -->
  <g transform="translate(256, 212)">
    <rect width="48" height="48" fill="#ffffff" stroke="#e9ecef" stroke-width="1" rx="4"/>
    <svg x="8" y="8" width="32" height="32" viewBox="0 0 24 24">
      
<g id="Interface / Link_Break">
<path id="Vector" d="M16 20V18M18 16H20M7.04996 11.293L5.63574 12.7072C4.07365 14.2693 4.07466 16.8016 5.63675 18.3637C7.19885 19.9258 9.7308 19.9262 11.2929 18.3641L12.7076 16.9497M6 8H4M8 4V6M11.293 7.05044L12.7072 5.63623C14.2693 4.07413 16.8016 4.07368 18.3637 5.63578C19.9258 7.19787 19.9254 9.7308 18.3633 11.2929L16.9492 12.7071" stroke="#2563eb" stroke-width="2" stroke-linecap="round" stroke-linejoin="round"/>
</g>

    </svg>
  </g>
  <!-- Icon 17: Filter_Off -->
  <g transform="translate(316, 212)">
    <rect width="48" height="48" fill="#ffffff" stroke="#e9ecef" stroke-width="1" rx="4"/>
    <svg x="8" y="8" width="32" height="32" viewBox="0 0 24 24">
      
<g id="Interface / Filter_Off">
<path id="Vector" d="M13 4H18.4C18.9601 4 19.2409 4 19.4548 4.10899C19.6429 4.20487 19.7948 4.35774 19.8906 4.5459C19.9996 4.75981 20 5.04005 20 5.6001V6.3448C20 6.58444 20 6.70551 19.9727 6.81942C19.9482 6.92146 19.9072 7.01893 19.8524 7.1084C19.7906 7.20931 19.7043 7.2958 19.5314 7.46875L18 9.00012M7.49961 4H5.59961C5.03956 4 4.75981 4 4.5459 4.10899C4.35774 4.20487 4.20487 4.35774 4.10899 4.5459C4 4.75981 4 5.04005 4 5.6001V6.33736C4 6.58195 4 6.70433 4.02763 6.81942C4.05213 6.92146 4.09263 7.01893 4.14746 7.1084C4.20928 7.20928 4.29591 7.29591 4.46875 7.46875L9.53149 12.5315C9.70443 12.7044 9.79044 12.7904 9.85228 12.8914C9.90711 12.9808 9.94816 13.0786 9.97266 13.1807C10 13.2946 10 13.4155 10 13.6552V18.411C10 19.2682 10 19.6971 10.1805 19.9552C10.3382 20.1806 10.5814 20.331 10.8535 20.3712C11.1651 20.4172 11.5487 20.2257 12.3154 19.8424L13.1154 19.4424C13.4365 19.2819 13.5966 19.2013 13.7139 19.0815C13.8176 18.9756 13.897 18.8485 13.9453 18.7083C14 18.5499 14 18.37 14 18.011V13.6626C14 13.418 14 13.2958 14.0276 13.1807C14.0521 13.0786 14.0926 12.9809 14.1475 12.8915C14.2091 12.7909 14.2952 12.7048 14.4669 12.5331L14.4688 12.5314L15.5001 11.5001M15.5001 11.5001L5 1M15.5001 11.5001L19 15" stroke="#2563eb" stroke-width="2" stroke-linecap="round" stroke-linejoin="round"/>
</g>

    </svg>
  </g>
  <!-- Icon 18: Credit_Card_01 -->
  <g transform="translate(376, 212)">
    <rect width="48" height="48" fill="#ffffff" stroke="#e9ecef" stroke-width="1" rx="4"/>
    <svg x="8" y="8" width="32" height="32" viewBox="0 0 24 24">
      
<g id="Interface / Credit_Card_01">
<path id="Vector" d="M3 11V15.8002C3 16.9203 3 17.4801 3.21799 17.9079C3.40973 18.2842 3.71547 18.5905 4.0918 18.7822C4.5192 19 5.07899 19 6.19691 19H17.8031C18.921 19 19.48 19 19.9074 18.7822C20.2837 18.5905 20.5905 18.2842 20.7822 17.9079C21 17.4805 21 16.9215 21 15.8036V11M3 11V9M3 11H21M3 9V8.2002C3 7.08009 3 6.51962 3.21799 6.0918C3.40973 5.71547 3.71547 5.40973 4.0918 5.21799C4.51962 5 5.08009 5 6.2002 5H17.8002C18.9203 5 19.4796 5 19.9074 5.21799C20.2837 5.40973 20.5905 5.71547 20.7822 6.0918C21 6.5192 21 7.07899 21 8.19691V9M3 9H21M7 15H11M21 11V9" stroke="#2563eb" stroke-width="2" stroke-linecap="round" stroke-linejoin="round"/>
</g>

    </svg>
  </g>
  <!-- Icon 19: Chart_Bar_Horizontal_01 -->
  <g transform="translate(436, 212)">
    <rect width="48" height="48" fill="#ffffff" stroke="#e9ecef" stroke-width="1" rx="4"/>
    <svg x="8" y="8" width="32" height="32" viewBox="0 0 24 24">
      
<g id="Interface / Chart_Bar_Horizontal_01">
<path id="Vector" d="M13 9H4M13 9V4.6001C13 4.04005 12.9996 3.75981 12.8906 3.5459C12.7948 3.35774 12.6429 3.20487 12.4548 3.10899C12.2409 3 11.9601 3 11.4 3H4V9M13 9H18.4C18.9601 9 19.2409 9 19.4548 9.10899C19.6429 9.20487 19.7948 9.35774 19.8906 9.5459C19.9996 9.75981 20 10.04 20 10.6001V13.4001C20 13.9601 19.9996 14.2398 19.8906 14.4537C19.7948 14.6419 19.6429 14.7952 19.4548 14.8911C19.2411 15 18.961 15 18.402 15H16M4 9V15M4 15V21H14.402C14.961 21 15.2411 21 15.4548 20.8911C15.6429 20.7952 15.7948 20.642 15.8906 20.4538C15.9996 20.2399 16 19.9601 16 19.4V15M4 15H16" stroke="#2563eb" stroke-width="2" stroke-linecap="round" stroke-linejoin="round"/>
</g>

    </svg>
  </g>
  <!-- Icon 20: Calendar_Days -->
  <g transform="translate(496, 212)">
    <rect width="48" height="48" fill="#ffffff" stroke="#e9ecef" stroke-width="1" rx="4"/>
    <svg x="8" y="8" width="32" height="32" viewBox="0 0 24 24">
      
<g id="Calendar / Calendar_Days">
<path id="Vector" d="M8 4H7.2002C6.08009 4 5.51962 4 5.0918 4.21799C4.71547 4.40973 4.40973 4.71547 4.21799 5.0918C4 5.51962 4 6.08009 4 7.2002V8M8 4H16M8 4V2M16 4H16.8002C17.9203 4 18.4796 4 18.9074 4.21799C19.2837 4.40973 19.5905 4.71547 19.7822 5.0918C20 5.5192 20 6.07899 20 7.19691V8M16 4V2M4 8V16.8002C4 17.9203 4 18.4801 4.21799 18.9079C4.40973 19.2842 4.71547 19.5905 5.0918 19.7822C5.5192 20 6.07899 20 7.19691 20H16.8031C17.921 20 18.48 20 18.9074 19.7822C19.2837 19.5905 19.5905 19.2842 19.7822 18.9079C20 18.4805 20 17.9215 20 16.8036V8M4 8H20M16 16H16.002L16.002 16.002L16 16.002V16ZM12 16H12.002L12.002 16.002L12 16.002V16ZM8 16H8.002L8.00195 16.002L8 16.002V16ZM16.002 12V12.002L16 12.002V12H16.002ZM12 12H12.002L12.002 12.002L12 12.002V12ZM8 12H8.002L8.00195 12.002L8 12.002V12Z" stroke="#2563eb" stroke-width="2" stroke-linecap="round" stroke-linejoin="round"/>
</g>

    </svg>
  </g>
  <!-- Icon 21: Chat_Remove -->
  <g transform="translate(556, 212)">
    <rect width="48" height="48" fill="#ffffff" stroke="#e9ecef" stroke-width="1" rx="4"/>
    <svg x="8" y="8" width="32" height="32" viewBox="0 0 24 24">
      
<g id="Communication / Chat_Remove">
<path id="Vector" d="M9 11H15M7.12357 18.7012L5.59961 19.9203C4.76744 20.5861 4.35115 20.9191 4.00098 20.9195C3.69644 20.9198 3.40845 20.7813 3.21846 20.5433C3 20.2696 3 19.7369 3 18.6712V7.2002C3 6.08009 3 5.51962 3.21799 5.0918C3.40973 4.71547 3.71547 4.40973 4.0918 4.21799C4.51962 4 5.08009 4 6.2002 4H17.8002C18.9203 4 19.4796 4 19.9074 4.21799C20.2837 4.40973 20.5905 4.71547 20.7822 5.0918C21 5.5192 21 6.07899 21 7.19691V14.8036C21 15.9215 21 16.4805 20.7822 16.9079C20.5905 17.2842 20.2843 17.5905 19.908 17.7822C19.4806 18 18.921 18 17.8031 18H9.12207C8.70603 18 8.49877 18 8.2998 18.0408C8.12328 18.0771 7.95216 18.1368 7.79168 18.2188C7.61281 18.3101 7.45249 18.4384 7.13478 18.6926L7.12357 18.7012Z" stroke="#2563eb" stroke-width="2" stroke-linecap="round" stroke-linejoin="round"/>
</g>

    </svg>
  </g>
  <!-- Icon 22: Chat_Add -->
  <g transform="translate(196, 272)">
    <rect width="48" height="48" fill="#ffffff" stroke="#e9ecef" stroke-width="1" rx="4"/>
    <svg x="8" y="8" width="32" height="32" viewBox="0 0 24 24">
      
<g id="Communication / Chat_Add">
<path id="Vector" d="M12 14V11M12 11V8M12 11H9M12 11H15M7.12357 18.7012L5.59961 19.9203C4.76744 20.5861 4.35115 20.9191 4.00098 20.9195C3.69644 20.9198 3.40845 20.7813 3.21846 20.5433C3 20.2696 3 19.7369 3 18.6712V7.2002C3 6.08009 3 5.51962 3.21799 5.0918C3.40973 4.71547 3.71547 4.40973 4.0918 4.21799C4.51962 4 5.08009 4 6.2002 4H17.8002C18.9203 4 19.4801 4 19.9079 4.21799C20.2842 4.40973 20.5905 4.71547 20.7822 5.0918C21 5.5192 21 6.07899 21 7.19691V14.8036C21 15.9215 21 16.4805 20.7822 16.9079C20.5905 17.2842 20.2843 17.5905 19.908 17.7822C19.4806 18 18.9215 18 17.8036 18H9.12256C8.70652 18 8.49829 18 8.29932 18.0408C8.12279 18.0771 7.95216 18.1368 7.79168 18.2188C7.61149 18.3108 7.44964 18.4403 7.12722 18.6982L7.12357 18.7012Z" stroke="#2563eb" stroke-width="2" stroke-linecap="round" stroke-linejoin="round"/>
</g>

    </svg>
  </g>
  <!-- Icon 23: Text_Align_Left -->
  <g transform="translate(256, 272)">
    <rect width="48" height="48" fill="#ffffff" stroke="#e9ecef" stroke-width="1" rx="4"/>
    <svg x="8" y="8" width="32" height="32" viewBox="0 0 24 24">
      
<g id="Edit / Text_Align_Left">
<path id="Vector" d="M4 18H14M4 14H20M4 10H14M4 6H20" stroke="#2563eb" stroke-width="2" stroke-linecap="round" stroke-linejoin="round"/>
</g>

    </svg>
  </g>
  <!-- Icon 24: Single_Quotes_L -->
  <g transform="translate(316, 272)">
    <rect width="48" height="48" fill="#ffffff" stroke="#e9ecef" stroke-width="1" rx="4"/>
    <svg x="8" y="8" width="32" height="32" viewBox="0 0 24 24">
      
<g id="Edit / Single_Quotes_L">
<path id="Vector" d="M10 12V15.4C10 15.9601 10 16.2399 10.109 16.4538C10.2049 16.642 10.3577 16.7952 10.5459 16.8911C10.7596 17 11.0395 17 11.5985 17H13.4015C13.9605 17 14.24 17 14.4537 16.8911C14.6419 16.7952 14.7952 16.6419 14.8911 16.4537C15 16.24 15 15.9605 15 15.4015V13.5985C15 13.0395 15 12.7596 14.8911 12.5459C14.7952 12.3577 14.642 12.2049 14.4538 12.109C14.2399 12 13.9601 12 13.4 12H10ZM10 12V10C10 8.34315 11.3431 7 13 7" stroke="#2563eb" stroke-width="2" stroke-linecap="round" stroke-linejoin="round"/>
</g>

    </svg>
  </g>
  <!-- Icon 25: Move_Vertical -->
  <g transform="translate(376, 272)">
    <rect width="48" height="48" fill="#ffffff" stroke="#e9ecef" stroke-width="1" rx="4"/>
    <svg x="8" y="8" width="32" height="32" viewBox="0 0 24 24">
      
<g id="Edit / Move_Vertical">
<path id="Vector" d="M12 21V3M12 21L15 18M12 21L9 18M12 3L9 6M12 3L15 6" stroke="#2563eb" stroke-width="2" stroke-linecap="round" stroke-linejoin="round"/>
</g>

    </svg>
  </g>
  <!-- Icon 26: Italic -->
  <g transform="translate(436, 272)">
    <rect width="48" height="48" fill="#ffffff" stroke="#e9ecef" stroke-width="1" rx="4"/>
    <svg x="8" y="8" width="32" height="32" viewBox="0 0 24 24">
      
<g id="Edit / Italic">
<path id="Vector" d="M8 19H10M10 19H12M10 19L14 5M12 5H14M14 5H16" stroke="#2563eb" stroke-width="2" stroke-linecap="round" stroke-linejoin="round"/>
</g>

    </svg>
  </g>
  <!-- Icon 27: Edit_Pencil_Line_01 -->
  <g transform="translate(496, 272)">
    <rect width="48" height="48" fill="#ffffff" stroke="#e9ecef" stroke-width="1" rx="4"/>
    <svg x="8" y="8" width="32" height="32" viewBox="0 0 24 24">
      
<g id="Edit / Edit_Pencil_Line_01">
<path id="Vector" d="M4 20.0001H20M4 20.0001V16.0001L12 8.00012M4 20.0001L8 20.0001L16 12.0001M12 8.00012L14.8686 5.13146L14.8704 5.12976C15.2652 4.73488 15.463 4.53709 15.691 4.46301C15.8919 4.39775 16.1082 4.39775 16.3091 4.46301C16.5369 4.53704 16.7345 4.7346 17.1288 5.12892L18.8686 6.86872C19.2646 7.26474 19.4627 7.46284 19.5369 7.69117C19.6022 7.89201 19.6021 8.10835 19.5369 8.3092C19.4628 8.53736 19.265 8.73516 18.8695 9.13061L18.8686 9.13146L16 12.0001M12 8.00012L16 12.0001" stroke="#2563eb" stroke-width="2" stroke-linecap="round" stroke-linejoin="round"/>
</g>

    </svg>
  </g>
  <!-- Icon 28: Close_Circle -->
  <g transform="translate(556, 272)">
    <rect width="48" height="48" fill="#ffffff" stroke="#e9ecef" stroke-width="1" rx="4"/>
    <svg x="8" y="8" width="32" height="32" viewBox="0 0 24 24">
      
<g id="Edit / Close_Circle">
<path id="Vector" d="M9 9L11.9999 11.9999M11.9999 11.9999L14.9999 14.9999M11.9999 11.9999L9 14.9999M11.9999 11.9999L14.9999 9M12 21C7.02944 21 3 16.9706 3 12C3 7.02944 7.02944 3 12 3C16.9706 3 21 7.02944 21 12C21 16.9706 16.9706 21 12 21Z" stroke="#2563eb" stroke-width="2" stroke-linecap="round" stroke-linejoin="round"/>
</g>

    </svg>
  </g>
  <!-- Icon 29: Window_Close -->
  <g transform="translate(196, 332)">
    <rect width="48" height="48" fill="#ffffff" stroke="#e9ecef" stroke-width="1" rx="4"/>
    <svg x="8" y="8" width="32" height="32" viewBox="0 0 24 24">
      
<g id="System / Window_Close">
<path id="Vector" d="M3 6H3.01919M3.01919 6H20.9809M3.01919 6C3 6.31438 3 6.70191 3 7.2002V16.8002C3 17.9203 3 18.4796 3.21799 18.9074C3.40973 19.2837 3.71547 19.5905 4.0918 19.7822C4.51921 20 5.079 20 6.19694 20L17.8031 20C18.921 20 19.48 20 19.9074 19.7822C20.2837 19.5905 20.5905 19.2837 20.7822 18.9074C21 18.48 21 17.921 21 16.8031L21 7.19691C21 6.70021 21 6.31368 20.9809 6M3.01919 6C3.04314 5.60768 3.09697 5.3293 3.21799 5.0918C3.40973 4.71547 3.71547 4.40973 4.0918 4.21799C4.51962 4 5.08009 4 6.2002 4H17.8002C18.9203 4 19.4796 4 19.9074 4.21799C20.2837 4.40973 20.5905 4.71547 20.7822 5.0918C20.9032 5.3293 20.957 5.60768 20.9809 6M20.9809 6H21M10 15L12 13M12 13L14 11M12 13L10 11M12 13L14 15" stroke="#2563eb" stroke-width="2" stroke-linecap="round" stroke-linejoin="round"/>
</g>

    </svg>
  </g>
  <!-- Icon 30: Save -->
  <g transform="translate(256, 332)">
    <rect width="48" height="48" fill="#ffffff" stroke="#e9ecef" stroke-width="1" rx="4"/>
    <svg x="8" y="8" width="32" height="32" viewBox="0 0 24 24">
      
<g id="System / Save">
<path id="Vector" d="M17 21.0002L7 21M17 21.0002L17.8031 21C18.921 21 19.48 21 19.9074 20.7822C20.2837 20.5905 20.5905 20.2843 20.7822 19.908C21 19.4806 21 18.921 21 17.8031V9.21955C21 8.77072 21 8.54521 20.9521 8.33105C20.9095 8.14 20.8393 7.95652 20.7432 7.78595C20.6366 7.59674 20.487 7.43055 20.1929 7.10378L17.4377 4.04241C17.0969 3.66374 16.9242 3.47181 16.7168 3.33398C16.5303 3.21 16.3242 3.11858 16.1073 3.06287C15.8625 3 15.5998 3 15.075 3H6.2002C5.08009 3 4.51962 3 4.0918 3.21799C3.71547 3.40973 3.40973 3.71547 3.21799 4.0918C3 4.51962 3 5.08009 3 6.2002V17.8002C3 18.9203 3 19.4796 3.21799 19.9074C3.40973 20.2837 3.71547 20.5905 4.0918 20.7822C4.5192 21 5.07899 21 6.19691 21H7M17 21.0002V17.1969C17 16.079 17 15.5192 16.7822 15.0918C16.5905 14.7155 16.2837 14.4097 15.9074 14.218C15.4796 14 14.9203 14 13.8002 14H10.2002C9.08009 14 8.51962 14 8.0918 14.218C7.71547 14.4097 7.40973 14.7155 7.21799 15.0918C7 15.5196 7 16.0801 7 17.2002V21M15 7H9" stroke="#2563eb" stroke-width="2" stroke-linecap="round" stroke-linejoin="round"/>
</g>

    </svg>
  </g>
  <!-- Icon 31: Desktop_Tower -->
  <g transform="translate(316, 332)">
    <rect width="48" height="48" fill="#ffffff" stroke="#e9ecef" stroke-width="1" rx="4"/>
    <svg x="8" y="8" width="32" height="32" viewBox="0 0 24 24">
      
<g id="System / Desktop_Tower">
<path id="Vector" d="M10 20H7M18 17H16M13.0002 9H6.2002C5.08009 9 4.51962 9 4.0918 9.21799C3.71547 9.40973 3.40973 9.71547 3.21799 10.0918C3 10.5196 3 11.0801 3 12.2002V13.8002C3 14.9203 3 15.4796 3.21799 15.9074C3.40973 16.2837 3.71547 16.5905 4.0918 16.7822C4.5192 17 5.07899 17 6.19691 17H13.0001M13.0002 9L13 16.8002C13 16.8689 13 16.9354 13.0001 17M13.0002 9L13 7.2002C13 6.08009 13 5.51962 13.218 5.0918C13.4097 4.71547 13.7155 4.40973 14.0918 4.21799C14.5196 4 15.0801 4 16.2002 4H17.8002C18.9203 4 19.4796 4 19.9074 4.21799C20.2837 4.40973 20.5905 4.71547 20.7822 5.0918C21 5.5192 21 6.07899 21 7.19691V16.8031C21 17.921 21 18.48 20.7822 18.9074C20.5905 19.2837 20.2837 19.5905 19.9074 19.7822C19.48 20 18.921 20 17.8031 20H16.1969C15.079 20 14.5192 20 14.0918 19.7822C13.7155 19.5905 13.4097 19.2837 13.218 18.9074C13.0134 18.5058 13.0008 17.9884 13.0001 17M17.002 7V7.002L17 7.00195V7H17.002Z" stroke="#2563eb" stroke-width="2" stroke-linecap="round" stroke-linejoin="round"/>
</g>

    </svg>
  </g>
  <!-- Icon 32: Shrink -->
  <g transform="translate(376, 332)">
    <rect width="48" height="48" fill="#ffffff" stroke="#e9ecef" stroke-width="1" rx="4"/>
    <svg x="8" y="8" width="32" height="32" viewBox="0 0 24 24">
      
<g id="Arrow / Shrink">
<path id="Vector" d="M5 14H10V19M19 10H14V5" stroke="#2563eb" stroke-width="2" stroke-linecap="round" stroke-linejoin="round"/>
</g>

    </svg>
  </g>
  <!-- Icon 33: Caret_Up_SM -->
  <g transform="translate(436, 332)">
    <rect width="48" height="48" fill="#ffffff" stroke="#e9ecef" stroke-width="1" rx="4"/>
    <svg x="8" y="8" width="32" height="32" viewBox="0 0 24 24">
      
<g id="Arrow / Caret_Up_SM">
<path id="Vector" d="M9 13L12 10L15 13" stroke="#2563eb" stroke-width="2" stroke-linecap="round" stroke-linejoin="round"/>
</g>

    </svg>
  </g>
  <!-- Icon 34: Arrow_Up_Right_SM -->
  <g transform="translate(496, 332)">
    <rect width="48" height="48" fill="#ffffff" stroke="#e9ecef" stroke-width="1" rx="4"/>
    <svg x="8" y="8" width="32" height="32" viewBox="0 0 24 24">
      
<g id="Arrow / Arrow_Up_Right_SM">
<path id="Vector" d="M8 16L16 8M16 8H10M16 8V14" stroke="#2563eb" stroke-width="2" stroke-linecap="round" stroke-linejoin="round"/>
</g>

    </svg>
  </g>
  <!-- Icon 35: Arrow_Sub_Up_Right -->
  <g transform="translate(556, 332)">
    <rect width="48" height="48" fill="#ffffff" stroke="#e9ecef" stroke-width="1" rx="4"/>
    <svg x="8" y="8" width="32" height="32" viewBox="0 0 24 24">
      
<g id="Arrow / Arrow_Sub_Up_Right">
<path id="Vector" d="M13 13L18 8M18 8L13 3M18 8H10.2002C9.08009 8 8.51962 8 8.0918 8.21799C7.71547 8.40973 7.40973 8.71547 7.21799 9.0918C7 9.51962 7 10.0801 7 11.2002V21.0002" stroke="#2563eb" stroke-width="2" stroke-linecap="round" stroke-linejoin="round"/>
</g>

    </svg>
  </g>
  
  <!-- Footer -->
  <text x="400" y="580" text-anchor="middle" font-family="system-ui, -apple-system, sans-serif" font-size="12" fill="#6c757d">
    Showing 35 of 442 icons
  </text>
  
</svg>