<svg width="800" height="600" xmlns="http://www.w3.org/2000/svg">
  <!-- Background -->
  <rect width="800" height="600" fill="#ffffff"/>
  
  <!-- Header Background -->
  <rect width="800" height="80" fill="#f8f9fa"/>
  
  <!-- Title -->
  <text x="400" y="30" text-anchor="middle" font-family="system-ui, -apple-system, sans-serif" font-size="20" font-weight="bold" fill="#212529">CSS.gg</text>
  
  <!-- Subtitle -->
  <text x="400" y="55" text-anchor="middle" font-family="system-ui, -apple-system, sans-serif" font-size="14" fill="#6c757d">704 icons</text>
  
  <!-- Icon Grid -->
  <!-- Icon 1: zoom-out -->
  <g transform="translate(12, 92)">
    <rect width="48" height="48" fill="#ffffff" stroke="#e9ecef" stroke-width="1" rx="4"/>
    <svg x="8" y="8" width="32" height="32" viewBox="0 0 24 24">
      
  <path
    fill-rule="evenodd"
    clip-rule="evenodd"
    d="M15.3431 15.2426C17.6863 12.8995 17.6863 9.1005 15.3431 6.75736C13 4.41421 9.20101 4.41421 6.85786 6.75736C4.51472 9.1005 4.51472 12.8995 6.85786 15.2426C9.20101 17.5858 13 17.5858 15.3431 15.2426ZM16.7574 5.34315C19.6425 8.22833 19.8633 12.769 17.4195 15.9075C17.4348 15.921 17.4498 15.9351 17.4645 15.9497L21.7071 20.1924C22.0976 20.5829 22.0976 21.2161 21.7071 21.6066C21.3166 21.9971 20.6834 21.9971 20.2929 21.6066L16.0503 17.364C16.0356 17.3493 16.0215 17.3343 16.008 17.319C12.8695 19.7628 8.32883 19.542 5.44365 16.6569C2.31946 13.5327 2.31946 8.46734 5.44365 5.34315C8.56785 2.21895 13.6332 2.21895 16.7574 5.34315ZM7.10052 10V12H15.1005V10L7.10052 10Z"
    fill="#2563eb"
  />

    </svg>
  </g>
  <!-- Icon 2: vercel -->
  <g transform="translate(72, 92)">
    <rect width="48" height="48" fill="#ffffff" stroke="#e9ecef" stroke-width="1" rx="4"/>
    <svg x="8" y="8" width="32" height="32" viewBox="0 0 24 24">
      
  <path
    d="M17.9923 17.0225L11.9806 6.97729L6.00775 17.0225H17.9923Z"
    fill="#2563eb"
  />

    </svg>
  </g>
  <!-- Icon 3: trending-down -->
  <g transform="translate(132, 92)">
    <rect width="48" height="48" fill="#ffffff" stroke="#e9ecef" stroke-width="1" rx="4"/>
    <svg x="8" y="8" width="32" height="32" viewBox="0 0 24 24">
      
  <path
    d="M1.85104 8.10628L0.436829 9.52049L7.5079 16.5916L13.8719 10.2276L18.1145 14.4702L16.3721 16.2126L23.0642 18.0058L21.2711 11.3136L19.5287 13.056L13.8719 7.39917L7.5079 13.7631L1.85104 8.10628Z"
    fill="#2563eb"
  />

    </svg>
  </g>
  <!-- Icon 4: timelapse -->
  <g transform="translate(192, 92)">
    <rect width="48" height="48" fill="#ffffff" stroke="#e9ecef" stroke-width="1" rx="4"/>
    <svg x="8" y="8" width="32" height="32" viewBox="0 0 24 24">
      
  <path
    d="M12 19C10.067 19 8.31704 18.2165 7.05029 16.9498L12 12L12 5C15.866 5 19 8.13401 19 12C19 15.866 15.866 19 12 19Z"
    fill="#2563eb"
  />
  <path
    fill-rule="evenodd"
    clip-rule="evenodd"
    d="M23 12C23 18.0751 18.0751 23 12 23C5.92487 23 1 18.0751 1 12C1 5.92487 5.92487 1 12 1C18.0751 1 23 5.92487 23 12ZM21 12C21 16.9706 16.9706 21 12 21C7.02944 21 3 16.9706 3 12C3 7.02944 7.02944 3 12 3C16.9706 3 21 7.02944 21 12Z"
    fill="#2563eb"
  />

    </svg>
  </g>
  <!-- Icon 5: sun -->
  <g transform="translate(252, 92)">
    <rect width="48" height="48" fill="#ffffff" stroke="#e9ecef" stroke-width="1" rx="4"/>
    <svg x="8" y="8" width="32" height="32" viewBox="0 0 24 24">
      
  <path
    fill-rule="evenodd"
    clip-rule="evenodd"
    d="M12 16C14.2091 16 16 14.2091 16 12C16 9.79086 14.2091 8 12 8C9.79086 8 8 9.79086 8 12C8 14.2091 9.79086 16 12 16ZM12 18C15.3137 18 18 15.3137 18 12C18 8.68629 15.3137 6 12 6C8.68629 6 6 8.68629 6 12C6 15.3137 8.68629 18 12 18Z"
    fill="#2563eb"
  />
  <path
    fill-rule="evenodd"
    clip-rule="evenodd"
    d="M11 0H13V4.06189C12.6724 4.02104 12.3387 4 12 4C11.6613 4 11.3276 4.02104 11 4.06189V0ZM7.0943 5.68018L4.22173 2.80761L2.80752 4.22183L5.6801 7.09441C6.09071 6.56618 6.56608 6.0908 7.0943 5.68018ZM4.06189 11H0V13H4.06189C4.02104 12.6724 4 12.3387 4 12C4 11.6613 4.02104 11.3276 4.06189 11ZM5.6801 16.9056L2.80751 19.7782L4.22173 21.1924L7.0943 18.3198C6.56608 17.9092 6.09071 17.4338 5.6801 16.9056ZM11 19.9381V24H13V19.9381C12.6724 19.979 12.3387 20 12 20C11.6613 20 11.3276 19.979 11 19.9381ZM16.9056 18.3199L19.7781 21.1924L21.1923 19.7782L18.3198 16.9057C17.9092 17.4339 17.4338 17.9093 16.9056 18.3199ZM19.9381 13H24V11H19.9381C19.979 11.3276 20 11.6613 20 12C20 12.3387 19.979 12.6724 19.9381 13ZM18.3198 7.0943L21.1923 4.22183L19.7781 2.80762L16.9056 5.6801C17.4338 6.09071 17.9092 6.56608 18.3198 7.0943Z"
    fill="#2563eb"
  />

    </svg>
  </g>
  <!-- Icon 6: smile-upside -->
  <g transform="translate(312, 92)">
    <rect width="48" height="48" fill="#ffffff" stroke="#e9ecef" stroke-width="1" rx="4"/>
    <svg x="8" y="8" width="32" height="32" viewBox="0 0 24 24">
      
  <path
    d="M16 11H14C14 9.89543 13.1046 9 12 9C10.8954 9 10 9.89543 10 11H8C8 8.79086 9.79086 7 12 7C14.2091 7 16 8.79086 16 11Z"
    fill="#2563eb"
  />
  <path
    d="M10 14C10 13.4477 9.55228 13 9 13C8.44772 13 8 13.4477 8 14C8 14.5523 8.44772 15 9 15C9.55228 15 10 14.5523 10 14Z"
    fill="#2563eb"
  />
  <path
    d="M15 13C15.5523 13 16 13.4477 16 14C16 14.5523 15.5523 15 15 15C14.4477 15 14 14.5523 14 14C14 13.4477 14.4477 13 15 13Z"
    fill="#2563eb"
  />
  <path
    fill-rule="evenodd"
    clip-rule="evenodd"
    d="M22 12C22 6.47715 17.5228 2 12 2C6.47715 2 2 6.47715 2 12C2 17.5228 6.47715 22 12 22C17.5228 22 22 17.5228 22 12ZM20 12C20 7.58172 16.4183 4 12 4C7.58172 4 4 7.58172 4 12C4 16.4183 7.58172 20 12 20C16.4183 20 20 16.4183 20 12Z"
    fill="#2563eb"
  />

    </svg>
  </g>
  <!-- Icon 7: signal -->
  <g transform="translate(372, 92)">
    <rect width="48" height="48" fill="#ffffff" stroke="#e9ecef" stroke-width="1" rx="4"/>
    <svg x="8" y="8" width="32" height="32" viewBox="0 0 24 24">
      
  <path
    d="M15 7C15 6.44772 15.4477 6 16 6C16.5523 6 17 6.44772 17 7V17C17 17.5523 16.5523 18 16 18C15.4477 18 15 17.5523 15 17V7Z"
    fill="#2563eb"
  />
  <path
    d="M7 15C7 14.4477 7.44772 14 8 14C8.55228 14 9 14.4477 9 15V17C9 17.5523 8.55228 18 8 18C7.44772 18 7 17.5523 7 17V15Z"
    fill="#2563eb"
  />
  <path
    d="M12 10C11.4477 10 11 10.4477 11 11V17C11 17.5523 11.4477 18 12 18C12.5523 18 13 17.5523 13 17V11C13 10.4477 12.5523 10 12 10Z"
    fill="#2563eb"
  />

    </svg>
  </g>
  <!-- Icon 8: select-r -->
  <g transform="translate(12, 152)">
    <rect width="48" height="48" fill="#ffffff" stroke="#e9ecef" stroke-width="1" rx="4"/>
    <svg x="8" y="8" width="32" height="32" viewBox="0 0 24 24">
      
  <path
    d="M9.17154 11.508L7.75732 10.0938L12 5.85113L16.2426 10.0938L14.8284 11.508L12 8.67956L9.17154 11.508Z"
    fill="#2563eb"
  />
  <path
    d="M9.17154 12.492L7.75732 13.9062L12 18.1489L16.2426 13.9062L14.8284 12.492L12 15.3204L9.17154 12.492Z"
    fill="#2563eb"
  />
  <path
    fill-rule="evenodd"
    clip-rule="evenodd"
    d="M1 5C1 2.79086 2.79086 1 5 1H19C21.2091 1 23 2.79086 23 5V19C23 21.2091 21.2091 23 19 23H5C2.79086 23 1 21.2091 1 19V5ZM5 3H19C20.1046 3 21 3.89543 21 5V19C21 20.1046 20.1046 21 19 21H5C3.89543 21 3 20.1046 3 19V5C3 3.89543 3.89543 3 5 3Z"
    fill="#2563eb"
  />

    </svg>
  </g>
  <!-- Icon 9: remove -->
  <g transform="translate(72, 152)">
    <rect width="48" height="48" fill="#ffffff" stroke="#e9ecef" stroke-width="1" rx="4"/>
    <svg x="8" y="8" width="32" height="32" viewBox="0 0 24 24">
      
  <path
    d="M8 11C7.44772 11 7 11.4477 7 12C7 12.5523 7.44772 13 8 13H16C16.5523 13 17 12.5523 17 12C17 11.4477 16.5523 11 16 11H8Z"
    fill="#2563eb"
  />
  <path
    fill-rule="evenodd"
    clip-rule="evenodd"
    d="M23 12C23 18.0751 18.0751 23 12 23C5.92487 23 1 18.0751 1 12C1 5.92487 5.92487 1 12 1C18.0751 1 23 5.92487 23 12ZM21 12C21 16.9706 16.9706 21 12 21C7.02944 21 3 16.9706 3 12C3 7.02944 7.02944 3 12 3C16.9706 3 21 7.02944 21 12Z"
    fill="#2563eb"
  />

    </svg>
  </g>
  <!-- Icon 10: push-chevron-right -->
  <g transform="translate(132, 152)">
    <rect width="48" height="48" fill="#ffffff" stroke="#e9ecef" stroke-width="1" rx="4"/>
    <svg x="8" y="8" width="32" height="32" viewBox="0 0 24 24">
      
  <path
    d="M7.41421 5L6 6.41421L11.6569 12.0711L6 17.7279L7.41421 19.1421L14.4853 12.0711L7.41421 5Z"
    fill="#2563eb"
  />
  <path d="M16.3432 19V5H18.3432V19H16.3432Z" fill="#2563eb" />

    </svg>
  </g>
  <!-- Icon 11: play-track-prev-r -->
  <g transform="translate(192, 152)">
    <rect width="48" height="48" fill="#ffffff" stroke="#e9ecef" stroke-width="1" rx="4"/>
    <svg x="8" y="8" width="32" height="32" viewBox="0 0 24 24">
      
  <path
    fill-rule="evenodd"
    clip-rule="evenodd"
    d="M8 8C8.55228 8 9 8.44772 9 9V15C9 15.5523 8.55228 16 8 16C7.44771 16 7 15.5523 7 15V9C7 8.44772 7.44771 8 8 8ZM16 15.4641L10 12L16 8.5359V15.4641Z"
    fill="#2563eb"
  />
  <path
    fill-rule="evenodd"
    clip-rule="evenodd"
    d="M19 3H5C3.89543 3 3 3.89543 3 5V19C3 20.1046 3.89543 21 5 21H19C20.1046 21 21 20.1046 21 19V5C21 3.89543 20.1046 3 19 3ZM5 1C2.79086 1 1 2.79086 1 5V19C1 21.2091 2.79086 23 5 23H19C21.2091 23 23 21.2091 23 19V5C23 2.79086 21.2091 1 19 1H5Z"
    fill="#2563eb"
  />

    </svg>
  </g>
  <!-- Icon 12: play-backwards -->
  <g transform="translate(252, 152)">
    <rect width="48" height="48" fill="#ffffff" stroke="#e9ecef" stroke-width="1" rx="4"/>
    <svg x="8" y="8" width="32" height="32" viewBox="0 0 24 24">
      
  <path d="M2 7H5V17H2V7Z" fill="#2563eb" />
  <path d="M6 12L13.0023 7.00003V17L6 12Z" fill="#2563eb" />
  <path d="M21.0023 7.00003L14 12L21.0023 17V7.00003Z" fill="#2563eb" />

    </svg>
  </g>
  <!-- Icon 13: paypal -->
  <g transform="translate(312, 152)">
    <rect width="48" height="48" fill="#ffffff" stroke="#e9ecef" stroke-width="1" rx="4"/>
    <svg x="8" y="8" width="32" height="32" viewBox="0 0 24 24">
      
  <path
    fill-rule="evenodd"
    clip-rule="evenodd"
    d="M6.47005 3.54443H14.4701C16.1089 3.54443 17.4146 4.31866 18.0963 5.51496C19.3165 6.38743 19.9427 7.91487 19.6082 9.65332C19.0865 12.365 16.425 14.5633 13.6636 14.5633H11.6636L10.5301 20.4553H6.39824L6.62891 19.2563H3.44727L6.47005 3.54443ZM8.0922 5.50842H14.0922C15.7491 5.50842 16.8385 6.82737 16.5254 8.45439C16.2124 10.0814 14.6155 11.4004 12.9587 11.4004H8.95866L7.82511 17.2923H5.82511L8.0922 5.50842Z"
    fill="#2563eb"
  />

    </svg>
  </g>
  <!-- Icon 14: notes -->
  <g transform="translate(372, 152)">
    <rect width="48" height="48" fill="#ffffff" stroke="#e9ecef" stroke-width="1" rx="4"/>
    <svg x="8" y="8" width="32" height="32" viewBox="0 0 24 24">
      
  <path
    d="M6 6C6 5.44772 6.44772 5 7 5H17C17.5523 5 18 5.44772 18 6C18 6.55228 17.5523 7 17 7H7C6.44771 7 6 6.55228 6 6Z"
    fill="#2563eb"
  />
  <path
    d="M6 10C6 9.44771 6.44772 9 7 9H17C17.5523 9 18 9.44771 18 10C18 10.5523 17.5523 11 17 11H7C6.44771 11 6 10.5523 6 10Z"
    fill="#2563eb"
  />
  <path
    d="M7 13C6.44772 13 6 13.4477 6 14C6 14.5523 6.44771 15 7 15H17C17.5523 15 18 14.5523 18 14C18 13.4477 17.5523 13 17 13H7Z"
    fill="#2563eb"
  />
  <path
    d="M6 18C6 17.4477 6.44772 17 7 17H11C11.5523 17 12 17.4477 12 18C12 18.5523 11.5523 19 11 19H7C6.44772 19 6 18.5523 6 18Z"
    fill="#2563eb"
  />
  <path
    fill-rule="evenodd"
    clip-rule="evenodd"
    d="M2 4C2 2.34315 3.34315 1 5 1H19C20.6569 1 22 2.34315 22 4V20C22 21.6569 20.6569 23 19 23H5C3.34315 23 2 21.6569 2 20V4ZM5 3H19C19.5523 3 20 3.44771 20 4V20C20 20.5523 19.5523 21 19 21H5C4.44772 21 4 20.5523 4 20V4C4 3.44772 4.44771 3 5 3Z"
    fill="#2563eb"
  />

    </svg>
  </g>
  <!-- Icon 15: monday -->
  <g transform="translate(12, 212)">
    <rect width="48" height="48" fill="#ffffff" stroke="#e9ecef" stroke-width="1" rx="4"/>
    <svg x="8" y="8" width="32" height="32" viewBox="0 0 24 24">
      
  <path
    d="M6.77857 6.13915C7.7289 4.78193 9.59953 4.45209 10.9568 5.40242C12.314 6.35275 12.6438 8.22339 11.6935 9.58061L5.95771 17.7721C5.00738 19.1293 3.13674 19.4592 1.77953 18.5089C0.422312 17.5585 0.0924684 15.6879 1.0428 14.3307L6.77857 6.13915Z"
    fill="#2563eb"
  />
  <path
    d="M15.2678 6.22811C16.2182 4.8709 18.0888 4.54105 19.446 5.49138C20.8032 6.44172 21.1331 8.31235 20.1827 9.66957L14.447 17.8611C13.4966 19.2183 11.626 19.5481 10.2688 18.5978C8.91158 17.6475 8.58173 15.7768 9.53207 14.4196L15.2678 6.22811Z"
    fill="#2563eb"
  />
  <path
    d="M20.5 18.8596C22.1569 18.8596 23.5 17.5165 23.5 15.8596C23.5 14.2028 22.1569 12.8596 20.5 12.8596C18.8431 12.8596 17.5 14.2028 17.5 15.8596C17.5 17.5165 18.8431 18.8596 20.5 18.8596Z"
    fill="#2563eb"
  />

    </svg>
  </g>
  <!-- Icon 16: menu-grid-o -->
  <g transform="translate(72, 212)">
    <rect width="48" height="48" fill="#ffffff" stroke="#e9ecef" stroke-width="1" rx="4"/>
    <svg x="8" y="8" width="32" height="32" viewBox="0 0 24 24">
      
  <path
    d="M8 6C8 7.10457 7.10457 8 6 8C4.89543 8 4 7.10457 4 6C4 4.89543 4.89543 4 6 4C7.10457 4 8 4.89543 8 6Z"
    fill="#2563eb"
  />
  <path
    d="M8 12C8 13.1046 7.10457 14 6 14C4.89543 14 4 13.1046 4 12C4 10.8954 4.89543 10 6 10C7.10457 10 8 10.8954 8 12Z"
    fill="#2563eb"
  />
  <path
    d="M6 20C7.10457 20 8 19.1046 8 18C8 16.8954 7.10457 16 6 16C4.89543 16 4 16.8954 4 18C4 19.1046 4.89543 20 6 20Z"
    fill="#2563eb"
  />
  <path
    d="M14 6C14 7.10457 13.1046 8 12 8C10.8954 8 10 7.10457 10 6C10 4.89543 10.8954 4 12 4C13.1046 4 14 4.89543 14 6Z"
    fill="#2563eb"
  />
  <path
    d="M12 14C13.1046 14 14 13.1046 14 12C14 10.8954 13.1046 10 12 10C10.8954 10 10 10.8954 10 12C10 13.1046 10.8954 14 12 14Z"
    fill="#2563eb"
  />
  <path
    d="M14 18C14 19.1046 13.1046 20 12 20C10.8954 20 10 19.1046 10 18C10 16.8954 10.8954 16 12 16C13.1046 16 14 16.8954 14 18Z"
    fill="#2563eb"
  />
  <path
    d="M18 8C19.1046 8 20 7.10457 20 6C20 4.89543 19.1046 4 18 4C16.8954 4 16 4.89543 16 6C16 7.10457 16.8954 8 18 8Z"
    fill="#2563eb"
  />
  <path
    d="M20 12C20 13.1046 19.1046 14 18 14C16.8954 14 16 13.1046 16 12C16 10.8954 16.8954 10 18 10C19.1046 10 20 10.8954 20 12Z"
    fill="#2563eb"
  />
  <path
    d="M18 20C19.1046 20 20 19.1046 20 18C20 16.8954 19.1046 16 18 16C16.8954 16 16 16.8954 16 18C16 19.1046 16.8954 20 18 20Z"
    fill="#2563eb"
  />

    </svg>
  </g>
  <!-- Icon 17: log-out -->
  <g transform="translate(132, 212)">
    <rect width="48" height="48" fill="#ffffff" stroke="#e9ecef" stroke-width="1" rx="4"/>
    <svg x="8" y="8" width="32" height="32" viewBox="0 0 24 24">
      
  <path
    d="M8.51428 20H4.51428C3.40971 20 2.51428 19.1046 2.51428 18V6C2.51428 4.89543 3.40971 4 4.51428 4H8.51428V6H4.51428V18H8.51428V20Z"
    fill="#2563eb"
  />
  <path
    d="M13.8418 17.385L15.262 15.9768L11.3428 12.0242L20.4857 12.0242C21.038 12.0242 21.4857 11.5765 21.4857 11.0242C21.4857 10.4719 21.038 10.0242 20.4857 10.0242L11.3236 10.0242L15.304 6.0774L13.8958 4.6572L7.5049 10.9941L13.8418 17.385Z"
    fill="#2563eb"
  />

    </svg>
  </g>
  <!-- Icon 18: keyhole -->
  <g transform="translate(192, 212)">
    <rect width="48" height="48" fill="#ffffff" stroke="#e9ecef" stroke-width="1" rx="4"/>
    <svg x="8" y="8" width="32" height="32" viewBox="0 0 24 24">
      
  <path
    fill-rule="evenodd"
    clip-rule="evenodd"
    d="M13 12.8293C14.1652 12.4175 15 11.3062 15 10C15 8.34315 13.6569 7 12 7C10.3431 7 9 8.34315 9 10C9 11.3062 9.83481 12.4175 11 12.8293V16C11 16.5523 11.4477 17 12 17C12.5523 17 13 16.5523 13 16V12.8293ZM11 10C11 10.5523 11.4477 11 12 11C12.5523 11 13 10.5523 13 10C13 9.44772 12.5523 9 12 9C11.4477 9 11 9.44772 11 10Z"
    fill="#2563eb"
  />
  <path
    fill-rule="evenodd"
    clip-rule="evenodd"
    d="M12 2C6.47715 2 2 6.47715 2 12C2 17.5228 6.47715 22 12 22C17.5228 22 22 17.5228 22 12C22 6.47715 17.5228 2 12 2ZM4 12C4 16.4183 7.58172 20 12 20C16.4183 20 20 16.4183 20 12C20 7.58172 16.4183 4 12 4C7.58172 4 4 7.58172 4 12Z"
    fill="#2563eb"
  />

    </svg>
  </g>
  <!-- Icon 19: icecream -->
  <g transform="translate(252, 212)">
    <rect width="48" height="48" fill="#ffffff" stroke="#e9ecef" stroke-width="1" rx="4"/>
    <svg x="8" y="8" width="32" height="32" viewBox="0 0 24 24">
      
  <path
    fill-rule="evenodd"
    clip-rule="evenodd"
    d="M15 17H19V8C19 4.13401 15.866 1 12 1C8.13401 1 5 4.13401 5 8V17H9V20C9 21.6569 10.3431 23 12 23C13.6569 23 15 21.6569 15 20V17ZM17 15V8C17 5.23858 14.7614 3 12 3C9.23858 3 7 5.23858 7 8V15H11V20C11 20.5523 11.4477 21 12 21C12.5523 21 13 20.5523 13 20V15H17Z"
    fill="#2563eb"
  />

    </svg>
  </g>
  <!-- Icon 20: girl -->
  <g transform="translate(312, 212)">
    <rect width="48" height="48" fill="#ffffff" stroke="#e9ecef" stroke-width="1" rx="4"/>
    <svg x="8" y="8" width="32" height="32" viewBox="0 0 24 24">
      
  <path
    d="M10 12C10 12.5523 9.55228 13 9 13C8.44772 13 8 12.5523 8 12C8 11.4477 8.44772 11 9 11C9.55228 11 10 11.4477 10 12Z"
    fill="#2563eb"
  />
  <path
    d="M15 13C15.5523 13 16 12.5523 16 12C16 11.4477 15.5523 11 15 11C14.4477 11 14 11.4477 14 12C14 12.5523 14.4477 13 15 13Z"
    fill="#2563eb"
  />
  <path
    fill-rule="evenodd"
    clip-rule="evenodd"
    d="M12.0244 2.00003L12 2C6.47715 2 2 6.47715 2 12C2 17.5228 6.47715 22 12 22C17.5228 22 22 17.5228 22 12C22 6.74235 17.9425 2.43237 12.788 2.03059L12.7886 2.0282C12.5329 2.00891 12.278 1.99961 12.0244 2.00003ZM12 20C16.4183 20 20 16.4183 20 12C20 11.3014 19.9105 10.6237 19.7422 9.97775C16.1597 10.2313 12.7359 8.52461 10.7605 5.60246C9.31322 7.07886 7.2982 7.99666 5.06879 8.00253C4.38902 9.17866 4 10.5439 4 12C4 16.4183 7.58172 20 12 20ZM11.9785 4.00003L12.0236 4.00003L12 4L11.9785 4.00003Z"
    fill="#2563eb"
  />

    </svg>
  </g>
  <!-- Icon 21: format-indent-decrease -->
  <g transform="translate(372, 212)">
    <rect width="48" height="48" fill="#ffffff" stroke="#e9ecef" stroke-width="1" rx="4"/>
    <svg x="8" y="8" width="32" height="32" viewBox="0 0 24 24">
      
  <path d="M20 7H4V5H20V7Z" fill="#2563eb" />
  <path d="M20 11H12V9H20V11Z" fill="#2563eb" />
  <path d="M12 15H20V13H12V15Z" fill="#2563eb" />
  <path d="M9 9L4 12L9 15V9Z" fill="#2563eb" />
  <path d="M4 17V19H20V17H4Z" fill="#2563eb" />

    </svg>
  </g>
  <!-- Icon 22: facebook -->
  <g transform="translate(12, 272)">
    <rect width="48" height="48" fill="#ffffff" stroke="#e9ecef" stroke-width="1" rx="4"/>
    <svg x="8" y="8" width="32" height="32" viewBox="0 0 24 24">
      
  <path
    d="M9.19795 21.5H13.198V13.4901H16.8021L17.198 9.50977H13.198V7.5C13.198 6.94772 13.6457 6.5 14.198 6.5H17.198V2.5H14.198C11.4365 2.5 9.19795 4.73858 9.19795 7.5V9.50977H7.19795L6.80206 13.4901H9.19795V21.5Z"
    fill="#2563eb"
  />

    </svg>
  </g>
  <!-- Icon 23: edit-shadows -->
  <g transform="translate(72, 272)">
    <rect width="48" height="48" fill="#ffffff" stroke="#e9ecef" stroke-width="1" rx="4"/>
    <svg x="8" y="8" width="32" height="32" viewBox="0 0 24 24">
      
  <path
    d="M15.3056 6.99194C14.3578 6.36502 13.2215 6 12 6C8.68629 6 6 8.68629 6 12C6 15.3137 8.68629 18 12 18C13.2267 18 14.3675 17.6318 15.3178 17H12V16H16.4722C16.9906 15.4208 17.3981 14.7404 17.6614 13.9919H12V12.9919H17.9184C17.9721 12.6693 18 12.3379 18 12C18 11.6683 17.9731 11.3428 17.9213 11.0258H12V10.0258H17.6676C17.4033 9.26689 16.9909 8.57742 16.465 7.99194H12V6.99194H15.3056Z"
    fill="#2563eb"
  />
  <path
    fill-rule="evenodd"
    clip-rule="evenodd"
    d="M22 12C22 6.47715 17.5228 2 12 2C6.47715 2 2 6.47715 2 12C2 17.5228 6.47715 22 12 22C17.5228 22 22 17.5228 22 12ZM12 20C16.4183 20 20 16.4183 20 12C20 7.58172 16.4183 4 12 4C7.58172 4 4 7.58172 4 12C4 16.4183 7.58172 20 12 20Z"
    fill="#2563eb"
  />

    </svg>
  </g>
  <!-- Icon 24: dock-right -->
  <g transform="translate(132, 272)">
    <rect width="48" height="48" fill="#ffffff" stroke="#e9ecef" stroke-width="1" rx="4"/>
    <svg x="8" y="8" width="32" height="32" viewBox="0 0 24 24">
      
  <path
    fill-rule="evenodd"
    clip-rule="evenodd"
    d="M2 4H22V20H2V4ZM16 18V6H4V18H16Z"
    fill="#2563eb"
  />

    </svg>
  </g>
  <!-- Icon 25: desktop -->
  <g transform="translate(192, 272)">
    <rect width="48" height="48" fill="#ffffff" stroke="#e9ecef" stroke-width="1" rx="4"/>
    <svg x="8" y="8" width="32" height="32" viewBox="0 0 24 24">
      
  <path
    d="M8 15C7.44772 15 7 15.4477 7 16C7 16.5523 7.44772 17 8 17C8.55228 17 9 16.5523 9 16C9 15.4477 8.55228 15 8 15Z"
    fill="#2563eb"
  />
  <path
    d="M11 16C11 15.4477 11.4477 15 12 15C12.5523 15 13 15.4477 13 16C13 16.5523 12.5523 17 12 17C11.4477 17 11 16.5523 11 16Z"
    fill="#2563eb"
  />
  <path
    d="M16 15C15.4477 15 15 15.4477 15 16C15 16.5523 15.4477 17 16 17C16.5523 17 17 16.5523 17 16C17 15.4477 16.5523 15 16 15Z"
    fill="#2563eb"
  />
  <path
    fill-rule="evenodd"
    clip-rule="evenodd"
    d="M4 3C2.34315 3 1 4.34315 1 6V18C1 19.6569 2.34315 21 4 21H20C21.6569 21 23 19.6569 23 18V6C23 4.34315 21.6569 3 20 3H4ZM20 5H4C3.44772 5 3 5.44772 3 6V7H21V6C21 5.44772 20.5523 5 20 5ZM3 18V9H21V18C21 18.5523 20.5523 19 20 19H4C3.44772 19 3 18.5523 3 18Z"
    fill="#2563eb"
  />

    </svg>
  </g>
  <!-- Icon 26: corner-double-up-right -->
  <g transform="translate(252, 272)">
    <rect width="48" height="48" fill="#ffffff" stroke="#e9ecef" stroke-width="1" rx="4"/>
    <svg x="8" y="8" width="32" height="32" viewBox="0 0 24 24">
      
  <path
    d="M14.7495 7.78369L16.1638 6.36948L20.4064 10.6121L16.1637 14.8547L14.7495 13.4405L17.5779 10.6121L14.7495 7.78369Z"
    fill="#2563eb"
  />
  <path
    d="M10.5068 13.4405L11.9211 14.8547L16.1637 10.6121L11.9211 6.36948L10.5069 7.78369L12.3537 9.63049L7.59366 9.63049C5.38452 9.63049 3.59366 11.4214 3.59366 13.6305L3.59366 17.6305L5.59366 17.6305L5.59366 13.6305C5.59366 12.5259 6.48909 11.6305 7.59366 11.6305L12.3169 11.6305L10.5068 13.4405Z"
    fill="#2563eb"
  />

    </svg>
  </g>
  <!-- Icon 27: color-bucket -->
  <g transform="translate(312, 272)">
    <rect width="48" height="48" fill="#ffffff" stroke="#e9ecef" stroke-width="1" rx="4"/>
    <svg x="8" y="8" width="32" height="32" viewBox="0 0 24 24">
      
  <path
    fill-rule="evenodd"
    clip-rule="evenodd"
    d="M8.20348 2.00378C9.46407 2.00378 10.5067 3.10742 10.6786 4.54241L19.1622 13.0259L11.384 20.8041C10.2124 21.9757 8.31291 21.9757 7.14134 20.8041L2.8987 16.5615C1.72713 15.3899 1.72713 13.4904 2.8987 12.3188L5.70348 9.51404V4.96099C5.70348 3.32777 6.82277 2.00378 8.20348 2.00378ZM8.70348 4.96099V6.51404L7.70348 7.51404V4.96099C7.70348 4.63435 7.92734 4.36955 8.20348 4.36955C8.47963 4.36955 8.70348 4.63435 8.70348 4.96099ZM8.70348 10.8754V9.34247L4.31291 13.733C3.92239 14.1236 3.92239 14.7567 4.31291 15.1473L8.55555 19.3899C8.94608 19.7804 9.57924 19.7804 9.96977 19.3899L16.3337 13.0259L10.7035 7.39569V10.8754C10.7035 10.9184 10.7027 10.9612 10.7012 11.0038H8.69168C8.69941 10.9625 8.70348 10.9195 8.70348 10.8754Z"
    fill="#2563eb"
  />
  <path
    d="M16.8586 16.8749C15.687 18.0465 15.687 19.946 16.8586 21.1175C18.0302 22.2891 19.9297 22.2891 21.1013 21.1175C22.2728 19.946 22.2728 18.0465 21.1013 16.8749L18.9799 14.7536L16.8586 16.8749Z"
    fill="#2563eb"
  />

    </svg>
  </g>
  <!-- Icon 28: chevron-left-r -->
  <g transform="translate(372, 272)">
    <rect width="48" height="48" fill="#ffffff" stroke="#e9ecef" stroke-width="1" rx="4"/>
    <svg x="8" y="8" width="32" height="32" viewBox="0 0 24 24">
      
  <path
    d="M13 7.75739L14.4142 9.1716L11.5858 12L14.4142 14.8284L13 16.2426L8.75736 12L13 7.75739Z"
    fill="#2563eb"
  />
  <path
    fill-rule="evenodd"
    clip-rule="evenodd"
    d="M19 1C21.2091 1 23 2.79086 23 5V19C23 21.2091 21.2091 23 19 23H5C2.79086 23 1 21.2091 1 19V5C1 2.79086 2.79086 1 5 1H19ZM21 5V19C21 20.1046 20.1046 21 19 21H5C3.89543 21 3 20.1046 3 19L3 5C3 3.89543 3.89543 3 5 3L19 3C20.1046 3 21 3.89543 21 5Z"
    fill="#2563eb"
  />

    </svg>
  </g>
  <!-- Icon 29: chart -->
  <g transform="translate(12, 332)">
    <rect width="48" height="48" fill="#ffffff" stroke="#e9ecef" stroke-width="1" rx="4"/>
    <svg x="8" y="8" width="32" height="32" viewBox="0 0 24 24">
      
  <path
    fill-rule="evenodd"
    clip-rule="evenodd"
    d="M22.775 8C22.9242 8.65461 23 9.32542 23 10H14V1C14.6746 1 15.3454 1.07584 16 1.22504C16.4923 1.33724 16.9754 1.49094 17.4442 1.68508C18.5361 2.13738 19.5282 2.80031 20.364 3.63604C21.1997 4.47177 21.8626 5.46392 22.3149 6.55585C22.5091 7.02455 22.6628 7.5077 22.775 8ZM20.7082 8C20.6397 7.77018 20.5593 7.54361 20.4672 7.32122C20.1154 6.47194 19.5998 5.70026 18.9497 5.05025C18.2997 4.40024 17.5281 3.88463 16.6788 3.53284C16.4564 3.44073 16.2298 3.36031 16 3.2918V8H20.7082Z"
    fill="#2563eb"
  />
  <path
    fill-rule="evenodd"
    clip-rule="evenodd"
    d="M1 14C1 9.02944 5.02944 5 10 5C10.6746 5 11.3454 5.07584 12 5.22504V12H18.775C18.9242 12.6546 19 13.3254 19 14C19 18.9706 14.9706 23 10 23C5.02944 23 1 18.9706 1 14ZM16.8035 14H10V7.19648C6.24252 7.19648 3.19648 10.2425 3.19648 14C3.19648 17.7575 6.24252 20.8035 10 20.8035C13.7575 20.8035 16.8035 17.7575 16.8035 14Z"
    fill="#2563eb"
  />

    </svg>
  </g>
  <!-- Icon 30: bulb -->
  <g transform="translate(72, 332)">
    <rect width="48" height="48" fill="#ffffff" stroke="#e9ecef" stroke-width="1" rx="4"/>
    <svg x="8" y="8" width="32" height="32" viewBox="0 0 24 24">
      
  <path
    fill-rule="evenodd"
    clip-rule="evenodd"
    d="M4 9C4 11.9611 5.60879 14.5465 8 15.9297V15.9999C8 18.2091 9.79086 19.9999 12 19.9999C14.2091 19.9999 16 18.2091 16 15.9999V15.9297C18.3912 14.5465 20 11.9611 20 9C20 4.58172 16.4183 1 12 1C7.58172 1 4 4.58172 4 9ZM16 13.4722C17.2275 12.3736 18 10.777 18 9C18 5.68629 15.3137 3 12 3C8.68629 3 6 5.68629 6 9C6 10.777 6.7725 12.3736 8 13.4722L10 13.4713V16C10 17.1045 10.8954 17.9999 12 17.9999C13.1045 17.9999 14 17.1045 14 15.9999V13.4713L16 13.4722Z"
    fill="#2563eb"
  />
  <path
    d="M10 21.0064V21C10.5883 21.3403 11.2714 21.5351 12 21.5351C12.7286 21.5351 13.4117 21.3403 14 21V21.0064C14 22.111 13.1046 23.0064 12 23.0064C10.8954 23.0064 10 22.111 10 21.0064Z"
    fill="#2563eb"
  />

    </svg>
  </g>
  <!-- Icon 31: board -->
  <g transform="translate(132, 332)">
    <rect width="48" height="48" fill="#ffffff" stroke="#e9ecef" stroke-width="1" rx="4"/>
    <svg x="8" y="8" width="32" height="32" viewBox="0 0 24 24">
      
  <path
    fill-rule="evenodd"
    clip-rule="evenodd"
    d="M6 4C3.79086 4 2 5.79086 2 8V16C2 18.2091 3.79086 20 6 20H18C20.2091 20 22 18.2091 22 16V8C22 5.79086 20.2091 4 18 4H6ZM14 6H10V18H14V6ZM16 6V18H18C19.1046 18 20 17.1046 20 16V8C20 6.89543 19.1046 6 18 6H16ZM6 18H8V6H6C4.89543 6 4 6.89543 4 8V16C4 17.1046 4.89543 18 6 18Z"
    fill="#2563eb"
  />

    </svg>
  </g>
  <!-- Icon 32: arrows-shrink-h -->
  <g transform="translate(192, 332)">
    <rect width="48" height="48" fill="#ffffff" stroke="#e9ecef" stroke-width="1" rx="4"/>
    <svg x="8" y="8" width="32" height="32" viewBox="0 0 24 24">
      
  <path d="M1 7H3V17H1V7Z" fill="#2563eb" />
  <path
    d="M8.44769 7.75732L9.86191 9.17154L8.03344 11H15.9664L14.138 9.17154L15.5522 7.75732L19.7948 12L15.5522 16.2426L14.138 14.8284L15.9664 13H8.03354L9.86194 14.8284L8.44773 16.2426L4.20505 12L8.44769 7.75732Z"
    fill="#2563eb"
  />
  <path d="M23 7H21V17H23V7Z" fill="#2563eb" />

    </svg>
  </g>
  <!-- Icon 33: arrows-breake-h -->
  <g transform="translate(252, 332)">
    <rect width="48" height="48" fill="#ffffff" stroke="#e9ecef" stroke-width="1" rx="4"/>
    <svg x="8" y="8" width="32" height="32" viewBox="0 0 24 24">
      
  <path
    d="M9.24268 7H11.2427V11.0001H11.2477V13.0001H11.2427V17H9.24268V13.0001L4.82846 13L6.65685 14.8284L5.24264 16.2426L1 12L5.24264 7.75732L6.65685 9.17154L4.82839 11H9.24264L9.24268 7Z"
    fill="#2563eb"
  />
  <path
    d="M15.2527 7.00012H13.2527V11.0001H13.2477V13.0001H13.2527V17.0001H15.2527V13.0001L19.667 13L17.8385 14.8285L19.2527 16.2427L23.4954 12L19.2527 7.75739L17.8385 9.17161L19.6669 11H15.2527L15.2527 7.00012Z"
    fill="#2563eb"
  />

    </svg>
  </g>
  <!-- Icon 34: arrow-long-right-l -->
  <g transform="translate(312, 332)">
    <rect width="48" height="48" fill="#ffffff" stroke="#e9ecef" stroke-width="1" rx="4"/>
    <svg x="8" y="8" width="32" height="32" viewBox="0 0 24 24">
      
  <path
    d="M18.9164 7.75739L23.1662 11.9929L18.9305 16.2426L17.5139 14.8308L19.3325 13.0061L2.8338 13.0285V15.0299H0.833801V9.02988H2.8338V11.0285L19.3429 11.0061L17.5046 9.17398L18.9164 7.75739Z"
    fill="#2563eb"
  />

    </svg>
  </g>
  <!-- Icon 35: arrow-bottom-right-r -->
  <g transform="translate(372, 332)">
    <rect width="48" height="48" fill="#ffffff" stroke="#e9ecef" stroke-width="1" rx="4"/>
    <svg x="8" y="8" width="32" height="32" viewBox="0 0 24 24">
      
  <path
    d="M14.0367 10.0367H16.0367V16.0367H10.0367V14.0367H12.6225L7.29297 8.70713L8.70718 7.29292L14.0367 12.6225L14.0367 10.0367Z"
    fill="#2563eb"
  />
  <path
    fill-rule="evenodd"
    clip-rule="evenodd"
    d="M1 5C1 2.79086 2.79086 1 5 1H19C21.2091 1 23 2.79086 23 5V19C23 21.2091 21.2091 23 19 23H5C2.79086 23 1 21.2091 1 19V5ZM5 3H19C20.1046 3 21 3.89543 21 5V19C21 20.1046 20.1046 21 19 21H5C3.89543 21 3 20.1046 3 19V5C3 3.89543 3.89543 3 5 3Z"
    fill="#2563eb"
  />

    </svg>
  </g>
  
  <!-- Footer -->
  <text x="400" y="580" text-anchor="middle" font-family="system-ui, -apple-system, sans-serif" font-size="12" fill="#6c757d">
    Showing 35 of 704 icons
  </text>
  
</svg>