<svg width="800" height="600" xmlns="http://www.w3.org/2000/svg">
  <!-- Background -->
  <rect width="800" height="600" fill="#ffffff"/>
  
  <!-- Header Background -->
  <rect width="800" height="80" fill="#f8f9fa"/>
  
  <!-- Title -->
  <text x="400" y="30" text-anchor="middle" font-family="system-ui, -apple-system, sans-serif" font-size="20" font-weight="bold" fill="#212529">Eva Icons - outline</text>
  
  <!-- Subtitle -->
  <text x="400" y="55" text-anchor="middle" font-family="system-ui, -apple-system, sans-serif" font-size="14" fill="#6c757d">244 icons</text>
  
  <!-- Icon Grid -->
  <!-- Icon 1: wifi-outline -->
  <g transform="translate(196, 92)">
    <rect width="48" height="48" fill="#ffffff" stroke="#e9ecef" stroke-width="1" rx="4"/>
    <svg x="8" y="8" width="32" height="32" viewBox="0 0 24 24">
      <defs><style>.cls-1{fill:#fff;opacity:0;}.cls-2{fill:#231f20;}</style></defs><title>wifi</title><g id="Layer_2" data-name="Layer 2"><g id="wifi"><g id="wifi-2" data-name="wifi"><rect class="cls-1" width="24" height="24"/><circle class="cls-2" cx="12" cy="19" r="1"/><path class="cls-2" d="M12,14a5,5,0,0,0-3.47,1.4,1,1,0,1,0,1.39,1.44,3.08,3.08,0,0,1,4.16,0,1,1,0,1,0,1.39-1.44A5,5,0,0,0,12,14Z"/><path class="cls-2" d="M12,9a9,9,0,0,0-6.47,2.75A1,1,0,0,0,7,13.14a7,7,0,0,1,10.08,0,1,1,0,0,0,.71.3,1,1,0,0,0,.72-1.69A9,9,0,0,0,12,9Z"/><path class="cls-2" d="M21.72,7.93a14,14,0,0,0-19.44,0A1,1,0,0,0,3.66,9.37a12,12,0,0,1,16.68,0,1,1,0,0,0,.69.28,1,1,0,0,0,.72-.31A1,1,0,0,0,21.72,7.93Z"/></g></g></g>
    </svg>
  </g>
  <!-- Icon 2: video-outline -->
  <g transform="translate(256, 92)">
    <rect width="48" height="48" fill="#ffffff" stroke="#e9ecef" stroke-width="1" rx="4"/>
    <svg x="8" y="8" width="32" height="32" viewBox="0 0 24 24">
      <defs><style>.cls-1{fill:#fff;opacity:0;}.cls-2{fill:#231f20;}</style></defs><title>video</title><g id="Layer_2" data-name="Layer 2"><g id="video"><g id="video-2" data-name="video"><rect class="cls-1" width="24" height="24"/><path class="cls-2" d="M21,7.15a1.7,1.7,0,0,0-1.85.3L17,9.45V8a3,3,0,0,0-3-3H5A3,3,0,0,0,2,8v8a3,3,0,0,0,3,3h9a3,3,0,0,0,3-3V14.55l2.16,2a1.74,1.74,0,0,0,1.16.45,1.68,1.68,0,0,0,.69-.15,1.6,1.6,0,0,0,1-1.48V8.63A1.6,1.6,0,0,0,21,7.15ZM15,16a1,1,0,0,1-1,1H5a1,1,0,0,1-1-1V8A1,1,0,0,1,5,7h9a1,1,0,0,1,1,1Zm5-1.4L17.19,12,20,9.4Z"/></g></g></g>
    </svg>
  </g>
  <!-- Icon 3: twitter-outline -->
  <g transform="translate(316, 92)">
    <rect width="48" height="48" fill="#ffffff" stroke="#e9ecef" stroke-width="1" rx="4"/>
    <svg x="8" y="8" width="32" height="32" viewBox="0 0 24 24">
      <defs><style>.cls-1{fill:#fff;opacity:0;}.cls-2{fill:#231f20;}</style></defs><title>twitter</title><g id="Layer_2" data-name="Layer 2"><g id="twitter"><g id="twitter-2" data-name="twitter"><polyline class="cls-1" points="0 0 24 0 24 24 0 24"/><path class="cls-2" d="M8.51,20H8.43a10.87,10.87,0,0,1-4.65-1.09A1.38,1.38,0,0,1,3,17.47a1.41,1.41,0,0,1,1.16-1.18,6.63,6.63,0,0,0,2.54-.89A9.49,9.49,0,0,1,3.19,6.33a1.41,1.41,0,0,1,1-1.15,1.35,1.35,0,0,1,1.43.41,7.09,7.09,0,0,0,4.88,2.75,4.5,4.5,0,0,1,1.41-3.1,4.47,4.47,0,0,1,6.37.19.7.7,0,0,0,.78.1A1.39,1.39,0,0,1,21,7.13a6.66,6.66,0,0,1-1.28,2.6A10.79,10.79,0,0,1,8.51,20Zm0-2h.08a8.79,8.79,0,0,0,9.09-8.59,1.32,1.32,0,0,1,.37-.85,5.19,5.19,0,0,0,.62-1,2.56,2.56,0,0,1-1.91-.85A2.45,2.45,0,0,0,15,6a2.5,2.5,0,0,0-1.79.69,2.53,2.53,0,0,0-.72,2.42l.26,1.14-1.17.08a8.3,8.3,0,0,1-6.54-2.4,7.12,7.12,0,0,0,3.73,6.46l.95.54-.63.9a5.62,5.62,0,0,1-2.68,1.92A8.34,8.34,0,0,0,8.5,18ZM19,6.65h0Z"/></g></g></g>
    </svg>
  </g>
  <!-- Icon 4: toggle-right-outline -->
  <g transform="translate(376, 92)">
    <rect width="48" height="48" fill="#ffffff" stroke="#e9ecef" stroke-width="1" rx="4"/>
    <svg x="8" y="8" width="32" height="32" viewBox="0 0 24 24">
      <defs><style>.cls-1{fill:#fff;opacity:0;}.cls-2{fill:#231f20;}</style></defs><title>toggle-right</title><g id="Layer_2" data-name="Layer 2"><g id="toggle-right"><g id="toggle-right-2" data-name="toggle-right"><rect class="cls-1" width="24" height="24"/><path class="cls-2" d="M15,5H9A7,7,0,0,0,9,19h6A7,7,0,0,0,15,5Zm0,12H9A5,5,0,0,1,9,7h6a5,5,0,0,1,0,10Z"/><path class="cls-2" d="M15,9a3,3,0,1,0,3,3A3,3,0,0,0,15,9Zm0,4a1,1,0,1,1,1-1A1,1,0,0,1,15,13Z"/></g></g></g>
    </svg>
  </g>
  <!-- Icon 5: sync-outline -->
  <g transform="translate(436, 92)">
    <rect width="48" height="48" fill="#ffffff" stroke="#e9ecef" stroke-width="1" rx="4"/>
    <svg x="8" y="8" width="32" height="32" viewBox="0 0 24 24">
      <defs><style>.cls-1{opacity:0;}.cls-2{fill:#fff;}.cls-3{fill:#231f20;}</style></defs><title>sync</title><g id="Layer_2" data-name="Layer 2"><g id="sync"><g id="sync-2" data-name="sync"><g class="cls-1"><rect class="cls-2" width="24" height="24"/></g><path class="cls-3" d="M21.66,10.37a.62.62,0,0,0,.07-.19l.75-4a1,1,0,0,0-2-.36l-.37,2a9.22,9.22,0,0,0-16.58.84,1,1,0,0,0,.55,1.3,1,1,0,0,0,1.31-.55A7.08,7.08,0,0,1,12.07,5a7.17,7.17,0,0,1,6.24,3.58l-1.65-.27a1,1,0,1,0-.32,2l4.25.71h.16a.93.93,0,0,0,.34-.06.33.33,0,0,0,.1-.06.78.78,0,0,0,.2-.11l.08-.1a1.07,1.07,0,0,0,.14-.16A.58.58,0,0,0,21.66,10.37Z"/><path class="cls-3" d="M19.88,14.07a1,1,0,0,0-1.31.56A7.08,7.08,0,0,1,11.93,19a7.17,7.17,0,0,1-6.24-3.58l1.65.27.16,0a1,1,0,0,0,.16-2L3.41,13a.91.91,0,0,0-.33,0H3a1.15,1.15,0,0,0-.32.14l0,0a1,1,0,0,0-.18.18l-.09.1a.84.84,0,0,0-.07.19.44.44,0,0,0-.07.17l-.75,4A1,1,0,0,0,2.32,19l.18,0a1,1,0,0,0,1-.82l.37-2a9.22,9.22,0,0,0,16.58-.83A1,1,0,0,0,19.88,14.07Z"/></g></g></g>
    </svg>
  </g>
  <!-- Icon 6: speaker-outline -->
  <g transform="translate(496, 92)">
    <rect width="48" height="48" fill="#ffffff" stroke="#e9ecef" stroke-width="1" rx="4"/>
    <svg x="8" y="8" width="32" height="32" viewBox="0 0 24 24">
      <defs><style>.cls-1{fill:#fff;opacity:0;}.cls-2{fill:#231f20;}</style></defs><title>speaker</title><g id="Layer_2" data-name="Layer 2"><g id="speaker"><g id="speaker-2" data-name="speaker"><rect class="cls-1" width="24" height="24" transform="translate(24 0) rotate(90)"/><path class="cls-2" d="M12,11A3,3,0,1,0,9,8,3,3,0,0,0,12,11Zm0-4a1,1,0,1,1-1,1A1,1,0,0,1,12,7Z"/><path class="cls-2" d="M12,12a3.5,3.5,0,1,0,3.5,3.5A3.5,3.5,0,0,0,12,12Zm0,5a1.5,1.5,0,1,1,1.5-1.5A1.5,1.5,0,0,1,12,17Z"/><path class="cls-2" d="M17,2H7A3,3,0,0,0,4,5V19a3,3,0,0,0,3,3H17a3,3,0,0,0,3-3V5A3,3,0,0,0,17,2Zm1,17a1,1,0,0,1-1,1H7a1,1,0,0,1-1-1V5A1,1,0,0,1,7,4H17a1,1,0,0,1,1,1Z"/></g></g></g>
    </svg>
  </g>
  <!-- Icon 7: shuffle-outline -->
  <g transform="translate(556, 92)">
    <rect width="48" height="48" fill="#ffffff" stroke="#e9ecef" stroke-width="1" rx="4"/>
    <svg x="8" y="8" width="32" height="32" viewBox="0 0 24 24">
      <defs><style>.cls-1{fill:#fff;opacity:0;}.cls-2{fill:#231f20;}</style></defs><title>shuffle</title><g id="Layer_2" data-name="Layer 2"><g id="shuffle"><g id="shuffle-2" data-name="shuffle"><rect class="cls-1" width="24" height="24" transform="translate(24 24) rotate(180)"/><path class="cls-2" d="M18,9.31a1,1,0,0,0,1,1h0a1,1,0,0,0,1-1V5a1,1,0,0,0-1-1L14.7,4a1,1,0,0,0-1,1,1,1,0,0,0,1,1h1.89L12,10.59,6.16,4.76A1,1,0,0,0,4.75,6.17L10.58,12,4.29,18.29a1,1,0,0,0,0,1.42,1,1,0,0,0,1.42,0L18,7.42Z"/><path class="cls-2" d="M19,13.68h0a1,1,0,0,0-1,1v1.91l-2.78-2.79a1,1,0,0,0-1.42,1.42L16.57,18H14.69a1,1,0,0,0,0,2h4.23L19,20a1,1,0,0,0,1-1.11l0-4.21A1,1,0,0,0,19,13.68Z"/></g></g></g>
    </svg>
  </g>
  <!-- Icon 8: share-outline -->
  <g transform="translate(196, 152)">
    <rect width="48" height="48" fill="#ffffff" stroke="#e9ecef" stroke-width="1" rx="4"/>
    <svg x="8" y="8" width="32" height="32" viewBox="0 0 24 24">
      <defs><style>.cls-1{fill:#fff;opacity:0;}.cls-2{fill:#231f20;}</style></defs><title>share</title><g id="Layer_2" data-name="Layer 2"><g id="share"><g id="share-2" data-name="share"><rect class="cls-1" width="24" height="24"/><path class="cls-2" d="M18,15a3,3,0,0,0-2.1.86L8,12.34c0-.12,0-.22,0-.34s0-.22,0-.33L15.9,8.14A3,3,0,1,0,15,6c0,.12,0,.22,0,.34L7.1,9.86a3,3,0,1,0,0,4.28L15,17.67c0,.11,0,.22,0,.33a3,3,0,1,0,3-3ZM18,5a1,1,0,1,1-1,1A1,1,0,0,1,18,5ZM5,13a1,1,0,1,1,1-1A1,1,0,0,1,5,13Zm13,6a1,1,0,1,1,1-1A1,1,0,0,1,18,19Z"/></g></g></g>
    </svg>
  </g>
  <!-- Icon 9: save-outline -->
  <g transform="translate(256, 152)">
    <rect width="48" height="48" fill="#ffffff" stroke="#e9ecef" stroke-width="1" rx="4"/>
    <svg x="8" y="8" width="32" height="32" viewBox="0 0 24 24">
      <defs><style>.cls-1{fill:#fff;opacity:0;}.cls-2{fill:#231f20;}</style></defs><title>save</title><g id="Layer_2" data-name="Layer 2"><g id="save"><g id="save-2" data-name="save"><rect class="cls-1" width="24" height="24"/><path class="cls-2" d="M20.12,8.71,15.29,3.88A3,3,0,0,0,13.17,3H6A3,3,0,0,0,3,6V18a3,3,0,0,0,3,3H18a3,3,0,0,0,3-3V10.83A3,3,0,0,0,20.12,8.71ZM10,19V17h4v2Zm9-1a1,1,0,0,1-1,1H16V16a1,1,0,0,0-1-1H9a1,1,0,0,0-1,1v3H6a1,1,0,0,1-1-1V6A1,1,0,0,1,6,5H8v5a1,1,0,0,0,1,1h4a1,1,0,0,0,0-2H10V5h3.17a1.05,1.05,0,0,1,.71.29l4.83,4.83a1,1,0,0,1,.29.71Z"/></g></g></g>
    </svg>
  </g>
  <!-- Icon 10: radio-outline -->
  <g transform="translate(316, 152)">
    <rect width="48" height="48" fill="#ffffff" stroke="#e9ecef" stroke-width="1" rx="4"/>
    <svg x="8" y="8" width="32" height="32" viewBox="0 0 24 24">
      <defs><style>.cls-1{fill:#fff;opacity:0;}.cls-2{fill:#231f20;}</style></defs><title>radio</title><g id="Layer_2" data-name="Layer 2"><g id="radio"><g id="radio-2" data-name="radio"><rect class="cls-1" width="24" height="24"/><path class="cls-2" d="M12,8a3,3,0,0,0-1,5.83A1,1,0,0,0,11,14v6a1,1,0,0,0,2,0V14a1,1,0,0,0,0-.17A3,3,0,0,0,12,8Zm0,4a1,1,0,1,1,1-1A1,1,0,0,1,12,12Z"/><path class="cls-2" d="M3.5,11A6.87,6.87,0,0,1,6.14,5.77,1,1,0,1,0,4.86,4.23,8.84,8.84,0,0,0,1.5,11a8.84,8.84,0,0,0,3.36,6.77,1,1,0,1,0,1.28-1.54A6.87,6.87,0,0,1,3.5,11Z"/><path class="cls-2" d="M16.64,6.24a1,1,0,0,0-1.28,1.52A4.28,4.28,0,0,1,17,11a4.28,4.28,0,0,1-1.64,3.24A1,1,0,0,0,16,16a1,1,0,0,0,.64-.24A6.2,6.2,0,0,0,19,11,6.2,6.2,0,0,0,16.64,6.24Z"/><path class="cls-2" d="M8.76,6.36a1,1,0,0,0-1.4-.12A6.2,6.2,0,0,0,5,11a6.2,6.2,0,0,0,2.36,4.76,1,1,0,0,0,1.4-.12,1,1,0,0,0-.12-1.4A4.28,4.28,0,0,1,7,11,4.28,4.28,0,0,1,8.64,7.76,1,1,0,0,0,8.76,6.36Z"/><path class="cls-2" d="M19.14,4.23a1,1,0,1,0-1.28,1.54A6.87,6.87,0,0,1,20.5,11a6.87,6.87,0,0,1-2.64,5.23,1,1,0,0,0,1.28,1.54A8.84,8.84,0,0,0,22.5,11,8.84,8.84,0,0,0,19.14,4.23Z"/></g></g></g>
    </svg>
  </g>
  <!-- Icon 11: pricetags-outline -->
  <g transform="translate(376, 152)">
    <rect width="48" height="48" fill="#ffffff" stroke="#e9ecef" stroke-width="1" rx="4"/>
    <svg x="8" y="8" width="32" height="32" viewBox="0 0 24 24">
      <defs><style>.cls-1{fill:#fff;opacity:0;}.cls-2{fill:#231f20;}</style></defs><title>pricetags</title><g id="Layer_2" data-name="Layer 2"><g id="pricetags"><g id="pricetags-2" data-name="pricetags"><rect class="cls-1" width="24" height="24"/><path class="cls-2" d="M12.87,22a1.84,1.84,0,0,1-1.29-.53L5.17,15.05a1,1,0,0,1-.29-.61L4,5.09a1,1,0,0,1,.29-.8A1,1,0,0,1,5.09,4l9.35.88a1,1,0,0,1,.61.29l6.42,6.41a1.82,1.82,0,0,1,0,2.57l-7.32,7.32A1.82,1.82,0,0,1,12.87,22Zm-6-8.11,6,6,7.05-7.05-6-6L6.11,6.11Z"/><circle class="cls-2" cx="10.5" cy="10.5" r="1.5"/></g></g></g>
    </svg>
  </g>
  <!-- Icon 12: pin-outline -->
  <g transform="translate(436, 152)">
    <rect width="48" height="48" fill="#ffffff" stroke="#e9ecef" stroke-width="1" rx="4"/>
    <svg x="8" y="8" width="32" height="32" viewBox="0 0 24 24">
      <defs><style>.cls-1{fill:#fff;opacity:0;}.cls-2{fill:#231f20;}</style></defs><title>pin</title><g id="Layer_2" data-name="Layer 2"><g id="pin"><g id="pin-2" data-name="pin"><rect class="cls-1" width="24" height="24"/><path class="cls-2" d="M12,2A8,8,0,0,0,4,9.92c0,5.48,7.05,11.58,7.35,11.84a1,1,0,0,0,1.3,0C13,21.5,20,15.4,20,9.92A8,8,0,0,0,12,2Zm0,17.65c-1.67-1.59-6-6-6-9.73a6,6,0,0,1,12,0C18,13.62,13.67,18.06,12,19.65Z"/><path class="cls-2" d="M12,6a3.5,3.5,0,1,0,3.5,3.5A3.5,3.5,0,0,0,12,6Zm0,5a1.5,1.5,0,1,1,1.5-1.5A1.5,1.5,0,0,1,12,11Z"/></g></g></g>
    </svg>
  </g>
  <!-- Icon 13: person-remove-outline -->
  <g transform="translate(496, 152)">
    <rect width="48" height="48" fill="#ffffff" stroke="#e9ecef" stroke-width="1" rx="4"/>
    <svg x="8" y="8" width="32" height="32" viewBox="0 0 24 24">
      <defs><style>.cls-1{fill:#fff;opacity:0;}.cls-2{fill:#231f20;}</style></defs><title>person-remove</title><g id="Layer_2" data-name="Layer 2"><g id="person-remove"><g id="person-remove-2" data-name="person-remove"><rect class="cls-1" width="24" height="24"/><path class="cls-2" d="M21,6H17a1,1,0,0,0,0,2h4a1,1,0,0,0,0-2Z"/><path class="cls-2" d="M10,11A4,4,0,1,0,6,7,4,4,0,0,0,10,11Zm0-6A2,2,0,1,1,8,7,2,2,0,0,1,10,5Z"/><path class="cls-2" d="M10,13a7,7,0,0,0-7,7,1,1,0,0,0,2,0,5,5,0,0,1,10,0,1,1,0,0,0,2,0A7,7,0,0,0,10,13Z"/></g></g></g>
    </svg>
  </g>
  <!-- Icon 14: people-outline -->
  <g transform="translate(556, 152)">
    <rect width="48" height="48" fill="#ffffff" stroke="#e9ecef" stroke-width="1" rx="4"/>
    <svg x="8" y="8" width="32" height="32" viewBox="0 0 24 24">
      <defs><style>.cls-1{fill:#fff;opacity:0;}.cls-2{fill:#231f20;}</style></defs><title>people</title><g id="Layer_2" data-name="Layer 2"><g id="people"><g id="people-2" data-name="people"><rect class="cls-1" width="24" height="24"/><path class="cls-2" d="M9,11A4,4,0,1,0,5,7,4,4,0,0,0,9,11ZM9,5A2,2,0,1,1,7,7,2,2,0,0,1,9,5Z"/><path class="cls-2" d="M17,13a3,3,0,1,0-3-3A3,3,0,0,0,17,13Zm0-4a1,1,0,1,1-1,1A1,1,0,0,1,17,9Z"/><path class="cls-2" d="M17,14a5,5,0,0,0-3.06,1.05A7,7,0,0,0,2,20a1,1,0,0,0,2,0,5,5,0,0,1,10,0,1,1,0,0,0,2,0,6.9,6.9,0,0,0-.86-3.35A3,3,0,0,1,20,19a1,1,0,0,0,2,0A5,5,0,0,0,17,14Z"/></g></g></g>
    </svg>
  </g>
  <!-- Icon 15: npm-outline -->
  <g transform="translate(196, 212)">
    <rect width="48" height="48" fill="#ffffff" stroke="#e9ecef" stroke-width="1" rx="4"/>
    <svg x="8" y="8" width="32" height="32" viewBox="0 0 24 24">
      <defs><style>.cls-1{fill:#fff;opacity:0;}.cls-2{fill:#231f20;}</style></defs><title>npm</title><g id="Layer_2" data-name="Layer 2"><g id="npm"><g id="npm-2" data-name="npm"><rect class="cls-1" width="24" height="24"/><path class="cls-2" d="M18,21H6a3,3,0,0,1-3-3V6A3,3,0,0,1,6,3H18a3,3,0,0,1,3,3V18A3,3,0,0,1,18,21ZM6,5A1,1,0,0,0,5,6V18a1,1,0,0,0,1,1H18a1,1,0,0,0,1-1V6a1,1,0,0,0-1-1Z"/><rect class="cls-2" x="12" y="9" width="4" height="10"/></g></g></g>
    </svg>
  </g>
  <!-- Icon 16: more-horizontal-outline -->
  <g transform="translate(256, 212)">
    <rect width="48" height="48" fill="#ffffff" stroke="#e9ecef" stroke-width="1" rx="4"/>
    <svg x="8" y="8" width="32" height="32" viewBox="0 0 24 24">
      <defs><style>.cls-1{fill:#fff;opacity:0;}.cls-2{fill:#231f20;}</style></defs><title>more-horizotnal</title><g id="Layer_2" data-name="Layer 2"><g id="more-horizotnal"><g id="more-horizotnal-2" data-name="more-horizotnal"><rect class="cls-1" width="24" height="24"/><circle class="cls-2" cx="12" cy="12" r="2"/><circle class="cls-2" cx="19" cy="12" r="2"/><circle class="cls-2" cx="5" cy="12" r="2"/></g></g></g>
    </svg>
  </g>
  <!-- Icon 17: minimize-outline -->
  <g transform="translate(316, 212)">
    <rect width="48" height="48" fill="#ffffff" stroke="#e9ecef" stroke-width="1" rx="4"/>
    <svg x="8" y="8" width="32" height="32" viewBox="0 0 24 24">
      <defs><style>.cls-1{fill:#fff;opacity:0;}.cls-2{fill:#231f20;}</style></defs><title>minimize</title><g id="Layer_2" data-name="Layer 2"><g id="minimize"><g id="minimize-2" data-name="minimize"><rect class="cls-1" width="24" height="24"/><path class="cls-2" d="M20.71,19.29l-3.4-3.39A7.92,7.92,0,0,0,19,11a8,8,0,1,0-8,8,7.92,7.92,0,0,0,4.9-1.69l3.39,3.4a1,1,0,0,0,1.42,0A1,1,0,0,0,20.71,19.29ZM5,11a6,6,0,1,1,6,6A6,6,0,0,1,5,11Z"/><path class="cls-2" d="M13,10H9a1,1,0,0,0,0,2h4a1,1,0,0,0,0-2Z"/></g></g></g>
    </svg>
  </g>
  <!-- Icon 18: menu-arrow-outline -->
  <g transform="translate(376, 212)">
    <rect width="48" height="48" fill="#ffffff" stroke="#e9ecef" stroke-width="1" rx="4"/>
    <svg x="8" y="8" width="32" height="32" viewBox="0 0 24 24">
      <defs><style>.cls-1{fill:#fff;opacity:0;}.cls-2{fill:#231f20;}</style></defs><title>menu-arrow</title><g id="Layer_2" data-name="Layer 2"><g id="menu-arrow"><g id="menu-arrow-2" data-name="menu-arrow"><rect class="cls-1" width="24" height="24" transform="translate(24 24) rotate(180)"/><path class="cls-2" d="M20.05,11H5.91l1.3-1.29A1,1,0,0,0,5.79,8.29l-3,3a1,1,0,0,0,0,1.42l3,3a1,1,0,0,0,1.42,0,1,1,0,0,0,0-1.42L5.91,13H20.05a1,1,0,0,0,.95-.95V12A1,1,0,0,0,20.05,11Z"/><rect class="cls-2" x="3" y="17" width="18" height="2" rx="0.95" ry="0.95"/><rect class="cls-2" x="3" y="5" width="18" height="2" rx="0.95" ry="0.95"/></g></g></g>
    </svg>
  </g>
  <!-- Icon 19: lock-outline -->
  <g transform="translate(436, 212)">
    <rect width="48" height="48" fill="#ffffff" stroke="#e9ecef" stroke-width="1" rx="4"/>
    <svg x="8" y="8" width="32" height="32" viewBox="0 0 24 24">
      <defs><style>.cls-1{fill:#fff;opacity:0;}.cls-2{fill:#231f20;}</style></defs><title>lock</title><g id="Layer_2" data-name="Layer 2"><g id="lock"><g id="lock-2" data-name="lock"><rect class="cls-1" width="24" height="24"/><path class="cls-2" d="M17,8H16V6.11a4,4,0,1,0-8,0V8H7a3,3,0,0,0-3,3v8a3,3,0,0,0,3,3H17a3,3,0,0,0,3-3V11A3,3,0,0,0,17,8ZM10,6.11A2.06,2.06,0,0,1,12,4a2.06,2.06,0,0,1,2,2.11V8H10ZM18,19a1,1,0,0,1-1,1H7a1,1,0,0,1-1-1V11a1,1,0,0,1,1-1H17a1,1,0,0,1,1,1Z"/><path class="cls-2" d="M12,12a3,3,0,1,0,3,3A3,3,0,0,0,12,12Zm0,4a1,1,0,1,1,1-1A1,1,0,0,1,12,16Z"/></g></g></g>
    </svg>
  </g>
  <!-- Icon 20: layout-outline -->
  <g transform="translate(496, 212)">
    <rect width="48" height="48" fill="#ffffff" stroke="#e9ecef" stroke-width="1" rx="4"/>
    <svg x="8" y="8" width="32" height="32" viewBox="0 0 24 24">
      <defs><style>.cls-1{fill:#fff;opacity:0;}.cls-2{fill:#231f20;}</style></defs><title>layout</title><g id="Layer_2" data-name="Layer 2"><g id="layout"><g id="layout-2" data-name="layout"><rect class="cls-1" width="24" height="24"/><path class="cls-2" d="M18,3H6A3,3,0,0,0,3,6V18a3,3,0,0,0,3,3H18a3,3,0,0,0,3-3V6A3,3,0,0,0,18,3ZM6,5H18a1,1,0,0,1,1,1V8H5V6A1,1,0,0,1,6,5ZM5,18V10h6v9H6A1,1,0,0,1,5,18Zm13,1H13V10h6v8A1,1,0,0,1,18,19Z"/></g></g></g>
    </svg>
  </g>
  <!-- Icon 21: home-outline -->
  <g transform="translate(556, 212)">
    <rect width="48" height="48" fill="#ffffff" stroke="#e9ecef" stroke-width="1" rx="4"/>
    <svg x="8" y="8" width="32" height="32" viewBox="0 0 24 24">
      <defs><style>.cls-1{fill:#fff;opacity:0;}.cls-2{fill:#231f20;}</style></defs><title>home</title><g id="Layer_2" data-name="Layer 2"><g id="home"><g id="home-2" data-name="home"><rect class="cls-1" width="24" height="24"/><path class="cls-2" d="M20.42,10.18,12.71,2.3a1,1,0,0,0-1.42,0L3.58,10.19A2,2,0,0,0,3,11.62V20a2,2,0,0,0,1.89,2H19.11A2,2,0,0,0,21,20V11.62A2.07,2.07,0,0,0,20.42,10.18ZM10,20V14h4v6Zm9,0H16V13a1,1,0,0,0-1-1H9a1,1,0,0,0-1,1v7H5V11.58l7-7.15,7,7.19Z"/></g></g></g>
    </svg>
  </g>
  <!-- Icon 22: google-outline -->
  <g transform="translate(196, 272)">
    <rect width="48" height="48" fill="#ffffff" stroke="#e9ecef" stroke-width="1" rx="4"/>
    <svg x="8" y="8" width="32" height="32" viewBox="0 0 24 24">
      <defs><style>.cls-1{fill:#fff;opacity:0;}.cls-2{fill:#231f20;}</style></defs><title>google</title><g id="Layer_2" data-name="Layer 2"><g id="google"><g id="google-2" data-name="google"><polyline class="cls-1" points="0 0 24 0 24 24 0 24"/><path class="cls-2" d="M12,22h-.43A10.16,10.16,0,0,1,2,12.29,10,10,0,0,1,16.12,2.88a1.48,1.48,0,0,1,.77.86,1.47,1.47,0,0,1-.1,1.16L15.5,7.28a1.44,1.44,0,0,1-1.83.64A4.5,4.5,0,0,0,8.77,9a4.41,4.41,0,0,0-1.16,3.34,4.36,4.36,0,0,0,1.66,3,4.52,4.52,0,0,0,3.45,1,3.89,3.89,0,0,0,2.63-1.57h-2.9A1.45,1.45,0,0,1,11,13.33V10.65A1.45,1.45,0,0,1,12.45,9.2h8.1A1.46,1.46,0,0,1,22,10.64c0,.63,0,1.7,0,1.88A10,10,0,0,1,12,22ZM12,4a8,8,0,0,0-8,8.24A8.12,8.12,0,0,0,11.65,20,8,8,0,0,0,20,12.42V11.2H13v1.58h5.31l-.41,1.3A6,6,0,0,1,13,18.33,6.58,6.58,0,0,1,8,17a6.33,6.33,0,0,1-.72-9.3A6.52,6.52,0,0,1,14,5.91l.77-1.43A7.9,7.9,0,0,0,12,4Z"/></g></g></g>
    </svg>
  </g>
  <!-- Icon 23: folder-remove-outline -->
  <g transform="translate(256, 272)">
    <rect width="48" height="48" fill="#ffffff" stroke="#e9ecef" stroke-width="1" rx="4"/>
    <svg x="8" y="8" width="32" height="32" viewBox="0 0 24 24">
      <defs><style>.cls-1{fill:#fff;opacity:0;}.cls-2{fill:#231f20;}</style></defs><title>folder-remove</title><g id="Layer_2" data-name="Layer 2"><g id="folder-remove"><g id="folder-remove-2" data-name="folder-remove"><rect class="cls-1" width="24" height="24"/><path class="cls-2" d="M14,13H10a1,1,0,0,0,0,2h4a1,1,0,0,0,0-2Z"/><path class="cls-2" d="M19.5,7.05h-7L9.87,3.87A1,1,0,0,0,9.1,3.5H4.5A2.47,2.47,0,0,0,2,5.93V18.07A2.47,2.47,0,0,0,4.5,20.5h15A2.47,2.47,0,0,0,22,18.07V9.48A2.47,2.47,0,0,0,19.5,7.05Zm.5,11a.46.46,0,0,1-.5.43H4.5a.46.46,0,0,1-.5-.43V5.93a.46.46,0,0,1,.5-.43H8.63l2.6,3.18a1,1,0,0,0,.77.37h7.5a.46.46,0,0,1,.5.43Z"/></g></g></g>
    </svg>
  </g>
  <!-- Icon 24: flash-off-outline -->
  <g transform="translate(316, 272)">
    <rect width="48" height="48" fill="#ffffff" stroke="#e9ecef" stroke-width="1" rx="4"/>
    <svg x="8" y="8" width="32" height="32" viewBox="0 0 24 24">
      <defs><style>.cls-1{fill:#fff;opacity:0;}.cls-2{fill:#231f20;}</style></defs><title>flash-off</title><g id="Layer_2" data-name="Layer 2"><g id="flash-off"><g id="flash-off-2" data-name="flash-off"><rect class="cls-1" width="24" height="24"/><path class="cls-2" d="M20.71,19.29l-16-16A1,1,0,0,0,3.29,4.71l16,16a1,1,0,0,0,1.42,0A1,1,0,0,0,20.71,19.29Z"/><path class="cls-2" d="M12.54,18.06l.27-2.42L10,12.8H6.87l1.24-1.86L6.67,9.5l-2.5,3.74A1,1,0,0,0,5,14.8h5.89l-.77,7.09a1,1,0,0,0,.65,1.05,1,1,0,0,0,.34.06,1,1,0,0,0,.83-.44l3.12-4.67-1.44-1.44Z"/><path class="cls-2" d="M11.46,5.94l-.27,2.42L14,11.2h3.1l-1.24,1.86,1.44,1.44,2.5-3.74A1,1,0,0,0,19,9.2H13.11l.77-7.09a1,1,0,0,0-.65-1,1,1,0,0,0-1.17.38L8.94,6.11l1.44,1.44Z"/></g></g></g>
    </svg>
  </g>
  <!-- Icon 25: file-add-outline -->
  <g transform="translate(376, 272)">
    <rect width="48" height="48" fill="#ffffff" stroke="#e9ecef" stroke-width="1" rx="4"/>
    <svg x="8" y="8" width="32" height="32" viewBox="0 0 24 24">
      <defs><style>.cls-1{fill:#fff;opacity:0;}.cls-2{fill:#231f20;}</style></defs><title>file-add</title><g id="Layer_2" data-name="Layer 2"><g id="file-add"><g id="file-add-2" data-name="file-add"><rect class="cls-1" width="24" height="24"/><path class="cls-2" d="M19.74,8.33l-5.44-6A1,1,0,0,0,13.56,2h-7A2.53,2.53,0,0,0,4,4.5v15A2.53,2.53,0,0,0,6.56,22H17.44A2.53,2.53,0,0,0,20,19.5V9A1,1,0,0,0,19.74,8.33ZM14,5l2.74,3h-2A.79.79,0,0,1,14,7.15Zm3.44,15H6.56A.53.53,0,0,1,6,19.5V4.5A.53.53,0,0,1,6.56,4H12V7.15A2.79,2.79,0,0,0,14.71,10H18v9.5A.53.53,0,0,1,17.44,20Z"/><path class="cls-2" d="M14,13H13V12a1,1,0,0,0-2,0v1H10a1,1,0,0,0,0,2h1v1a1,1,0,0,0,2,0V15h1a1,1,0,0,0,0-2Z"/></g></g></g>
    </svg>
  </g>
  <!-- Icon 26: expand-outline -->
  <g transform="translate(436, 272)">
    <rect width="48" height="48" fill="#ffffff" stroke="#e9ecef" stroke-width="1" rx="4"/>
    <svg x="8" y="8" width="32" height="32" viewBox="0 0 24 24">
      <defs><style>.cls-1{fill:#fff;opacity:0;}.cls-2{fill:#231f20;}</style></defs><title>expand</title><g id="Layer_2" data-name="Layer 2"><g id="expand"><g id="expand-2" data-name="expand"><rect class="cls-1" width="24" height="24" transform="translate(24 24) rotate(180)"/><path class="cls-2" d="M20,5a1,1,0,0,0-1-1L14,4h0a1,1,0,0,0,0,2h2.57L13.29,9.29a1,1,0,0,0,0,1.42,1,1,0,0,0,1.42,0L18,7.42V10a1,1,0,0,0,1,1h0a1,1,0,0,0,1-1Z"/><path class="cls-2" d="M10.71,13.29a1,1,0,0,0-1.42,0L6,16.57V14a1,1,0,0,0-1-1H5a1,1,0,0,0-1,1l0,5a1,1,0,0,0,1,1h5a1,1,0,0,0,0-2H7.42l3.29-3.29A1,1,0,0,0,10.71,13.29Z"/></g></g></g>
    </svg>
  </g>
  <!-- Icon 27: download-outline -->
  <g transform="translate(496, 272)">
    <rect width="48" height="48" fill="#ffffff" stroke="#e9ecef" stroke-width="1" rx="4"/>
    <svg x="8" y="8" width="32" height="32" viewBox="0 0 24 24">
      <defs><style>.cls-1{fill:#fff;opacity:0;}.cls-2{fill:#231f20;}</style></defs><title>download</title><g id="Layer_2" data-name="Layer 2"><g id="download"><g id="download-2" data-name="download"><rect class="cls-1" width="24" height="24"/><rect class="cls-2" x="4" y="18" width="16" height="2" rx="1" ry="1"/><rect class="cls-2" x="3" y="17" width="4" height="2" rx="1" ry="1" transform="translate(-13 23) rotate(-90)"/><rect class="cls-2" x="17" y="17" width="4" height="2" rx="1" ry="1" transform="translate(1 37) rotate(-90)"/><path class="cls-2" d="M12,15a1,1,0,0,1-.58-.18L7.42,12a1,1,0,0,1-.24-1.39,1,1,0,0,1,1.4-.24L12,12.76,15.4,10.2a1,1,0,0,1,1.2,1.6l-4,3A1,1,0,0,1,12,15Z"/><path class="cls-2" d="M12,13a1,1,0,0,1-1-1V4a1,1,0,0,1,2,0v8A1,1,0,0,1,12,13Z"/></g></g></g>
    </svg>
  </g>
  <!-- Icon 28: cube-outline -->
  <g transform="translate(556, 272)">
    <rect width="48" height="48" fill="#ffffff" stroke="#e9ecef" stroke-width="1" rx="4"/>
    <svg x="8" y="8" width="32" height="32" viewBox="0 0 24 24">
      <defs><style>.cls-1{fill:#fff;opacity:0;}.cls-2{fill:#231f20;}</style></defs><title>cube</title><g id="Layer_2" data-name="Layer 2"><g id="cube"><g id="cube-2" data-name="cube"><rect class="cls-1" width="24" height="24"/><path class="cls-2" d="M20.66,7.26a0,0,0,0,1,0,0l0,0c0-.07-.1-.14-.15-.21l-.09-.1a2.5,2.5,0,0,0-.86-.68l-6.4-3h0a2.7,2.7,0,0,0-2.26,0l-6.4,3a2.6,2.6,0,0,0-.86.68L3.52,7a1,1,0,0,0-.15.2l0,0a0,0,0,0,1,0,0A2.39,2.39,0,0,0,3,8.46v7.06a2.49,2.49,0,0,0,1.46,2.26l6.4,3a2.7,2.7,0,0,0,2.27,0l6.4-3A2.49,2.49,0,0,0,21,15.54V8.46A2.39,2.39,0,0,0,20.66,7.26Zm-8.95-2.2a.73.73,0,0,1,.58,0l5.33,2.48L12,10.15,6.38,7.54ZM5.3,16a.47.47,0,0,1-.3-.43V9.1l6,2.79v6.72Zm13.39,0L13,18.61V11.89L19,9.1v6.44A.48.48,0,0,1,18.69,16Z"/></g></g></g>
    </svg>
  </g>
  <!-- Icon 29: corner-right-down-outline -->
  <g transform="translate(196, 332)">
    <rect width="48" height="48" fill="#ffffff" stroke="#e9ecef" stroke-width="1" rx="4"/>
    <svg x="8" y="8" width="32" height="32" viewBox="0 0 24 24">
      <defs><style>.cls-1{fill:#fff;opacity:0;}.cls-2{fill:#231f20;}</style></defs><title>corner-right-down</title><g id="Layer_2" data-name="Layer 2"><g id="corner-right-down"><g id="corner-right-down-2" data-name="corner-right-down"><rect class="cls-1" width="24" height="24"/><path class="cls-2" d="M18.78,14.38a1,1,0,0,0-1.4-.16L14,16.92V8a3,3,0,0,0-3-3H6A1,1,0,0,0,6,7h5a1,1,0,0,1,1,1v8.92l-3.38-2.7a1,1,0,0,0-1.24,1.56l5,4a1,1,0,0,0,1.24,0l5-4A1,1,0,0,0,18.78,14.38Z"/></g></g></g>
    </svg>
  </g>
  <!-- Icon 30: compass-outline -->
  <g transform="translate(256, 332)">
    <rect width="48" height="48" fill="#ffffff" stroke="#e9ecef" stroke-width="1" rx="4"/>
    <svg x="8" y="8" width="32" height="32" viewBox="0 0 24 24">
      <defs><style>.cls-1{fill:#fff;opacity:0;}.cls-2{fill:#231f20;}</style></defs><title>compass</title><g id="Layer_2" data-name="Layer 2"><g id="compass"><g id="compass-2" data-name="compass"><rect class="cls-1" width="24" height="24"/><path class="cls-2" d="M12,2A10,10,0,1,0,22,12,10,10,0,0,0,12,2Zm0,18a8,8,0,1,1,8-8A8,8,0,0,1,12,20Z"/><path class="cls-2" d="M15.68,8.32a1,1,0,0,0-1.1-.25l-4.21,1.7a1,1,0,0,0-.55.55L8.07,14.58a1,1,0,0,0,.18,1l0,0,.05,0A1,1,0,0,0,9,16a1,1,0,0,0,.38-.07l4.21-1.7a1,1,0,0,0,.55-.55l1.75-4.26A1,1,0,0,0,15.68,8.32ZM10.8,13.21l.71-1.74,1.69-.68-.71,1.74Z"/></g></g></g>
    </svg>
  </g>
  <!-- Icon 31: cloud-upload-outline -->
  <g transform="translate(316, 332)">
    <rect width="48" height="48" fill="#ffffff" stroke="#e9ecef" stroke-width="1" rx="4"/>
    <svg x="8" y="8" width="32" height="32" viewBox="0 0 24 24">
      <defs><style>.cls-1{fill:#fff;opacity:0;}.cls-2{fill:#231f20;}</style></defs><title>cloud-upload</title><g id="Layer_2" data-name="Layer 2"><g id="cloud-upload"><g id="cloud-upload-2" data-name="cloud-upload"><rect class="cls-1" width="24" height="24"/><path class="cls-2" d="M12.71,11.29a1,1,0,0,0-1.4,0l-3,2.9a1,1,0,1,0,1.38,1.44L11,14.36V20a1,1,0,0,0,2,0V14.41l1.29,1.3a1,1,0,0,0,1.42,0,1,1,0,0,0,0-1.42Z"/><path class="cls-2" d="M17.67,7A6,6,0,0,0,6.33,7a5,5,0,0,0-3.08,8.27A1,1,0,1,0,4.75,14,3,3,0,0,1,7,9h.1a1,1,0,0,0,1-.8,4,4,0,0,1,7.84,0,1,1,0,0,0,1,.8H17a3,3,0,0,1,2.25,5,1,1,0,0,0,.09,1.42,1,1,0,0,0,.66.25,1,1,0,0,0,.75-.34A5,5,0,0,0,17.67,7Z"/></g></g></g>
    </svg>
  </g>
  <!-- Icon 32: clipboard-outline -->
  <g transform="translate(376, 332)">
    <rect width="48" height="48" fill="#ffffff" stroke="#e9ecef" stroke-width="1" rx="4"/>
    <svg x="8" y="8" width="32" height="32" viewBox="0 0 24 24">
      <defs><style>.cls-1{fill:#fff;opacity:0;}.cls-2{fill:#231f20;}</style></defs><title>clipboard</title><g id="Layer_2" data-name="Layer 2"><g id="clipboard"><g id="clipboard-2" data-name="clipboard"><rect class="cls-1" width="24" height="24"/><path class="cls-2" d="M18,5V4a2,2,0,0,0-2-2H8A2,2,0,0,0,6,4V5A3,3,0,0,0,3,8V19a3,3,0,0,0,3,3H18a3,3,0,0,0,3-3V8A3,3,0,0,0,18,5ZM8,4h8V8H8V4ZM19,19a1,1,0,0,1-1,1H6a1,1,0,0,1-1-1V8A1,1,0,0,1,6,7V8a2,2,0,0,0,2,2h8a2,2,0,0,0,2-2V7a1,1,0,0,1,1,1Z"/></g></g></g>
    </svg>
  </g>
  <!-- Icon 33: checkmark-square-2-outline -->
  <g transform="translate(436, 332)">
    <rect width="48" height="48" fill="#ffffff" stroke="#e9ecef" stroke-width="1" rx="4"/>
    <svg x="8" y="8" width="32" height="32" viewBox="0 0 24 24">
      <defs><style>.cls-1{fill:#fff;opacity:0;}.cls-2{fill:#231f20;}</style></defs><title>checkmark-square-2</title><g id="Layer_2" data-name="Layer 2"><g id="checkmark-square-2"><g id="checkmark-square-2-2" data-name="checkmark-square-2"><rect class="cls-1" width="24" height="24" transform="translate(24 24) rotate(180)"/><path class="cls-2" d="M18,3H6A3,3,0,0,0,3,6V18a3,3,0,0,0,3,3H18a3,3,0,0,0,3-3V6A3,3,0,0,0,18,3Zm1,15a1,1,0,0,1-1,1H6a1,1,0,0,1-1-1V6A1,1,0,0,1,6,5H18a1,1,0,0,1,1,1Z"/><path class="cls-2" d="M14.7,8.39l-3.78,5L9.29,11.28a1,1,0,0,0-1.58,1.23l2.43,3.11a1,1,0,0,0,.79.38h0a1,1,0,0,0,.79-.39l4.57-6a1,1,0,1,0-1.6-1.22Z"/></g></g></g>
    </svg>
  </g>
  <!-- Icon 34: car-outline -->
  <g transform="translate(496, 332)">
    <rect width="48" height="48" fill="#ffffff" stroke="#e9ecef" stroke-width="1" rx="4"/>
    <svg x="8" y="8" width="32" height="32" viewBox="0 0 24 24">
      <defs><style>.cls-1{fill:#fff;opacity:0;}.cls-2{fill:#231f20;}</style></defs><title>car</title><g id="Layer_2" data-name="Layer 2"><g id="car"><g id="car-2" data-name="car"><rect class="cls-1" width="24" height="24"/><path class="cls-2" d="M21.6,11.22,17,7.52V5a1.91,1.91,0,0,0-1.81-2H3.79A1.91,1.91,0,0,0,2,5V15A2,2,0,0,0,3.2,16.88,3,3,0,1,0,8.8,17h6.36a3,3,0,1,0,5.64,0H21a1,1,0,0,0,1-1V12A1,1,0,0,0,21.6,11.22ZM20,12.48V15H17V10.08ZM7,18a1,1,0,1,1-1-1A1,1,0,0,1,7,18Zm5-3H4V5H15l0,10Zm7,3a1,1,0,1,1-1-1A1,1,0,0,1,19,18Z"/></g></g></g>
    </svg>
  </g>
  <!-- Icon 35: briefcase-outline -->
  <g transform="translate(556, 332)">
    <rect width="48" height="48" fill="#ffffff" stroke="#e9ecef" stroke-width="1" rx="4"/>
    <svg x="8" y="8" width="32" height="32" viewBox="0 0 24 24">
      <defs><style>.cls-1{fill:#fff;opacity:0;}.cls-2{fill:#231f20;}</style></defs><title>briefcase</title><g id="Layer_2" data-name="Layer 2"><g id="briefcase"><g id="briefcase-2" data-name="briefcase"><rect class="cls-1" width="24" height="24"/><path class="cls-2" d="M19,7H16V5.5A2.5,2.5,0,0,0,13.5,3h-3A2.5,2.5,0,0,0,8,5.5V7H5a3,3,0,0,0-3,3v8a3,3,0,0,0,3,3H19a3,3,0,0,0,3-3V10A3,3,0,0,0,19,7ZM15,9V19H9V9ZM10,5.5a.5.5,0,0,1,.5-.5h3a.5.5,0,0,1,.5.5V7H10ZM4,18V10A1,1,0,0,1,5,9H7V19H5A1,1,0,0,1,4,18Zm16,0a1,1,0,0,1-1,1H17V9h2a1,1,0,0,1,1,1Z"/></g></g></g>
    </svg>
  </g>
  
  <!-- Footer -->
  <text x="400" y="580" text-anchor="middle" font-family="system-ui, -apple-system, sans-serif" font-size="12" fill="#6c757d">
    Showing 35 of 244 icons
  </text>
  
</svg>