<svg width="800" height="600" xmlns="http://www.w3.org/2000/svg">
  <!-- Background -->
  <rect width="800" height="600" fill="#ffffff"/>
  
  <!-- Header Background -->
  <rect width="800" height="80" fill="#f8f9fa"/>
  
  <!-- Title -->
  <text x="400" y="30" text-anchor="middle" font-family="system-ui, -apple-system, sans-serif" font-size="20" font-weight="bold" fill="#212529">Feather Icons</text>
  
  <!-- Subtitle -->
  <text x="400" y="55" text-anchor="middle" font-family="system-ui, -apple-system, sans-serif" font-size="14" fill="#6c757d">287 icons</text>
  
  <!-- Icon Grid -->
  <!-- Icon 1: zoom-out -->
  <g transform="translate(196, 92)">
    <rect width="48" height="48" fill="#ffffff" stroke="#e9ecef" stroke-width="1" rx="4"/>
    <svg x="8" y="8" width="32" height="32" viewBox="0 0 24 24">
      <circle cx="11" cy="11" r="8"/><line x1="21" y1="21" x2="16.65" y2="16.65"/><line x1="8" y1="11" x2="14" y2="11"/>
    </svg>
  </g>
  <!-- Icon 2: x-circle -->
  <g transform="translate(256, 92)">
    <rect width="48" height="48" fill="#ffffff" stroke="#e9ecef" stroke-width="1" rx="4"/>
    <svg x="8" y="8" width="32" height="32" viewBox="0 0 24 24">
      <circle cx="12" cy="12" r="10"/><line x1="15" y1="9" x2="9" y2="15"/><line x1="9" y1="9" x2="15" y2="15"/>
    </svg>
  </g>
  <!-- Icon 3: volume-1 -->
  <g transform="translate(316, 92)">
    <rect width="48" height="48" fill="#ffffff" stroke="#e9ecef" stroke-width="1" rx="4"/>
    <svg x="8" y="8" width="32" height="32" viewBox="0 0 24 24">
      <polygon points="11 5 6 9 2 9 2 15 6 15 11 19 11 5"/><path d="M15.54 8.46a5 5 0 0 1 0 7.07"/>
    </svg>
  </g>
  <!-- Icon 4: user-minus -->
  <g transform="translate(376, 92)">
    <rect width="48" height="48" fill="#ffffff" stroke="#e9ecef" stroke-width="1" rx="4"/>
    <svg x="8" y="8" width="32" height="32" viewBox="0 0 24 24">
      <path d="M16 21v-2a4 4 0 0 0-4-4H5a4 4 0 0 0-4 4v2"/><circle cx="8.5" cy="7" r="4"/><line x1="23" y1="11" x2="17" y2="11"/>
    </svg>
  </g>
  <!-- Icon 5: twitter -->
  <g transform="translate(436, 92)">
    <rect width="48" height="48" fill="#ffffff" stroke="#e9ecef" stroke-width="1" rx="4"/>
    <svg x="8" y="8" width="32" height="32" viewBox="0 0 24 24">
      <path d="M23 3a10.9 10.9 0 0 1-3.14 1.53 4.48 4.48 0 0 0-7.86 3v1A10.66 10.66 0 0 1 3 4s-4 9 5 13a11.64 11.64 0 0 1-7 2c9 5 20 0 20-11.5a4.5 4.5 0 0 0-.08-.83A7.72 7.72 0 0 0 23 3z"/>
    </svg>
  </g>
  <!-- Icon 6: trash -->
  <g transform="translate(496, 92)">
    <rect width="48" height="48" fill="#ffffff" stroke="#e9ecef" stroke-width="1" rx="4"/>
    <svg x="8" y="8" width="32" height="32" viewBox="0 0 24 24">
      <polyline points="3 6 5 6 21 6"/><path d="M19 6v14a2 2 0 0 1-2 2H7a2 2 0 0 1-2-2V6m3 0V4a2 2 0 0 1 2-2h4a2 2 0 0 1 2 2v2"/>
    </svg>
  </g>
  <!-- Icon 7: terminal -->
  <g transform="translate(556, 92)">
    <rect width="48" height="48" fill="#ffffff" stroke="#e9ecef" stroke-width="1" rx="4"/>
    <svg x="8" y="8" width="32" height="32" viewBox="0 0 24 24">
      <polyline points="4 17 10 11 4 5"/><line x1="12" y1="19" x2="20" y2="19"/>
    </svg>
  </g>
  <!-- Icon 8: stop-circle -->
  <g transform="translate(196, 152)">
    <rect width="48" height="48" fill="#ffffff" stroke="#e9ecef" stroke-width="1" rx="4"/>
    <svg x="8" y="8" width="32" height="32" viewBox="0 0 24 24">
      <circle cx="12" cy="12" r="10"/><rect x="9" y="9" width="6" height="6"/>
    </svg>
  </g>
  <!-- Icon 9: slack -->
  <g transform="translate(256, 152)">
    <rect width="48" height="48" fill="#ffffff" stroke="#e9ecef" stroke-width="1" rx="4"/>
    <svg x="8" y="8" width="32" height="32" viewBox="0 0 24 24">
      <path d="M14.5 10c-.83 0-1.5-.67-1.5-1.5v-5c0-.83.67-1.5 1.5-1.5s1.5.67 1.5 1.5v5c0 .83-.67 1.5-1.5 1.5z"/><path d="M20.5 10H19V8.5c0-.83.67-1.5 1.5-1.5s1.5.67 1.5 1.5-.67 1.5-1.5 1.5z"/><path d="M9.5 14c.83 0 1.5.67 1.5 1.5v5c0 .83-.67 1.5-1.5 1.5S8 21.33 8 20.5v-5c0-.83.67-1.5 1.5-1.5z"/><path d="M3.5 14H5v1.5c0 .83-.67 1.5-1.5 1.5S2 16.33 2 15.5 2.67 14 3.5 14z"/><path d="M14 14.5c0-.83.67-1.5 1.5-1.5h5c.83 0 1.5.67 1.5 1.5s-.67 1.5-1.5 1.5h-5c-.83 0-1.5-.67-1.5-1.5z"/><path d="M15.5 19H14v1.5c0 .83.67 1.5 1.5 1.5s1.5-.67 1.5-1.5-.67-1.5-1.5-1.5z"/><path d="M10 9.5C10 8.67 9.33 8 8.5 8h-5C2.67 8 2 8.67 2 9.5S2.67 11 3.5 11h5c.83 0 1.5-.67 1.5-1.5z"/><path d="M8.5 5H10V3.5C10 2.67 9.33 2 8.5 2S7 2.67 7 3.5 7.67 5 8.5 5z"/>
    </svg>
  </g>
  <!-- Icon 10: shield-off -->
  <g transform="translate(316, 152)">
    <rect width="48" height="48" fill="#ffffff" stroke="#e9ecef" stroke-width="1" rx="4"/>
    <svg x="8" y="8" width="32" height="32" viewBox="0 0 24 24">
      <path d="M19.69 14a6.9 6.9 0 0 0 .31-2V5l-8-3-3.16 1.18"/><path d="M4.73 4.73L4 5v7c0 6 8 10 8 10a20.29 20.29 0 0 0 5.62-4.38"/><line x1="1" y1="1" x2="23" y2="23"/>
    </svg>
  </g>
  <!-- Icon 11: save -->
  <g transform="translate(376, 152)">
    <rect width="48" height="48" fill="#ffffff" stroke="#e9ecef" stroke-width="1" rx="4"/>
    <svg x="8" y="8" width="32" height="32" viewBox="0 0 24 24">
      <path d="M19 21H5a2 2 0 0 1-2-2V5a2 2 0 0 1 2-2h11l5 5v11a2 2 0 0 1-2 2z"/><polyline points="17 21 17 13 7 13 7 21"/><polyline points="7 3 7 8 15 8"/>
    </svg>
  </g>
  <!-- Icon 12: radio -->
  <g transform="translate(436, 152)">
    <rect width="48" height="48" fill="#ffffff" stroke="#e9ecef" stroke-width="1" rx="4"/>
    <svg x="8" y="8" width="32" height="32" viewBox="0 0 24 24">
      <circle cx="12" cy="12" r="2"/><path d="M16.24 7.76a6 6 0 0 1 0 8.49m-8.48-.01a6 6 0 0 1 0-8.49m11.31-2.82a10 10 0 0 1 0 14.14m-14.14 0a10 10 0 0 1 0-14.14"/>
    </svg>
  </g>
  <!-- Icon 13: play-circle -->
  <g transform="translate(496, 152)">
    <rect width="48" height="48" fill="#ffffff" stroke="#e9ecef" stroke-width="1" rx="4"/>
    <svg x="8" y="8" width="32" height="32" viewBox="0 0 24 24">
      <circle cx="12" cy="12" r="10"/><polygon points="10 8 16 12 10 16 10 8"/>
    </svg>
  </g>
  <!-- Icon 14: phone-call -->
  <g transform="translate(556, 152)">
    <rect width="48" height="48" fill="#ffffff" stroke="#e9ecef" stroke-width="1" rx="4"/>
    <svg x="8" y="8" width="32" height="32" viewBox="0 0 24 24">
      <path d="M15.05 5A5 5 0 0 1 19 8.95M15.05 1A9 9 0 0 1 23 8.94m-1 7.98v3a2 2 0 0 1-2.18 2 19.79 19.79 0 0 1-8.63-3.07 19.5 19.5 0 0 1-6-6 19.79 19.79 0 0 1-3.07-8.67A2 2 0 0 1 4.11 2h3a2 2 0 0 1 2 1.72 12.84 12.84 0 0 0 .7 2.81 2 2 0 0 1-.45 2.11L8.09 9.91a16 16 0 0 0 6 6l1.27-1.27a2 2 0 0 1 2.11-.45 12.84 12.84 0 0 0 2.81.7A2 2 0 0 1 22 16.92z"/>
    </svg>
  </g>
  <!-- Icon 15: navigation -->
  <g transform="translate(196, 212)">
    <rect width="48" height="48" fill="#ffffff" stroke="#e9ecef" stroke-width="1" rx="4"/>
    <svg x="8" y="8" width="32" height="32" viewBox="0 0 24 24">
      <polygon points="3 11 22 2 13 21 11 13 3 11"/>
    </svg>
  </g>
  <!-- Icon 16: monitor -->
  <g transform="translate(256, 212)">
    <rect width="48" height="48" fill="#ffffff" stroke="#e9ecef" stroke-width="1" rx="4"/>
    <svg x="8" y="8" width="32" height="32" viewBox="0 0 24 24">
      <rect x="2" y="3" width="20" height="14" rx="2" ry="2"/><line x1="8" y1="21" x2="16" y2="21"/><line x1="12" y1="17" x2="12" y2="21"/>
    </svg>
  </g>
  <!-- Icon 17: message-square -->
  <g transform="translate(316, 212)">
    <rect width="48" height="48" fill="#ffffff" stroke="#e9ecef" stroke-width="1" rx="4"/>
    <svg x="8" y="8" width="32" height="32" viewBox="0 0 24 24">
      <path d="M21 15a2 2 0 0 1-2 2H7l-4 4V5a2 2 0 0 1 2-2h14a2 2 0 0 1 2 2z"/>
    </svg>
  </g>
  <!-- Icon 18: mail -->
  <g transform="translate(376, 212)">
    <rect width="48" height="48" fill="#ffffff" stroke="#e9ecef" stroke-width="1" rx="4"/>
    <svg x="8" y="8" width="32" height="32" viewBox="0 0 24 24">
      <path d="M4 4h16c1.1 0 2 .9 2 2v12c0 1.1-.9 2-2 2H4c-1.1 0-2-.9-2-2V6c0-1.1.9-2 2-2z"/><polyline points="22,6 12,13 2,6"/>
    </svg>
  </g>
  <!-- Icon 19: link-2 -->
  <g transform="translate(436, 212)">
    <rect width="48" height="48" fill="#ffffff" stroke="#e9ecef" stroke-width="1" rx="4"/>
    <svg x="8" y="8" width="32" height="32" viewBox="0 0 24 24">
      <path d="M15 7h3a5 5 0 0 1 5 5 5 5 0 0 1-5 5h-3m-6 0H6a5 5 0 0 1-5-5 5 5 0 0 1 5-5h3"/><line x1="8" y1="12" x2="16" y2="12"/>
    </svg>
  </g>
  <!-- Icon 20: inbox -->
  <g transform="translate(496, 212)">
    <rect width="48" height="48" fill="#ffffff" stroke="#e9ecef" stroke-width="1" rx="4"/>
    <svg x="8" y="8" width="32" height="32" viewBox="0 0 24 24">
      <polyline points="22 12 16 12 14 15 10 15 8 12 2 12"/><path d="M5.45 5.11L2 12v6a2 2 0 0 0 2 2h16a2 2 0 0 0 2-2v-6l-3.45-6.89A2 2 0 0 0 16.76 4H7.24a2 2 0 0 0-1.79 1.11z"/>
    </svg>
  </g>
  <!-- Icon 21: hard-drive -->
  <g transform="translate(556, 212)">
    <rect width="48" height="48" fill="#ffffff" stroke="#e9ecef" stroke-width="1" rx="4"/>
    <svg x="8" y="8" width="32" height="32" viewBox="0 0 24 24">
      <line x1="22" y1="12" x2="2" y2="12"/><path d="M5.45 5.11L2 12v6a2 2 0 0 0 2 2h16a2 2 0 0 0 2-2v-6l-3.45-6.89A2 2 0 0 0 16.76 4H7.24a2 2 0 0 0-1.79 1.11z"/><line x1="6" y1="16" x2="6.01" y2="16"/><line x1="10" y1="16" x2="10.01" y2="16"/>
    </svg>
  </g>
  <!-- Icon 22: git-branch -->
  <g transform="translate(196, 272)">
    <rect width="48" height="48" fill="#ffffff" stroke="#e9ecef" stroke-width="1" rx="4"/>
    <svg x="8" y="8" width="32" height="32" viewBox="0 0 24 24">
      <line x1="6" y1="3" x2="6" y2="15"/><circle cx="18" cy="6" r="3"/><circle cx="6" cy="18" r="3"/><path d="M18 9a9 9 0 0 1-9 9"/>
    </svg>
  </g>
  <!-- Icon 23: filter -->
  <g transform="translate(256, 272)">
    <rect width="48" height="48" fill="#ffffff" stroke="#e9ecef" stroke-width="1" rx="4"/>
    <svg x="8" y="8" width="32" height="32" viewBox="0 0 24 24">
      <polygon points="22 3 2 3 10 12.46 10 19 14 21 14 12.46 22 3"/>
    </svg>
  </g>
  <!-- Icon 24: fast-forward -->
  <g transform="translate(316, 272)">
    <rect width="48" height="48" fill="#ffffff" stroke="#e9ecef" stroke-width="1" rx="4"/>
    <svg x="8" y="8" width="32" height="32" viewBox="0 0 24 24">
      <polygon points="13 19 22 12 13 5 13 19"/><polygon points="2 19 11 12 2 5 2 19"/>
    </svg>
  </g>
  <!-- Icon 25: droplet -->
  <g transform="translate(376, 272)">
    <rect width="48" height="48" fill="#ffffff" stroke="#e9ecef" stroke-width="1" rx="4"/>
    <svg x="8" y="8" width="32" height="32" viewBox="0 0 24 24">
      <path d="M12 2.69l5.66 5.66a8 8 0 1 1-11.31 0z"/>
    </svg>
  </g>
  <!-- Icon 26: disc -->
  <g transform="translate(436, 272)">
    <rect width="48" height="48" fill="#ffffff" stroke="#e9ecef" stroke-width="1" rx="4"/>
    <svg x="8" y="8" width="32" height="32" viewBox="0 0 24 24">
      <circle cx="12" cy="12" r="10"/><circle cx="12" cy="12" r="3"/>
    </svg>
  </g>
  <!-- Icon 27: corner-up-left -->
  <g transform="translate(496, 272)">
    <rect width="48" height="48" fill="#ffffff" stroke="#e9ecef" stroke-width="1" rx="4"/>
    <svg x="8" y="8" width="32" height="32" viewBox="0 0 24 24">
      <polyline points="9 14 4 9 9 4"/><path d="M20 20v-7a4 4 0 0 0-4-4H4"/>
    </svg>
  </g>
  <!-- Icon 28: compass -->
  <g transform="translate(556, 272)">
    <rect width="48" height="48" fill="#ffffff" stroke="#e9ecef" stroke-width="1" rx="4"/>
    <svg x="8" y="8" width="32" height="32" viewBox="0 0 24 24">
      <circle cx="12" cy="12" r="10"/><polygon points="16.24 7.76 14.12 14.12 7.76 16.24 9.88 9.88 16.24 7.76"/>
    </svg>
  </g>
  <!-- Icon 29: cloud-snow -->
  <g transform="translate(196, 332)">
    <rect width="48" height="48" fill="#ffffff" stroke="#e9ecef" stroke-width="1" rx="4"/>
    <svg x="8" y="8" width="32" height="32" viewBox="0 0 24 24">
      <path d="M20 17.58A5 5 0 0 0 18 8h-1.26A8 8 0 1 0 4 16.25"/><line x1="8" y1="16" x2="8.01" y2="16"/><line x1="8" y1="20" x2="8.01" y2="20"/><line x1="12" y1="18" x2="12.01" y2="18"/><line x1="12" y1="22" x2="12.01" y2="22"/><line x1="16" y1="16" x2="16.01" y2="16"/><line x1="16" y1="20" x2="16.01" y2="20"/>
    </svg>
  </g>
  <!-- Icon 30: chrome -->
  <g transform="translate(256, 332)">
    <rect width="48" height="48" fill="#ffffff" stroke="#e9ecef" stroke-width="1" rx="4"/>
    <svg x="8" y="8" width="32" height="32" viewBox="0 0 24 24">
      <circle cx="12" cy="12" r="10"/><circle cx="12" cy="12" r="4"/><line x1="21.17" y1="8" x2="12" y2="8"/><line x1="3.95" y1="6.06" x2="8.54" y2="14"/><line x1="10.88" y1="21.94" x2="15.46" y2="14"/>
    </svg>
  </g>
  <!-- Icon 31: chevron-down -->
  <g transform="translate(316, 332)">
    <rect width="48" height="48" fill="#ffffff" stroke="#e9ecef" stroke-width="1" rx="4"/>
    <svg x="8" y="8" width="32" height="32" viewBox="0 0 24 24">
      <polyline points="6 9 12 15 18 9"/>
    </svg>
  </g>
  <!-- Icon 32: briefcase -->
  <g transform="translate(376, 332)">
    <rect width="48" height="48" fill="#ffffff" stroke="#e9ecef" stroke-width="1" rx="4"/>
    <svg x="8" y="8" width="32" height="32" viewBox="0 0 24 24">
      <rect x="2" y="7" width="20" height="14" rx="2" ry="2"/><path d="M16 21V5a2 2 0 0 0-2-2h-4a2 2 0 0 0-2 2v16"/>
    </svg>
  </g>
  <!-- Icon 33: bell-off -->
  <g transform="translate(436, 332)">
    <rect width="48" height="48" fill="#ffffff" stroke="#e9ecef" stroke-width="1" rx="4"/>
    <svg x="8" y="8" width="32" height="32" viewBox="0 0 24 24">
      <path d="M13.73 21a2 2 0 0 1-3.46 0"/><path d="M18.63 13A17.89 17.89 0 0 1 18 8"/><path d="M6.26 6.26A5.86 5.86 0 0 0 6 8c0 7-3 9-3 9h14"/><path d="M18 8a6 6 0 0 0-9.33-5"/><line x1="1" y1="1" x2="23" y2="23"/>
    </svg>
  </g>
  <!-- Icon 34: arrow-up-right -->
  <g transform="translate(496, 332)">
    <rect width="48" height="48" fill="#ffffff" stroke="#e9ecef" stroke-width="1" rx="4"/>
    <svg x="8" y="8" width="32" height="32" viewBox="0 0 24 24">
      <line x1="7" y1="17" x2="17" y2="7"/><polyline points="7 7 17 7 17 17"/>
    </svg>
  </g>
  <!-- Icon 35: arrow-down-right -->
  <g transform="translate(556, 332)">
    <rect width="48" height="48" fill="#ffffff" stroke="#e9ecef" stroke-width="1" rx="4"/>
    <svg x="8" y="8" width="32" height="32" viewBox="0 0 24 24">
      <line x1="7" y1="7" x2="17" y2="17"/><polyline points="17 7 17 17 7 17"/>
    </svg>
  </g>
  
  <!-- Footer -->
  <text x="400" y="580" text-anchor="middle" font-family="system-ui, -apple-system, sans-serif" font-size="12" fill="#6c757d">
    Showing 35 of 287 icons
  </text>
  
</svg>