<svg width="800" height="600" xmlns="http://www.w3.org/2000/svg">
  <!-- Background -->
  <rect width="800" height="600" fill="#ffffff"/>
  
  <!-- Header Background -->
  <rect width="800" height="80" fill="#f8f9fa"/>
  
  <!-- Title -->
  <text x="400" y="30" text-anchor="middle" font-family="system-ui, -apple-system, sans-serif" font-size="20" font-weight="bold" fill="#212529">Font Awesome - brands</text>
  
  <!-- Subtitle -->
  <text x="400" y="55" text-anchor="middle" font-family="system-ui, -apple-system, sans-serif" font-size="14" fill="#6c757d">549 icons</text>
  
  <!-- Icon Grid -->
  <!-- Icon 1: zhihu -->
  <g transform="translate(12, 92)">
    <rect width="48" height="48" fill="#ffffff" stroke="#e9ecef" stroke-width="1" rx="4"/>
    <svg x="8" y="8" width="32" height="32" viewBox="0 0 640 512">
      <!--! Font Awesome Free 7.0.1 by @fontawesome - https://fontawesome.com License - https://fontawesome.com/license/free (Icons: CC BY 4.0, Fonts: SIL OFL 1.1, Code: MIT License) Copyright 2025 Fonticons, Inc. --><path fill="#2563eb" d="M170.5 148.1l0 217.5 23.4 0 7.7 26.4 42-26.4 49.5 0 0-217.5-122.7 0zm97.8 193.9l-27.9 0-27.9 17.5-5.1-17.5-11.9 0 0-170.3 72.8 0 0 170.3zM149.8 247.7l-52.3 0c1.7-27.1 2.2-51.6 2.2-73.5l51.2 0s2-22.6-8.6-22.3l-88.5 0c3.5-13.1 7.9-26.7 13.1-40.7 0 0-24.1 0-32.3 21.6-3.4 8.9-13.2 43.1-30.7 78.1 5.9-.6 25.4-1.2 36.8-22.2 2.1-5.9 2.5-6.7 5.1-14.5l28.9 0c0 10.5-1.2 66.9-1.7 73.4l-52.3 0c-11.7 0-15.6 23.6-15.6 23.6l65.6 0c-4.4 49.9-28 91.9-70.8 125.1 20.5 5.9 40.9-.9 51-9.9 0 0 23-20.9 35.6-69.3l54 64.9s7.9-26.9-1.2-40c-7.6-8.9-28.1-33.1-36.8-41.8L87.9 312c4.4-14 7-27.6 7.9-40.7l61.6 0s-.1-23.6-7.6-23.6l0 0zm412-1.6c20.8-25.6 45-58.6 45-58.6s-18.6-14.8-27.4-4.1c-6 8.2-36.8 48.2-36.8 48.2l19.2 14.4zM411.8 187c-9-8.2-25.9 2.1-25.9 2.1s39.5 55 41.1 57.4l19.5-13.7s-25.7-37.6-34.7-45.9l0 0 0 0zM640 258.4c-19.8 0-130.9 .9-131.1 .9l0-101c4.8 0 12.4-.4 22.8-1.2 40.9-2.4 70.1-4 87.8-4.8 0 0 12.2-27.2-.6-33.4-3.1-1.2-23.2 4.6-23.2 4.6s-165.2 16.5-232.4 18c1.6 8.8 7.6 17.1 15.8 19.6 13.3 3.5 22.7 1.7 49.2 .9 24.8-1.6 43.7-2.4 56.5-2.4l0 99.8-133.5 0s2.8 22.3 25.5 22.9l107.9 0 0 70.9c0 14-11.2 22-24.5 21.1-14.1 .1-26.1-1.1-41.7-1.8 2 4 6.3 14.4 19.3 21.8 9.9 4.8 16.2 6.6 26 6.6 29.6 0 45.7-17.3 44.9-45.3l0-73.3 122.4 0c9.7 0 8.7-23.8 8.7-23.8l0 0z"/>
    </svg>
  </g>
  <!-- Icon 2: wsh -->
  <g transform="translate(72, 92)">
    <rect width="48" height="48" fill="#ffffff" stroke="#e9ecef" stroke-width="1" rx="4"/>
    <svg x="8" y="8" width="32" height="32" viewBox="0 0 448 512">
      <!--! Font Awesome Free 7.0.1 by @fontawesome - https://fontawesome.com License - https://fontawesome.com/license/free (Icons: CC BY 4.0, Fonts: SIL OFL 1.1, Code: MIT License) Copyright 2025 Fonticons, Inc. --><path fill="#2563eb" d="M18.9 479.8l83.4 0 0-112-83.4 47 0 65zm329 0l82.4 0 0-65-82.4-47 0 112zm0-448l0 219.8-123.6-72.4-121.7 72.4 0-219.8-83.7 0 0 360.8 205.4-122.3 206 122.3 0-360.8-82.3 0z"/>
    </svg>
  </g>
  <!-- Icon 3: whatsapp -->
  <g transform="translate(132, 92)">
    <rect width="48" height="48" fill="#ffffff" stroke="#e9ecef" stroke-width="1" rx="4"/>
    <svg x="8" y="8" width="32" height="32" viewBox="0 0 448 512">
      <!--! Font Awesome Free 7.0.1 by @fontawesome - https://fontawesome.com License - https://fontawesome.com/license/free (Icons: CC BY 4.0, Fonts: SIL OFL 1.1, Code: MIT License) Copyright 2025 Fonticons, Inc. --><path fill="#2563eb" d="M380.9 97.1c-41.9-42-97.7-65.1-157-65.1-122.4 0-222 99.6-222 222 0 39.1 10.2 77.3 29.6 111L0 480 117.7 449.1c32.4 17.7 68.9 27 106.1 27l.1 0c122.3 0 224.1-99.6 224.1-222 0-59.3-25.2-115-67.1-157zm-157 341.6c-33.2 0-65.7-8.9-94-25.7l-6.7-4-69.8 18.3 18.6-68.1-4.4-7c-18.5-29.4-28.2-63.3-28.2-98.2 0-101.7 82.8-184.5 184.6-184.5 49.3 0 95.6 19.2 130.4 54.1s56.2 81.2 56.1 130.5c0 101.8-84.9 184.6-186.6 184.6zM325.1 300.5c-5.5-2.8-32.8-16.2-37.9-18-5.1-1.9-8.8-2.8-12.5 2.8s-14.3 18-17.6 21.8c-3.2 3.7-6.5 4.2-12 1.4-32.6-16.3-54-29.1-75.5-66-5.7-9.8 5.7-9.1 16.3-30.3 1.8-3.7 .9-6.9-.5-9.7s-12.5-30.1-17.1-41.2c-4.5-10.8-9.1-9.3-12.5-9.5-3.2-.2-6.9-.2-10.6-.2s-9.7 1.4-14.8 6.9c-5.1 5.6-19.4 19-19.4 46.3s19.9 53.7 22.6 57.4c2.8 3.7 39.1 59.7 94.8 83.8 35.2 15.2 49 16.5 66.6 13.9 10.7-1.6 32.8-13.4 37.4-26.4s4.6-24.1 3.2-26.4c-1.3-2.5-5-3.9-10.5-6.6z"/>
    </svg>
  </g>
  <!-- Icon 4: vimeo -->
  <g transform="translate(192, 92)">
    <rect width="48" height="48" fill="#ffffff" stroke="#e9ecef" stroke-width="1" rx="4"/>
    <svg x="8" y="8" width="32" height="32" viewBox="0 0 448 512">
      <!--! Font Awesome Free 7.0.1 by @fontawesome - https://fontawesome.com License - https://fontawesome.com/license/free (Icons: CC BY 4.0, Fonts: SIL OFL 1.1, Code: MIT License) Copyright 2025 Fonticons, Inc. --><path fill="#2563eb" d="M403.2 32L44.8 32C20.1 32 0 52.1 0 76.8L0 435.2C0 459.9 20.1 480 44.8 480l358.4 0c24.7 0 44.8-20.1 44.8-44.8l0-358.4C448 52.1 427.9 32 403.2 32zM377 180.8c-1.4 31.5-23.4 74.7-66 129.4-44 57.2-81.3 85.8-111.7 85.8-18.9 0-34.8-17.4-47.9-52.3-25.5-93.3-36.4-148-57.4-148-2.4 0-10.9 5.1-25.4 15.2L53.4 191.3c37.3-32.8 72.9-69.2 95.2-71.2 25.2-2.4 40.7 14.8 46.5 51.7 20.7 131.2 29.9 151 67.6 91.6 13.5-21.4 20.8-37.7 21.8-48.9 3.5-33.2-25.9-30.9-45.8-22.4 15.9-52.1 46.3-77.4 91.2-76 33.3 .9 49 22.5 47.1 64.7z"/>
    </svg>
  </g>
  <!-- Icon 5: unity -->
  <g transform="translate(252, 92)">
    <rect width="48" height="48" fill="#ffffff" stroke="#e9ecef" stroke-width="1" rx="4"/>
    <svg x="8" y="8" width="32" height="32" viewBox="0 0 448 512">
      <!--! Font Awesome Free 7.0.1 by @fontawesome - https://fontawesome.com License - https://fontawesome.com/license/free (Icons: CC BY 4.0, Fonts: SIL OFL 1.1, Code: MIT License) Copyright 2025 Fonticons, Inc. --><path fill="#2563eb" d="M243.6 91.6l80.1 46.8c2.9 1.6 3 6.2 0 7.8l-95.2 55.6c-2.9 1.7-6.3 1.6-9 0l-95.2-55.6c-2.9-1.6-3-6.3 0-7.8l80.1-46.8 0-91.6-204.4 119.4 0 238.8 78.4-45.8 0-93.6c-.1-3.3 3.8-5.7 6.7-3.9l95.2 55.6c2.9 1.7 4.5 4.7 4.5 7.8l0 111.2c.1 3.3-3.8 5.7-6.7 3.9L98 346.8 19.6 392.6 224 512 428.4 392.6 350 346.8 269.9 393.6c-2.8 1.7-6.8-.5-6.7-3.9l0-111.2c0-3.3 1.8-6.3 4.5-7.8L362.9 215c2.8-1.7 6.8 .5 6.7 3.9l0 93.6 78.4 45.8 0-238.8-204.4-119.4 0 91.6z"/>
    </svg>
  </g>
  <!-- Icon 6: tiktok -->
  <g transform="translate(312, 92)">
    <rect width="48" height="48" fill="#ffffff" stroke="#e9ecef" stroke-width="1" rx="4"/>
    <svg x="8" y="8" width="32" height="32" viewBox="0 0 448 512">
      <!--! Font Awesome Free 7.0.1 by @fontawesome - https://fontawesome.com License - https://fontawesome.com/license/free (Icons: CC BY 4.0, Fonts: SIL OFL 1.1, Code: MIT License) Copyright 2025 Fonticons, Inc. --><path fill="#2563eb" d="M448.5 209.9c-44 .1-87-13.6-122.8-39.2l0 178.7c0 33.1-10.1 65.4-29 92.6s-45.6 48-76.6 59.6-64.8 13.5-96.9 5.3-60.9-25.9-82.7-50.8-35.3-56-39-88.9 2.9-66.1 18.6-95.2 40-52.7 69.6-67.7 62.9-20.5 95.7-16l0 89.9c-15-4.7-31.1-4.6-46 .4s-27.9 14.6-37 27.3-14 28.1-13.9 43.9 5.2 31 14.5 43.7 22.4 22.1 37.4 26.9 31.1 4.8 46-.1 28-14.4 37.2-27.1 14.2-28.1 14.2-43.8l0-349.4 88 0c-.1 7.4 .6 14.9 1.9 22.2 3.1 16.3 9.4 31.9 18.7 45.7s21.3 25.6 35.2 34.6c19.9 13.1 43.2 20.1 67 20.1l0 87.4z"/>
    </svg>
  </g>
  <!-- Icon 7: supple -->
  <g transform="translate(372, 92)">
    <rect width="48" height="48" fill="#ffffff" stroke="#e9ecef" stroke-width="1" rx="4"/>
    <svg x="8" y="8" width="32" height="32" viewBox="0 0 640 512">
      <!--! Font Awesome Free 7.0.1 by @fontawesome - https://fontawesome.com License - https://fontawesome.com/license/free (Icons: CC BY 4.0, Fonts: SIL OFL 1.1, Code: MIT License) Copyright 2025 Fonticons, Inc. --><path fill="#2563eb" d="M640 262.5c0 64.1-109 116.1-243.5 116.1-24.8 0-48.6-1.8-71.1-5 7.7 .4 15.5 .6 23.4 .6 134.5 0 243.5-56.9 243.5-127.1 0-29.4-19.1-56.4-51.2-78 60 21.1 98.9 55.1 98.9 93.4zM47.7 227.9c-.1-70.2 108.8-127.3 243.3-127.6 7.9 0 15.6 .2 23.3 .5-22.5-3.2-46.3-4.9-71-4.9-134.5 .4-243.4 52.6-243.3 116.7 .1 38.3 39.1 72.3 99.3 93.3-32.3-21.5-51.5-48.6-51.6-78zm60.2 39.9S118.4 281 137.2 281c17.9 0 28.4-11.5 28.4-25.1 0-28-40.2-25.1-40.2-39.7 0-5.4 5.3-9.1 12.5-9.1 5.7 0 11.3 2.6 11.3 6.6l0 3.9 14.2 0 0-7.9c0-12.1-15.4-16.8-25.4-16.8-16.5 0-28.5 10.2-28.5 24.1 0 26.6 40.2 25.4 40.2 39.9 0 6.6-5.8 10.1-12.3 10.1-11.9 0-20.7-10.1-20.7-10.1l-8.8 10.9zm120.8-73.6l0 54.4c0 11.3-7.1 17.8-17.8 17.8s-17.8-6.5-17.8-17.7l0-54.5-15.8 0 0 55c0 18.9 13.4 31.9 33.7 31.9 20.1 0 33.4-13 33.4-31.9l0-55-15.7 0zm34.4 85.4l15.8 0 0-29.5 15.5 0c16 0 27.2-11.5 27.2-28.1s-11.2-27.8-27.2-27.8l-39.1 0 0 13.4 7.8 0 0 72zm15.8-43l0-29.1 12.9 0c8.7 0 13.7 5.7 13.7 14.4 0 8.9-5.1 14.7-14 14.7l-12.6 0zm57 43l15.8 0 0-29.5 15.5 0c16 0 27.2-11.5 27.2-28.1s-11.2-27.8-27.2-27.8l-39.1 0 0 13.4 7.8 0 0 72zm15.7-43l0-29.1 12.9 0c8.7 0 13.7 5.7 13.7 14.4 0 8.9-5 14.7-14 14.7l-12.6 0zm57.1 34.8c0 5.8 2.4 8.2 8.2 8.2l37.6 0c5.8 0 8.2-2.4 8.2-8.2l0-13-14.3 0 0 5.2c0 1.7-1 2.6-2.6 2.6l-18.6 0c-1.7 0-2.6-1-2.6-2.6l0-61.2c0-5.7-2.4-8.2-8.2-8.2l-15.4 0 0 13.4 5.2 0c1.7 0 2.6 1 2.6 2.6l0 61.2-.1 0zm63.4 0c0 5.8 2.4 8.2 8.2 8.2l38.7 0c5.7 0 8.2-2.4 8.2-8.2l0-13-14.3 0 0 5.2c0 1.7-1 2.6-2.6 2.6l-19.7 0c-1.7 0-2.6-1-2.6-2.6l0-20.3 27.7 0 0-13.4-27.7 0 0-22.4 19.2 0c1.7 0 2.6 1 2.6 2.6l0 5.2 14.2 0 0-13c0-5.7-2.5-8.2-8.2-8.2l-51.6 0 0 13.4 7.8 0 0 63.9 .1 0zm58.9-76l0 5.9 1.6 0 0-5.9 2.7 0 0-1.2-7 0 0 1.2 2.7 0zm5.7-1.2l0 7.1 1.5 0 0-5.7 2.3 5.7 1.3 0 2.3-5.7 0 5.7 1.5 0 0-7.1-2.3 0-2.1 5.1-2.1-5.1-2.4 0z"/>
    </svg>
  </g>
  <!-- Icon 8: stack-overflow -->
  <g transform="translate(12, 152)">
    <rect width="48" height="48" fill="#ffffff" stroke="#e9ecef" stroke-width="1" rx="4"/>
    <svg x="8" y="8" width="32" height="32" viewBox="0 0 384 512">
      <!--! Font Awesome Free 7.0.1 by @fontawesome - https://fontawesome.com License - https://fontawesome.com/license/free (Icons: CC BY 4.0, Fonts: SIL OFL 1.1, Code: MIT License) Copyright 2025 Fonticons, Inc. --><path fill="#2563eb" d="M291 311l-195.7-41.3-8.2 39.3 195.7 41 8.2-39zm51-87L188.5 95.7 163 126.5 316.5 254.8 342 224zm-31.2 39.7L129.5 179 112.8 215.5 294 300 310.8 263.7zM262.3 32l-32 24 119.3 160.3 32-24-119.3-160.3zm20.5 328l-200 0 0 39.7 200 0 0-39.7zm39.7 80l-279.5 0 0-120-40 0 0 160 359.5 0 0-160-40 0 0 120z"/>
    </svg>
  </g>
  <!-- Icon 9: square-steam -->
  <g transform="translate(72, 152)">
    <rect width="48" height="48" fill="#ffffff" stroke="#e9ecef" stroke-width="1" rx="4"/>
    <svg x="8" y="8" width="32" height="32" viewBox="0 0 448 512">
      <!--! Font Awesome Free 7.0.1 by @fontawesome - https://fontawesome.com License - https://fontawesome.com/license/free (Icons: CC BY 4.0, Fonts: SIL OFL 1.1, Code: MIT License) Copyright 2025 Fonticons, Inc. --><path fill="#2563eb" d="M165.6 309.1c18.6 7.7 27.3 28.9 19.6 47.4s-29 27.2-47.6 19.4l-28.5-11.8c5 10.6 13.8 19.4 25.4 24.2 25.2 10.5 54.1-1.4 64.6-26.5 5.1-12.1 5.1-25.5 .1-37.7-5.1-12.1-14.5-21.6-26.7-26.7-12.1-5-25-4.8-36.4-.5l29.5 12.2zM448 96c0-35.3-28.7-64-64-64L64 32C28.7 32 0 60.7 0 96l0 144.7 116.6 48.1c12-8.2 26.2-12.1 40.7-11.3l55.4-80.2 0-1.1c0-48.2 39.3-87.5 87.6-87.5s87.6 39.3 87.6 87.5c0 49.2-40.9 88.7-89.6 87.5l-79 56.3c1.6 38.5-29.1 68.8-65.7 68.8-31.8 0-58.5-22.7-64.5-52.7L0 319.2 0 416c0 35.3 28.7 64 64 64l320 0c35.3 0 64-28.7 64-64l0-320zM241.9 196.2a58.4 58.4 0 1 0 116.8 0 58.4 58.4 0 1 0 -116.8 0zm102.4-.1a43.9 43.9 0 1 1 -87.8 0 43.9 43.9 0 1 1 87.8 0z"/>
    </svg>
  </g>
  <!-- Icon 10: square-github -->
  <g transform="translate(132, 152)">
    <rect width="48" height="48" fill="#ffffff" stroke="#e9ecef" stroke-width="1" rx="4"/>
    <svg x="8" y="8" width="32" height="32" viewBox="0 0 448 512">
      <!--! Font Awesome Free 7.0.1 by @fontawesome - https://fontawesome.com License - https://fontawesome.com/license/free (Icons: CC BY 4.0, Fonts: SIL OFL 1.1, Code: MIT License) Copyright 2025 Fonticons, Inc. --><path fill="#2563eb" d="M448 96c0-35.3-28.7-64-64-64L64 32C28.7 32 0 60.7 0 96L0 416c0 35.3 28.7 64 64 64l320 0c35.3 0 64-28.7 64-64l0-320zM265.8 407.7c0-1.8 0-6 .1-11.6 .1-11.4 .1-28.8 .1-43.7 0-15.6-5.2-25.5-11.3-30.7 37-4.1 76-9.2 76-73.1 0-18.2-6.5-27.3-17.1-39 1.7-4.3 7.4-22-1.7-45-13.9-4.3-45.7 17.9-45.7 17.9-26.6-7.5-56.6-7.5-83.2 0 0 0-31.8-22.2-45.7-17.9-9.1 22.9-3.5 40.6-1.7 45-10.6 11.7-15.6 20.8-15.6 39 0 63.6 37.3 69 74.3 73.1-4.8 4.3-9.1 11.7-10.6 22.3-9.5 4.3-33.8 11.7-48.3-13.9-9.1-15.8-25.5-17.1-25.5-17.1-16.2-.2-1.1 10.2-1.1 10.2 10.8 5 18.4 24.2 18.4 24.2 9.7 29.7 56.1 19.7 56.1 19.7 0 9 .1 21.7 .1 30.6 0 4.8 .1 8.6 .1 10 0 4.3-3 9.5-11.5 8-66-22.1-112.2-84.9-112.2-158.3 0-91.8 70.2-161.5 162-161.5S388 165.6 388 257.4c.1 73.4-44.7 136.3-110.7 158.3-8.4 1.5-11.5-3.7-11.5-8zm-90.5-54.8c-.2-1.5 1.1-2.8 3-3.2 1.9-.2 3.7 .6 3.9 1.9 .3 1.3-1 2.6-3 3-1.9 .4-3.7-.4-3.9-1.7zm-9.1 3.2c-2.2 .2-3.7-.9-3.7-2.4 0-1.3 1.5-2.4 3.5-2.4 1.9-.2 3.7 .9 3.7 2.4 0 1.3-1.5 2.4-3.5 2.4zm-14.3-2.2c-1.9-.4-3.2-1.9-2.8-3.2s2.4-1.9 4.1-1.5c2 .6 3.3 2.1 2.8 3.4-.4 1.3-2.4 1.9-4.1 1.3zm-12.5-7.3c-1.5-1.3-1.9-3.2-.9-4.1 .9-1.1 2.8-.9 4.3 .6 1.3 1.3 1.8 3.3 .9 4.1-.9 1.1-2.8 .9-4.3-.6zm-8.5-10c-1.1-1.5-1.1-3.2 0-3.9 1.1-.9 2.8-.2 3.7 1.3 1.1 1.5 1.1 3.3 0 4.1-.9 .6-2.6 0-3.7-1.5zm-6.3-8.8c-1.1-1.3-1.3-2.8-.4-3.5 .9-.9 2.4-.4 3.5 .6 1.1 1.3 1.3 2.8 .4 3.5-.9 .9-2.4 .4-3.5-.6zm-6-6.4c-1.3-.6-1.9-1.7-1.5-2.6 .4-.6 1.5-.9 2.8-.4 1.3 .7 1.9 1.8 1.5 2.6-.4 .9-1.7 1.1-2.8 .4z"/>
    </svg>
  </g>
  <!-- Icon 11: snapchat -->
  <g transform="translate(192, 152)">
    <rect width="48" height="48" fill="#ffffff" stroke="#e9ecef" stroke-width="1" rx="4"/>
    <svg x="8" y="8" width="32" height="32" viewBox="0 0 512 512">
      <!--! Font Awesome Free 7.0.1 by @fontawesome - https://fontawesome.com License - https://fontawesome.com/license/free (Icons: CC BY 4.0, Fonts: SIL OFL 1.1, Code: MIT License) Copyright 2025 Fonticons, Inc. --><path fill="#2563eb" d="M497.1 366.6c-3.4-9.2-9.8-14.1-17.1-18.2-1.4-.8-2.6-1.5-3.7-1.9-2.2-1.1-4.4-2.2-6.6-3.4-22.8-12.1-40.6-27.3-53-45.4-3.5-5.1-6.6-10.5-9.1-16.1-1.1-3-1-4.7-.2-6.3 .8-1.2 1.7-2.2 2.9-3 3.9-2.6 8-5.2 10.7-7 4.9-3.2 8.8-5.7 11.2-7.4 9.4-6.5 15.9-13.5 20-21.3 2.9-5.4 4.5-11.3 4.9-17.4s-.6-12.2-2.8-17.8c-6.2-16.3-21.6-26.4-40.3-26.4-3.9 0-7.9 .4-11.7 1.2-1 .2-2.1 .5-3.1 .7 .2-11.2-.1-22.9-1.1-34.5-3.5-40.8-17.8-62.1-32.7-79.2-9.5-10.7-20.7-19.7-33.2-26.7-22.6-12.9-48.2-19.4-76.1-19.4s-53.4 6.5-76 19.4c-12.5 7-23.7 16.1-33.3 26.8-14.9 17-29.2 38.4-32.7 79.2-1 11.6-1.2 23.4-1.1 34.5-1-.3-2-.5-3.1-.7-3.9-.8-7.8-1.2-11.7-1.2-18.7 0-34.1 10.1-40.3 26.4-2.2 5.7-3.2 11.8-2.8 17.8s2 12 4.9 17.4c4.1 7.8 10.7 14.7 20 21.3 2.5 1.7 6.4 4.2 11.2 7.4 2.6 1.7 6.5 4.2 10.3 6.7 1.3 .9 2.4 2 3.3 3.3 .8 1.6 .8 3.4-.4 6.6-2.5 5.5-5.5 10.8-8.9 15.8-12.1 17.7-29.4 32.6-51.4 44.6-11.7 6.2-23.9 10.3-29 24.3-3.9 10.5-1.3 22.5 8.5 32.6 3.6 3.8 7.8 6.9 12.4 9.4 9.6 5.3 19.8 9.3 30.3 12.1 2.2 .6 4.3 1.5 6.1 2.7 3.6 3.1 3.1 7.9 7.8 14.8 2.4 3.6 5.4 6.7 9 9.1 10 6.9 21.3 7.4 33.2 7.8 10.8 .4 23 .9 36.9 5.5 5.8 1.9 11.8 5.6 18.7 9.9 16.7 10.3 39.6 24.3 77.8 24.3s61.3-14.1 78.1-24.4c6.9-4.2 12.9-7.9 18.5-9.8 13.9-4.6 26.2-5.1 36.9-5.5 11.9-.5 23.2-.9 33.2-7.8 4.2-2.9 7.7-6.7 10.2-11.2 3.4-5.8 3.4-9.9 6.6-12.8 1.8-1.2 3.7-2.1 5.8-2.6 10.7-2.8 21-6.9 30.8-12.2 4.9-2.6 9.3-6.1 13-10.2l.1-.2c9.2-9.9 11.5-21.5 7.8-31.8zm-34 18.3c-20.7 11.5-34.5 10.2-45.3 17.1-9.1 5.9-3.7 18.5-10.3 23.1-8.1 5.6-32.2-.4-63.2 9.9-25.6 8.5-42 32.8-88 32.8s-62-24.3-88.1-32.9c-31-10.3-55.1-4.2-63.2-9.9-6.6-4.6-1.2-17.2-10.3-23.1-10.7-6.9-24.5-5.7-45.3-17.1-13.2-7.3-5.7-11.8-1.3-13.9 75.1-36.4 87.1-92.6 87.7-96.7 .6-5 1.4-9-4.2-14.1-5.4-5-29.2-19.7-35.8-24.3-10.9-7.6-15.7-15.3-12.2-24.6 2.5-6.5 8.5-8.9 14.9-8.9 2 0 4 .2 6 .7 12 2.6 23.7 8.6 30.4 10.2 .8 .2 1.6 .3 2.5 .3 3.6 0 4.9-1.8 4.6-5.9-.8-13.1-2.6-38.7-.6-62.6 2.8-32.9 13.4-49.2 26-63.6 6.1-6.9 34.5-37 88.9-37S339 74.2 345 81.1c12.6 14.4 23.2 30.7 26 63.6 2.1 23.9 .3 49.5-.6 62.6-.3 4.3 1 5.9 4.6 5.9 .8 0 1.7-.1 2.5-.3 6.7-1.6 18.4-7.6 30.4-10.2 2-.4 4-.7 6-.7 6.4 0 12.4 2.5 14.9 8.9 3.5 9.4-1.2 17-12.2 24.6-6.6 4.6-30.4 19.3-35.8 24.3-5.6 5.1-4.8 9.1-4.2 14.2 .5 4.2 12.5 60.4 87.7 96.7 4.4 2.2 11.9 6.7-1.3 14.1z"/>
    </svg>
  </g>
  <!-- Icon 12: shopify -->
  <g transform="translate(252, 152)">
    <rect width="48" height="48" fill="#ffffff" stroke="#e9ecef" stroke-width="1" rx="4"/>
    <svg x="8" y="8" width="32" height="32" viewBox="0 0 448 512">
      <!--! Font Awesome Free 7.0.1 by @fontawesome - https://fontawesome.com License - https://fontawesome.com/license/free (Icons: CC BY 4.0, Fonts: SIL OFL 1.1, Code: MIT License) Copyright 2025 Fonticons, Inc. --><path fill="#2563eb" d="M388.5 104.1c-.2-1.1-.7-2.1-1.5-2.8s-1.8-1.2-2.9-1.2c-2 0-37.2-.8-37.2-.8s-21.6-20.8-29.6-28.8l0 432.7 125.7-31.2s-54-365.5-54.4-367.9zM288.9 70.5c-1.9-6.1-4.3-11.9-7.2-17.6-10.4-20-26-30.9-44.4-30.9-1.3 0-2.7 .1-4 .4-.4-.8-1.2-1.2-1.6-2-8-8.8-18.4-12.8-30.8-12.4-24 .8-48 18-67.2 48.8-13.6 21.6-24 48.8-26.8 70.1-27.6 8.4-46.8 14.4-47.2 14.8-14 4.4-14.4 4.8-16 18-1.2 10-38 291.8-38 291.8l302.6 52.5 0-438.3c-1.5 .1-2.9 .2-4.4 .4 0 0-5.6 1.6-14.8 4.4zM233.6 87.7c-16 4.8-33.6 10.4-50.8 15.6 4.8-18.8 14.4-37.6 25.6-50 4.4-4.4 10.4-9.6 17.2-12.8 6.8 14.4 8.4 34 8 47.2zM200.8 24.4c5-.2 10 1.1 14.4 3.6-6.4 3.2-12.8 8.4-18.8 14.4-15.2 16.4-26.8 42-31.6 66.5-14.4 4.4-28.8 8.8-42 12.8 8.8-38.4 41.2-96.4 78-97.2zM154.4 244.6c1.6 25.6 69.2 31.2 73.2 91.7 2.8 47.6-25.2 80.1-65.6 82.5-48.8 3.2-75.6-25.6-75.6-25.6l10.4-44s26.8 20.4 48.4 18.8c14-.8 19.2-12.4 18.8-20.4-2-33.6-57.2-31.6-60.8-86.9-3.2-46.4 27.2-93.3 94.5-97.7 26-1.6 39.2 4.8 39.2 4.8l-15.2 57.6s-17.2-8-37.6-6.4c-29.6 2-30 20.8-29.6 25.6zM249.6 82.9c0-12-1.6-29.2-7.2-43.6 18.4 3.6 27.2 24 31.2 36.4-7.2 2-15.2 4.4-24 7.2z"/>
    </svg>
  </g>
  <!-- Icon 13: rocketchat -->
  <g transform="translate(312, 152)">
    <rect width="48" height="48" fill="#ffffff" stroke="#e9ecef" stroke-width="1" rx="4"/>
    <svg x="8" y="8" width="32" height="32" viewBox="0 0 576 512">
      <!--! Font Awesome Free 7.0.1 by @fontawesome - https://fontawesome.com License - https://fontawesome.com/license/free (Icons: CC BY 4.0, Fonts: SIL OFL 1.1, Code: MIT License) Copyright 2025 Fonticons, Inc. --><path fill="#2563eb" d="M284.5 224.8c-6.7 0-13.3 2.1-18.9 5.8s-9.9 9.1-12.5 15.4-3.2 13.1-1.9 19.7 4.6 12.7 9.4 17.4 10.9 8 17.5 9.3 13.5 .6 19.7-2 11.5-7 15.3-12.6 5.7-12.2 5.7-18.9c0-9.1-3.7-17.8-10.1-24.2s-15.1-10-24.2-9.9zm-110.4 0c-6.7 0-13.3 2.1-18.9 5.8s-9.9 9.1-12.5 15.4-3.2 13.1-1.9 19.7 4.6 12.7 9.4 17.4 10.9 8 17.5 9.3 13.5 .6 19.7-2 11.5-7 15.3-12.6 5.7-12.2 5.7-18.9c0-9.1-3.7-17.8-10.1-24.2s-15.1-10-24.2-10l0 0zm220.9 0a34.1 34.1 0 1 0 .4 68.2 34.1 34.1 0 1 0 -.4-68.2zm153.8-55.3c-15.5-24.2-37.3-45.6-64.7-63.6-52.9-34.8-122.4-54-195.7-54-24.2 0-48.3 2.1-72 6.4-14.9-14.3-31.5-26.6-49.5-36.6-66.8-33.3-125.6-20.9-155.3-10.2-2.3 .8-4.3 2.1-5.9 3.9s-2.7 3.9-3.3 6.2-.5 4.7 .1 7.1 1.8 4.4 3.5 6.1C27 56.5 61.6 99.3 53.1 138.3 20 172.2 2 213 2 255.6 2 299 20 339.8 53.1 373.7 61.6 412.7 27 455.6 6 477.2 4.3 479 3.2 481.1 2.5 483.4s-.7 4.7-.1 7 1.7 4.5 3.3 6.2 3.6 3.1 5.9 3.9c29.7 10.7 88.5 23.1 155.3-10.2 18-10 34.7-22.3 49.5-36.6 23.8 4.3 47.9 6.4 72 6.4 73.3 0 142.8-19.2 195.7-54 27.4-18 49.1-39.4 64.7-63.6 17.3-26.9 26.1-55.9 26.1-86.1 0-31-8.8-60-26.1-86.9l0 0zM285.4 409.9c-30.2 .1-60.3-3.8-89.4-11.5l-20.1 19.4c-11.2 10.7-23.6 20-37.1 27.6-16.4 8.2-34.2 13.3-52.5 14.9 1-1.8 1.9-3.6 2.8-5.4 20.2-37.1 25.6-70.5 16.3-100.1-33-26-52.8-59.2-52.8-95.4 0-83.1 104.3-150.5 232.8-150.5s232.9 67.4 232.9 150.5c0 83.1-104.3 150.5-232.9 150.5z"/>
    </svg>
  </g>
  <!-- Icon 14: react -->
  <g transform="translate(372, 152)">
    <rect width="48" height="48" fill="#ffffff" stroke="#e9ecef" stroke-width="1" rx="4"/>
    <svg x="8" y="8" width="32" height="32" viewBox="0 0 512 512">
      <!--! Font Awesome Free 7.0.1 by @fontawesome - https://fontawesome.com License - https://fontawesome.com/license/free (Icons: CC BY 4.0, Fonts: SIL OFL 1.1, Code: MIT License) Copyright 2025 Fonticons, Inc. --><path fill="#2563eb" d="M418.2 177.2c-5.4-1.8-10.8-3.5-16.2-5.1 .9-3.7 1.7-7.4 2.5-11.1 12.3-59.6 4.2-107.5-23.1-123.3-26.3-15.1-69.2 .6-112.6 38.4-4.3 3.7-8.5 7.6-12.5 11.5-2.7-2.6-5.5-5.2-8.3-7.7-45.5-40.4-91.1-57.4-118.4-41.5-26.2 15.2-34 60.3-23 116.7 1.1 5.6 2.3 11.1 3.7 16.7-6.4 1.8-12.7 3.8-18.6 5.9-53.4 18.5-91.7 47.7-91.7 77.9 0 31.2 40.8 62.5 96.3 81.5 4.5 1.5 9 3 13.6 4.3-1.5 6-2.8 11.9-4 18-10.5 55.5-2.3 99.5 23.9 114.6 27 15.6 72.4-.4 116.6-39.1 3.5-3.1 7-6.3 10.5-9.7 4.4 4.3 9 8.4 13.6 12.4 42.8 36.8 85.1 51.7 111.2 36.6 27-15.6 35.8-62.9 24.4-120.5-.9-4.4-1.9-8.9-3-13.5 3.2-.9 6.3-1.9 9.4-2.9 57.7-19.1 99.5-50 99.5-81.7 0-30.3-39.4-59.7-93.8-78.4zM282.9 92.3c37.2-32.4 71.9-45.1 87.7-36 16.9 9.7 23.4 48.9 12.8 100.4-.7 3.4-1.4 6.7-2.3 10-22.2-5-44.7-8.6-67.3-10.6-13-18.6-27.2-36.4-42.6-53.1 3.9-3.7 7.7-7.2 11.7-10.7zM167.2 307.5c5.1 8.7 10.3 17.4 15.8 25.9-15.6-1.7-31.1-4.2-46.4-7.5 4.4-14.4 9.9-29.3 16.3-44.5 4.6 8.8 9.3 17.5 14.3 26.1zM136.9 187.2c14.4-3.2 29.7-5.8 45.6-7.8-5.3 8.3-10.5 16.8-15.4 25.4-4.9 8.5-9.7 17.2-14.2 26-6.3-14.9-11.6-29.5-16-43.6zm27.4 68.9c6.6-13.8 13.8-27.3 21.4-40.6s15.8-26.2 24.4-38.9c15-1.1 30.3-1.7 45.9-1.7s31 .6 45.9 1.7c8.5 12.6 16.6 25.5 24.3 38.7s14.9 26.7 21.7 40.4c-6.7 13.8-13.9 27.4-21.6 40.8-7.6 13.3-15.7 26.2-24.2 39-14.9 1.1-30.4 1.6-46.1 1.6s-30.9-.5-45.6-1.4c-8.7-12.7-16.9-25.7-24.6-39s-14.8-26.8-21.5-40.6zm180.6 51.2c5.1-8.8 9.9-17.7 14.6-26.7 6.4 14.5 12 29.2 16.9 44.3-15.5 3.5-31.2 6.2-47 8 5.4-8.4 10.5-17 15.5-25.6zm14.4-76.5c-4.7-8.8-9.5-17.6-14.5-26.2-4.9-8.5-10-16.9-15.3-25.2 16.1 2 31.5 4.7 45.9 8-4.6 14.8-10 29.2-16.1 43.4zM256.2 118.3c10.5 11.4 20.4 23.4 29.6 35.8-19.8-.9-39.7-.9-59.5 0 9.8-12.9 19.9-24.9 29.9-35.8zM140.2 57c16.8-9.8 54.1 4.2 93.4 39 2.5 2.2 5 4.6 7.6 7-15.5 16.7-29.8 34.5-42.9 53.1-22.6 2-45 5.5-67.2 10.4-1.3-5.1-2.4-10.3-3.5-15.5-9.4-48.4-3.2-84.9 12.6-94zM115.7 320.6c-4.2-1.2-8.3-2.5-12.4-3.9-21.3-6.7-45.5-17.3-63-31.2-10.1-7-16.9-17.8-18.8-29.9 0-18.3 31.6-41.7 77.2-57.6 5.7-2 11.5-3.8 17.3-5.5 6.8 21.7 15 43 24.5 63.6-9.6 20.9-17.9 42.5-24.8 64.5zm116.6 98c-16.5 15.1-35.6 27.1-56.4 35.3-11.1 5.3-23.9 5.8-35.3 1.3-15.9-9.2-22.5-44.5-13.5-92 1.1-5.6 2.3-11.2 3.7-16.7 22.4 4.8 45 8.1 67.9 9.8 13.2 18.7 27.7 36.6 43.2 53.4-3.2 3.1-6.4 6.1-9.6 8.9zm24.5-24.3c-10.2-11-20.4-23.2-30.3-36.3 9.6 .4 19.5 .6 29.5 .6 10.3 0 20.4-.2 30.4-.7-9.2 12.7-19.1 24.8-29.6 36.4zm130.7 30c-.9 12.2-6.9 23.6-16.5 31.3-15.9 9.2-49.8-2.8-86.4-34.2-4.2-3.6-8.4-7.5-12.7-11.5 15.3-16.9 29.4-34.8 42.2-53.6 22.9-1.9 45.7-5.4 68.2-10.5 1 4.1 1.9 8.2 2.7 12.2 4.9 21.6 5.7 44.1 2.5 66.3zm18.2-107.5c-2.8 .9-5.6 1.8-8.5 2.6-7-21.8-15.6-43.1-25.5-63.8 9.6-20.4 17.7-41.4 24.5-62.9 5.2 1.5 10.2 3.1 15 4.7 46.6 16 79.3 39.8 79.3 58 0 19.6-34.9 44.9-84.8 61.4zM256 301.8a45.8 45.8 0 1 0 0-91.6 45.8 45.8 0 1 0 0 91.6z"/>
    </svg>
  </g>
  <!-- Icon 15: pinterest-square -->
  <g transform="translate(12, 212)">
    <rect width="48" height="48" fill="#ffffff" stroke="#e9ecef" stroke-width="1" rx="4"/>
    <svg x="8" y="8" width="32" height="32" viewBox="0 0 448 512">
      <!--! Font Awesome Free 7.0.1 by @fontawesome - https://fontawesome.com License - https://fontawesome.com/license/free (Icons: CC BY 4.0, Fonts: SIL OFL 1.1, Code: MIT License) Copyright 2025 Fonticons, Inc. --><path fill="#2563eb" d="M384 32L64 32C28.7 32 0 60.7 0 96L0 416c0 35.3 28.7 64 64 64l72.6 0-2.2-.8c-5.4-48.1-3.1-57.5 15.7-134.7 3.9-16 8.5-35 13.9-57.9 0 0-7.3-14.8-7.3-36.5 0-70.7 75.5-78 75.5-25 0 13.5-5.4 31.1-11.2 49.8-3.3 10.6-6.6 21.5-9.1 32-5.7 24.5 12.3 44.4 36.4 44.4 43.7 0 77.2-46 77.2-112.4 0-58.8-42.3-99.9-102.6-99.9-69.9 0-110.9 52.4-110.9 106.6 0 21.1 8.2 43.7 18.3 56 2 2.4 2.3 4.5 1.7 7-1.1 4.7-3.1 12.9-4.7 19.2-1 4-1.8 7.3-2.1 8.6-1.1 4.5-3.5 5.5-8.2 3.3-30.6-14.3-49.8-59.1-49.8-95.1 0-77.5 56.2-148.6 162.2-148.6 85.2 0 151.4 60.7 151.4 141.8 0 84.6-53.3 152.7-127.4 152.7-24.9 0-48.3-12.9-56.3-28.2 0 0-12.3 46.9-15.3 58.4-5 19.3-17.6 42.9-27.4 59.3L384 480c35.3 0 64-28.7 64-64l0-320c0-35.3-28.7-64-64-64z"/>
    </svg>
  </g>
  <!-- Icon 16: pandora -->
  <g transform="translate(72, 212)">
    <rect width="48" height="48" fill="#ffffff" stroke="#e9ecef" stroke-width="1" rx="4"/>
    <svg x="8" y="8" width="32" height="32" viewBox="0 0 384 512">
      <!--! Font Awesome Free 7.0.1 by @fontawesome - https://fontawesome.com License - https://fontawesome.com/license/free (Icons: CC BY 4.0, Fonts: SIL OFL 1.1, Code: MIT License) Copyright 2025 Fonticons, Inc. --><path fill="#2563eb" d="M201.3 32L0 32 0 480 120.2 480c11.2 0 20.3-9.1 20.3-20.3l0-86.1 30.1 0c147.1 0 207.3-82.9 207.3-179.9 0-119.7-90.9-161.8-176.5-161.8z"/>
    </svg>
  </g>
  <!-- Icon 17: odnoklassniki -->
  <g transform="translate(132, 212)">
    <rect width="48" height="48" fill="#ffffff" stroke="#e9ecef" stroke-width="1" rx="4"/>
    <svg x="8" y="8" width="32" height="32" viewBox="0 0 320 512">
      <!--! Font Awesome Free 7.0.1 by @fontawesome - https://fontawesome.com License - https://fontawesome.com/license/free (Icons: CC BY 4.0, Fonts: SIL OFL 1.1, Code: MIT License) Copyright 2025 Fonticons, Inc. --><path fill="#2563eb" d="M275.1 334c-27.4 17.4-65.1 24.3-90 26.9l20.9 20.6 76.3 76.3c27.9 28.6-17.5 73.3-45.7 45.7-19.1-19.4-47.1-47.4-76.3-76.6L84 503.4c-28.2 27.5-73.6-17.6-45.4-45.7 19.4-19.4 47.1-47.4 76.3-76.3l20.6-20.6c-24.6-2.6-62.9-9.1-90.6-26.9-32.6-21-46.9-33.3-34.3-59 7.4-14.6 27.7-26.9 54.6-5.7 0 0 36.3 28.9 94.9 28.9S255 269.2 255 269.2c26.9-21.1 47.1-8.9 54.6 5.7 12.4 25.7-1.9 38-34.5 59.1zm14.6-204.7a129.7 129.7 0 1 1 -259.4 .4 129.7 129.7 0 1 1 259.4-.4zm-193.4 .4a63.7 63.7 0 1 0 127.4-.4 63.7 63.7 0 1 0 -127.4 .4z"/>
    </svg>
  </g>
  <!-- Icon 18: modx -->
  <g transform="translate(192, 212)">
    <rect width="48" height="48" fill="#ffffff" stroke="#e9ecef" stroke-width="1" rx="4"/>
    <svg x="8" y="8" width="32" height="32" viewBox="0 0 448 512">
      <!--! Font Awesome Free 7.0.1 by @fontawesome - https://fontawesome.com License - https://fontawesome.com/license/free (Icons: CC BY 4.0, Fonts: SIL OFL 1.1, Code: MIT License) Copyright 2025 Fonticons, Inc. --><path fill="#2563eb" d="M356 241.8l36.7 23.7 0 214.5-133-83.8 96.3-154.4zM440 75l-213.7 0-23 37.8 153.5 96.5 83.2-134.3zM351 217.8l-295.8-185.8 0 214.5 46 29 249.8-57.7zM97 294.2L8 437 221.7 437 346.7 236.5 97 294.2z"/>
    </svg>
  </g>
  <!-- Icon 19: medapps -->
  <g transform="translate(252, 212)">
    <rect width="48" height="48" fill="#ffffff" stroke="#e9ecef" stroke-width="1" rx="4"/>
    <svg x="8" y="8" width="32" height="32" viewBox="0 0 320 512">
      <!--! Font Awesome Free 7.0.1 by @fontawesome - https://fontawesome.com License - https://fontawesome.com/license/free (Icons: CC BY 4.0, Fonts: SIL OFL 1.1, Code: MIT License) Copyright 2025 Fonticons, Inc. --><path fill="#2563eb" d="M118.3 238.4c3.5-12.5 6.9-33.6 13.2-33.6 8.3 1.8 9.6 23.4 18.6 36.6 4.6-23.5 5.3-85.1 14.1-86.7 9-.7 19.7 66.5 22 77.5 9.9 4.1 48.9 6.6 48.9 6.6 1.9 7.3-24 7.6-40 7.8-4.6 14.8-5.4 27.7-11.4 28-4.7 .2-8.2-28.8-17.5-49.6l-9.4 65.5c-4.4 13-15.5-22.5-21.9-39.3-3.3-.1-62.4-1.6-47.6-7.8l31-5zM228 448c21.2 0 21.2-32 0-32L92 416c-21.2 0-21.2 32 0 32l136 0zm-24 64c21.2 0 21.2-32 0-32l-88 0c-21.2 0-21.2 32 0 32l88 0zm34.2-141.5c3.2-18.9 5.2-36.4 11.9-48.8 7.9-14.7 16.1-28.1 24-41 24.6-40.4 45.9-75.2 45.9-125.5 0-85.6-71.8-155.2-160-155.2S0 69.6 0 155.2c0 50.2 21.3 85.1 45.9 125.5 7.9 12.9 16 26.3 24 41 6.7 12.5 8.7 29.8 11.9 48.9 3.5 21 36.1 15.7 32.6-5.1-3.6-21.7-5.6-40.7-15.3-58.6-32.6-60.4-66.1-95.6-66.1-151.7 0-67.9 57-123.2 127-123.2S287 87.3 287 155.2c0 56.1-33.5 91.3-66.1 151.6-9.7 18-11.7 37.4-15.3 58.6-3.4 20.6 29 26.4 32.6 5.1z"/>
    </svg>
  </g>
  <!-- Icon 20: linkedin-in -->
  <g transform="translate(312, 212)">
    <rect width="48" height="48" fill="#ffffff" stroke="#e9ecef" stroke-width="1" rx="4"/>
    <svg x="8" y="8" width="32" height="32" viewBox="0 0 448 512">
      <!--! Font Awesome Free 7.0.1 by @fontawesome - https://fontawesome.com License - https://fontawesome.com/license/free (Icons: CC BY 4.0, Fonts: SIL OFL 1.1, Code: MIT License) Copyright 2025 Fonticons, Inc. --><path fill="#2563eb" d="M100.3 448l-92.9 0 0-299.1 92.9 0 0 299.1zM53.8 108.1C24.1 108.1 0 83.5 0 53.8 0 39.5 5.7 25.9 15.8 15.8s23.8-15.8 38-15.8 27.9 5.7 38 15.8 15.8 23.8 15.8 38c0 29.7-24.1 54.3-53.8 54.3zM447.9 448l-92.7 0 0-145.6c0-34.7-.7-79.2-48.3-79.2-48.3 0-55.7 37.7-55.7 76.7l0 148.1-92.8 0 0-299.1 89.1 0 0 40.8 1.3 0c12.4-23.5 42.7-48.3 87.9-48.3 94 0 111.3 61.9 111.3 142.3l0 164.3-.1 0z"/>
    </svg>
  </g>
  <!-- Icon 21: jxl -->
  <g transform="translate(372, 212)">
    <rect width="48" height="48" fill="#ffffff" stroke="#e9ecef" stroke-width="1" rx="4"/>
    <svg x="8" y="8" width="32" height="32" viewBox="0 0 448 512">
      <!--! Font Awesome Free 7.0.1 by @fontawesome - https://fontawesome.com License - https://fontawesome.com/license/free (Icons: CC BY 4.0, Fonts: SIL OFL 1.1, Code: MIT License) Copyright 2025 Fonticons, Inc. --><path fill="#2563eb" d="M412.2 32L35.8 32C16 32 0 48 0 67.8L0 444.2C0 464 16 480 35.8 480l376.4 0c19.8 0 35.8-16 35.8-35.8l0-376.4C448 48 432 32 412.2 32zM378.6 333.7c0 40.2-32.6 72.8-72.8 72.8l-235.6 0c0-40.2 32.6-72.8 72.8-72.8l235.6 0zm0-113.9c0 40.2-32.6 72.8-72.8 72.8l-235.6 0c0-40.2 32.6-72.8 72.8-72.8l235.6 0zm0-113.9c0 40.2-32.6 72.8-72.8 72.8l-235.6 0c0-40.2 32.6-72.8 72.8-72.8l235.6 0z"/>
    </svg>
  </g>
  <!-- Icon 22: internet-explorer -->
  <g transform="translate(12, 272)">
    <rect width="48" height="48" fill="#ffffff" stroke="#e9ecef" stroke-width="1" rx="4"/>
    <svg x="8" y="8" width="32" height="32" viewBox="0 0 512 512">
      <!--! Font Awesome Free 7.0.1 by @fontawesome - https://fontawesome.com License - https://fontawesome.com/license/free (Icons: CC BY 4.0, Fonts: SIL OFL 1.1, Code: MIT License) Copyright 2025 Fonticons, Inc. --><path fill="#2563eb" d="M483.1 159.7c10.9-24.6 21.4-60.4 21.4-87.9 0-72.7-79.6-98.4-209.7-38.6-107.6-7.2-211.2 73.7-237.1 186.5 30.9-34.9 78.3-82.3 122-101.2-54.3 48.3-100.6 109.4-135.7 173.2-20.7 37.9-44 99.2-44 145 0 98.6 92.9 86.5 180.3 42 31.4 15.4 66.6 15.6 101.7 15.6 97.1 0 184.2-54.3 216.8-146l-120.8 0c-52.5 88.6-196.8 53-196.8-47.4l328.8 0c6.4-43.6-1.7-95.7-26.9-141.2zM64.6 346.9C82.3 398 118.3 442.7 164.8 470.2 76.1 519.1-8.4 499.3 64.6 346.9zM180.5 238c2-55.2 50.3-94.9 104-94.9 53.4 0 102 39.7 104 94.9l-208 0zM365.1 50.4c21.4-10.3 48.6-22 72.6-22 31.4 0 54.3 21.7 54.3 53.7 0 20-7.4 49-14.6 67.9-26.3-42.3-66-81.6-112.3-99.6z"/>
    </svg>
  </g>
  <!-- Icon 23: hire-a-helper -->
  <g transform="translate(72, 272)">
    <rect width="48" height="48" fill="#ffffff" stroke="#e9ecef" stroke-width="1" rx="4"/>
    <svg x="8" y="8" width="32" height="32" viewBox="0 0 512 512">
      <!--! Font Awesome Free 7.0.1 by @fontawesome - https://fontawesome.com License - https://fontawesome.com/license/free (Icons: CC BY 4.0, Fonts: SIL OFL 1.1, Code: MIT License) Copyright 2025 Fonticons, Inc. --><path fill="#2563eb" d="M443.1 0L71.9 0C67.9 37.3 37.4 67.8 0 71.7L0 443.2c37.4 4.9 66 32.4 71.9 68.8l372.2 0c3-36.4 32.5-65.8 67.9-69.8l0-370.5C475.6 65.8 447 36.4 443.1 0zm-37 404.9c-36.3 0-18.8-2-55.1-2-35.8 0-21 2-56.1 2-5.9 0-4.9-8.2 0-9.8 22.8-7.6 22.9-10.2 24.6-12.8 10.4-15.6 5.9-83 5.9-113 0-5.3-6.4-12.8-13.8-12.8l-111.2 0c-7.4 0-13.8 7.5-13.8 12.8 0 30-4.5 97.4 5.9 113 1.7 2.5 1.8 5.2 24.6 12.8 4.9 1.6 6 9.8 0 9.8-35.1 0-20.3-2-56.1-2-36.3 0-18.8 2-55.1 2-7.9 0-5.8-10.8 0-10.8 10.2-3.4 13.5-3.5 21.7-13.8 7.7-12.9 7.9-44.4 7.9-127.8l0-101.2c0-22.2-12.2-28.3-28.6-32.4-8.8-2.2-4-11.8 1-11.8 36.5 0 20.6 2 57.1 2 32.7 0 16.5-2 49.2-2 3.3 0 8.5 8.3 1 10.8-4.9 1.6-27.6 3.7-27.6 39.3 0 45.6-.2 55.8 1 68.8 0 1.3 2.3 12.8 12.8 12.8l109.2 0c10.5 0 12.8-11.5 12.8-12.8 1.2-13 1-23.2 1-68.8 0-35.6-22.7-37.7-27.6-39.3-7.5-2.5-2.3-10.8 1-10.8 32.7 0 16.5 2 49.2 2 36.5 0 20.6-2 57.1-2 4.9 0 9.9 9.6 1 11.8-16.4 4.1-28.6 10.3-28.6 32.4l0 101.2c0 83.4 .1 114.9 7.9 127.8 8.2 10.2 11.4 10.4 21.7 13.8 5.8 0 7.8 10.8 0 10.8z"/>
    </svg>
  </g>
  <!-- Icon 24: google-plus -->
  <g transform="translate(132, 272)">
    <rect width="48" height="48" fill="#ffffff" stroke="#e9ecef" stroke-width="1" rx="4"/>
    <svg x="8" y="8" width="32" height="32" viewBox="0 0 512 512">
      <!--! Font Awesome Free 7.0.1 by @fontawesome - https://fontawesome.com License - https://fontawesome.com/license/free (Icons: CC BY 4.0, Fonts: SIL OFL 1.1, Code: MIT License) Copyright 2025 Fonticons, Inc. --><path fill="#2563eb" d="M256 8a248 248 0 1 0 0 496 248 248 0 1 0 0-496zM185.3 380c-32.9 0-64.4-13.1-87.7-36.3s-36.3-54.8-36.3-87.7 13.1-64.4 36.3-87.7 54.8-36.3 87.7-36.3c31.3 0 60.1 11 83 32.3l-33.6 32.6c-13.2-12.9-31.3-19.1-49.4-19.1-42.9 0-77.2 35.5-77.2 78.1S142.3 334 185.3 334c32.6 0 64.9-19.1 70.1-53.3l-70.1 0 0-42.6 116.9 0c1.3 6.8 1.9 13.8 1.9 20.7 0 70.8-47.5 121.2-118.8 121.2zM415.5 273.8l0 35.5-35.5 0 0-35.5-35.5 0 0-35.5 35.5 0 0-35.5 35.5 0 0 35.5 35.2 0 0 35.5-35.2 0z"/>
    </svg>
  </g>
  <!-- Icon 25: gitkraken -->
  <g transform="translate(192, 272)">
    <rect width="48" height="48" fill="#ffffff" stroke="#e9ecef" stroke-width="1" rx="4"/>
    <svg x="8" y="8" width="32" height="32" viewBox="0 0 576 512">
      <!--! Font Awesome Free 7.0.1 by @fontawesome - https://fontawesome.com License - https://fontawesome.com/license/free (Icons: CC BY 4.0, Fonts: SIL OFL 1.1, Code: MIT License) Copyright 2025 Fonticons, Inc. --><path fill="#2563eb" d="M557.7 118.1c-2.3-6.1-9.3-9.2-15.3-6.6-5.7 2.4-8.5 8.9-6.3 14.6 10.9 29 16.9 60.5 16.9 93.3 0 134.6-100.3 245.7-230.2 262.7l0-123.7c7.9-1.5 15.5-3.6 23-6.2l0 104c106.7-25.9 185.9-122.1 185.9-236.8 0-91.8-50.8-171.8-125.8-213.3-5.7-3.2-13-.9-15.9 5-2.7 5.5-.6 12.2 4.7 15.1 67.9 37.6 113.9 110 113.9 193.2 0 93.3-57.9 173.1-139.8 205.4l0-92.2c14.2-4.5 24.9-17.7 24.9-33.5 0-13.1-6.8-24.4-17.3-30.5 8.3-79.5 44.5-58.6 44.5-83.9l0-14.7c0-38-87.9-161.8-129-164.7-2.5-.2-5-.2-7.6 0-41.2 3-129.1 126.7-129.1 164.7l0 14.8c0 25.3 36.3 4.3 44.5 83.9-10.6 6.1-17.3 17.4-17.3 30.5 0 15.8 10.6 29 24.8 33.5l0 92.2c-81.9-32.2-139.8-112-139.8-205.4 0-83.1 46-155.5 113.9-193.2 5.4-3 7.4-9.6 4.7-15.1-2.9-5.9-10.1-8.2-15.9-5-75 41.5-125.8 121.5-125.8 213.3 0 114.7 79.2 210.8 185.9 236.8l0-104c7.6 2.5 15.1 4.6 23 6.2l0 123.7c-129.8-17-230.2-128.1-230.2-262.7 0-32.8 6-64.3 16.9-93.3 2.2-5.8-.6-12.2-6.3-14.6-6-2.6-13 .4-15.3 6.6-11.8 31.5-18.3 65.6-18.3 101.3 0 155.1 122.6 281.6 276.3 287.8l0-145.9c6.8 .4 15 .5 23.4 0l0 145.8c153.7-6.1 276.3-132.6 276.3-287.7 0-35.7-6.5-69.8-18.3-101.4zM357.9 322.9a23.7 23.7 0 1 1 0-47.4 23.7 23.7 0 1 1 0 47.4zM218.1 275.4a23.7 23.7 0 1 1 0 47.4 23.7 23.7 0 1 1 0-47.4z"/>
    </svg>
  </g>
  <!-- Icon 26: foursquare -->
  <g transform="translate(252, 272)">
    <rect width="48" height="48" fill="#ffffff" stroke="#e9ecef" stroke-width="1" rx="4"/>
    <svg x="8" y="8" width="32" height="32" viewBox="0 0 384 512">
      <!--! Font Awesome Free 7.0.1 by @fontawesome - https://fontawesome.com License - https://fontawesome.com/license/free (Icons: CC BY 4.0, Fonts: SIL OFL 1.1, Code: MIT License) Copyright 2025 Fonticons, Inc. --><path fill="#2563eb" d="M331.1 3L57.9 3C20.4 3 8 31.3 8 49.1L8 482.9c0 20.3 12.1 27.7 18.2 30.1 6.2 2.5 22.8 4.6 32.9-7.1 128.9-149.4 131.1-151.9 131.1-151.9 3.1-3.4 3.4-3.1 6.8-3.1l83.4 0c35.1 0 40.6-25.2 44.3-39.7l48.6-243C381.8 25.8 371.1 3 331.1 3zM314.8 76.8l-11.4 59.7c-1.2 6.5-9.5 13.2-16.9 13.2l-106.4 0c-12 0-20.6 8.3-20.6 20.3l0 13c0 12 8.6 20.6 20.6 20.6l90.4 0c8.3 0 16.6 9.2 14.8 18.2-1.8 8.9-10.5 53.8-11.4 58.8-.9 4.9-6.8 13.5-16.9 13.5l-73.5 0c-13.5 0-17.2 1.8-26.5 12.6 0 0-8.9 11.4-89.5 108.3-.9 .9-1.8 .6-1.8-.3l0-338.8c0-7.7 6.8-16.6 16.6-16.6l219 0c8.2 0 15.6 7.7 13.5 17.5z"/>
    </svg>
  </g>
  <!-- Icon 27: first-order -->
  <g transform="translate(312, 272)">
    <rect width="48" height="48" fill="#ffffff" stroke="#e9ecef" stroke-width="1" rx="4"/>
    <svg x="8" y="8" width="32" height="32" viewBox="0 0 448 512">
      <!--! Font Awesome Free 7.0.1 by @fontawesome - https://fontawesome.com License - https://fontawesome.com/license/free (Icons: CC BY 4.0, Fonts: SIL OFL 1.1, Code: MIT License) Copyright 2025 Fonticons, Inc. --><path fill="#2563eb" d="M13.3 229.2c.1-.1 .2-.3 .3-.4 0 .1 0 .3-.1 .4l-.2 0zM224.4 96.6c-7.1 0-14.6 .6-21.4 1.7l3.7 67.4-22-64c-14.3 3.7-27.7 9.4-40 16.6l29.4 61.4-45.1-50.9c-11.4 8.9-21.7 19.1-30.6 30.9l50.6 45.4-61.1-29.7c-7.1 12.3-12.9 25.7-16.6 40l64.3 22.6-68-4c-.9 7.1-1.4 14.6-1.4 22s.6 14.6 1.4 21.7l67.7-4-64 22.6c3.7 14.3 9.4 27.7 16.6 40.3L149 306.9 98.1 352c8.9 11.7 19.1 22.3 30.9 30.9l44.9-50.9-29.5 61.4c12.3 7.4 25.7 13.1 40 16.9l22.3-64.6-4 68c7.1 1.1 14.6 1.7 21.7 1.7 7.4 0 14.6-.6 21.7-1.7l-4-68.6 22.6 65.1c14.3-4 27.7-9.4 40-16.9l-29.4-61.3 44.9 50.9c11.7-8.9 22-19.1 30.6-30.9l-50.6-45.1 61.1 29.4c7.1-12.3 12.9-25.7 16.6-40.3l-64-22.3 67.4 4c1.1-7.1 1.4-14.3 1.4-21.7s-.3-14.9-1.4-22l-67.7 4 64-22.3c-3.7-14.3-9.1-28-16.6-40.3l-60.9 29.7 50.6-45.4c-8.9-11.7-19.1-22-30.6-30.9l-45.1 50.9 29.4-61.1c-12.3-7.4-25.7-13.1-40-16.9l-22.3 64.3 4-67.7c-7.1-1.2-14.3-1.7-21.7-1.7zM443.8 128L443.8 384 224.4 512 5 384 5 128 224.4 0 443.8 128zm-17.1 10.3l-202.3-117.4-202.3 117.4 0 235.1 202.3 117.7 202.3-117.7 0-235.1zM224.4 37.1l187.7 109.4 0 218.9-187.7 109.5-187.7-109.5 0-218.8 187.7-109.5zm0 50.9c-92.3 0-166.9 75.1-166.9 168 0 92.6 74.6 167.7 166.9 167.7 92 0 166.9-75.1 166.9-167.7 0-92.9-74.9-168-166.9-168z"/>
    </svg>
  </g>
  <!-- Icon 28: etsy -->
  <g transform="translate(372, 272)">
    <rect width="48" height="48" fill="#ffffff" stroke="#e9ecef" stroke-width="1" rx="4"/>
    <svg x="8" y="8" width="32" height="32" viewBox="0 0 384 512">
      <!--! Font Awesome Free 7.0.1 by @fontawesome - https://fontawesome.com License - https://fontawesome.com/license/free (Icons: CC BY 4.0, Fonts: SIL OFL 1.1, Code: MIT License) Copyright 2025 Fonticons, Inc. --><path fill="#2563eb" d="M384 348c-1.8 10.7-13.8 110-15.5 132-117.9-4.3-219.9-4.7-368.5 0l0-25.5c45.5-8.9 60.6-8 61-35.2 1.8-72.3 3.5-244.1 0-322-1-28.5-12.1-26.8-61-36L0 35.8c73.9 2.4 255.9 8.6 363-3.8-3.5 38.2-7.8 126.5-7.8 126.5l-23.2 0C320.9 115.7 313.2 68 277.3 68l-137 0c-10.2 0-10.7 3.5-10.7 9.8l0 163.8c58 .5 88.5-2.5 88.5-2.5 29.8-1 27.6-8.5 40.7-65.3l25.8 0c-4.4 101.4-3.9 61.8-1.8 160.3L257 334c-9.2-40.1-9.1-61-39.5-61.5 0 0-21.5-2-88-2l0 139c0 26 14.3 38.3 44.3 38.3l89.3 0c63.6 0 66.6-25 98.7-99.8l22.2 0z"/>
    </svg>
  </g>
  <!-- Icon 29: drupal -->
  <g transform="translate(12, 332)">
    <rect width="48" height="48" fill="#ffffff" stroke="#e9ecef" stroke-width="1" rx="4"/>
    <svg x="8" y="8" width="32" height="32" viewBox="0 0 384 512">
      <!--! Font Awesome Free 7.0.1 by @fontawesome - https://fontawesome.com License - https://fontawesome.com/license/free (Icons: CC BY 4.0, Fonts: SIL OFL 1.1, Code: MIT License) Copyright 2025 Fonticons, Inc. --><path fill="#2563eb" d="M272.3 108.1C236.5 72.5 202.5 38.4 192.4 0 182.4 38.4 148.1 72.5 112.4 108.1 58.8 161.7-1.9 222.4-1.9 313.4-4.3 420.7 80.8 509.6 188.1 512s196.2-82.8 198.5-190.1c.1-2.8 .1-5.6 0-8.5 0-91.1-60.8-151.7-114.3-205.3zM98 331.1c-5.9 7.5-11 15.6-15.2 24.2-.3 .7-.8 1.3-1.3 1.8s-1.2 .8-2 1l-1.7 0c-4.3 0-9.2-8.5-9.2-8.5-1.3-2-2.5-4.2-3.7-6.4l-.8-1.8c-11.2-25.7-1.5-62.3-1.5-62.3 4.8-17.8 12.7-34.7 23.2-49.9 6.4-9.6 13.5-18.9 21-27.7l9.2 9.2 43.5 44.4c.8 .9 1.3 2.1 1.3 3.3s-.5 2.4-1.3 3.3L114.1 312.3 98 331.1zm96.6 127.3c-12.9-.1-25.6-3.9-36.4-11s-19.4-17.1-24.6-28.9-7-24.9-5-37.7 7.6-24.7 16.2-34.4c14.2-16.9 31.5-33.5 50.3-55.3 22.3 23.8 36.9 40.1 51.2 58 1.1 1.4 2.1 2.9 3 4.4 7.8 11.1 12 24.4 12 38 0 8.8-1.7 17.4-5 25.5s-8.2 15.5-14.4 21.7-13.5 11.1-21.6 14.5-16.7 5.1-25.5 5.1l-.2 0zM320.7 351.6c-.4 1.4-1.2 2.6-2.3 3.6s-2.4 1.6-3.8 1.8l-1.3 0c-2.6-.9-4.9-2.7-6.3-5.1-11.6-17.5-24.9-33.9-39.5-49l-17.8-18.4-59.1-61.3c-12.4-11.5-24.2-23.6-35.4-36.3-.3-.5-.6-.9-.9-1.4-2-2.8-3.6-5.9-4.7-9.2l0-1.8c-.8-5-.4-10.1 1.2-15s4.4-9.2 8-12.7c11.4-11.4 23-23 33.8-34.9 12 13.3 24.8 26 37.4 38.6 25.8 24 49.1 50.5 69.6 79.1 17.3 24.5 26.7 53.8 27 83.8-.1 12.9-2.2 25.8-6 38.2z"/>
    </svg>
  </g>
  <!-- Icon 30: dev -->
  <g transform="translate(72, 332)">
    <rect width="48" height="48" fill="#ffffff" stroke="#e9ecef" stroke-width="1" rx="4"/>
    <svg x="8" y="8" width="32" height="32" viewBox="0 0 448 512">
      <!--! Font Awesome Free 7.0.1 by @fontawesome - https://fontawesome.com License - https://fontawesome.com/license/free (Icons: CC BY 4.0, Fonts: SIL OFL 1.1, Code: MIT License) Copyright 2025 Fonticons, Inc. --><path fill="#2563eb" d="M120.1 208.3c-3.9-2.9-7.8-4.3-11.6-4.3l-17.4 0 0 104.5 17.4 0c3.9 0 7.8-1.4 11.6-4.3s5.8-7.3 5.8-13.1l0-69.7c0-5.8-2-10.2-5.8-13.1zM404.1 32L43.9 32C19.7 32 .1 51.6 0 75.8L0 436.2C.1 460.4 19.7 480 43.9 480l360.2 0c24.2 0 43.8-19.6 43.9-43.8l0-360.4C447.9 51.6 428.3 32 404.1 32zM154.2 291.2c0 18.8-11.6 47.3-48.4 47.3l-46.4 0 0-165.5 47.4 0c35.4 0 47.4 28.5 47.4 47.3l0 70.9zm100.7-88.7l-53.3 0 0 38.4 32.6 0 0 29.6-32.6 0 0 38.4 53.3 0 0 29.6-62.2 0c-11.2 .3-20.4-8.5-20.7-19.7l0-125.1c-.3-11.1 8.6-20.4 19.7-20.7l63.2 0 0 29.5zM358.5 317.8c-13.2 30.7-36.8 24.6-47.4 0l-38.5-144.8 32.6 0 29.7 113.7 29.6-113.7 32.6 0-38.5 144.8z"/>
    </svg>
  </g>
  <!-- Icon 31: critical-role -->
  <g transform="translate(132, 332)">
    <rect width="48" height="48" fill="#ffffff" stroke="#e9ecef" stroke-width="1" rx="4"/>
    <svg x="8" y="8" width="32" height="32" viewBox="0 0 448 512">
      <!--! Font Awesome Free 7.0.1 by @fontawesome - https://fontawesome.com License - https://fontawesome.com/license/free (Icons: CC BY 4.0, Fonts: SIL OFL 1.1, Code: MIT License) Copyright 2025 Fonticons, Inc. --><path fill="#2563eb" d="M225.8 0c.3 .2 216.6 124.5 217.1 124.7 3 1.2 3.7 3.5 3.7 6.6-.1 83.4-.1 166.9 0 250.4 .1 1.2-.2 2.4-.8 3.4s-1.5 1.9-2.6 2.4c-21.4 12-207.9 118.3-218.9 124.6l-3 0c-79.3-45.7-218.3-125.4-218.4-125.5-.6-.3-1.1-.7-1.4-1.3s-.5-1.2-.4-1.9c0-.9 0-225.9-.1-253.1-.1-1 .2-2 .7-2.9s1.3-1.6 2.2-2C27.2 112.1 213.2 6 224.1 0l1.8 0zM215.4 20.4l-.2-.2c-64.7 36.9-129.5 73.7-194.2 110.6 0 .1 .1 .2 .1 .4L52 142.9c-7.7 6-8.3 6-10.6 5.1-.1 0-24.2-9.3-26.8-10l0 230.4c.9-1.4 64.1-110.9 64.1-111 1.6-2.8 3-1.9 9.1-1.5 1.4 .1 1.5 .2 .8 1.4-41.2 71.3-36.4 63-67.5 116.9-.8 1.4-.6 1.1 1.2 1.1l186.5 0c1.4 0 1.7-.2 1.7-1.6l0-8.9c0-1.3 2.4-.8-18.4-1-7.5-.1-14.1-3.2-21.4-12.7-7.4-9.7-14.6-19.4-21.8-29.2-2.3-3.1-3.4-2.4-16.8-2.4-1.8 0-1.8 0-1.8 1.8 .3 26.2 .2 25.3 1 32.7 .5 4.4 2.2 4.2 9.7 4.8 3.1 .3 3.9 4.1 .5 4.9-1.6 .4-31.6 .5-33.7-.1-.5-.1-1-.5-1.3-.9s-.5-1-.4-1.6 .3-1.1 .6-1.5 .9-.7 1.4-.8c3.3-.8 6.2 .8 6.7-4.4 1.3-13.7 1.2-9 1.1-79.4 0-10.8-.4-12.6-5.4-13.6-1.2-.2-3.5-.2-4.7-.6-2.9-1-2-4.8 1.8-4.8 33.7 0 46.1-1.1 56.1 4.9 7.7 4.6 12 11.5 12.5 20.4 .9 14.6-6.5 22.3-15 32.6-.2 .1-.3 .3-.4 .5s-.1 .4-.1 .6 0 .4 .1 .6 .2 .4 .4 .5c2.6 3.2 5 6.6 7.7 9.8 27.6 33.2 24.1 30.5 41.3 33.1 .9 .1 1-.4 1-1.2l0-11c0-1 .3-1.4 1.4-1.3 7.8 1.2 15.8 1.1 23.6-.3 1.1-.1 1.5 .2 1.5 1.3 0 .1 .9 26.7 .9 26.8 0 1.5 .7 1.6 1.9 1.6l186.7 0c-27.2-47-54.2-94-81.2-140.8 2.3-.7-.4 0 6.7-1.4 2-.4 2.1-.4 3.1 1.4 7.3 12.6 77.3 134 77.4 134.1l0-230.4c-1.7 .5-103.3 38.7-105.8 39.7-1.1 .4-1.5 .2-1.9-.9-.6-1.9-1.3-3.8-2.1-5.6-.3-.8-.1-1.1 .6-1.4 .1 0 95.5-35.8 103-38.8-65.4-37.6-130.6-75-196-112.6l86.8 150.4-.3 .3c-9.6-.9-10.5-1.6-11.8-3.9-1-1.7-73.5-127.7-82-142.2-9.1 14.7-83.6 146.2-85.4 146.3-2.9 .2-5.9 .1-9.2 .1 28.8-49.8 57.6-99.5 86.2-149l0 0zm51.9 129.9c1.9-.1 3.7-.4 5.5-.8 1.7-.3 2.5 .2 2.6 1.9 0 .1 .1 19.1-.9 20.5s-1.9 1.2-2.6-.2c-5-9.7 6.2-9.7-39.1-12-.7 0-1 .2-1 .9 0 .1 3.7 122 3.7 122.1 0 .9 .5 1.2 1.2 1.5 3 1.2 5.9 2.5 8.7 4 7.3 4.3 11.4 10.8 12.4 19.3 1.4 11.8-2.8 35.8-32.2 37.1-2.8 .1-28.3 1.1-34.1-23.3-4.7-19.3 8.3-32.7 19.9-36.4 .6-.1 1.2-.4 1.5-.9s.5-1.1 .5-1.7c.1-5.6 3-107.1 3.7-121.3 0-1.1-.6-1.2-1.4-1.1-32.3 .5-36.7-.3-40.2 8.5-2.4 6.2-4.1 1.3-4 .2 1.1-6 2.2-12 3.3-18 .4-2.1 1.4-2.6 3.4-1.9 5.6 2.1 6.7 1.7 37.2 1.9 1.7 0 1.8-.1 1.8-1.8 .7-27.5 .6-22.6 1-29.6 .1-.6-.1-1.2-.3-1.7s-.7-.9-1.3-1.1c-5.6-2.9-8.8-7.6-8.9-13.9-.4-14.8 17.7-21.7 27.4-11.5 6.8 7.2 5.8 18.9-2.5 24.2-.8 .4-1.4 1.1-1.8 1.8s-.6 1.6-.4 2.5c0 .6-.1-4.3 1 30 0 .9 .4 1.1 1.2 1.1 .1 0 23-.1 34.5-.4l0-.1zM68.3 141.7c19.8-4.5 32.7-.6 52.5 1.7 2.8 .3 3.7 1.2 3.6 4-.2 5-1.2 22.3-1.2 23.1 0 .5-.2 1-.5 1.4s-.7 .7-1.2 .9c-4.1 1.7-3.6-4.4-4-7.3-3.1-22.4-73.9-32.7-74.6 25.4-.3 23.9 17 53.6 54.1 50.9 27.2-2 19-20.2 24.8-20.5 .4-.1 .9 0 1.3 .1s.8 .4 1.1 .7 .5 .7 .6 1.2 .1 .9 0 1.3c-1.8 10.8-3.4 19-3.4 19.2-1.5 9.2-86.7 22.1-93.4-42.1-2.7-25.8 10.4-53.4 40.3-60.2zm80 87.7l-19.5 0c-.6 0-1.2-.1-1.6-.4s-.8-.8-1-1.4c2.4-3.8 5.9 .9 5.9-6.1-.1-25.8 .2-38 .2-40.1 0-3.4-.5-4.6-3.3-4.9-7-.7-3.1-3.4-1.1-3.4 11.8-.1 22.6-.2 30 .7 8.8 1.1 16.7 12.6 7.9 22.6-2 2.2-4 4.4-6.1 6.7 1 1.2 6.9 8.8 17.3 19.7 2.7 2.8 6.2 3.5 9.9 3.1 .6 0 1.1-.2 1.5-.6s.7-.9 .7-1.5c.3-3.4 .3 4.7 .4-40.6 0-5.6-.3-6.6-3.2-6.8-4-.4-4-2.3-.7-3.4l19.1-.1c.3 0 4.5 .5 1 3.4 0 0-.2 0-.2 0-3.6 .3-3.9 1-4 4.6-.3 43.9 .1 40.2 .4 42.8 .1 .8 .3 2.2 5.1 2.1 2.5 0 3.9 3.4 0 3.4-10.4 .1-20.7 0-31.1 .1-10.7 0-13.5-6.2-24.2-20.8-1.6-2.2-8.3-2.4-8.2-.4 .9 16.5 0 17.8 4 17.7 4.8-.1 4.7 3.6 .8 3.5l.1 0zm275-10.1c-1.2 7.1 .2 10.4-5.3 10.3-61.5-.4-47.8-.2-50.7-.3-1.2-.1-2.4-.4-3.6-.7-2.5-.6 1.5-1.2-.4-5.6-1.4-3.4-2.8-6.8-4.1-10.2-.1-.4-.4-.8-.7-1.1s-.8-.4-1.3-.4c-4.9-.2-9.7-.2-14.6 .1-.3 0-.6 .2-.9 .3s-.5 .4-.7 .7c-1.6 3.6-3.1 7.3-4.5 11-1.3 3.2 7.9 1.3 12.2 2.2 3 .6 4.5 3.7 .7 3.7l-26.4 0c-2.9 0-3.1-3.2-.7-3.2 1.2 .1 2.4-.2 3.5-.9s1.9-1.5 2.4-2.6c1.5-3 2.8-6 4.1-9.1 18.2-42.1 17.1-40.2 18.4-41.6 .2-.2 .4-.4 .7-.6s.6-.2 .8-.2 .6 .1 .8 .2 .5 .3 .7 .6c2.9 3.3 18.4 44.7 23.6 51.9 2 2.7 5.7 2 6.4 2 3.6 .1 4-1.1 4.1-4.3 .1-1.9 .1 1.2 .1-41.2 0-4.5-2.4-3.7-5.6-4.3-.3 0-2.6-.6-.1-3.1 .2-.2-.9-.2 21.7-.2 2.3 0 5.3 2.8-1.2 3.4-.4 0-.7 0-1.1 .2s-.6 .3-.9 .6-.4 .6-.6 .9-.2 .7-.1 1.1c-.1 1.6-.2 38.9 .3 41.2 .2 .7 .6 1.4 1.2 1.8s1.3 .7 2.1 .6c13.3 .4 14.9 .4 16-3.4 1.7-5.8 4.1-2.5 3.7-.2l0 .1zM318.6 283.6c-4.2 0-4.4-3.4-.6-3.4 35.9-.2 28.1 .4 37.2-.6 1.7-.2 2.4 .2 2.3 1.9-.3 3.4-.6 6.8-1 10.2-.2 2.2-3.2 2.6-3.4-.2-.4-5.3-2.2-4.5-15.6-5.1-1.6-.1-1.6 0-1.6 1.5l0 16.1c0 1.7 0 1.6 1.6 1.5 3.1-.2 10.3 .3 15.7-1.5 .5-.2 3.3-1.8 3.1 1.8 0 .2-.8 10.4-1.2 11.4-.5 1.3-1.9 1.5-2.6 .3-1.2-2 0-5.1-3.7-5.3-15.4-.9-12.9-2.5-12.9 6 0 12.3-.8 16.1 3.9 16.2 16.6 .5 14.4 0 16.4-5.7 .8-2.4 3.5-1.8 3.2 .6-.4 3.2-.8 6.4-1.2 9.6 0 .4-.2 2.4-4.7 2.4-37.2-.1-34.5-.2-35.2-.3-2.7-.5-2.2-3 .2-3.4 1.1-.2 4 .5 4.2-2.6 2.4-56.2-.1-51.3-3.9-51.3l0 0zm-.4-109.5c2.5 .6 3.1 1.8 3 4.6-.3 5.3-.3 9-.6 9.7-.7 2.2-3.1 2.1-3.3-.3-.4-4.8-3-7.8-7.6-9.1-26.3-7.7-32.8 15.5-27.2 30.2 5.9 15.4 22 15.9 28.9 13.8 5.9-1.9 5.9-6.5 6.9-7.6 1.2-1.3 2.2-1.8 3.1 1.1 0 .1 .6 11.9-6 12.7-1.6 .2-19.4 3.7-32.7-3.4-21-11.2-16.7-35.5-6.9-45.3 14-14.1 39.9-7.1 42.3-6.5l0 0zM289.8 280.1c3.3 0 3.7 3 .2 3.4-2.6 .3-5-.4-5 5.5 0 2-.2 29 .4 41.4 .1 2.3 1.2 3.5 3.4 3.7 22 1.2 15-1.7 18.8-6.3 1.8-2.2 2.8 .8 2.8 1.1 .3 13.6-4 12.4-5.2 12.4l-38.2-.2c-1.9-.2-2.1-3-.4-3.4 2-.5 4.9 .4 5.1-2.8 1-15.9 .6-44.6 .3-47.8-.3-3.8-2.8-3.3-5.7-3.7-2.5-.4-2-3.2 .3-3.2 1.4 0 18 0 23.1 0zm-31.6-57.8c.1 4.1 2.9 3.5 6 3.6 2.6 .1 2.5 3.4-.1 3.4-6.5 0-13.7 0-21.6-.1-3.8 0-3.4-3.4 0-3.4 4.5 0 3.2 1.6 3.4-45.5 0-5.1-3.3-3.5-4.7-4.2-2.6-1.2-1.4-3.1 .4-3.2 1.3 0 20.2-.4 21.2 .2s1.9 1.6-.4 2.9c-1 .5-3.9-.3-4.2 2.5 0 .2-.8 1.6-.1 43.8l0 0zM221.3 496.6c.5 .3 1 .5 1.6 .5s1.1-.2 1.6-.5c17-9.8 182-103.6 197.4-112.5-.1-.4 11.3-.2-181.5-.3-1.2 0-1.6 .4-1.5 1.6 0 .1 1.3 44.5 1.2 50.4-.1 2.6-.6 5.2-1.4 7.7-.6 1.8 .4-.5-13.5 32.2-.7 1.7-1 2.2-2-.1-4.2-10.3-8.3-20.7-12.6-31-1.5-3.4-2.2-7.1-2-10.8 .2-2.5 .8-16.1 1.5-48 0-1.9 0-2-2-2l-183 0c2.6 1.6 178.3 102.6 196 112.8l.1 0zM130.4 307.9c0 2.4 .4 2.8 2.8 3 11.5 1.2 21 3.7 25.6-7.3 6-14.5 2.7-34.4-12.5-38.8-2-.6-16-2.8-15.9 1.5 0 8 0 11.6 0 41.6zm105.8-15c0 2.1 1.1 38.7 1.1 39.1 .3 9.9-25.6 5.8-25.2-2.6 .1-2 1.4-37.4 1.1-39.4-14.1 7.4-14.4 40.2 6.4 48.8 4 1.7 8.4 1.9 12.5 .6s7.6-4 9.9-7.7c4.9-7.8 6.8-29.5-5.4-39-.1 .1-.2 .1-.4 .1l0 0zm-12.3-198c-9.8 0-9.7 14.8-.1 14.9s10.1-14.9 .1-14.9l0 0zM143.7 198.6c0 1.8 .4 2.4 2.2 2.6 13.6 1.4 12.5-11 12.2-13.4-1.7-11.2-14.4-10.2-14.4-7.8 0 4.5 0 13.7 0 18.6zM356 205l-6.1-15.8c-2.2 5.5-4.2 10.6-6.2 15.8l12.3 0z"/>
    </svg>
  </g>
  <!-- Icon 32: cpanel -->
  <g transform="translate(192, 332)">
    <rect width="48" height="48" fill="#ffffff" stroke="#e9ecef" stroke-width="1" rx="4"/>
    <svg x="8" y="8" width="32" height="32" viewBox="0 0 640 512">
      <!--! Font Awesome Free 7.0.1 by @fontawesome - https://fontawesome.com License - https://fontawesome.com/license/free (Icons: CC BY 4.0, Fonts: SIL OFL 1.1, Code: MIT License) Copyright 2025 Fonticons, Inc. --><path fill="#2563eb" d="M210.3 220.2c-5.6-24.8-26.9-41.2-51-41.2l-37 0c-7.1 0-12.5 4.5-14.3 10.9L73.1 320 97.8 319.9c6.8 0 12.3-4.5 14.2-10.7l25.8-95.7 19.8 0c8.4 0 16.2 5.6 18.3 14.8 2.5 10.9-5.9 22.6-18.3 22.6l-10.3 0c-7 0-12.5 4.6-14.3 10.8l-6.4 23.8 32 0c37.2 0 58.3-36.2 51.7-65.3zm-156.5 28l18.6 0c6.9 0 12.4-4.4 14.3-10.9l6.2-23.6-40 0C30 213.7 9 227.8 1.7 254.8-7 288.6 18.5 320 52 320l12.4 0 7.1-26.1c1.2-4.4-2.2-8.3-6.4-8.3l-11.3 0c-24.7 0-24.9-37.4 0-37.4zm247.5-34.8l-77.9 0-3.5 13.4c-2.4 9.6 4.5 18.5 14.2 18.5l57.5 0c4 0 2.4 4.3 2.1 5.3l-8.6 31.8c-.4 1.4-.9 5.3-5.5 5.3l-34.9 0c-5.3 0-5.3-7.9 0-7.9l21.6 0c6.8 0 12.3-4.6 14.2-10.8l3.5-13.2-48.4 0c-39.2 0-43.6 63.8-.7 63.8l57.5 .2c11.2 0 20.6-7.2 23.4-17.8l14-51.8c4.8-19.2-9.7-36.8-28.5-36.8zM633.1 179l-18.9 0c-4.9 0-9.2 3.2-10.4 7.9L568.2 320c20.7 0 39.8-13.8 44.9-34.5l26.5-98.2c1.2-4.3-2-8.3-6.5-8.3zM396.8 213.7l0 .1-48.3 0-26.2 98c-1.2 4.4 2.2 8.3 6.4 8.3l18.9 0c4.8 0 9.2-3 10.4-7.8l17.2-64 19.8 0c12.5 0 21.4 11.8 18.1 23.4l-10.6 40c-1.2 4.3 1.9 8.3 6.4 8.3l19.1 0c4.6 0 9.1-2.9 10.3-7.8l8.8-33.1c9-33.1-15.9-65.4-50.3-65.4zm98.3 74.6c-3.6 0-6-3.4-5.1-6.7l8-30c.9-3.9 3.7-6 7.8-6l32.9 0c2.6 0 4.6 2.4 3.9 5.1l-.7 2.6c-.6 2-1.9 3-3.9 3l-21.6 0c-7 0-12.6 4.6-14.2 10.8l-3.5 13 53.4 0c10.5 0 20.3-6.6 23.2-17.6l3.2-12c4.9-19.1-9.3-36.8-28.3-36.8l-47.3 0c-17.9 0-33.8 12-38.6 29.6l-10.8 40c-5 17.7 8.3 36.7 28.3 36.7l66.7 0c6.8 0 12.3-4.5 14.2-10.7l5.7-21-73.3 0z"/>
    </svg>
  </g>
  <!-- Icon 33: centercode -->
  <g transform="translate(252, 332)">
    <rect width="48" height="48" fill="#ffffff" stroke="#e9ecef" stroke-width="1" rx="4"/>
    <svg x="8" y="8" width="32" height="32" viewBox="0 0 512 512">
      <!--! Font Awesome Free 7.0.1 by @fontawesome - https://fontawesome.com License - https://fontawesome.com/license/free (Icons: CC BY 4.0, Fonts: SIL OFL 1.1, Code: MIT License) Copyright 2025 Fonticons, Inc. --><path fill="#2563eb" d="M201.8 254.8a64.1 64.1 0 1 1 127.4 13.8 64.1 64.1 0 1 1 -127.4-13.8zm41.6 248.9C96.7 496-8.2 365.5 10.1 224.3 21.3 137.7 75.9 67.4 149.2 32.3 310.2-44.8 498.9 69.7 503.9 248.9 508 395.9 385.5 511.1 243.4 503.7zm179.9-180c27.9-118-160.5-205.9-237.2-234.2-57.5 56.3-69.1 188.6-33.8 344.4 68.8 15.8 169.1-26.4 271-110.2z"/>
    </svg>
  </g>
  <!-- Icon 34: buromobelexperte -->
  <g transform="translate(312, 332)">
    <rect width="48" height="48" fill="#ffffff" stroke="#e9ecef" stroke-width="1" rx="4"/>
    <svg x="8" y="8" width="32" height="32" viewBox="0 0 448 512">
      <!--! Font Awesome Free 7.0.1 by @fontawesome - https://fontawesome.com License - https://fontawesome.com/license/free (Icons: CC BY 4.0, Fonts: SIL OFL 1.1, Code: MIT License) Copyright 2025 Fonticons, Inc. --><path fill="#2563eb" d="M0 32l0 128 128 0 0-128-128 0zM120 152l-112 0 0-112 112 0 0 112zM160 32l0 128 128 0 0-128-128 0zM280 152l-112 0 0-112 112 0 0 112zM320 32l0 128 128 0 0-128-128 0zM440 152l-112 0 0-112 112 0 0 112zM0 192l0 128 128 0 0-128-128 0zM120 312l-112 0 0-112 112 0 0 112zm40-120l0 128 128 0 0-128-128 0zM280 312l-112 0 0-112 112 0 0 112zm40-120l0 128 128 0 0-128-128 0zM440 312l-112 0 0-112 112 0 0 112zM0 352l0 128 128 0 0-128-128 0zM120 472l-112 0 0-112 112 0 0 112zm40-120l0 128 128 0 0-128-128 0zM280 472l-112 0 0-112 112 0 0 112zm40-120l0 128 128 0 0-128-128 0z"/>
    </svg>
  </g>
  <!-- Icon 35: bitcoin -->
  <g transform="translate(372, 332)">
    <rect width="48" height="48" fill="#ffffff" stroke="#e9ecef" stroke-width="1" rx="4"/>
    <svg x="8" y="8" width="32" height="32" viewBox="0 0 512 512">
      <!--! Font Awesome Free 7.0.1 by @fontawesome - https://fontawesome.com License - https://fontawesome.com/license/free (Icons: CC BY 4.0, Fonts: SIL OFL 1.1, Code: MIT License) Copyright 2025 Fonticons, Inc. --><path fill="#2563eb" d="M8 256a248 248 0 1 1 496 0 248 248 0 1 1 -496 0zm354.3-35.3c4.9-33-20.2-50.7-54.6-62.6l11.1-44.7-27.2-6.8-10.9 43.5c-7.2-1.8-14.5-3.5-21.8-5.1l10.9-43.8-27.2-6.8-11.2 44.7c-5.9-1.3-11.7-2.7-17.4-4.1l0-.1-37.5-9.4-7.2 29.1s20.2 4.6 19.8 4.9c11 2.8 13 10 12.7 15.8l-12.7 50.9c.8 .2 1.7 .5 2.8 .9-.9-.2-1.9-.5-2.9-.7l-17.8 71.3c-1.3 3.3-4.8 8.4-12.5 6.5 .3 .4-19.8-4.9-19.8-4.9l-13.5 31.1 35.4 8.8c6.6 1.7 13 3.4 19.4 5l-11.3 45.2 27.2 6.8 11.2-44.7c7.2 2 14.4 3.8 21.7 5.6l-11.1 44.5 27.2 6.8 11.3-45.1c46.4 8.8 81.3 5.2 96-36.7 11.8-33.8-.6-53.3-25-66 17.8-4.1 31.2-15.8 34.7-39.9zm-62.2 87.2c-8.4 33.8-65.3 15.5-83.8 10.9l14.9-59.9c18.4 4.6 77.6 13.7 68.8 49zm8.4-87.7c-7.7 30.7-55 15.1-70.4 11.3l13.5-54.3c15.4 3.8 64.8 11 56.8 43z"/>
    </svg>
  </g>
  
  <!-- Footer -->
  <text x="400" y="580" text-anchor="middle" font-family="system-ui, -apple-system, sans-serif" font-size="12" fill="#6c757d">
    Showing 35 of 549 icons
  </text>
  
</svg>