<svg width="800" height="600" xmlns="http://www.w3.org/2000/svg">
  <!-- Background -->
  <rect width="800" height="600" fill="#ffffff"/>
  
  <!-- Header Background -->
  <rect width="800" height="80" fill="#f8f9fa"/>
  
  <!-- Title -->
  <text x="400" y="30" text-anchor="middle" font-family="system-ui, -apple-system, sans-serif" font-size="20" font-weight="bold" fill="#212529">Font Awesome - solid</text>
  
  <!-- Subtitle -->
  <text x="400" y="55" text-anchor="middle" font-family="system-ui, -apple-system, sans-serif" font-size="14" fill="#6c757d">1,984 icons</text>
  
  <!-- Icon Grid -->
  <!-- Icon 1: zap -->
  <g transform="translate(196, 92)">
    <rect width="48" height="48" fill="#ffffff" stroke="#e9ecef" stroke-width="1" rx="4"/>
    <svg x="8" y="8" width="32" height="32" viewBox="0 0 448 512">
      <!--! Font Awesome Free 7.0.1 by @fontawesome - https://fontawesome.com License - https://fontawesome.com/license/free (Icons: CC BY 4.0, Fonts: SIL OFL 1.1, Code: MIT License) Copyright 2025 Fonticons, Inc. --><path fill="#2563eb" d="M338.8-9.9c11.9 8.6 16.3 24.2 10.9 37.8L271.3 224 416 224c13.5 0 25.5 8.4 30.1 21.1s.7 26.9-9.6 35.5l-288 240c-11.3 9.4-27.4 9.9-39.3 1.3s-16.3-24.2-10.9-37.8L176.7 288 32 288c-13.5 0-25.5-8.4-30.1-21.1s-.7-26.9 9.6-35.5l288-240c11.3-9.4 27.4-9.9 39.3-1.3z"/>
    </svg>
  </g>
  <!-- Icon 2: volume-off -->
  <g transform="translate(256, 92)">
    <rect width="48" height="48" fill="#ffffff" stroke="#e9ecef" stroke-width="1" rx="4"/>
    <svg x="8" y="8" width="32" height="32" viewBox="0 0 320 512">
      <!--! Font Awesome Free 7.0.1 by @fontawesome - https://fontawesome.com License - https://fontawesome.com/license/free (Icons: CC BY 4.0, Fonts: SIL OFL 1.1, Code: MIT License) Copyright 2025 Fonticons, Inc. --><path fill="#2563eb" d="M96 352l-48 0c-26.5 0-48-21.5-48-48l0-96c0-26.5 21.5-48 48-48l48 0 134.1-119.2c6.4-5.7 14.6-8.8 23.1-8.8 19.2 0 34.8 15.6 34.8 34.8l0 378.4c0 19.2-15.6 34.8-34.8 34.8-8.5 0-16.7-3.1-23.1-8.8L96 352z"/>
    </svg>
  </g>
  <!-- Icon 3: user-minus -->
  <g transform="translate(316, 92)">
    <rect width="48" height="48" fill="#ffffff" stroke="#e9ecef" stroke-width="1" rx="4"/>
    <svg x="8" y="8" width="32" height="32" viewBox="0 0 640 512">
      <!--! Font Awesome Free 7.0.1 by @fontawesome - https://fontawesome.com License - https://fontawesome.com/license/free (Icons: CC BY 4.0, Fonts: SIL OFL 1.1, Code: MIT License) Copyright 2025 Fonticons, Inc. --><path fill="#2563eb" d="M136 128a120 120 0 1 1 240 0 120 120 0 1 1 -240 0zM48 482.3C48 383.8 127.8 304 226.3 304l59.4 0c98.5 0 178.3 79.8 178.3 178.3 0 16.4-13.3 29.7-29.7 29.7L77.7 512C61.3 512 48 498.7 48 482.3zM472 168l144 0c13.3 0 24 10.7 24 24s-10.7 24-24 24l-144 0c-13.3 0-24-10.7-24-24s10.7-24 24-24z"/>
    </svg>
  </g>
  <!-- Icon 4: truck-front -->
  <g transform="translate(376, 92)">
    <rect width="48" height="48" fill="#ffffff" stroke="#e9ecef" stroke-width="1" rx="4"/>
    <svg x="8" y="8" width="32" height="32" viewBox="0 0 448 512">
      <!--! Font Awesome Free 7.0.1 by @fontawesome - https://fontawesome.com License - https://fontawesome.com/license/free (Icons: CC BY 4.0, Fonts: SIL OFL 1.1, Code: MIT License) Copyright 2025 Fonticons, Inc. --><path fill="#2563eb" d="M0 112C0 67.8 35.8 32 80 32l288 0c44.2 0 80 35.8 80 80l0 256c0 26.2-12.6 49.4-32 64l0 48c0 17.7-14.3 32-32 32l-32 0c-17.7 0-32-14.3-32-32l0-32-192 0 0 32c0 17.7-14.3 32-32 32l-32 0c-17.7 0-32-14.3-32-32l0-48C12.6 417.4 0 394.2 0 368L0 112zm96 80l0 64 256 0 0-64c0-17.7-14.3-32-32-32l-192 0c-17.7 0-32 14.3-32 32zm32 160a32 32 0 1 0 -64 0 32 32 0 1 0 64 0zm224 32a32 32 0 1 0 0-64 32 32 0 1 0 0 64z"/>
    </svg>
  </g>
  <!-- Icon 5: ticket -->
  <g transform="translate(436, 92)">
    <rect width="48" height="48" fill="#ffffff" stroke="#e9ecef" stroke-width="1" rx="4"/>
    <svg x="8" y="8" width="32" height="32" viewBox="0 0 576 512">
      <!--! Font Awesome Free 7.0.1 by @fontawesome - https://fontawesome.com License - https://fontawesome.com/license/free (Icons: CC BY 4.0, Fonts: SIL OFL 1.1, Code: MIT License) Copyright 2025 Fonticons, Inc. --><path fill="#2563eb" d="M64 64C28.7 64 0 92.7 0 128l0 64C0 200.8 7.4 207.7 15.7 210.6 34.5 217.1 48 235 48 256s-13.5 38.9-32.3 45.4C7.4 304.3 0 311.2 0 320l0 64c0 35.3 28.7 64 64 64l448 0c35.3 0 64-28.7 64-64l0-64c0-8.8-7.4-15.7-15.7-18.6-18.8-6.5-32.3-24.4-32.3-45.4s13.5-38.9 32.3-45.4c8.3-2.9 15.7-9.8 15.7-18.6l0-64c0-35.3-28.7-64-64-64L64 64zM416 336l0-160-256 0 0 160 256 0zM112 160c0-17.7 14.3-32 32-32l288 0c17.7 0 32 14.3 32 32l0 192c0 17.7-14.3 32-32 32l-288 0c-17.7 0-32-14.3-32-32l0-192z"/>
    </svg>
  </g>
  <!-- Icon 6: teeth-open -->
  <g transform="translate(496, 92)">
    <rect width="48" height="48" fill="#ffffff" stroke="#e9ecef" stroke-width="1" rx="4"/>
    <svg x="8" y="8" width="32" height="32" viewBox="0 0 512 512">
      <!--! Font Awesome Free 7.0.1 by @fontawesome - https://fontawesome.com License - https://fontawesome.com/license/free (Icons: CC BY 4.0, Fonts: SIL OFL 1.1, Code: MIT License) Copyright 2025 Fonticons, Inc. --><path fill="#2563eb" d="M64 32C28.7 32 0 60.7 0 96l0 80c0 35.3 28.7 64 64 64l384 0c35.3 0 64-28.7 64-64l0-80c0-35.3-28.7-64-64-64L64 32zm0 272c-35.3 0-64 28.7-64 64l0 48c0 35.3 28.7 64 64 64l384 0c35.3 0 64-28.7 64-64l0-48c0-35.3-28.7-64-64-64L64 304zm80-160c0-26.5 21.5-48 48-48s48 21.5 48 48l0 24c0 13.3-10.7 24-24 24l-48 0c-13.3 0-24-10.7-24-24l0-24zm128 0c0-26.5 21.5-48 48-48s48 21.5 48 48l0 24c0 13.3-10.7 24-24 24l-48 0c-13.3 0-24-10.7-24-24l0-24zM80 112c17.7 0 32 14.3 32 32l0 24c0 13.3-10.7 24-24 24l-16 0c-13.3 0-24-10.7-24-24l0-24c0-17.7 14.3-32 32-32zm320 32c0-17.7 14.3-32 32-32s32 14.3 32 32l0 24c0 13.3-10.7 24-24 24l-16 0c-13.3 0-24-10.7-24-24l0-24zM48 384l0-16c0-8.8 7.2-16 16-16l32 0c8.8 0 16 7.2 16 16l0 16c0 17.7-14.3 32-32 32s-32-14.3-32-32zm144 48c-26.5 0-48-21.5-48-48l0-16c0-8.8 7.2-16 16-16l64 0c8.8 0 16 7.2 16 16l0 16c0 26.5-21.5 48-48 48zm128 0c-26.5 0-48-21.5-48-48l0-16c0-8.8 7.2-16 16-16l64 0c8.8 0 16 7.2 16 16l0 16c0 26.5-21.5 48-48 48zm112-16c-17.7 0-32-14.3-32-32l0-16c0-8.8 7.2-16 16-16l32 0c8.8 0 16 7.2 16 16l0 16c0 17.7-14.3 32-32 32z"/>
    </svg>
  </g>
  <!-- Icon 7: store -->
  <g transform="translate(556, 92)">
    <rect width="48" height="48" fill="#ffffff" stroke="#e9ecef" stroke-width="1" rx="4"/>
    <svg x="8" y="8" width="32" height="32" viewBox="0 0 512 512">
      <!--! Font Awesome Free 7.0.1 by @fontawesome - https://fontawesome.com License - https://fontawesome.com/license/free (Icons: CC BY 4.0, Fonts: SIL OFL 1.1, Code: MIT License) Copyright 2025 Fonticons, Inc. --><path fill="#2563eb" d="M30.7 72.3C37.6 48.4 59.5 32 84.4 32l344 0c24.9 0 46.8 16.4 53.8 40.3l23.4 80.2c12.8 43.7-20.1 87.5-65.6 87.5-26.3 0-49.4-14.9-60.8-37.1-11.6 21.9-34.6 37.1-61.4 37.1-26.6 0-49.7-15-61.3-37-11.6 22-34.7 37-61.3 37-26.8 0-49.8-15.1-61.4-37.1-11.4 22.1-34.5 37.1-60.8 37.1-45.6 0-78.4-43.7-65.6-87.5L30.7 72.3zM96.4 352l320 0 0-66.4c7.6 1.6 15.5 2.4 23.5 2.4 14.3 0 28-2.6 40.5-7.2l0 151.2c0 26.5-21.5 48-48 48l-352 0c-26.5 0-48-21.5-48-48l0-151.2c12.5 4.6 26.1 7.2 40.5 7.2 8.1 0 15.9-.8 23.5-2.4l0 66.4z"/>
    </svg>
  </g>
  <!-- Icon 8: spoon -->
  <g transform="translate(196, 152)">
    <rect width="48" height="48" fill="#ffffff" stroke="#e9ecef" stroke-width="1" rx="4"/>
    <svg x="8" y="8" width="32" height="32" viewBox="0 0 512 512">
      <!--! Font Awesome Free 7.0.1 by @fontawesome - https://fontawesome.com License - https://fontawesome.com/license/free (Icons: CC BY 4.0, Fonts: SIL OFL 1.1, Code: MIT License) Copyright 2025 Fonticons, Inc. --><path fill="#2563eb" d="M245.8 220.9c-14.5-17.6-21.8-39.2-21.8-60.8 0-80.2 96-160.2 192-160.2 53 0 96 43 96 96 0 96-80 192-160.2 192-21.6 0-43.2-7.3-60.8-21.8L54.6 502.6c-12.5 12.5-32.8 12.5-45.3 0s-12.5-32.8 0-45.3L245.8 220.9z"/>
    </svg>
  </g>
  <!-- Icon 9: sitemap -->
  <g transform="translate(256, 152)">
    <rect width="48" height="48" fill="#ffffff" stroke="#e9ecef" stroke-width="1" rx="4"/>
    <svg x="8" y="8" width="32" height="32" viewBox="0 0 512 512">
      <!--! Font Awesome Free 7.0.1 by @fontawesome - https://fontawesome.com License - https://fontawesome.com/license/free (Icons: CC BY 4.0, Fonts: SIL OFL 1.1, Code: MIT License) Copyright 2025 Fonticons, Inc. --><path fill="#2563eb" d="M192 64c0-17.7 14.3-32 32-32l64 0c17.7 0 32 14.3 32 32l0 64c0 17.7-14.3 32-32 32l-8 0 0 64 120 0c39.8 0 72 32.2 72 72l0 56 8 0c17.7 0 32 14.3 32 32l0 64c0 17.7-14.3 32-32 32l-64 0c-17.7 0-32-14.3-32-32l0-64c0-17.7 14.3-32 32-32l8 0 0-56c0-13.3-10.7-24-24-24l-120 0 0 80 8 0c17.7 0 32 14.3 32 32l0 64c0 17.7-14.3 32-32 32l-64 0c-17.7 0-32-14.3-32-32l0-64c0-17.7 14.3-32 32-32l8 0 0-80-120 0c-13.3 0-24 10.7-24 24l0 56 8 0c17.7 0 32 14.3 32 32l0 64c0 17.7-14.3 32-32 32l-64 0c-17.7 0-32-14.3-32-32l0-64c0-17.7 14.3-32 32-32l8 0 0-56c0-39.8 32.2-72 72-72l120 0 0-64-8 0c-17.7 0-32-14.3-32-32l0-64z"/>
    </svg>
  </g>
  <!-- Icon 10: section -->
  <g transform="translate(316, 152)">
    <rect width="48" height="48" fill="#ffffff" stroke="#e9ecef" stroke-width="1" rx="4"/>
    <svg x="8" y="8" width="32" height="32" viewBox="0 0 256 512">
      <!--! Font Awesome Free 7.0.1 by @fontawesome - https://fontawesome.com License - https://fontawesome.com/license/free (Icons: CC BY 4.0, Fonts: SIL OFL 1.1, Code: MIT License) Copyright 2025 Fonticons, Inc. --><path fill="#2563eb" d="M110 0C49.2 0 0 49.2 0 110 0 133.7 7.6 155.8 20.5 174 7.6 192 0 214.1 0 238 0 291.7 38.9 337.6 91.9 346.4l61.7 10.3c22.2 3.7 38.4 22.9 38.4 45.3 0 25.4-20.6 46-46 46l-98 0c-17.7 0-32 14.3-32 32s14.3 32 32 32l98 0c60.7 0 110-49.2 110-110 0-23.7-7.6-45.9-20.5-64 12.9-18 20.5-40.1 20.5-64 0-53.8-38.9-99.6-91.9-108.5l-61.7-10.3C80.2 151.6 64 132.4 64 110 64 84.6 84.6 64 110 64l98 0c17.7 0 32-14.3 32-32S225.7 0 208 0L110 0zm74.7 299.1c-6.5-2.4-13.4-4.3-20.5-5.5l-61.7-10.3c-22.2-3.7-38.4-22.9-38.4-45.3 0-9.2 2.7-17.8 7.4-25 6.5 2.4 13.4 4.3 20.5 5.5l61.7 10.3c22.2 3.7 38.4 22.9 38.4 45.3 0 9.2-2.7 17.8-7.4 25z"/>
    </svg>
  </g>
  <!-- Icon 11: road -->
  <g transform="translate(376, 152)">
    <rect width="48" height="48" fill="#ffffff" stroke="#e9ecef" stroke-width="1" rx="4"/>
    <svg x="8" y="8" width="32" height="32" viewBox="0 0 512 512">
      <!--! Font Awesome Free 7.0.1 by @fontawesome - https://fontawesome.com License - https://fontawesome.com/license/free (Icons: CC BY 4.0, Fonts: SIL OFL 1.1, Code: MIT License) Copyright 2025 Fonticons, Inc. --><path fill="#2563eb" d="M223.9 32l-76.2 0c-29.4 0-55.1 20.1-62.1 48.6L1.4 420.5C-6.1 450.7 16.8 480 48 480l175.9 0 0-64c0-17.7 14.3-32 32-32s32 14.3 32 32l0 64 176.1 0c31.2 0 54.1-29.3 46.6-59.5L426.5 80.6C419.4 52.1 393.8 32 364.3 32l-76.4 0 0 64c0 17.7-14.3 32-32 32s-32-14.3-32-32l0-64zm64 192l0 64c0 17.7-14.3 32-32 32s-32-14.3-32-32l0-64c0-17.7 14.3-32 32-32s32 14.3 32 32z"/>
    </svg>
  </g>
  <!-- Icon 12: project-diagram -->
  <g transform="translate(436, 152)">
    <rect width="48" height="48" fill="#ffffff" stroke="#e9ecef" stroke-width="1" rx="4"/>
    <svg x="8" y="8" width="32" height="32" viewBox="0 0 512 512">
      <!--! Font Awesome Free 7.0.1 by @fontawesome - https://fontawesome.com License - https://fontawesome.com/license/free (Icons: CC BY 4.0, Fonts: SIL OFL 1.1, Code: MIT License) Copyright 2025 Fonticons, Inc. --><path fill="#2563eb" d="M0 80C0 53.5 21.5 32 48 32l96 0c26.5 0 48 21.5 48 48l0 16 128 0 0-16c0-26.5 21.5-48 48-48l96 0c26.5 0 48 21.5 48 48l0 96c0 26.5-21.5 48-48 48l-96 0c-26.5 0-48-21.5-48-48l0-16-128 0 0 16c0 7.3-1.7 14.3-4.6 20.5l68.6 91.5 80 0c26.5 0 48 21.5 48 48l0 96c0 26.5-21.5 48-48 48l-96 0c-26.5 0-48-21.5-48-48l0-96c0-7.3 1.7-14.3 4.6-20.5L128 224 48 224c-26.5 0-48-21.5-48-48L0 80z"/>
    </svg>
  </g>
  <!-- Icon 13: phone-flip -->
  <g transform="translate(496, 152)">
    <rect width="48" height="48" fill="#ffffff" stroke="#e9ecef" stroke-width="1" rx="4"/>
    <svg x="8" y="8" width="32" height="32" viewBox="0 0 512 512">
      <!--! Font Awesome Free 7.0.1 by @fontawesome - https://fontawesome.com License - https://fontawesome.com/license/free (Icons: CC BY 4.0, Fonts: SIL OFL 1.1, Code: MIT License) Copyright 2025 Fonticons, Inc. --><path fill="#2563eb" d="M351.8 25c7.8-18.8 28.4-28.9 48.1-23.5l5.5 1.5c64.6 17.6 119.8 80.2 103.7 156.4-37.1 175-174.8 312.7-349.8 349.8-76.3 16.2-138.8-39.1-156.4-103.7l-1.5-5.5c-5.4-19.7 4.7-40.3 23.5-48.1l97.3-40.5c16.5-6.9 35.6-2.1 47 11.8l38.6 47.2c70.3-34.9 126.8-93.3 159.3-164.9l-44.1-36.1c-13.9-11.3-18.6-30.4-11.8-47L351.8 25z"/>
    </svg>
  </g>
  <!-- Icon 14: people-line -->
  <g transform="translate(556, 152)">
    <rect width="48" height="48" fill="#ffffff" stroke="#e9ecef" stroke-width="1" rx="4"/>
    <svg x="8" y="8" width="32" height="32" viewBox="0 0 576 512">
      <!--! Font Awesome Free 7.0.1 by @fontawesome - https://fontawesome.com License - https://fontawesome.com/license/free (Icons: CC BY 4.0, Fonts: SIL OFL 1.1, Code: MIT License) Copyright 2025 Fonticons, Inc. --><path fill="#2563eb" d="M288 0a64 64 0 1 1 0 128 64 64 0 1 1 0-128zm96 312c0 25-12.7 47-32 59.9l0 44.1-128 0 0-44.1C204.7 359 192 337 192 312l0-40c0-53 43-96 96-96s96 43 96 96l0 40zm16 104l0-27.3c19.9-22.5 32-52.2 32-84.7l0-32c0-26.7-7.3-51.6-19.9-73.1 11.1-4.5 23.2-6.9 35.9-6.9 53 0 96 43 96 96l0 32c0 23.7-12.9 44.4-32 55.4l0 40.6-112 0zM64 375.4C44.9 364.4 32 343.7 32 320l0-32c0-53 43-96 96-96 12.7 0 24.8 2.5 35.9 6.9-12.6 21.4-19.9 46.4-19.9 73.1l0 32c0 32.5 12.1 62.1 32 84.7l0 27.3-112 0 0-40.6zM128 32a56 56 0 1 1 0 112 56 56 0 1 1 0-112zm320 0a56 56 0 1 1 0 112 56 56 0 1 1 0-112zM24 464l528 0c13.3 0 24 10.7 24 24s-10.7 24-24 24L24 512c-13.3 0-24-10.7-24-24s10.7-24 24-24z"/>
    </svg>
  </g>
  <!-- Icon 15: navicon -->
  <g transform="translate(196, 212)">
    <rect width="48" height="48" fill="#ffffff" stroke="#e9ecef" stroke-width="1" rx="4"/>
    <svg x="8" y="8" width="32" height="32" viewBox="0 0 448 512">
      <!--! Font Awesome Free 7.0.1 by @fontawesome - https://fontawesome.com License - https://fontawesome.com/license/free (Icons: CC BY 4.0, Fonts: SIL OFL 1.1, Code: MIT License) Copyright 2025 Fonticons, Inc. --><path fill="#2563eb" d="M0 96C0 78.3 14.3 64 32 64l384 0c17.7 0 32 14.3 32 32s-14.3 32-32 32L32 128C14.3 128 0 113.7 0 96zM0 256c0-17.7 14.3-32 32-32l384 0c17.7 0 32 14.3 32 32s-14.3 32-32 32L32 288c-17.7 0-32-14.3-32-32zM448 416c0 17.7-14.3 32-32 32L32 448c-17.7 0-32-14.3-32-32s14.3-32 32-32l384 0c17.7 0 32 14.3 32 32z"/>
    </svg>
  </g>
  <!-- Icon 16: microphone-alt -->
  <g transform="translate(256, 212)">
    <rect width="48" height="48" fill="#ffffff" stroke="#e9ecef" stroke-width="1" rx="4"/>
    <svg x="8" y="8" width="32" height="32" viewBox="0 0 384 512">
      <!--! Font Awesome Free 7.0.1 by @fontawesome - https://fontawesome.com License - https://fontawesome.com/license/free (Icons: CC BY 4.0, Fonts: SIL OFL 1.1, Code: MIT License) Copyright 2025 Fonticons, Inc. --><path fill="#2563eb" d="M96 96c0-53 43-96 96-96 50.3 0 91.6 38.7 95.7 88L232 88c-13.3 0-24 10.7-24 24s10.7 24 24 24l56 0 0 48-56 0c-13.3 0-24 10.7-24 24s10.7 24 24 24l55.7 0c-4.1 49.3-45.3 88-95.7 88-53 0-96-43-96-96L96 96zM24 160c13.3 0 24 10.7 24 24l0 40c0 79.5 64.5 144 144 144s144-64.5 144-144l0-40c0-13.3 10.7-24 24-24s24 10.7 24 24l0 40c0 97.9-73.3 178.7-168 190.5l0 49.5 48 0c13.3 0 24 10.7 24 24s-10.7 24-24 24l-144 0c-13.3 0-24-10.7-24-24s10.7-24 24-24l48 0 0-49.5C73.3 402.7 0 321.9 0 224l0-40c0-13.3 10.7-24 24-24z"/>
    </svg>
  </g>
  <!-- Icon 17: magic-wand-sparkles -->
  <g transform="translate(316, 212)">
    <rect width="48" height="48" fill="#ffffff" stroke="#e9ecef" stroke-width="1" rx="4"/>
    <svg x="8" y="8" width="32" height="32" viewBox="0 0 576 512">
      <!--! Font Awesome Free 7.0.1 by @fontawesome - https://fontawesome.com License - https://fontawesome.com/license/free (Icons: CC BY 4.0, Fonts: SIL OFL 1.1, Code: MIT License) Copyright 2025 Fonticons, Inc. --><path fill="#2563eb" d="M263.4-27L278.2 9.8 315 24.6c3 1.2 5 4.2 5 7.4s-2 6.2-5 7.4L278.2 54.2 263.4 91c-1.2 3-4.2 5-7.4 5s-6.2-2-7.4-5L233.8 54.2 197 39.4c-3-1.2-5-4.2-5-7.4s2-6.2 5-7.4L233.8 9.8 248.6-27c1.2-3 4.2-5 7.4-5s6.2 2 7.4 5zM110.7 41.7l21.5 50.1 50.1 21.5c5.9 2.5 9.7 8.3 9.7 14.7s-3.8 12.2-9.7 14.7l-50.1 21.5-21.5 50.1c-2.5 5.9-8.3 9.7-14.7 9.7s-12.2-3.8-14.7-9.7L59.8 164.2 9.7 142.7C3.8 140.2 0 134.4 0 128s3.8-12.2 9.7-14.7L59.8 91.8 81.3 41.7C83.8 35.8 89.6 32 96 32s12.2 3.8 14.7 9.7zM464 304c6.4 0 12.2 3.8 14.7 9.7l21.5 50.1 50.1 21.5c5.9 2.5 9.7 8.3 9.7 14.7s-3.8 12.2-9.7 14.7l-50.1 21.5-21.5 50.1c-2.5 5.9-8.3 9.7-14.7 9.7s-12.2-3.8-14.7-9.7l-21.5-50.1-50.1-21.5c-5.9-2.5-9.7-8.3-9.7-14.7s3.8-12.2 9.7-14.7l50.1-21.5 21.5-50.1c2.5-5.9 8.3-9.7 14.7-9.7zM460 0c11 0 21.6 4.4 29.5 12.2l42.3 42.3C539.6 62.4 544 73 544 84s-4.4 21.6-12.2 29.5l-88.2 88.2-101.3-101.3 88.2-88.2C438.4 4.4 449 0 460 0zM44.2 398.5L308.4 134.3 409.7 235.6 145.5 499.8C137.6 507.6 127 512 116 512s-21.6-4.4-29.5-12.2L44.2 457.5C36.4 449.6 32 439 32 428s4.4-21.6 12.2-29.5z"/>
    </svg>
  </g>
  <!-- Icon 18: lari-sign -->
  <g transform="translate(376, 212)">
    <rect width="48" height="48" fill="#ffffff" stroke="#e9ecef" stroke-width="1" rx="4"/>
    <svg x="8" y="8" width="32" height="32" viewBox="0 0 384 512">
      <!--! Font Awesome Free 7.0.1 by @fontawesome - https://fontawesome.com License - https://fontawesome.com/license/free (Icons: CC BY 4.0, Fonts: SIL OFL 1.1, Code: MIT License) Copyright 2025 Fonticons, Inc. --><path fill="#2563eb" d="M144 0c13.3 0 24 10.7 24 24l0 41.5c7.9-1 15.9-1.5 24-1.5s16.1 .5 24 1.5L216 24c0-13.3 10.7-24 24-24s24 10.7 24 24l0 54c58.9 23.8 103.2 76 116.2 139.7 3.5 17.3-7.7 34.2-25 37.7s-34.2-7.7-37.7-25c-6.7-33.2-26.4-61.8-53.4-80.2l0 81.8c0 13.3-10.7 24-24 24s-24-10.7-24-24l0-101.8c-7.8-1.5-15.8-2.2-24-2.2s-16.2 .8-24 2.2L168 232c0 13.3-10.7 24-24 24s-24-10.7-24-24l0-81.8c-33.8 23-56 61.9-56 105.8 0 70.7 57.3 128 128 128l160 0c17.7 0 32 14.3 32 32s-14.3 32-32 32L32 448c-17.7 0-32-14.3-32-32s14.3-32 32-32l16.9 0C18.5 350 0 305.2 0 256 0 175.4 49.6 106.4 120 78l0-54c0-13.3 10.7-24 24-24z"/>
    </svg>
  </g>
  <!-- Icon 19: id-badge -->
  <g transform="translate(436, 212)">
    <rect width="48" height="48" fill="#ffffff" stroke="#e9ecef" stroke-width="1" rx="4"/>
    <svg x="8" y="8" width="32" height="32" viewBox="0 0 384 512">
      <!--! Font Awesome Free 7.0.1 by @fontawesome - https://fontawesome.com License - https://fontawesome.com/license/free (Icons: CC BY 4.0, Fonts: SIL OFL 1.1, Code: MIT License) Copyright 2025 Fonticons, Inc. --><path fill="#2563eb" d="M64 0C28.7 0 0 28.7 0 64L0 448c0 35.3 28.7 64 64 64l256 0c35.3 0 64-28.7 64-64l0-384c0-35.3-28.7-64-64-64L64 0zm96 352l64 0c44.2 0 80 35.8 80 80 0 8.8-7.2 16-16 16L96 448c-8.8 0-16-7.2-16-16 0-44.2 35.8-80 80-80zm-24-96a56 56 0 1 1 112 0 56 56 0 1 1 -112 0zM152 64l80 0c13.3 0 24 10.7 24 24s-10.7 24-24 24l-80 0c-13.3 0-24-10.7-24-24s10.7-24 24-24z"/>
    </svg>
  </g>
  <!-- Icon 20: home-lg-alt -->
  <g transform="translate(496, 212)">
    <rect width="48" height="48" fill="#ffffff" stroke="#e9ecef" stroke-width="1" rx="4"/>
    <svg x="8" y="8" width="32" height="32" viewBox="0 0 512 512">
      <!--! Font Awesome Free 7.0.1 by @fontawesome - https://fontawesome.com License - https://fontawesome.com/license/free (Icons: CC BY 4.0, Fonts: SIL OFL 1.1, Code: MIT License) Copyright 2025 Fonticons, Inc. --><path fill="#2563eb" d="M277.8 8.6c-12.3-11.4-31.3-11.4-43.5 0l-224 208c-9.6 9-12.8 22.9-8 35.1S18.8 272 32 272l16 0 0 176c0 35.3 28.7 64 64 64l288 0c35.3 0 64-28.7 64-64l0-176 16 0c13.2 0 25-8.1 29.8-20.3s1.6-26.2-8-35.1l-224-208zM240 320l32 0c26.5 0 48 21.5 48 48l0 96-128 0 0-96c0-26.5 21.5-48 48-48z"/>
    </svg>
  </g>
  <!-- Icon 21: handshake-alt -->
  <g transform="translate(556, 212)">
    <rect width="48" height="48" fill="#ffffff" stroke="#e9ecef" stroke-width="1" rx="4"/>
    <svg x="8" y="8" width="32" height="32" viewBox="0 0 576 512">
      <!--! Font Awesome Free 7.0.1 by @fontawesome - https://fontawesome.com License - https://fontawesome.com/license/free (Icons: CC BY 4.0, Fonts: SIL OFL 1.1, Code: MIT License) Copyright 2025 Fonticons, Inc. --><path fill="#2563eb" d="M268.9 85.2L152.3 214.8c-4.6 5.1-4.4 13 .5 17.9 30.5 30.5 80 30.5 110.5 0l31.8-31.8c4.2-4.2 9.5-6.5 14.9-6.9 6.8-.6 13.8 1.7 19 6.9L505.6 376 576 320 576 32 464 96 440.2 80.1C424.4 69.6 405.9 64 386.9 64l-70.4 0c-1.1 0-2.3 0-3.4 .1-16.9 .9-32.8 8.5-44.2 21.1zM116.6 182.7L223.4 64 183.8 64c-25.5 0-49.9 10.1-67.9 28.1L112 96 0 32 0 320 156.4 450.3c23 19.2 52 29.7 81.9 29.7l15.7 0-7-7c-9.4-9.4-9.4-24.6 0-33.9s24.6-9.4 33.9 0l41 41 9 0c19.1 0 37.8-4.3 54.8-12.3L359 441c-9.4-9.4-9.4-24.6 0-33.9s24.6-9.4 33.9 0l32 32 17.5-17.5c8.9-8.9 11.5-21.8 7.6-33.1l-137.9-136.8-14.9 14.9c-49.3 49.3-129.1 49.3-178.4 0-23-23-23.9-59.9-2.2-84z"/>
    </svg>
  </g>
  <!-- Icon 22: grin-tongue -->
  <g transform="translate(196, 272)">
    <rect width="48" height="48" fill="#ffffff" stroke="#e9ecef" stroke-width="1" rx="4"/>
    <svg x="8" y="8" width="32" height="32" viewBox="0 0 512 512">
      <!--! Font Awesome Free 7.0.1 by @fontawesome - https://fontawesome.com License - https://fontawesome.com/license/free (Icons: CC BY 4.0, Fonts: SIL OFL 1.1, Code: MIT License) Copyright 2025 Fonticons, Inc. --><path fill="#2563eb" d="M0 256c0 104.4 62.5 194.2 152.2 234.1-5.3-13-8.2-27.2-8.2-42.1l0-61.7c-16.9-16.5-30.1-36.7-38.3-59.3-4.3-11.8 7.7-21.8 19.6-18.1 39.2 12.2 83.7 19.1 130.7 19.1s91.5-6.9 130.7-19.1c11.9-3.7 23.9 6.3 19.6 18.1-8.3 22.6-21.5 42.8-38.3 59.3l0 61.7c0 14.9-2.9 29.1-8.2 42.1 89.7-39.8 152.2-129.6 152.2-234.1 0-141.4-114.6-256-256-256S0 114.6 0 256zm176-80a32 32 0 1 1 0 64 32 32 0 1 1 0-64zm128 32a32 32 0 1 1 64 0 32 32 0 1 1 -64 0zm16 240l0-45.4c0-14.7-11.9-26.6-26.6-26.6l-2 0c-11.3 0-21.1 7.9-23.6 18.9-2.8 12.6-20.8 12.6-23.6 0-2.5-11.1-12.3-18.9-23.6-18.9l-2 0c-14.7 0-26.6 11.9-26.6 26.6l0 45.4c0 35.3 28.7 64 64 64s64-28.7 64-64z"/>
    </svg>
  </g>
  <!-- Icon 23: frog -->
  <g transform="translate(256, 272)">
    <rect width="48" height="48" fill="#ffffff" stroke="#e9ecef" stroke-width="1" rx="4"/>
    <svg x="8" y="8" width="32" height="32" viewBox="0 0 576 512">
      <!--! Font Awesome Free 7.0.1 by @fontawesome - https://fontawesome.com License - https://fontawesome.com/license/free (Icons: CC BY 4.0, Fonts: SIL OFL 1.1, Code: MIT License) Copyright 2025 Fonticons, Inc. --><path fill="#2563eb" d="M368 32c41.7 0 75.9 31.8 79.7 72.5l85.6 26.3c25.4 7.8 42.8 31.3 42.8 57.9 0 21.8-11.7 41.9-30.7 52.7l-144.5 82.1 92.5 92.5 50.7 0c17.7 0 32 14.3 32 32s-14.3 32-32 32l-64 0c-8.5 0-16.6-3.4-22.6-9.4L346.9 360.2c11.7-36 3.2-77.1-25.4-105.7-40.6-40.6-106.3-40.6-146.9-.1L101 324.4c-6.4 6.1-6.7 16.2-.6 22.6s16.2 6.6 22.6 .6l73.8-70.2 .1-.1 .1-.1c3.5-3.5 7.3-6.6 11.3-9.2 27.9-18.5 65.9-15.4 90.5 9.2 24.7 24.7 27.7 62.9 9 90.9-2.6 3.8-5.6 7.5-9 10.9L261.8 416 352 416c17.7 0 32 14.3 32 32s-14.3 32-32 32L64 480C28.7 480 0 451.3 0 416 0 249.6 127 112.9 289.3 97.5 296.2 60.2 328.8 32 368 32zm0 104a24 24 0 1 0 0-48 24 24 0 1 0 0 48z"/>
    </svg>
  </g>
  <!-- Icon 24: file-pen -->
  <g transform="translate(316, 272)">
    <rect width="48" height="48" fill="#ffffff" stroke="#e9ecef" stroke-width="1" rx="4"/>
    <svg x="8" y="8" width="32" height="32" viewBox="0 0 640 512">
      <!--! Font Awesome Free 7.0.1 by @fontawesome - https://fontawesome.com License - https://fontawesome.com/license/free (Icons: CC BY 4.0, Fonts: SIL OFL 1.1, Code: MIT License) Copyright 2025 Fonticons, Inc. --><path fill="#2563eb" d="M128.1 0c-35.3 0-64 28.7-64 64l0 384c0 35.3 28.7 64 64 64l146.2 0 10.9-54.5c4.3-21.7 15-41.6 30.6-57.2l132.2-132.2 0-97.5c0-17-6.7-33.3-18.7-45.3L322.8 18.7C310.8 6.7 294.5 0 277.6 0L128.1 0zM389.6 176l-93.5 0c-13.3 0-24-10.7-24-24l0-93.5 117.5 117.5zM332.3 466.9l-11.9 59.6c-.2 .9-.3 1.9-.3 2.9 0 8 6.5 14.6 14.6 14.6 1 0 1.9-.1 2.9-.3l59.6-11.9c12.4-2.5 23.8-8.6 32.7-17.5l118.9-118.9-80-80-118.9 118.9c-8.9 8.9-15 20.3-17.5 32.7zm267.8-123c22.1-22.1 22.1-57.9 0-80s-57.9-22.1-80 0l-28.8 28.8 80 80 28.8-28.8z"/>
    </svg>
  </g>
  <!-- Icon 25: face-laugh-beam -->
  <g transform="translate(376, 272)">
    <rect width="48" height="48" fill="#ffffff" stroke="#e9ecef" stroke-width="1" rx="4"/>
    <svg x="8" y="8" width="32" height="32" viewBox="0 0 512 512">
      <!--! Font Awesome Free 7.0.1 by @fontawesome - https://fontawesome.com License - https://fontawesome.com/license/free (Icons: CC BY 4.0, Fonts: SIL OFL 1.1, Code: MIT License) Copyright 2025 Fonticons, Inc. --><path fill="#2563eb" d="M256 512a256 256 0 1 0 0-512 256 256 0 1 0 0 512zM101.6 314c-3.7-13.7 7.5-26 21.7-26l265.4 0c14.2 0 25.4 12.3 21.7 26-18.5 68-80.6 118-154.4 118S120 382 101.6 314zM176 164c-15.5 0-28 12.5-28 28l0 8c0 11-9 20-20 20s-20-9-20-20l0-8c0-37.6 30.4-68 68-68s68 30.4 68 68l0 8c0 11-9 20-20 20s-20-9-20-20l0-8c0-15.5-12.5-28-28-28zm132 28l0 8c0 11-9 20-20 20s-20-9-20-20l0-8c0-37.6 30.4-68 68-68s68 30.4 68 68l0 8c0 11-9 20-20 20s-20-9-20-20l0-8c0-15.5-12.5-28-28-28s-28 12.5-28 28z"/>
    </svg>
  </g>
  <!-- Icon 26: ellipsis-vertical -->
  <g transform="translate(436, 272)">
    <rect width="48" height="48" fill="#ffffff" stroke="#e9ecef" stroke-width="1" rx="4"/>
    <svg x="8" y="8" width="32" height="32" viewBox="0 0 128 512">
      <!--! Font Awesome Free 7.0.1 by @fontawesome - https://fontawesome.com License - https://fontawesome.com/license/free (Icons: CC BY 4.0, Fonts: SIL OFL 1.1, Code: MIT License) Copyright 2025 Fonticons, Inc. --><path fill="#2563eb" d="M64 144a56 56 0 1 1 0-112 56 56 0 1 1 0 112zm0 224c30.9 0 56 25.1 56 56s-25.1 56-56 56-56-25.1-56-56 25.1-56 56-56zm56-112c0 30.9-25.1 56-56 56s-56-25.1-56-56 25.1-56 56-56 56 25.1 56 56z"/>
    </svg>
  </g>
  <!-- Icon 27: dice-six -->
  <g transform="translate(496, 272)">
    <rect width="48" height="48" fill="#ffffff" stroke="#e9ecef" stroke-width="1" rx="4"/>
    <svg x="8" y="8" width="32" height="32" viewBox="0 0 448 512">
      <!--! Font Awesome Free 7.0.1 by @fontawesome - https://fontawesome.com License - https://fontawesome.com/license/free (Icons: CC BY 4.0, Fonts: SIL OFL 1.1, Code: MIT License) Copyright 2025 Fonticons, Inc. --><path fill="#2563eb" d="M0 96C0 60.7 28.7 32 64 32l320 0c35.3 0 64 28.7 64 64l0 320c0 35.3-28.7 64-64 64L64 480c-35.3 0-64-28.7-64-64L0 96zm160 64a32 32 0 1 0 -64 0 32 32 0 1 0 64 0zM128 288a32 32 0 1 0 0-64 32 32 0 1 0 0 64zm32 64a32 32 0 1 0 -64 0 32 32 0 1 0 64 0zM320 192a32 32 0 1 0 0-64 32 32 0 1 0 0 64zm32 64a32 32 0 1 0 -64 0 32 32 0 1 0 64 0zM320 384a32 32 0 1 0 0-64 32 32 0 1 0 0 64z"/>
    </svg>
  </g>
  <!-- Icon 28: compact-disc -->
  <g transform="translate(556, 272)">
    <rect width="48" height="48" fill="#ffffff" stroke="#e9ecef" stroke-width="1" rx="4"/>
    <svg x="8" y="8" width="32" height="32" viewBox="0 0 512 512">
      <!--! Font Awesome Free 7.0.1 by @fontawesome - https://fontawesome.com License - https://fontawesome.com/license/free (Icons: CC BY 4.0, Fonts: SIL OFL 1.1, Code: MIT License) Copyright 2025 Fonticons, Inc. --><path fill="#2563eb" d="M0 256a256 256 0 1 1 512 0 256 256 0 1 1 -512 0zm256 32a32 32 0 1 1 0-64 32 32 0 1 1 0 64zm-96-32a96 96 0 1 0 192 0 96 96 0 1 0 -192 0zm-56-16c0-32.4 16.3-66.6 42.8-93.2S207.6 104 240 104c13.3 0 24-10.7 24-24s-10.7-24-24-24c-47.9 0-93.7 23.5-127.1 56.9S56 192.1 56 240c0 13.3 10.7 24 24 24s24-10.7 24-24z"/>
    </svg>
  </g>
  <!-- Icon 29: clapperboard -->
  <g transform="translate(196, 332)">
    <rect width="48" height="48" fill="#ffffff" stroke="#e9ecef" stroke-width="1" rx="4"/>
    <svg x="8" y="8" width="32" height="32" viewBox="0 0 512 512">
      <!--! Font Awesome Free 7.0.1 by @fontawesome - https://fontawesome.com License - https://fontawesome.com/license/free (Icons: CC BY 4.0, Fonts: SIL OFL 1.1, Code: MIT License) Copyright 2025 Fonticons, Inc. --><path fill="#2563eb" d="M448 64c2 0 3.9 .1 5.8 .3l-95.7 95.7 67.9 0 72-72c8.8 11 14 24.9 14 40l0 256c0 35.3-28.7 64-64 64L64 448c-35.3 0-64-28.7-64-64L0 128C0 92.7 28.7 64 64 64l70.1 0-96 96 67.9 0 95-95 1-1 92.1 0-96 96 67.9 0 95-95 1-1 86.1 0z"/>
    </svg>
  </g>
  <!-- Icon 30: cheese -->
  <g transform="translate(256, 332)">
    <rect width="48" height="48" fill="#ffffff" stroke="#e9ecef" stroke-width="1" rx="4"/>
    <svg x="8" y="8" width="32" height="32" viewBox="0 0 512 512">
      <!--! Font Awesome Free 7.0.1 by @fontawesome - https://fontawesome.com License - https://fontawesome.com/license/free (Icons: CC BY 4.0, Fonts: SIL OFL 1.1, Code: MIT License) Copyright 2025 Fonticons, Inc. --><path fill="#2563eb" d="M512 240.2l0 15.8-512 0c0-20 10-38.7 26.6-49.8L274.9 40.7c8.6-5.7 18.6-8.7 28.9-8.7 115 0 208.2 93.2 208.2 208.2zm0 63.8l0 112c0 35.3-28.7 64-64 64L64 480c-35.3 0-64-28.7-64-64l0-112 512 0z"/>
    </svg>
  </g>
  <!-- Icon 31: cancel -->
  <g transform="translate(316, 332)">
    <rect width="48" height="48" fill="#ffffff" stroke="#e9ecef" stroke-width="1" rx="4"/>
    <svg x="8" y="8" width="32" height="32" viewBox="0 0 512 512">
      <!--! Font Awesome Free 7.0.1 by @fontawesome - https://fontawesome.com License - https://fontawesome.com/license/free (Icons: CC BY 4.0, Fonts: SIL OFL 1.1, Code: MIT License) Copyright 2025 Fonticons, Inc. --><path fill="#2563eb" d="M367.2 412.5L99.5 144.8c-22.4 31.4-35.5 69.8-35.5 111.2 0 106 86 192 192 192 41.5 0 79.9-13.1 111.2-35.5zm45.3-45.3c22.4-31.4 35.5-69.8 35.5-111.2 0-106-86-192-192-192-41.5 0-79.9 13.1-111.2 35.5L412.5 367.2zM0 256a256 256 0 1 1 512 0 256 256 0 1 1 -512 0z"/>
    </svg>
  </g>
  <!-- Icon 32: bridge -->
  <g transform="translate(376, 332)">
    <rect width="48" height="48" fill="#ffffff" stroke="#e9ecef" stroke-width="1" rx="4"/>
    <svg x="8" y="8" width="32" height="32" viewBox="0 0 512 512">
      <!--! Font Awesome Free 7.0.1 by @fontawesome - https://fontawesome.com License - https://fontawesome.com/license/free (Icons: CC BY 4.0, Fonts: SIL OFL 1.1, Code: MIT License) Copyright 2025 Fonticons, Inc. --><path fill="#2563eb" d="M32 32C14.3 32 0 46.3 0 64S14.3 96 32 96l8 0 0 64-40 0 0 112c37.6 9.4 64 43.2 64 82l0 94c0 17.7 14.3 32 32 32l32 0c17.7 0 32-14.3 32-32l0-64c0-53 43-96 96-96s96 43 96 96l0 64c0 17.7 14.3 32 32 32l32 0c17.7 0 32-14.3 32-32l0-94c0-38.8 26.4-72.6 64-82l0-112-40 0 0-64 8 0c17.7 0 32-14.3 32-32s-14.3-32-32-32L32 32zM424 96l0 64-80 0 0-64 80 0zM296 96l0 64-80 0 0-64 80 0zM88 96l80 0 0 64-80 0 0-64z"/>
    </svg>
  </g>
  <!-- Icon 33: binoculars -->
  <g transform="translate(436, 332)">
    <rect width="48" height="48" fill="#ffffff" stroke="#e9ecef" stroke-width="1" rx="4"/>
    <svg x="8" y="8" width="32" height="32" viewBox="0 0 512 512">
      <!--! Font Awesome Free 7.0.1 by @fontawesome - https://fontawesome.com License - https://fontawesome.com/license/free (Icons: CC BY 4.0, Fonts: SIL OFL 1.1, Code: MIT License) Copyright 2025 Fonticons, Inc. --><path fill="#2563eb" d="M128 32l32 0c17.7 0 32 14.3 32 32l0 32-96 0 0-32c0-17.7 14.3-32 32-32zm64 96l0 320c0 17.7-14.3 32-32 32L32 480c-17.7 0-32-14.3-32-32l0-59.1c0-34.6 9.4-68.6 27.2-98.3 13.7-22.8 22.5-48.2 25.8-74.6L60.5 156c2-16 15.6-28 31.8-28l99.8 0zm227.8 0c16.1 0 29.8 12 31.8 28L459 216c3.3 26.4 12.1 51.8 25.8 74.6 17.8 29.7 27.2 63.7 27.2 98.3l0 59.1c0 17.7-14.3 32-32 32l-128 0c-17.7 0-32-14.3-32-32l0-320 99.8 0zM320 64c0-17.7 14.3-32 32-32l32 0c17.7 0 32 14.3 32 32l0 32-96 0 0-32zm-32 64l0 160-64 0 0-160 64 0z"/>
    </svg>
  </g>
  <!-- Icon 34: baby -->
  <g transform="translate(496, 332)">
    <rect width="48" height="48" fill="#ffffff" stroke="#e9ecef" stroke-width="1" rx="4"/>
    <svg x="8" y="8" width="32" height="32" viewBox="0 0 384 512">
      <!--! Font Awesome Free 7.0.1 by @fontawesome - https://fontawesome.com License - https://fontawesome.com/license/free (Icons: CC BY 4.0, Fonts: SIL OFL 1.1, Code: MIT License) Copyright 2025 Fonticons, Inc. --><path fill="#2563eb" d="M120 88a72 72 0 1 1 144 0 72 72 0 1 1 -144 0zM7.7 144.5c13-17.9 38-21.8 55.9-8.8L99.8 162c26.8 19.5 59.1 30 92.2 30s65.4-10.5 92.2-30l36.2-26.4c17.9-13 42.9-9 55.9 8.8s9 42.9-8.8 55.9l-36.2 26.4c-13.6 9.9-28.1 18.2-43.3 25l0 36.3-192 0 0-36.3c-15.2-6.7-29.7-15.1-43.3-25L16.5 200.3c-17.9-13-21.8-38-8.8-55.9zM97.5 329.3l60.6 53-26 37.2 24.3 24.3c15.6 15.6 15.6 40.9 0 56.6s-40.9 15.6-56.6 0l-48-48C38 438.6 36.1 417 47.2 401.1l50.2-71.8zm128.5 53l60.6-53 50.2 71.8c11.1 15.9 9.2 37.5-4.5 51.2l-48 48c-15.6 15.6-40.9 15.6-56.6 0s-15.6-40.9 0-56.6l24.3-24.3-26-37.2z"/>
    </svg>
  </g>
  <!-- Icon 35: arrow-right -->
  <g transform="translate(556, 332)">
    <rect width="48" height="48" fill="#ffffff" stroke="#e9ecef" stroke-width="1" rx="4"/>
    <svg x="8" y="8" width="32" height="32" viewBox="0 0 512 512">
      <!--! Font Awesome Free 7.0.1 by @fontawesome - https://fontawesome.com License - https://fontawesome.com/license/free (Icons: CC BY 4.0, Fonts: SIL OFL 1.1, Code: MIT License) Copyright 2025 Fonticons, Inc. --><path fill="#2563eb" d="M502.6 278.6c12.5-12.5 12.5-32.8 0-45.3l-160-160c-12.5-12.5-32.8-12.5-45.3 0s-12.5 32.8 0 45.3L402.7 224 32 224c-17.7 0-32 14.3-32 32s14.3 32 32 32l370.7 0-105.4 105.4c-12.5 12.5-12.5 32.8 0 45.3s32.8 12.5 45.3 0l160-160z"/>
    </svg>
  </g>
  
  <!-- Footer -->
  <text x="400" y="580" text-anchor="middle" font-family="system-ui, -apple-system, sans-serif" font-size="12" fill="#6c757d">
    Showing 35 of 1984 icons
  </text>
  
</svg>