<svg width="800" height="600" xmlns="http://www.w3.org/2000/svg">
  <!-- Background -->
  <rect width="800" height="600" fill="#ffffff"/>
  
  <!-- Header Background -->
  <rect width="800" height="80" fill="#f8f9fa"/>
  
  <!-- Title -->
  <text x="400" y="30" text-anchor="middle" font-family="system-ui, -apple-system, sans-serif" font-size="20" font-weight="bold" fill="#212529">Heroicons - 20-solid</text>
  
  <!-- Subtitle -->
  <text x="400" y="55" text-anchor="middle" font-family="system-ui, -apple-system, sans-serif" font-size="14" fill="#6c757d">648 icons</text>
  
  <!-- Icon Grid -->
  <!-- Icon 1: x-mark -->
  <g transform="translate(12, 92)">
    <rect width="48" height="48" fill="#ffffff" stroke="#e9ecef" stroke-width="1" rx="4"/>
    <svg x="8" y="8" width="32" height="32" viewBox="0 0 20 20">
      
<path d="M6.28033 5.21967C5.98744 4.92678 5.51256 4.92678 5.21967 5.21967C4.92678 5.51256 4.92678 5.98744 5.21967 6.28033L8.93934 10L5.21967 13.7197C4.92678 14.0126 4.92678 14.4874 5.21967 14.7803C5.51256 15.0732 5.98744 15.0732 6.28033 14.7803L10 11.0607L13.7197 14.7803C14.0126 15.0732 14.4874 15.0732 14.7803 14.7803C15.0732 14.4874 15.0732 14.0126 14.7803 13.7197L11.0607 10L14.7803 6.28033C15.0732 5.98744 15.0732 5.51256 14.7803 5.21967C14.4874 4.92678 14.0126 4.92678 13.7197 5.21967L10 8.93934L6.28033 5.21967Z" fill="#2563eb"/>

    </svg>
  </g>
  <!-- Icon 2: underline -->
  <g transform="translate(72, 92)">
    <rect width="48" height="48" fill="#ffffff" stroke="#e9ecef" stroke-width="1" rx="4"/>
    <svg x="8" y="8" width="32" height="32" viewBox="0 0 20 20">
      
<path fill-rule="evenodd" clip-rule="evenodd" d="M4.75 2C5.16421 2 5.5 2.33579 5.5 2.75V9C5.5 11.4853 7.51472 13.5 10 13.5C12.4853 13.5 14.5 11.4853 14.5 9V2.75C14.5 2.33579 14.8358 2 15.25 2C15.6642 2 16 2.33579 16 2.75V9C16 12.3137 13.3137 15 10 15C6.68629 15 4 12.3137 4 9V2.75C4 2.33579 4.33579 2 4.75 2ZM2 17.25C2 16.8358 2.33579 16.5 2.75 16.5H17.25C17.6642 16.5 18 16.8358 18 17.25C18 17.6642 17.6642 18 17.25 18H2.75C2.33579 18 2 17.6642 2 17.25Z" fill="#2563eb"/>

    </svg>
  </g>
  <!-- Icon 3: speaker-x-mark -->
  <g transform="translate(132, 92)">
    <rect width="48" height="48" fill="#ffffff" stroke="#e9ecef" stroke-width="1" rx="4"/>
    <svg x="8" y="8" width="32" height="32" viewBox="0 0 20 20">
      
<path d="M10.0475 3.06153C10.3221 3.18021 10.5 3.4508 10.5 3.75002V16.25C10.5 16.5492 10.3221 16.8198 10.0475 16.9385C9.7728 17.0572 9.45387 17.0012 9.23598 16.7962L5.20257 13H2.66724C2.35725 13 2.0792 12.8093 1.96756 12.5201C1.66534 11.7372 1.5 10.887 1.5 10C1.5 9.11302 1.66534 8.26287 1.96756 7.47993C2.0792 7.19074 2.35725 7.00002 2.66724 7.00002H5.20257L9.23598 3.20387C9.45387 2.99879 9.7728 2.94286 10.0475 3.06153Z" fill="#2563eb"/>
<path d="M13.7803 7.2197C13.4874 6.92681 13.0126 6.92681 12.7197 7.2197C12.4268 7.51259 12.4268 7.98747 12.7197 8.28036L14.4393 10L12.7197 11.7197C12.4268 12.0126 12.4268 12.4875 12.7197 12.7804C13.0126 13.0733 13.4874 13.0733 13.7803 12.7804L15.5 11.0607L17.2197 12.7804C17.5126 13.0733 17.9874 13.0733 18.2803 12.7804C18.5732 12.4875 18.5732 12.0126 18.2803 11.7197L16.5607 10L18.2803 8.28036C18.5732 7.98747 18.5732 7.51259 18.2803 7.2197C17.9874 6.92681 17.5126 6.92681 17.2197 7.2197L15.5 8.93937L13.7803 7.2197Z" fill="#2563eb"/>

    </svg>
  </g>
  <!-- Icon 4: rectangle-group -->
  <g transform="translate(192, 92)">
    <rect width="48" height="48" fill="#ffffff" stroke="#e9ecef" stroke-width="1" rx="4"/>
    <svg x="8" y="8" width="32" height="32" viewBox="0 0 20 20">
      
<path fill-rule="evenodd" clip-rule="evenodd" d="M2.5 3C1.67157 3 1 3.67157 1 4.5V8.5C1 9.32843 1.67157 10 2.5 10H8.5C9.32843 10 10 9.32843 10 8.5V4.5C10 3.67157 9.32843 3 8.5 3H2.5ZM13.5 5C12.6716 5 12 5.67157 12 6.5V13.5C12 14.3284 12.6716 15 13.5 15H17.5C18.3284 15 19 14.3284 19 13.5V6.5C19 5.67157 18.3284 5 17.5 5H13.5ZM3.5 12C2.67157 12 2 12.6716 2 13.5V15.5C2 16.3284 2.67157 17 3.5 17H9.5C10.3284 17 11 16.3284 11 15.5V13.5C11 12.6716 10.3284 12 9.5 12H3.5Z" fill="#2563eb"/>

    </svg>
  </g>
  <!-- Icon 5: photo -->
  <g transform="translate(252, 92)">
    <rect width="48" height="48" fill="#ffffff" stroke="#e9ecef" stroke-width="1" rx="4"/>
    <svg x="8" y="8" width="32" height="32" viewBox="0 0 20 20">
      
<path fill-rule="evenodd" clip-rule="evenodd" d="M1 5.25C1 4.00736 2.00736 3 3.25 3H16.75C17.9926 3 19 4.00736 19 5.25V14.75C19 15.9926 17.9926 17 16.75 17H3.25C2.00736 17 1 15.9926 1 14.75V5.25ZM2.5 11.0607V14.75C2.5 15.1642 2.83579 15.5 3.25 15.5H16.75C17.1642 15.5 17.5 15.1642 17.5 14.75V12.0607L15.2803 9.84099C14.9874 9.5481 14.5126 9.5481 14.2197 9.84099L12.3107 11.75L12.7803 12.2197C13.0732 12.5126 13.0732 12.9874 12.7803 13.2803C12.4874 13.5732 12.0126 13.5732 11.7197 13.2803L6.53033 8.09099C6.23744 7.7981 5.76256 7.7981 5.46967 8.09099L2.5 11.0607ZM12 7C12 7.55228 11.5523 8 11 8C10.4477 8 10 7.55228 10 7C10 6.44772 10.4477 6 11 6C11.5523 6 12 6.44772 12 7Z" fill="#2563eb"/>

    </svg>
  </g>
  <!-- Icon 6: minus -->
  <g transform="translate(312, 92)">
    <rect width="48" height="48" fill="#ffffff" stroke="#e9ecef" stroke-width="1" rx="4"/>
    <svg x="8" y="8" width="32" height="32" viewBox="0 0 20 20">
      
<path fill-rule="evenodd" clip-rule="evenodd" d="M4 10C4 9.58579 4.33579 9.25 4.75 9.25L15.25 9.25C15.6642 9.25 16 9.58579 16 10C16 10.4142 15.6642 10.75 15.25 10.75L4.75 10.75C4.33579 10.75 4 10.4142 4 10Z" fill="#2563eb"/>

    </svg>
  </g>
  <!-- Icon 7: language -->
  <g transform="translate(372, 92)">
    <rect width="48" height="48" fill="#ffffff" stroke="#e9ecef" stroke-width="1" rx="4"/>
    <svg x="8" y="8" width="32" height="32" viewBox="0 0 20 20">
      
<path d="M7.75009 2.75C7.75009 2.33579 7.4143 2 7.00009 2C6.58587 2 6.25009 2.33579 6.25009 2.75V4.00842C5.03323 4.03578 3.8325 4.12954 2.65142 4.28627C2.24081 4.34076 1.95211 4.7178 2.0066 5.12841C2.06109 5.53902 2.43813 5.82772 2.84875 5.77323C4.20658 5.59304 5.59228 5.5 7.00009 5.5C7.57065 5.5 8.13758 5.51528 8.70048 5.54546C8.2826 6.95686 7.70916 8.30168 6.99996 9.56001C6.62755 8.89925 6.29259 8.21466 5.99793 7.50912C5.8383 7.1269 5.39905 6.94646 5.01683 7.10608C4.63461 7.26571 4.45416 7.70497 4.61379 8.08718C5.03667 9.09975 5.5365 10.072 6.10593 10.9967C5.03656 12.5598 3.74539 13.9596 2.27753 15.1506C1.95588 15.4116 1.9067 15.8839 2.16769 16.2055C2.42867 16.5272 2.90099 16.5764 3.22264 16.3154C4.64811 15.1588 5.91919 13.8189 6.99996 12.3314C7.0954 12.4628 7.19233 12.593 7.29071 12.722C7.54187 13.0514 8.01249 13.1148 8.34187 12.8637C8.67125 12.6125 8.73467 12.1419 8.48351 11.8125C8.2802 11.5459 8.08361 11.2739 7.894 10.9967C8.90466 9.35554 9.69602 7.56455 10.227 5.66453C10.5365 5.69627 10.8447 5.73253 11.1514 5.77323C11.562 5.82772 11.9391 5.53902 11.9936 5.12841C12.0481 4.7178 11.7594 4.34076 11.3487 4.28627C10.8114 4.21496 10.27 4.15669 9.72489 4.11178C9.07179 4.05797 8.41333 4.02333 7.75009 4.00842V2.75Z" fill="#2563eb"/>
<path fill-rule="evenodd" clip-rule="evenodd" d="M13.0002 8C13.2842 8 13.5439 8.1605 13.671 8.41459L17.921 16.9146C18.1062 17.2851 17.9561 17.7356 17.5856 17.9208C17.2151 18.1061 16.7646 17.9559 16.5793 17.5854L15.7866 16H10.2137L9.42098 17.5854C9.23574 17.9559 8.78524 18.1061 8.41475 17.9208C8.04427 17.7356 7.8941 17.2851 8.07934 16.9146L12.3293 8.41459C12.4564 8.1605 12.7161 8 13.0002 8ZM15.0366 14.5L13.0002 10.4271L10.9637 14.5H15.0366Z" fill="#2563eb"/>

    </svg>
  </g>
  <!-- Icon 8: globe-europe-africa -->
  <g transform="translate(12, 152)">
    <rect width="48" height="48" fill="#ffffff" stroke="#e9ecef" stroke-width="1" rx="4"/>
    <svg x="8" y="8" width="32" height="32" viewBox="0 0 20 20">
      
<path fill-rule="evenodd" clip-rule="evenodd" d="M18 10C18 14.4183 14.4183 18 10 18C5.58172 18 2 14.4183 2 10C2 5.58172 5.58172 2 10 2C14.4183 2 18 5.58172 18 10ZM16.4969 10.2041C16.389 13.6995 13.5216 16.5 10 16.5C6.41015 16.5 3.5 13.5899 3.5 10C3.5 7.12656 5.36451 4.68861 7.94969 3.82998L6.92671 5.62019C6.60171 6.18894 6.69759 6.90485 7.16078 7.36805C7.6029 7.81017 8.27833 7.91977 8.83757 7.64015L9.0123 7.55279C9.08173 7.51807 9.15829 7.5 9.23591 7.5H9.38181C9.5712 7.5 9.74433 7.607 9.82902 7.77639C9.8994 7.91716 9.8994 8.08284 9.82902 8.22361L9.80123 8.27919C9.73357 8.41452 9.59525 8.5 9.44395 8.5H8.9418C8.18614 8.5 7.48048 8.87766 7.06131 9.50641L7.01751 9.57212C6.65828 10.111 6.56795 10.7855 6.77274 11.3998C6.98201 12.0276 7.47787 12.5197 8.10338 12.7282C8.33997 12.8071 8.49984 13.0292 8.49984 13.2749V14.3246C8.49984 14.9738 9.02608 15.5 9.67523 15.5C10.0323 15.5 10.37 15.3377 10.5931 15.0589L12.2044 13.0446C12.3957 12.8056 12.4998 12.5086 12.4998 12.2025C12.4998 11.8866 12.6279 11.5791 12.8531 11.3539C13.3088 10.8982 13.3864 10.1784 13.0257 9.63738L12.5617 8.94145C12.5214 8.88091 12.4998 8.80979 12.4998 8.73703C12.4998 8.43336 12.8465 8.26002 13.0895 8.44222L13.4322 8.69925C13.748 8.93609 14.1704 8.97373 14.523 8.79746C14.7488 8.68456 15.0216 8.72887 15.1996 8.90689L16.4969 10.2041Z" fill="#2563eb"/>

    </svg>
  </g>
  <!-- Icon 9: face-smile -->
  <g transform="translate(72, 152)">
    <rect width="48" height="48" fill="#ffffff" stroke="#e9ecef" stroke-width="1" rx="4"/>
    <svg x="8" y="8" width="32" height="32" viewBox="0 0 20 20">
      
<path fill-rule="evenodd" clip-rule="evenodd" d="M10 18C14.4183 18 18 14.4183 18 10C18 5.58172 14.4183 2 10 2C5.58172 2 2 5.58172 2 10C2 14.4183 5.58172 18 10 18ZM13.5355 13.5355C13.8284 13.2426 13.8284 12.7678 13.5355 12.4749C13.2426 12.182 12.7678 12.182 12.4749 12.4749C11.108 13.8417 8.89196 13.8417 7.52513 12.4749C7.23223 12.182 6.75736 12.182 6.46447 12.4749C6.17157 12.7678 6.17157 13.2426 6.46447 13.5355C8.41709 15.4881 11.5829 15.4881 13.5355 13.5355ZM9 8.5C9 9.32843 8.55228 10 8 10C7.44772 10 7 9.32843 7 8.5C7 7.67157 7.44772 7 8 7C8.55228 7 9 7.67157 9 8.5ZM12 10C12.5523 10 13 9.32843 13 8.5C13 7.67157 12.5523 7 12 7C11.4477 7 11 7.67157 11 8.5C11 9.32843 11.4477 10 12 10Z" fill="#2563eb"/>

    </svg>
  </g>
  <!-- Icon 10: document-duplicate -->
  <g transform="translate(132, 152)">
    <rect width="48" height="48" fill="#ffffff" stroke="#e9ecef" stroke-width="1" rx="4"/>
    <svg x="8" y="8" width="32" height="32" viewBox="0 0 20 20">
      
<path d="M7 3.5C7 2.67157 7.67157 2 8.5 2H12.3787C12.7765 2 13.158 2.15804 13.4393 2.43934L16.5607 5.56066C16.842 5.84197 17 6.2235 17 6.62132V12.5C17 13.3284 16.3284 14 15.5 14H14.5V10.6213C14.5 9.82567 14.1839 9.06261 13.6213 8.5L10.5 5.37868C9.93739 4.81607 9.17433 4.5 8.37868 4.5H7V3.5Z" fill="#2563eb"/>
<path d="M4.5 6C3.67157 6 3 6.67157 3 7.5V16.5C3 17.3284 3.67157 18 4.5 18H11.5C12.3284 18 13 17.3284 13 16.5V10.6213C13 10.2235 12.842 9.84197 12.5607 9.56066L9.43934 6.43934C9.15804 6.15804 8.7765 6 8.37868 6H4.5Z" fill="#2563eb"/>

    </svg>
  </g>
  <!-- Icon 11: currency-pound -->
  <g transform="translate(192, 152)">
    <rect width="48" height="48" fill="#ffffff" stroke="#e9ecef" stroke-width="1" rx="4"/>
    <svg x="8" y="8" width="32" height="32" viewBox="0 0 20 20">
      
<path fill-rule="evenodd" clip-rule="evenodd" d="M10 18C14.4183 18 18 14.4183 18 10C18 5.58172 14.4183 2 10 2C5.58172 2 2 5.58172 2 10C2 14.4183 5.58172 18 10 18ZM8.73223 6.23223C9.70854 5.25592 11.2915 5.25592 12.2678 6.23223C12.5607 6.52513 13.0355 6.52513 13.3284 6.23223C13.6213 5.93934 13.6213 5.46447 13.3284 5.17157C11.7663 3.60948 9.23367 3.60948 7.67157 5.17157C6.89067 5.95247 6.5 6.97747 6.5 8V8.16481C6.5 8.52945 6.53382 8.89272 6.60072 9.25H6.25C5.83579 9.25 5.5 9.58579 5.5 10C5.5 10.4142 5.83579 10.75 6.25 10.75H6.98724C7.175 11.782 7.05016 12.853 6.61952 13.8219L6.56464 13.9454C6.44963 14.2042 6.49018 14.5057 6.66948 14.7249C6.84878 14.9441 7.13625 15.0436 7.4127 14.9821L8.68531 14.6993C9.21441 14.5818 9.76361 14.589 10.2894 14.7204C11.0842 14.9191 11.9158 14.9191 12.7106 14.7204L13.6819 14.4776C14.0837 14.3771 14.3281 13.9699 14.2276 13.5681C14.1271 13.1663 13.7199 12.9219 13.3181 13.0224L12.3468 13.2652C11.7908 13.4042 11.2092 13.4042 10.6532 13.2652C9.91296 13.0802 9.14026 13.0673 8.39452 13.2275C8.58441 12.4159 8.62237 11.5757 8.5063 10.75H9.75C10.1642 10.75 10.5 10.4142 10.5 10C10.5 9.58579 10.1642 9.25 9.75 9.25H8.13603C8.0458 8.89574 8 8.53121 8 8.16481V8C8 7.35903 8.24393 6.72054 8.73223 6.23223Z" fill="#2563eb"/>

    </svg>
  </g>
  <!-- Icon 12: clock -->
  <g transform="translate(252, 152)">
    <rect width="48" height="48" fill="#ffffff" stroke="#e9ecef" stroke-width="1" rx="4"/>
    <svg x="8" y="8" width="32" height="32" viewBox="0 0 20 20">
      
<path fill-rule="evenodd" clip-rule="evenodd" d="M10 18C14.4183 18 18 14.4183 18 10C18 5.58172 14.4183 2 10 2C5.58172 2 2 5.58172 2 10C2 14.4183 5.58172 18 10 18ZM10.75 5C10.75 4.58579 10.4142 4.25 10 4.25C9.58579 4.25 9.25 4.58579 9.25 5V10C9.25 10.4142 9.58579 10.75 10 10.75H14C14.4142 10.75 14.75 10.4142 14.75 10C14.75 9.58579 14.4142 9.25 14 9.25H10.75V5Z" fill="#2563eb"/>

    </svg>
  </g>
  <!-- Icon 13: chat-bubble-oval-left -->
  <g transform="translate(312, 152)">
    <rect width="48" height="48" fill="#ffffff" stroke="#e9ecef" stroke-width="1" rx="4"/>
    <svg x="8" y="8" width="32" height="32" viewBox="0 0 20 20">
      
<path fill-rule="evenodd" clip-rule="evenodd" d="M2 10C2 6.0334 5.69006 3 10 3C14.3099 3 18 6.0334 18 10C18 13.9666 14.3099 17 10 17C9.48658 17 8.98381 16.9577 8.49617 16.8766C7.51177 17.5834 6.3037 18 5 18C4.85237 18 4.70585 17.9947 4.56065 17.9841C4.29888 17.9651 4.06608 17.8107 3.9468 17.5769C3.82753 17.3431 3.83914 17.064 3.97742 16.8409C4.29476 16.329 4.48371 15.7294 4.49899 15.0848C2.97849 13.8253 2 12.0244 2 10Z" fill="#2563eb"/>

    </svg>
  </g>
  <!-- Icon 14: building-office-2 -->
  <g transform="translate(372, 152)">
    <rect width="48" height="48" fill="#ffffff" stroke="#e9ecef" stroke-width="1" rx="4"/>
    <svg x="8" y="8" width="32" height="32" viewBox="0 0 20 20">
      
<path fill-rule="evenodd" clip-rule="evenodd" d="M1 2.75C1 2.33579 1.33579 2 1.75 2H12.25C12.6642 2 13 2.33579 13 2.75C13 3.16421 12.6642 3.5 12.25 3.5H12V17.25C12 17.6642 11.6642 18 11.25 18H9.75C9.33579 18 9 17.6642 9 17.25V14.75C9 14.3358 8.66421 14 8.25 14H5.75C5.33579 14 5 14.3358 5 14.75V17.25C5 17.6642 4.66421 18 4.25 18H1.75C1.33579 18 1 17.6642 1 17.25C1 16.8358 1.33579 16.5 1.75 16.5H2V3.5H1.75C1.33579 3.5 1 3.16421 1 2.75ZM4 5.5C4 5.22386 4.22386 5 4.5 5H5.5C5.77614 5 6 5.22386 6 5.5V6.5C6 6.77614 5.77614 7 5.5 7H4.5C4.22386 7 4 6.77614 4 6.5V5.5ZM4.5 9C4.22386 9 4 9.22386 4 9.5V10.5C4 10.7761 4.22386 11 4.5 11H5.5C5.77614 11 6 10.7761 6 10.5V9.5C6 9.22386 5.77614 9 5.5 9H4.5ZM8 5.5C8 5.22386 8.22386 5 8.5 5H9.5C9.77614 5 10 5.22386 10 5.5V6.5C10 6.77614 9.77614 7 9.5 7H8.5C8.22386 7 8 6.77614 8 6.5V5.5ZM8.5 9C8.22386 9 8 9.22386 8 9.5V10.5C8 10.7761 8.22386 11 8.5 11H9.5C9.77614 11 10 10.7761 10 10.5V9.5C10 9.22386 9.77614 9 9.5 9H8.5Z" fill="#2563eb"/>
<path fill-rule="evenodd" clip-rule="evenodd" d="M14.25 6C13.8358 6 13.5 6.33579 13.5 6.75V17C13.5 17.5523 13.9477 18 14.5 18H18.25C18.6642 18 19 17.6642 19 17.25C19 16.8358 18.6642 16.5 18.25 16.5H18V7.5H18.25C18.6642 7.5 19 7.16421 19 6.75C19 6.33579 18.6642 6 18.25 6H14.25ZM14.75 9.5C14.75 9.22386 14.9739 9 15.25 9H16.25C16.5261 9 16.75 9.22386 16.75 9.5V10.5C16.75 10.7761 16.5261 11 16.25 11H15.25C14.9739 11 14.75 10.7761 14.75 10.5V9.5ZM15.25 13C14.9739 13 14.75 13.2239 14.75 13.5V14.5C14.75 14.7761 14.9739 15 15.25 15H16.25C16.5261 15 16.75 14.7761 16.75 14.5V13.5C16.75 13.2239 16.5261 13 16.25 13H15.25Z" fill="#2563eb"/>

    </svg>
  </g>
  <!-- Icon 15: battery-0 -->
  <g transform="translate(12, 212)">
    <rect width="48" height="48" fill="#ffffff" stroke="#e9ecef" stroke-width="1" rx="4"/>
    <svg x="8" y="8" width="32" height="32" viewBox="0 0 20 20">
      
<path fill-rule="evenodd" clip-rule="evenodd" d="M1 7.25C1 6.00736 2.00736 5 3.25 5H15.75C16.9926 5 18 6.00736 18 7.25V8.33535C18.5826 8.54127 19 9.09689 19 9.75V10.25C19 10.9031 18.5826 11.4587 18 11.6646V12.75C18 13.9926 16.9926 15 15.75 15H3.25C2.00736 15 1 13.9926 1 12.75V7.25ZM3.25 6.5C2.83579 6.5 2.5 6.83579 2.5 7.25V12.75C2.5 13.1642 2.83579 13.5 3.25 13.5H15.75C16.1642 13.5 16.5 13.1642 16.5 12.75V7.25C16.5 6.83579 16.1642 6.5 15.75 6.5H3.25Z" fill="#2563eb"/>

    </svg>
  </g>
  <!-- Icon 16: arrow-uturn-right -->
  <g transform="translate(72, 212)">
    <rect width="48" height="48" fill="#ffffff" stroke="#e9ecef" stroke-width="1" rx="4"/>
    <svg x="8" y="8" width="32" height="32" viewBox="0 0 20 20">
      
<path fill-rule="evenodd" clip-rule="evenodd" d="M12.2075 2.23214C11.9215 2.53177 11.9325 3.00651 12.2321 3.29252L16.3781 7.25H6.375C3.40647 7.25 1 9.65647 1 12.625C1 15.5935 3.40647 18 6.375 18H9.25C9.66421 18 10 17.6642 10 17.25C10 16.8358 9.66421 16.5 9.25 16.5H6.375C4.2349 16.5 2.5 14.7651 2.5 12.625C2.5 10.4849 4.2349 8.75 6.375 8.75H16.3781L12.2321 12.7075C11.9325 12.9935 11.9215 13.4682 12.2075 13.7679C12.4935 14.0675 12.9682 14.0785 13.2679 13.7925L18.7679 8.54252C18.9161 8.401 19 8.20496 19 8C19 7.79504 18.9161 7.59901 18.7679 7.45748L13.2679 2.20748C12.9682 1.92148 12.4935 1.93252 12.2075 2.23214Z" fill="#2563eb"/>

    </svg>
  </g>
  <!-- Icon 17: arrow-trending-up -->
  <g transform="translate(132, 212)">
    <rect width="48" height="48" fill="#ffffff" stroke="#e9ecef" stroke-width="1" rx="4"/>
    <svg x="8" y="8" width="32" height="32" viewBox="0 0 20 20">
      
<path fill-rule="evenodd" clip-rule="evenodd" d="M12.577 4.87834C12.6842 4.47824 13.0955 4.2408 13.4956 4.34801L18.2766 5.6291C18.4688 5.68058 18.6326 5.80628 18.732 5.97854C18.8315 6.1508 18.8585 6.35552 18.807 6.54766L17.5259 11.3287C17.4187 11.7288 17.0074 11.9663 16.6073 11.8591C16.2072 11.7519 15.9698 11.3406 16.077 10.9405L16.8865 7.9195C14.6303 9.30965 12.7541 11.0901 11.2935 13.1222C11.1651 13.3009 10.9646 13.4142 10.7452 13.432C10.5259 13.4499 10.3098 13.3704 10.1542 13.2148L7 10.0607L2.28033 14.7803C1.98744 15.0732 1.51256 15.0732 1.21967 14.7803C0.926777 14.4874 0.926777 14.0126 1.21967 13.7197L6.46967 8.46968C6.76256 8.17679 7.23744 8.17679 7.53033 8.46968L10.6039 11.5433C12.1049 9.63051 13.9633 7.9506 16.1492 6.61197L13.1073 5.7969C12.7072 5.68969 12.4698 5.27844 12.577 4.87834Z" fill="#2563eb"/>

    </svg>
  </g>
  <!-- Icon 18: arrow-left -->
  <g transform="translate(192, 212)">
    <rect width="48" height="48" fill="#ffffff" stroke="#e9ecef" stroke-width="1" rx="4"/>
    <svg x="8" y="8" width="32" height="32" viewBox="0 0 20 20">
      
<path fill-rule="evenodd" clip-rule="evenodd" d="M17 10C17 10.4142 16.6642 10.75 16.25 10.75L5.61208 10.75L9.76983 14.7094C10.0684 14.9965 10.0777 15.4713 9.79062 15.7698C9.50353 16.0684 9.02875 16.0777 8.73017 15.7906L3.23017 10.5406C3.08311 10.3992 3 10.204 3 10C3 9.79599 3.08311 9.60078 3.23017 9.45938L8.73017 4.20938C9.02875 3.92228 9.50353 3.93159 9.79062 4.23017C10.0777 4.52875 10.0684 5.00353 9.76983 5.29063L5.61208 9.25L16.25 9.25C16.6642 9.25 17 9.58579 17 10Z" fill="#2563eb"/>

    </svg>
  </g>
  <!-- Icon 19: x-mark -->
  <g transform="translate(252, 212)">
    <rect width="48" height="48" fill="#ffffff" stroke="#e9ecef" stroke-width="1" rx="4"/>
    <svg x="8" y="8" width="32" height="32" viewBox="0 0 20 20">
      
  <path d="M6.28 5.22a.75.75 0 0 0-1.06 1.06L8.94 10l-3.72 3.72a.75.75 0 1 0 1.06 1.06L10 11.06l3.72 3.72a.75.75 0 1 0 1.06-1.06L11.06 10l3.72-3.72a.75.75 0 0 0-1.06-1.06L10 8.94 6.28 5.22Z"/>

    </svg>
  </g>
  <!-- Icon 20: underline -->
  <g transform="translate(312, 212)">
    <rect width="48" height="48" fill="#ffffff" stroke="#e9ecef" stroke-width="1" rx="4"/>
    <svg x="8" y="8" width="32" height="32" viewBox="0 0 20 20">
      
  <path fill-rule="evenodd" d="M4.75 2a.75.75 0 0 1 .75.75V9a4.5 4.5 0 1 0 9 0V2.75a.75.75 0 0 1 1.5 0V9A6 6 0 0 1 4 9V2.75A.75.75 0 0 1 4.75 2ZM2 17.25a.75.75 0 0 1 .75-.75h14.5a.75.75 0 0 1 0 1.5H2.75a.75.75 0 0 1-.75-.75Z" clip-rule="evenodd"/>

    </svg>
  </g>
  <!-- Icon 21: speaker-x-mark -->
  <g transform="translate(372, 212)">
    <rect width="48" height="48" fill="#ffffff" stroke="#e9ecef" stroke-width="1" rx="4"/>
    <svg x="8" y="8" width="32" height="32" viewBox="0 0 20 20">
      
  <path d="M10.047 3.062a.75.75 0 0 1 .453.688v12.5a.75.75 0 0 1-1.264.546L5.203 13H2.667a.75.75 0 0 1-.7-.48A6.985 6.985 0 0 1 1.5 10c0-.887.165-1.737.468-2.52a.75.75 0 0 1 .7-.48h2.535l4.033-3.796a.75.75 0 0 1 .811-.142ZM13.78 7.22a.75.75 0 1 0-1.06 1.06L14.44 10l-1.72 1.72a.75.75 0 0 0 1.06 1.06l1.72-1.72 1.72 1.72a.75.75 0 1 0 1.06-1.06L16.56 10l1.72-1.72a.75.75 0 0 0-1.06-1.06L15.5 8.94l-1.72-1.72Z"/>

    </svg>
  </g>
  <!-- Icon 22: rectangle-group -->
  <g transform="translate(12, 272)">
    <rect width="48" height="48" fill="#ffffff" stroke="#e9ecef" stroke-width="1" rx="4"/>
    <svg x="8" y="8" width="32" height="32" viewBox="0 0 20 20">
      
  <path fill-rule="evenodd" d="M2.5 3A1.5 1.5 0 0 0 1 4.5v4A1.5 1.5 0 0 0 2.5 10h6A1.5 1.5 0 0 0 10 8.5v-4A1.5 1.5 0 0 0 8.5 3h-6Zm11 2A1.5 1.5 0 0 0 12 6.5v7a1.5 1.5 0 0 0 1.5 1.5h4a1.5 1.5 0 0 0 1.5-1.5v-7A1.5 1.5 0 0 0 17.5 5h-4Zm-10 7A1.5 1.5 0 0 0 2 13.5v2A1.5 1.5 0 0 0 3.5 17h6a1.5 1.5 0 0 0 1.5-1.5v-2A1.5 1.5 0 0 0 9.5 12h-6Z" clip-rule="evenodd"/>

    </svg>
  </g>
  <!-- Icon 23: photo -->
  <g transform="translate(72, 272)">
    <rect width="48" height="48" fill="#ffffff" stroke="#e9ecef" stroke-width="1" rx="4"/>
    <svg x="8" y="8" width="32" height="32" viewBox="0 0 20 20">
      
  <path fill-rule="evenodd" d="M1 5.25A2.25 2.25 0 0 1 3.25 3h13.5A2.25 2.25 0 0 1 19 5.25v9.5A2.25 2.25 0 0 1 16.75 17H3.25A2.25 2.25 0 0 1 1 14.75v-9.5Zm1.5 5.81v3.69c0 .414.336.75.75.75h13.5a.75.75 0 0 0 .75-.75v-2.69l-2.22-2.219a.75.75 0 0 0-1.06 0l-1.91 1.909.47.47a.75.75 0 1 1-1.06 1.06L6.53 8.091a.75.75 0 0 0-1.06 0l-2.97 2.97ZM12 7a1 1 0 1 1-2 0 1 1 0 0 1 2 0Z" clip-rule="evenodd"/>

    </svg>
  </g>
  <!-- Icon 24: minus -->
  <g transform="translate(132, 272)">
    <rect width="48" height="48" fill="#ffffff" stroke="#e9ecef" stroke-width="1" rx="4"/>
    <svg x="8" y="8" width="32" height="32" viewBox="0 0 20 20">
      
  <path fill-rule="evenodd" d="M4 10a.75.75 0 0 1 .75-.75h10.5a.75.75 0 0 1 0 1.5H4.75A.75.75 0 0 1 4 10Z" clip-rule="evenodd"/>

    </svg>
  </g>
  <!-- Icon 25: language -->
  <g transform="translate(192, 272)">
    <rect width="48" height="48" fill="#ffffff" stroke="#e9ecef" stroke-width="1" rx="4"/>
    <svg x="8" y="8" width="32" height="32" viewBox="0 0 20 20">
      
  <path d="M7.75 2.75a.75.75 0 0 0-1.5 0v1.258a32.987 32.987 0 0 0-3.599.278.75.75 0 1 0 .198 1.487A31.545 31.545 0 0 1 8.7 5.545 19.381 19.381 0 0 1 7 9.56a19.418 19.418 0 0 1-1.002-2.05.75.75 0 0 0-1.384.577 20.935 20.935 0 0 0 1.492 2.91 19.613 19.613 0 0 1-3.828 4.154.75.75 0 1 0 .945 1.164A21.116 21.116 0 0 0 7 12.331c.095.132.192.262.29.391a.75.75 0 0 0 1.194-.91c-.204-.266-.4-.538-.59-.815a20.888 20.888 0 0 0 2.333-5.332c.31.031.618.068.924.108a.75.75 0 0 0 .198-1.487 32.832 32.832 0 0 0-3.599-.278V2.75Z"/>
  <path fill-rule="evenodd" d="M13 8a.75.75 0 0 1 .671.415l4.25 8.5a.75.75 0 1 1-1.342.67L15.787 16h-5.573l-.793 1.585a.75.75 0 1 1-1.342-.67l4.25-8.5A.75.75 0 0 1 13 8Zm2.037 6.5L13 10.427 10.964 14.5h4.073Z" clip-rule="evenodd"/>

    </svg>
  </g>
  <!-- Icon 26: globe-europe-africa -->
  <g transform="translate(252, 272)">
    <rect width="48" height="48" fill="#ffffff" stroke="#e9ecef" stroke-width="1" rx="4"/>
    <svg x="8" y="8" width="32" height="32" viewBox="0 0 20 20">
      
  <path fill-rule="evenodd" d="M18 10a8 8 0 1 1-16 0 8 8 0 0 1 16 0Zm-1.503.204A6.5 6.5 0 1 1 7.95 3.83L6.927 5.62a1.453 1.453 0 0 0 1.91 2.02l.175-.087a.5.5 0 0 1 .224-.053h.146a.5.5 0 0 1 .447.724l-.028.055a.4.4 0 0 1-.357.221h-.502a2.26 2.26 0 0 0-1.88 1.006l-.044.066a2.099 2.099 0 0 0 1.085 3.156.58.58 0 0 1 .397.547v1.05a1.175 1.175 0 0 0 2.093.734l1.611-2.014c.192-.24.296-.536.296-.842 0-.316.128-.624.353-.85a1.363 1.363 0 0 0 .173-1.716l-.464-.696a.369.369 0 0 1 .527-.499l.343.257c.316.237.738.275 1.091.098a.586.586 0 0 1 .677.11l1.297 1.297Z" clip-rule="evenodd"/>

    </svg>
  </g>
  <!-- Icon 27: face-smile -->
  <g transform="translate(312, 272)">
    <rect width="48" height="48" fill="#ffffff" stroke="#e9ecef" stroke-width="1" rx="4"/>
    <svg x="8" y="8" width="32" height="32" viewBox="0 0 20 20">
      
  <path fill-rule="evenodd" d="M10 18a8 8 0 1 0 0-16 8 8 0 0 0 0 16Zm3.536-4.464a.75.75 0 1 0-1.061-1.061 3.5 3.5 0 0 1-4.95 0 .75.75 0 0 0-1.06 1.06 5 5 0 0 0 7.07 0ZM9 8.5c0 .828-.448 1.5-1 1.5s-1-.672-1-1.5S7.448 7 8 7s1 .672 1 1.5Zm3 1.5c.552 0 1-.672 1-1.5S12.552 7 12 7s-1 .672-1 1.5.448 1.5 1 1.5Z" clip-rule="evenodd"/>

    </svg>
  </g>
  <!-- Icon 28: document-duplicate -->
  <g transform="translate(372, 272)">
    <rect width="48" height="48" fill="#ffffff" stroke="#e9ecef" stroke-width="1" rx="4"/>
    <svg x="8" y="8" width="32" height="32" viewBox="0 0 20 20">
      
  <path d="M7 3.5A1.5 1.5 0 0 1 8.5 2h3.879a1.5 1.5 0 0 1 1.06.44l3.122 3.12A1.5 1.5 0 0 1 17 6.622V12.5a1.5 1.5 0 0 1-1.5 1.5h-1v-3.379a3 3 0 0 0-.879-2.121L10.5 5.379A3 3 0 0 0 8.379 4.5H7v-1Z"/>
  <path d="M4.5 6A1.5 1.5 0 0 0 3 7.5v9A1.5 1.5 0 0 0 4.5 18h7a1.5 1.5 0 0 0 1.5-1.5v-5.879a1.5 1.5 0 0 0-.44-1.06L9.44 6.439A1.5 1.5 0 0 0 8.378 6H4.5Z"/>

    </svg>
  </g>
  <!-- Icon 29: currency-pound -->
  <g transform="translate(12, 332)">
    <rect width="48" height="48" fill="#ffffff" stroke="#e9ecef" stroke-width="1" rx="4"/>
    <svg x="8" y="8" width="32" height="32" viewBox="0 0 20 20">
      
  <path fill-rule="evenodd" d="M10 18a8 8 0 1 0 0-16 8 8 0 0 0 0 16ZM8.732 6.232a2.5 2.5 0 0 1 3.536 0 .75.75 0 1 0 1.06-1.06A4 4 0 0 0 6.5 8v.165c0 .364.034.728.1 1.085h-.35a.75.75 0 0 0 0 1.5h.737a5.25 5.25 0 0 1-.367 3.072l-.055.123a.75.75 0 0 0 .848 1.037l1.272-.283a3.493 3.493 0 0 1 1.604.021 4.992 4.992 0 0 0 2.422 0l.97-.242a.75.75 0 0 0-.363-1.456l-.971.243a3.491 3.491 0 0 1-1.694 0 4.992 4.992 0 0 0-2.258-.038c.19-.811.227-1.651.111-2.477H9.75a.75.75 0 0 0 0-1.5H8.136A4.397 4.397 0 0 1 8 8.165V8c0-.641.244-1.28.732-1.768Z" clip-rule="evenodd"/>

    </svg>
  </g>
  <!-- Icon 30: clock -->
  <g transform="translate(72, 332)">
    <rect width="48" height="48" fill="#ffffff" stroke="#e9ecef" stroke-width="1" rx="4"/>
    <svg x="8" y="8" width="32" height="32" viewBox="0 0 20 20">
      
  <path fill-rule="evenodd" d="M10 18a8 8 0 1 0 0-16 8 8 0 0 0 0 16Zm.75-13a.75.75 0 0 0-1.5 0v5c0 .414.336.75.75.75h4a.75.75 0 0 0 0-1.5h-3.25V5Z" clip-rule="evenodd"/>

    </svg>
  </g>
  <!-- Icon 31: chat-bubble-oval-left -->
  <g transform="translate(132, 332)">
    <rect width="48" height="48" fill="#ffffff" stroke="#e9ecef" stroke-width="1" rx="4"/>
    <svg x="8" y="8" width="32" height="32" viewBox="0 0 20 20">
      
  <path fill-rule="evenodd" d="M2 10c0-3.967 3.69-7 8-7 4.31 0 8 3.033 8 7s-3.69 7-8 7a9.165 9.165 0 0 1-1.504-.123 5.976 5.976 0 0 1-3.935 1.107.75.75 0 0 1-.584-1.143 3.478 3.478 0 0 0 .522-1.756C2.979 13.825 2 12.025 2 10Z" clip-rule="evenodd"/>

    </svg>
  </g>
  <!-- Icon 32: building-office-2 -->
  <g transform="translate(192, 332)">
    <rect width="48" height="48" fill="#ffffff" stroke="#e9ecef" stroke-width="1" rx="4"/>
    <svg x="8" y="8" width="32" height="32" viewBox="0 0 20 20">
      
  <path fill-rule="evenodd" d="M1 2.75A.75.75 0 0 1 1.75 2h10.5a.75.75 0 0 1 0 1.5H12v13.75a.75.75 0 0 1-.75.75h-1.5a.75.75 0 0 1-.75-.75v-2.5a.75.75 0 0 0-.75-.75h-2.5a.75.75 0 0 0-.75.75v2.5a.75.75 0 0 1-.75.75h-2.5a.75.75 0 0 1 0-1.5H2v-13h-.25A.75.75 0 0 1 1 2.75ZM4 5.5a.5.5 0 0 1 .5-.5h1a.5.5 0 0 1 .5.5v1a.5.5 0 0 1-.5.5h-1a.5.5 0 0 1-.5-.5v-1ZM4.5 9a.5.5 0 0 0-.5.5v1a.5.5 0 0 0 .5.5h1a.5.5 0 0 0 .5-.5v-1a.5.5 0 0 0-.5-.5h-1ZM8 5.5a.5.5 0 0 1 .5-.5h1a.5.5 0 0 1 .5.5v1a.5.5 0 0 1-.5.5h-1a.5.5 0 0 1-.5-.5v-1ZM8.5 9a.5.5 0 0 0-.5.5v1a.5.5 0 0 0 .5.5h1a.5.5 0 0 0 .5-.5v-1a.5.5 0 0 0-.5-.5h-1ZM14.25 6a.75.75 0 0 0-.75.75V17a1 1 0 0 0 1 1h3.75a.75.75 0 0 0 0-1.5H18v-9h.25a.75.75 0 0 0 0-1.5h-4Zm.5 3.5a.5.5 0 0 1 .5-.5h1a.5.5 0 0 1 .5.5v1a.5.5 0 0 1-.5.5h-1a.5.5 0 0 1-.5-.5v-1Zm.5 3.5a.5.5 0 0 0-.5.5v1a.5.5 0 0 0 .5.5h1a.5.5 0 0 0 .5-.5v-1a.5.5 0 0 0-.5-.5h-1Z" clip-rule="evenodd"/>

    </svg>
  </g>
  <!-- Icon 33: battery-0 -->
  <g transform="translate(252, 332)">
    <rect width="48" height="48" fill="#ffffff" stroke="#e9ecef" stroke-width="1" rx="4"/>
    <svg x="8" y="8" width="32" height="32" viewBox="0 0 20 20">
      
  <path fill-rule="evenodd" d="M1 7.25A2.25 2.25 0 0 1 3.25 5h12.5A2.25 2.25 0 0 1 18 7.25v1.085a1.5 1.5 0 0 1 1 1.415v.5a1.5 1.5 0 0 1-1 1.415v1.085A2.25 2.25 0 0 1 15.75 15H3.25A2.25 2.25 0 0 1 1 12.75v-5.5Zm2.25-.75a.75.75 0 0 0-.75.75v5.5c0 .414.336.75.75.75h12.5a.75.75 0 0 0 .75-.75v-5.5a.75.75 0 0 0-.75-.75H3.25Z" clip-rule="evenodd"/>

    </svg>
  </g>
  <!-- Icon 34: arrow-uturn-right -->
  <g transform="translate(312, 332)">
    <rect width="48" height="48" fill="#ffffff" stroke="#e9ecef" stroke-width="1" rx="4"/>
    <svg x="8" y="8" width="32" height="32" viewBox="0 0 20 20">
      
  <path fill-rule="evenodd" d="M12.207 2.232a.75.75 0 0 0 .025 1.06l4.146 3.958H6.375a5.375 5.375 0 0 0 0 10.75H9.25a.75.75 0 0 0 0-1.5H6.375a3.875 3.875 0 0 1 0-7.75h10.003l-4.146 3.957a.75.75 0 0 0 1.036 1.085l5.5-5.25a.75.75 0 0 0 0-1.085l-5.5-5.25a.75.75 0 0 0-1.06.025Z" clip-rule="evenodd"/>

    </svg>
  </g>
  <!-- Icon 35: arrow-trending-up -->
  <g transform="translate(372, 332)">
    <rect width="48" height="48" fill="#ffffff" stroke="#e9ecef" stroke-width="1" rx="4"/>
    <svg x="8" y="8" width="32" height="32" viewBox="0 0 20 20">
      
  <path fill-rule="evenodd" d="M12.577 4.878a.75.75 0 0 1 .919-.53l4.78 1.281a.75.75 0 0 1 .531.919l-1.281 4.78a.75.75 0 0 1-1.449-.387l.81-3.022a19.407 19.407 0 0 0-5.594 5.203.75.75 0 0 1-1.139.093L7 10.06l-4.72 4.72a.75.75 0 0 1-1.06-1.061l5.25-5.25a.75.75 0 0 1 1.06 0l3.074 3.073a20.923 20.923 0 0 1 5.545-4.931l-3.042-.815a.75.75 0 0 1-.53-.919Z" clip-rule="evenodd"/>

    </svg>
  </g>
  
  <!-- Footer -->
  <text x="400" y="580" text-anchor="middle" font-family="system-ui, -apple-system, sans-serif" font-size="12" fill="#6c757d">
    Showing 35 of 648 icons
  </text>
  
</svg>