<svg width="800" height="600" xmlns="http://www.w3.org/2000/svg">
  <!-- Background -->
  <rect width="800" height="600" fill="#ffffff"/>
  
  <!-- Header Background -->
  <rect width="800" height="80" fill="#f8f9fa"/>
  
  <!-- Title -->
  <text x="400" y="30" text-anchor="middle" font-family="system-ui, -apple-system, sans-serif" font-size="20" font-weight="bold" fill="#212529">Heroicons - 24-solid</text>
  
  <!-- Subtitle -->
  <text x="400" y="55" text-anchor="middle" font-family="system-ui, -apple-system, sans-serif" font-size="14" fill="#6c757d">648 icons</text>
  
  <!-- Icon Grid -->
  <!-- Icon 1: x-mark -->
  <g transform="translate(12, 92)">
    <rect width="48" height="48" fill="#ffffff" stroke="#e9ecef" stroke-width="1" rx="4"/>
    <svg x="8" y="8" width="32" height="32" viewBox="0 0 24 24">
      
<path fill-rule="evenodd" clip-rule="evenodd" d="M5.46967 5.46967C5.76256 5.17678 6.23744 5.17678 6.53033 5.46967L12 10.9393L17.4697 5.46967C17.7626 5.17678 18.2374 5.17678 18.5303 5.46967C18.8232 5.76256 18.8232 6.23744 18.5303 6.53033L13.0607 12L18.5303 17.4697C18.8232 17.7626 18.8232 18.2374 18.5303 18.5303C18.2374 18.8232 17.7626 18.8232 17.4697 18.5303L12 13.0607L6.53033 18.5303C6.23744 18.8232 5.76256 18.8232 5.46967 18.5303C5.17678 18.2374 5.17678 17.7626 5.46967 17.4697L10.9393 12L5.46967 6.53033C5.17678 6.23744 5.17678 5.76256 5.46967 5.46967Z" fill="#2563eb"/>

    </svg>
  </g>
  <!-- Icon 2: underline -->
  <g transform="translate(72, 92)">
    <rect width="48" height="48" fill="#ffffff" stroke="#e9ecef" stroke-width="1" rx="4"/>
    <svg x="8" y="8" width="32" height="32" viewBox="0 0 24 24">
      
<path fill-rule="evenodd" clip-rule="evenodd" d="M5.99509 2.99414C6.40931 2.99414 6.74511 3.32994 6.74511 3.74418V11.2449C6.74511 14.1448 9.09561 16.4954 11.995 16.4954C14.8943 16.4954 17.2448 14.1448 17.2448 11.2449V3.74418C17.2448 3.32994 17.5806 2.99414 17.9949 2.99414C18.4091 2.99414 18.7449 3.32994 18.7449 3.74418V11.2449C18.7449 14.9731 15.7229 17.9955 11.995 17.9955C8.26705 17.9955 5.24507 14.9731 5.24507 11.2449V3.74418C5.24507 3.32994 5.58087 2.99414 5.99509 2.99414ZM2.99512 20.2458C2.99512 19.8315 3.33091 19.4957 3.74514 19.4957H20.2448C20.659 19.4957 20.9948 19.8315 20.9948 20.2458C20.9948 20.66 20.659 20.9958 20.2448 20.9958H3.74514C3.33091 20.9958 2.99512 20.66 2.99512 20.2458Z" fill="#2563eb"/>

    </svg>
  </g>
  <!-- Icon 3: speaker-x-mark -->
  <g transform="translate(132, 92)">
    <rect width="48" height="48" fill="#ffffff" stroke="#e9ecef" stroke-width="1" rx="4"/>
    <svg x="8" y="8" width="32" height="32" viewBox="0 0 24 24">
      
<path d="M13.5 4.06069C13.5 2.72433 11.8843 2.05508 10.9393 3.00003L6.43934 7.50003H4.50905C3.36772 7.50003 2.19106 8.16447 1.8493 9.40508C1.62147 10.2322 1.5 11.1025 1.5 12C1.5 12.8975 1.62147 13.7679 1.8493 14.595C2.19106 15.8356 3.36772 16.5 4.50905 16.5H6.43934L10.9393 21C11.8843 21.945 13.5 21.2757 13.5 19.9394V4.06069Z" fill="#2563eb"/>
<path d="M17.7803 9.21969C17.4874 8.92679 17.0126 8.92679 16.7197 9.21969C16.4268 9.51258 16.4268 9.98745 16.7197 10.2803L18.4393 12L16.7197 13.7197C16.4268 14.0126 16.4268 14.4875 16.7197 14.7803C17.0126 15.0732 17.4874 15.0732 17.7803 14.7803L19.5 13.0607L21.2197 14.7803C21.5126 15.0732 21.9874 15.0732 22.2803 14.7803C22.5732 14.4875 22.5732 14.0126 22.2803 13.7197L20.5607 12L22.2803 10.2803C22.5732 9.98745 22.5732 9.51258 22.2803 9.21969C21.9874 8.92679 21.5126 8.92679 21.2197 9.21969L19.5 10.9394L17.7803 9.21969Z" fill="#2563eb"/>

    </svg>
  </g>
  <!-- Icon 4: rectangle-group -->
  <g transform="translate(192, 92)">
    <rect width="48" height="48" fill="#ffffff" stroke="#e9ecef" stroke-width="1" rx="4"/>
    <svg x="8" y="8" width="32" height="32" viewBox="0 0 24 24">
      
<path fill-rule="evenodd" clip-rule="evenodd" d="M1.5 7.125C1.5 6.08947 2.33947 5.25 3.375 5.25H9.375C10.4105 5.25 11.25 6.08947 11.25 7.125V10.875C11.25 11.9105 10.4105 12.75 9.375 12.75H3.375C2.33947 12.75 1.5 11.9105 1.5 10.875V7.125ZM13.5 8.625C13.5 7.58947 14.3395 6.75 15.375 6.75H20.625C21.6605 6.75 22.5 7.58947 22.5 8.625V16.875C22.5 17.9105 21.6605 18.75 20.625 18.75H15.375C14.3395 18.75 13.5 17.9105 13.5 16.875V8.625ZM3 16.125C3 15.0895 3.83947 14.25 4.875 14.25H10.125C11.1605 14.25 12 15.0895 12 16.125V18.375C12 19.4105 11.1605 20.25 10.125 20.25H4.875C3.83947 20.25 3 19.4105 3 18.375V16.125Z" fill="#2563eb"/>

    </svg>
  </g>
  <!-- Icon 5: photo -->
  <g transform="translate(252, 92)">
    <rect width="48" height="48" fill="#ffffff" stroke="#e9ecef" stroke-width="1" rx="4"/>
    <svg x="8" y="8" width="32" height="32" viewBox="0 0 24 24">
      
<path fill-rule="evenodd" clip-rule="evenodd" d="M1.5 6C1.5 4.75736 2.50736 3.75 3.75 3.75H20.25C21.4926 3.75 22.5 4.75736 22.5 6V18C22.5 19.2426 21.4926 20.25 20.25 20.25H3.75C2.50736 20.25 1.5 19.2426 1.5 18V6ZM3 16.0607V18C3 18.4142 3.33579 18.75 3.75 18.75H20.25C20.6642 18.75 21 18.4142 21 18V16.0607L18.3107 13.3713C17.7249 12.7855 16.7751 12.7855 16.1893 13.3713L15.3107 14.25L16.2803 15.2197C16.5732 15.5126 16.5732 15.9874 16.2803 16.2803C15.9874 16.5732 15.5126 16.5732 15.2197 16.2803L10.0607 11.1213C9.47487 10.5355 8.52513 10.5355 7.93934 11.1213L3 16.0607ZM13.125 8.25C13.125 7.62868 13.6287 7.125 14.25 7.125C14.8713 7.125 15.375 7.62868 15.375 8.25C15.375 8.87132 14.8713 9.375 14.25 9.375C13.6287 9.375 13.125 8.87132 13.125 8.25Z" fill="#2563eb"/>

    </svg>
  </g>
  <!-- Icon 6: minus -->
  <g transform="translate(312, 92)">
    <rect width="48" height="48" fill="#ffffff" stroke="#e9ecef" stroke-width="1" rx="4"/>
    <svg x="8" y="8" width="32" height="32" viewBox="0 0 24 24">
      
<path fill-rule="evenodd" clip-rule="evenodd" d="M4.25 12C4.25 11.5858 4.58579 11.25 5 11.25H19C19.4142 11.25 19.75 11.5858 19.75 12C19.75 12.4142 19.4142 12.75 19 12.75H5C4.58579 12.75 4.25 12.4142 4.25 12Z" fill="#2563eb"/>

    </svg>
  </g>
  <!-- Icon 7: language -->
  <g transform="translate(372, 92)">
    <rect width="48" height="48" fill="#ffffff" stroke="#e9ecef" stroke-width="1" rx="4"/>
    <svg x="8" y="8" width="32" height="32" viewBox="0 0 24 24">
      
<path fill-rule="evenodd" clip-rule="evenodd" d="M8.99997 2.25C9.41419 2.25 9.74997 2.58579 9.74997 3V4.50565C10.6344 4.519 11.5131 4.55589 12.3856 4.61576C13.295 4.67816 14.1976 4.7655 15.0928 4.87713C15.5038 4.92838 15.7955 5.30314 15.7442 5.71417C15.693 6.1252 15.3182 6.41685 14.9072 6.3656C14.2477 6.28336 13.5839 6.21471 12.9162 6.15993C12.3254 8.46971 11.306 10.6074 9.94791 12.4834C10.2648 12.8666 10.5979 13.236 10.9462 13.5905C11.2365 13.8859 11.2324 14.3607 10.937 14.6511C10.6415 14.9414 10.1667 14.9373 9.87633 14.6419C9.57346 14.3337 9.28114 14.015 8.99997 13.6866C7.42884 15.522 5.50938 17.0501 3.3442 18.1686C2.97619 18.3587 2.52375 18.2145 2.33363 17.8465C2.14352 17.4785 2.28774 17.026 2.65575 16.8359C4.73754 15.7605 6.5721 14.2737 8.05205 12.4834C7.18596 11.2869 6.45754 9.984 5.89018 8.59774C5.73329 8.21439 5.91687 7.77643 6.30022 7.61954C6.68357 7.46265 7.12152 7.64622 7.27841 8.02957C7.74073 9.15919 8.31954 10.229 8.99997 11.2242C10.0649 9.66674 10.881 7.92604 11.3912 6.05944C10.5992 6.01997 9.80193 6 8.99997 6C6.99911 6 5.02763 6.12433 3.09278 6.3656C2.68175 6.41685 2.30699 6.1252 2.25574 5.71417C2.20448 5.30314 2.49614 4.92838 2.90717 4.87713C4.66111 4.65841 6.44376 4.5329 8.24997 4.50565V3C8.24997 2.58579 8.58576 2.25 8.99997 2.25ZM15.75 9C16.0414 9 16.3064 9.16878 16.4296 9.43284L21.6796 20.6828C21.8548 21.0582 21.6925 21.5045 21.3171 21.6796C20.9418 21.8548 20.4955 21.6925 20.3203 21.3172L19.1223 18.75H12.3776L11.1796 21.3172C11.0044 21.6925 10.5582 21.8548 10.1828 21.6796C9.80746 21.5045 9.64517 21.0582 9.82034 20.6828L15.0703 9.43284C15.1936 9.16878 15.4586 9 15.75 9ZM13.0776 17.25H18.4223L15.75 11.5235L13.0776 17.25Z" fill="#2563eb"/>

    </svg>
  </g>
  <!-- Icon 8: globe-europe-africa -->
  <g transform="translate(12, 152)">
    <rect width="48" height="48" fill="#ffffff" stroke="#e9ecef" stroke-width="1" rx="4"/>
    <svg x="8" y="8" width="32" height="32" viewBox="0 0 24 24">
      
<path fill-rule="evenodd" clip-rule="evenodd" d="M12 2.25C6.61522 2.25 2.25 6.61522 2.25 12C2.25 17.3848 6.61522 21.75 12 21.75C17.3848 21.75 21.75 17.3848 21.75 12C21.75 6.61522 17.3848 2.25 12 2.25ZM8.54688 4.50525C5.71517 5.8121 3.75 8.67655 3.75 12C3.75 16.5563 7.44365 20.25 12 20.25C16.3141 20.25 19.8548 16.9387 20.2191 12.7191L19.7582 12.2582C19.5872 12.0872 19.4449 11.8897 19.3367 11.6734L18.2567 9.5133C18.1304 9.26078 17.7939 9.20616 17.5942 9.4058C17.3818 9.61824 17.0709 9.69881 16.782 9.61627L15.5091 9.25259C15.0257 9.11447 14.524 9.40424 14.402 9.892C14.3109 10.2566 14.4588 10.6392 14.7715 10.8476L15.3582 11.2388C15.9489 11.6326 16.0317 12.4684 15.5297 12.9703L15.3295 13.1705C15.1186 13.3815 15 13.6676 15 13.966V14.3768C15 14.7846 14.8892 15.1847 14.6794 15.5344L13.3648 17.7254C12.9834 18.3611 12.2965 18.75 11.5552 18.75C10.9724 18.75 10.5 18.2776 10.5 17.6948V16.5233C10.5 15.6033 9.93989 14.7759 9.08565 14.4343L8.43151 14.1726C7.44978 13.7799 6.87393 12.7566 7.04776 11.7136L7.05479 11.6714C7.1012 11.393 7.19959 11.1257 7.34482 10.8837L7.43423 10.7347C7.92346 9.91928 8.87244 9.49948 9.80485 9.68597L10.9827 9.92153C11.5574 10.0365 12.124 9.69096 12.285 9.12744L12.4935 8.39774C12.6423 7.87721 12.3991 7.32456 11.9149 7.08245L11.25 6.75L11.159 6.84099C10.7371 7.26295 10.1648 7.5 9.56805 7.5H9.38712C9.13927 7.5 8.90098 7.59905 8.72572 7.7743C8.44225 8.05778 8.00817 8.12907 7.64961 7.94979C7.16435 7.70716 6.98836 7.10278 7.26749 6.63757L8.54688 4.50525Z" fill="#2563eb"/>

    </svg>
  </g>
  <!-- Icon 9: face-smile -->
  <g transform="translate(72, 152)">
    <rect width="48" height="48" fill="#ffffff" stroke="#e9ecef" stroke-width="1" rx="4"/>
    <svg x="8" y="8" width="32" height="32" viewBox="0 0 24 24">
      
<path fill-rule="evenodd" clip-rule="evenodd" d="M12 2.25C6.61522 2.25 2.25 6.61522 2.25 12C2.25 17.3848 6.61522 21.75 12 21.75C17.3848 21.75 21.75 17.3848 21.75 12C21.75 6.61522 17.3848 2.25 12 2.25ZM9.375 8.25C8.83433 8.25 8.54674 8.66881 8.43901 8.88426C8.30886 9.14457 8.25 9.45171 8.25 9.75C8.25 10.0483 8.30886 10.3554 8.43901 10.6157C8.54674 10.8312 8.83433 11.25 9.375 11.25C9.91567 11.25 10.2033 10.8312 10.311 10.6157C10.4411 10.3554 10.5 10.0483 10.5 9.75C10.5 9.45171 10.4411 9.14457 10.311 8.88426C10.2033 8.66881 9.91567 8.25 9.375 8.25ZM13.689 8.88426C13.7967 8.66881 14.0843 8.25 14.625 8.25C15.1657 8.25 15.4533 8.66881 15.561 8.88426C15.6911 9.14457 15.75 9.45171 15.75 9.75C15.75 10.0483 15.6911 10.3554 15.561 10.6157C15.4533 10.8312 15.1657 11.25 14.625 11.25C14.0843 11.25 13.7967 10.8312 13.689 10.6157C13.5589 10.3554 13.5 10.0483 13.5 9.75C13.5 9.45171 13.5589 9.14457 13.689 8.88426ZM15.7123 15.7123C16.0052 15.4194 16.0052 14.9446 15.7123 14.6517C15.4194 14.3588 14.9445 14.3588 14.6517 14.6517C13.1872 16.1161 10.8128 16.1161 9.34835 14.6517C9.05546 14.3588 8.58058 14.3588 8.28769 14.6517C7.9948 14.9446 7.9948 15.4194 8.28769 15.7123C10.3379 17.7626 13.6621 17.7626 15.7123 15.7123Z" fill="#2563eb"/>

    </svg>
  </g>
  <!-- Icon 10: document-duplicate -->
  <g transform="translate(132, 152)">
    <rect width="48" height="48" fill="#ffffff" stroke="#e9ecef" stroke-width="1" rx="4"/>
    <svg x="8" y="8" width="32" height="32" viewBox="0 0 24 24">
      
<path d="M7.5 3.375C7.5 2.33947 8.33947 1.5 9.375 1.5H9.75C11.8211 1.5 13.5 3.17893 13.5 5.25V7.125C13.5 8.16053 14.3395 9 15.375 9H17.25C19.3211 9 21 10.6789 21 12.75V16.125C21 17.1605 20.1605 18 19.125 18H9.375C8.33947 18 7.5 17.1605 7.5 16.125V3.375Z" fill="#2563eb"/>
<path d="M15 5.25C15 3.93695 14.518 2.73648 13.7212 1.8159C17.1201 2.70377 19.7962 5.37988 20.6841 8.77881C19.7635 7.98204 18.5631 7.5 17.25 7.5H15.375C15.1679 7.5 15 7.33211 15 7.125V5.25Z" fill="#2563eb"/>
<path d="M4.875 6H6V16.125C6 17.989 7.51104 19.5 9.375 19.5H16.5V20.625C16.5 21.6605 15.6605 22.5 14.625 22.5H4.875C3.83947 22.5 3 21.6605 3 20.625V7.875C3 6.83947 3.83947 6 4.875 6Z" fill="#2563eb"/>

    </svg>
  </g>
  <!-- Icon 11: currency-pound -->
  <g transform="translate(192, 152)">
    <rect width="48" height="48" fill="#ffffff" stroke="#e9ecef" stroke-width="1" rx="4"/>
    <svg x="8" y="8" width="32" height="32" viewBox="0 0 24 24">
      
<path fill-rule="evenodd" clip-rule="evenodd" d="M12 2.25C6.61522 2.25 2.25 6.61522 2.25 12C2.25 17.3848 6.61522 21.75 12 21.75C17.3848 21.75 21.75 17.3848 21.75 12C21.75 6.61522 17.3848 2.25 12 2.25ZM9.76273 9.51002C9.81529 9.01621 10.0302 8.53785 10.409 8.15901C11.2877 7.28033 12.7123 7.28033 13.591 8.15901C13.8839 8.4519 14.3588 8.4519 14.6517 8.15901C14.9445 7.86612 14.9445 7.39124 14.6517 7.09835C13.1872 5.63388 10.8128 5.63388 9.34835 7.09835C8.7183 7.7284 8.3587 8.52881 8.27116 9.35126C8.23849 9.6582 8.27044 9.94628 8.30277 10.1726L8.45668 11.25H8.25C7.83579 11.25 7.5 11.5858 7.5 12C7.5 12.4142 7.83579 12.75 8.25 12.75H8.67097L8.80874 13.7144C8.91661 14.4695 8.79165 15.2396 8.45053 15.9218L8.32918 16.1645C8.19352 16.4358 8.23466 16.7621 8.43341 16.9913C8.63216 17.2205 8.94939 17.3074 9.23717 17.2114L10.7757 16.6986C11.0836 16.596 11.4164 16.596 11.7243 16.6986L12.3787 16.9167C13.1335 17.1683 13.9573 17.1098 14.669 16.7539L15.3354 16.4207C15.7059 16.2355 15.8561 15.785 15.6708 15.4145C15.4856 15.044 15.0351 14.8939 14.6646 15.0791L13.9982 15.4123C13.6424 15.5902 13.2304 15.6195 12.853 15.4937L12.1987 15.2756C11.5829 15.0703 10.9171 15.0703 10.3013 15.2756L10.2401 15.296C10.3601 14.7089 10.3794 14.1022 10.2937 13.5023L10.1862 12.75H12C12.4142 12.75 12.75 12.4142 12.75 12C12.75 11.5858 12.4142 11.25 12 11.25H9.97191L9.7877 9.9605C9.7598 9.76518 9.75032 9.62664 9.76273 9.51002Z" fill="#2563eb"/>

    </svg>
  </g>
  <!-- Icon 12: clock -->
  <g transform="translate(252, 152)">
    <rect width="48" height="48" fill="#ffffff" stroke="#e9ecef" stroke-width="1" rx="4"/>
    <svg x="8" y="8" width="32" height="32" viewBox="0 0 24 24">
      
<path fill-rule="evenodd" clip-rule="evenodd" d="M12 2.25C6.61522 2.25 2.25 6.61522 2.25 12C2.25 17.3848 6.61522 21.75 12 21.75C17.3848 21.75 21.75 17.3848 21.75 12C21.75 6.61522 17.3848 2.25 12 2.25ZM12.75 6C12.75 5.58579 12.4142 5.25 12 5.25C11.5858 5.25 11.25 5.58579 11.25 6V12C11.25 12.4142 11.5858 12.75 12 12.75H16.5C16.9142 12.75 17.25 12.4142 17.25 12C17.25 11.5858 16.9142 11.25 16.5 11.25H12.75V6Z" fill="#2563eb"/>

    </svg>
  </g>
  <!-- Icon 13: chat-bubble-oval-left -->
  <g transform="translate(312, 152)">
    <rect width="48" height="48" fill="#ffffff" stroke="#e9ecef" stroke-width="1" rx="4"/>
    <svg x="8" y="8" width="32" height="32" viewBox="0 0 24 24">
      
<path fill-rule="evenodd" clip-rule="evenodd" d="M5.33691 21.7178C5.15732 21.7003 4.9793 21.6757 4.80365 21.6442C4.5396 21.597 4.3209 21.4123 4.23008 21.1599C4.13927 20.9075 4.19016 20.6258 4.36357 20.4211C4.76687 19.9451 5.05254 19.3685 5.17822 18.7349C5.20107 18.6196 5.15571 18.4182 4.92371 18.1923C3.2746 16.5871 2.25 14.4086 2.25 12C2.25 6.96934 6.67799 3 12 3C17.322 3 21.75 6.96934 21.75 12C21.75 17.0307 17.322 21 12 21C11.1668 21 10.3569 20.9034 9.58317 20.7213C8.54447 21.3731 7.3153 21.75 6 21.75C5.77647 21.75 5.55516 21.7391 5.33691 21.7178Z" fill="#2563eb"/>

    </svg>
  </g>
  <!-- Icon 14: building-office-2 -->
  <g transform="translate(372, 152)">
    <rect width="48" height="48" fill="#ffffff" stroke="#e9ecef" stroke-width="1" rx="4"/>
    <svg x="8" y="8" width="32" height="32" viewBox="0 0 24 24">
      
<path fill-rule="evenodd" clip-rule="evenodd" d="M3 2.25C2.58579 2.25 2.25 2.58579 2.25 3C2.25 3.41421 2.58579 3.75 3 3.75V20.25H2.25C1.83579 20.25 1.5 20.5858 1.5 21C1.5 21.4142 1.83579 21.75 2.25 21.75H15V3.75C15.4142 3.75 15.75 3.41421 15.75 3C15.75 2.58579 15.4142 2.25 15 2.25H3ZM6.75 19.5V17.25C6.75 16.8358 7.08579 16.5 7.5 16.5H10.5C10.9142 16.5 11.25 16.8358 11.25 17.25V19.5C11.25 19.9142 10.9142 20.25 10.5 20.25H7.5C7.08579 20.25 6.75 19.9142 6.75 19.5ZM6 6.75C6 6.33579 6.33579 6 6.75 6H7.5C7.91421 6 8.25 6.33579 8.25 6.75C8.25 7.16421 7.91421 7.5 7.5 7.5H6.75C6.33579 7.5 6 7.16421 6 6.75ZM6.75 9C6.33579 9 6 9.33579 6 9.75C6 10.1642 6.33579 10.5 6.75 10.5H7.5C7.91421 10.5 8.25 10.1642 8.25 9.75C8.25 9.33579 7.91421 9 7.5 9H6.75ZM6 12.75C6 12.3358 6.33579 12 6.75 12H7.5C7.91421 12 8.25 12.3358 8.25 12.75C8.25 13.1642 7.91421 13.5 7.5 13.5H6.75C6.33579 13.5 6 13.1642 6 12.75ZM10.5 6C10.0858 6 9.75 6.33579 9.75 6.75C9.75 7.16421 10.0858 7.5 10.5 7.5H11.25C11.6642 7.5 12 7.16421 12 6.75C12 6.33579 11.6642 6 11.25 6H10.5ZM9.75 9.75C9.75 9.33579 10.0858 9 10.5 9H11.25C11.6642 9 12 9.33579 12 9.75C12 10.1642 11.6642 10.5 11.25 10.5H10.5C10.0858 10.5 9.75 10.1642 9.75 9.75ZM10.5 12C10.0858 12 9.75 12.3358 9.75 12.75C9.75 13.1642 10.0858 13.5 10.5 13.5H11.25C11.6642 13.5 12 13.1642 12 12.75C12 12.3358 11.6642 12 11.25 12H10.5Z" fill="#2563eb"/>
<path fill-rule="evenodd" clip-rule="evenodd" d="M16.5 6.75V21.75H21.75C22.1642 21.75 22.5 21.4142 22.5 21C22.5 20.5858 22.1642 20.25 21.75 20.25H21V8.25C21.4142 8.25 21.75 7.91421 21.75 7.5C21.75 7.08579 21.4142 6.75 21 6.75H16.5ZM18 11.25C18 10.8358 18.3358 10.5 18.75 10.5H18.7575C19.1717 10.5 19.5075 10.8358 19.5075 11.25V11.2575C19.5075 11.6717 19.1717 12.0075 18.7575 12.0075H18.75C18.3358 12.0075 18 11.6717 18 11.2575V11.25ZM18.75 13.5C18.3358 13.5 18 13.8358 18 14.25V14.2575C18 14.6717 18.3358 15.0075 18.75 15.0075H18.7575C19.1717 15.0075 19.5075 14.6717 19.5075 14.2575V14.25C19.5075 13.8358 19.1717 13.5 18.7575 13.5H18.75ZM18 17.25C18 16.8358 18.3358 16.5 18.75 16.5H18.7575C19.1717 16.5 19.5075 16.8358 19.5075 17.25V17.2575C19.5075 17.6717 19.1717 18.0075 18.7575 18.0075H18.75C18.3358 18.0075 18 17.6717 18 17.2575V17.25Z" fill="#2563eb"/>

    </svg>
  </g>
  <!-- Icon 15: battery-0 -->
  <g transform="translate(12, 212)">
    <rect width="48" height="48" fill="#ffffff" stroke="#e9ecef" stroke-width="1" rx="4"/>
    <svg x="8" y="8" width="32" height="32" viewBox="0 0 24 24">
      
<path fill-rule="evenodd" clip-rule="evenodd" d="M0.75 9.75C0.75 8.09315 2.09315 6.75 3.75 6.75H18.75C20.4069 6.75 21.75 8.09315 21.75 9.75V9.78751C22.6058 9.96123 23.25 10.7179 23.25 11.625V13.875C23.25 14.7821 22.6058 15.5388 21.75 15.7125V15.75C21.75 17.4069 20.4069 18.75 18.75 18.75H3.75C2.09315 18.75 0.75 17.4069 0.75 15.75V9.75ZM20.25 9.75C20.25 8.92157 19.5784 8.25 18.75 8.25H3.75C2.92157 8.25 2.25 8.92157 2.25 9.75V15.75C2.25 16.5784 2.92157 17.25 3.75 17.25H18.75C19.5784 17.25 20.25 16.5784 20.25 15.75V9.75Z" fill="#2563eb"/>

    </svg>
  </g>
  <!-- Icon 16: arrow-uturn-right -->
  <g transform="translate(72, 212)">
    <rect width="48" height="48" fill="#ffffff" stroke="#e9ecef" stroke-width="1" rx="4"/>
    <svg x="8" y="8" width="32" height="32" viewBox="0 0 24 24">
      
<path fill-rule="evenodd" clip-rule="evenodd" d="M14.4697 2.46967C14.7626 2.17678 15.2374 2.17678 15.5303 2.46967L21.5303 8.46967C21.8232 8.76256 21.8232 9.23744 21.5303 9.53033L15.5303 15.5303C15.2374 15.8232 14.7626 15.8232 14.4697 15.5303C14.1768 15.2374 14.1768 14.7626 14.4697 14.4697L19.1893 9.75H9C6.10051 9.75 3.75 12.1005 3.75 15C3.75 17.8995 6.10051 20.25 9 20.25H12C12.4142 20.25 12.75 20.5858 12.75 21C12.75 21.4142 12.4142 21.75 12 21.75H9C5.27208 21.75 2.25 18.7279 2.25 15C2.25 11.2721 5.27208 8.25 9 8.25H19.1893L14.4697 3.53033C14.1768 3.23744 14.1768 2.76256 14.4697 2.46967Z" fill="#2563eb"/>

    </svg>
  </g>
  <!-- Icon 17: arrow-trending-up -->
  <g transform="translate(132, 212)">
    <rect width="48" height="48" fill="#ffffff" stroke="#e9ecef" stroke-width="1" rx="4"/>
    <svg x="8" y="8" width="32" height="32" viewBox="0 0 24 24">
      
<path fill-rule="evenodd" clip-rule="evenodd" d="M15.2194 6.26793C15.3679 5.88122 15.8017 5.68808 16.1884 5.83652L22.1297 8.11716C22.3154 8.18844 22.4651 8.33057 22.546 8.51229C22.627 8.694 22.6324 8.90042 22.5611 9.08612L20.2804 15.0274C20.132 15.4141 19.6982 15.6072 19.3115 15.4588C18.9248 15.3104 18.7316 14.8765 18.8801 14.4898L20.5118 10.239L19.4253 10.7227C16.9721 11.815 15.1036 13.6758 13.975 15.8962C13.8662 16.1104 13.6614 16.2594 13.4241 16.2971C13.1869 16.3348 12.946 16.2566 12.7761 16.0868L9 12.3107L2.78033 18.5303C2.48744 18.8232 2.01256 18.8232 1.71967 18.5303C1.42678 18.2374 1.42678 17.7626 1.71967 17.4697L8.46967 10.7197C8.61032 10.579 8.80109 10.5 9 10.5C9.19891 10.5 9.38968 10.579 9.53033 10.7197L13.1363 14.3257C14.4369 12.2046 16.3711 10.4406 18.8152 9.35239L19.9017 8.86864L15.6508 7.23689C15.2641 7.08845 15.071 6.65463 15.2194 6.26793Z" fill="#2563eb"/>

    </svg>
  </g>
  <!-- Icon 18: arrow-left -->
  <g transform="translate(192, 212)">
    <rect width="48" height="48" fill="#ffffff" stroke="#e9ecef" stroke-width="1" rx="4"/>
    <svg x="8" y="8" width="32" height="32" viewBox="0 0 24 24">
      
<path fill-rule="evenodd" clip-rule="evenodd" d="M11.0303 3.96967C11.3232 4.26256 11.3232 4.73744 11.0303 5.03033L4.81066 11.25H21C21.4142 11.25 21.75 11.5858 21.75 12C21.75 12.4142 21.4142 12.75 21 12.75H4.81066L11.0303 18.9697C11.3232 19.2626 11.3232 19.7374 11.0303 20.0303C10.7374 20.3232 10.2626 20.3232 9.96967 20.0303L2.46967 12.5303C2.17678 12.2374 2.17678 11.7626 2.46967 11.4697L9.96967 3.96967C10.2626 3.67678 10.7374 3.67678 11.0303 3.96967Z" fill="#2563eb"/>

    </svg>
  </g>
  <!-- Icon 19: x-mark -->
  <g transform="translate(252, 212)">
    <rect width="48" height="48" fill="#ffffff" stroke="#e9ecef" stroke-width="1" rx="4"/>
    <svg x="8" y="8" width="32" height="32" viewBox="0 0 24 24">
      
  <path fill-rule="evenodd" d="M5.47 5.47a.75.75 0 0 1 1.06 0L12 10.94l5.47-5.47a.75.75 0 1 1 1.06 1.06L13.06 12l5.47 5.47a.75.75 0 1 1-1.06 1.06L12 13.06l-5.47 5.47a.75.75 0 0 1-1.06-1.06L10.94 12 5.47 6.53a.75.75 0 0 1 0-1.06Z" clip-rule="evenodd"/>

    </svg>
  </g>
  <!-- Icon 20: underline -->
  <g transform="translate(312, 212)">
    <rect width="48" height="48" fill="#ffffff" stroke="#e9ecef" stroke-width="1" rx="4"/>
    <svg x="8" y="8" width="32" height="32" viewBox="0 0 24 24">
      
  <path fill-rule="evenodd" d="M5.995 2.994a.75.75 0 0 1 .75.75v7.5a5.25 5.25 0 1 0 10.5 0v-7.5a.75.75 0 0 1 1.5 0v7.5a6.75 6.75 0 1 1-13.5 0v-7.5a.75.75 0 0 1 .75-.75Zm-3 17.252a.75.75 0 0 1 .75-.75h16.5a.75.75 0 0 1 0 1.5h-16.5a.75.75 0 0 1-.75-.75Z" clip-rule="evenodd"/>

    </svg>
  </g>
  <!-- Icon 21: speaker-x-mark -->
  <g transform="translate(372, 212)">
    <rect width="48" height="48" fill="#ffffff" stroke="#e9ecef" stroke-width="1" rx="4"/>
    <svg x="8" y="8" width="32" height="32" viewBox="0 0 24 24">
      
  <path d="M13.5 4.06c0-1.336-1.616-2.005-2.56-1.06l-4.5 4.5H4.508c-1.141 0-2.318.664-2.66 1.905A9.76 9.76 0 0 0 1.5 12c0 .898.121 1.768.35 2.595.341 1.24 1.518 1.905 2.659 1.905h1.93l4.5 4.5c.945.945 2.561.276 2.561-1.06V4.06ZM17.78 9.22a.75.75 0 1 0-1.06 1.06L18.44 12l-1.72 1.72a.75.75 0 1 0 1.06 1.06l1.72-1.72 1.72 1.72a.75.75 0 1 0 1.06-1.06L20.56 12l1.72-1.72a.75.75 0 1 0-1.06-1.06l-1.72 1.72-1.72-1.72Z"/>

    </svg>
  </g>
  <!-- Icon 22: rectangle-group -->
  <g transform="translate(12, 272)">
    <rect width="48" height="48" fill="#ffffff" stroke="#e9ecef" stroke-width="1" rx="4"/>
    <svg x="8" y="8" width="32" height="32" viewBox="0 0 24 24">
      
  <path fill-rule="evenodd" d="M1.5 7.125c0-1.036.84-1.875 1.875-1.875h6c1.036 0 1.875.84 1.875 1.875v3.75c0 1.036-.84 1.875-1.875 1.875h-6A1.875 1.875 0 0 1 1.5 10.875v-3.75Zm12 1.5c0-1.036.84-1.875 1.875-1.875h5.25c1.035 0 1.875.84 1.875 1.875v8.25c0 1.035-.84 1.875-1.875 1.875h-5.25a1.875 1.875 0 0 1-1.875-1.875v-8.25ZM3 16.125c0-1.036.84-1.875 1.875-1.875h5.25c1.036 0 1.875.84 1.875 1.875v2.25c0 1.035-.84 1.875-1.875 1.875h-5.25A1.875 1.875 0 0 1 3 18.375v-2.25Z" clip-rule="evenodd"/>

    </svg>
  </g>
  <!-- Icon 23: photo -->
  <g transform="translate(72, 272)">
    <rect width="48" height="48" fill="#ffffff" stroke="#e9ecef" stroke-width="1" rx="4"/>
    <svg x="8" y="8" width="32" height="32" viewBox="0 0 24 24">
      
  <path fill-rule="evenodd" d="M1.5 6a2.25 2.25 0 0 1 2.25-2.25h16.5A2.25 2.25 0 0 1 22.5 6v12a2.25 2.25 0 0 1-2.25 2.25H3.75A2.25 2.25 0 0 1 1.5 18V6ZM3 16.06V18c0 .414.336.75.75.75h16.5A.75.75 0 0 0 21 18v-1.94l-2.69-2.689a1.5 1.5 0 0 0-2.12 0l-.88.879.97.97a.75.75 0 1 1-1.06 1.06l-5.16-5.159a1.5 1.5 0 0 0-2.12 0L3 16.061Zm10.125-7.81a1.125 1.125 0 1 1 2.25 0 1.125 1.125 0 0 1-2.25 0Z" clip-rule="evenodd"/>

    </svg>
  </g>
  <!-- Icon 24: minus -->
  <g transform="translate(132, 272)">
    <rect width="48" height="48" fill="#ffffff" stroke="#e9ecef" stroke-width="1" rx="4"/>
    <svg x="8" y="8" width="32" height="32" viewBox="0 0 24 24">
      
  <path fill-rule="evenodd" d="M4.25 12a.75.75 0 0 1 .75-.75h14a.75.75 0 0 1 0 1.5H5a.75.75 0 0 1-.75-.75Z" clip-rule="evenodd"/>

    </svg>
  </g>
  <!-- Icon 25: language -->
  <g transform="translate(192, 272)">
    <rect width="48" height="48" fill="#ffffff" stroke="#e9ecef" stroke-width="1" rx="4"/>
    <svg x="8" y="8" width="32" height="32" viewBox="0 0 24 24">
      
  <path fill-rule="evenodd" d="M9 2.25a.75.75 0 0 1 .75.75v1.506a49.384 49.384 0 0 1 5.343.371.75.75 0 1 1-.186 1.489c-.66-.083-1.323-.151-1.99-.206a18.67 18.67 0 0 1-2.97 6.323c.318.384.65.753 1 1.107a.75.75 0 0 1-1.07 1.052A18.902 18.902 0 0 1 9 13.687a18.823 18.823 0 0 1-5.656 4.482.75.75 0 0 1-.688-1.333 17.323 17.323 0 0 0 5.396-4.353A18.72 18.72 0 0 1 5.89 8.598a.75.75 0 0 1 1.388-.568A17.21 17.21 0 0 0 9 11.224a17.168 17.168 0 0 0 2.391-5.165 48.04 48.04 0 0 0-8.298.307.75.75 0 0 1-.186-1.489 49.159 49.159 0 0 1 5.343-.371V3A.75.75 0 0 1 9 2.25ZM15.75 9a.75.75 0 0 1 .68.433l5.25 11.25a.75.75 0 1 1-1.36.634l-1.198-2.567h-6.744l-1.198 2.567a.75.75 0 0 1-1.36-.634l5.25-11.25A.75.75 0 0 1 15.75 9Zm-2.672 8.25h5.344l-2.672-5.726-2.672 5.726Z" clip-rule="evenodd"/>

    </svg>
  </g>
  <!-- Icon 26: globe-europe-africa -->
  <g transform="translate(252, 272)">
    <rect width="48" height="48" fill="#ffffff" stroke="#e9ecef" stroke-width="1" rx="4"/>
    <svg x="8" y="8" width="32" height="32" viewBox="0 0 24 24">
      
  <path fill-rule="evenodd" d="M12 2.25c-5.385 0-9.75 4.365-9.75 9.75s4.365 9.75 9.75 9.75 9.75-4.365 9.75-9.75S17.385 2.25 12 2.25ZM8.547 4.505a8.25 8.25 0 1 0 11.672 8.214l-.46-.46a2.252 2.252 0 0 1-.422-.586l-1.08-2.16a.414.414 0 0 0-.663-.107.827.827 0 0 1-.812.21l-1.273-.363a.89.89 0 0 0-.738 1.595l.587.39c.59.395.674 1.23.172 1.732l-.2.2c-.211.212-.33.498-.33.796v.41c0 .409-.11.809-.32 1.158l-1.315 2.191a2.11 2.11 0 0 1-1.81 1.025 1.055 1.055 0 0 1-1.055-1.055v-1.172c0-.92-.56-1.747-1.414-2.089l-.654-.261a2.25 2.25 0 0 1-1.384-2.46l.007-.042a2.25 2.25 0 0 1 .29-.787l.09-.15a2.25 2.25 0 0 1 2.37-1.048l1.178.236a1.125 1.125 0 0 0 1.302-.795l.208-.73a1.125 1.125 0 0 0-.578-1.315l-.665-.332-.091.091a2.25 2.25 0 0 1-1.591.659h-.18c-.249 0-.487.1-.662.274a.931.931 0 0 1-1.458-1.137l1.279-2.132Z" clip-rule="evenodd"/>

    </svg>
  </g>
  <!-- Icon 27: face-smile -->
  <g transform="translate(312, 272)">
    <rect width="48" height="48" fill="#ffffff" stroke="#e9ecef" stroke-width="1" rx="4"/>
    <svg x="8" y="8" width="32" height="32" viewBox="0 0 24 24">
      
  <path fill-rule="evenodd" d="M12 2.25c-5.385 0-9.75 4.365-9.75 9.75s4.365 9.75 9.75 9.75 9.75-4.365 9.75-9.75S17.385 2.25 12 2.25Zm-2.625 6c-.54 0-.828.419-.936.634a1.96 1.96 0 0 0-.189.866c0 .298.059.605.189.866.108.215.395.634.936.634.54 0 .828-.419.936-.634.13-.26.189-.568.189-.866 0-.298-.059-.605-.189-.866-.108-.215-.395-.634-.936-.634Zm4.314.634c.108-.215.395-.634.936-.634.54 0 .828.419.936.634.13.26.189.568.189.866 0 .298-.059.605-.189.866-.108.215-.395.634-.936.634-.54 0-.828-.419-.936-.634a1.96 1.96 0 0 1-.189-.866c0-.298.059-.605.189-.866Zm2.023 6.828a.75.75 0 1 0-1.06-1.06 3.75 3.75 0 0 1-5.304 0 .75.75 0 0 0-1.06 1.06 5.25 5.25 0 0 0 7.424 0Z" clip-rule="evenodd"/>

    </svg>
  </g>
  <!-- Icon 28: document-duplicate -->
  <g transform="translate(372, 272)">
    <rect width="48" height="48" fill="#ffffff" stroke="#e9ecef" stroke-width="1" rx="4"/>
    <svg x="8" y="8" width="32" height="32" viewBox="0 0 24 24">
      
  <path d="M7.5 3.375c0-1.036.84-1.875 1.875-1.875h.375a3.75 3.75 0 0 1 3.75 3.75v1.875C13.5 8.161 14.34 9 15.375 9h1.875A3.75 3.75 0 0 1 21 12.75v3.375C21 17.16 20.16 18 19.125 18h-9.75A1.875 1.875 0 0 1 7.5 16.125V3.375Z"/>
  <path d="M15 5.25a5.23 5.23 0 0 0-1.279-3.434 9.768 9.768 0 0 1 6.963 6.963A5.23 5.23 0 0 0 17.25 7.5h-1.875A.375.375 0 0 1 15 7.125V5.25ZM4.875 6H6v10.125A3.375 3.375 0 0 0 9.375 19.5H16.5v1.125c0 1.035-.84 1.875-1.875 1.875h-9.75A1.875 1.875 0 0 1 3 20.625V7.875C3 6.839 3.84 6 4.875 6Z"/>

    </svg>
  </g>
  <!-- Icon 29: currency-pound -->
  <g transform="translate(12, 332)">
    <rect width="48" height="48" fill="#ffffff" stroke="#e9ecef" stroke-width="1" rx="4"/>
    <svg x="8" y="8" width="32" height="32" viewBox="0 0 24 24">
      
  <path fill-rule="evenodd" d="M12 2.25c-5.385 0-9.75 4.365-9.75 9.75s4.365 9.75 9.75 9.75 9.75-4.365 9.75-9.75S17.385 2.25 12 2.25ZM9.763 9.51a2.25 2.25 0 0 1 3.828-1.351.75.75 0 0 0 1.06-1.06 3.75 3.75 0 0 0-6.38 2.252c-.033.307 0 .595.032.822l.154 1.077H8.25a.75.75 0 0 0 0 1.5h.421l.138.964a3.75 3.75 0 0 1-.358 2.208l-.122.242a.75.75 0 0 0 .908 1.047l1.539-.512a1.5 1.5 0 0 1 .948 0l.655.218a3 3 0 0 0 2.29-.163l.666-.333a.75.75 0 1 0-.67-1.342l-.667.333a1.5 1.5 0 0 1-1.145.082l-.654-.218a3 3 0 0 0-1.898 0l-.06.02a5.25 5.25 0 0 0 .053-1.794l-.108-.752H12a.75.75 0 0 0 0-1.5H9.972l-.184-1.29a1.863 1.863 0 0 1-.025-.45Z" clip-rule="evenodd"/>

    </svg>
  </g>
  <!-- Icon 30: clock -->
  <g transform="translate(72, 332)">
    <rect width="48" height="48" fill="#ffffff" stroke="#e9ecef" stroke-width="1" rx="4"/>
    <svg x="8" y="8" width="32" height="32" viewBox="0 0 24 24">
      
  <path fill-rule="evenodd" d="M12 2.25c-5.385 0-9.75 4.365-9.75 9.75s4.365 9.75 9.75 9.75 9.75-4.365 9.75-9.75S17.385 2.25 12 2.25ZM12.75 6a.75.75 0 0 0-1.5 0v6c0 .414.336.75.75.75h4.5a.75.75 0 0 0 0-1.5h-3.75V6Z" clip-rule="evenodd"/>

    </svg>
  </g>
  <!-- Icon 31: chat-bubble-oval-left -->
  <g transform="translate(132, 332)">
    <rect width="48" height="48" fill="#ffffff" stroke="#e9ecef" stroke-width="1" rx="4"/>
    <svg x="8" y="8" width="32" height="32" viewBox="0 0 24 24">
      
  <path fill-rule="evenodd" d="M5.337 21.718a6.707 6.707 0 0 1-.533-.074.75.75 0 0 1-.44-1.223 3.73 3.73 0 0 0 .814-1.686c.023-.115-.022-.317-.254-.543C3.274 16.587 2.25 14.41 2.25 12c0-5.03 4.428-9 9.75-9s9.75 3.97 9.75 9c0 5.03-4.428 9-9.75 9-.833 0-1.643-.097-2.417-.279a6.721 6.721 0 0 1-4.246.997Z" clip-rule="evenodd"/>

    </svg>
  </g>
  <!-- Icon 32: building-office-2 -->
  <g transform="translate(192, 332)">
    <rect width="48" height="48" fill="#ffffff" stroke="#e9ecef" stroke-width="1" rx="4"/>
    <svg x="8" y="8" width="32" height="32" viewBox="0 0 24 24">
      
  <path fill-rule="evenodd" d="M3 2.25a.75.75 0 0 0 0 1.5v16.5h-.75a.75.75 0 0 0 0 1.5H15v-18a.75.75 0 0 0 0-1.5H3ZM6.75 19.5v-2.25a.75.75 0 0 1 .75-.75h3a.75.75 0 0 1 .75.75v2.25a.75.75 0 0 1-.75.75h-3a.75.75 0 0 1-.75-.75ZM6 6.75A.75.75 0 0 1 6.75 6h.75a.75.75 0 0 1 0 1.5h-.75A.75.75 0 0 1 6 6.75ZM6.75 9a.75.75 0 0 0 0 1.5h.75a.75.75 0 0 0 0-1.5h-.75ZM6 12.75a.75.75 0 0 1 .75-.75h.75a.75.75 0 0 1 0 1.5h-.75a.75.75 0 0 1-.75-.75ZM10.5 6a.75.75 0 0 0 0 1.5h.75a.75.75 0 0 0 0-1.5h-.75Zm-.75 3.75A.75.75 0 0 1 10.5 9h.75a.75.75 0 0 1 0 1.5h-.75a.75.75 0 0 1-.75-.75ZM10.5 12a.75.75 0 0 0 0 1.5h.75a.75.75 0 0 0 0-1.5h-.75ZM16.5 6.75v15h5.25a.75.75 0 0 0 0-1.5H21v-12a.75.75 0 0 0 0-1.5h-4.5Zm1.5 4.5a.75.75 0 0 1 .75-.75h.008a.75.75 0 0 1 .75.75v.008a.75.75 0 0 1-.75.75h-.008a.75.75 0 0 1-.75-.75v-.008Zm.75 2.25a.75.75 0 0 0-.75.75v.008c0 .414.336.75.75.75h.008a.75.75 0 0 0 .75-.75v-.008a.75.75 0 0 0-.75-.75h-.008ZM18 17.25a.75.75 0 0 1 .75-.75h.008a.75.75 0 0 1 .75.75v.008a.75.75 0 0 1-.75.75h-.008a.75.75 0 0 1-.75-.75v-.008Z" clip-rule="evenodd"/>

    </svg>
  </g>
  <!-- Icon 33: battery-0 -->
  <g transform="translate(252, 332)">
    <rect width="48" height="48" fill="#ffffff" stroke="#e9ecef" stroke-width="1" rx="4"/>
    <svg x="8" y="8" width="32" height="32" viewBox="0 0 24 24">
      
  <path fill-rule="evenodd" d="M.75 9.75a3 3 0 0 1 3-3h15a3 3 0 0 1 3 3v.038c.856.173 1.5.93 1.5 1.837v2.25c0 .907-.644 1.664-1.5 1.838v.037a3 3 0 0 1-3 3h-15a3 3 0 0 1-3-3v-6Zm19.5 0a1.5 1.5 0 0 0-1.5-1.5h-15a1.5 1.5 0 0 0-1.5 1.5v6a1.5 1.5 0 0 0 1.5 1.5h15a1.5 1.5 0 0 0 1.5-1.5v-6Z" clip-rule="evenodd"/>

    </svg>
  </g>
  <!-- Icon 34: arrow-uturn-right -->
  <g transform="translate(312, 332)">
    <rect width="48" height="48" fill="#ffffff" stroke="#e9ecef" stroke-width="1" rx="4"/>
    <svg x="8" y="8" width="32" height="32" viewBox="0 0 24 24">
      
  <path fill-rule="evenodd" d="M14.47 2.47a.75.75 0 0 1 1.06 0l6 6a.75.75 0 0 1 0 1.06l-6 6a.75.75 0 1 1-1.06-1.06l4.72-4.72H9a5.25 5.25 0 1 0 0 10.5h3a.75.75 0 0 1 0 1.5H9a6.75 6.75 0 0 1 0-13.5h10.19l-4.72-4.72a.75.75 0 0 1 0-1.06Z" clip-rule="evenodd"/>

    </svg>
  </g>
  <!-- Icon 35: arrow-trending-up -->
  <g transform="translate(372, 332)">
    <rect width="48" height="48" fill="#ffffff" stroke="#e9ecef" stroke-width="1" rx="4"/>
    <svg x="8" y="8" width="32" height="32" viewBox="0 0 24 24">
      
  <path fill-rule="evenodd" d="M15.22 6.268a.75.75 0 0 1 .968-.431l5.942 2.28a.75.75 0 0 1 .431.97l-2.28 5.94a.75.75 0 1 1-1.4-.537l1.63-4.251-1.086.484a11.2 11.2 0 0 0-5.45 5.173.75.75 0 0 1-1.199.19L9 12.312l-6.22 6.22a.75.75 0 0 1-1.06-1.061l6.75-6.75a.75.75 0 0 1 1.06 0l3.606 3.606a12.695 12.695 0 0 1 5.68-4.974l1.086-.483-4.251-1.632a.75.75 0 0 1-.432-.97Z" clip-rule="evenodd"/>

    </svg>
  </g>
  
  <!-- Footer -->
  <text x="400" y="580" text-anchor="middle" font-family="system-ui, -apple-system, sans-serif" font-size="12" fill="#6c757d">
    Showing 35 of 648 icons
  </text>
  
</svg>