<svg width="800" height="600" xmlns="http://www.w3.org/2000/svg">
  <!-- Background -->
  <rect width="800" height="600" fill="#ffffff"/>
  
  <!-- Header Background -->
  <rect width="800" height="80" fill="#f8f9fa"/>
  
  <!-- Title -->
  <text x="400" y="30" text-anchor="middle" font-family="system-ui, -apple-system, sans-serif" font-size="20" font-weight="bold" fill="#212529">Heroicons - 16-solid</text>
  
  <!-- Subtitle -->
  <text x="400" y="55" text-anchor="middle" font-family="system-ui, -apple-system, sans-serif" font-size="14" fill="#6c757d">632 icons</text>
  
  <!-- Icon Grid -->
  <!-- Icon 1: x-mark -->
  <g transform="translate(12, 92)">
    <rect width="48" height="48" fill="#ffffff" stroke="#e9ecef" stroke-width="1" rx="4"/>
    <svg x="8" y="8" width="32" height="32" viewBox="0 0 16 16">
      
<path d="M5.28033 4.21967C4.98744 3.92678 4.51256 3.92678 4.21967 4.21967C3.92678 4.51256 3.92678 4.98744 4.21967 5.28033L6.93934 8L4.21967 10.7197C3.92678 11.0126 3.92678 11.4874 4.21967 11.7803C4.51256 12.0732 4.98744 12.0732 5.28033 11.7803L8 9.06066L10.7197 11.7803C11.0126 12.0732 11.4874 12.0732 11.7803 11.7803C12.0732 11.4874 12.0732 11.0126 11.7803 10.7197L9.06066 8L11.7803 5.28033C12.0732 4.98744 12.0732 4.51256 11.7803 4.21967C11.4874 3.92678 11.0126 3.92678 10.7197 4.21967L8 6.93934L5.28033 4.21967Z" fill="#2563eb"/>

    </svg>
  </g>
  <!-- Icon 2: underline -->
  <g transform="translate(72, 92)">
    <rect width="48" height="48" fill="#ffffff" stroke="#e9ecef" stroke-width="1" rx="4"/>
    <svg x="8" y="8" width="32" height="32" viewBox="0 0 16 16">
      
<path fill-rule="evenodd" clip-rule="evenodd" d="M4.75 2C5.16421 2 5.5 2.33579 5.5 2.75V7C5.5 8.38071 6.61929 9.5 8 9.5C9.38071 9.5 10.5 8.38071 10.5 7V2.75C10.5 2.33579 10.8358 2 11.25 2C11.6642 2 12 2.33579 12 2.75V7C12 9.20914 10.2091 11 8 11C5.79086 11 4 9.20914 4 7V2.75C4 2.33579 4.33579 2 4.75 2ZM2 13.25C2 12.8358 2.33579 12.5 2.75 12.5H13.25C13.6642 12.5 14 12.8358 14 13.25C14 13.6642 13.6642 14 13.25 14H2.75C2.33579 14 2 13.6642 2 13.25Z" fill="#2563eb"/>

    </svg>
  </g>
  <!-- Icon 3: speaker-x-mark -->
  <g transform="translate(132, 92)">
    <rect width="48" height="48" fill="#ffffff" stroke="#e9ecef" stroke-width="1" rx="4"/>
    <svg x="8" y="8" width="32" height="32" viewBox="0 0 16 16">
      
<path d="M7.55724 2.06583C7.82667 2.18682 8 2.45467 8 2.75001V13.25C8 13.5454 7.82667 13.8132 7.55724 13.9342C7.28782 14.0552 6.97247 14.0068 6.75173 13.8106L3.58984 11H2C1.44772 11 1 10.5523 1 10V6C1 5.44772 1.44772 5 2 5H3.58987L6.75173 2.18946C6.97247 1.99324 7.28782 1.94484 7.55724 2.06583Z" fill="#2563eb"/>
<path d="M11.2803 5.71967C10.9874 5.42678 10.5126 5.42678 10.2197 5.71967C9.92678 6.01256 9.92678 6.48744 10.2197 6.78033L11.4393 8L10.2197 9.21967C9.92678 9.51256 9.92678 9.98744 10.2197 10.2803C10.5126 10.5732 10.9874 10.5732 11.2803 10.2803L12.5 9.06066L13.7197 10.2803C14.0126 10.5732 14.4874 10.5732 14.7803 10.2803C15.0732 9.98744 15.0732 9.51256 14.7803 9.21967L13.5607 8L14.7803 6.78033C15.0732 6.48744 15.0732 6.01256 14.7803 5.71967C14.4874 5.42678 14.0126 5.42678 13.7197 5.71967L12.5 6.93934L11.2803 5.71967Z" fill="#2563eb"/>

    </svg>
  </g>
  <!-- Icon 4: rectangle-group -->
  <g transform="translate(192, 92)">
    <rect width="48" height="48" fill="#ffffff" stroke="#e9ecef" stroke-width="1" rx="4"/>
    <svg x="8" y="8" width="32" height="32" viewBox="0 0 16 16">
      
<path d="M1 4C1 3.44772 1.44772 3 2 3H7C7.55228 3 8 3.44772 8 4V7C8 7.55228 7.55228 8 7 8H2C1.44772 8 1 7.55228 1 7V4Z" fill="#2563eb"/>
<path d="M10 5C10 4.44772 10.4477 4 11 4H14C14.5523 4 15 4.44772 15 5V11C15 11.5523 14.5523 12 14 12H11C10.4477 12 10 11.5523 10 11V5Z" fill="#2563eb"/>
<path d="M4 10C3.44772 10 3 10.4477 3 11V12C3 12.5523 3.44772 13 4 13H8C8.55228 13 9 12.5523 9 12V11C9 10.4477 8.55228 10 8 10H4Z" fill="#2563eb"/>

    </svg>
  </g>
  <!-- Icon 5: phone -->
  <g transform="translate(252, 92)">
    <rect width="48" height="48" fill="#ffffff" stroke="#e9ecef" stroke-width="1" rx="4"/>
    <svg x="8" y="8" width="32" height="32" viewBox="0 0 16 16">
      
<path fill-rule="evenodd" clip-rule="evenodd" d="M3.85462 7.28621L4.92241 6.75232C5.31094 6.55805 5.52962 6.13518 5.46357 5.70584L5.02389 2.84794C4.94884 2.36011 4.52909 2 4.03552 2H3C2.44772 2 2 2.44772 2 3V5C2 5.70879 2.08208 6.39936 2.23758 7.06237C3.01505 10.3773 5.62265 12.985 8.93763 13.7624C9.60064 13.9179 10.2912 14 11 14H13C13.5523 14 14 13.5523 14 13V11.9645C14 11.4709 13.6399 11.0512 13.1521 10.9761L10.2942 10.5364C9.86482 10.4704 9.44195 10.6891 9.24768 11.0776L8.71379 12.1454C6.4109 11.4092 4.59083 9.58911 3.85462 7.28621Z" fill="#2563eb"/>

    </svg>
  </g>
  <!-- Icon 6: minus-circle -->
  <g transform="translate(312, 92)">
    <rect width="48" height="48" fill="#ffffff" stroke="#e9ecef" stroke-width="1" rx="4"/>
    <svg x="8" y="8" width="32" height="32" viewBox="0 0 16 16">
      
<path fill-rule="evenodd" clip-rule="evenodd" d="M8 15C11.866 15 15 11.866 15 8C15 4.13401 11.866 1 8 1C4.13401 1 1 4.13401 1 8C1 11.866 4.13401 15 8 15ZM12 8C12 7.58579 11.6642 7.25 11.25 7.25L4.75 7.25C4.33579 7.25 4 7.58579 4 8C4 8.41421 4.33579 8.75 4.75 8.75L11.25 8.75C11.6642 8.75 12 8.41421 12 8Z" fill="#2563eb"/>

    </svg>
  </g>
  <!-- Icon 7: italic -->
  <g transform="translate(372, 92)">
    <rect width="48" height="48" fill="#ffffff" stroke="#e9ecef" stroke-width="1" rx="4"/>
    <svg x="8" y="8" width="32" height="32" viewBox="0 0 16 16">
      
<path fill-rule="evenodd" clip-rule="evenodd" d="M6.25 2.75C6.25 2.33579 6.58579 2 7 2H13C13.4142 2 13.75 2.33579 13.75 2.75C13.75 3.16421 13.4142 3.5 13 3.5H10.5169L7.08829 12.5H9C9.41421 12.5 9.75 12.8358 9.75 13.25C9.75 13.6642 9.41421 14 9 14H3C2.58579 14 2.25 13.6642 2.25 13.25C2.25 12.8358 2.58579 12.5 3 12.5H5.48314L8.91171 3.5H7C6.58579 3.5 6.25 3.16421 6.25 2.75Z" fill="#2563eb"/>

    </svg>
  </g>
  <!-- Icon 8: globe-americas -->
  <g transform="translate(12, 152)">
    <rect width="48" height="48" fill="#ffffff" stroke="#e9ecef" stroke-width="1" rx="4"/>
    <svg x="8" y="8" width="32" height="32" viewBox="0 0 16 16">
      
<path fill-rule="evenodd" clip-rule="evenodd" d="M8 1C4.13401 1 1 4.13401 1 8C1 11.866 4.13401 15 8 15C11.866 15 15 11.866 15 8C15 4.13401 11.866 1 8 1ZM4.5 3.75716C3.2785 4.76595 2.5 6.29206 2.5 8C2.5 11.0376 4.96243 13.5 8 13.5C11.0376 13.5 13.5 11.0376 13.5 8C13.5 6.22633 12.6604 4.64874 11.357 3.643L10.7071 4.29289C10.5745 4.4255 10.5 4.60536 10.5 4.79289C10.5 5.18342 10.1834 5.5 9.79289 5.5H8.42692C8.03071 5.5 7.79439 5.94158 8.01416 6.27125L8.26445 6.64668C8.39902 6.84853 8.66283 6.91859 8.87981 6.8101C9.25018 6.62491 9.6975 6.6975 9.99031 6.99031L10.563 7.56298C10.8308 7.83082 10.9243 8.22698 10.8046 8.58632L9.79284 11.6215C9.6276 12.1172 9.10855 12.4021 8.60162 12.2754L8.25746 12.1894C7.8123 12.0781 7.5 11.6781 7.5 11.2192V10.9142C7.5 10.649 7.39464 10.3946 7.20711 10.2071L6.1 9.1C5.76863 8.76863 5.76863 8.23137 6.1 7.9C6.32091 7.67909 6.32091 7.32091 6.1 7.1L5.37868 6.37868C4.81607 5.81607 4.5 5.05301 4.5 4.25736V3.75716Z" fill="#2563eb"/>

    </svg>
  </g>
  <!-- Icon 9: eye -->
  <g transform="translate(72, 152)">
    <rect width="48" height="48" fill="#ffffff" stroke="#e9ecef" stroke-width="1" rx="4"/>
    <svg x="8" y="8" width="32" height="32" viewBox="0 0 16 16">
      
<path d="M8 9.5C8.82843 9.5 9.5 8.82843 9.5 8C9.5 7.17157 8.82843 6.5 8 6.5C7.17157 6.5 6.5 7.17157 6.5 8C6.5 8.82843 7.17157 9.5 8 9.5Z" fill="#2563eb"/>
<path fill-rule="evenodd" clip-rule="evenodd" d="M1.3794 8.28049C1.31616 8.09687 1.31625 7.89727 1.37965 7.71371C2.32719 4.97038 4.93238 3 7.99777 3C11.0653 3 13.672 4.97316 14.6179 7.71951C14.6811 7.90313 14.681 8.10274 14.6176 8.2863C13.6701 11.0296 11.0649 13 7.99952 13C4.93197 13 2.32527 11.0268 1.3794 8.28049ZM11 8C11 9.65685 9.65685 11 8 11C6.34315 11 5 9.65685 5 8C5 6.34315 6.34315 5 8 5C9.65685 5 11 6.34315 11 8Z" fill="#2563eb"/>

    </svg>
  </g>
  <!-- Icon 10: document-currency-rupee -->
  <g transform="translate(132, 152)">
    <rect width="48" height="48" fill="#ffffff" stroke="#e9ecef" stroke-width="1" rx="4"/>
    <svg x="8" y="8" width="32" height="32" viewBox="0 0 16 16">
      
<path fill-rule="evenodd" clip-rule="evenodd" d="M2.5 3.5C2.5 2.67157 3.17157 2 4 2H8.87868C9.2765 2 9.65804 2.15804 9.93934 2.43934L13.0607 5.56066C13.342 5.84197 13.5 6.2235 13.5 6.62132V12.5C13.5 13.3284 12.8284 14 12 14H4C3.17157 14 2.5 13.3284 2.5 12.5V3.5ZM5.75002 5C5.33581 5 5.00002 5.33579 5.00002 5.75C5.00002 6.16421 5.33581 6.5 5.75002 6.5C6.44812 6.5 7.05075 6.90876 7.33161 7.5H5.75002C5.33581 7.5 5.00002 7.83579 5.00002 8.25C5.00002 8.66421 5.33581 9 5.75002 9H7.33161C7.05075 9.59124 6.44812 10 5.75002 10C5.44668 10 5.1732 10.1827 5.05711 10.463C4.94103 10.7432 5.00519 11.0658 5.21969 11.2803L6.71969 12.7803C7.01259 13.0732 7.48746 13.0732 7.78035 12.7803C8.07325 12.4874 8.07325 12.0126 7.78035 11.7197L7.21338 11.1527C8.05758 10.7263 8.69045 9.94239 8.91306 9H10.25C10.6642 9 11 8.66421 11 8.25C11 7.83579 10.6642 7.5 10.25 7.5H8.91306C8.82797 7.13981 8.68296 6.80277 8.48911 6.5H10.25C10.6642 6.5 11 6.16421 11 5.75C11 5.33579 10.6642 5 10.25 5H5.75002Z" fill="#2563eb"/>

    </svg>
  </g>
  <!-- Icon 11: currency-dollar -->
  <g transform="translate(192, 152)">
    <rect width="48" height="48" fill="#ffffff" stroke="#e9ecef" stroke-width="1" rx="4"/>
    <svg x="8" y="8" width="32" height="32" viewBox="0 0 16 16">
      
<path d="M6.375 5.5H7.25V7.25H6.375C5.89175 7.25 5.5 6.85825 5.5 6.375C5.5 5.89175 5.89175 5.5 6.375 5.5Z" fill="#2563eb"/>
<path d="M8.75 10.5V8.75H9.625C10.1082 8.75 10.5 9.14175 10.5 9.625C10.5 10.1082 10.1082 10.5 9.625 10.5H8.75Z" fill="#2563eb"/>
<path fill-rule="evenodd" clip-rule="evenodd" d="M15 8C15 11.866 11.866 15 8 15C4.13401 15 1 11.866 1 8C1 4.13401 4.13401 1 8 1C11.866 1 15 4.13401 15 8ZM7.25 3.75C7.25 3.33579 7.58579 3 8 3C8.41421 3 8.75 3.33579 8.75 3.75V4H11.25C11.6642 4 12 4.33579 12 4.75C12 5.16421 11.6642 5.5 11.25 5.5H8.75V7.25H9.625C10.9367 7.25 12 8.31332 12 9.625C12 10.9367 10.9367 12 9.625 12H8.75V12.25C8.75 12.6642 8.41421 13 8 13C7.58579 13 7.25 12.6642 7.25 12.25V12H4.75C4.33579 12 4 11.6642 4 11.25C4 10.8358 4.33579 10.5 4.75 10.5H7.25V8.75H6.375C5.06332 8.75 4 7.68668 4 6.375C4 5.06332 5.06332 4 6.375 4H7.25V3.75Z" fill="#2563eb"/>

    </svg>
  </g>
  <!-- Icon 12: clipboard-document -->
  <g transform="translate(252, 152)">
    <rect width="48" height="48" fill="#ffffff" stroke="#e9ecef" stroke-width="1" rx="4"/>
    <svg x="8" y="8" width="32" height="32" viewBox="0 0 16 16">
      
<path fill-rule="evenodd" clip-rule="evenodd" d="M11.9863 3H12C13.1046 3 14 3.89543 14 5V11C14 11.9319 13.3626 12.715 12.5 12.937V10.4142C12.5 9.75117 12.2366 9.11529 11.7678 8.64645L8.35356 5.23223C7.88472 4.76339 7.24884 4.5 6.5858 4.5H4.06302C4.28504 3.63739 5.06809 3 6.00001 3H6.01374C6.1381 1.87501 7.09187 1 8.25001 1H9.75001C10.9081 1 11.8619 1.87501 11.9863 3ZM10.5 4V3.25C10.5 2.83579 10.1642 2.5 9.75001 2.5H8.25001C7.8358 2.5 7.50001 2.83579 7.50001 3.25V4H10.5Z" fill="#2563eb"/>
<path d="M3 6C2.44772 6 2 6.44771 2 7V14C2 14.5523 2.44772 15 3 15H10C10.5523 15 11 14.5523 11 14V10.4142C11 10.149 10.8946 9.89464 10.7071 9.70711L7.29289 6.29289C7.10536 6.10536 6.851 6 6.58579 6H3Z" fill="#2563eb"/>

    </svg>
  </g>
  <!-- Icon 13: chat-bubble-left -->
  <g transform="translate(312, 152)">
    <rect width="48" height="48" fill="#ffffff" stroke="#e9ecef" stroke-width="1" rx="4"/>
    <svg x="8" y="8" width="32" height="32" viewBox="0 0 16 16">
      
<path d="M1 8.74067C1 9.72338 1.71344 10.5655 2.68911 10.6828C3.45355 10.7748 4.22402 10.8472 5 10.8994V13.25C5 13.5533 5.18273 13.8268 5.46299 13.9429C5.74324 14.059 6.06583 13.9948 6.28033 13.7803L8.7905 11.2702C8.97217 11.0885 9.21682 10.9842 9.47361 10.9758C10.7676 10.9332 12.0475 10.8347 13.311 10.6826C14.2866 10.5653 15 9.72316 15 8.74048V4.25947C15 3.27678 14.2866 2.43469 13.3109 2.3173C11.5698 2.1078 9.79728 2 7.99962 2C6.20224 2 4.43002 2.10777 2.68909 2.31721C1.71343 2.43458 1 3.27668 1 4.25938V8.74067Z" fill="#2563eb"/>

    </svg>
  </g>
  <!-- Icon 14: bug-ant -->
  <g transform="translate(372, 152)">
    <rect width="48" height="48" fill="#ffffff" stroke="#e9ecef" stroke-width="1" rx="4"/>
    <svg x="8" y="8" width="32" height="32" viewBox="0 0 16 16">
      
<path d="M11.9828 1.36435C11.7674 1.01055 11.3059 0.898367 10.9521 1.11378C10.5983 1.32919 10.4862 1.79062 10.7016 2.14441C10.7976 2.30218 10.8859 2.46511 10.966 2.63268C10.7392 2.77825 10.501 2.9076 10.253 3.01909C9.70326 2.39427 8.89767 2 8 2C7.10231 2 6.2967 2.39429 5.74692 3.01913C5.49896 2.90763 5.26075 2.77827 5.0339 2.63268C5.11395 2.46511 5.20226 2.30218 5.29831 2.14441C5.51372 1.79062 5.40154 1.32919 5.04774 1.11378C4.69394 0.898367 4.23251 1.01055 4.0171 1.36435C3.77289 1.76544 3.56777 2.19322 3.40713 2.64236C3.29902 2.94464 3.39529 3.2822 3.64657 3.48199C4.0814 3.82772 4.55849 4.12286 5.06876 4.35844C5.02372 4.56514 5 4.7798 5 5C5 5.12593 5.07175 5.2399 5.18289 5.2991C5.56865 5.50457 5.9795 5.66916 6.40965 5.78707C6.28384 5.95178 6.18303 6.13661 6.1129 6.3359C5.19874 6.17008 4.32623 5.88595 3.51146 5.50007C3.50385 5.33601 3.5 5.17092 3.5 5.00488C3.5 4.92538 3.50088 4.8461 3.50264 4.76705C3.51183 4.35294 3.18357 4.00979 2.76946 4.00059C2.35535 3.9914 2.0122 4.31966 2.00301 4.73377C2.00101 4.82391 2 4.91429 2 5.00488C2 5.35455 2.01498 5.7009 2.04435 6.0433C2.06624 6.29854 2.21691 6.52495 2.44389 6.64372C3.59819 7.24771 4.86282 7.6693 6.19888 7.87051C6.23987 7.95517 6.28666 8.03651 6.33872 8.114C6.26744 8.12386 6.19636 8.13436 6.12549 8.14547L6.09828 8.14996C4.79932 8.35689 3.56918 8.77235 2.44389 9.36116C2.21691 9.47993 2.06624 9.70634 2.04435 9.96159C2.01498 10.304 2 10.6503 2 11C2 11.8228 2.08292 12.627 2.24109 13.4044C2.32367 13.8103 2.71966 14.0724 3.12556 13.9898C3.53146 13.9072 3.79356 13.5112 3.71098 13.1054C3.57271 12.4258 3.5 11.7218 3.5 11C3.5 10.834 3.50385 10.6689 3.51146 10.5048C3.86263 10.3385 4.22454 10.1911 4.59588 10.0639C4.53288 10.3642 4.49951 10.6776 4.49951 11C4.49951 13.2091 6.06651 15 7.99951 15C9.93251 15 11.4995 13.2091 11.4995 11C11.4995 10.6775 11.4661 10.3639 11.4031 10.0635C11.7748 10.1908 12.137 10.3383 12.4885 10.5048C12.4961 10.6689 12.5 10.834 12.5 11C12.5 11.7218 12.4273 12.4258 12.289 13.1054C12.2064 13.5112 12.4685 13.9072 12.8744 13.9898C13.2803 14.0724 13.6763 13.8103 13.7589 13.4044C13.9171 12.627 14 11.8228 14 11C14 10.6503 13.985 10.304 13.9557 9.96159C13.9338 9.70634 13.7831 9.47993 13.5561 9.36116C12.4259 8.76975 11.1898 8.35322 9.8845 8.14723L9.87353 8.14547C9.80295 8.1344 9.73217 8.12395 9.66119 8.11412C9.71329 8.03659 9.76011 7.95522 9.80112 7.87051C11.1372 7.6693 12.4018 7.24771 13.5561 6.64372C13.7831 6.52495 13.9338 6.29854 13.9557 6.0433C13.985 5.7009 14 5.35455 14 5.00488C14 4.91429 13.999 4.82391 13.997 4.73377C13.9878 4.31966 13.6446 3.9914 13.2305 4.00059C12.8164 4.00979 12.4882 4.35294 12.4974 4.76705C12.4991 4.8461 12.5 4.92538 12.5 5.00488C12.5 5.17092 12.4961 5.33601 12.4885 5.50007C11.6738 5.88595 10.8013 6.17008 9.8871 6.3359C9.81694 6.13654 9.71609 5.95164 9.59021 5.78689C10.0206 5.66886 10.4316 5.50411 10.8176 5.29842C10.9284 5.23933 11 5.12562 11 5C11 4.77978 10.9763 4.56511 10.9312 4.35839C11.4415 4.12281 11.9185 3.82769 12.3533 3.48199C12.6046 3.2822 12.7009 2.94464 12.5927 2.64236C12.4321 2.19322 12.227 1.76544 11.9828 1.36435Z" fill="#2563eb"/>

    </svg>
  </g>
  <!-- Icon 15: bars-arrow-down -->
  <g transform="translate(12, 212)">
    <rect width="48" height="48" fill="#ffffff" stroke="#e9ecef" stroke-width="1" rx="4"/>
    <svg x="8" y="8" width="32" height="32" viewBox="0 0 16 16">
      
<path fill-rule="evenodd" clip-rule="evenodd" d="M2 2.75C2 2.33579 2.33579 2 2.75 2H12.25C12.6642 2 13 2.33579 13 2.75C13 3.16421 12.6642 3.5 12.25 3.5H2.75C2.33579 3.5 2 3.16421 2 2.75Z" fill="#2563eb"/>
<path fill-rule="evenodd" clip-rule="evenodd" d="M2 6.25C2 5.83579 2.33579 5.5 2.75 5.5H8.25C8.66421 5.5 9 5.83579 9 6.25C9 6.66421 8.66421 7 8.25 7H2.75C2.33579 7 2 6.66421 2 6.25ZM2 9.75C2 9.33579 2.33579 9 2.75 9H6.25C6.66421 9 7 9.33579 7 9.75C7 10.1642 6.66421 10.5 6.25 10.5H2.75C2.33579 10.5 2 10.1642 2 9.75Z" fill="#2563eb"/>
<path fill-rule="evenodd" clip-rule="evenodd" d="M14.7803 11.4697C15.0732 11.7626 15.0732 12.2374 14.7803 12.5303L12.5303 14.7803C12.2374 15.0732 11.7626 15.0732 11.4697 14.7803L9.21967 12.5303C8.92678 12.2374 8.92678 11.7626 9.21967 11.4697C9.51256 11.1768 9.98744 11.1768 10.2803 11.4697L11.25 12.4393V6.75C11.25 6.33579 11.5858 6 12 6C12.4142 6 12.75 6.33579 12.75 6.75V12.4393L13.7197 11.4697C14.0126 11.1768 14.4874 11.1768 14.7803 11.4697Z" fill="#2563eb"/>

    </svg>
  </g>
  <!-- Icon 16: arrow-uturn-down -->
  <g transform="translate(72, 212)">
    <rect width="48" height="48" fill="#ffffff" stroke="#e9ecef" stroke-width="1" rx="4"/>
    <svg x="8" y="8" width="32" height="32" viewBox="0 0 16 16">
      
<path fill-rule="evenodd" clip-rule="evenodd" d="M9.75 3.5C8.23122 3.5 7 4.73122 7 6.25V11.4393L9.21967 9.21967C9.51256 8.92678 9.98744 8.92678 10.2803 9.21967C10.5732 9.51256 10.5732 9.98744 10.2803 10.2803L6.78033 13.7803C6.48744 14.0732 6.01256 14.0732 5.71967 13.7803L2.21967 10.2803C1.92678 9.98744 1.92678 9.51256 2.21967 9.21967C2.51256 8.92678 2.98744 8.92678 3.28033 9.21967L5.5 11.4393V6.25C5.5 3.90279 7.40279 2 9.75 2C12.0972 2 14 3.90279 14 6.25V7.25C14 7.66421 13.6642 8 13.25 8C12.8358 8 12.5 7.66421 12.5 7.25V6.25C12.5 4.73122 11.2688 3.5 9.75 3.5Z" fill="#2563eb"/>

    </svg>
  </g>
  <!-- Icon 17: arrow-top-right-on-square -->
  <g transform="translate(132, 212)">
    <rect width="48" height="48" fill="#ffffff" stroke="#e9ecef" stroke-width="1" rx="4"/>
    <svg x="8" y="8" width="32" height="32" viewBox="0 0 16 16">
      
<path d="M6.21967 8.71967C5.92678 9.01256 5.92678 9.48744 6.21967 9.78033C6.51256 10.0732 6.98744 10.0732 7.28033 9.78033L12.5 4.56066V6.25C12.5 6.66421 12.8358 7 13.25 7C13.6642 7 14 6.66421 14 6.25V2.75C14 2.33579 13.6642 2 13.25 2H9.75C9.33579 2 9 2.33579 9 2.75C9 3.16421 9.33579 3.5 9.75 3.5H11.4393L6.21967 8.71967Z" fill="#2563eb"/>
<path d="M3.5 6.75C3.5 6.05964 4.05964 5.5 4.75 5.5H7C7.41421 5.5 7.75 5.16421 7.75 4.75C7.75 4.33579 7.41421 4 7 4H4.75C3.23122 4 2 5.23122 2 6.75V11.25C2 12.7688 3.23122 14 4.75 14H9.25C10.7688 14 12 12.7688 12 11.25V9C12 8.58579 11.6642 8.25 11.25 8.25C10.8358 8.25 10.5 8.58579 10.5 9V11.25C10.5 11.9404 9.94036 12.5 9.25 12.5H4.75C4.05964 12.5 3.5 11.9404 3.5 11.25V6.75Z" fill="#2563eb"/>

    </svg>
  </g>
  <!-- Icon 18: arrow-down-on-square -->
  <g transform="translate(192, 212)">
    <rect width="48" height="48" fill="#ffffff" stroke="#e9ecef" stroke-width="1" rx="4"/>
    <svg x="8" y="8" width="32" height="32" viewBox="0 0 16 16">
      
<path d="M8 1C8.41421 1 8.75 1.33579 8.75 1.75V5H7.25V1.75C7.25 1.33579 7.58579 1 8 1Z" fill="#2563eb"/>
<path d="M7.25 5V9.43934L6.03033 8.21967C5.73744 7.92678 5.26256 7.92678 4.96967 8.21967C4.67678 8.51256 4.67678 8.98744 4.96967 9.28033L7.46967 11.7803C7.76256 12.0732 8.23744 12.0732 8.53033 11.7803L11.0303 9.28033C11.3232 8.98744 11.3232 8.51256 11.0303 8.21967C10.7374 7.92678 10.2626 7.92678 9.96967 8.21967L8.75 9.43934V5H11C12.1046 5 13 5.89543 13 7V13C13 14.1046 12.1046 15 11 15H5C3.89543 15 3 14.1046 3 13V7C3 5.89543 3.89543 5 5 5H7.25Z" fill="#2563eb"/>

    </svg>
  </g>
  <!-- Icon 19: view-columns -->
  <g transform="translate(252, 212)">
    <rect width="48" height="48" fill="#ffffff" stroke="#e9ecef" stroke-width="1" rx="4"/>
    <svg x="8" y="8" width="32" height="32" viewBox="0 0 16 16">
      
  <path d="M9.836 3h-3.67v10h3.67V3ZM11.336 13H13.5a1.5 1.5 0 0 0 1.5-1.5v-7A1.5 1.5 0 0 0 13.5 3h-2.164v10ZM2.5 3h2.166v10H2.5A1.5 1.5 0 0 1 1 11.5v-7A1.5 1.5 0 0 1 2.5 3Z"/>

    </svg>
  </g>
  <!-- Icon 20: swatch -->
  <g transform="translate(312, 212)">
    <rect width="48" height="48" fill="#ffffff" stroke="#e9ecef" stroke-width="1" rx="4"/>
    <svg x="8" y="8" width="32" height="32" viewBox="0 0 16 16">
      
  <path fill-rule="evenodd" d="M2 3a1 1 0 0 1 1-1h3a1 1 0 0 1 1 1v8.5a2.5 2.5 0 0 1-5 0V3Zm3.25 8.5a.75.75 0 1 1-1.5 0 .75.75 0 0 1 1.5 0Z" clip-rule="evenodd"/>
  <path d="m8.5 11.035 3.778-3.778a1 1 0 0 0 0-1.414l-2.122-2.121a1 1 0 0 0-1.414 0l-.242.242v7.07ZM7.656 14H13a1 1 0 0 0 1-1v-3a1 1 0 0 0-1-1h-.344l-5 5Z"/>

    </svg>
  </g>
  <!-- Icon 21: shield-exclamation -->
  <g transform="translate(372, 212)">
    <rect width="48" height="48" fill="#ffffff" stroke="#e9ecef" stroke-width="1" rx="4"/>
    <svg x="8" y="8" width="32" height="32" viewBox="0 0 16 16">
      
  <path fill-rule="evenodd" d="M7.5 1.709a.75.75 0 0 1 1 0 8.963 8.963 0 0 0 4.84 2.217.75.75 0 0 1 .654.72 10.499 10.499 0 0 1-5.647 9.672.75.75 0 0 1-.694-.001 10.499 10.499 0 0 1-5.647-9.672.75.75 0 0 1 .654-.719A8.963 8.963 0 0 0 7.5 1.71ZM8 5a.75.75 0 0 1 .75.75v2a.75.75 0 0 1-1.5 0v-2A.75.75 0 0 1 8 5Zm0 7a1 1 0 1 0 0-2 1 1 0 0 0 0 2Z" clip-rule="evenodd"/>

    </svg>
  </g>
  <!-- Icon 22: printer -->
  <g transform="translate(12, 272)">
    <rect width="48" height="48" fill="#ffffff" stroke="#e9ecef" stroke-width="1" rx="4"/>
    <svg x="8" y="8" width="32" height="32" viewBox="0 0 16 16">
      
  <path fill-rule="evenodd" d="M4 5a2 2 0 0 0-2 2v3a2 2 0 0 0 1.51 1.94l-.315 1.896A1 1 0 0 0 4.18 15h7.639a1 1 0 0 0 .986-1.164l-.316-1.897A2 2 0 0 0 14 10V7a2 2 0 0 0-2-2V2a1 1 0 0 0-1-1H5a1 1 0 0 0-1 1v3Zm1.5 0V2.5h5V5h-5Zm5.23 5.5H5.27l-.5 3h6.459l-.5-3Z" clip-rule="evenodd"/>

    </svg>
  </g>
  <!-- Icon 23: pause-circle -->
  <g transform="translate(72, 272)">
    <rect width="48" height="48" fill="#ffffff" stroke="#e9ecef" stroke-width="1" rx="4"/>
    <svg x="8" y="8" width="32" height="32" viewBox="0 0 16 16">
      
  <path fill-rule="evenodd" d="M15 8A7 7 0 1 1 1 8a7 7 0 0 1 14 0ZM5.5 5.5A.5.5 0 0 1 6 5h.5a.5.5 0 0 1 .5.5v5a.5.5 0 0 1-.5.5H6a.5.5 0 0 1-.5-.5v-5Zm4-.5a.5.5 0 0 0-.5.5v5a.5.5 0 0 0 .5.5h.5a.5.5 0 0 0 .5-.5v-5A.5.5 0 0 0 10 5h-.5Z" clip-rule="evenodd"/>

    </svg>
  </g>
  <!-- Icon 24: magnifying-glass-circle -->
  <g transform="translate(132, 272)">
    <rect width="48" height="48" fill="#ffffff" stroke="#e9ecef" stroke-width="1" rx="4"/>
    <svg x="8" y="8" width="32" height="32" viewBox="0 0 16 16">
      
  <path d="M5.94 8.06a1.5 1.5 0 1 1 2.12-2.12 1.5 1.5 0 0 1-2.12 2.12Z"/>
  <path fill-rule="evenodd" d="M8 15A7 7 0 1 0 8 1a7 7 0 0 0 0 14ZM4.879 4.879a3 3 0 0 0 3.645 4.706L9.72 10.78a.75.75 0 0 0 1.061-1.06L9.585 8.524A3.001 3.001 0 0 0 4.879 4.88Z" clip-rule="evenodd"/>

    </svg>
  </g>
  <!-- Icon 25: heart -->
  <g transform="translate(192, 272)">
    <rect width="48" height="48" fill="#ffffff" stroke="#e9ecef" stroke-width="1" rx="4"/>
    <svg x="8" y="8" width="32" height="32" viewBox="0 0 16 16">
      
  <path d="M2 6.342a3.375 3.375 0 0 1 6-2.088 3.375 3.375 0 0 1 5.997 2.26c-.063 2.134-1.618 3.76-2.955 4.784a14.437 14.437 0 0 1-2.676 1.61c-.02.01-.038.017-.05.022l-.014.006-.004.002h-.002a.75.75 0 0 1-.592.001h-.002l-.004-.003-.015-.006a5.528 5.528 0 0 1-.232-.107 14.395 14.395 0 0 1-2.535-1.557C3.564 10.22 1.999 8.558 1.999 6.38L2 6.342Z"/>

    </svg>
  </g>
  <!-- Icon 26: folder-plus -->
  <g transform="translate(252, 272)">
    <rect width="48" height="48" fill="#ffffff" stroke="#e9ecef" stroke-width="1" rx="4"/>
    <svg x="8" y="8" width="32" height="32" viewBox="0 0 16 16">
      
  <path fill-rule="evenodd" d="M3.5 2A1.5 1.5 0 0 0 2 3.5v9A1.5 1.5 0 0 0 3.5 14h9a1.5 1.5 0 0 0 1.5-1.5v-7A1.5 1.5 0 0 0 12.5 4H9.621a1.5 1.5 0 0 1-1.06-.44L7.439 2.44A1.5 1.5 0 0 0 6.38 2H3.5ZM8 6a.75.75 0 0 1 .75.75v1.5h1.5a.75.75 0 0 1 0 1.5h-1.5v1.5a.75.75 0 0 1-1.5 0v-1.5h-1.5a.75.75 0 0 1 0-1.5h1.5v-1.5A.75.75 0 0 1 8 6Z" clip-rule="evenodd"/>

    </svg>
  </g>
  <!-- Icon 27: ellipsis-vertical -->
  <g transform="translate(312, 272)">
    <rect width="48" height="48" fill="#ffffff" stroke="#e9ecef" stroke-width="1" rx="4"/>
    <svg x="8" y="8" width="32" height="32" viewBox="0 0 16 16">
      
  <path d="M8 2a1.5 1.5 0 1 1 0 3 1.5 1.5 0 0 1 0-3ZM8 6.5a1.5 1.5 0 1 1 0 3 1.5 1.5 0 0 1 0-3ZM9.5 12.5a1.5 1.5 0 1 0-3 0 1.5 1.5 0 0 0 3 0Z"/>

    </svg>
  </g>
  <!-- Icon 28: document-arrow-down -->
  <g transform="translate(372, 272)">
    <rect width="48" height="48" fill="#ffffff" stroke="#e9ecef" stroke-width="1" rx="4"/>
    <svg x="8" y="8" width="32" height="32" viewBox="0 0 16 16">
      
  <path fill-rule="evenodd" d="M4 2a1.5 1.5 0 0 0-1.5 1.5v9A1.5 1.5 0 0 0 4 14h8a1.5 1.5 0 0 0 1.5-1.5V6.621a1.5 1.5 0 0 0-.44-1.06L9.94 2.439A1.5 1.5 0 0 0 8.878 2H4Zm4 3.5a.75.75 0 0 1 .75.75v2.69l.72-.72a.75.75 0 1 1 1.06 1.06l-2 2a.75.75 0 0 1-1.06 0l-2-2a.75.75 0 0 1 1.06-1.06l.72.72V6.25A.75.75 0 0 1 8 5.5Z" clip-rule="evenodd"/>

    </svg>
  </g>
  <!-- Icon 29: cog -->
  <g transform="translate(12, 332)">
    <rect width="48" height="48" fill="#ffffff" stroke="#e9ecef" stroke-width="1" rx="4"/>
    <svg x="8" y="8" width="32" height="32" viewBox="0 0 16 16">
      
  <path fill-rule="evenodd" d="M4.5 1.938a.75.75 0 0 1 1.025.274l.652 1.131c.351-.138.71-.233 1.073-.288V1.75a.75.75 0 0 1 1.5 0v1.306a5.03 5.03 0 0 1 1.072.288l.654-1.132a.75.75 0 1 1 1.298.75l-.652 1.13c.286.23.55.492.785.786l1.13-.653a.75.75 0 1 1 .75 1.3l-1.13.652c.137.351.233.71.288 1.073h1.305a.75.75 0 0 1 0 1.5h-1.306a5.032 5.032 0 0 1-.288 1.072l1.132.654a.75.75 0 0 1-.75 1.298l-1.13-.652c-.23.286-.492.55-.786.785l.652 1.13a.75.75 0 0 1-1.298.75l-.653-1.13c-.351.137-.71.233-1.073.288v1.305a.75.75 0 0 1-1.5 0v-1.306a5.032 5.032 0 0 1-1.072-.288l-.653 1.132a.75.75 0 0 1-1.3-.75l.653-1.13a4.966 4.966 0 0 1-.785-.786l-1.13.652a.75.75 0 0 1-.75-1.298l1.13-.653a4.965 4.965 0 0 1-.288-1.073H1.75a.75.75 0 0 1 0-1.5h1.306a5.03 5.03 0 0 1 .288-1.072l-1.132-.653a.75.75 0 0 1 .75-1.3l1.13.653c.23-.286.492-.55.786-.785l-.653-1.13A.75.75 0 0 1 4.5 1.937Zm1.14 3.476a3.501 3.501 0 0 0 0 5.172L7.135 8 5.641 5.414ZM8.434 8.75 6.94 11.336a3.491 3.491 0 0 0 2.81-.305 3.49 3.49 0 0 0 1.669-2.281H8.433Zm2.987-1.5H8.433L6.94 4.664a3.501 3.501 0 0 1 4.48 2.586Z" clip-rule="evenodd"/>

    </svg>
  </g>
  <!-- Icon 30: chevron-down -->
  <g transform="translate(72, 332)">
    <rect width="48" height="48" fill="#ffffff" stroke="#e9ecef" stroke-width="1" rx="4"/>
    <svg x="8" y="8" width="32" height="32" viewBox="0 0 16 16">
      
  <path fill-rule="evenodd" d="M4.22 6.22a.75.75 0 0 1 1.06 0L8 8.94l2.72-2.72a.75.75 0 1 1 1.06 1.06l-3.25 3.25a.75.75 0 0 1-1.06 0L4.22 7.28a.75.75 0 0 1 0-1.06Z" clip-rule="evenodd"/>

    </svg>
  </g>
  <!-- Icon 31: camera -->
  <g transform="translate(132, 332)">
    <rect width="48" height="48" fill="#ffffff" stroke="#e9ecef" stroke-width="1" rx="4"/>
    <svg x="8" y="8" width="32" height="32" viewBox="0 0 16 16">
      
  <path d="M9.5 8.5a1.5 1.5 0 1 1-3 0 1.5 1.5 0 0 1 3 0Z"/>
  <path fill-rule="evenodd" d="M2.5 5A1.5 1.5 0 0 0 1 6.5v5A1.5 1.5 0 0 0 2.5 13h11a1.5 1.5 0 0 0 1.5-1.5v-5A1.5 1.5 0 0 0 13.5 5h-.879a1.5 1.5 0 0 1-1.06-.44l-1.122-1.12A1.5 1.5 0 0 0 9.38 3H6.62a1.5 1.5 0 0 0-1.06.44L4.439 4.56A1.5 1.5 0 0 1 3.38 5H2.5ZM11 8.5a3 3 0 1 1-6 0 3 3 0 0 1 6 0Z" clip-rule="evenodd"/>

    </svg>
  </g>
  <!-- Icon 32: bold -->
  <g transform="translate(192, 332)">
    <rect width="48" height="48" fill="#ffffff" stroke="#e9ecef" stroke-width="1" rx="4"/>
    <svg x="8" y="8" width="32" height="32" viewBox="0 0 16 16">
      
  <path fill-rule="evenodd" d="M3 3a1 1 0 0 1 1-1h5a3.5 3.5 0 0 1 2.843 5.541A3.75 3.75 0 0 1 9.25 14H4a1 1 0 0 1-1-1V3Zm2.5 3.5v-2H9a1 1 0 0 1 0 2H5.5Zm0 2.5v2.5h3.75a1.25 1.25 0 1 0 0-2.5H5.5Z" clip-rule="evenodd"/>

    </svg>
  </g>
  <!-- Icon 33: backward -->
  <g transform="translate(252, 332)">
    <rect width="48" height="48" fill="#ffffff" stroke="#e9ecef" stroke-width="1" rx="4"/>
    <svg x="8" y="8" width="32" height="32" viewBox="0 0 16 16">
      
  <path d="M8.5 4.75a.75.75 0 0 0-1.107-.66l-6 3.25a.75.75 0 0 0 0 1.32l6 3.25a.75.75 0 0 0 1.107-.66V8.988l5.393 2.921A.75.75 0 0 0 15 11.25v-6.5a.75.75 0 0 0-1.107-.66L8.5 7.013V4.75Z"/>

    </svg>
  </g>
  <!-- Icon 34: arrow-turn-up-right -->
  <g transform="translate(312, 332)">
    <rect width="48" height="48" fill="#ffffff" stroke="#e9ecef" stroke-width="1" rx="4"/>
    <svg x="8" y="8" width="32" height="32" viewBox="0 0 16 16">
      
  <path fill-rule="evenodd" d="M2.75 14a.75.75 0 0 0 .75-.75v-6.5h7.94l-.97.97a.75.75 0 0 0 1.06 1.06l2.25-2.25a.75.75 0 0 0 0-1.06l-2.25-2.25a.75.75 0 1 0-1.06 1.06l.97.97H2.75A.75.75 0 0 0 2 6v7.25c0 .414.336.75.75.75Z" clip-rule="evenodd"/>

    </svg>
  </g>
  <!-- Icon 35: arrow-long-right -->
  <g transform="translate(372, 332)">
    <rect width="48" height="48" fill="#ffffff" stroke="#e9ecef" stroke-width="1" rx="4"/>
    <svg x="8" y="8" width="32" height="32" viewBox="0 0 16 16">
      
  <path fill-rule="evenodd" d="M2 8c0 .414.336.75.75.75h8.69l-1.22 1.22a.75.75 0 1 0 1.06 1.06l2.5-2.5a.75.75 0 0 0 0-1.06l-2.5-2.5a.75.75 0 1 0-1.06 1.06l1.22 1.22H2.75A.75.75 0 0 0 2 8Z" clip-rule="evenodd"/>

    </svg>
  </g>
  
  <!-- Footer -->
  <text x="400" y="580" text-anchor="middle" font-family="system-ui, -apple-system, sans-serif" font-size="12" fill="#6c757d">
    Showing 35 of 632 icons
  </text>
  
</svg>