<svg width="448" height="368" xmlns="http://www.w3.org/2000/svg">
  <!-- Background -->
  <rect width="448" height="368" fill="#1a1a1a"/>
  
  <!-- Icon Grid -->
  <!-- Icon 1: x-mark -->
  <g transform="translate(20, 20)">
    <rect width="48" height="48" fill="#1a1a1a" stroke="#333333" stroke-width="1" rx="4"/>
    <svg x="8" y="8" width="32" height="32" viewBox="0 0 24 24" style="fill: #ffffff; stroke: none;">
      
<path fill-rule="evenodd" clip-rule="evenodd" d="M5.46967 5.46967C5.76256 5.17678 6.23744 5.17678 6.53033 5.46967L12 10.9393L17.4697 5.46967C17.7626 5.17678 18.2374 5.17678 18.5303 5.46967C18.8232 5.76256 18.8232 6.23744 18.5303 6.53033L13.0607 12L18.5303 17.4697C18.8232 17.7626 18.8232 18.2374 18.5303 18.5303C18.2374 18.8232 17.7626 18.8232 17.4697 18.5303L12 13.0607L6.53033 18.5303C6.23744 18.8232 5.76256 18.8232 5.46967 18.5303C5.17678 18.2374 5.17678 17.7626 5.46967 17.4697L10.9393 12L5.46967 6.53033C5.17678 6.23744 5.17678 5.76256 5.46967 5.46967Z" />

    </svg>
  </g>
  <!-- Icon 2: phone -->
  <g transform="translate(80, 20)">
    <rect width="48" height="48" fill="#1a1a1a" stroke="#333333" stroke-width="1" rx="4"/>
    <svg x="8" y="8" width="32" height="32" viewBox="0 0 24 24" style="fill: #ffffff; stroke: none;">
      
<path fill-rule="evenodd" clip-rule="evenodd" d="M1.5 4.5C1.5 2.84315 2.84315 1.5 4.5 1.5H5.87163C6.732 1.5 7.48197 2.08556 7.69064 2.92025L8.79644 7.34343C8.97941 8.0753 8.70594 8.84555 8.10242 9.29818L6.8088 10.2684C6.67447 10.3691 6.64527 10.5167 6.683 10.6197C7.81851 13.7195 10.2805 16.1815 13.3803 17.317C13.4833 17.3547 13.6309 17.3255 13.7316 17.1912L14.7018 15.8976C15.1545 15.2941 15.9247 15.0206 16.6566 15.2036L21.0798 16.3094C21.9144 16.518 22.5 17.268 22.5 18.1284V19.5C22.5 21.1569 21.1569 22.5 19.5 22.5H17.25C8.55151 22.5 1.5 15.4485 1.5 6.75V4.5Z" />

    </svg>
  </g>
  <!-- Icon 3: eye -->
  <g transform="translate(140, 20)">
    <rect width="48" height="48" fill="#1a1a1a" stroke="#333333" stroke-width="1" rx="4"/>
    <svg x="8" y="8" width="32" height="32" viewBox="0 0 24 24" style="fill: #ffffff; stroke: none;">
      
<path d="M12 15C13.6569 15 15 13.6569 15 12C15 10.3431 13.6569 9 12 9C10.3431 9 9 10.3431 9 12C9 13.6569 10.3431 15 12 15Z" />
<path fill-rule="evenodd" clip-rule="evenodd" d="M1.32341 11.4467C2.81066 6.97571 7.02791 3.75 12.0005 3.75C16.9708 3.75 21.1864 6.97271 22.6755 11.4405C22.7959 11.8015 22.796 12.1922 22.6759 12.5533C21.1886 17.0243 16.9714 20.25 11.9988 20.25C7.02847 20.25 2.81284 17.0273 1.32374 12.5595C1.2034 12.1985 1.20328 11.8078 1.32341 11.4467ZM17.25 12C17.25 14.8995 14.8995 17.25 12 17.25C9.1005 17.25 6.75 14.8995 6.75 12C6.75 9.1005 9.1005 6.75 12 6.75C14.8995 6.75 17.25 9.1005 17.25 12Z" />

    </svg>
  </g>
  <!-- Icon 4: chat-bubble-left-right -->
  <g transform="translate(200, 20)">
    <rect width="48" height="48" fill="#1a1a1a" stroke="#333333" stroke-width="1" rx="4"/>
    <svg x="8" y="8" width="32" height="32" viewBox="0 0 24 24" style="fill: #ffffff; stroke: none;">
      
<path d="M4.91307 2.65823C6.9877 2.38888 9.10296 2.25 11.2503 2.25C13.3974 2.25 15.5124 2.38885 17.5869 2.65815C19.5091 2.90769 20.8783 4.51937 20.9923 6.38495C20.6665 6.27614 20.3212 6.20396 19.96 6.17399C18.5715 6.05874 17.1673 6 15.75 6C14.3326 6 12.9285 6.05874 11.54 6.17398C9.1817 6.36971 7.5 8.36467 7.5 10.6082V14.8937C7.5 16.5844 8.45468 18.1326 9.9328 18.8779L7.28033 21.5303C7.06583 21.7448 6.74324 21.809 6.46299 21.6929C6.18273 21.5768 6 21.3033 6 21V16.9705C5.63649 16.9316 5.27417 16.8887 4.91308 16.8418C2.90466 16.581 1.5 14.8333 1.5 12.8626V6.63738C1.5 4.66672 2.90466 2.91899 4.91307 2.65823Z" />
<path d="M15.75 7.5C14.3741 7.5 13.0114 7.55702 11.6641 7.66884C10.1248 7.7966 9 9.10282 9 10.6082V14.8937C9 16.4014 10.128 17.7083 11.6692 17.8341C12.9131 17.9357 14.17 17.9912 15.4384 17.999L18.2197 20.7803C18.4342 20.9948 18.7568 21.059 19.037 20.9429C19.3173 20.8268 19.5 20.5533 19.5 20.25V17.8601C19.6103 17.8518 19.7206 17.8432 19.8307 17.8342C21.372 17.7085 22.5 16.4015 22.5 14.8938V10.6082C22.5 9.10283 21.3752 7.79661 19.836 7.66885C18.4886 7.55702 17.1259 7.5 15.75 7.5Z" />

    </svg>
  </g>
  <!-- Icon 5: arrow-small-right -->
  <g transform="translate(260, 20)">
    <rect width="48" height="48" fill="#1a1a1a" stroke="#333333" stroke-width="1" rx="4"/>
    <svg x="8" y="8" width="32" height="32" viewBox="0 0 24 24" style="fill: #ffffff; stroke: none;">
      
<path fill-rule="evenodd" clip-rule="evenodd" d="M3.75 12C3.75 11.5858 4.08579 11.25 4.5 11.25L17.6893 11.25L12.2197 5.78033C11.9268 5.48744 11.9268 5.01256 12.2197 4.71967C12.5126 4.42678 12.9874 4.42678 13.2803 4.71967L20.0303 11.4697C20.3232 11.7626 20.3232 12.2374 20.0303 12.5303L13.2803 19.2803C12.9874 19.5732 12.5126 19.5732 12.2197 19.2803C11.9268 18.9874 11.9268 18.5126 12.2197 18.2197L17.6893 12.75L4.5 12.75C4.08579 12.75 3.75 12.4142 3.75 12Z" />

    </svg>
  </g>
  <!-- Icon 6: signal-slash -->
  <g transform="translate(320, 20)">
    <rect width="48" height="48" fill="#1a1a1a" stroke="#333333" stroke-width="1" rx="4"/>
    <svg x="8" y="8" width="32" height="32" viewBox="0 0 24 24" style="stroke: #ffffff; fill: none; stroke-width: 2; stroke-linecap: round; stroke-linejoin: round;">
      
<path d="M3 3L11.7348 11.7348M11.7348 11.7348C11.8027 11.667 11.8964 11.625 12 11.625C12.2071 11.625 12.375 11.7929 12.375 12C12.375 12.1036 12.333 12.1973 12.2652 12.2652M11.7348 11.7348L12.2652 12.2652M12.2652 12.2652L21 21M14.6517 9.34835C16.1161 10.8128 16.1161 13.1872 14.6517 14.6516M16.773 7.22703C19.409 9.86307 19.409 14.1369 16.773 16.773M18.8943 5.10571C22.7019 8.91332 22.7019 15.0867 18.8943 18.8943M9.34835 14.6516C8.75129 14.0546 8.39765 13.3063 8.28743 12.5301M7.22703 16.773C5.35299 14.8989 4.81126 12.1971 5.60184 9.84448M5.10571 18.8943C2.03824 15.8268 1.44197 11.2239 3.3169 7.55955M12 12H12.0075V12.0075H12V12Z"  stroke-width="1.5" stroke-linecap="round" stroke-linejoin="round"/>

    </svg>
  </g>
  <!-- Icon 7: inbox-arrow-down -->
  <g transform="translate(380, 20)">
    <rect width="48" height="48" fill="#1a1a1a" stroke="#333333" stroke-width="1" rx="4"/>
    <svg x="8" y="8" width="32" height="32" viewBox="0 0 24 24" style="stroke: #ffffff; fill: none; stroke-width: 2; stroke-linecap: round; stroke-linejoin: round;">
      
<path d="M9 3.75H6.91179C5.92403 3.75 5.05178 4.39423 4.76129 5.33831L2.3495 13.1766C2.28354 13.391 2.25 13.614 2.25 13.8383V18C2.25 19.2426 3.25736 20.25 4.5 20.25H19.5C20.7426 20.25 21.75 19.2426 21.75 18V13.8383C21.75 13.614 21.7165 13.391 21.6505 13.1766L19.2387 5.33831C18.9482 4.39423 18.076 3.75 17.0882 3.75H15M2.25 13.5H6.10942C6.96166 13.5 7.74075 13.9815 8.12188 14.7438L8.37812 15.2562C8.75925 16.0185 9.53834 16.5 10.3906 16.5H13.6094C14.4617 16.5 15.2408 16.0185 15.6219 15.2562L15.8781 14.7438C16.2592 13.9815 17.0383 13.5 17.8906 13.5H21.75M12 3V11.25M12 11.25L9 8.25M12 11.25L15 8.25"  stroke-width="1.5" stroke-linecap="round" stroke-linejoin="round"/>

    </svg>
  </g>
  <!-- Icon 8: cpu-chip -->
  <g transform="translate(20, 80)">
    <rect width="48" height="48" fill="#1a1a1a" stroke="#333333" stroke-width="1" rx="4"/>
    <svg x="8" y="8" width="32" height="32" viewBox="0 0 24 24" style="stroke: #ffffff; fill: none; stroke-width: 2; stroke-linecap: round; stroke-linejoin: round;">
      
<path d="M8.25 3V4.5M4.5 8.25H3M21 8.25H19.5M4.5 12H3M21 12H19.5M4.5 15.75H3M21 15.75H19.5M8.25 19.5V21M12 3V4.5M12 19.5V21M15.75 3V4.5M15.75 19.5V21M6.75 19.5H17.25C18.4926 19.5 19.5 18.4926 19.5 17.25V6.75C19.5 5.50736 18.4926 4.5 17.25 4.5H6.75C5.50736 4.5 4.5 5.50736 4.5 6.75V17.25C4.5 18.4926 5.50736 19.5 6.75 19.5ZM7.5 7.5H16.5V16.5H7.5V7.5Z"  stroke-width="1.5" stroke-linecap="round" stroke-linejoin="round"/>

    </svg>
  </g>
  <!-- Icon 9: bars-2 -->
  <g transform="translate(80, 80)">
    <rect width="48" height="48" fill="#1a1a1a" stroke="#333333" stroke-width="1" rx="4"/>
    <svg x="8" y="8" width="32" height="32" viewBox="0 0 24 24" style="stroke: #ffffff; fill: none; stroke-width: 2; stroke-linecap: round; stroke-linejoin: round;">
      
<path d="M3.75 9H20.25M3.75 15.75H20.25"  stroke-width="1.5" stroke-linecap="round" stroke-linejoin="round"/>

    </svg>
  </g>
  <!-- Icon 10: video-camera -->
  <g transform="translate(140, 80)">
    <rect width="48" height="48" fill="#1a1a1a" stroke="#333333" stroke-width="1" rx="4"/>
    <svg x="8" y="8" width="32" height="32" viewBox="0 0 20 20" style="fill: #ffffff; stroke: none;">
      
<path d="M3.25 4C2.00736 4 1 5.00736 1 6.25V13.75C1 14.9926 2.00736 16 3.25 16H10.75C11.9926 16 13 14.9926 13 13.75V6.25C13 5.00736 11.9926 4 10.75 4H3.25Z" />
<path d="M19 4.75002C19 4.44668 18.8173 4.1732 18.537 4.05711C18.2568 3.94103 17.9342 4.00519 17.7197 4.21969L14.7197 7.21969C14.579 7.36034 14.5 7.55111 14.5 7.75002V12.25C14.5 12.4489 14.579 12.6397 14.7197 12.7804L17.7197 15.7804C17.9342 15.9949 18.2568 16.059 18.537 15.9429C18.8173 15.8268 19 15.5534 19 15.25V4.75002Z" />

    </svg>
  </g>
  <!-- Icon 11: paper-clip -->
  <g transform="translate(200, 80)">
    <rect width="48" height="48" fill="#1a1a1a" stroke="#333333" stroke-width="1" rx="4"/>
    <svg x="8" y="8" width="32" height="32" viewBox="0 0 20 20" style="fill: #ffffff; stroke: none;">
      
<path fill-rule="evenodd" clip-rule="evenodd" d="M15.6213 4.37868C14.4497 3.20711 12.5503 3.20711 11.3787 4.37868L4.37868 11.3787C3.20711 12.5503 3.20711 14.4497 4.37868 15.6213C5.54995 16.7926 7.44878 16.7929 8.62042 15.6222C8.62072 15.6219 8.62102 15.6216 8.62132 15.6213L9.11792 15.1214C9.40985 14.8276 9.88472 14.826 10.1786 15.1179C10.4724 15.4098 10.474 15.8847 10.1821 16.1786L9.68373 16.6802L9.68198 16.682C7.92462 18.4393 5.07538 18.4393 3.31802 16.682C1.56066 14.9246 1.56066 12.0754 3.31802 10.318L10.318 3.31802C12.0754 1.56066 14.9246 1.56066 16.682 3.31802C18.438 5.07407 18.4393 7.92038 16.6859 9.67806L13.2312 13.2312C12.2061 14.2564 10.544 14.2563 9.51885 13.2312C8.49372 12.206 8.49372 10.544 9.51885 9.51886L12.9697 6.06804C13.2626 5.77515 13.7374 5.77515 14.0303 6.06804C14.3232 6.36094 14.3232 6.83581 14.0303 7.1287L10.5795 10.5795C10.1402 11.0189 10.1402 11.7312 10.5795 12.1705C11.0178 12.6088 11.7276 12.6099 12.1672 12.1738L15.6213 8.62127C16.7928 7.4497 16.7929 5.55025 15.6213 4.37868Z" />

    </svg>
  </g>
  <!-- Icon 12: ellipsis-horizontal -->
  <g transform="translate(260, 80)">
    <rect width="48" height="48" fill="#1a1a1a" stroke="#333333" stroke-width="1" rx="4"/>
    <svg x="8" y="8" width="32" height="32" viewBox="0 0 20 20" style="fill: #ffffff; stroke: none;">
      
<path d="M3 10C3 9.17157 3.67157 8.5 4.5 8.5C5.32843 8.5 6 9.17157 6 10C6 10.8284 5.32843 11.5 4.5 11.5C3.67157 11.5 3 10.8284 3 10Z" />
<path d="M8.5 10C8.5 9.17157 9.17157 8.5 10 8.5C10.8284 8.5 11.5 9.17157 11.5 10C11.5 10.8284 10.8284 11.5 10 11.5C9.17157 11.5 8.5 10.8284 8.5 10Z" />
<path d="M15.5 8.5C14.6716 8.5 14 9.17157 14 10C14 10.8284 14.6716 11.5 15.5 11.5C16.3284 11.5 17 10.8284 17 10C17 9.17157 16.3284 8.5 15.5 8.5Z" />

    </svg>
  </g>
  <!-- Icon 13: calendar-days -->
  <g transform="translate(320, 80)">
    <rect width="48" height="48" fill="#1a1a1a" stroke="#333333" stroke-width="1" rx="4"/>
    <svg x="8" y="8" width="32" height="32" viewBox="0 0 20 20" style="fill: #ffffff; stroke: none;">
      
<path d="M5.25 12C5.25 11.5858 5.58579 11.25 6 11.25H6.01C6.42421 11.25 6.76 11.5858 6.76 12V12.01C6.76 12.4242 6.42421 12.76 6.01 12.76H6C5.58579 12.76 5.25 12.4242 5.25 12.01V12Z" />
<path d="M6 13.25C5.58579 13.25 5.25 13.5858 5.25 14V14.01C5.25 14.4242 5.58579 14.76 6 14.76H6.01C6.42421 14.76 6.76 14.4242 6.76 14.01V14C6.76 13.5858 6.42421 13.25 6.01 13.25H6Z" />
<path d="M7.25 12C7.25 11.5858 7.58579 11.25 8 11.25H8.01C8.42421 11.25 8.76 11.5858 8.76 12V12.01C8.76 12.4242 8.42421 12.76 8.01 12.76H8C7.58579 12.76 7.25 12.4242 7.25 12.01V12Z" />
<path d="M8 13.25C7.58579 13.25 7.25 13.5858 7.25 14V14.01C7.25 14.4242 7.58579 14.76 8 14.76H8.01C8.42421 14.76 8.76 14.4242 8.76 14.01V14C8.76 13.5858 8.42421 13.25 8.01 13.25H8Z" />
<path d="M9.25 10C9.25 9.58579 9.58579 9.25 10 9.25H10.01C10.4242 9.25 10.76 9.58579 10.76 10V10.01C10.76 10.4242 10.4242 10.76 10.01 10.76H10C9.58579 10.76 9.25 10.4242 9.25 10.01V10Z" />
<path d="M10 11.25C9.58579 11.25 9.25 11.5858 9.25 12V12.01C9.25 12.4242 9.58579 12.76 10 12.76H10.01C10.4242 12.76 10.76 12.4242 10.76 12.01V12C10.76 11.5858 10.4242 11.25 10.01 11.25H10Z" />
<path d="M9.25 14C9.25 13.5858 9.58579 13.25 10 13.25H10.01C10.4242 13.25 10.76 13.5858 10.76 14V14.01C10.76 14.4242 10.4242 14.76 10.01 14.76H10C9.58579 14.76 9.25 14.4242 9.25 14.01V14Z" />
<path d="M12 9.25C11.5858 9.25 11.25 9.58579 11.25 10V10.01C11.25 10.4242 11.5858 10.76 12 10.76H12.01C12.4242 10.76 12.76 10.4242 12.76 10.01V10C12.76 9.58579 12.4242 9.25 12.01 9.25H12Z" />
<path d="M11.25 12C11.25 11.5858 11.5858 11.25 12 11.25H12.01C12.4242 11.25 12.76 11.5858 12.76 12V12.01C12.76 12.4242 12.4242 12.76 12.01 12.76H12C11.5858 12.76 11.25 12.4242 11.25 12.01V12Z" />
<path d="M12 13.25C11.5858 13.25 11.25 13.5858 11.25 14V14.01C11.25 14.4242 11.5858 14.76 12 14.76H12.01C12.4242 14.76 12.76 14.4242 12.76 14.01V14C12.76 13.5858 12.4242 13.25 12.01 13.25H12Z" />
<path d="M13.25 10C13.25 9.58579 13.5858 9.25 14 9.25H14.01C14.4242 9.25 14.76 9.58579 14.76 10V10.01C14.76 10.4242 14.4242 10.76 14.01 10.76H14C13.5858 10.76 13.25 10.4242 13.25 10.01V10Z" />
<path d="M14 11.25C13.5858 11.25 13.25 11.5858 13.25 12V12.01C13.25 12.4242 13.5858 12.76 14 12.76H14.01C14.4242 12.76 14.76 12.4242 14.76 12.01V12C14.76 11.5858 14.4242 11.25 14.01 11.25H14Z" />
<path fill-rule="evenodd" clip-rule="evenodd" d="M5.75 2C6.16421 2 6.5 2.33579 6.5 2.75V4H13.5V2.75C13.5 2.33579 13.8358 2 14.25 2C14.6642 2 15 2.33579 15 2.75V4H15.25C16.7688 4 18 5.23122 18 6.75V15.25C18 16.7688 16.7688 18 15.25 18H4.75C3.23122 18 2 16.7688 2 15.25V6.75C2 5.23122 3.23122 4 4.75 4H5V2.75C5 2.33579 5.33579 2 5.75 2ZM4.75 7.5C4.05964 7.5 3.5 8.05964 3.5 8.75V15.25C3.5 15.9404 4.05964 16.5 4.75 16.5H15.25C15.9404 16.5 16.5 15.9404 16.5 15.25V8.75C16.5 8.05964 15.9404 7.5 15.25 7.5H4.75Z" />

    </svg>
  </g>
  <!-- Icon 14: arrow-path-rounded-square -->
  <g transform="translate(380, 80)">
    <rect width="48" height="48" fill="#1a1a1a" stroke="#333333" stroke-width="1" rx="4"/>
    <svg x="8" y="8" width="32" height="32" viewBox="0 0 20 20" style="fill: #ffffff; stroke: none;">
      
<path fill-rule="evenodd" clip-rule="evenodd" d="M10 4.5C11.215 4.5 12.4171 4.55484 13.6038 4.66214C13.9249 4.69118 14.1802 4.93931 14.2185 5.25934C14.3426 6.29702 14.4265 7.34718 14.4685 8.40824L12.7804 6.71973C12.4875 6.4268 12.0126 6.42675 11.7197 6.71961C11.4268 7.01247 11.4267 7.48735 11.7196 7.78027L14.7189 10.7802C15.0117 11.0731 15.4866 11.0732 15.7795 10.7803L18.7803 7.78041C19.0732 7.48755 19.0733 7.01268 18.7804 6.71975C18.4875 6.42681 18.0127 6.42674 17.7197 6.71959L15.9719 8.46698C15.9299 7.32601 15.8413 6.19681 15.7079 5.08123C15.5855 4.05775 14.7654 3.26106 13.7389 3.16824C12.5073 3.05688 11.2602 3 10 3C8.73981 3 7.49271 3.05688 6.26115 3.16824C5.23465 3.26105 4.41449 4.05775 4.2921 5.08123C4.22831 5.61464 4.17477 6.15117 4.13167 6.69061C4.09868 7.10351 4.40666 7.46497 4.81956 7.49796C5.23245 7.53095 5.59391 7.22297 5.6269 6.81007C5.66843 6.29024 5.72003 5.77326 5.78148 5.25934C5.81975 4.93931 6.07514 4.69118 6.39623 4.66214C7.58294 4.55484 8.78497 4.5 10 4.5ZM5.28113 9.22C4.98828 8.9271 4.51345 8.92704 4.22052 9.21987L1.21976 12.2196C0.926819 12.5124 0.926735 12.9873 1.21958 13.2802C1.51242 13.5732 1.98729 13.5733 2.28024 13.2804L4.02814 11.5331C4.0701 12.6741 4.15869 13.8032 4.2921 14.9188C4.41449 15.9422 5.23465 16.7389 6.26115 16.8318C7.49271 16.9431 8.73981 17 10 17C11.2602 17 12.5073 16.9431 13.7389 16.8318C14.7654 16.7389 15.5855 15.9423 15.7079 14.9188C15.7717 14.3849 15.8253 13.848 15.8684 13.3081C15.9014 12.8952 15.5934 12.5338 15.1805 12.5008C14.7676 12.4678 14.4062 12.7758 14.3732 13.1887C14.3316 13.709 14.28 14.2263 14.2185 14.7407C14.1802 15.0607 13.9249 15.3088 13.6038 15.3379C12.4171 15.4452 11.215 15.5 10 15.5C8.78497 15.5 7.58294 15.4452 6.39623 15.3379C6.07514 15.3088 5.81975 15.0607 5.78148 14.7407C5.6574 13.703 5.57352 12.6529 5.53148 11.5919L7.21963 13.2803C7.5125 13.5732 7.98737 13.5732 8.28029 13.2804C8.57321 12.9875 8.57324 12.5126 8.28037 12.2197L5.28113 9.22Z" />

    </svg>
  </g>
  <!-- Icon 15: scale -->
  <g transform="translate(20, 140)">
    <rect width="48" height="48" fill="#1a1a1a" stroke="#333333" stroke-width="1" rx="4"/>
    <svg x="8" y="8" width="32" height="32" viewBox="0 0 24 24" style="color: #ffffff; fill: #ffffff;">
      
  <path fill-rule="evenodd" d="M12 2.25a.75.75 0 0 1 .75.75v.756a49.106 49.106 0 0 1 9.152 1 .75.75 0 0 1-.152 1.485h-1.918l2.474 10.124a.75.75 0 0 1-.375.84A6.723 6.723 0 0 1 18.75 18a6.723 6.723 0 0 1-3.181-.795.75.75 0 0 1-.375-.84l2.474-10.124H12.75v13.28c1.293.076 2.534.343 3.697.776a.75.75 0 0 1-.262 1.453h-8.37a.75.75 0 0 1-.262-1.453c1.162-.433 2.404-.7 3.697-.775V6.24H6.332l2.474 10.124a.75.75 0 0 1-.375.84A6.723 6.723 0 0 1 5.25 18a6.723 6.723 0 0 1-3.181-.795.75.75 0 0 1-.375-.84L4.168 6.241H2.25a.75.75 0 0 1-.152-1.485 49.105 49.105 0 0 1 9.152-1V3a.75.75 0 0 1 .75-.75Zm4.878 13.543 1.872-7.662 1.872 7.662h-3.744Zm-9.756 0L5.25 8.131l-1.872 7.662h3.744Z" clip-rule="evenodd"/>

    </svg>
  </g>
  <!-- Icon 16: h3 -->
  <g transform="translate(80, 140)">
    <rect width="48" height="48" fill="#1a1a1a" stroke="#333333" stroke-width="1" rx="4"/>
    <svg x="8" y="8" width="32" height="32" viewBox="0 0 24 24" style="color: #ffffff; fill: #ffffff;">
      
  <path fill-rule="evenodd" d="M12.749 3.743a.75.75 0 0 1 .75.75v15.002a.75.75 0 1 1-1.5 0v-6.75H2.997v6.75a.75.75 0 0 1-1.5 0V4.494a.75.75 0 1 1 1.5 0v6.75H12v-6.75a.75.75 0 0 1 .75-.75ZM18.75 10.5c-.727 0-1.441.055-2.139.16a.75.75 0 1 1-.223-1.483 15.87 15.87 0 0 1 3.82-.11c.95.088 1.926.705 2.168 1.794a5.265 5.265 0 0 1-.579 3.765 5.265 5.265 0 0 1 .578 3.765c-.24 1.088-1.216 1.706-2.167 1.793a15.942 15.942 0 0 1-3.82-.109.75.75 0 0 1 .223-1.483 14.366 14.366 0 0 0 3.46.099c.467-.043.773-.322.84-.624a3.768 3.768 0 0 0-.413-2.691H18a.75.75 0 0 1 0-1.5h2.498a3.768 3.768 0 0 0 .413-2.69c-.067-.303-.373-.582-.84-.625-.435-.04-.876-.06-1.321-.06Z" clip-rule="evenodd"/>

    </svg>
  </g>
  <!-- Icon 17: cloud-arrow-up -->
  <g transform="translate(140, 140)">
    <rect width="48" height="48" fill="#1a1a1a" stroke="#333333" stroke-width="1" rx="4"/>
    <svg x="8" y="8" width="32" height="32" viewBox="0 0 24 24" style="color: #ffffff; fill: #ffffff;">
      
  <path fill-rule="evenodd" d="M10.5 3.75a6 6 0 0 0-5.98 6.496A5.25 5.25 0 0 0 6.75 20.25H18a4.5 4.5 0 0 0 2.206-8.423 3.75 3.75 0 0 0-4.133-4.303A6.001 6.001 0 0 0 10.5 3.75Zm2.03 5.47a.75.75 0 0 0-1.06 0l-3 3a.75.75 0 1 0 1.06 1.06l1.72-1.72v4.94a.75.75 0 0 0 1.5 0v-4.94l1.72 1.72a.75.75 0 1 0 1.06-1.06l-3-3Z" clip-rule="evenodd"/>

    </svg>
  </g>
  <!-- Icon 18: arrow-uturn-up -->
  <g transform="translate(200, 140)">
    <rect width="48" height="48" fill="#1a1a1a" stroke="#333333" stroke-width="1" rx="4"/>
    <svg x="8" y="8" width="32" height="32" viewBox="0 0 24 24" style="color: #ffffff; fill: #ffffff;">
      
  <path fill-rule="evenodd" d="M21.53 9.53a.75.75 0 0 1-1.06 0l-4.72-4.72V15a6.75 6.75 0 0 1-13.5 0v-3a.75.75 0 0 1 1.5 0v3a5.25 5.25 0 1 0 10.5 0V4.81L9.53 9.53a.75.75 0 0 1-1.06-1.06l6-6a.75.75 0 0 1 1.06 0l6 6a.75.75 0 0 1 0 1.06Z" clip-rule="evenodd"/>

    </svg>
  </g>
  <!-- Icon 19: underline -->
  <g transform="translate(260, 140)">
    <rect width="48" height="48" fill="#1a1a1a" stroke="#333333" stroke-width="1" rx="4"/>
    <svg x="8" y="8" width="32" height="32" viewBox="0 0 24 24" style="stroke: #ffffff; fill: none; stroke-width: 2; stroke-linecap: round; stroke-linejoin: round;">
      
  <path stroke-linecap="round" stroke-linejoin="round" d="M17.995 3.744v7.5a6 6 0 1 1-12 0v-7.5m-2.25 16.502h16.5"/>

    </svg>
  </g>
  <!-- Icon 20: minus-small -->
  <g transform="translate(320, 140)">
    <rect width="48" height="48" fill="#1a1a1a" stroke="#333333" stroke-width="1" rx="4"/>
    <svg x="8" y="8" width="32" height="32" viewBox="0 0 24 24" style="stroke: #ffffff; fill: none; stroke-width: 2; stroke-linecap: round; stroke-linejoin: round;">
      
  <path stroke-linecap="round" stroke-linejoin="round" d="M18 12H6"/>

    </svg>
  </g>
  <!-- Icon 21: document-currency-rupee -->
  <g transform="translate(380, 140)">
    <rect width="48" height="48" fill="#1a1a1a" stroke="#333333" stroke-width="1" rx="4"/>
    <svg x="8" y="8" width="32" height="32" viewBox="0 0 24 24" style="stroke: #ffffff; fill: none; stroke-width: 2; stroke-linecap: round; stroke-linejoin: round;">
      
  <path stroke-linecap="round" stroke-linejoin="round" d="M19.5 14.25v-2.625a3.375 3.375 0 0 0-3.375-3.375h-1.5A1.125 1.125 0 0 1 13.5 7.125v-1.5a3.375 3.375 0 0 0-3.375-3.375H8.25m2.25 9h3.75m-4.5 2.625h4.5M12 18.75 9.75 16.5h.375a2.625 2.625 0 0 0 0-5.25H9.75m.75-9H5.625c-.621 0-1.125.504-1.125 1.125v17.25c0 .621.504 1.125 1.125 1.125h12.75c.621 0 1.125-.504 1.125-1.125V11.25a9 9 0 0 0-9-9Z"/>

    </svg>
  </g>
  <!-- Icon 22: briefcase -->
  <g transform="translate(20, 200)">
    <rect width="48" height="48" fill="#1a1a1a" stroke="#333333" stroke-width="1" rx="4"/>
    <svg x="8" y="8" width="32" height="32" viewBox="0 0 24 24" style="stroke: #ffffff; fill: none; stroke-width: 2; stroke-linecap: round; stroke-linejoin: round;">
      
  <path stroke-linecap="round" stroke-linejoin="round" d="M20.25 14.15v4.25c0 1.094-.787 2.036-1.872 2.18-2.087.277-4.216.42-6.378.42s-4.291-.143-6.378-.42c-1.085-.144-1.872-1.086-1.872-2.18v-4.25m16.5 0a2.18 2.18 0 0 0 .75-1.661V8.706c0-1.081-.768-2.015-1.837-2.175a48.114 48.114 0 0 0-3.413-.387m4.5 8.006c-.194.165-.42.295-.673.38A23.978 23.978 0 0 1 12 15.75c-2.648 0-5.195-.429-7.577-1.22a2.016 2.016 0 0 1-.673-.38m0 0A2.18 2.18 0 0 1 3 12.489V8.706c0-1.081.768-2.015 1.837-2.175a48.111 48.111 0 0 1 3.413-.387m7.5 0V5.25A2.25 2.25 0 0 0 13.5 3h-3a2.25 2.25 0 0 0-2.25 2.25v.894m7.5 0a48.667 48.667 0 0 0-7.5 0M12 12.75h.008v.008H12v-.008Z"/>

    </svg>
  </g>
  <!-- Icon 23: arrow-left-circle -->
  <g transform="translate(80, 200)">
    <rect width="48" height="48" fill="#1a1a1a" stroke="#333333" stroke-width="1" rx="4"/>
    <svg x="8" y="8" width="32" height="32" viewBox="0 0 24 24" style="stroke: #ffffff; fill: none; stroke-width: 2; stroke-linecap: round; stroke-linejoin: round;">
      
  <path stroke-linecap="round" stroke-linejoin="round" d="m11.25 9-3 3m0 0 3 3m-3-3h7.5M21 12a9 9 0 1 1-18 0 9 9 0 0 1 18 0Z"/>

    </svg>
  </g>
  <!-- Icon 24: question-mark-circle -->
  <g transform="translate(140, 200)">
    <rect width="48" height="48" fill="#1a1a1a" stroke="#333333" stroke-width="1" rx="4"/>
    <svg x="8" y="8" width="32" height="32" viewBox="0 0 20 20" style="color: #ffffff; fill: #ffffff;">
      
  <path fill-rule="evenodd" d="M18 10a8 8 0 1 1-16 0 8 8 0 0 1 16 0ZM8.94 6.94a.75.75 0 1 1-1.061-1.061 3 3 0 1 1 2.871 5.026v.345a.75.75 0 0 1-1.5 0v-.5c0-.72.57-1.172 1.081-1.287A1.5 1.5 0 1 0 8.94 6.94ZM10 15a1 1 0 1 0 0-2 1 1 0 0 0 0 2Z" clip-rule="evenodd"/>

    </svg>
  </g>
  <!-- Icon 25: gif -->
  <g transform="translate(200, 200)">
    <rect width="48" height="48" fill="#1a1a1a" stroke="#333333" stroke-width="1" rx="4"/>
    <svg x="8" y="8" width="32" height="32" viewBox="0 0 20 20" style="color: #ffffff; fill: #ffffff;">
      
  <path fill-rule="evenodd" d="M1 5.25A2.25 2.25 0 0 1 3.25 3h13.5A2.25 2.25 0 0 1 19 5.25v9.5A2.25 2.25 0 0 1 16.75 17H3.25A2.25 2.25 0 0 1 1 14.75v-9.5Zm4.026 2.879C5.356 7.65 5.72 7.5 6 7.5s.643.15.974.629a.75.75 0 0 0 1.234-.854C7.66 6.484 6.873 6 6 6c-.873 0-1.66.484-2.208 1.275C3.25 8.059 3 9.048 3 10c0 .952.25 1.941.792 2.725C4.34 13.516 5.127 14 6 14c.873 0 1.66-.484 2.208-1.275a.75.75 0 0 0 .133-.427V10a.75.75 0 0 0-.75-.75H6.25a.75.75 0 0 0 0 1.5h.591v1.295c-.293.342-.6.455-.841.455-.279 0-.643-.15-.974-.629C4.69 11.386 4.5 10.711 4.5 10c0-.711.19-1.386.526-1.871ZM10.75 6a.75.75 0 0 1 .75.75v6.5a.75.75 0 0 1-1.5 0v-6.5a.75.75 0 0 1 .75-.75Zm3 0h2.5a.75.75 0 0 1 0 1.5H14.5v1.75h.75a.75.75 0 0 1 0 1.5h-.75v2.5a.75.75 0 0 1-1.5 0v-6.5a.75.75 0 0 1 .75-.75Z" clip-rule="evenodd"/>

    </svg>
  </g>
  <!-- Icon 26: chevron-up-down -->
  <g transform="translate(260, 200)">
    <rect width="48" height="48" fill="#1a1a1a" stroke="#333333" stroke-width="1" rx="4"/>
    <svg x="8" y="8" width="32" height="32" viewBox="0 0 20 20" style="color: #ffffff; fill: #ffffff;">
      
  <path fill-rule="evenodd" d="M10.53 3.47a.75.75 0 0 0-1.06 0L6.22 6.72a.75.75 0 0 0 1.06 1.06L10 5.06l2.72 2.72a.75.75 0 1 0 1.06-1.06l-3.25-3.25Zm-4.31 9.81 3.25 3.25a.75.75 0 0 0 1.06 0l3.25-3.25a.75.75 0 1 0-1.06-1.06L10 14.94l-2.72-2.72a.75.75 0 0 0-1.06 1.06Z" clip-rule="evenodd"/>

    </svg>
  </g>
  <!-- Icon 27: arrow-up-left -->
  <g transform="translate(320, 200)">
    <rect width="48" height="48" fill="#1a1a1a" stroke="#333333" stroke-width="1" rx="4"/>
    <svg x="8" y="8" width="32" height="32" viewBox="0 0 20 20" style="color: #ffffff; fill: #ffffff;">
      
  <path fill-rule="evenodd" d="M14.78 14.78a.75.75 0 0 1-1.06 0L6.5 7.56v5.69a.75.75 0 0 1-1.5 0v-7.5A.75.75 0 0 1 5.75 5h7.5a.75.75 0 0 1 0 1.5H7.56l7.22 7.22a.75.75 0 0 1 0 1.06Z" clip-rule="evenodd"/>

    </svg>
  </g>
  <!-- Icon 28: sun -->
  <g transform="translate(380, 200)">
    <rect width="48" height="48" fill="#1a1a1a" stroke="#333333" stroke-width="1" rx="4"/>
    <svg x="8" y="8" width="32" height="32" viewBox="0 0 16 16" style="color: #ffffff; fill: #ffffff;">
      
  <path d="M8 1a.75.75 0 0 1 .75.75v1.5a.75.75 0 0 1-1.5 0v-1.5A.75.75 0 0 1 8 1ZM10.5 8a2.5 2.5 0 1 1-5 0 2.5 2.5 0 0 1 5 0ZM12.95 4.11a.75.75 0 1 0-1.06-1.06l-1.062 1.06a.75.75 0 0 0 1.061 1.062l1.06-1.061ZM15 8a.75.75 0 0 1-.75.75h-1.5a.75.75 0 0 1 0-1.5h1.5A.75.75 0 0 1 15 8ZM11.89 12.95a.75.75 0 0 0 1.06-1.06l-1.06-1.062a.75.75 0 0 0-1.062 1.061l1.061 1.06ZM8 12a.75.75 0 0 1 .75.75v1.5a.75.75 0 0 1-1.5 0v-1.5A.75.75 0 0 1 8 12ZM5.172 11.89a.75.75 0 0 0-1.061-1.062L3.05 11.89a.75.75 0 1 0 1.06 1.06l1.06-1.06ZM4 8a.75.75 0 0 1-.75.75h-1.5a.75.75 0 0 1 0-1.5h1.5A.75.75 0 0 1 4 8ZM4.11 5.172A.75.75 0 0 0 5.173 4.11L4.11 3.05a.75.75 0 1 0-1.06 1.06l1.06 1.06Z"/>

    </svg>
  </g>
  <!-- Icon 29: lock-closed -->
  <g transform="translate(20, 260)">
    <rect width="48" height="48" fill="#1a1a1a" stroke="#333333" stroke-width="1" rx="4"/>
    <svg x="8" y="8" width="32" height="32" viewBox="0 0 16 16" style="color: #ffffff; fill: #ffffff;">
      
  <path fill-rule="evenodd" d="M8 1a3.5 3.5 0 0 0-3.5 3.5V7A1.5 1.5 0 0 0 3 8.5v5A1.5 1.5 0 0 0 4.5 15h7a1.5 1.5 0 0 0 1.5-1.5v-5A1.5 1.5 0 0 0 11.5 7V4.5A3.5 3.5 0 0 0 8 1Zm2 6V4.5a2 2 0 1 0-4 0V7h4Z" clip-rule="evenodd"/>

    </svg>
  </g>
  <!-- Icon 30: device-phone-mobile -->
  <g transform="translate(80, 260)">
    <rect width="48" height="48" fill="#1a1a1a" stroke="#333333" stroke-width="1" rx="4"/>
    <svg x="8" y="8" width="32" height="32" viewBox="0 0 16 16" style="color: #ffffff; fill: #ffffff;">
      
  <path d="M7.25 11.5a.75.75 0 0 0 0 1.5h1.5a.75.75 0 0 0 0-1.5h-1.5Z"/>
  <path fill-rule="evenodd" d="M6 1a2.5 2.5 0 0 0-2.5 2.5v9A2.5 2.5 0 0 0 6 15h4a2.5 2.5 0 0 0 2.5-2.5v-9A2.5 2.5 0 0 0 10 1H6Zm4 1.5h-.5V3a.5.5 0 0 1-.5.5H7a.5.5 0 0 1-.5-.5v-.5H6a1 1 0 0 0-1 1v9a1 1 0 0 0 1 1h4a1 1 0 0 0 1-1v-9a1 1 0 0 0-1-1Z" clip-rule="evenodd"/>

    </svg>
  </g>
  <!-- Icon 31: bell-alert -->
  <g transform="translate(140, 260)">
    <rect width="48" height="48" fill="#1a1a1a" stroke="#333333" stroke-width="1" rx="4"/>
    <svg x="8" y="8" width="32" height="32" viewBox="0 0 16 16" style="color: #ffffff; fill: #ffffff;">
      
  <path d="M3.6 1.7A.75.75 0 1 0 2.4.799a6.978 6.978 0 0 0-1.123 2.247.75.75 0 1 0 1.44.418c.187-.644.489-1.24.883-1.764ZM13.6.799a.75.75 0 1 0-1.2.9 5.48 5.48 0 0 1 .883 1.765.75.75 0 1 0 1.44-.418A6.978 6.978 0 0 0 13.6.799Z"/>
  <path fill-rule="evenodd" d="M8 1a4 4 0 0 1 4 4v2.379c0 .398.158.779.44 1.06l1.267 1.268a1 1 0 0 1 .293.707V11a1 1 0 0 1-1 1h-2a3 3 0 1 1-6 0H3a1 1 0 0 1-1-1v-.586a1 1 0 0 1 .293-.707L3.56 8.44A1.5 1.5 0 0 0 4 7.38V5a4 4 0 0 1 4-4Zm0 12.5A1.5 1.5 0 0 1 6.5 12h3A1.5 1.5 0 0 1 8 13.5Z" clip-rule="evenodd"/>

    </svg>
  </g>
  <!-- Icon 32: wrench-screwdriver -->
  <g transform="translate(200, 260)">
    <rect width="48" height="48" fill="#1a1a1a" stroke="#333333" stroke-width="1" rx="4"/>
    <svg x="8" y="8" width="32" height="32" viewBox="0 0 16 16" style="fill: #ffffff; stroke: none;">
      
<path fill-rule="evenodd" clip-rule="evenodd" d="M15 4.5C15 6.433 13.433 8 11.5 8C11.4782 8 11.4564 7.9998 11.4347 7.9994C10.4457 7.98129 9.34165 8.13216 8.73436 8.91296L4.60494 14.2222C4.22325 14.713 3.63637 15 3.01466 15C1.90199 15 1 14.098 1 12.9853C1 12.3636 1.28703 11.7768 1.77778 11.3951L7.08704 7.26564C7.86784 6.65835 8.01871 5.55435 8.0006 4.56535C8.0002 4.54361 8 4.52183 8 4.5C8 2.567 9.567 1 11.5 1C11.8391 1 12.1669 1.04822 12.477 1.13817C12.8017 1.23238 12.8662 1.63516 12.6271 1.87425L10.5995 3.90184C10.4212 4.08015 10.4024 4.36442 10.5672 4.55521C10.8384 4.86896 11.1321 5.16267 11.4459 5.43382C11.6367 5.59872 11.921 5.57986 12.0993 5.40148L14.126 3.37385C14.365 3.13464 14.768 3.19913 14.8621 3.52398C14.9519 3.83377 15 4.16127 15 4.5ZM3.75 13C3.75 13.4142 3.41421 13.75 3 13.75C2.58579 13.75 2.25 13.4142 2.25 13C2.25 12.5858 2.58579 12.25 3 12.25C3.41421 12.25 3.75 12.5858 3.75 13Z" />
<path d="M11.5 9.5C11.8133 9.5 12.1198 9.47119 12.4171 9.41609L14.3792 11.3782C14.777 11.776 15.0005 12.3156 15.0005 12.8782C15.0005 14.0498 14.0508 14.9995 12.8792 14.9995C12.3166 14.9995 11.777 14.776 11.3792 14.3782L8.56934 11.5684L9.91839 9.83387C9.96832 9.76968 10.077 9.67625 10.3455 9.60111C10.6235 9.52335 10.984 9.4914 11.4072 9.49915C11.4381 9.49972 11.469 9.5 11.5 9.5Z" />
<path d="M5.0005 3.99953L6.44618 5.4452C6.43289 5.51934 6.41715 5.58918 6.39889 5.65446C6.32375 5.923 6.23032 6.03168 6.16613 6.08161L5.55663 6.55566L4.0005 4.99953H2.65501C2.56032 4.99953 2.47375 4.94603 2.43141 4.86133L1.08109 2.16069C1.03296 2.06445 1.05183 1.9482 1.12792 1.87211L1.87309 1.12694C1.94918 1.05085 2.06542 1.03199 2.16167 1.08011L4.86231 2.43043C4.947 2.47278 5.0005 2.55934 5.0005 2.65404V3.99953Z" />

    </svg>
  </g>
  <!-- Icon 33: percent-badge -->
  <g transform="translate(260, 260)">
    <rect width="48" height="48" fill="#1a1a1a" stroke="#333333" stroke-width="1" rx="4"/>
    <svg x="8" y="8" width="32" height="32" viewBox="0 0 16 16" style="fill: #ffffff; stroke: none;">
      
<path fill-rule="evenodd" clip-rule="evenodd" d="M3.39568 6.09292C2.58649 6.34911 2 7.10606 2 8C2 8.89408 2.58668 9.65114 3.39607 9.9072C3.00501 10.6605 3.12554 11.6105 3.75766 12.2426C4.38973 12.8747 5.33961 12.9953 6.09292 12.6043C6.34911 13.4135 7.10606 14 8 14C8.89414 14 9.65124 13.4132 9.90725 12.6038C10.6606 12.995 11.6108 12.8745 12.243 12.2423C12.8751 11.6102 12.9957 10.6603 12.6046 9.90697C13.4137 9.65069 14 8.89382 14 8C14 7.10586 13.4132 6.34876 12.6038 6.09275C12.995 5.33936 12.8745 4.3892 12.2423 3.75699C11.6102 3.12489 10.6603 3.00434 9.90697 3.39536C9.65069 2.58633 8.89382 2 8 2C7.10592 2 6.34886 2.58668 6.0928 3.39607C5.33946 3.00501 4.38948 3.12554 3.75736 3.75766C3.12529 4.38973 3.00473 5.33961 3.39568 6.09292ZM6 7C6.55228 7 7 6.55228 7 6C7 5.44772 6.55228 5 6 5C5.44772 5 5 5.44772 5 6C5 6.55228 5.44772 7 6 7ZM9.46967 5.46967C9.76256 5.17678 10.2374 5.17678 10.5303 5.46967C10.8232 5.76256 10.8232 6.23744 10.5303 6.53033L6.53033 10.5303C6.23744 10.8232 5.76256 10.8232 5.46967 10.5303C5.17678 10.2374 5.17678 9.76256 5.46967 9.46967L9.46967 5.46967ZM11 10C11 10.5523 10.5523 11 10 11C9.44771 11 9 10.5523 9 10C9 9.44771 9.44771 9 10 9C10.5523 9 11 9.44771 11 10Z" />

    </svg>
  </g>
  <!-- Icon 34: equals -->
  <g transform="translate(320, 260)">
    <rect width="48" height="48" fill="#1a1a1a" stroke="#333333" stroke-width="1" rx="4"/>
    <svg x="8" y="8" width="32" height="32" viewBox="0 0 16 16" style="fill: #ffffff; stroke: none;">
      
<path fill-rule="evenodd" clip-rule="evenodd" d="M2 4.75C2 4.33579 2.33579 4 2.75 4H13.25C13.6642 4 14 4.33579 14 4.75C14 5.16421 13.6642 5.5 13.25 5.5H2.75C2.33579 5.5 2 5.16421 2 4.75Z" />
<path fill-rule="evenodd" clip-rule="evenodd" d="M2 11.25C2 10.8358 2.33579 10.5 2.75 10.5H13.25C13.6642 10.5 14 10.8358 14 11.25C14 11.6642 13.6642 12 13.25 12H2.75C2.33579 12 2 11.6642 2 11.25Z" />

    </svg>
  </g>
  <!-- Icon 35: chart-bar -->
  <g transform="translate(380, 260)">
    <rect width="48" height="48" fill="#1a1a1a" stroke="#333333" stroke-width="1" rx="4"/>
    <svg x="8" y="8" width="32" height="32" viewBox="0 0 16 16" style="fill: #ffffff; stroke: none;">
      
<path d="M12 2C11.4477 2 11 2.44772 11 3V13C11 13.5523 11.4477 14 12 14H13C13.5523 14 14 13.5523 14 13V3C14 2.44772 13.5523 2 13 2H12Z" />
<path d="M6.5 6C6.5 5.44772 6.94772 5 7.5 5H8.5C9.05228 5 9.5 5.44772 9.5 6V13C9.5 13.5523 9.05228 14 8.5 14H7.5C6.94772 14 6.5 13.5523 6.5 13V6Z" />
<path d="M2 9C2 8.44772 2.44772 8 3 8H4C4.55228 8 5 8.44772 5 9V13C5 13.5523 4.55228 14 4 14H3C2.44772 14 2 13.5523 2 13V9Z" />

    </svg>
  </g>

  <!-- Title Background -->
  <rect x="0" y="323" width="448" height="60" fill="#1a1a1a"/>
  
  <!-- Title -->
  <text x="20" y="348" text-anchor="start" font-family="system-ui, -apple-system, sans-serif" font-size="18" font-weight="bold" fill="#ffffff">Heroicons - default</text>

</svg>