<svg width="800" height="600" xmlns="http://www.w3.org/2000/svg">
  <!-- Background -->
  <rect width="800" height="600" fill="#ffffff"/>
  
  <!-- Header Background -->
  <rect width="800" height="80" fill="#f8f9fa"/>
  
  <!-- Title -->
  <text x="400" y="30" text-anchor="middle" font-family="system-ui, -apple-system, sans-serif" font-size="20" font-weight="bold" fill="#212529">Heroicons - default</text>
  
  <!-- Subtitle -->
  <text x="400" y="55" text-anchor="middle" font-family="system-ui, -apple-system, sans-serif" font-size="14" fill="#6c757d">1,280 icons</text>
  
  <!-- Icon Grid -->
  <!-- Icon 1: x-mark -->
  <g transform="translate(196, 92)">
    <rect width="48" height="48" fill="#ffffff" stroke="#e9ecef" stroke-width="1" rx="4"/>
    <svg x="8" y="8" width="32" height="32" viewBox="0 0 24 24">
      
<path d="M6 18L18 6M6 6L18 18" stroke="#2563eb" stroke-width="2" stroke-linecap="round" stroke-linejoin="round"/>

    </svg>
  </g>
  <!-- Icon 2: phone -->
  <g transform="translate(256, 92)">
    <rect width="48" height="48" fill="#ffffff" stroke="#e9ecef" stroke-width="1" rx="4"/>
    <svg x="8" y="8" width="32" height="32" viewBox="0 0 24 24">
      
<path d="M2.25 6.75C2.25 15.0343 8.96573 21.75 17.25 21.75H19.5C20.7426 21.75 21.75 20.7426 21.75 19.5V18.1284C21.75 17.6121 21.3987 17.1622 20.8979 17.037L16.4747 15.9312C16.0355 15.8214 15.5734 15.9855 15.3018 16.3476L14.3316 17.6412C14.05 18.0166 13.563 18.1827 13.1223 18.0212C9.81539 16.8098 7.19015 14.1846 5.97876 10.8777C5.81734 10.437 5.98336 9.94998 6.3588 9.6684L7.65242 8.69818C8.01453 8.4266 8.17861 7.96445 8.06883 7.52533L6.96304 3.10215C6.83783 2.60133 6.38785 2.25 5.87163 2.25H4.5C3.25736 2.25 2.25 3.25736 2.25 4.5V6.75Z" stroke="#2563eb" stroke-width="2" stroke-linecap="round" stroke-linejoin="round"/>

    </svg>
  </g>
  <!-- Icon 3: eye -->
  <g transform="translate(316, 92)">
    <rect width="48" height="48" fill="#ffffff" stroke="#e9ecef" stroke-width="1" rx="4"/>
    <svg x="8" y="8" width="32" height="32" viewBox="0 0 24 24">
      
<path d="M2.03555 12.3224C1.96647 12.1151 1.9664 11.8907 2.03536 11.6834C3.42372 7.50972 7.36079 4.5 12.0008 4.5C16.6387 4.5 20.5742 7.50692 21.9643 11.6776C22.0334 11.8849 22.0335 12.1093 21.9645 12.3166C20.5761 16.4903 16.6391 19.5 11.9991 19.5C7.36119 19.5 3.42564 16.4931 2.03555 12.3224Z" stroke="#2563eb" stroke-width="2" stroke-linecap="round" stroke-linejoin="round"/>
<path d="M15 12C15 13.6569 13.6569 15 12 15C10.3431 15 9 13.6569 9 12C9 10.3431 10.3431 9 12 9C13.6569 9 15 10.3431 15 12Z" stroke="#2563eb" stroke-width="2" stroke-linecap="round" stroke-linejoin="round"/>

    </svg>
  </g>
  <!-- Icon 4: chat-bubble-left-right -->
  <g transform="translate(376, 92)">
    <rect width="48" height="48" fill="#ffffff" stroke="#e9ecef" stroke-width="1" rx="4"/>
    <svg x="8" y="8" width="32" height="32" viewBox="0 0 24 24">
      
<path d="M20.25 8.51104C21.1341 8.79549 21.75 9.6392 21.75 10.6082V14.8938C21.75 16.0304 20.9026 16.9943 19.7697 17.0867C19.4308 17.1144 19.0909 17.1386 18.75 17.1592V20.25L15.75 17.25C14.3963 17.25 13.0556 17.1948 11.7302 17.0866C11.4319 17.0623 11.1534 16.9775 10.9049 16.8451M20.25 8.51104C20.0986 8.46232 19.9393 8.43 19.7739 8.41628C18.4472 8.30616 17.1051 8.25 15.75 8.25C14.3948 8.25 13.0528 8.30616 11.7261 8.41627C10.595 8.51015 9.75 9.47323 9.75 10.6082V14.8937C9.75 15.731 10.2099 16.4746 10.9049 16.8451M20.25 8.51104V6.63731C20.25 5.01589 19.0983 3.61065 17.4903 3.40191C15.4478 3.13676 13.365 3 11.2503 3C9.13533 3 7.05233 3.13678 5.00963 3.40199C3.40173 3.61074 2.25 5.01598 2.25 6.63738V12.8626C2.25 14.484 3.40173 15.8893 5.00964 16.098C5.58661 16.1729 6.16679 16.2376 6.75 16.2918V21L10.9049 16.8451" stroke="#2563eb" stroke-width="2" stroke-linecap="round" stroke-linejoin="round"/>

    </svg>
  </g>
  <!-- Icon 5: arrow-small-right -->
  <g transform="translate(436, 92)">
    <rect width="48" height="48" fill="#ffffff" stroke="#e9ecef" stroke-width="1" rx="4"/>
    <svg x="8" y="8" width="32" height="32" viewBox="0 0 24 24">
      
<path d="M4.5 12L19.5 12M19.5 12L12.75 5.25M19.5 12L12.75 18.75" stroke="#2563eb" stroke-width="2" stroke-linecap="round" stroke-linejoin="round"/>

    </svg>
  </g>
  <!-- Icon 6: signal-slash -->
  <g transform="translate(496, 92)">
    <rect width="48" height="48" fill="#ffffff" stroke="#e9ecef" stroke-width="1" rx="4"/>
    <svg x="8" y="8" width="32" height="32" viewBox="0 0 24 24">
      
<path fill-rule="evenodd" clip-rule="evenodd" d="M2.46968 2.46967C2.76257 2.17678 3.23744 2.17678 3.53034 2.46967L11.9374 10.8767C11.9581 10.8756 11.979 10.875 12 10.875C12.6213 10.875 13.125 11.3787 13.125 12C13.125 12.021 13.1244 12.0419 13.1233 12.0626L14.5848 13.5242C15.2643 12.3737 15.1098 10.8671 14.1213 9.87868C13.8284 9.58579 13.8284 9.11091 14.1213 8.81802C14.4142 8.52513 14.8891 8.52513 15.182 8.81802C16.7587 10.3947 16.9208 12.8503 15.6683 14.6077L16.7402 15.6795C18.572 13.3257 18.4062 9.9209 16.2426 7.75736C15.9498 7.46447 15.9498 6.98959 16.2426 6.6967C16.5355 6.40381 17.0104 6.40381 17.3033 6.6967C20.0533 9.44664 20.2213 13.8008 17.8075 16.7468L18.8725 17.8118C21.8696 14.2758 21.7001 8.97217 18.364 5.63604C18.0711 5.34315 18.0711 4.86827 18.364 4.57538C18.6569 4.28249 19.1317 4.28249 19.4246 4.57538C23.3468 8.49757 23.5174 14.7507 19.9363 18.8756L21.5303 20.4697C21.8232 20.7626 21.8232 21.2374 21.5303 21.5303C21.2374 21.8232 20.7626 21.8232 20.4697 21.5303L18.3644 19.4251L16.2426 17.3033L16.242 17.3027L11.5366 12.5972C11.4896 12.5603 11.4472 12.5179 11.4103 12.4709L2.46968 3.53033C2.17678 3.23744 2.17678 2.76256 2.46968 2.46967ZM3.65854 6.89187C4.02729 7.08054 4.17326 7.53242 3.98459 7.90117C2.25352 11.2844 2.80534 15.5333 5.63605 18.364C5.92894 18.6569 5.92894 19.1317 5.63605 19.4246C5.34315 19.7175 4.86828 19.7175 4.57539 19.4246C1.27115 16.1204 0.630437 11.1635 2.64924 7.21792C2.83791 6.84917 3.28979 6.70319 3.65854 6.89187ZM5.84076 9.13355C6.23339 9.2655 6.44473 9.69075 6.31278 10.0834C5.6094 12.1765 6.09233 14.5776 7.75737 16.2426C8.05026 16.5355 8.05026 17.0104 7.75737 17.3033C7.46447 17.5962 6.9896 17.5962 6.69671 17.3033C4.61367 15.2203 4.01314 12.2177 4.89092 9.60558C5.02286 9.21294 5.44812 9.00161 5.84076 9.13355ZM8.182 11.7875C8.5921 11.7293 8.97176 12.0145 9.02999 12.4246C9.11816 13.0455 9.40043 13.6431 9.87869 14.1213C10.1716 14.4142 10.1716 14.8891 9.87869 15.182C9.58579 15.4749 9.11092 15.4749 8.81803 15.182C8.10217 14.4661 7.67717 13.5671 7.54489 12.6355C7.48666 12.2254 7.7719 11.8458 8.182 11.7875Z" fill="#2563eb"/>

    </svg>
  </g>
  <!-- Icon 7: inbox-arrow-down -->
  <g transform="translate(556, 92)">
    <rect width="48" height="48" fill="#ffffff" stroke="#e9ecef" stroke-width="1" rx="4"/>
    <svg x="8" y="8" width="32" height="32" viewBox="0 0 24 24">
      
<path fill-rule="evenodd" clip-rule="evenodd" d="M5.47812 5.55887C5.67178 4.92948 6.25329 4.5 6.91179 4.5H9C9.41421 4.5 9.75 4.16421 9.75 3.75C9.75 3.33579 9.41421 3 9 3H6.91179C5.59478 3 4.43177 3.85897 4.04446 5.11774L1.63266 12.9561C1.54472 13.2419 1.5 13.5393 1.5 13.8383V18C1.5 19.6569 2.84315 21 4.5 21H19.5C21.1569 21 22.5 19.6569 22.5 18V13.8383C22.5 13.5393 22.4553 13.2419 22.3673 12.9561L19.9555 5.11774C19.5682 3.85897 18.4052 3 17.0882 3H15C14.5858 3 14.25 3.33579 14.25 3.75C14.25 4.16421 14.5858 4.5 15 4.5H17.0882C17.7467 4.5 18.3282 4.92948 18.5219 5.55887L20.7345 12.75H17.8906C16.7543 12.75 15.7155 13.392 15.2073 14.4084L14.9511 14.9208C14.697 15.429 14.1776 15.75 13.6094 15.75H10.3906C9.82242 15.75 9.30302 15.429 9.04894 14.9208L8.79271 14.4084C8.28453 13.392 7.24574 12.75 6.10942 12.75H3.26547L5.47812 5.55887Z" fill="#2563eb"/>
<path fill-rule="evenodd" clip-rule="evenodd" d="M12 2.25C12.4142 2.25 12.75 2.58579 12.75 3V9.43934L14.4697 7.71967C14.7626 7.42678 15.2374 7.42678 15.5303 7.71967C15.8232 8.01256 15.8232 8.48744 15.5303 8.78033L12.5303 11.7803C12.2374 12.0732 11.7626 12.0732 11.4697 11.7803L8.46967 8.78033C8.17678 8.48744 8.17678 8.01256 8.46967 7.71967C8.76256 7.42678 9.23744 7.42678 9.53033 7.71967L11.25 9.43934V3C11.25 2.58579 11.5858 2.25 12 2.25Z" fill="#2563eb"/>

    </svg>
  </g>
  <!-- Icon 8: cpu-chip -->
  <g transform="translate(196, 152)">
    <rect width="48" height="48" fill="#ffffff" stroke="#e9ecef" stroke-width="1" rx="4"/>
    <svg x="8" y="8" width="32" height="32" viewBox="0 0 24 24">
      
<path d="M16.5 7.5H7.5V16.5H16.5V7.5Z" fill="#2563eb"/>
<path fill-rule="evenodd" clip-rule="evenodd" d="M8.25 2.25C8.66421 2.25 9 2.58579 9 3V3.75H11.25V3C11.25 2.58579 11.5858 2.25 12 2.25C12.4142 2.25 12.75 2.58579 12.75 3V3.75H15V3C15 2.58579 15.3358 2.25 15.75 2.25C16.1642 2.25 16.5 2.58579 16.5 3V3.75H17.25C18.9069 3.75 20.25 5.09315 20.25 6.75V7.5H21C21.4142 7.5 21.75 7.83579 21.75 8.25C21.75 8.66421 21.4142 9 21 9H20.25V11.25H21C21.4142 11.25 21.75 11.5858 21.75 12C21.75 12.4142 21.4142 12.75 21 12.75H20.25V15H21C21.4142 15 21.75 15.3358 21.75 15.75C21.75 16.1642 21.4142 16.5 21 16.5H20.25V17.25C20.25 18.9069 18.9069 20.25 17.25 20.25H16.5V21C16.5 21.4142 16.1642 21.75 15.75 21.75C15.3358 21.75 15 21.4142 15 21V20.25H12.75V21C12.75 21.4142 12.4142 21.75 12 21.75C11.5858 21.75 11.25 21.4142 11.25 21V20.25H9V21C9 21.4142 8.66421 21.75 8.25 21.75C7.83579 21.75 7.5 21.4142 7.5 21V20.25H6.75C5.09315 20.25 3.75 18.9069 3.75 17.25V16.5H3C2.58579 16.5 2.25 16.1642 2.25 15.75C2.25 15.3358 2.58579 15 3 15H3.75V12.75H3C2.58579 12.75 2.25 12.4142 2.25 12C2.25 11.5858 2.58579 11.25 3 11.25H3.75V9H3C2.58579 9 2.25 8.66421 2.25 8.25C2.25 7.83579 2.58579 7.5 3 7.5H3.75V6.75C3.75 5.09315 5.09315 3.75 6.75 3.75H7.5V3C7.5 2.58579 7.83579 2.25 8.25 2.25ZM6 6.75C6 6.33579 6.33579 6 6.75 6H17.25C17.6642 6 18 6.33579 18 6.75V17.25C18 17.6642 17.6642 18 17.25 18H6.75C6.33579 18 6 17.6642 6 17.25V6.75Z" fill="#2563eb"/>

    </svg>
  </g>
  <!-- Icon 9: bars-2 -->
  <g transform="translate(256, 152)">
    <rect width="48" height="48" fill="#ffffff" stroke="#e9ecef" stroke-width="1" rx="4"/>
    <svg x="8" y="8" width="32" height="32" viewBox="0 0 24 24">
      
<path fill-rule="evenodd" clip-rule="evenodd" d="M3 9C3 8.58579 3.33579 8.25 3.75 8.25H20.25C20.6642 8.25 21 8.58579 21 9C21 9.41421 20.6642 9.75 20.25 9.75H3.75C3.33579 9.75 3 9.41421 3 9ZM3 15.75C3 15.3358 3.33579 15 3.75 15H20.25C20.6642 15 21 15.3358 21 15.75C21 16.1642 20.6642 16.5 20.25 16.5H3.75C3.33579 16.5 3 16.1642 3 15.75Z" fill="#2563eb"/>

    </svg>
  </g>
  <!-- Icon 10: video-camera -->
  <g transform="translate(316, 152)">
    <rect width="48" height="48" fill="#ffffff" stroke="#e9ecef" stroke-width="1" rx="4"/>
    <svg x="8" y="8" width="32" height="32" viewBox="0 0 20 20">
      
<path d="M3.25 4C2.00736 4 1 5.00736 1 6.25V13.75C1 14.9926 2.00736 16 3.25 16H10.75C11.9926 16 13 14.9926 13 13.75V6.25C13 5.00736 11.9926 4 10.75 4H3.25Z" fill="#2563eb"/>
<path d="M19 4.75002C19 4.44668 18.8173 4.1732 18.537 4.05711C18.2568 3.94103 17.9342 4.00519 17.7197 4.21969L14.7197 7.21969C14.579 7.36034 14.5 7.55111 14.5 7.75002V12.25C14.5 12.4489 14.579 12.6397 14.7197 12.7804L17.7197 15.7804C17.9342 15.9949 18.2568 16.059 18.537 15.9429C18.8173 15.8268 19 15.5534 19 15.25V4.75002Z" fill="#2563eb"/>

    </svg>
  </g>
  <!-- Icon 11: paper-clip -->
  <g transform="translate(376, 152)">
    <rect width="48" height="48" fill="#ffffff" stroke="#e9ecef" stroke-width="1" rx="4"/>
    <svg x="8" y="8" width="32" height="32" viewBox="0 0 20 20">
      
<path fill-rule="evenodd" clip-rule="evenodd" d="M15.6213 4.37868C14.4497 3.20711 12.5503 3.20711 11.3787 4.37868L4.37868 11.3787C3.20711 12.5503 3.20711 14.4497 4.37868 15.6213C5.54995 16.7926 7.44878 16.7929 8.62042 15.6222C8.62072 15.6219 8.62102 15.6216 8.62132 15.6213L9.11792 15.1214C9.40985 14.8276 9.88472 14.826 10.1786 15.1179C10.4724 15.4098 10.474 15.8847 10.1821 16.1786L9.68373 16.6802L9.68198 16.682C7.92462 18.4393 5.07538 18.4393 3.31802 16.682C1.56066 14.9246 1.56066 12.0754 3.31802 10.318L10.318 3.31802C12.0754 1.56066 14.9246 1.56066 16.682 3.31802C18.438 5.07407 18.4393 7.92038 16.6859 9.67806L13.2312 13.2312C12.2061 14.2564 10.544 14.2563 9.51885 13.2312C8.49372 12.206 8.49372 10.544 9.51885 9.51886L12.9697 6.06804C13.2626 5.77515 13.7374 5.77515 14.0303 6.06804C14.3232 6.36094 14.3232 6.83581 14.0303 7.1287L10.5795 10.5795C10.1402 11.0189 10.1402 11.7312 10.5795 12.1705C11.0178 12.6088 11.7276 12.6099 12.1672 12.1738L15.6213 8.62127C16.7928 7.4497 16.7929 5.55025 15.6213 4.37868Z" fill="#2563eb"/>

    </svg>
  </g>
  <!-- Icon 12: ellipsis-horizontal -->
  <g transform="translate(436, 152)">
    <rect width="48" height="48" fill="#ffffff" stroke="#e9ecef" stroke-width="1" rx="4"/>
    <svg x="8" y="8" width="32" height="32" viewBox="0 0 20 20">
      
<path d="M3 10C3 9.17157 3.67157 8.5 4.5 8.5C5.32843 8.5 6 9.17157 6 10C6 10.8284 5.32843 11.5 4.5 11.5C3.67157 11.5 3 10.8284 3 10Z" fill="#2563eb"/>
<path d="M8.5 10C8.5 9.17157 9.17157 8.5 10 8.5C10.8284 8.5 11.5 9.17157 11.5 10C11.5 10.8284 10.8284 11.5 10 11.5C9.17157 11.5 8.5 10.8284 8.5 10Z" fill="#2563eb"/>
<path d="M15.5 8.5C14.6716 8.5 14 9.17157 14 10C14 10.8284 14.6716 11.5 15.5 11.5C16.3284 11.5 17 10.8284 17 10C17 9.17157 16.3284 8.5 15.5 8.5Z" fill="#2563eb"/>

    </svg>
  </g>
  <!-- Icon 13: calendar-days -->
  <g transform="translate(496, 152)">
    <rect width="48" height="48" fill="#ffffff" stroke="#e9ecef" stroke-width="1" rx="4"/>
    <svg x="8" y="8" width="32" height="32" viewBox="0 0 20 20">
      
<path d="M5.25 12C5.25 11.5858 5.58579 11.25 6 11.25H6.01C6.42421 11.25 6.76 11.5858 6.76 12V12.01C6.76 12.4242 6.42421 12.76 6.01 12.76H6C5.58579 12.76 5.25 12.4242 5.25 12.01V12Z" fill="#2563eb"/>
<path d="M6 13.25C5.58579 13.25 5.25 13.5858 5.25 14V14.01C5.25 14.4242 5.58579 14.76 6 14.76H6.01C6.42421 14.76 6.76 14.4242 6.76 14.01V14C6.76 13.5858 6.42421 13.25 6.01 13.25H6Z" fill="#2563eb"/>
<path d="M7.25 12C7.25 11.5858 7.58579 11.25 8 11.25H8.01C8.42421 11.25 8.76 11.5858 8.76 12V12.01C8.76 12.4242 8.42421 12.76 8.01 12.76H8C7.58579 12.76 7.25 12.4242 7.25 12.01V12Z" fill="#2563eb"/>
<path d="M8 13.25C7.58579 13.25 7.25 13.5858 7.25 14V14.01C7.25 14.4242 7.58579 14.76 8 14.76H8.01C8.42421 14.76 8.76 14.4242 8.76 14.01V14C8.76 13.5858 8.42421 13.25 8.01 13.25H8Z" fill="#2563eb"/>
<path d="M9.25 10C9.25 9.58579 9.58579 9.25 10 9.25H10.01C10.4242 9.25 10.76 9.58579 10.76 10V10.01C10.76 10.4242 10.4242 10.76 10.01 10.76H10C9.58579 10.76 9.25 10.4242 9.25 10.01V10Z" fill="#2563eb"/>
<path d="M10 11.25C9.58579 11.25 9.25 11.5858 9.25 12V12.01C9.25 12.4242 9.58579 12.76 10 12.76H10.01C10.4242 12.76 10.76 12.4242 10.76 12.01V12C10.76 11.5858 10.4242 11.25 10.01 11.25H10Z" fill="#2563eb"/>
<path d="M9.25 14C9.25 13.5858 9.58579 13.25 10 13.25H10.01C10.4242 13.25 10.76 13.5858 10.76 14V14.01C10.76 14.4242 10.4242 14.76 10.01 14.76H10C9.58579 14.76 9.25 14.4242 9.25 14.01V14Z" fill="#2563eb"/>
<path d="M12 9.25C11.5858 9.25 11.25 9.58579 11.25 10V10.01C11.25 10.4242 11.5858 10.76 12 10.76H12.01C12.4242 10.76 12.76 10.4242 12.76 10.01V10C12.76 9.58579 12.4242 9.25 12.01 9.25H12Z" fill="#2563eb"/>
<path d="M11.25 12C11.25 11.5858 11.5858 11.25 12 11.25H12.01C12.4242 11.25 12.76 11.5858 12.76 12V12.01C12.76 12.4242 12.4242 12.76 12.01 12.76H12C11.5858 12.76 11.25 12.4242 11.25 12.01V12Z" fill="#2563eb"/>
<path d="M12 13.25C11.5858 13.25 11.25 13.5858 11.25 14V14.01C11.25 14.4242 11.5858 14.76 12 14.76H12.01C12.4242 14.76 12.76 14.4242 12.76 14.01V14C12.76 13.5858 12.4242 13.25 12.01 13.25H12Z" fill="#2563eb"/>
<path d="M13.25 10C13.25 9.58579 13.5858 9.25 14 9.25H14.01C14.4242 9.25 14.76 9.58579 14.76 10V10.01C14.76 10.4242 14.4242 10.76 14.01 10.76H14C13.5858 10.76 13.25 10.4242 13.25 10.01V10Z" fill="#2563eb"/>
<path d="M14 11.25C13.5858 11.25 13.25 11.5858 13.25 12V12.01C13.25 12.4242 13.5858 12.76 14 12.76H14.01C14.4242 12.76 14.76 12.4242 14.76 12.01V12C14.76 11.5858 14.4242 11.25 14.01 11.25H14Z" fill="#2563eb"/>
<path fill-rule="evenodd" clip-rule="evenodd" d="M5.75 2C6.16421 2 6.5 2.33579 6.5 2.75V4H13.5V2.75C13.5 2.33579 13.8358 2 14.25 2C14.6642 2 15 2.33579 15 2.75V4H15.25C16.7688 4 18 5.23122 18 6.75V15.25C18 16.7688 16.7688 18 15.25 18H4.75C3.23122 18 2 16.7688 2 15.25V6.75C2 5.23122 3.23122 4 4.75 4H5V2.75C5 2.33579 5.33579 2 5.75 2ZM4.75 7.5C4.05964 7.5 3.5 8.05964 3.5 8.75V15.25C3.5 15.9404 4.05964 16.5 4.75 16.5H15.25C15.9404 16.5 16.5 15.9404 16.5 15.25V8.75C16.5 8.05964 15.9404 7.5 15.25 7.5H4.75Z" fill="#2563eb"/>

    </svg>
  </g>
  <!-- Icon 14: arrow-path-rounded-square -->
  <g transform="translate(556, 152)">
    <rect width="48" height="48" fill="#ffffff" stroke="#e9ecef" stroke-width="1" rx="4"/>
    <svg x="8" y="8" width="32" height="32" viewBox="0 0 20 20">
      
<path fill-rule="evenodd" clip-rule="evenodd" d="M10 4.5C11.215 4.5 12.4171 4.55484 13.6038 4.66214C13.9249 4.69118 14.1802 4.93931 14.2185 5.25934C14.3426 6.29702 14.4265 7.34718 14.4685 8.40824L12.7804 6.71973C12.4875 6.4268 12.0126 6.42675 11.7197 6.71961C11.4268 7.01247 11.4267 7.48735 11.7196 7.78027L14.7189 10.7802C15.0117 11.0731 15.4866 11.0732 15.7795 10.7803L18.7803 7.78041C19.0732 7.48755 19.0733 7.01268 18.7804 6.71975C18.4875 6.42681 18.0127 6.42674 17.7197 6.71959L15.9719 8.46698C15.9299 7.32601 15.8413 6.19681 15.7079 5.08123C15.5855 4.05775 14.7654 3.26106 13.7389 3.16824C12.5073 3.05688 11.2602 3 10 3C8.73981 3 7.49271 3.05688 6.26115 3.16824C5.23465 3.26105 4.41449 4.05775 4.2921 5.08123C4.22831 5.61464 4.17477 6.15117 4.13167 6.69061C4.09868 7.10351 4.40666 7.46497 4.81956 7.49796C5.23245 7.53095 5.59391 7.22297 5.6269 6.81007C5.66843 6.29024 5.72003 5.77326 5.78148 5.25934C5.81975 4.93931 6.07514 4.69118 6.39623 4.66214C7.58294 4.55484 8.78497 4.5 10 4.5ZM5.28113 9.22C4.98828 8.9271 4.51345 8.92704 4.22052 9.21987L1.21976 12.2196C0.926819 12.5124 0.926735 12.9873 1.21958 13.2802C1.51242 13.5732 1.98729 13.5733 2.28024 13.2804L4.02814 11.5331C4.0701 12.6741 4.15869 13.8032 4.2921 14.9188C4.41449 15.9422 5.23465 16.7389 6.26115 16.8318C7.49271 16.9431 8.73981 17 10 17C11.2602 17 12.5073 16.9431 13.7389 16.8318C14.7654 16.7389 15.5855 15.9423 15.7079 14.9188C15.7717 14.3849 15.8253 13.848 15.8684 13.3081C15.9014 12.8952 15.5934 12.5338 15.1805 12.5008C14.7676 12.4678 14.4062 12.7758 14.3732 13.1887C14.3316 13.709 14.28 14.2263 14.2185 14.7407C14.1802 15.0607 13.9249 15.3088 13.6038 15.3379C12.4171 15.4452 11.215 15.5 10 15.5C8.78497 15.5 7.58294 15.4452 6.39623 15.3379C6.07514 15.3088 5.81975 15.0607 5.78148 14.7407C5.6574 13.703 5.57352 12.6529 5.53148 11.5919L7.21963 13.2803C7.5125 13.5732 7.98737 13.5732 8.28029 13.2804C8.57321 12.9875 8.57324 12.5126 8.28037 12.2197L5.28113 9.22Z" fill="#2563eb"/>

    </svg>
  </g>
  <!-- Icon 15: scale -->
  <g transform="translate(196, 212)">
    <rect width="48" height="48" fill="#ffffff" stroke="#e9ecef" stroke-width="1" rx="4"/>
    <svg x="8" y="8" width="32" height="32" viewBox="0 0 16 16">
      
<path fill-rule="evenodd" clip-rule="evenodd" d="M8.75 2.5C8.75 2.08579 8.41421 1.75 8 1.75C7.58579 1.75 7.25 2.08579 7.25 2.5V3.00849C5.67898 3.04408 4.13508 3.1912 2.62601 3.44235C2.21742 3.51035 1.94132 3.89671 2.00932 4.3053C2.07732 4.71389 2.46367 4.99 2.87227 4.922L3.00168 4.90074L1.81432 9.6502C1.73555 9.96527 1.86852 10.2952 2.14373 10.4677C2.68226 10.8051 3.31949 11 3.99995 11C4.68041 11 5.31763 10.8051 5.85616 10.4677C6.13138 10.2952 6.26435 9.96527 6.18558 9.6502L4.93541 4.64952C5.69905 4.5746 6.47091 4.52738 7.25 4.50889V12L7.25009 12.0117C6.36827 12.0394 5.49846 12.1157 4.64327 12.238C4.23323 12.2967 3.94838 12.6766 4.00704 13.0867C4.06571 13.4967 4.44566 13.7816 4.8557 13.7229C5.88227 13.576 6.93206 13.5 8.00004 13.5C9.06803 13.5 10.1178 13.576 11.1444 13.7229C11.5544 13.7816 11.9344 13.4967 11.993 13.0867C12.0517 12.6766 11.7669 12.2967 11.3568 12.238C10.5016 12.1157 9.63176 12.0394 8.74991 12.0117L8.75 12V4.50889C9.52877 4.52737 10.3003 4.57456 11.0637 4.64942L9.81346 9.6502C9.73469 9.96527 9.86766 10.2952 10.1429 10.4677C10.6814 10.8051 11.3186 11 11.9991 11C12.6796 11 13.3168 10.8051 13.8553 10.4677C14.1305 10.2952 14.2635 9.96527 14.1847 9.6502L12.9973 4.90057C13.0408 4.90762 13.0843 4.91477 13.1278 4.922C13.5364 4.99 13.9227 4.71389 13.9907 4.3053C14.0587 3.89671 13.7826 3.51035 13.374 3.44235C11.865 3.1912 10.321 3.04408 8.75 3.00849V2.5ZM3.41937 9.41464C3.60278 9.47014 3.79757 9.5 3.99995 9.5C4.20233 9.5 4.39712 9.47014 4.58052 9.41464L3.99995 7.09233L3.41937 9.41464ZM11.9991 9.5C11.7967 9.5 11.6019 9.47014 11.4185 9.41464L11.9991 7.09233L12.5797 9.41464C12.3963 9.47014 12.2015 9.5 11.9991 9.5Z" fill="#2563eb"/>

    </svg>
  </g>
  <!-- Icon 16: h1 -->
  <g transform="translate(256, 212)">
    <rect width="48" height="48" fill="#ffffff" stroke="#e9ecef" stroke-width="1" rx="4"/>
    <svg x="8" y="8" width="32" height="32" viewBox="0 0 16 16">
      
<path fill-rule="evenodd" clip-rule="evenodd" d="M1.75 3C2.16421 3 2.5 3.33579 2.5 3.75V7.25H6.5V3.75C6.5 3.33579 6.83579 3 7.25 3C7.66421 3 8 3.33579 8 3.75V12.25C8 12.6642 7.66421 13 7.25 13C6.83579 13 6.5 12.6642 6.5 12.25V8.75H2.5V12.25C2.5 12.6642 2.16421 13 1.75 13C1.33579 13 1 12.6642 1 12.25V3.75C1 3.33579 1.33579 3 1.75 3ZM10 6.75C10 6.33579 10.3358 6 10.75 6H12.5C12.9142 6 13.25 6.33579 13.25 6.75V11.5H14.25C14.6642 11.5 15 11.8358 15 12.25C15 12.6642 14.6642 13 14.25 13H10.75C10.3358 13 10 12.6642 10 12.25C10 11.8358 10.3358 11.5 10.75 11.5H11.75V7.5H10.75C10.3358 7.5 10 7.16421 10 6.75Z" fill="#2563eb"/>

    </svg>
  </g>
  <!-- Icon 17: clock -->
  <g transform="translate(316, 212)">
    <rect width="48" height="48" fill="#ffffff" stroke="#e9ecef" stroke-width="1" rx="4"/>
    <svg x="8" y="8" width="32" height="32" viewBox="0 0 16 16">
      
<path fill-rule="evenodd" clip-rule="evenodd" d="M1 8C1 4.13401 4.13401 1 8 1C11.866 1 15 4.13401 15 8C15 11.866 11.866 15 8 15C4.13401 15 1 11.866 1 8ZM8.75 3.75C8.75 3.33579 8.41421 3 8 3C7.58579 3 7.25 3.33579 7.25 3.75V8C7.25 8.41421 7.58579 8.75 8 8.75H11.25C11.6642 8.75 12 8.41421 12 8C12 7.58579 11.6642 7.25 11.25 7.25H8.75V3.75Z" fill="#2563eb"/>

    </svg>
  </g>
  <!-- Icon 18: arrow-uturn-left -->
  <g transform="translate(376, 212)">
    <rect width="48" height="48" fill="#ffffff" stroke="#e9ecef" stroke-width="1" rx="4"/>
    <svg x="8" y="8" width="32" height="32" viewBox="0 0 16 16">
      
<path fill-rule="evenodd" clip-rule="evenodd" d="M12.5 9.75C12.5 8.23122 11.2688 7 9.75 7H4.56066L6.78033 9.21967C7.07322 9.51256 7.07322 9.98744 6.78033 10.2803C6.48744 10.5732 6.01256 10.5732 5.71967 10.2803L2.21967 6.78033C1.92678 6.48744 1.92678 6.01256 2.21967 5.71967L5.71967 2.21967C6.01256 1.92678 6.48744 1.92678 6.78033 2.21967C7.07322 2.51256 7.07322 2.98744 6.78033 3.28033L4.56066 5.5L9.75 5.5C12.0972 5.5 14 7.40279 14 9.75C14 12.0972 12.0972 14 9.75 14H8.75C8.33579 14 8 13.6642 8 13.25C8 12.8358 8.33579 12.5 8.75 12.5H9.75C11.2688 12.5 12.5 11.2688 12.5 9.75Z" fill="#2563eb"/>

    </svg>
  </g>
  <!-- Icon 19: swatch -->
  <g transform="translate(436, 212)">
    <rect width="48" height="48" fill="#ffffff" stroke="#e9ecef" stroke-width="1" rx="4"/>
    <svg x="8" y="8" width="32" height="32" viewBox="0 0 24 24">
      
  <path fill-rule="evenodd" d="M2.25 4.125c0-1.036.84-1.875 1.875-1.875h5.25c1.036 0 1.875.84 1.875 1.875V17.25a4.5 4.5 0 1 1-9 0V4.125Zm4.5 14.25a1.125 1.125 0 1 0 0-2.25 1.125 1.125 0 0 0 0 2.25Z" clip-rule="evenodd"/>
  <path d="M10.719 21.75h9.156c1.036 0 1.875-.84 1.875-1.875v-5.25c0-1.036-.84-1.875-1.875-1.875h-.14l-8.742 8.743c-.09.089-.18.175-.274.257ZM12.738 17.625l6.474-6.474a1.875 1.875 0 0 0 0-2.651L15.5 4.787a1.875 1.875 0 0 0-2.651 0l-.1.099V17.25c0 .126-.003.251-.01.375Z"/>

    </svg>
  </g>
  <!-- Icon 20: magnifying-glass-minus -->
  <g transform="translate(496, 212)">
    <rect width="48" height="48" fill="#ffffff" stroke="#e9ecef" stroke-width="1" rx="4"/>
    <svg x="8" y="8" width="32" height="32" viewBox="0 0 24 24">
      
  <path fill-rule="evenodd" d="M10.5 3.75a6.75 6.75 0 1 0 0 13.5 6.75 6.75 0 0 0 0-13.5ZM2.25 10.5a8.25 8.25 0 1 1 14.59 5.28l4.69 4.69a.75.75 0 1 1-1.06 1.06l-4.69-4.69A8.25 8.25 0 0 1 2.25 10.5Zm4.5 0a.75.75 0 0 1 .75-.75h6a.75.75 0 0 1 0 1.5h-6a.75.75 0 0 1-.75-.75Z" clip-rule="evenodd"/>

    </svg>
  </g>
  <!-- Icon 21: document-arrow-down -->
  <g transform="translate(556, 212)">
    <rect width="48" height="48" fill="#ffffff" stroke="#e9ecef" stroke-width="1" rx="4"/>
    <svg x="8" y="8" width="32" height="32" viewBox="0 0 24 24">
      
  <path fill-rule="evenodd" d="M5.625 1.5H9a3.75 3.75 0 0 1 3.75 3.75v1.875c0 1.036.84 1.875 1.875 1.875H16.5a3.75 3.75 0 0 1 3.75 3.75v7.875c0 1.035-.84 1.875-1.875 1.875H5.625a1.875 1.875 0 0 1-1.875-1.875V3.375c0-1.036.84-1.875 1.875-1.875Zm5.845 17.03a.75.75 0 0 0 1.06 0l3-3a.75.75 0 1 0-1.06-1.06l-1.72 1.72V12a.75.75 0 0 0-1.5 0v4.19l-1.72-1.72a.75.75 0 0 0-1.06 1.06l3 3Z" clip-rule="evenodd"/>
  <path d="M14.25 5.25a5.23 5.23 0 0 0-1.279-3.434 9.768 9.768 0 0 1 6.963 6.963A5.23 5.23 0 0 0 16.5 7.5h-1.875a.375.375 0 0 1-.375-.375V5.25Z"/>

    </svg>
  </g>
  <!-- Icon 22: bell -->
  <g transform="translate(196, 272)">
    <rect width="48" height="48" fill="#ffffff" stroke="#e9ecef" stroke-width="1" rx="4"/>
    <svg x="8" y="8" width="32" height="32" viewBox="0 0 24 24">
      
  <path fill-rule="evenodd" d="M5.25 9a6.75 6.75 0 0 1 13.5 0v.75c0 2.123.8 4.057 2.118 5.52a.75.75 0 0 1-.297 1.206c-1.544.57-3.16.99-4.831 1.243a3.75 3.75 0 1 1-7.48 0 24.585 24.585 0 0 1-4.831-1.244.75.75 0 0 1-.298-1.205A8.217 8.217 0 0 0 5.25 9.75V9Zm4.502 8.9a2.25 2.25 0 1 0 4.496 0 25.057 25.057 0 0 1-4.496 0Z" clip-rule="evenodd"/>

    </svg>
  </g>
  <!-- Icon 23: archive-box -->
  <g transform="translate(256, 272)">
    <rect width="48" height="48" fill="#ffffff" stroke="#e9ecef" stroke-width="1" rx="4"/>
    <svg x="8" y="8" width="32" height="32" viewBox="0 0 24 24">
      
  <path d="M3.375 3C2.339 3 1.5 3.84 1.5 4.875v.75c0 1.036.84 1.875 1.875 1.875h17.25c1.035 0 1.875-.84 1.875-1.875v-.75C22.5 3.839 21.66 3 20.625 3H3.375Z"/>
  <path fill-rule="evenodd" d="m3.087 9 .54 9.176A3 3 0 0 0 6.62 21h10.757a3 3 0 0 0 2.995-2.824L20.913 9H3.087Zm6.163 3.75A.75.75 0 0 1 10 12h4a.75.75 0 0 1 0 1.5h-4a.75.75 0 0 1-.75-.75Z" clip-rule="evenodd"/>

    </svg>
  </g>
  <!-- Icon 24: plus-small -->
  <g transform="translate(316, 272)">
    <rect width="48" height="48" fill="#ffffff" stroke="#e9ecef" stroke-width="1" rx="4"/>
    <svg x="8" y="8" width="32" height="32" viewBox="0 0 20 20">
      
  <path d="M10.75 6.75a.75.75 0 0 0-1.5 0v2.5h-2.5a.75.75 0 0 0 0 1.5h2.5v2.5a.75.75 0 0 0 1.5 0v-2.5h2.5a.75.75 0 0 0 0-1.5h-2.5v-2.5Z"/>

    </svg>
  </g>
  <!-- Icon 25: flag -->
  <g transform="translate(376, 272)">
    <rect width="48" height="48" fill="#ffffff" stroke="#e9ecef" stroke-width="1" rx="4"/>
    <svg x="8" y="8" width="32" height="32" viewBox="0 0 20 20">
      
  <path d="M3.5 2.75a.75.75 0 0 0-1.5 0v14.5a.75.75 0 0 0 1.5 0v-4.392l1.657-.348a6.449 6.449 0 0 1 4.271.572 7.948 7.948 0 0 0 5.965.524l2.078-.64A.75.75 0 0 0 18 12.25v-8.5a.75.75 0 0 0-.904-.734l-2.38.501a7.25 7.25 0 0 1-4.186-.363l-.502-.2a8.75 8.75 0 0 0-5.053-.439l-1.475.31V2.75Z"/>

    </svg>
  </g>
  <!-- Icon 26: check -->
  <g transform="translate(436, 272)">
    <rect width="48" height="48" fill="#ffffff" stroke="#e9ecef" stroke-width="1" rx="4"/>
    <svg x="8" y="8" width="32" height="32" viewBox="0 0 20 20">
      
  <path fill-rule="evenodd" d="M16.704 4.153a.75.75 0 0 1 .143 1.052l-8 10.5a.75.75 0 0 1-1.127.075l-4.5-4.5a.75.75 0 0 1 1.06-1.06l3.894 3.893 7.48-9.817a.75.75 0 0 1 1.05-.143Z" clip-rule="evenodd"/>

    </svg>
  </g>
  <!-- Icon 27: arrow-turn-down-right -->
  <g transform="translate(496, 272)">
    <rect width="48" height="48" fill="#ffffff" stroke="#e9ecef" stroke-width="1" rx="4"/>
    <svg x="8" y="8" width="32" height="32" viewBox="0 0 20 20">
      
  <path fill-rule="evenodd" d="M3.75 3a.75.75 0 0 1 .75.75v7.5h10.94l-1.97-1.97a.75.75 0 0 1 1.06-1.06l3.25 3.25a.75.75 0 0 1 0 1.06l-3.25 3.25a.75.75 0 1 1-1.06-1.06l1.97-1.97H3.75A.75.75 0 0 1 3 12V3.75A.75.75 0 0 1 3.75 3Z" clip-rule="evenodd"/>

    </svg>
  </g>
  <!-- Icon 28: square-2-stack -->
  <g transform="translate(556, 272)">
    <rect width="48" height="48" fill="#ffffff" stroke="#e9ecef" stroke-width="1" rx="4"/>
    <svg x="8" y="8" width="32" height="32" viewBox="0 0 24 24">
      
  <path stroke-linecap="round" stroke-linejoin="round" d="M16.5 8.25V6a2.25 2.25 0 0 0-2.25-2.25H6A2.25 2.25 0 0 0 3.75 6v8.25A2.25 2.25 0 0 0 6 16.5h2.25m8.25-8.25H18a2.25 2.25 0 0 1 2.25 2.25V18A2.25 2.25 0 0 1 18 20.25h-7.5A2.25 2.25 0 0 1 8.25 18v-1.5m8.25-8.25h-6a2.25 2.25 0 0 0-2.25 2.25v6"/>

    </svg>
  </g>
  <!-- Icon 29: language -->
  <g transform="translate(196, 332)">
    <rect width="48" height="48" fill="#ffffff" stroke="#e9ecef" stroke-width="1" rx="4"/>
    <svg x="8" y="8" width="32" height="32" viewBox="0 0 24 24">
      
  <path stroke-linecap="round" stroke-linejoin="round" d="m10.5 21 5.25-11.25L21 21m-9-3h7.5M3 5.621a48.474 48.474 0 0 1 6-.371m0 0c1.12 0 2.233.038 3.334.114M9 5.25V3m3.334 2.364C11.176 10.658 7.69 15.08 3 17.502m9.334-12.138c.896.061 1.785.147 2.666.257m-4.589 8.495a18.023 18.023 0 0 1-3.827-5.802"/>

    </svg>
  </g>
  <!-- Icon 30: currency-euro -->
  <g transform="translate(256, 332)">
    <rect width="48" height="48" fill="#ffffff" stroke="#e9ecef" stroke-width="1" rx="4"/>
    <svg x="8" y="8" width="32" height="32" viewBox="0 0 24 24">
      
  <path stroke-linecap="round" stroke-linejoin="round" d="M14.25 7.756a4.5 4.5 0 1 0 0 8.488M7.5 10.5h5.25m-5.25 3h5.25M21 12a9 9 0 1 1-18 0 9 9 0 0 1 18 0Z"/>

    </svg>
  </g>
  <!-- Icon 31: bars-arrow-down -->
  <g transform="translate(316, 332)">
    <rect width="48" height="48" fill="#ffffff" stroke="#e9ecef" stroke-width="1" rx="4"/>
    <svg x="8" y="8" width="32" height="32" viewBox="0 0 24 24">
      
  <path stroke-linecap="round" stroke-linejoin="round" d="M3 4.5h14.25M3 9h9.75M3 13.5h9.75m4.5-4.5v12m0 0-3.75-3.75M17.25 21 21 17.25"/>

    </svg>
  </g>
  <!-- Icon 32: wrench-screwdriver -->
  <g transform="translate(376, 332)">
    <rect width="48" height="48" fill="#ffffff" stroke="#e9ecef" stroke-width="1" rx="4"/>
    <svg x="8" y="8" width="32" height="32" viewBox="0 0 16 16">
      
  <path fill-rule="evenodd" d="M15 4.5A3.5 3.5 0 0 1 11.435 8c-.99-.019-2.093.132-2.7.913l-4.13 5.31a2.015 2.015 0 1 1-2.827-2.828l5.309-4.13c.78-.607.932-1.71.914-2.7L8 4.5a3.5 3.5 0 0 1 4.477-3.362c.325.094.39.497.15.736L10.6 3.902a.48.48 0 0 0-.033.653c.271.314.565.608.879.879a.48.48 0 0 0 .653-.033l2.027-2.027c.239-.24.642-.175.736.15.09.31.138.637.138.976ZM3.75 13a.75.75 0 1 1-1.5 0 .75.75 0 0 1 1.5 0Z" clip-rule="evenodd"/>
  <path d="M11.5 9.5c.313 0 .62-.029.917-.084l1.962 1.962a2.121 2.121 0 0 1-3 3l-2.81-2.81 1.35-1.734c.05-.064.158-.158.426-.233.278-.078.639-.11 1.062-.102l.093.001ZM5 4l1.446 1.445a2.256 2.256 0 0 1-.047.21c-.075.268-.169.377-.233.427l-.61.474L4 5H2.655a.25.25 0 0 1-.224-.139l-1.35-2.7a.25.25 0 0 1 .047-.289l.745-.745a.25.25 0 0 1 .289-.047l2.7 1.35A.25.25 0 0 1 5 2.654V4Z"/>

    </svg>
  </g>
  <!-- Icon 33: percent-badge -->
  <g transform="translate(436, 332)">
    <rect width="48" height="48" fill="#ffffff" stroke="#e9ecef" stroke-width="1" rx="4"/>
    <svg x="8" y="8" width="32" height="32" viewBox="0 0 16 16">
      
  <path fill-rule="evenodd" d="M3.396 6.093a2 2 0 0 0 0 3.814 2 2 0 0 0 2.697 2.697 2 2 0 0 0 3.814 0 2.001 2.001 0 0 0 2.698-2.697 2 2 0 0 0-.001-3.814 2.001 2.001 0 0 0-2.697-2.698 2 2 0 0 0-3.814.001 2 2 0 0 0-2.697 2.697ZM6 7a1 1 0 1 0 0-2 1 1 0 0 0 0 2Zm3.47-1.53a.75.75 0 1 1 1.06 1.06l-4 4a.75.75 0 1 1-1.06-1.06l4-4ZM11 10a1 1 0 1 1-2 0 1 1 0 0 1 2 0Z" clip-rule="evenodd"/>

    </svg>
  </g>
  <!-- Icon 34: equals -->
  <g transform="translate(496, 332)">
    <rect width="48" height="48" fill="#ffffff" stroke="#e9ecef" stroke-width="1" rx="4"/>
    <svg x="8" y="8" width="32" height="32" viewBox="0 0 16 16">
      
  <path fill-rule="evenodd" d="M2 4.75A.75.75 0 0 1 2.75 4h10.5a.75.75 0 0 1 0 1.5H2.75A.75.75 0 0 1 2 4.75ZM2 11.25a.75.75 0 0 1 .75-.75h10.5a.75.75 0 0 1 0 1.5H2.75a.75.75 0 0 1-.75-.75Z" clip-rule="evenodd"/>

    </svg>
  </g>
  <!-- Icon 35: chart-bar -->
  <g transform="translate(556, 332)">
    <rect width="48" height="48" fill="#ffffff" stroke="#e9ecef" stroke-width="1" rx="4"/>
    <svg x="8" y="8" width="32" height="32" viewBox="0 0 16 16">
      
  <path d="M12 2a1 1 0 0 0-1 1v10a1 1 0 0 0 1 1h1a1 1 0 0 0 1-1V3a1 1 0 0 0-1-1h-1ZM6.5 6a1 1 0 0 1 1-1h1a1 1 0 0 1 1 1v7a1 1 0 0 1-1 1h-1a1 1 0 0 1-1-1V6ZM2 9a1 1 0 0 1 1-1h1a1 1 0 0 1 1 1v4a1 1 0 0 1-1 1H3a1 1 0 0 1-1-1V9Z"/>

    </svg>
  </g>
  
  <!-- Footer -->
  <text x="400" y="580" text-anchor="middle" font-family="system-ui, -apple-system, sans-serif" font-size="12" fill="#6c757d">
    Showing 35 of 1280 icons
  </text>
  
</svg>