<svg width="800" height="600" xmlns="http://www.w3.org/2000/svg">
  <!-- Background -->
  <rect width="800" height="600" fill="#ffffff"/>
  
  <!-- Header Background -->
  <rect width="800" height="80" fill="#f8f9fa"/>
  
  <!-- Title -->
  <text x="400" y="30" text-anchor="middle" font-family="system-ui, -apple-system, sans-serif" font-size="20" font-weight="bold" fill="#212529">Heroicons - default</text>
  
  <!-- Subtitle -->
  <text x="400" y="55" text-anchor="middle" font-family="system-ui, -apple-system, sans-serif" font-size="14" fill="#6c757d">1,280 icons</text>
  
  <!-- Icon Grid -->
  <!-- Icon 1: x-mark -->
  <g transform="translate(196, 92)">
    <rect width="48" height="48" fill="#ffffff" stroke="#e9ecef" stroke-width="1" rx="4"/>
    <svg x="8" y="8" width="32" height="32" viewBox="0 0 24 24">
      
<path fill-rule="evenodd" clip-rule="evenodd" d="M5.46967 5.46967C5.76256 5.17678 6.23744 5.17678 6.53033 5.46967L12 10.9393L17.4697 5.46967C17.7626 5.17678 18.2374 5.17678 18.5303 5.46967C18.8232 5.76256 18.8232 6.23744 18.5303 6.53033L13.0607 12L18.5303 17.4697C18.8232 17.7626 18.8232 18.2374 18.5303 18.5303C18.2374 18.8232 17.7626 18.8232 17.4697 18.5303L12 13.0607L6.53033 18.5303C6.23744 18.8232 5.76256 18.8232 5.46967 18.5303C5.17678 18.2374 5.17678 17.7626 5.46967 17.4697L10.9393 12L5.46967 6.53033C5.17678 6.23744 5.17678 5.76256 5.46967 5.46967Z" fill="#2563eb"/>

    </svg>
  </g>
  <!-- Icon 2: phone -->
  <g transform="translate(256, 92)">
    <rect width="48" height="48" fill="#ffffff" stroke="#e9ecef" stroke-width="1" rx="4"/>
    <svg x="8" y="8" width="32" height="32" viewBox="0 0 24 24">
      
<path fill-rule="evenodd" clip-rule="evenodd" d="M1.5 4.5C1.5 2.84315 2.84315 1.5 4.5 1.5H5.87163C6.732 1.5 7.48197 2.08556 7.69064 2.92025L8.79644 7.34343C8.97941 8.0753 8.70594 8.84555 8.10242 9.29818L6.8088 10.2684C6.67447 10.3691 6.64527 10.5167 6.683 10.6197C7.81851 13.7195 10.2805 16.1815 13.3803 17.317C13.4833 17.3547 13.6309 17.3255 13.7316 17.1912L14.7018 15.8976C15.1545 15.2941 15.9247 15.0206 16.6566 15.2036L21.0798 16.3094C21.9144 16.518 22.5 17.268 22.5 18.1284V19.5C22.5 21.1569 21.1569 22.5 19.5 22.5H17.25C8.55151 22.5 1.5 15.4485 1.5 6.75V4.5Z" fill="#2563eb"/>

    </svg>
  </g>
  <!-- Icon 3: eye -->
  <g transform="translate(316, 92)">
    <rect width="48" height="48" fill="#ffffff" stroke="#e9ecef" stroke-width="1" rx="4"/>
    <svg x="8" y="8" width="32" height="32" viewBox="0 0 24 24">
      
<path d="M12 15C13.6569 15 15 13.6569 15 12C15 10.3431 13.6569 9 12 9C10.3431 9 9 10.3431 9 12C9 13.6569 10.3431 15 12 15Z" fill="#2563eb"/>
<path fill-rule="evenodd" clip-rule="evenodd" d="M1.32341 11.4467C2.81066 6.97571 7.02791 3.75 12.0005 3.75C16.9708 3.75 21.1864 6.97271 22.6755 11.4405C22.7959 11.8015 22.796 12.1922 22.6759 12.5533C21.1886 17.0243 16.9714 20.25 11.9988 20.25C7.02847 20.25 2.81284 17.0273 1.32374 12.5595C1.2034 12.1985 1.20328 11.8078 1.32341 11.4467ZM17.25 12C17.25 14.8995 14.8995 17.25 12 17.25C9.1005 17.25 6.75 14.8995 6.75 12C6.75 9.1005 9.1005 6.75 12 6.75C14.8995 6.75 17.25 9.1005 17.25 12Z" fill="#2563eb"/>

    </svg>
  </g>
  <!-- Icon 4: chat-bubble-left-right -->
  <g transform="translate(376, 92)">
    <rect width="48" height="48" fill="#ffffff" stroke="#e9ecef" stroke-width="1" rx="4"/>
    <svg x="8" y="8" width="32" height="32" viewBox="0 0 24 24">
      
<path d="M4.91307 2.65823C6.9877 2.38888 9.10296 2.25 11.2503 2.25C13.3974 2.25 15.5124 2.38885 17.5869 2.65815C19.5091 2.90769 20.8783 4.51937 20.9923 6.38495C20.6665 6.27614 20.3212 6.20396 19.96 6.17399C18.5715 6.05874 17.1673 6 15.75 6C14.3326 6 12.9285 6.05874 11.54 6.17398C9.1817 6.36971 7.5 8.36467 7.5 10.6082V14.8937C7.5 16.5844 8.45468 18.1326 9.9328 18.8779L7.28033 21.5303C7.06583 21.7448 6.74324 21.809 6.46299 21.6929C6.18273 21.5768 6 21.3033 6 21V16.9705C5.63649 16.9316 5.27417 16.8887 4.91308 16.8418C2.90466 16.581 1.5 14.8333 1.5 12.8626V6.63738C1.5 4.66672 2.90466 2.91899 4.91307 2.65823Z" fill="#2563eb"/>
<path d="M15.75 7.5C14.3741 7.5 13.0114 7.55702 11.6641 7.66884C10.1248 7.7966 9 9.10282 9 10.6082V14.8937C9 16.4014 10.128 17.7083 11.6692 17.8341C12.9131 17.9357 14.17 17.9912 15.4384 17.999L18.2197 20.7803C18.4342 20.9948 18.7568 21.059 19.037 20.9429C19.3173 20.8268 19.5 20.5533 19.5 20.25V17.8601C19.6103 17.8518 19.7206 17.8432 19.8307 17.8342C21.372 17.7085 22.5 16.4015 22.5 14.8938V10.6082C22.5 9.10283 21.3752 7.79661 19.836 7.66885C18.4886 7.55702 17.1259 7.5 15.75 7.5Z" fill="#2563eb"/>

    </svg>
  </g>
  <!-- Icon 5: arrow-small-right -->
  <g transform="translate(436, 92)">
    <rect width="48" height="48" fill="#ffffff" stroke="#e9ecef" stroke-width="1" rx="4"/>
    <svg x="8" y="8" width="32" height="32" viewBox="0 0 24 24">
      
<path fill-rule="evenodd" clip-rule="evenodd" d="M3.75 12C3.75 11.5858 4.08579 11.25 4.5 11.25L17.6893 11.25L12.2197 5.78033C11.9268 5.48744 11.9268 5.01256 12.2197 4.71967C12.5126 4.42678 12.9874 4.42678 13.2803 4.71967L20.0303 11.4697C20.3232 11.7626 20.3232 12.2374 20.0303 12.5303L13.2803 19.2803C12.9874 19.5732 12.5126 19.5732 12.2197 19.2803C11.9268 18.9874 11.9268 18.5126 12.2197 18.2197L17.6893 12.75L4.5 12.75C4.08579 12.75 3.75 12.4142 3.75 12Z" fill="#2563eb"/>

    </svg>
  </g>
  <!-- Icon 6: signal-slash -->
  <g transform="translate(496, 92)">
    <rect width="48" height="48" fill="#ffffff" stroke="#e9ecef" stroke-width="1" rx="4"/>
    <svg x="8" y="8" width="32" height="32" viewBox="0 0 24 24">
      
<path d="M3 3L11.7348 11.7348M11.7348 11.7348C11.8027 11.667 11.8964 11.625 12 11.625C12.2071 11.625 12.375 11.7929 12.375 12C12.375 12.1036 12.333 12.1973 12.2652 12.2652M11.7348 11.7348L12.2652 12.2652M12.2652 12.2652L21 21M14.6517 9.34835C16.1161 10.8128 16.1161 13.1872 14.6517 14.6516M16.773 7.22703C19.409 9.86307 19.409 14.1369 16.773 16.773M18.8943 5.10571C22.7019 8.91332 22.7019 15.0867 18.8943 18.8943M9.34835 14.6516C8.75129 14.0546 8.39765 13.3063 8.28743 12.5301M7.22703 16.773C5.35299 14.8989 4.81126 12.1971 5.60184 9.84448M5.10571 18.8943C2.03824 15.8268 1.44197 11.2239 3.3169 7.55955M12 12H12.0075V12.0075H12V12Z" stroke="#2563eb" stroke-width="2" stroke-linecap="round" stroke-linejoin="round"/>

    </svg>
  </g>
  <!-- Icon 7: inbox-arrow-down -->
  <g transform="translate(556, 92)">
    <rect width="48" height="48" fill="#ffffff" stroke="#e9ecef" stroke-width="1" rx="4"/>
    <svg x="8" y="8" width="32" height="32" viewBox="0 0 24 24">
      
<path d="M9 3.75H6.91179C5.92403 3.75 5.05178 4.39423 4.76129 5.33831L2.3495 13.1766C2.28354 13.391 2.25 13.614 2.25 13.8383V18C2.25 19.2426 3.25736 20.25 4.5 20.25H19.5C20.7426 20.25 21.75 19.2426 21.75 18V13.8383C21.75 13.614 21.7165 13.391 21.6505 13.1766L19.2387 5.33831C18.9482 4.39423 18.076 3.75 17.0882 3.75H15M2.25 13.5H6.10942C6.96166 13.5 7.74075 13.9815 8.12188 14.7438L8.37812 15.2562C8.75925 16.0185 9.53834 16.5 10.3906 16.5H13.6094C14.4617 16.5 15.2408 16.0185 15.6219 15.2562L15.8781 14.7438C16.2592 13.9815 17.0383 13.5 17.8906 13.5H21.75M12 3V11.25M12 11.25L9 8.25M12 11.25L15 8.25" stroke="#2563eb" stroke-width="2" stroke-linecap="round" stroke-linejoin="round"/>

    </svg>
  </g>
  <!-- Icon 8: cpu-chip -->
  <g transform="translate(196, 152)">
    <rect width="48" height="48" fill="#ffffff" stroke="#e9ecef" stroke-width="1" rx="4"/>
    <svg x="8" y="8" width="32" height="32" viewBox="0 0 24 24">
      
<path d="M8.25 3V4.5M4.5 8.25H3M21 8.25H19.5M4.5 12H3M21 12H19.5M4.5 15.75H3M21 15.75H19.5M8.25 19.5V21M12 3V4.5M12 19.5V21M15.75 3V4.5M15.75 19.5V21M6.75 19.5H17.25C18.4926 19.5 19.5 18.4926 19.5 17.25V6.75C19.5 5.50736 18.4926 4.5 17.25 4.5H6.75C5.50736 4.5 4.5 5.50736 4.5 6.75V17.25C4.5 18.4926 5.50736 19.5 6.75 19.5ZM7.5 7.5H16.5V16.5H7.5V7.5Z" stroke="#2563eb" stroke-width="2" stroke-linecap="round" stroke-linejoin="round"/>

    </svg>
  </g>
  <!-- Icon 9: bars-2 -->
  <g transform="translate(256, 152)">
    <rect width="48" height="48" fill="#ffffff" stroke="#e9ecef" stroke-width="1" rx="4"/>
    <svg x="8" y="8" width="32" height="32" viewBox="0 0 24 24">
      
<path d="M3.75 9H20.25M3.75 15.75H20.25" stroke="#2563eb" stroke-width="2" stroke-linecap="round" stroke-linejoin="round"/>

    </svg>
  </g>
  <!-- Icon 10: video-camera -->
  <g transform="translate(316, 152)">
    <rect width="48" height="48" fill="#ffffff" stroke="#e9ecef" stroke-width="1" rx="4"/>
    <svg x="8" y="8" width="32" height="32" viewBox="0 0 20 20">
      
<path d="M3.25 4C2.00736 4 1 5.00736 1 6.25V13.75C1 14.9926 2.00736 16 3.25 16H10.75C11.9926 16 13 14.9926 13 13.75V6.25C13 5.00736 11.9926 4 10.75 4H3.25Z" fill="#2563eb"/>
<path d="M19 4.75002C19 4.44668 18.8173 4.1732 18.537 4.05711C18.2568 3.94103 17.9342 4.00519 17.7197 4.21969L14.7197 7.21969C14.579 7.36034 14.5 7.55111 14.5 7.75002V12.25C14.5 12.4489 14.579 12.6397 14.7197 12.7804L17.7197 15.7804C17.9342 15.9949 18.2568 16.059 18.537 15.9429C18.8173 15.8268 19 15.5534 19 15.25V4.75002Z" fill="#2563eb"/>

    </svg>
  </g>
  <!-- Icon 11: paper-clip -->
  <g transform="translate(376, 152)">
    <rect width="48" height="48" fill="#ffffff" stroke="#e9ecef" stroke-width="1" rx="4"/>
    <svg x="8" y="8" width="32" height="32" viewBox="0 0 20 20">
      
<path fill-rule="evenodd" clip-rule="evenodd" d="M15.6213 4.37868C14.4497 3.20711 12.5503 3.20711 11.3787 4.37868L4.37868 11.3787C3.20711 12.5503 3.20711 14.4497 4.37868 15.6213C5.54995 16.7926 7.44878 16.7929 8.62042 15.6222C8.62072 15.6219 8.62102 15.6216 8.62132 15.6213L9.11792 15.1214C9.40985 14.8276 9.88472 14.826 10.1786 15.1179C10.4724 15.4098 10.474 15.8847 10.1821 16.1786L9.68373 16.6802L9.68198 16.682C7.92462 18.4393 5.07538 18.4393 3.31802 16.682C1.56066 14.9246 1.56066 12.0754 3.31802 10.318L10.318 3.31802C12.0754 1.56066 14.9246 1.56066 16.682 3.31802C18.438 5.07407 18.4393 7.92038 16.6859 9.67806L13.2312 13.2312C12.2061 14.2564 10.544 14.2563 9.51885 13.2312C8.49372 12.206 8.49372 10.544 9.51885 9.51886L12.9697 6.06804C13.2626 5.77515 13.7374 5.77515 14.0303 6.06804C14.3232 6.36094 14.3232 6.83581 14.0303 7.1287L10.5795 10.5795C10.1402 11.0189 10.1402 11.7312 10.5795 12.1705C11.0178 12.6088 11.7276 12.6099 12.1672 12.1738L15.6213 8.62127C16.7928 7.4497 16.7929 5.55025 15.6213 4.37868Z" fill="#2563eb"/>

    </svg>
  </g>
  <!-- Icon 12: ellipsis-horizontal -->
  <g transform="translate(436, 152)">
    <rect width="48" height="48" fill="#ffffff" stroke="#e9ecef" stroke-width="1" rx="4"/>
    <svg x="8" y="8" width="32" height="32" viewBox="0 0 20 20">
      
<path d="M3 10C3 9.17157 3.67157 8.5 4.5 8.5C5.32843 8.5 6 9.17157 6 10C6 10.8284 5.32843 11.5 4.5 11.5C3.67157 11.5 3 10.8284 3 10Z" fill="#2563eb"/>
<path d="M8.5 10C8.5 9.17157 9.17157 8.5 10 8.5C10.8284 8.5 11.5 9.17157 11.5 10C11.5 10.8284 10.8284 11.5 10 11.5C9.17157 11.5 8.5 10.8284 8.5 10Z" fill="#2563eb"/>
<path d="M15.5 8.5C14.6716 8.5 14 9.17157 14 10C14 10.8284 14.6716 11.5 15.5 11.5C16.3284 11.5 17 10.8284 17 10C17 9.17157 16.3284 8.5 15.5 8.5Z" fill="#2563eb"/>

    </svg>
  </g>
  <!-- Icon 13: calendar-days -->
  <g transform="translate(496, 152)">
    <rect width="48" height="48" fill="#ffffff" stroke="#e9ecef" stroke-width="1" rx="4"/>
    <svg x="8" y="8" width="32" height="32" viewBox="0 0 20 20">
      
<path d="M5.25 12C5.25 11.5858 5.58579 11.25 6 11.25H6.01C6.42421 11.25 6.76 11.5858 6.76 12V12.01C6.76 12.4242 6.42421 12.76 6.01 12.76H6C5.58579 12.76 5.25 12.4242 5.25 12.01V12Z" fill="#2563eb"/>
<path d="M6 13.25C5.58579 13.25 5.25 13.5858 5.25 14V14.01C5.25 14.4242 5.58579 14.76 6 14.76H6.01C6.42421 14.76 6.76 14.4242 6.76 14.01V14C6.76 13.5858 6.42421 13.25 6.01 13.25H6Z" fill="#2563eb"/>
<path d="M7.25 12C7.25 11.5858 7.58579 11.25 8 11.25H8.01C8.42421 11.25 8.76 11.5858 8.76 12V12.01C8.76 12.4242 8.42421 12.76 8.01 12.76H8C7.58579 12.76 7.25 12.4242 7.25 12.01V12Z" fill="#2563eb"/>
<path d="M8 13.25C7.58579 13.25 7.25 13.5858 7.25 14V14.01C7.25 14.4242 7.58579 14.76 8 14.76H8.01C8.42421 14.76 8.76 14.4242 8.76 14.01V14C8.76 13.5858 8.42421 13.25 8.01 13.25H8Z" fill="#2563eb"/>
<path d="M9.25 10C9.25 9.58579 9.58579 9.25 10 9.25H10.01C10.4242 9.25 10.76 9.58579 10.76 10V10.01C10.76 10.4242 10.4242 10.76 10.01 10.76H10C9.58579 10.76 9.25 10.4242 9.25 10.01V10Z" fill="#2563eb"/>
<path d="M10 11.25C9.58579 11.25 9.25 11.5858 9.25 12V12.01C9.25 12.4242 9.58579 12.76 10 12.76H10.01C10.4242 12.76 10.76 12.4242 10.76 12.01V12C10.76 11.5858 10.4242 11.25 10.01 11.25H10Z" fill="#2563eb"/>
<path d="M9.25 14C9.25 13.5858 9.58579 13.25 10 13.25H10.01C10.4242 13.25 10.76 13.5858 10.76 14V14.01C10.76 14.4242 10.4242 14.76 10.01 14.76H10C9.58579 14.76 9.25 14.4242 9.25 14.01V14Z" fill="#2563eb"/>
<path d="M12 9.25C11.5858 9.25 11.25 9.58579 11.25 10V10.01C11.25 10.4242 11.5858 10.76 12 10.76H12.01C12.4242 10.76 12.76 10.4242 12.76 10.01V10C12.76 9.58579 12.4242 9.25 12.01 9.25H12Z" fill="#2563eb"/>
<path d="M11.25 12C11.25 11.5858 11.5858 11.25 12 11.25H12.01C12.4242 11.25 12.76 11.5858 12.76 12V12.01C12.76 12.4242 12.4242 12.76 12.01 12.76H12C11.5858 12.76 11.25 12.4242 11.25 12.01V12Z" fill="#2563eb"/>
<path d="M12 13.25C11.5858 13.25 11.25 13.5858 11.25 14V14.01C11.25 14.4242 11.5858 14.76 12 14.76H12.01C12.4242 14.76 12.76 14.4242 12.76 14.01V14C12.76 13.5858 12.4242 13.25 12.01 13.25H12Z" fill="#2563eb"/>
<path d="M13.25 10C13.25 9.58579 13.5858 9.25 14 9.25H14.01C14.4242 9.25 14.76 9.58579 14.76 10V10.01C14.76 10.4242 14.4242 10.76 14.01 10.76H14C13.5858 10.76 13.25 10.4242 13.25 10.01V10Z" fill="#2563eb"/>
<path d="M14 11.25C13.5858 11.25 13.25 11.5858 13.25 12V12.01C13.25 12.4242 13.5858 12.76 14 12.76H14.01C14.4242 12.76 14.76 12.4242 14.76 12.01V12C14.76 11.5858 14.4242 11.25 14.01 11.25H14Z" fill="#2563eb"/>
<path fill-rule="evenodd" clip-rule="evenodd" d="M5.75 2C6.16421 2 6.5 2.33579 6.5 2.75V4H13.5V2.75C13.5 2.33579 13.8358 2 14.25 2C14.6642 2 15 2.33579 15 2.75V4H15.25C16.7688 4 18 5.23122 18 6.75V15.25C18 16.7688 16.7688 18 15.25 18H4.75C3.23122 18 2 16.7688 2 15.25V6.75C2 5.23122 3.23122 4 4.75 4H5V2.75C5 2.33579 5.33579 2 5.75 2ZM4.75 7.5C4.05964 7.5 3.5 8.05964 3.5 8.75V15.25C3.5 15.9404 4.05964 16.5 4.75 16.5H15.25C15.9404 16.5 16.5 15.9404 16.5 15.25V8.75C16.5 8.05964 15.9404 7.5 15.25 7.5H4.75Z" fill="#2563eb"/>

    </svg>
  </g>
  <!-- Icon 14: arrow-path-rounded-square -->
  <g transform="translate(556, 152)">
    <rect width="48" height="48" fill="#ffffff" stroke="#e9ecef" stroke-width="1" rx="4"/>
    <svg x="8" y="8" width="32" height="32" viewBox="0 0 20 20">
      
<path fill-rule="evenodd" clip-rule="evenodd" d="M10 4.5C11.215 4.5 12.4171 4.55484 13.6038 4.66214C13.9249 4.69118 14.1802 4.93931 14.2185 5.25934C14.3426 6.29702 14.4265 7.34718 14.4685 8.40824L12.7804 6.71973C12.4875 6.4268 12.0126 6.42675 11.7197 6.71961C11.4268 7.01247 11.4267 7.48735 11.7196 7.78027L14.7189 10.7802C15.0117 11.0731 15.4866 11.0732 15.7795 10.7803L18.7803 7.78041C19.0732 7.48755 19.0733 7.01268 18.7804 6.71975C18.4875 6.42681 18.0127 6.42674 17.7197 6.71959L15.9719 8.46698C15.9299 7.32601 15.8413 6.19681 15.7079 5.08123C15.5855 4.05775 14.7654 3.26106 13.7389 3.16824C12.5073 3.05688 11.2602 3 10 3C8.73981 3 7.49271 3.05688 6.26115 3.16824C5.23465 3.26105 4.41449 4.05775 4.2921 5.08123C4.22831 5.61464 4.17477 6.15117 4.13167 6.69061C4.09868 7.10351 4.40666 7.46497 4.81956 7.49796C5.23245 7.53095 5.59391 7.22297 5.6269 6.81007C5.66843 6.29024 5.72003 5.77326 5.78148 5.25934C5.81975 4.93931 6.07514 4.69118 6.39623 4.66214C7.58294 4.55484 8.78497 4.5 10 4.5ZM5.28113 9.22C4.98828 8.9271 4.51345 8.92704 4.22052 9.21987L1.21976 12.2196C0.926819 12.5124 0.926735 12.9873 1.21958 13.2802C1.51242 13.5732 1.98729 13.5733 2.28024 13.2804L4.02814 11.5331C4.0701 12.6741 4.15869 13.8032 4.2921 14.9188C4.41449 15.9422 5.23465 16.7389 6.26115 16.8318C7.49271 16.9431 8.73981 17 10 17C11.2602 17 12.5073 16.9431 13.7389 16.8318C14.7654 16.7389 15.5855 15.9423 15.7079 14.9188C15.7717 14.3849 15.8253 13.848 15.8684 13.3081C15.9014 12.8952 15.5934 12.5338 15.1805 12.5008C14.7676 12.4678 14.4062 12.7758 14.3732 13.1887C14.3316 13.709 14.28 14.2263 14.2185 14.7407C14.1802 15.0607 13.9249 15.3088 13.6038 15.3379C12.4171 15.4452 11.215 15.5 10 15.5C8.78497 15.5 7.58294 15.4452 6.39623 15.3379C6.07514 15.3088 5.81975 15.0607 5.78148 14.7407C5.6574 13.703 5.57352 12.6529 5.53148 11.5919L7.21963 13.2803C7.5125 13.5732 7.98737 13.5732 8.28029 13.2804C8.57321 12.9875 8.57324 12.5126 8.28037 12.2197L5.28113 9.22Z" fill="#2563eb"/>

    </svg>
  </g>
  <!-- Icon 15: scale -->
  <g transform="translate(196, 212)">
    <rect width="48" height="48" fill="#ffffff" stroke="#e9ecef" stroke-width="1" rx="4"/>
    <svg x="8" y="8" width="32" height="32" viewBox="0 0 16 16">
      
<path fill-rule="evenodd" clip-rule="evenodd" d="M8.75 2.5C8.75 2.08579 8.41421 1.75 8 1.75C7.58579 1.75 7.25 2.08579 7.25 2.5V3.00849C5.67898 3.04408 4.13508 3.1912 2.62601 3.44235C2.21742 3.51035 1.94132 3.89671 2.00932 4.3053C2.07732 4.71389 2.46367 4.99 2.87227 4.922L3.00168 4.90074L1.81432 9.6502C1.73555 9.96527 1.86852 10.2952 2.14373 10.4677C2.68226 10.8051 3.31949 11 3.99995 11C4.68041 11 5.31763 10.8051 5.85616 10.4677C6.13138 10.2952 6.26435 9.96527 6.18558 9.6502L4.93541 4.64952C5.69905 4.5746 6.47091 4.52738 7.25 4.50889V12L7.25009 12.0117C6.36827 12.0394 5.49846 12.1157 4.64327 12.238C4.23323 12.2967 3.94838 12.6766 4.00704 13.0867C4.06571 13.4967 4.44566 13.7816 4.8557 13.7229C5.88227 13.576 6.93206 13.5 8.00004 13.5C9.06803 13.5 10.1178 13.576 11.1444 13.7229C11.5544 13.7816 11.9344 13.4967 11.993 13.0867C12.0517 12.6766 11.7669 12.2967 11.3568 12.238C10.5016 12.1157 9.63176 12.0394 8.74991 12.0117L8.75 12V4.50889C9.52877 4.52737 10.3003 4.57456 11.0637 4.64942L9.81346 9.6502C9.73469 9.96527 9.86766 10.2952 10.1429 10.4677C10.6814 10.8051 11.3186 11 11.9991 11C12.6796 11 13.3168 10.8051 13.8553 10.4677C14.1305 10.2952 14.2635 9.96527 14.1847 9.6502L12.9973 4.90057C13.0408 4.90762 13.0843 4.91477 13.1278 4.922C13.5364 4.99 13.9227 4.71389 13.9907 4.3053C14.0587 3.89671 13.7826 3.51035 13.374 3.44235C11.865 3.1912 10.321 3.04408 8.75 3.00849V2.5ZM3.41937 9.41464C3.60278 9.47014 3.79757 9.5 3.99995 9.5C4.20233 9.5 4.39712 9.47014 4.58052 9.41464L3.99995 7.09233L3.41937 9.41464ZM11.9991 9.5C11.7967 9.5 11.6019 9.47014 11.4185 9.41464L11.9991 7.09233L12.5797 9.41464C12.3963 9.47014 12.2015 9.5 11.9991 9.5Z" fill="#2563eb"/>

    </svg>
  </g>
  <!-- Icon 16: h1 -->
  <g transform="translate(256, 212)">
    <rect width="48" height="48" fill="#ffffff" stroke="#e9ecef" stroke-width="1" rx="4"/>
    <svg x="8" y="8" width="32" height="32" viewBox="0 0 16 16">
      
<path fill-rule="evenodd" clip-rule="evenodd" d="M1.75 3C2.16421 3 2.5 3.33579 2.5 3.75V7.25H6.5V3.75C6.5 3.33579 6.83579 3 7.25 3C7.66421 3 8 3.33579 8 3.75V12.25C8 12.6642 7.66421 13 7.25 13C6.83579 13 6.5 12.6642 6.5 12.25V8.75H2.5V12.25C2.5 12.6642 2.16421 13 1.75 13C1.33579 13 1 12.6642 1 12.25V3.75C1 3.33579 1.33579 3 1.75 3ZM10 6.75C10 6.33579 10.3358 6 10.75 6H12.5C12.9142 6 13.25 6.33579 13.25 6.75V11.5H14.25C14.6642 11.5 15 11.8358 15 12.25C15 12.6642 14.6642 13 14.25 13H10.75C10.3358 13 10 12.6642 10 12.25C10 11.8358 10.3358 11.5 10.75 11.5H11.75V7.5H10.75C10.3358 7.5 10 7.16421 10 6.75Z" fill="#2563eb"/>

    </svg>
  </g>
  <!-- Icon 17: clock -->
  <g transform="translate(316, 212)">
    <rect width="48" height="48" fill="#ffffff" stroke="#e9ecef" stroke-width="1" rx="4"/>
    <svg x="8" y="8" width="32" height="32" viewBox="0 0 16 16">
      
<path fill-rule="evenodd" clip-rule="evenodd" d="M1 8C1 4.13401 4.13401 1 8 1C11.866 1 15 4.13401 15 8C15 11.866 11.866 15 8 15C4.13401 15 1 11.866 1 8ZM8.75 3.75C8.75 3.33579 8.41421 3 8 3C7.58579 3 7.25 3.33579 7.25 3.75V8C7.25 8.41421 7.58579 8.75 8 8.75H11.25C11.6642 8.75 12 8.41421 12 8C12 7.58579 11.6642 7.25 11.25 7.25H8.75V3.75Z" fill="#2563eb"/>

    </svg>
  </g>
  <!-- Icon 18: arrow-uturn-left -->
  <g transform="translate(376, 212)">
    <rect width="48" height="48" fill="#ffffff" stroke="#e9ecef" stroke-width="1" rx="4"/>
    <svg x="8" y="8" width="32" height="32" viewBox="0 0 16 16">
      
<path fill-rule="evenodd" clip-rule="evenodd" d="M12.5 9.75C12.5 8.23122 11.2688 7 9.75 7H4.56066L6.78033 9.21967C7.07322 9.51256 7.07322 9.98744 6.78033 10.2803C6.48744 10.5732 6.01256 10.5732 5.71967 10.2803L2.21967 6.78033C1.92678 6.48744 1.92678 6.01256 2.21967 5.71967L5.71967 2.21967C6.01256 1.92678 6.48744 1.92678 6.78033 2.21967C7.07322 2.51256 7.07322 2.98744 6.78033 3.28033L4.56066 5.5L9.75 5.5C12.0972 5.5 14 7.40279 14 9.75C14 12.0972 12.0972 14 9.75 14H8.75C8.33579 14 8 13.6642 8 13.25C8 12.8358 8.33579 12.5 8.75 12.5H9.75C11.2688 12.5 12.5 11.2688 12.5 9.75Z" fill="#2563eb"/>

    </svg>
  </g>
  <!-- Icon 19: swatch -->
  <g transform="translate(436, 212)">
    <rect width="48" height="48" fill="#ffffff" stroke="#e9ecef" stroke-width="1" rx="4"/>
    <svg x="8" y="8" width="32" height="32" viewBox="0 0 24 24">
      
  <path fill-rule="evenodd" d="M2.25 4.125c0-1.036.84-1.875 1.875-1.875h5.25c1.036 0 1.875.84 1.875 1.875V17.25a4.5 4.5 0 1 1-9 0V4.125Zm4.5 14.25a1.125 1.125 0 1 0 0-2.25 1.125 1.125 0 0 0 0 2.25Z" clip-rule="evenodd"/>
  <path d="M10.719 21.75h9.156c1.036 0 1.875-.84 1.875-1.875v-5.25c0-1.036-.84-1.875-1.875-1.875h-.14l-8.742 8.743c-.09.089-.18.175-.274.257ZM12.738 17.625l6.474-6.474a1.875 1.875 0 0 0 0-2.651L15.5 4.787a1.875 1.875 0 0 0-2.651 0l-.1.099V17.25c0 .126-.003.251-.01.375Z"/>

    </svg>
  </g>
  <!-- Icon 20: magnifying-glass-minus -->
  <g transform="translate(496, 212)">
    <rect width="48" height="48" fill="#ffffff" stroke="#e9ecef" stroke-width="1" rx="4"/>
    <svg x="8" y="8" width="32" height="32" viewBox="0 0 24 24">
      
  <path fill-rule="evenodd" d="M10.5 3.75a6.75 6.75 0 1 0 0 13.5 6.75 6.75 0 0 0 0-13.5ZM2.25 10.5a8.25 8.25 0 1 1 14.59 5.28l4.69 4.69a.75.75 0 1 1-1.06 1.06l-4.69-4.69A8.25 8.25 0 0 1 2.25 10.5Zm4.5 0a.75.75 0 0 1 .75-.75h6a.75.75 0 0 1 0 1.5h-6a.75.75 0 0 1-.75-.75Z" clip-rule="evenodd"/>

    </svg>
  </g>
  <!-- Icon 21: document-arrow-down -->
  <g transform="translate(556, 212)">
    <rect width="48" height="48" fill="#ffffff" stroke="#e9ecef" stroke-width="1" rx="4"/>
    <svg x="8" y="8" width="32" height="32" viewBox="0 0 24 24">
      
  <path fill-rule="evenodd" d="M5.625 1.5H9a3.75 3.75 0 0 1 3.75 3.75v1.875c0 1.036.84 1.875 1.875 1.875H16.5a3.75 3.75 0 0 1 3.75 3.75v7.875c0 1.035-.84 1.875-1.875 1.875H5.625a1.875 1.875 0 0 1-1.875-1.875V3.375c0-1.036.84-1.875 1.875-1.875Zm5.845 17.03a.75.75 0 0 0 1.06 0l3-3a.75.75 0 1 0-1.06-1.06l-1.72 1.72V12a.75.75 0 0 0-1.5 0v4.19l-1.72-1.72a.75.75 0 0 0-1.06 1.06l3 3Z" clip-rule="evenodd"/>
  <path d="M14.25 5.25a5.23 5.23 0 0 0-1.279-3.434 9.768 9.768 0 0 1 6.963 6.963A5.23 5.23 0 0 0 16.5 7.5h-1.875a.375.375 0 0 1-.375-.375V5.25Z"/>

    </svg>
  </g>
  <!-- Icon 22: bell -->
  <g transform="translate(196, 272)">
    <rect width="48" height="48" fill="#ffffff" stroke="#e9ecef" stroke-width="1" rx="4"/>
    <svg x="8" y="8" width="32" height="32" viewBox="0 0 24 24">
      
  <path fill-rule="evenodd" d="M5.25 9a6.75 6.75 0 0 1 13.5 0v.75c0 2.123.8 4.057 2.118 5.52a.75.75 0 0 1-.297 1.206c-1.544.57-3.16.99-4.831 1.243a3.75 3.75 0 1 1-7.48 0 24.585 24.585 0 0 1-4.831-1.244.75.75 0 0 1-.298-1.205A8.217 8.217 0 0 0 5.25 9.75V9Zm4.502 8.9a2.25 2.25 0 1 0 4.496 0 25.057 25.057 0 0 1-4.496 0Z" clip-rule="evenodd"/>

    </svg>
  </g>
  <!-- Icon 23: archive-box -->
  <g transform="translate(256, 272)">
    <rect width="48" height="48" fill="#ffffff" stroke="#e9ecef" stroke-width="1" rx="4"/>
    <svg x="8" y="8" width="32" height="32" viewBox="0 0 24 24">
      
  <path d="M3.375 3C2.339 3 1.5 3.84 1.5 4.875v.75c0 1.036.84 1.875 1.875 1.875h17.25c1.035 0 1.875-.84 1.875-1.875v-.75C22.5 3.839 21.66 3 20.625 3H3.375Z"/>
  <path fill-rule="evenodd" d="m3.087 9 .54 9.176A3 3 0 0 0 6.62 21h10.757a3 3 0 0 0 2.995-2.824L20.913 9H3.087Zm6.163 3.75A.75.75 0 0 1 10 12h4a.75.75 0 0 1 0 1.5h-4a.75.75 0 0 1-.75-.75Z" clip-rule="evenodd"/>

    </svg>
  </g>
  <!-- Icon 24: plus-circle -->
  <g transform="translate(316, 272)">
    <rect width="48" height="48" fill="#ffffff" stroke="#e9ecef" stroke-width="1" rx="4"/>
    <svg x="8" y="8" width="32" height="32" viewBox="0 0 16 16">
      
  <path fill-rule="evenodd" d="M8 15A7 7 0 1 0 8 1a7 7 0 0 0 0 14Zm.75-10.25v2.5h2.5a.75.75 0 0 1 0 1.5h-2.5v2.5a.75.75 0 0 1-1.5 0v-2.5h-2.5a.75.75 0 0 1 0-1.5h2.5v-2.5a.75.75 0 0 1 1.5 0Z" clip-rule="evenodd"/>

    </svg>
  </g>
  <!-- Icon 25: finger-print -->
  <g transform="translate(376, 272)">
    <rect width="48" height="48" fill="#ffffff" stroke="#e9ecef" stroke-width="1" rx="4"/>
    <svg x="8" y="8" width="32" height="32" viewBox="0 0 16 16">
      
  <path fill-rule="evenodd" d="M8 3c-.988 0-1.908.286-2.682.78a.75.75 0 0 1-.806-1.266A6.5 6.5 0 0 1 14.5 8c0 1.665-.333 3.254-.936 4.704a.75.75 0 0 1-1.385-.577C12.708 10.857 13 9.464 13 8a5 5 0 0 0-5-5ZM3.55 4.282a.75.75 0 0 1 .23 1.036A4.973 4.973 0 0 0 3 8a.75.75 0 0 1-1.5 0c0-1.282.372-2.48 1.014-3.488a.75.75 0 0 1 1.036-.23ZM8 5.875A2.125 2.125 0 0 0 5.875 8a3.625 3.625 0 0 1-3.625 3.625H2.213a.75.75 0 1 1 .008-1.5h.03A2.125 2.125 0 0 0 4.376 8a3.625 3.625 0 1 1 7.25 0c0 .078-.001.156-.003.233a.75.75 0 1 1-1.5-.036c.002-.066.003-.131.003-.197A2.125 2.125 0 0 0 8 5.875ZM7.995 7.25a.75.75 0 0 1 .75.75 6.502 6.502 0 0 1-4.343 6.133.75.75 0 1 1-.498-1.415A5.002 5.002 0 0 0 7.245 8a.75.75 0 0 1 .75-.75Zm2.651 2.87a.75.75 0 0 1 .463.955 9.39 9.39 0 0 1-3.008 4.25.75.75 0 0 1-.936-1.171 7.892 7.892 0 0 0 2.527-3.57.75.75 0 0 1 .954-.463Z" clip-rule="evenodd"/>

    </svg>
  </g>
  <!-- Icon 26: check-badge -->
  <g transform="translate(436, 272)">
    <rect width="48" height="48" fill="#ffffff" stroke="#e9ecef" stroke-width="1" rx="4"/>
    <svg x="8" y="8" width="32" height="32" viewBox="0 0 16 16">
      
  <path fill-rule="evenodd" d="M15 8c0 .982-.472 1.854-1.202 2.402a2.995 2.995 0 0 1-.848 2.547 2.995 2.995 0 0 1-2.548.849A2.996 2.996 0 0 1 8 15a2.996 2.996 0 0 1-2.402-1.202 2.995 2.995 0 0 1-2.547-.848 2.995 2.995 0 0 1-.849-2.548A2.996 2.996 0 0 1 1 8c0-.982.472-1.854 1.202-2.402a2.995 2.995 0 0 1 .848-2.547 2.995 2.995 0 0 1 2.548-.849A2.995 2.995 0 0 1 8 1c.982 0 1.854.472 2.402 1.202a2.995 2.995 0 0 1 2.547.848c.695.695.978 1.645.849 2.548A2.996 2.996 0 0 1 15 8Zm-3.291-2.843a.75.75 0 0 1 .135 1.052l-4.25 5.5a.75.75 0 0 1-1.151.043l-2.25-2.5a.75.75 0 1 1 1.114-1.004l1.65 1.832 3.7-4.789a.75.75 0 0 1 1.052-.134Z" clip-rule="evenodd"/>

    </svg>
  </g>
  <!-- Icon 27: arrow-trending-up -->
  <g transform="translate(496, 272)">
    <rect width="48" height="48" fill="#ffffff" stroke="#e9ecef" stroke-width="1" rx="4"/>
    <svg x="8" y="8" width="32" height="32" viewBox="0 0 16 16">
      
  <path fill-rule="evenodd" d="M9.808 4.057a.75.75 0 0 1 .92-.527l3.116.849a.75.75 0 0 1 .528.915l-.823 3.121a.75.75 0 0 1-1.45-.382l.337-1.281a23.484 23.484 0 0 0-3.609 3.056.75.75 0 0 1-1.07.01L6 8.06l-3.72 3.72a.75.75 0 1 1-1.06-1.061l4.25-4.25a.75.75 0 0 1 1.06 0l1.756 1.755a25.015 25.015 0 0 1 3.508-2.85l-1.46-.398a.75.75 0 0 1-.526-.92Z" clip-rule="evenodd"/>

    </svg>
  </g>
  <!-- Icon 28: shopping-bag -->
  <g transform="translate(556, 272)">
    <rect width="48" height="48" fill="#ffffff" stroke="#e9ecef" stroke-width="1" rx="4"/>
    <svg x="8" y="8" width="32" height="32" viewBox="0 0 24 24">
      
  <path stroke-linecap="round" stroke-linejoin="round" d="M15.75 10.5V6a3.75 3.75 0 1 0-7.5 0v4.5m11.356-1.993 1.263 12c.07.665-.45 1.243-1.119 1.243H4.25a1.125 1.125 0 0 1-1.12-1.243l1.264-12A1.125 1.125 0 0 1 5.513 7.5h12.974c.576 0 1.059.435 1.119 1.007ZM8.625 10.5a.375.375 0 1 1-.75 0 .375.375 0 0 1 .75 0Zm7.5 0a.375.375 0 1 1-.75 0 .375.375 0 0 1 .75 0Z"/>

    </svg>
  </g>
  <!-- Icon 29: home -->
  <g transform="translate(196, 332)">
    <rect width="48" height="48" fill="#ffffff" stroke="#e9ecef" stroke-width="1" rx="4"/>
    <svg x="8" y="8" width="32" height="32" viewBox="0 0 24 24">
      
  <path stroke-linecap="round" stroke-linejoin="round" d="m2.25 12 8.954-8.955c.44-.439 1.152-.439 1.591 0L21.75 12M4.5 9.75v10.125c0 .621.504 1.125 1.125 1.125H9.75v-4.875c0-.621.504-1.125 1.125-1.125h2.25c.621 0 1.125.504 1.125 1.125V21h4.125c.621 0 1.125-.504 1.125-1.125V9.75M8.25 21h8.25"/>

    </svg>
  </g>
  <!-- Icon 30: command-line -->
  <g transform="translate(256, 332)">
    <rect width="48" height="48" fill="#ffffff" stroke="#e9ecef" stroke-width="1" rx="4"/>
    <svg x="8" y="8" width="32" height="32" viewBox="0 0 24 24">
      
  <path stroke-linecap="round" stroke-linejoin="round" d="m6.75 7.5 3 2.25-3 2.25m4.5 0h3m-9 8.25h13.5A2.25 2.25 0 0 0 21 18V6a2.25 2.25 0 0 0-2.25-2.25H5.25A2.25 2.25 0 0 0 3 6v12a2.25 2.25 0 0 0 2.25 2.25Z"/>

    </svg>
  </g>
  <!-- Icon 31: backward -->
  <g transform="translate(316, 332)">
    <rect width="48" height="48" fill="#ffffff" stroke="#e9ecef" stroke-width="1" rx="4"/>
    <svg x="8" y="8" width="32" height="32" viewBox="0 0 24 24">
      
  <path stroke-linecap="round" stroke-linejoin="round" d="M21 16.811c0 .864-.933 1.406-1.683.977l-7.108-4.061a1.125 1.125 0 0 1 0-1.954l7.108-4.061A1.125 1.125 0 0 1 21 8.689v8.122ZM11.25 16.811c0 .864-.933 1.406-1.683.977l-7.108-4.061a1.125 1.125 0 0 1 0-1.954l7.108-4.061a1.125 1.125 0 0 1 1.683.977v8.122Z"/>

    </svg>
  </g>
  <!-- Icon 32: variable -->
  <g transform="translate(376, 332)">
    <rect width="48" height="48" fill="#ffffff" stroke="#e9ecef" stroke-width="1" rx="4"/>
    <svg x="8" y="8" width="32" height="32" viewBox="0 0 20 20">
      
  <path fill-rule="evenodd" d="M15.212 2.079a.75.75 0 0 1 1.006.336A16.932 16.932 0 0 1 18 10c0 2.724-.641 5.3-1.782 7.585a.75.75 0 1 1-1.342-.67A15.432 15.432 0 0 0 16.5 10c0-2.486-.585-4.834-1.624-6.915a.75.75 0 0 1 .336-1.006Zm-10.424 0a.75.75 0 0 1 .336 1.006A15.433 15.433 0 0 0 3.5 10c0 2.486.585 4.834 1.624 6.915a.75.75 0 1 1-1.342.67A16.933 16.933 0 0 1 2 10c0-2.724.641-5.3 1.782-7.585a.75.75 0 0 1 1.006-.336Zm2.285 3.554a1.5 1.5 0 0 1 2.219.677l.856 2.08 1.146-1.77a2.25 2.25 0 0 1 3.137-.65l.235.156a.75.75 0 1 1-.832 1.248l-.235-.156a.75.75 0 0 0-1.045.216l-1.71 2.644 1.251 3.04.739-.492a.75.75 0 1 1 .832 1.248l-.739.493a1.5 1.5 0 0 1-2.219-.677l-.856-2.08-1.146 1.77a2.25 2.25 0 0 1-3.137.65l-.235-.156a.75.75 0 0 1 .832-1.248l.235.157a.75.75 0 0 0 1.045-.217l1.71-2.644-1.251-3.04-.739.492a.75.75 0 0 1-.832-1.248l.739-.493Z" clip-rule="evenodd"/>

    </svg>
  </g>
  <!-- Icon 33: paint-brush -->
  <g transform="translate(436, 332)">
    <rect width="48" height="48" fill="#ffffff" stroke="#e9ecef" stroke-width="1" rx="4"/>
    <svg x="8" y="8" width="32" height="32" viewBox="0 0 20 20">
      
  <path d="M15.993 1.385a1.87 1.87 0 0 1 2.623 2.622l-4.03 5.27a12.749 12.749 0 0 1-4.237 3.562 4.508 4.508 0 0 0-3.188-3.188 12.75 12.75 0 0 1 3.562-4.236l5.27-4.03ZM6 11a3 3 0 0 0-3 3 .5.5 0 0 1-.72.45.75.75 0 0 0-1.035.931A4.001 4.001 0 0 0 9 14.004V14a3.01 3.01 0 0 0-1.66-2.685A2.99 2.99 0 0 0 6 11Z"/>

    </svg>
  </g>
  <!-- Icon 34: document -->
  <g transform="translate(496, 332)">
    <rect width="48" height="48" fill="#ffffff" stroke="#e9ecef" stroke-width="1" rx="4"/>
    <svg x="8" y="8" width="32" height="32" viewBox="0 0 20 20">
      
  <path d="M3 3.5A1.5 1.5 0 0 1 4.5 2h6.879a1.5 1.5 0 0 1 1.06.44l4.122 4.12A1.5 1.5 0 0 1 17 7.622V16.5a1.5 1.5 0 0 1-1.5 1.5h-11A1.5 1.5 0 0 1 3 16.5v-13Z"/>

    </svg>
  </g>
  <!-- Icon 35: calculator -->
  <g transform="translate(556, 332)">
    <rect width="48" height="48" fill="#ffffff" stroke="#e9ecef" stroke-width="1" rx="4"/>
    <svg x="8" y="8" width="32" height="32" viewBox="0 0 20 20">
      
  <path fill-rule="evenodd" d="M10 1c-1.716 0-3.408.106-5.07.31C3.806 1.45 3 2.414 3 3.517V16.75A2.25 2.25 0 0 0 5.25 19h9.5A2.25 2.25 0 0 0 17 16.75V3.517c0-1.103-.806-2.068-1.93-2.207A41.403 41.403 0 0 0 10 1ZM5.99 8.75A.75.75 0 0 1 6.74 8h.01a.75.75 0 0 1 .75.75v.01a.75.75 0 0 1-.75.75h-.01a.75.75 0 0 1-.75-.75v-.01Zm.75 1.417a.75.75 0 0 0-.75.75v.01c0 .414.336.75.75.75h.01a.75.75 0 0 0 .75-.75v-.01a.75.75 0 0 0-.75-.75h-.01Zm-.75 2.916a.75.75 0 0 1 .75-.75h.01a.75.75 0 0 1 .75.75v.01a.75.75 0 0 1-.75.75h-.01a.75.75 0 0 1-.75-.75v-.01Zm.75 1.417a.75.75 0 0 0-.75.75v.01c0 .414.336.75.75.75h.01a.75.75 0 0 0 .75-.75v-.01a.75.75 0 0 0-.75-.75h-.01Zm1.417-5.75a.75.75 0 0 1 .75-.75h.01a.75.75 0 0 1 .75.75v.01a.75.75 0 0 1-.75.75h-.01a.75.75 0 0 1-.75-.75v-.01Zm.75 1.417a.75.75 0 0 0-.75.75v.01c0 .414.336.75.75.75h.01a.75.75 0 0 0 .75-.75v-.01a.75.75 0 0 0-.75-.75h-.01Zm-.75 2.916a.75.75 0 0 1 .75-.75h.01a.75.75 0 0 1 .75.75v.01a.75.75 0 0 1-.75.75h-.01a.75.75 0 0 1-.75-.75v-.01Zm.75 1.417a.75.75 0 0 0-.75.75v.01c0 .414.336.75.75.75h.01a.75.75 0 0 0 .75-.75v-.01a.75.75 0 0 0-.75-.75h-.01Zm1.42-5.75a.75.75 0 0 1 .75-.75h.01a.75.75 0 0 1 .75.75v.01a.75.75 0 0 1-.75.75h-.01a.75.75 0 0 1-.75-.75v-.01Zm.75 1.417a.75.75 0 0 0-.75.75v.01c0 .414.336.75.75.75h.01a.75.75 0 0 0 .75-.75v-.01a.75.75 0 0 0-.75-.75h-.01Zm-.75 2.916a.75.75 0 0 1 .75-.75h.01a.75.75 0 0 1 .75.75v.01a.75.75 0 0 1-.75.75h-.01a.75.75 0 0 1-.75-.75v-.01Zm.75 1.417a.75.75 0 0 0-.75.75v.01c0 .414.336.75.75.75h.01a.75.75 0 0 0 .75-.75v-.01a.75.75 0 0 0-.75-.75h-.01ZM12.5 8.75a.75.75 0 0 1 .75-.75h.01a.75.75 0 0 1 .75.75v.01a.75.75 0 0 1-.75.75h-.01a.75.75 0 0 1-.75-.75v-.01Zm.75 1.417a.75.75 0 0 0-.75.75v.01c0 .414.336.75.75.75h.01a.75.75 0 0 0 .75-.75v-.01a.75.75 0 0 0-.75-.75h-.01Zm0 2.166a.75.75 0 0 1 .75.75v2.167a.75.75 0 1 1-1.5 0v-2.167a.75.75 0 0 1 .75-.75ZM6.75 4a.75.75 0 0 0-.75.75v.5c0 .414.336.75.75.75h6.5a.75.75 0 0 0 .75-.75v-.5a.75.75 0 0 0-.75-.75h-6.5Z" clip-rule="evenodd"/>

    </svg>
  </g>
  
  <!-- Footer -->
  <text x="400" y="580" text-anchor="middle" font-family="system-ui, -apple-system, sans-serif" font-size="12" fill="#6c757d">
    Showing 35 of 1280 icons
  </text>
  
</svg>