<svg width="800" height="600" xmlns="http://www.w3.org/2000/svg">
  <!-- Background -->
  <rect width="800" height="600" fill="#ffffff"/>
  
  <!-- Header Background -->
  <rect width="800" height="80" fill="#f8f9fa"/>
  
  <!-- Title -->
  <text x="400" y="30" text-anchor="middle" font-family="system-ui, -apple-system, sans-serif" font-size="20" font-weight="bold" fill="#212529">Icon Brew</text>
  
  <!-- Subtitle -->
  <text x="400" y="55" text-anchor="middle" font-family="system-ui, -apple-system, sans-serif" font-size="14" fill="#6c757d">758 icons</text>
  
  <!-- Icon Grid -->
  <!-- Icon 1: h3-24px -->
  <g transform="translate(196, 92)">
    <rect width="48" height="48" fill="#ffffff" stroke="#e9ecef" stroke-width="1" rx="4"/>
    <svg x="8" y="8" width="32" height="32" viewBox="0 0 24 24">
      <path d="M2.001 21.255c0-.287.232-.52.519-.52h.315c.461 0 .835-.373.835-.834V7.211a1 1 0 0 0-.827-.984l-.451-.08a.472.472 0 1 1-.005-.93l1.949-.361a1 1 0 0 1 1.183.983v5.981c0 .03.024.054.053.054a.055.055 0 0 0 .05-.034c.09-.215.221-.436.393-.665.18-.24.406-.459.676-.654.286-.195.498-.357.86-.478.375-.12.612-.176 1.078-.176 1.398 0 2.397.368 2.999 1.105.6.721.902 1.811.902 3.27v5.66c0 .46.373.834.834.834h.316a.519.519 0 0 1 0 1.037H9.53a.519.519 0 1 1 0-1.037h.316c.461 0 .835-.374.835-.835V14.4c0-1.097-.218-1.909-.654-2.435-.436-.541-.833-.812-1.78-.812-.33 0-.661.046-.992.136a2.81 2.81 0 0 0-.88.428 2.431 2.431 0 0 0-.63.722c-.151.285-.226.624-.226 1.014v6.45c0 .46.373.834.834.834h.316a.519.519 0 0 1 0 1.037h-4.15a.519.519 0 0 1-.518-.518z" fill="none" stroke="#2563eb" stroke-width="2"/><path d="M15.839 12.819a1 1 0 1 0 1.307 1.513L15.84 12.82zm5.153 1.835h-1 1zm-3.447 2.106l-.12-.993a1 1 0 0 0 .067 1.991l.053-.998zm-.185 2.661a1 1 0 0 0-1.736.993l1.736-.993zm2.632-4.767c0 .286-.093.444-.224.567-.16.15-.42.284-.768.38a4.74 4.74 0 0 1-.974.153 5.281 5.281 0 0 1-.411.008h-.018l-.002-.001h.002l-.052.999-.052.998h.007a.741.741 0 0 0 .053.003l.135.002c.112 0 .268-.002.453-.012a6.722 6.722 0 0 0 1.396-.223c.514-.143 1.117-.393 1.603-.852.515-.486.852-1.163.852-2.022h-2zm-2.447 2.106l.12.992h-.003.017a4.2 4.2 0 0 1 .395-.014c.271.002.61.03.93.118.323.089.565.221.72.387.134.143.268.379.268.832h2c0-.914-.296-1.652-.808-2.199-.492-.525-1.112-.8-1.65-.949a5.743 5.743 0 0 0-1.44-.19 6.225 6.225 0 0 0-.661.029h-.005-.002l-.001.001.12.993zm2.447 2.315c0 .381-.302.787-1.03.917-.727.13-1.352-.134-1.602-.57l-1.736.992c.803 1.403 2.429 1.772 3.69 1.547 1.258-.225 2.678-1.161 2.678-2.886h-2zm-2.846-4.743c.638-.55 1.444-.71 2.035-.582.29.063.49.185.612.32.111.123.2.301.2.584h2c0-.756-.258-1.42-.718-1.928-.451-.497-1.05-.796-1.669-.93-1.225-.267-2.668.074-3.767 1.023l1.307 1.513z" fill="none"/>
    </svg>
  </g>
  <!-- Icon 2: triangle-with-blocks-24px -->
  <g transform="translate(256, 92)">
    <rect width="48" height="48" fill="#ffffff" stroke="#e9ecef" stroke-width="1" rx="4"/>
    <svg x="8" y="8" width="32" height="32" viewBox="0 0 24 24">
      <g stroke="#2563eb" stroke-width="2"><path d="M18 15l-3.5-6.5m.5 10H9M6 15l3.5-6.5"/><rect height="6" rx="2" width="6" x="3" y="15"/><rect height="6" rx="2" width="6" x="15" y="15"/><rect height="6" rx="2" width="6" x="9" y="3"/></g>
    </svg>
  </g>
  <!-- Icon 3: tray-24px -->
  <g transform="translate(316, 92)">
    <rect width="48" height="48" fill="#ffffff" stroke="#e9ecef" stroke-width="1" rx="4"/>
    <svg x="8" y="8" width="32" height="32" viewBox="0 0 24 24">
      <g stroke="#2563eb" stroke-width="2"><path d="M3 14v-2.667c0-.66 0-.99.103-1.299.102-.308.3-.572.697-1.1L6.3 5.6c.589-.785.883-1.178 1.306-1.389C8.028 4 8.519 4 9.5 4h5c.981 0 1.472 0 1.894.211.423.211.717.604 1.306 1.389l2.5 3.333c.396.529.595.793.697 1.101.103.308.103.638.103 1.3V14"/><path d="M3 12h4.546c.42 0 .63 0 .833.043.07.014.138.032.205.054.197.064.38.168.744.376 1.153.659 1.73.988 2.354 1.055.211.022.425.022.636 0 .625-.067 1.201-.396 2.354-1.055.364-.208.547-.312.744-.376.067-.022.136-.04.205-.054.203-.043.413-.043.832-.043H21v4c0 1.886 0 2.828-.586 3.414S18.886 20 17 20H7c-1.886 0-2.828 0-3.414-.586S3 17.886 3 16z"/></g>
    </svg>
  </g>
  <!-- Icon 4: tab-bottom-24px -->
  <g transform="translate(376, 92)">
    <rect width="48" height="48" fill="#ffffff" stroke="#e9ecef" stroke-width="1" rx="4"/>
    <svg x="8" y="8" width="32" height="32" viewBox="0 0 24 24">
      <path d="M12 3v18m0 0l-9-9m9 9l9-9m0 9H3" stroke="#2563eb" stroke-width="2" stroke-linecap="round" stroke-linejoin="round"/>
    </svg>
  </g>
  <!-- Icon 5: shopping-cart-full-24px -->
  <g transform="translate(436, 92)">
    <rect width="48" height="48" fill="#ffffff" stroke="#e9ecef" stroke-width="1" rx="4"/>
    <svg x="8" y="8" width="32" height="32" viewBox="0 0 24 24">
      <g clip-path="url(#clip0_821_19295)"><path d="M19.5 17H9.195c-.81 0-1.214 0-1.494-.237s-.346-.636-.48-1.435l-1.443-8.67c-.133-.798-.2-1.197-.479-1.434-.28-.237-.684-.237-1.494-.237H3M5.857 7l11.308-.007c1.704 0 2.556-.001 3.102.43a2 2 0 0 1 .552.683c.309.624.13 1.457-.226 3.124-.243 1.133-.364 1.7-.71 2.092a2 2 0 0 1-.522.422c-.456.256-1.035.256-2.194.256H7.001" stroke="#2563eb" stroke-width="2" stroke-linecap="round" stroke-linejoin="round"/><path d="M20 20.5a1.5 1.5 0 1 1-3 0 1.5 1.5 0 0 1 3 0zm-9.5 0a1.5 1.5 0 1 1-3 0 1.5 1.5 0 0 1 3 0z" fill="none"/></g><path d="M13 3c-2.697 0-4.503.297-5.19 2.035-.287.726-.431 1.09-.133 1.527C7.974 7 8.483 7 9.5 7h7c1.017 0 1.526 0 1.823-.438.298-.437.154-.8-.133-1.527C17.503 3.297 15.697 3 13 3z" stroke="#2563eb" stroke-width="2" stroke-linecap="round" stroke-linejoin="round"/><defs><clipPath id="clip0_821_19295"><path fill="none" d="M0 0H24V24H0z"/></clipPath></defs>
    </svg>
  </g>
  <!-- Icon 6: return-down-24px -->
  <g transform="translate(496, 92)">
    <rect width="48" height="48" fill="#ffffff" stroke="#e9ecef" stroke-width="1" rx="4"/>
    <svg x="8" y="8" width="32" height="32" viewBox="0 0 24 24">
      <clipPath id="a"><path d="M0 0h24v24H0z"/></clipPath><clipPath id="b"><path d="M0 0h24v24H0z" transform="rotate(-90 12 12)"/></clipPath><g clip-path="url(#a)"><g clip-path="url(#b)"><path d="M13 21.5V7c0-1.886 0-2.828-.586-3.414S10.886 3 9 3s-2.828 0-3.414.586S5 5.114 5 7v2.5m8 12l6-5m-6 5l-6-5" stroke="#2563eb" stroke-linecap="round" stroke-linejoin="round" stroke-width="2"/></g></g>
    </svg>
  </g>
  <!-- Icon 7: power-24px -->
  <g transform="translate(556, 92)">
    <rect width="48" height="48" fill="#ffffff" stroke="#e9ecef" stroke-width="1" rx="4"/>
    <svg x="8" y="8" width="32" height="32" viewBox="0 0 24 24">
      <path d="M13 3a1 1 0 1 0-2 0zm-2 8a1 1 0 1 0 2 0zm2 0V3h-2v8z" fill="none"/><path d="M5.693 5.58a9 9 0 1 0 12.615 0" stroke="#2563eb" stroke-linecap="round" stroke-width="2"/>
    </svg>
  </g>
  <!-- Icon 8: padding-left-24px -->
  <g transform="translate(196, 152)">
    <rect width="48" height="48" fill="#ffffff" stroke="#e9ecef" stroke-width="1" rx="4"/>
    <svg x="8" y="8" width="32" height="32" viewBox="0 0 24 24">
      <path d="M3 7v10m8.5-9.5h1c1.886 0 2.828 0 3.414.586.586.586.586 1.528.586 3.414v1c0 1.886 0 2.828-.586 3.414-.586.586-1.528.586-3.414.586h-1c-1.886 0-2.828 0-3.414-.586C7.5 15.328 7.5 14.386 7.5 12.5v-1c0-1.886 0-2.828.586-3.414C8.672 7.5 9.614 7.5 11.5 7.5z" stroke="#2563eb" stroke-width="2" stroke-linecap="round"/>
    </svg>
  </g>
  <!-- Icon 9: medical-24px -->
  <g transform="translate(256, 152)">
    <rect width="48" height="48" fill="#ffffff" stroke="#e9ecef" stroke-width="1" rx="4"/>
    <svg x="8" y="8" width="32" height="32" viewBox="0 0 24 24">
      <g fill="#2563eb"><path d="M16.606 3V2c-.02 0-.042 0-.063.002zm-6.57.882l-.544.839.544-.84zM7.394 3l.063-.998A.998.998 0 0 0 7.394 2zM2 9H1zm10 13l-.59.808a1 1 0 0 0 1.172.005zm9-13a1 1 0 1 0 2 0zm-2.553 8.667a1 1 0 1 0-1.452-1.376zm-6.43-11.698l-.867-.497zm-.034 0l.867-.497zm.017.02v1zm4.543-3.987a6.5 6.5 0 0 0-3.123 1.04l1.088 1.679a4.498 4.498 0 0 1 2.162-.723zm-3.123 1.04a7.09 7.09 0 0 0-2.27 2.43l1.735.995a5.09 5.09 0 0 1 1.623-1.746zm-.57 2.43a7.09 7.09 0 0 0-2.27-2.43L9.492 4.721a5.09 5.09 0 0 1 1.623 1.746zm-2.27-2.43a6.498 6.498 0 0 0-3.123-1.04L7.33 3.998c.759.048 1.5.294 2.162.723zM7.394 2c-1.757 0-3.425.754-4.642 2.069l1.467 1.359C5.075 4.503 6.22 4 7.394 4zM2.752 4.069C1.497 5.424 1 7.244 1 9h2c0-1.41.4-2.688 1.22-3.572l-1.468-1.36zM1 9c0 1.7.737 3.416 1.717 4.97.99 1.569 2.293 3.073 3.57 4.37a46.983 46.983 0 0 0 5.114 4.46l.006.005.002.002h.001L12 22l.59-.808h-.001l-.004-.003-.02-.014a42.885 42.885 0 0 1-1.492-1.176 44.978 44.978 0 0 1-3.36-3.063c-1.223-1.242-2.42-2.631-3.305-4.034C3.513 11.484 3 10.15 3 9zm22 0c0-1.756-.497-3.576-1.752-4.931l-1.467 1.359C20.599 6.312 21 7.59 21 9zm-1.752-4.931C20.031 2.754 18.363 2 16.606 2v2c1.175 0 2.319.503 3.175 1.428l1.467-1.36zM12 22l.582.813h.001l.003-.002.007-.006.029-.02a19.263 19.263 0 0 0 .493-.369c.332-.252.8-.617 1.356-1.074a44.652 44.652 0 0 0 3.976-3.675l-1.452-1.376a42.664 42.664 0 0 1-3.794 3.506 44.321 44.321 0 0 1-1.754 1.369l-.023.017-.005.003-.001.001zm-.85-16.528c-.02.036.018-.037.072-.106A.99.99 0 0 1 12 4.99v2a1.01 1.01 0 0 0 .866-.492l.013-.021a.506.506 0 0 1 .006-.01zm-.035.995l.006.01.013.021A1.01 1.01 0 0 0 12 6.99v-2a.99.99 0 0 1 .778.377c.054.069.092.142.072.106l-1.735.995z"/><path d="M7.106 13.553a1 1 0 1 0 1.788.894zM10 10l.8-.6a1 1 0 0 0-1.694.153zm3 4l-.8.6a1 1 0 0 0 1.507.107zm2-2l.707-.707a1 1 0 0 0-1.414 0zm2 2l-.707.707a1 1 0 0 0 1.307.093zm5-.5a1 1 0 1 0 0-2zm-3.533-.6l-.6-.8zm.55-.349l.316.949zM8.894 14.447l2-4-1.788-.894-2 4zM9.2 10.6l3 4 1.6-1.2-3-4zm4.507 4.107l2-2-1.414-1.414-2 2zm.586-2l2 2 1.414-1.414-2-2zM17.6 14.8l1.467-1.1-1.2-1.6-1.467 1.1zm2.067-1.3H22v-2h-2.333zm-.6.2c.141-.106.212-.159.265-.193.041-.028.033-.018.001-.007l-.632-1.897c-.343.114-.622.338-.834.497zm.6-2.2c-.266 0-.623-.012-.966.103l.632 1.897c-.032.01-.044.008.006.004.063-.003.15-.004.328-.004z"/></g>
    </svg>
  </g>
  <!-- Icon 10: layout-top-24px -->
  <g transform="translate(316, 152)">
    <rect width="48" height="48" fill="#ffffff" stroke="#e9ecef" stroke-width="1" rx="4"/>
    <svg x="8" y="8" width="32" height="32" viewBox="0 0 24 24">
      <path d="M7.5 7h9M9 3h6c2.828 0 4.243 0 5.121.879C21 4.757 21 6.172 21 9v6c0 2.828 0 4.243-.879 5.121C19.243 21 17.828 21 15 21H9c-2.828 0-4.243 0-5.121-.879C3 19.243 3 17.828 3 15V9c0-2.828 0-4.243.879-5.121C4.757 3 6.172 3 9 3z" stroke="#2563eb" stroke-width="2" stroke-linecap="round"/>
    </svg>
  </g>
  <!-- Icon 11: health-and-fitness-24px -->
  <g transform="translate(376, 152)">
    <rect width="48" height="48" fill="#ffffff" stroke="#e9ecef" stroke-width="1" rx="4"/>
    <svg x="8" y="8" width="32" height="32" viewBox="0 0 24 24">
      <path d="M11.856 3C16.906 3 21 7.03 21 12s-4.094 9-9.144 9c-4.26 0-7.84-2.868-8.856-6.75M12 7a5 5 0 1 1-4.873 3.875" stroke="#2563eb" stroke-width="2" stroke-linecap="round"/><circle cx="12" cy="12" r="2" fill="none"/>
    </svg>
  </g>
  <!-- Icon 12: flag-24px -->
  <g transform="translate(436, 152)">
    <rect width="48" height="48" fill="#ffffff" stroke="#e9ecef" stroke-width="1" rx="4"/>
    <svg x="8" y="8" width="32" height="32" viewBox="0 0 24 24">
      <path d="M6 21V11m0 0V5c0-.943 0-1.414.293-1.707S7.057 3 8 3h9.586c1.027 0 1.541 0 1.669.309.128.308-.236.672-.962 1.398l-1.586 1.586c-.333.333-.5.5-.5.707s.167.374.5.707l1.586 1.586c.726.726 1.09 1.09.962 1.398-.128.309-.642.309-1.67.309z" stroke="#2563eb" stroke-linecap="round" stroke-linejoin="round" stroke-width="2"/>
    </svg>
  </g>
  <!-- Icon 13: document-text-24px -->
  <g transform="translate(496, 152)">
    <rect width="48" height="48" fill="#ffffff" stroke="#e9ecef" stroke-width="1" rx="4"/>
    <svg x="8" y="8" width="32" height="32" viewBox="0 0 24 24">
      <path d="M17.676 6.308l-.67.744zm1.151 1.269l.913-.407zm-4.878-4.444l-.358.933zm4.465 17.281l-.707-.707zm-12.828 0l.707-.707zM6 17V7H4v10zm9 3H9v2h6zM9 4h3.465V2H9zm9 5.281V17h2V9.281zm-3.528-4.51l2.535 2.28 1.338-1.486-2.535-2.281-1.338 1.486zM20 9.28c0-.789.02-1.483-.26-2.11l-1.826.813c.066.149.086.332.086 1.297zm-2.993-2.23c.718.647.84.784.906.933l1.828-.814c-.28-.628-.81-1.077-1.396-1.605l-1.338 1.487zM12.465 4c.834 0 .993.015 1.126.066l.716-1.867C13.748 1.985 13.15 2 12.465 2zm3.345-.716c-.508-.458-.944-.87-1.503-1.085l-.716 1.867c.133.051.261.146.881.704zM15 22c.915 0 1.701.002 2.328-.082.655-.088 1.284-.287 1.793-.797l-1.414-1.414c-.076.076-.212.17-.646.229-.462.062-1.09.064-2.061.064zm3-5c0 .971-.002 1.599-.064 2.061-.059.434-.153.57-.229.646l1.414 1.414c.51-.51.709-1.138.797-1.793C20.002 18.7 20 17.915 20 17zM4 17c0 .915-.002 1.701.082 2.328.088.655.287 1.284.797 1.793l1.414-1.414c-.076-.076-.17-.212-.229-.646C6.002 18.6 6 17.971 6 17zm5 3c-.971 0-1.599-.002-2.061-.064-.434-.059-.57-.153-.646-.229l-1.414 1.414c.51.51 1.138.709 1.793.797C7.3 22.002 8.085 22 9 22zM6 7c0-.971.002-1.599.064-2.061.059-.434.153-.57.229-.646L4.879 2.879c-.51.51-.709 1.138-.797 1.793C3.998 5.3 4 6.085 4 7zm3-5c-.915 0-1.701-.002-2.328.082-.655.088-1.284.287-1.793.797l1.414 1.414c.076-.076.212-.17.646-.229C7.4 4.002 8.029 4 9 4z" fill="none"/><g stroke="#2563eb" stroke-width="2"><path d="M13 3v2c0 1.886 0 2.828.586 3.414S15.114 9 17 9h2"/><path d="M9 17.5h3m-3-5h6m-6-5h1" stroke-linecap="round" stroke-linejoin="round"/></g>
    </svg>
  </g>
  <!-- Icon 14: clock-24px -->
  <g transform="translate(556, 152)">
    <rect width="48" height="48" fill="#ffffff" stroke="#e9ecef" stroke-width="1" rx="4"/>
    <svg x="8" y="8" width="32" height="32" viewBox="0 0 24 24">
      <circle cx="12" cy="12" r="9" stroke="#2563eb" stroke-width="2"/><path d="M12 12V8m0 4H7" stroke="#2563eb" stroke-width="2" stroke-linecap="round"/>
    </svg>
  </g>
  <!-- Icon 15: chevron-down-24px -->
  <g transform="translate(196, 212)">
    <rect width="48" height="48" fill="#ffffff" stroke="#e9ecef" stroke-width="1" rx="4"/>
    <svg x="8" y="8" width="32" height="32" viewBox="0 0 24 24">
      <clipPath id="a"><path d="M0 0h24v24H0z"/></clipPath><clipPath id="b"><path d="M0 0h24v24H0z" transform="rotate(180 12 12)"/></clipPath><g clip-path="url(#a)"><g clip-path="url(#b)" stroke="#2563eb" stroke-linecap="round" stroke-linejoin="round" stroke-width="2"><path d="M4 9l5.172 5.172c1.333 1.333 2 2 2.828 2s1.495-.667 2.828-2L20 9"/><path d="M4 9l5.172 5.172c1.333 1.333 2 2 2.828 2s1.495-.667 2.828-2L20 9"/></g></g>
    </svg>
  </g>
  <!-- Icon 16: brightness-down-24px -->
  <g transform="translate(256, 212)">
    <rect width="48" height="48" fill="#ffffff" stroke="#e9ecef" stroke-width="1" rx="4"/>
    <svg x="8" y="8" width="32" height="32" viewBox="0 0 24 24">
      <circle cx="12" cy="12" r="4" stroke="#2563eb" stroke-width="2"/><path d="M7.5 17.5a1 1 0 1 1-2 0 1 1 0 0 1 2 0zm-2-5.5a1 1 0 1 1-2 0 1 1 0 0 1 2 0zm2-5.5a1 1 0 1 1-2 0 1 1 0 0 1 2 0zm5.5-2a1 1 0 1 1-2 0 1 1 0 0 1 2 0zm5.5 2a1 1 0 1 1-2 0 1 1 0 0 1 2 0zm2 5.5a1 1 0 1 1-2 0 1 1 0 0 1 2 0zm-2 5.5a1 1 0 1 1-2 0 1 1 0 0 1 2 0zm-5.5 2a1 1 0 1 1-2 0 1 1 0 0 1 2 0z" fill="none"/>
    </svg>
  </g>
  <!-- Icon 17: battery-horizontal-low-24px -->
  <g transform="translate(316, 212)">
    <rect width="48" height="48" fill="#ffffff" stroke="#e9ecef" stroke-width="1" rx="4"/>
    <svg x="8" y="8" width="32" height="32" viewBox="0 0 24 24">
      <g stroke="#2563eb" stroke-linecap="round" stroke-linejoin="round" stroke-width="2"><path d="M3 11c0-1.886 0-2.828.586-3.414C4.172 7 5.114 7 7 7h8c1.886 0 2.828 0 3.414.586C19 8.172 19 9.114 19 11v2c0 1.886 0 2.828-.586 3.414S16.886 17 15 17H7c-1.886 0-2.828 0-3.414-.586C3 15.828 3 14.886 3 13z"/><path d="M19 12.5v-1a1 1 0 1 1 2 0v1a1 1 0 1 1-2 0z" fill="none"/><path d="M6.5 10v4"/></g>
    </svg>
  </g>
  <!-- Icon 18: arrow-circle-forward-fiveteen-24px -->
  <g transform="translate(376, 212)">
    <rect width="48" height="48" fill="#ffffff" stroke="#e9ecef" stroke-width="1" rx="4"/>
    <svg x="8" y="8" width="32" height="32" viewBox="0 0 24 24">
      <g stroke="#2563eb" stroke-linecap="round" stroke-linejoin="round"><path d="M19.878 13.286c0 4.26-2.96 7.714-7.378 7.714s-8-3.058-8-7.714 3.582-7.715 8-7.715h7m0 0L16.833 3M19.5 5.571l-2.667 2.572" stroke-width="2"/><path d="M9.875 16.5v-6L8.5 12m7.375-1.5H12.63l-.625 3.143c.625-.38.78-.643 1.995-.643s1.875.5 1.875 2-1.37 1.5-1.875 1.5-2 0-2-1"/></g>
    </svg>
  </g>
  <!-- Icon 19: airplay-24px -->
  <g transform="translate(436, 212)">
    <rect width="48" height="48" fill="#ffffff" stroke="#e9ecef" stroke-width="1" rx="4"/>
    <svg x="8" y="8" width="32" height="32" viewBox="0 0 24 24">
      <g stroke="#2563eb" stroke-width="2"><path d="M7.5 17H7c-1.886 0-2.828 0-3.414-.586S3 14.886 3 13V7c0-1.886 0-2.828.586-3.414S5.114 3 7 3h10c1.886 0 2.828 0 3.414.586S21 5.114 21 7v6c0 1.886 0 2.828-.586 3.414S18.886 17 17 17h-.5" stroke-linecap="round"/><path d="M10.507 18.133c.609-.87.913-1.304 1.323-1.375.113-.019.227-.019.34 0 .41.071.714.506 1.323 1.375.788 1.125 1.181 1.688 1.046 2.15-.037.124-.097.24-.178.341C14.06 21 13.374 21 12 21s-2.06 0-2.36-.376a1 1 0 0 1-.179-.342c-.136-.461.258-1.024 1.046-2.15z"/></g>
    </svg>
  </g>
  <!-- Icon 20: truck-18px -->
  <g transform="translate(496, 212)">
    <rect width="48" height="48" fill="#ffffff" stroke="#e9ecef" stroke-width="1" rx="4"/>
    <svg x="8" y="8" width="32" height="32" viewBox="0 0 24 24">
      <path d="M2.5 6c0-.943 0-1.414.293-1.707S3.557 4 4.5 4h3c.943 0 1.414 0 1.707.293S9.5 5.057 9.5 6v4c0 .943 0 1.414-.293 1.707S8.443 12 7.5 12h-3c-.943 0-1.414 0-1.707-.293S2.5 10.943 2.5 10zm7 2c0-.943 0-1.414.293-1.707S10.557 6 11.5 6h.666c.477 0 .715 0 .922.1.206.1.354.288.649.662l1.334 1.693c.213.27.319.405.374.564.055.16.055.33.055.674V10c0 .943 0 1.414-.293 1.707S14.443 12 13.5 12h-2c-.943 0-1.414 0-1.707-.293S9.5 10.943 9.5 10zm5.5 4a2 2 0 1 1-4 0H7a2 2 0 1 1-4 0" stroke="#2563eb"/>
    </svg>
  </g>
  <!-- Icon 21: tray-and-arrow-down-18px -->
  <g transform="translate(556, 212)">
    <rect width="48" height="48" fill="#ffffff" stroke="#e9ecef" stroke-width="1" rx="4"/>
    <svg x="8" y="8" width="32" height="32" viewBox="0 0 24 24">
      <g stroke="#2563eb" stroke-linecap="round"><path d="M9 3v8m0 0L5.667 7.866M9 11l3.333-3.134" stroke-linejoin="round"/><path d="M3 10.333V13c0 .943 0 1.414.293 1.707S4.057 15 5 15h8c.943 0 1.414 0 1.707-.293S15 13.943 15 13v-2.667"/></g>
    </svg>
  </g>
  <!-- Icon 22: tab-left-18px -->
  <g transform="translate(196, 272)">
    <rect width="48" height="48" fill="#ffffff" stroke="#e9ecef" stroke-width="1" rx="4"/>
    <svg x="8" y="8" width="32" height="32" viewBox="0 0 24 24">
      <clipPath id="a"><path d="M0 0h18v18H0z"/></clipPath><g clip-path="url(#a)"><path d="M15.5 9h-13m0 0l6-6m-6 6l6 6m-6 0V3" stroke="#2563eb" stroke-linecap="round" stroke-linejoin="round"/></g>
    </svg>
  </g>
  <!-- Icon 23: side-bar-left-18px -->
  <g transform="translate(256, 272)">
    <rect width="48" height="48" fill="#ffffff" stroke="#e9ecef" stroke-width="1" rx="4"/>
    <svg x="8" y="8" width="32" height="32" viewBox="0 0 24 24">
      <path d="M12 3.5H6c-.957 0-1.624.001-2.128.069-.49.066-.748.186-.933.37-.184.185-.304.444-.37.933C2.5 5.376 2.5 6.043 2.5 7v4c0 .957.001 1.624.069 2.128.066.49.186.748.37.933.185.184.444.305.933.37.504.068 1.171.069 2.128.069h6c.957 0 1.624-.001 2.128-.069.49-.065.748-.186.933-.37.184-.185.305-.444.37-.933.068-.504.069-1.171.069-2.128V7c0-.957-.001-1.624-.069-2.128-.065-.49-.186-.748-.37-.933-.185-.184-.444-.304-.933-.37C13.624 3.5 12.957 3.5 12 3.5z" stroke="#2563eb"/><path d="M7.5 3.5v11m-2-7h-1m1 2h-1m1-4h-1" stroke="#2563eb" stroke-linecap="round" stroke-linejoin="round"/>
    </svg>
  </g>
  <!-- Icon 24: return-left-18px -->
  <g transform="translate(316, 272)">
    <rect width="48" height="48" fill="#ffffff" stroke="#e9ecef" stroke-width="1" rx="4"/>
    <svg x="8" y="8" width="32" height="32" viewBox="0 0 24 24">
      <path d="M2.486 9.5h11c.943 0 1.415 0 1.708-.293.292-.293.292-.764.292-1.707v-1c0-.943 0-1.414-.292-1.707-.293-.293-.765-.293-1.708-.293h-2.27m-8.73 5L6 13.5m-3.514-4L6 5.5" stroke="#2563eb" stroke-linecap="round" stroke-linejoin="round"/>
    </svg>
  </g>
  <!-- Icon 25: presentation-18px -->
  <g transform="translate(376, 272)">
    <rect width="48" height="48" fill="#ffffff" stroke="#e9ecef" stroke-width="1" rx="4"/>
    <svg x="8" y="8" width="32" height="32" viewBox="0 0 24 24">
      <path d="M4.444 2.5a.5.5 0 1 0-1 0h1zm10.112 0a.5.5 0 0 0-1 0h1zM2.5 2a.5.5 0 0 0 0 1V2zm13 1a.5.5 0 0 0 0-1v1zM6.513 15.116a.5.5 0 1 0 .64.768l-.64-.768zm4.334.768a.5.5 0 0 0 .64-.768l-.64.768zM4.53 10.942l.354-.354-.354.354zm8.94 0l-.354-.354.354.354zm.086-8.442v5.028h1V2.5h-1zM4.444 7.528V2.5h-1v5.028h1zM2.5 3h13V2h-13v1zm7.556 8.028H9v1h1.056v-1zm-1.056 0H7.944v1H9v-1zm-.5.5v2.166h1v-2.166h-1zm.18 1.782l-2.167 1.806.64.768L9.32 14.08l-.64-.769zm0 .769l2.167 1.805.64-.768L9.32 13.31l-.64.769zM3.444 7.528c0 .928 0 1.675.078 2.261.08.6.253 1.105.655 1.507l.707-.708c-.185-.184-.305-.443-.37-.932-.068-.504-.07-1.171-.07-2.128h-1zm4.5 3.5c-.957 0-1.624-.001-2.127-.069-.49-.066-.749-.186-.933-.37l-.707.707c.401.4.906.573 1.506.654.586.079 1.333.078 2.261.078v-1zm5.612-3.5c0 .957-.001 1.624-.07 2.128-.065.489-.185.748-.37.932l.707.708c.402-.402.574-.907.655-1.507.079-.586.078-1.333.078-2.261h-1zm-3.5 4.5c.928 0 1.675 0 2.26-.078.6-.08 1.106-.253 1.507-.654l-.707-.708c-.184.185-.443.305-.932.371-.504.068-1.171.069-2.128.069v1z" fill="#2563eb"/>
    </svg>
  </g>
  <!-- Icon 26: padding-right-18px -->
  <g transform="translate(436, 272)">
    <rect width="48" height="48" fill="#ffffff" stroke="#e9ecef" stroke-width="1" rx="4"/>
    <svg x="8" y="8" width="32" height="32" viewBox="0 0 24 24">
      <path d="M15.5 5.5v7M8 6h2c.943 0 1.414 0 1.707.293C12 6.586 12 7.057 12 8v2c0 .943 0 1.414-.293 1.707C11.414 12 10.943 12 10 12H8c-.943 0-1.414 0-1.707-.293C6 11.414 6 10.943 6 10V8c0-.943 0-1.414.293-1.707C6.586 6 7.057 6 8 6z" stroke="#2563eb" stroke-linecap="round"/>
    </svg>
  </g>
  <!-- Icon 27: message-bubble-18px -->
  <g transform="translate(496, 272)">
    <rect width="48" height="48" fill="#ffffff" stroke="#e9ecef" stroke-width="1" rx="4"/>
    <svg x="8" y="8" width="32" height="32" viewBox="0 0 24 24">
      <path d="M4.155 12.156l-.331.374.331-.374zm2.678 1.424l-.135.481.135-.481zm-3.52 1.66l-.237.44a.493.493 0 0 0 .073.033l.163-.472zM15 8.626c0 1.492-.65 2.694-1.714 3.536C12.213 13.009 10.704 13.5 9 13.5v1c1.886 0 3.627-.543 4.906-1.555C15.196 11.925 16 10.44 16 8.625h-1zm-12 0C3 6.18 5.545 4.164 9 4.164v-1c-3.725 0-7 2.218-7 5.462h1zm6-4.462c1.727 0 3.241.399 4.309 1.15C14.357 6.048 15 7.14 15 8.624h1c0-1.824-.812-3.214-2.116-4.13C12.599 3.59 10.863 3.162 9 3.162v1zM4.487 11.78C3.554 10.956 3 9.788 3 8.625H2c0 1.475.697 2.908 1.824 3.905l.663-.749zM9 13.5c-.675 0-1.326-.204-2.032-.402l-.27.963c.65.182 1.457.439 2.302.439v-1zm-2.032-.402c-.26-.073-.488.028-.611.096a2.427 2.427 0 0 0-.39.284c-.12.103-.253.226-.381.345-.133.12-.268.244-.41.362-.6.498-1.15.773-1.7.583l-.327.945c1.104.382 2.05-.247 2.666-.76.162-.134.313-.27.447-.393.137-.127.252-.234.357-.323.107-.092.177-.143.22-.167.058-.032-.012.027-.14-.009l.27-.963zM3.55 14.8c.204.11.187.306.187.263 0-.02.01-.086.05-.212.075-.243.214-.564.373-.922.15-.342.32-.72.425-1.032a2.2 2.2 0 0 0 .116-.479c.012-.117.028-.423-.213-.637l-.663.749c-.153-.135-.11-.293-.119-.211a1.33 1.33 0 0 1-.067.257c-.088.26-.235.589-.394.949-.152.343-.317.72-.413 1.029-.047.15-.091.324-.094.489-.003.142.024.469.339.638l.473-.88z" fill="#2563eb"/>
    </svg>
  </g>
  <!-- Icon 28: life-buoy-18px -->
  <g transform="translate(556, 272)">
    <rect width="48" height="48" fill="#ffffff" stroke="#e9ecef" stroke-width="1" rx="4"/>
    <svg x="8" y="8" width="32" height="32" viewBox="0 0 24 24">
      <circle cx="9" cy="9" r="6.5" stroke="#2563eb"/><circle cx="9" cy="9" r="3.5" stroke="#2563eb"/><path d="M6.5 6.5l-2-2m9 9l-2-2m0-5l2-2m-9 9l2-2" stroke="#2563eb"/>
    </svg>
  </g>
  <!-- Icon 29: heart-18px -->
  <g transform="translate(196, 332)">
    <rect width="48" height="48" fill="#ffffff" stroke="#e9ecef" stroke-width="1" rx="4"/>
    <svg x="8" y="8" width="32" height="32" viewBox="0 0 24 24">
      <path d="M12.182 3v-.5h-.03zm-1.825.557l-.255-.43zM5.818 3l.03-.5h-.03zM2 6.77h-.5zM9 15l-.276.417a.5.5 0 0 0 .55.001zm7-8.23h-.5zM9.017 4.858l-.423-.267zm-.034 0l-.423.266zM9 4.876v.5zM12.153 2.5a4.543 4.543 0 0 0-2.051.626l.51.86a3.544 3.544 0 0 1 1.6-.488l-.06-.998zm-2.051.626A4.483 4.483 0 0 0 8.594 4.59l.846.533a3.482 3.482 0 0 1 1.171-1.137l-.51-.86zM9.406 4.59a4.483 4.483 0 0 0-1.508-1.464l-.51.86c.477.283.879.673 1.172 1.137zM7.898 3.127a4.543 4.543 0 0 0-2.05-.626l-.06.998c.567.033 1.115.2 1.6.488zM5.818 2.5c-1.143 0-2.24.448-3.051 1.248l.703.712a3.343 3.343 0 0 1 2.348-.96zM2.767 3.748A4.246 4.246 0 0 0 1.5 6.77h1c0-.865.348-1.696.97-2.31zM1.5 6.77c0 1.052.506 2.119 1.184 3.09.685.982 1.589 1.927 2.478 2.743a31.88 31.88 0 0 0 3.54 2.799l.016.01.004.004h.002L9 15l.276-.417-.004-.003a1.564 1.564 0 0 0-.07-.047 30.169 30.169 0 0 1-.997-.714 30.9 30.9 0 0 1-2.367-1.952c-.86-.791-1.707-1.68-2.334-2.579C2.869 8.38 2.5 7.518 2.5 6.77zM9 15l.274.418h.002c0-.002.002-.002.004-.004l.016-.01.061-.041.228-.156a31.25 31.25 0 0 0 3.252-2.585c.89-.814 1.794-1.757 2.48-2.741.679-.976 1.183-2.049 1.183-3.111h-1c0 .761-.37 1.63-1.004 2.54-.627.9-1.473 1.786-2.334 2.574a30.283 30.283 0 0 1-3.418 2.686l-.014.01a.093.093 0 0 1-.003.001zm7.5-8.23a4.246 4.246 0 0 0-1.267-3.022l-.703.712c.622.614.97 1.445.97 2.31zm-1.267-3.022A4.343 4.343 0 0 0 12.182 2.5v1a3.34 3.34 0 0 1 2.348.96zm-6.639.843c-.012.02.007-.013.034-.045A.49.49 0 0 1 9 4.376v1a.51.51 0 0 0 .428-.233l.012-.019zm-.034.533c0 .002.006.01.012.02A.51.51 0 0 0 9 5.376V4.375a.49.49 0 0 1 .372.17c.027.032.046.065.034.045l-.846.533z" fill="#2563eb"/>
    </svg>
  </g>
  <!-- Icon 30: flame-18px -->
  <g transform="translate(256, 332)">
    <rect width="48" height="48" fill="#ffffff" stroke="#e9ecef" stroke-width="1" rx="4"/>
    <svg x="8" y="8" width="32" height="32" viewBox="0 0 24 24">
      <path d="M5.354 15.5c-.54-.539-2.26-1.862-1.62-3.5.766-1.961.24-3.157 0-4.115-.294-1.168 2.16 1.615 3.242 2.154.54.269-.54-2.154.54-3.77 1.08-1.615.54-1.825.54-3.769.9.18 3.458 1.077 2.162 5.385-1.621 5.384.872-1.682 3.242-2.154 2.701-.539-1.282 1.95.54 5.384C15 13 13.5 15 12.5 15.5" stroke="#2563eb" stroke-linecap="round" stroke-linejoin="round"/>
    </svg>
  </g>
  <!-- Icon 31: document-video-18px -->
  <g transform="translate(316, 332)">
    <rect width="48" height="48" fill="#ffffff" stroke="#e9ecef" stroke-width="1" rx="4"/>
    <svg x="8" y="8" width="32" height="32" viewBox="0 0 24 24">
      <clipPath id="a"><path d="M0 0h18v18H0z"/></clipPath><g clip-path="url(#a)"><path d="M13.421 5.447l-.46.195zm-2.95-2.874l.187-.463-.188.463zm2.736 12.634l.354.354zm-8.414 0l.353-.353zM5 13.5v-9H4v9zm6.5 1.5h-5v1h5zm-5-12h3.189V2H6.5zM13 6.26v7.24h1V6.26zm-2.266-2.836l1.811 1.76.697-.718-1.812-1.76zM14 6.259c0-.375.01-.705-.118-1.007l-.921.39c.03.071.039.159.039.617zm-1.455-1.076c.33.32.385.387.415.459l.922-.39c-.128-.301-.371-.525-.64-.786zM9.69 3c.44 0 .524.009.593.037l.376-.927c-.292-.119-.609-.11-.97-.11v1zm1.741-.293c-.258-.252-.48-.478-.772-.597l-.376.927c.07.028.136.08.452.387zM11.5 16c.457 0 .85.001 1.164-.041.328-.044.642-.143.897-.398l-.707-.707c-.038.038-.106.085-.323.114-.232.03-.546.032-1.031.032zm1.5-2.5c0 .486-.001.8-.032 1.03-.03.218-.076.286-.114.324l.707.707c.255-.255.354-.57.398-.897C14 14.35 14 13.957 14 13.5zm-9 0c0 .457-.001.85.041 1.164.044.328.144.642.398.897l.707-.707c-.038-.038-.085-.106-.114-.323C5.002 14.299 5 13.985 5 13.5zM6.5 15c-.486 0-.8-.001-1.03-.032-.218-.03-.285-.076-.324-.114l-.707.707c.255.255.57.354.897.398C5.65 16 6.043 16 6.5 16zM5 4.5c0-.486.001-.8.032-1.03.03-.218.076-.285.114-.324L4.44 2.44c-.254.255-.354.57-.398.897C4 3.65 4 4.043 4 4.5zM6.5 2c-.457 0-.85-.001-1.164.041-.328.044-.642.144-.897.398l.707.707c.039-.038.106-.085.323-.114C5.701 3.002 6.014 3 6.5 3z" fill="none"/><path d="M10.5 3v1c0 .943 0 1.414.293 1.707S11.557 6 12.5 6h1" stroke="#2563eb"/><path d="M7.758 7.965l-.243-.438zm0 4.07L8 11.598zm2.385-1.187l-.265-.424zM8.765 8.88l1.113.696.53-.848-1.113-.696zm1.113 1.544l-1.113.696.53.848 1.113-.696zM8 10.696V9.304H7v1.392zm1.295-2.664c-.324-.202-.615-.386-.858-.492-.246-.107-.585-.2-.922-.013L8 8.402c-.08.044-.12-.014.037.055.159.07.375.203.728.423zM8 9.304c0-.416.001-.67.027-.842.025-.17.053-.104-.027-.06l-.485-.875c-.337.187-.438.523-.477.789-.04.262-.038.606-.038.988zm.765 1.816c-.353.22-.569.354-.728.423-.157.069-.117.01-.037.055l-.485.874c.337.187.676.095.922-.012.243-.106.534-.29.858-.492zM7 10.696c0 .382-.001.726.038.988.039.266.14.602.477.789L8 11.598c.08.044.052.11.027-.06C8 11.366 8 11.112 8 10.696zm2.878-1.12c.319.2.509.32.626.42.111.094.053.084.053.004h1c0-.357-.211-.601-.404-.766-.188-.16-.455-.325-.745-.506zm.53 1.696c.29-.181.557-.347.745-.506.193-.165.404-.409.404-.766h-1c0-.08.058-.09-.053.005-.117.1-.307.22-.626.419z" fill="none"/></g>
    </svg>
  </g>
  <!-- Icon 32: close-18px -->
  <g transform="translate(376, 332)">
    <rect width="48" height="48" fill="#ffffff" stroke="#e9ecef" stroke-width="1" rx="4"/>
    <svg x="8" y="8" width="32" height="32" viewBox="0 0 24 24">
      <path d="M4 4l10 10m0-10L4 14" stroke="#2563eb" stroke-linecap="round" stroke-linejoin="round"/>
    </svg>
  </g>
  <!-- Icon 33: chevron-left-18px -->
  <g transform="translate(436, 332)">
    <rect width="48" height="48" fill="#ffffff" stroke="#e9ecef" stroke-width="1" rx="4"/>
    <svg x="8" y="8" width="32" height="32" viewBox="0 0 24 24">
      <clipPath id="a"><path d="M0 0h18v18H0z"/></clipPath><clipPath id="b"><path d="M0 0h18v18H0z" transform="rotate(-90 9 9)"/></clipPath><g clip-path="url(#a)"><g clip-path="url(#b)"><path d="M11.5 4L7.914 7.586c-.666.666-1 1-1 1.414s.334.748 1 1.414L11.5 14" stroke="#2563eb" stroke-linecap="round" stroke-linejoin="round"/></g></g>
    </svg>
  </g>
  <!-- Icon 34: brightness-up-18px -->
  <g transform="translate(496, 332)">
    <rect width="48" height="48" fill="#ffffff" stroke="#e9ecef" stroke-width="1" rx="4"/>
    <svg x="8" y="8" width="32" height="32" viewBox="0 0 24 24">
      <circle cx="9" cy="9" r="3" stroke="#2563eb"/><path d="M9 3.583V2.5m0 13v-1.083M3.583 9H2.5m13 0h-1.083m-.723-4.694l-.722.722m-7.944 7.944l-.722.722m8.666-.722l.722.722M5.028 5.028l-.722-.722" stroke="#2563eb" stroke-linecap="round"/>
    </svg>
  </g>
  <!-- Icon 35: battery-horizontal-medium-18px -->
  <g transform="translate(556, 332)">
    <rect width="48" height="48" fill="#ffffff" stroke="#e9ecef" stroke-width="1" rx="4"/>
    <svg x="8" y="8" width="32" height="32" viewBox="0 0 24 24">
      <g stroke="#2563eb" stroke-linecap="round" stroke-linejoin="round"><path d="M3 8.5c0-1.414 0-2.121.44-2.56C3.878 5.5 4.585 5.5 6 5.5h5c1.414 0 2.121 0 2.56.44.44.439.44 1.146.44 2.56v1c0 1.414 0 2.121-.44 2.56-.439.44-1.146.44-2.56.44H6c-1.414 0-2.121 0-2.56-.44C3 11.622 3 10.915 3 9.5z"/><path d="M14 9.6V8.4c0-.22.18-.4.4-.4a.6.6 0 0 1 .6.6v.8a.6.6 0 0 1-.6.6.4.4 0 0 1-.4-.4z" fill="none"/><path d="M5.5 7.5v3m3-3v3"/></g>
    </svg>
  </g>
  
  <!-- Footer -->
  <text x="400" y="580" text-anchor="middle" font-family="system-ui, -apple-system, sans-serif" font-size="12" fill="#6c757d">
    Showing 35 of 758 icons
  </text>
  
</svg>