<svg width="800" height="600" xmlns="http://www.w3.org/2000/svg">
  <!-- Background -->
  <rect width="800" height="600" fill="#ffffff"/>
  
  <!-- Header Background -->
  <rect width="800" height="80" fill="#f8f9fa"/>
  
  <!-- Title -->
  <text x="400" y="30" text-anchor="middle" font-family="system-ui, -apple-system, sans-serif" font-size="20" font-weight="bold" fill="#212529">Icon Brew</text>
  
  <!-- Subtitle -->
  <text x="400" y="55" text-anchor="middle" font-family="system-ui, -apple-system, sans-serif" font-size="14" fill="#6c757d">758 icons</text>
  
  <!-- Icon Grid -->
  <!-- Icon 1: h3-24px -->
  <g transform="translate(196, 92)">
    <rect width="48" height="48" fill="#ffffff" stroke="#e9ecef" stroke-width="1" rx="4"/>
    <svg x="8" y="8" width="32" height="32" viewBox="0 0 24 24">
      <path d="M2.001 21.255c0-.287.232-.52.519-.52h.315c.461 0 .835-.373.835-.834V7.211a1 1 0 0 0-.827-.984l-.451-.08a.472.472 0 1 1-.005-.93l1.949-.361a1 1 0 0 1 1.183.983v5.981c0 .03.024.054.053.054a.055.055 0 0 0 .05-.034c.09-.215.221-.436.393-.665.18-.24.406-.459.676-.654.286-.195.498-.357.86-.478.375-.12.612-.176 1.078-.176 1.398 0 2.397.368 2.999 1.105.6.721.902 1.811.902 3.27v5.66c0 .46.373.834.834.834h.316a.519.519 0 0 1 0 1.037H9.53a.519.519 0 1 1 0-1.037h.316c.461 0 .835-.374.835-.835V14.4c0-1.097-.218-1.909-.654-2.435-.436-.541-.833-.812-1.78-.812-.33 0-.661.046-.992.136a2.81 2.81 0 0 0-.88.428 2.431 2.431 0 0 0-.63.722c-.151.285-.226.624-.226 1.014v6.45c0 .46.373.834.834.834h.316a.519.519 0 0 1 0 1.037h-4.15a.519.519 0 0 1-.518-.518z" fill="none" stroke="#2563eb" stroke-width="2"/><path d="M15.839 12.819a1 1 0 1 0 1.307 1.513L15.84 12.82zm5.153 1.835h-1 1zm-3.447 2.106l-.12-.993a1 1 0 0 0 .067 1.991l.053-.998zm-.185 2.661a1 1 0 0 0-1.736.993l1.736-.993zm2.632-4.767c0 .286-.093.444-.224.567-.16.15-.42.284-.768.38a4.74 4.74 0 0 1-.974.153 5.281 5.281 0 0 1-.411.008h-.018l-.002-.001h.002l-.052.999-.052.998h.007a.741.741 0 0 0 .053.003l.135.002c.112 0 .268-.002.453-.012a6.722 6.722 0 0 0 1.396-.223c.514-.143 1.117-.393 1.603-.852.515-.486.852-1.163.852-2.022h-2zm-2.447 2.106l.12.992h-.003.017a4.2 4.2 0 0 1 .395-.014c.271.002.61.03.93.118.323.089.565.221.72.387.134.143.268.379.268.832h2c0-.914-.296-1.652-.808-2.199-.492-.525-1.112-.8-1.65-.949a5.743 5.743 0 0 0-1.44-.19 6.225 6.225 0 0 0-.661.029h-.005-.002l-.001.001.12.993zm2.447 2.315c0 .381-.302.787-1.03.917-.727.13-1.352-.134-1.602-.57l-1.736.992c.803 1.403 2.429 1.772 3.69 1.547 1.258-.225 2.678-1.161 2.678-2.886h-2zm-2.846-4.743c.638-.55 1.444-.71 2.035-.582.29.063.49.185.612.32.111.123.2.301.2.584h2c0-.756-.258-1.42-.718-1.928-.451-.497-1.05-.796-1.669-.93-1.225-.267-2.668.074-3.767 1.023l1.307 1.513z" fill="none"/>
    </svg>
  </g>
  <!-- Icon 2: triangle-with-blocks-18px -->
  <g transform="translate(256, 92)">
    <rect width="48" height="48" fill="#ffffff" stroke="#e9ecef" stroke-width="1" rx="4"/>
    <svg x="8" y="8" width="32" height="32" viewBox="0 0 24 24">
      <path d="M13.5 11.5l-3-5m1 7.5h-5m-2-2.5l3-5m-5 7c0-.943 0-1.414.293-1.707S3.557 11.5 4.5 11.5s1.414 0 1.707.293.293.764.293 1.707 0 1.414-.293 1.707-.764.293-1.707.293-1.414 0-1.707-.293S2.5 14.443 2.5 13.5zm9 0c0-.943 0-1.414.293-1.707s.764-.293 1.707-.293 1.414 0 1.707.293.293.764.293 1.707 0 1.414-.293 1.707-.764.293-1.707.293-1.414 0-1.707-.293-.293-.764-.293-1.707zM7 4.5c0-.943 0-1.414.293-1.707S8.057 2.5 9 2.5s1.414 0 1.707.293S11 3.557 11 4.5s0 1.414-.293 1.707S9.943 6.5 9 6.5s-1.414 0-1.707-.293S7 5.443 7 4.5z" stroke="#2563eb"/>
    </svg>
  </g>
  <!-- Icon 3: tray-18px -->
  <g transform="translate(316, 92)">
    <rect width="48" height="48" fill="#ffffff" stroke="#e9ecef" stroke-width="1" rx="4"/>
    <svg x="8" y="8" width="32" height="32" viewBox="0 0 24 24">
      <g stroke="#2563eb"><path d="M2.5 9h3.513c.253 0 .38 0 .502.03l.049.015c.12.037.228.103.444.236.921.563 1.382.845 1.89.871.068.004.136.004.204 0 .508-.026.969-.308 1.89-.871.216-.133.324-.2.444-.236a.986.986 0 0 1 .05-.014c.12-.031.247-.031.502-.031H15.5v3.5c0 .943 0 1.414-.293 1.707s-.764.293-1.707.293h-9c-.943 0-1.414 0-1.707-.293S2.5 13.443 2.5 12.5z"/><path d="M2.5 10.5V8.167c0-.33 0-.496.051-.65.052-.154.15-.286.349-.55l2-2.667c.294-.393.442-.589.653-.694.21-.106.456-.106.947-.106h5c.49 0 .736 0 .947.106.211.105.359.301.653.694l2 2.667c.198.264.297.396.349.55.051.154.051.32.051.65V10.5"/></g>
    </svg>
  </g>
  <!-- Icon 4: tab-bottom-18px -->
  <g transform="translate(376, 92)">
    <rect width="48" height="48" fill="#ffffff" stroke="#e9ecef" stroke-width="1" rx="4"/>
    <svg x="8" y="8" width="32" height="32" viewBox="0 0 24 24">
      <path d="M9 2.5v13m0 0l-6-6m6 6l6-6m0 6H3" stroke="#2563eb" stroke-linecap="round" stroke-linejoin="round"/>
    </svg>
  </g>
  <!-- Icon 5: shopping-cart-full-18px -->
  <g transform="translate(436, 92)">
    <rect width="48" height="48" fill="#ffffff" stroke="#e9ecef" stroke-width="1" rx="4"/>
    <svg x="8" y="8" width="32" height="32" viewBox="0 0 24 24">
      <clipPath id="a"><path d="M0 0h18v18H0z"/></clipPath><g stroke="#2563eb" stroke-linecap="round" stroke-linejoin="round"><g clip-path="url(#a)"><path d="M7.5 15a.5.5 0 1 1-1 0 .5.5 0 0 1 1 0zm6.5 0a.5.5 0 1 1-1 0 .5.5 0 0 1 1 0z" fill="none"/><path d="M14.486 12.499H7.097c-.808 0-1.212 0-1.492-.237-.28-.236-.346-.635-.48-1.431l-.953-5.664c-.134-.797-.2-1.195-.48-1.432C3.412 3.5 3.008 3.5 2.2 3.5H2m2.162 1.508l9.358-.006c1.146 0 1.718 0 2.019.372.3.372.179.931-.063 2.051l-.27 1.25c-.164.756-.245 1.134-.52 1.356-.275.221-.662.221-1.435.221H5.027"/></g><path d="M9.5 2c-2.636 0-5 .5-5 3H14c0-2.5-1.864-3-4.5-3z"/></g>
    </svg>
  </g>
  <!-- Icon 6: return-down-18px -->
  <g transform="translate(496, 92)">
    <rect width="48" height="48" fill="#ffffff" stroke="#e9ecef" stroke-width="1" rx="4"/>
    <svg x="8" y="8" width="32" height="32" viewBox="0 0 24 24">
      <clipPath id="a"><path d="M0 0h18v18H0z"/></clipPath><clipPath id="b"><path d="M0 0h18v18H0z" transform="rotate(-90 9 9)"/></clipPath><g clip-path="url(#a)"><g clip-path="url(#b)"><path d="M9.5 15.513v-11c0-.942 0-1.414-.293-1.707s-.764-.293-1.707-.293h-1c-.943 0-1.414 0-1.707.293C4.5 3.1 4.5 3.571 4.5 4.513v2.27m5 8.73l4-3.513m-4 3.513L5.5 12" stroke="#2563eb" stroke-linecap="round" stroke-linejoin="round"/></g></g>
    </svg>
  </g>
  <!-- Icon 7: power-18px -->
  <g transform="translate(556, 92)">
    <rect width="48" height="48" fill="#ffffff" stroke="#e9ecef" stroke-width="1" rx="4"/>
    <svg x="8" y="8" width="32" height="32" viewBox="0 0 24 24">
      <path d="M9.5 2.5a.5.5 0 0 0-1 0zM8.5 8a.5.5 0 0 0 1 0zm1 0V2.5h-1V8z" fill="none"/><path d="M4.585 4.506a6.3 6.3 0 1 0 8.83 0" stroke="#2563eb" stroke-linecap="round"/>
    </svg>
  </g>
  <!-- Icon 8: padding-left-18px -->
  <g transform="translate(196, 152)">
    <rect width="48" height="48" fill="#ffffff" stroke="#e9ecef" stroke-width="1" rx="4"/>
    <svg x="8" y="8" width="32" height="32" viewBox="0 0 24 24">
      <path d="M2.5 5.5v7M8 6h2c.943 0 1.414 0 1.707.293C12 6.586 12 7.057 12 8v2c0 .943 0 1.414-.293 1.707C11.414 12 10.943 12 10 12H8c-.943 0-1.414 0-1.707-.293C6 11.414 6 10.943 6 10V8c0-.943 0-1.414.293-1.707C6.586 6 7.057 6 8 6z" stroke="#2563eb" stroke-linecap="round"/>
    </svg>
  </g>
  <!-- Icon 9: medical-18px -->
  <g transform="translate(256, 152)">
    <rect width="48" height="48" fill="#ffffff" stroke="#e9ecef" stroke-width="1" rx="4"/>
    <svg x="8" y="8" width="32" height="32" viewBox="0 0 24 24">
      <path d="M12.224 3v-.5l-.03.001zm-4.599.603l-.267.423zM5.775 3l.032-.499a.495.495 0 0 0-.031-.001V3zM2 7.105h-.5zM9 16l-.29.407a.5.5 0 0 0 .577.003zm6.5-8.895a.5.5 0 0 0 1 0zm-2.136 5.807a.5.5 0 0 0-.718-.696l.718.697zm-4.347-7.89l-.43-.253.43.254zm-.034 0l-.431.255.43-.254zm.017.02v-.5zm3.193-2.541a4.409 4.409 0 0 0-2.086.68l.535.845a3.409 3.409 0 0 1 1.614-.527zm-2.086.68a4.704 4.704 0 0 0-1.52 1.588l.861.508a3.704 3.704 0 0 1 1.194-1.251zm-.694 1.588a4.704 4.704 0 0 0-1.52-1.588l-.535.845c.48.304.891.737 1.194 1.25zM7.893 3.18a4.409 4.409 0 0 0-2.086-.68l-.062.998a3.409 3.409 0 0 1 1.613.527zM5.776 2.5c-1.168 0-2.282.49-3.1 1.352l.727.688A3.269 3.269 0 0 1 5.776 3.5zm-3.1 1.352C1.84 4.736 1.5 5.932 1.5 7.105h1c0-.993.289-1.917.903-2.565l-.726-.688zM1.5 7.105c0 1.116.496 2.257 1.174 3.306.683 1.059 1.585 2.077 2.474 2.96a32.435 32.435 0 0 0 3.555 3.031l.005.004a.02.02 0 0 0 .001 0L9 16l.29-.407-.003-.003a1.757 1.757 0 0 1-.07-.05 30.264 30.264 0 0 1-.997-.77 31.445 31.445 0 0 1-2.368-2.11c-.861-.854-1.709-1.816-2.338-2.79C2.879 8.885 2.5 7.94 2.5 7.104h-1zm15 0c0-1.172-.34-2.37-1.177-3.253l-.726.688c.614.648.903 1.572.903 2.565zm-1.177-3.253A4.268 4.268 0 0 0 12.224 2.5v1c.885 0 1.739.37 2.373 1.04zM9 16l.287.41.002-.002.005-.004.02-.013a21.27 21.27 0 0 0 .341-.25c.23-.17.557-.42.944-.73a30.81 30.81 0 0 0 2.765-2.498l-.718-.697a29.806 29.806 0 0 1-2.674 2.416 31.019 31.019 0 0 1-1.17.896l-.067.047a2.534 2.534 0 0 1-.02.015h-.002zM8.587 4.769c-.013.02.006-.013.032-.045A.49.49 0 0 1 9 4.543v1a.51.51 0 0 0 .436-.246l.012-.02zm-.035.508l.012.02A.51.51 0 0 0 9 5.543v-1a.49.49 0 0 1 .381.181c.026.032.045.066.032.045zm-2.736 5.026a.5.5 0 1 0 .894.447zm1.816-2.514l.4-.3a.5.5 0 0 0-.848.077zm2.052 2.737l-.4.3a.5.5 0 0 0 .754.054zm1.369-1.368l.353-.354a.5.5 0 0 0-.707 0zm1.368 1.368l-.353.354a.5.5 0 0 0 .653.046zM15.842 10a.5.5 0 1 0 0-1zm-2.035-.449l-.159-.474zM6.71 10.75l1.37-2.737-.895-.447-1.368 2.737.894.447zm.522-2.66l2.052 2.736.8-.6L8.032 7.49zm2.806 2.79l1.368-1.369-.707-.707-1.368 1.369zm.661-1.369l1.369 1.369.707-.707-1.369-1.369zm2.022 1.415l.835-.626-.6-.8-.835.626zM14.456 10h1.386V9h-1.386zm-.9.3c.29-.218.35-.255.409-.274l-.316-.949c-.25.083-.454.244-.693.423zm.9-1.3c-.298 0-.559-.006-.807.077l.316.949c.059-.02.129-.026.491-.026z" fill="#2563eb"/>
    </svg>
  </g>
  <!-- Icon 10: layout-top-18px -->
  <g transform="translate(316, 152)">
    <rect width="48" height="48" fill="#ffffff" stroke="#e9ecef" stroke-width="1" rx="4"/>
    <svg x="8" y="8" width="32" height="32" viewBox="0 0 24 24">
      <path d="M5.5 5h7M6.25 2.528h5c1.886 0 2.828 0 3.414.586.586.585.586 1.528.586 3.414v5c0 1.885 0 2.828-.586 3.414-.586.586-1.528.586-3.414.586h-5c-1.886 0-2.828 0-3.414-.586-.586-.586-.586-1.529-.586-3.414v-5c0-1.886 0-2.829.586-3.414.586-.586 1.528-.586 3.414-.586z" stroke="#2563eb" stroke-linecap="round"/>
    </svg>
  </g>
  <!-- Icon 11: health-and-fitness-18px -->
  <g transform="translate(376, 152)">
    <rect width="48" height="48" fill="#ffffff" stroke="#e9ecef" stroke-width="1" rx="4"/>
    <svg x="8" y="8" width="32" height="32" viewBox="0 0 24 24">
      <path d="M8.896 2.5C12.543 2.5 15.5 5.41 15.5 9s-2.957 6.5-6.604 6.5c-3.077 0-5.663-2.072-6.396-4.875M9 4.938a4.062 4.062 0 1 1-3.96 3.148M7.375 9A1.625 1.625 0 1 0 9 7.375" stroke="#2563eb" stroke-linecap="round"/>
    </svg>
  </g>
  <!-- Icon 12: flag-18px -->
  <g transform="translate(436, 152)">
    <rect width="48" height="48" fill="#ffffff" stroke="#e9ecef" stroke-width="1" rx="4"/>
    <svg x="8" y="8" width="32" height="32" viewBox="0 0 24 24">
      <path d="M5 15.5v-7m0 0v-4c0-.943 0-1.414.293-1.707S6.057 2.5 7 2.5h4.865c.924 0 1.385 0 1.52.288s-.16.643-.752 1.352l-.6.72c-.255.306-.382.459-.382.64s.127.334.383.64l.6.72c.59.71.886 1.064.751 1.352s-.596.288-1.52.288z" stroke="#2563eb" stroke-linecap="round" stroke-linejoin="round"/>
    </svg>
  </g>
  <!-- Icon 13: document-text-18px -->
  <g transform="translate(496, 152)">
    <rect width="48" height="48" fill="#ffffff" stroke="#e9ecef" stroke-width="1" rx="4"/>
    <svg x="8" y="8" width="32" height="32" viewBox="0 0 24 24">
      <clipPath id="a"><path d="M0 0h18v18H0z"/></clipPath><g clip-path="url(#a)"><path d="M13.421 5.447l-.46.195zm-2.95-2.874l.187-.463-.188.463zm2.736 12.634l.354.354zm-8.414 0l.353-.353zM5 13.5v-9H4v9zm6.5 1.5h-5v1h5zm-5-12h3.189V2H6.5zM13 6.26v7.24h1V6.26zm-2.266-2.836l1.811 1.76.697-.718-1.812-1.76zM14 6.259c0-.375.01-.705-.118-1.007l-.921.39c.03.071.039.159.039.617zm-1.455-1.076c.33.32.385.387.415.459l.922-.39c-.128-.301-.371-.525-.64-.786zM9.69 3c.44 0 .524.009.593.037l.376-.927c-.292-.119-.609-.11-.97-.11v1zm1.741-.293c-.258-.252-.48-.478-.772-.597l-.376.927c.07.028.136.08.452.387zM11.5 16c.457 0 .85.001 1.164-.041.328-.044.642-.143.897-.398l-.707-.707c-.038.038-.106.085-.323.114-.232.03-.546.032-1.031.032zm1.5-2.5c0 .486-.001.8-.032 1.03-.03.218-.076.286-.114.324l.707.707c.255-.255.354-.57.398-.897C14 14.35 14 13.957 14 13.5zm-9 0c0 .457-.001.85.041 1.164.044.328.144.642.398.897l.707-.707c-.038-.038-.085-.106-.114-.323C5.002 14.299 5 13.985 5 13.5zM6.5 15c-.486 0-.8-.001-1.03-.032-.218-.03-.285-.076-.324-.114l-.707.707c.255.255.57.354.897.398C5.65 16 6.043 16 6.5 16zM5 4.5c0-.486.001-.8.032-1.03.03-.218.076-.285.114-.324L4.44 2.44c-.254.255-.354.57-.398.897C4 3.65 4 4.043 4 4.5zM6.5 2c-.457 0-.85-.001-1.164.041-.328.044-.642.144-.897.398l.707.707c.039-.038.106-.085.323-.114C5.701 3.002 6.014 3 6.5 3z" fill="none"/><g stroke="#2563eb"><path d="M10.5 3v1c0 .943 0 1.414.293 1.707S11.557 6 12.5 6h1"/><path d="M7 13h3M7 9.5h5M7 6h1.5" stroke-linecap="round" stroke-linejoin="round"/></g></g>
    </svg>
  </g>
  <!-- Icon 14: clock-18px -->
  <g transform="translate(556, 152)">
    <rect width="48" height="48" fill="#ffffff" stroke="#e9ecef" stroke-width="1" rx="4"/>
    <svg x="8" y="8" width="32" height="32" viewBox="0 0 24 24">
      <path d="M15.5 9a6.5 6.5 0 1 1-13 0 6.5 6.5 0 0 1 13 0z" stroke="#2563eb"/><path d="M9 8.889V6m0 3H5.389" stroke="#2563eb" stroke-linecap="round"/>
    </svg>
  </g>
  <!-- Icon 15: chevron-down-18px -->
  <g transform="translate(196, 212)">
    <rect width="48" height="48" fill="#ffffff" stroke="#e9ecef" stroke-width="1" rx="4"/>
    <svg x="8" y="8" width="32" height="32" viewBox="0 0 24 24">
      <clipPath id="a"><path d="M0 0h18v18H0z"/></clipPath><clipPath id="b"><path d="M0 0h18v18H0z" transform="rotate(180 9 9)"/></clipPath><g clip-path="url(#a)"><g clip-path="url(#b)"><path d="M4 6.5l3.586 3.586c.666.666 1 1 1.414 1s.748-.334 1.414-1L14 6.5" stroke="#2563eb" stroke-linecap="round" stroke-linejoin="round"/></g></g>
    </svg>
  </g>
  <!-- Icon 16: brightness-down-18px -->
  <g transform="translate(256, 212)">
    <rect width="48" height="48" fill="#ffffff" stroke="#e9ecef" stroke-width="1" rx="4"/>
    <svg x="8" y="8" width="32" height="32" viewBox="0 0 24 24">
      <circle cx="9" cy="9" r="3" stroke="#2563eb"/><path d="M5.559 13.206a.765.765 0 1 1-1.53 0 .765.765 0 0 1 1.53 0zM4.029 9A.765.765 0 1 1 2.5 9a.765.765 0 0 1 1.53 0zm1.53-4.206a.765.765 0 1 1-1.53 0 .765.765 0 0 1 1.53 0zm4.206-1.53a.765.765 0 1 1-1.53 0 .765.765 0 0 1 1.53 0zm4.206 1.53a.765.765 0 1 1-1.53 0 .765.765 0 0 1 1.53 0zM15.5 9a.765.765 0 1 1-1.53 0 .765.765 0 0 1 1.53 0zm-1.53 4.206a.765.765 0 1 1-1.529 0 .765.765 0 0 1 1.53 0zm-4.205 1.53a.765.765 0 1 1-1.53 0 .765.765 0 0 1 1.53 0z" fill="none"/>
    </svg>
  </g>
  <!-- Icon 17: battery-horizontal-low-18px -->
  <g transform="translate(316, 212)">
    <rect width="48" height="48" fill="#ffffff" stroke="#e9ecef" stroke-width="1" rx="4"/>
    <svg x="8" y="8" width="32" height="32" viewBox="0 0 24 24">
      <g stroke="#2563eb" stroke-linecap="round" stroke-linejoin="round"><path d="M3 8.5c0-1.414 0-2.121.44-2.56C3.878 5.5 4.585 5.5 6 5.5h5c1.414 0 2.121 0 2.56.44.44.439.44 1.146.44 2.56v1c0 1.414 0 2.121-.44 2.56-.439.44-1.146.44-2.56.44H6c-1.414 0-2.121 0-2.56-.44C3 11.622 3 10.915 3 9.5z"/><path d="M14 9.6V8.4c0-.22.18-.4.4-.4a.6.6 0 0 1 .6.6v.8a.6.6 0 0 1-.6.6.4.4 0 0 1-.4-.4z" fill="none"/><path d="M5.5 7.5v3"/></g>
    </svg>
  </g>
  <!-- Icon 18: arrow-circle-forward-fiveteen-18px -->
  <g transform="translate(376, 212)">
    <rect width="48" height="48" fill="#ffffff" stroke="#e9ecef" stroke-width="1" rx="4"/>
    <svg x="8" y="8" width="32" height="32" viewBox="0 0 24 24">
      <g stroke="#2563eb" stroke-linecap="round" stroke-linejoin="round"><path d="M14.5 10c0 2.974-2.462 5.5-5.5 5.5S3.5 12.975 3.5 10c0-2.974 2.462-5.5 5.5-5.5h5m0 0l-2.072-2M14 4.5l-2.072 2"/><path d="M7.517 12V8L6.5 9m5-1H9.3l-.424 2.095c.424-.254.529-.428 1.353-.428S11.5 10 11.5 11s-.825 1-1.271 1c-.447 0-1.356 0-1.356-.667" stroke-width="2"/></g>
    </svg>
  </g>
  <!-- Icon 19: airplay-18px -->
  <g transform="translate(436, 212)">
    <rect width="48" height="48" fill="#ffffff" stroke="#e9ecef" stroke-width="1" rx="4"/>
    <svg x="8" y="8" width="32" height="32" viewBox="0 0 24 24">
      <g stroke="#2563eb"><path d="M5 13h-.5c-.943 0-1.414 0-1.707-.293S2.5 11.943 2.5 11V5c0-.943 0-1.414.293-1.707S3.557 3 4.5 3h9c.943 0 1.414 0 1.707.293S15.5 4.057 15.5 5v6c0 .943 0 1.414-.293 1.707S14.443 13 13.5 13H13" stroke-linecap="round"/><path d="M7.8 12.6c.361-.482.542-.722.753-.828a1 1 0 0 1 .894 0c.211.106.392.346.753.828.514.685.77 1.027.796 1.31a1 1 0 0 1-.47.94C10.284 15 9.856 15 9 15s-1.284 0-1.526-.15a1 1 0 0 1-.47-.94c.026-.283.282-.625.796-1.31z"/></g>
    </svg>
  </g>
  <!-- Icon 20: truck-24px -->
  <g transform="translate(496, 212)">
    <rect width="48" height="48" fill="#ffffff" stroke="#e9ecef" stroke-width="1" rx="4"/>
    <svg x="8" y="8" width="32" height="32" viewBox="0 0 24 24">
      <path d="M3 9c0-1.886 0-2.828.586-3.414S5.114 5 7 5h2c1.886 0 2.828 0 3.414.586S13 7.114 13 9v3c0 1.886 0 2.828-.586 3.414S10.886 16 9 16H7c-1.886 0-2.828 0-3.414-.586S3 13.886 3 12zm10-1h2.908c.953 0 1.43 0 1.843.2.414.201.709.576 1.299 1.325l1.313 1.666c.206.261.308.392.387.534.111.2.187.42.224.646.026.16.026.326.026.659 0 .904 0 1.356-.143 1.714a2 2 0 0 1-1.113 1.113c-.358.143-.81.143-1.714.143H17c-1.886 0-2.828 0-3.414-.586S13 13.886 13 12zm7 8a3 3 0 1 1-6 0h-4a3 3 0 1 1-6 0" stroke="#2563eb" stroke-width="2"/>
    </svg>
  </g>
  <!-- Icon 21: tray-and-arrow-down-24px -->
  <g transform="translate(556, 212)">
    <rect width="48" height="48" fill="#ffffff" stroke="#e9ecef" stroke-width="1" rx="4"/>
    <svg x="8" y="8" width="32" height="32" viewBox="0 0 24 24">
      <g stroke="#2563eb" stroke-linecap="round" stroke-width="2"><path d="M12 3v12.5m0 0l-5-4.701m5 4.701l5-4.701" stroke-linejoin="round"/><path d="M3 14v3c0 1.886 0 2.828.586 3.414C4.172 21 5.114 21 7 21h10c1.886 0 2.828 0 3.414-.586S21 18.886 21 17v-3"/></g>
    </svg>
  </g>
  <!-- Icon 22: tab-left-24px -->
  <g transform="translate(196, 272)">
    <rect width="48" height="48" fill="#ffffff" stroke="#e9ecef" stroke-width="1" rx="4"/>
    <svg x="8" y="8" width="32" height="32" viewBox="0 0 24 24">
      <clipPath id="a"><path d="M0 0h24v24H0z"/></clipPath><g clip-path="url(#a)"><path d="M21 12H3m0 0l9-9m-9 9l9 9m-9 0V3" stroke="#2563eb" stroke-linecap="round" stroke-linejoin="round" stroke-width="2"/></g>
    </svg>
  </g>
  <!-- Icon 23: side-bar-left-24px -->
  <g transform="translate(256, 272)">
    <rect width="48" height="48" fill="#ffffff" stroke="#e9ecef" stroke-width="1" rx="4"/>
    <svg x="8" y="8" width="32" height="32" viewBox="0 0 24 24">
      <path d="M16 4H7c-1.442 0-2.424.002-3.159.1-.706.096-1.033.263-1.255.486-.223.222-.39.55-.485 1.255C2.002 6.576 2 7.558 2 9v6c0 1.442.002 2.424.1 3.159.096.706.263 1.033.486 1.255.222.223.55.39 1.255.485C4.576 19.998 5.558 20 7 20h9c1.442 0 2.424-.002 3.159-.1.706-.096 1.033-.263 1.255-.486.223-.222.39-.55.485-1.255.099-.735.101-1.716.101-3.159V9c0-1.442-.002-2.424-.1-3.159-.096-.706-.263-1.033-.486-1.255-.222-.223-.55-.39-1.255-.485C18.424 4.002 17.443 4 16 4z" stroke="#2563eb" stroke-width="2"/><path d="M9 4v16" stroke="#2563eb" stroke-width="2" stroke-linecap="round" stroke-linejoin="round"/><path d="M6 10H5m1 3H5m1-6H5" stroke="#2563eb" stroke-width="2" stroke-linecap="round" stroke-linejoin="round"/>
    </svg>
  </g>
  <!-- Icon 24: return-left-24px -->
  <g transform="translate(316, 272)">
    <rect width="48" height="48" fill="#ffffff" stroke="#e9ecef" stroke-width="1" rx="4"/>
    <svg x="8" y="8" width="32" height="32" viewBox="0 0 24 24">
      <path d="M2.5 13H17c1.886 0 2.828 0 3.414-.586S21 10.886 21 9s0-2.828-.586-3.414S18.886 5 17 5h-2.5m-12 8l5 6m-5-6l5-6" stroke="#2563eb" stroke-linecap="round" stroke-linejoin="round" stroke-width="2"/>
    </svg>
  </g>
  <!-- Icon 25: presentation-24px -->
  <g transform="translate(376, 272)">
    <rect width="48" height="48" fill="#ffffff" stroke="#e9ecef" stroke-width="1" rx="4"/>
    <svg x="8" y="8" width="32" height="32" viewBox="0 0 24 24">
      <path d="M6 3a1 1 0 0 0-2 0h2zm14 0a1 1 0 1 0-2 0h2zM3 2a1 1 0 0 0 0 2V2zm18 2a1 1 0 1 0 0-2v2zM8.36 20.232a1 1 0 1 0 1.28 1.536l-1.28-1.536zm6 1.536a1 1 0 1 0 1.28-1.536l-1.28 1.536zm-8.774-6.854l-.707.707.707-.707zm12.828 0l.707.707-.707-.707zM18 3v8.5h2V3h-2zM6 11.5V3H4v8.5h2zM3 4h18V2H3v2zm12 10.5h-3v2h3v-2zm-3 0H9v2h3v-2zm-1 1v3h2v-3h-2zm.36 2.232l-3 2.5 1.28 1.536 3-2.5-1.28-1.536zm0 1.536l3 2.5 1.28-1.536-3-2.5-1.28 1.536zM4 11.5c0 .915-.002 1.701.082 2.328.088.655.287 1.284.797 1.793l1.414-1.414c-.076-.076-.17-.212-.229-.646C6.002 13.1 6 12.471 6 11.5H4zm5 3c-.971 0-1.599-.002-2.061-.064-.434-.059-.57-.153-.646-.229l-1.414 1.414c.51.51 1.138.709 1.793.797.627.084 1.413.082 2.328.082v-2zm9-3c0 .971-.002 1.599-.064 2.061-.059.434-.153.57-.229.646l1.414 1.414c.51-.51.709-1.138.797-1.793.084-.627.082-1.413.082-2.328h-2zm-3 5c.915 0 1.701.002 2.328-.082.655-.088 1.284-.287 1.793-.797l-1.414-1.414c-.076.076-.212.17-.646.229-.462.062-1.09.064-2.061.064v2z" fill="#2563eb"/>
    </svg>
  </g>
  <!-- Icon 26: padding-right-24px -->
  <g transform="translate(436, 272)">
    <rect width="48" height="48" fill="#ffffff" stroke="#e9ecef" stroke-width="1" rx="4"/>
    <svg x="8" y="8" width="32" height="32" viewBox="0 0 24 24">
      <path d="M11.5 7.5h1c1.886 0 2.828 0 3.414.586.586.586.586 1.528.586 3.414v1c0 1.886 0 2.828-.586 3.414-.586.586-1.528.586-3.414.586h-1c-1.886 0-2.828 0-3.414-.586C7.5 15.328 7.5 14.386 7.5 12.5v-1c0-1.886 0-2.828.586-3.414C8.672 7.5 9.614 7.5 11.5 7.5zM21 7v10" stroke="#2563eb" stroke-width="2" stroke-linecap="round"/>
    </svg>
  </g>
  <!-- Icon 27: message-bubble-24px -->
  <g transform="translate(496, 272)">
    <rect width="48" height="48" fill="#ffffff" stroke="#e9ecef" stroke-width="1" rx="4"/>
    <svg x="8" y="8" width="32" height="32" viewBox="0 0 24 24">
      <path d="M5.292 15.647l-.66.752.66-.752zM9 17.6l.267-.963L9 17.6zm-4.875 2.278l-.47.883c.047.024.096.046.146.063l.324-.946zM20 10.805c0 1.94-.85 3.5-2.253 4.6-1.421 1.114-3.442 1.772-5.747 1.772v2c2.666 0 5.145-.76 6.98-2.198C20.836 15.526 22 13.4 22 10.805h-2zm-16 0c0-1.576.807-3 2.234-4.064C7.668 5.673 9.7 5 12 5V3c-2.671 0-5.138.779-6.961 2.138C3.209 6.5 2 8.479 2 10.805h2zM12 5c2.351 0 4.381.539 5.793 1.522C19.166 7.478 20 8.879 20 10.805h2c0-2.611-1.18-4.612-3.065-5.924C17.09 3.595 14.62 3 12 3v2zm-6.049 9.896C4.721 13.816 4 12.298 4 10.805H2c0 2.125 1.012 4.174 2.632 5.594l1.319-1.503zM12 17.176c-.884 0-1.74-.264-2.733-.54l-.534 1.928c.883.245 2.047.613 3.267.613v-2zm-2.733-.54c-.476-.132-.88.054-1.072.158-.218.12-.423.283-.59.425-.173.146-.362.32-.537.48-.183.165-.366.33-.556.487-.823.678-1.466.95-2.063.746l-.648 1.892c1.694.58 3.124-.387 3.983-1.095.23-.19.443-.38.629-.55.194-.176.347-.317.487-.436.145-.123.222-.176.254-.194.06-.032-.127.096-.421.015l.534-1.927zm-4.672 2.36a.822.822 0 0 1 .379.42c.048.123.046.213.046.225 0 .018 0-.036.052-.2.099-.313.283-.735.505-1.232.206-.463.447-.997.6-1.44.074-.218.15-.477.175-.729.018-.175.059-.741-.401-1.144l-1.319 1.503c-.337-.295-.26-.66-.27-.56a1.607 1.607 0 0 1-.077.281c-.117.339-.312.775-.535 1.275-.208.466-.445 1-.585 1.445-.068.214-.14.488-.145.76-.005.23.039.843.635 1.16l.94-1.765z" fill="#2563eb"/>
    </svg>
  </g>
  <!-- Icon 28: life-buoy-24px -->
  <g transform="translate(556, 272)">
    <rect width="48" height="48" fill="#ffffff" stroke="#e9ecef" stroke-width="1" rx="4"/>
    <svg x="8" y="8" width="32" height="32" viewBox="0 0 24 24">
      <g clip-path="url(#clip0_489_191383)" stroke="#2563eb" stroke-width="2"><circle cx="12" cy="12" r="9"/><circle cx="12" cy="12" r="4"/><path d="M9 9L6 6m12 12l-3-3m0-6l3-3M6 18l3-3"/></g><defs><clipPath id="clip0_489_191383"><path fill="none" d="M0 0H24V24H0z"/></clipPath></defs>
    </svg>
  </g>
  <!-- Icon 29: heart-24px -->
  <g transform="translate(196, 332)">
    <rect width="48" height="48" fill="#ffffff" stroke="#e9ecef" stroke-width="1" rx="4"/>
    <svg x="8" y="8" width="32" height="32" viewBox="0 0 24 24">
      <path d="M16.546 3V2c-.02 0-.041 0-.061.002l.06.998zm-2.608.835l-.528-.849.528.85zM7.454 3l.061-.998A1.001 1.001 0 0 0 7.455 2v1zM2 8.655H1zM12 21l-.57.821a1 1 0 0 0 1.136.003zM22 8.655h-1zm-9.983-2.857l.859.513zm-.034 0l-.859.513zm.017.02v-1zm4.485-3.816a6.58 6.58 0 0 0-3.075.984l1.056 1.698a4.58 4.58 0 0 1 2.14-.686zm-3.075.984a6.829 6.829 0 0 0-2.251 2.3l1.717 1.025c.4-.669.946-1.226 1.59-1.627zm-.569 2.3a6.829 6.829 0 0 0-2.25-2.3L9.533 4.684c.644.401 1.19.958 1.59 1.627l1.717-1.026zm-2.25-2.3a6.58 6.58 0 0 0-3.076-.984l-.122 1.996a4.58 4.58 0 0 1 2.14.686l1.057-1.698zM7.453 2c-1.723 0-3.369.71-4.576 1.962l1.44 1.388A4.358 4.358 0 0 1 7.453 4zM2.878 3.962A6.762 6.762 0 0 0 1 8.655h2c0-1.246.478-2.434 1.317-3.305l-1.44-1.388zM1 8.655c0 1.639.749 3.285 1.73 4.76.993 1.494 2.298 2.925 3.576 4.157a46.419 46.419 0 0 0 5.09 4.226l.024.017.007.004.002.002L12 21l.57-.821-.004-.004a3.82 3.82 0 0 1-.098-.069 43.018 43.018 0 0 1-1.413-1.063 44.396 44.396 0 0 1-3.36-2.91c-1.223-1.18-2.418-2.498-3.3-3.825C3.501 10.963 3 9.715 3 8.655zM12 21l.567.824.002-.002.007-.005.024-.016.089-.062c.077-.055.188-.134.328-.236a45.462 45.462 0 0 0 4.676-3.902c1.278-1.229 2.585-2.658 3.578-4.156C22.253 11.964 23 10.31 23 8.655h-2c0 1.08-.503 2.338-1.396 3.685-.881 1.33-2.075 2.644-3.297 3.819a43.462 43.462 0 0 1-4.771 3.945l-.079.055-.019.014-.004.002v.001zM23 8.655a6.762 6.762 0 0 0-1.878-4.693l-1.44 1.388A4.762 4.762 0 0 1 21 8.655zm-1.878-4.693A6.358 6.358 0 0 0 16.546 2v2c1.17 0 2.298.481 3.137 1.35l1.44-1.388zM11.16 5.285c-.021.035.02-.037.074-.104A.99.99 0 0 1 12 4.818v2a1.01 1.01 0 0 0 .87-.497l.006-.01-1.717-1.026zm-.035 1.026l.006.01a1.101 1.101 0 0 0 .087.124c.066.08.324.373.783.373v-2a.99.99 0 0 1 .767.363c.055.067.095.14.074.104z" fill="#2563eb"/>
    </svg>
  </g>
  <!-- Icon 30: flame-24px -->
  <g transform="translate(256, 332)">
    <rect width="48" height="48" fill="#ffffff" stroke="#e9ecef" stroke-width="1" rx="4"/>
    <svg x="8" y="8" width="32" height="32" viewBox="0 0 24 24">
      <path d="M6.792 21c-.786-.77-2.792-1.5-2.358-4.923.4-3.16.35-4.016 0-5.385C4.008 9.024 7.578 13 9.15 13.77c.786.385-.786-3.077.786-5.384 1.572-2.308.786-2.608.786-5.385 1.31.256 5.03 1.538 3.144 7.692-2.358 7.693 1.269-2.402 4.715-3.077 3.93-.769-1.38 2.545.786 7.693C20.5 18 18.5 20.5 17.5 21" stroke="#2563eb" stroke-width="2" stroke-linecap="round" stroke-linejoin="round"/>
    </svg>
  </g>
  <!-- Icon 31: document-video-24px -->
  <g transform="translate(316, 332)">
    <rect width="48" height="48" fill="#ffffff" stroke="#e9ecef" stroke-width="1" rx="4"/>
    <svg x="8" y="8" width="32" height="32" viewBox="0 0 24 24">
      <path d="M17.676 6.308l-.67.744zm1.151 1.269l.913-.407zm-4.878-4.444l-.358.933zm4.465 17.281l-.707-.707zm-12.828 0l.707-.707zM6 17V7H4v10zm9 3H9v2h6zM9 4h3.465V2H9zm9 5.281V17h2V9.281zm-3.528-4.51l2.535 2.28 1.338-1.486-2.535-2.281-1.338 1.486zM20 9.28c0-.789.02-1.483-.26-2.11l-1.826.813c.066.149.086.332.086 1.297zm-2.993-2.23c.718.647.84.784.906.933l1.828-.814c-.28-.628-.81-1.077-1.396-1.605l-1.338 1.487zM12.465 4c.834 0 .993.015 1.126.066l.716-1.867C13.748 1.985 13.15 2 12.465 2zm3.345-.716c-.508-.458-.944-.87-1.503-1.085l-.716 1.867c.133.051.261.146.881.704zM15 22c.915 0 1.701.002 2.328-.082.655-.088 1.284-.287 1.793-.797l-1.414-1.414c-.076.076-.212.17-.646.229-.462.062-1.09.064-2.061.064zm3-5c0 .971-.002 1.599-.064 2.061-.059.434-.153.57-.229.646l1.414 1.414c.51-.51.709-1.138.797-1.793C20.002 18.7 20 17.915 20 17zM4 17c0 .915-.002 1.701.082 2.328.088.655.287 1.284.797 1.793l1.414-1.414c-.076-.076-.17-.212-.229-.646C6.002 18.6 6 17.971 6 17zm5 3c-.971 0-1.599-.002-2.061-.064-.434-.059-.57-.153-.646-.229l-1.414 1.414c.51.51 1.138.709 1.793.797C7.3 22.002 8.085 22 9 22zM6 7c0-.971.002-1.599.064-2.061.059-.434.153-.57.229-.646L4.879 2.879c-.51.51-.709 1.138-.797 1.793C3.998 5.3 4 6.085 4 7zm3-5c-.915 0-1.701-.002-2.328.082-.655.088-1.284.287-1.793.797l1.414 1.414c.076-.076.212-.17.646-.229C7.4 4.002 8.029 4 9 4z" fill="none"/><path d="M13 3v2c0 1.886 0 2.828.586 3.414S15.114 9 17 9h2" stroke="#2563eb" stroke-width="2"/><path d="M11.447 16.276l-.335-.67zm-1.21.34l-.394.638zm4.222-1.845l.335.67zm1.046-.802l.748.047zm-4.366-2.308l3.011 2.007.832-1.248-3.011-2.008-.832 1.248zm2.984 2.439l-3.011 1.506.67 1.341 3.012-1.506-.67-1.341zm-3.373 1.282v-3.514h-1.5v3.514zm1.22-4.97c-.32-.214-.632-.424-.898-.55-.267-.125-.707-.273-1.162-.03l.708 1.323c-.19.102-.328-.003-.187.064.142.067.344.2.708.442l.832-1.249zm-1.22 1.456c0-.436.002-.678.025-.833.023-.154.034.018-.157.12L9.91 9.832c-.455.244-.576.692-.619.984-.043.291-.041.667-.041 1.052zm.362 3.738c-.165.082-.297.148-.412.201a2.337 2.337 0 0 1-.245.103c-.056.018-.053.01-.017.01.051 0 .124.016.193.058l-.788 1.276c.4.248.81.17 1.078.082.257-.084.56-.238.862-.389zm-1.862-.224c0 .338-.002.676.038.944.041.279.155.681.555.928l.788-1.276c.07.043.115.102.138.147.017.033.011.038.002-.019a2.33 2.33 0 0 1-.018-.266 18.58 18.58 0 0 1-.003-.458zm4.9-1.714c.162.108.293.195.402.272.11.078.18.133.226.175.047.042.04.046.022.013a.386.386 0 0 1-.044-.205l1.497.093c.03-.49-.255-.82-.469-1.014-.208-.188-.504-.383-.802-.582zm.644 1.773c.32-.16.638-.316.868-.478.236-.165.56-.458.591-.947l-1.497-.093a.388.388 0 0 1 .07-.2c.021-.029.028-.025-.024.012-.05.035-.127.08-.246.145-.118.063-.259.133-.433.22z" fill="none"/>
    </svg>
  </g>
  <!-- Icon 32: close-24px -->
  <g transform="translate(376, 332)">
    <rect width="48" height="48" fill="#ffffff" stroke="#e9ecef" stroke-width="1" rx="4"/>
    <svg x="8" y="8" width="32" height="32" viewBox="0 0 24 24">
      <path d="M5 5l14 14m0-14L5 19" stroke="#2563eb" stroke-width="2" stroke-linecap="round" stroke-linejoin="round"/>
    </svg>
  </g>
  <!-- Icon 33: chevron-left-24px -->
  <g transform="translate(436, 332)">
    <rect width="48" height="48" fill="#ffffff" stroke="#e9ecef" stroke-width="1" rx="4"/>
    <svg x="8" y="8" width="32" height="32" viewBox="0 0 24 24">
      <clipPath id="a"><path d="M0 0h24v24H0z"/></clipPath><clipPath id="b"><path d="M0 0h24v24H0z" transform="rotate(-90 12 12)"/></clipPath><g clip-path="url(#a)"><g clip-path="url(#b)" stroke="#2563eb" stroke-linecap="round" stroke-linejoin="round" stroke-width="2"><path d="M15 4L9.828 9.172c-1.333 1.333-2 2-2 2.828s.667 1.495 2 2.828L15 20"/><path d="M15 4L9.828 9.172c-1.333 1.333-2 2-2 2.828s.667 1.495 2 2.828L15 20"/></g></g>
    </svg>
  </g>
  <!-- Icon 34: brightness-up-24px -->
  <g transform="translate(496, 332)">
    <rect width="48" height="48" fill="#ffffff" stroke="#e9ecef" stroke-width="1" rx="4"/>
    <svg x="8" y="8" width="32" height="32" viewBox="0 0 24 24">
      <circle cx="12" cy="12" r="4" stroke="#2563eb" stroke-width="2"/><path d="M12 4.5V3m0 18v-1.5M4.5 12H3m18 0h-1.5m-1-6.5l-1 1m-11 11l-1 1m12-1l1 1m-12-12l-1-1" stroke="#2563eb" stroke-width="2" stroke-linecap="round"/>
    </svg>
  </g>
  <!-- Icon 35: battery-horizontal-medium-24px -->
  <g transform="translate(556, 332)">
    <rect width="48" height="48" fill="#ffffff" stroke="#e9ecef" stroke-width="1" rx="4"/>
    <svg x="8" y="8" width="32" height="32" viewBox="0 0 24 24">
      <g stroke="#2563eb" stroke-linecap="round" stroke-linejoin="round" stroke-width="2"><path d="M3 11c0-1.886 0-2.828.586-3.414C4.172 7 5.114 7 7 7h8c1.886 0 2.828 0 3.414.586C19 8.172 19 9.114 19 11v2c0 1.886 0 2.828-.586 3.414S16.886 17 15 17H7c-1.886 0-2.828 0-3.414-.586C3 15.828 3 14.886 3 13z"/><path d="M19 12.5v-1a1 1 0 1 1 2 0v1a1 1 0 1 1-2 0z" fill="none"/><path d="M6.5 10v4m4.5-4v4"/></g>
    </svg>
  </g>
  
  <!-- Footer -->
  <text x="400" y="580" text-anchor="middle" font-family="system-ui, -apple-system, sans-serif" font-size="12" fill="#6c757d">
    Showing 35 of 758 icons
  </text>
  
</svg>