<svg width="800" height="600" xmlns="http://www.w3.org/2000/svg">
  <!-- Background -->
  <rect width="800" height="600" fill="#ffffff"/>
  
  <!-- Header Background -->
  <rect width="800" height="80" fill="#f8f9fa"/>
  
  <!-- Title -->
  <text x="400" y="30" text-anchor="middle" font-family="system-ui, -apple-system, sans-serif" font-size="20" font-weight="bold" fill="#212529">Lucide Icons</text>
  
  <!-- Subtitle -->
  <text x="400" y="55" text-anchor="middle" font-family="system-ui, -apple-system, sans-serif" font-size="14" fill="#6c757d">1,635 icons</text>
  
  <!-- Icon Grid -->
  <!-- Icon 1: zoom-out -->
  <g transform="translate(196, 92)">
    <rect width="48" height="48" fill="#ffffff" stroke="#e9ecef" stroke-width="1" rx="4"/>
    <svg x="8" y="8" width="32" height="32" viewBox="0 0 24 24">
      
  <circle cx="11" cy="11" r="8" />
  <line x1="21" x2="16.65" y1="21" y2="16.65" />
  <line x1="8" x2="14" y1="11" y2="11" />

    </svg>
  </g>
  <!-- Icon 2: volleyball -->
  <g transform="translate(256, 92)">
    <rect width="48" height="48" fill="#ffffff" stroke="#e9ecef" stroke-width="1" rx="4"/>
    <svg x="8" y="8" width="32" height="32" viewBox="0 0 24 24">
      
  <path d="M11.1 7.1a16.55 16.55 0 0 1 10.9 4" />
  <path d="M12 12a12.6 12.6 0 0 1-8.7 5" />
  <path d="M16.8 13.6a16.55 16.55 0 0 1-9 7.5" />
  <path d="M20.7 17a12.8 12.8 0 0 0-8.7-5 13.3 13.3 0 0 1 0-10" />
  <path d="M6.3 3.8a16.55 16.55 0 0 0 1.9 11.5" />
  <circle cx="12" cy="12" r="10" />

    </svg>
  </g>
  <!-- Icon 3: unfold-horizontal -->
  <g transform="translate(316, 92)">
    <rect width="48" height="48" fill="#ffffff" stroke="#e9ecef" stroke-width="1" rx="4"/>
    <svg x="8" y="8" width="32" height="32" viewBox="0 0 24 24">
      
  <path d="M16 12h6" />
  <path d="M8 12H2" />
  <path d="M12 2v2" />
  <path d="M12 8v2" />
  <path d="M12 14v2" />
  <path d="M12 20v2" />
  <path d="m19 15 3-3-3-3" />
  <path d="m5 9-3 3 3 3" />

    </svg>
  </g>
  <!-- Icon 4: tornado -->
  <g transform="translate(376, 92)">
    <rect width="48" height="48" fill="#ffffff" stroke="#e9ecef" stroke-width="1" rx="4"/>
    <svg x="8" y="8" width="32" height="32" viewBox="0 0 24 24">
      
  <path d="M21 4H3" />
  <path d="M18 8H6" />
  <path d="M19 12H9" />
  <path d="M16 16h-6" />
  <path d="M11 20H9" />

    </svg>
  </g>
  <!-- Icon 5: tally-2 -->
  <g transform="translate(436, 92)">
    <rect width="48" height="48" fill="#ffffff" stroke="#e9ecef" stroke-width="1" rx="4"/>
    <svg x="8" y="8" width="32" height="32" viewBox="0 0 24 24">
      
  <path d="M4 4v16" />
  <path d="M9 4v16" />

    </svg>
  </g>
  <!-- Icon 6: squares-unite -->
  <g transform="translate(496, 92)">
    <rect width="48" height="48" fill="#ffffff" stroke="#e9ecef" stroke-width="1" rx="4"/>
    <svg x="8" y="8" width="32" height="32" viewBox="0 0 24 24">
      
  <path d="M4 16a2 2 0 0 1-2-2V4a2 2 0 0 1 2-2h10a2 2 0 0 1 2 2v3a1 1 0 0 0 1 1h3a2 2 0 0 1 2 2v10a2 2 0 0 1-2 2H10a2 2 0 0 1-2-2v-3a1 1 0 0 0-1-1z" />

    </svg>
  </g>
  <!-- Icon 7: square-code -->
  <g transform="translate(556, 92)">
    <rect width="48" height="48" fill="#ffffff" stroke="#e9ecef" stroke-width="1" rx="4"/>
    <svg x="8" y="8" width="32" height="32" viewBox="0 0 24 24">
      
  <path d="m10 9-3 3 3 3" />
  <path d="m14 15 3-3-3-3" />
  <rect x="3" y="3" width="18" height="18" rx="2" />

    </svg>
  </g>
  <!-- Icon 8: smartphone-nfc -->
  <g transform="translate(196, 152)">
    <rect width="48" height="48" fill="#ffffff" stroke="#e9ecef" stroke-width="1" rx="4"/>
    <svg x="8" y="8" width="32" height="32" viewBox="0 0 24 24">
      
  <rect width="7" height="12" x="2" y="6" rx="1" />
  <path d="M13 8.32a7.43 7.43 0 0 1 0 7.36" />
  <path d="M16.46 6.21a11.76 11.76 0 0 1 0 11.58" />
  <path d="M19.91 4.1a15.91 15.91 0 0 1 .01 15.8" />

    </svg>
  </g>
  <!-- Icon 9: sheet -->
  <g transform="translate(256, 152)">
    <rect width="48" height="48" fill="#ffffff" stroke="#e9ecef" stroke-width="1" rx="4"/>
    <svg x="8" y="8" width="32" height="32" viewBox="0 0 24 24">
      
  <rect width="18" height="18" x="3" y="3" rx="2" ry="2" />
  <line x1="3" x2="21" y1="9" y2="9" />
  <line x1="3" x2="21" y1="15" y2="15" />
  <line x1="9" x2="9" y1="9" y2="21" />
  <line x1="15" x2="15" y1="9" y2="21" />

    </svg>
  </g>
  <!-- Icon 10: sandwich -->
  <g transform="translate(316, 152)">
    <rect width="48" height="48" fill="#ffffff" stroke="#e9ecef" stroke-width="1" rx="4"/>
    <svg x="8" y="8" width="32" height="32" viewBox="0 0 24 24">
      
  <path d="m2.37 11.223 8.372-6.777a2 2 0 0 1 2.516 0l8.371 6.777" />
  <path d="M21 15a1 1 0 0 1 1 1v2a1 1 0 0 1-1 1h-5.25" />
  <path d="M3 15a1 1 0 0 0-1 1v2a1 1 0 0 0 1 1h9" />
  <path d="m6.67 15 6.13 4.6a2 2 0 0 0 2.8-.4l3.15-4.2" />
  <rect width="20" height="4" x="2" y="11" rx="1" />

    </svg>
  </g>
  <!-- Icon 11: rectangle-ellipsis -->
  <g transform="translate(376, 152)">
    <rect width="48" height="48" fill="#ffffff" stroke="#e9ecef" stroke-width="1" rx="4"/>
    <svg x="8" y="8" width="32" height="32" viewBox="0 0 24 24">
      
  <rect width="20" height="12" x="2" y="6" rx="2" />
  <path d="M12 12h.01" />
  <path d="M17 12h.01" />
  <path d="M7 12h.01" />

    </svg>
  </g>
  <!-- Icon 12: plug-2 -->
  <g transform="translate(436, 152)">
    <rect width="48" height="48" fill="#ffffff" stroke="#e9ecef" stroke-width="1" rx="4"/>
    <svg x="8" y="8" width="32" height="32" viewBox="0 0 24 24">
      
  <path d="M9 2v6" />
  <path d="M15 2v6" />
  <path d="M12 17v5" />
  <path d="M5 8h14" />
  <path d="M6 11V8h12v3a6 6 0 1 1-12 0Z" />

    </svg>
  </g>
  <!-- Icon 13: panels-top-left -->
  <g transform="translate(496, 152)">
    <rect width="48" height="48" fill="#ffffff" stroke="#e9ecef" stroke-width="1" rx="4"/>
    <svg x="8" y="8" width="32" height="32" viewBox="0 0 24 24">
      
  <rect width="18" height="18" x="3" y="3" rx="2" />
  <path d="M3 9h18" />
  <path d="M9 21V9" />

    </svg>
  </g>
  <!-- Icon 14: notepad-text -->
  <g transform="translate(556, 152)">
    <rect width="48" height="48" fill="#ffffff" stroke="#e9ecef" stroke-width="1" rx="4"/>
    <svg x="8" y="8" width="32" height="32" viewBox="0 0 24 24">
      
  <path d="M8 2v4" />
  <path d="M12 2v4" />
  <path d="M16 2v4" />
  <rect width="16" height="18" x="4" y="4" rx="2" />
  <path d="M8 10h6" />
  <path d="M8 14h8" />
  <path d="M8 18h5" />

    </svg>
  </g>
  <!-- Icon 15: monitor-speaker -->
  <g transform="translate(196, 212)">
    <rect width="48" height="48" fill="#ffffff" stroke="#e9ecef" stroke-width="1" rx="4"/>
    <svg x="8" y="8" width="32" height="32" viewBox="0 0 24 24">
      
  <path d="M5.5 20H8" />
  <path d="M17 9h.01" />
  <rect width="10" height="16" x="12" y="4" rx="2" />
  <path d="M8 6H4a2 2 0 0 0-2 2v6a2 2 0 0 0 2 2h4" />
  <circle cx="17" cy="15" r="1" />

    </svg>
  </g>
  <!-- Icon 16: message-circle-heart -->
  <g transform="translate(256, 212)">
    <rect width="48" height="48" fill="#ffffff" stroke="#e9ecef" stroke-width="1" rx="4"/>
    <svg x="8" y="8" width="32" height="32" viewBox="0 0 24 24">
      
  <path d="M2.992 16.342a2 2 0 0 1 .094 1.167l-1.065 3.29a1 1 0 0 0 1.236 1.168l3.413-.998a2 2 0 0 1 1.099.092 10 10 0 1 0-4.777-4.719" />
  <path d="M7.828 13.07A3 3 0 0 1 12 8.764a3 3 0 0 1 5.004 2.224 3 3 0 0 1-.832 2.083l-3.447 3.62a1 1 0 0 1-1.45-.001z" />

    </svg>
  </g>
  <!-- Icon 17: log-out -->
  <g transform="translate(316, 212)">
    <rect width="48" height="48" fill="#ffffff" stroke="#e9ecef" stroke-width="1" rx="4"/>
    <svg x="8" y="8" width="32" height="32" viewBox="0 0 24 24">
      
  <path d="m16 17 5-5-5-5" />
  <path d="M21 12H9" />
  <path d="M9 21H5a2 2 0 0 1-2-2V5a2 2 0 0 1 2-2h4" />

    </svg>
  </g>
  <!-- Icon 18: leaf -->
  <g transform="translate(376, 212)">
    <rect width="48" height="48" fill="#ffffff" stroke="#e9ecef" stroke-width="1" rx="4"/>
    <svg x="8" y="8" width="32" height="32" viewBox="0 0 24 24">
      
  <path d="M11 20A7 7 0 0 1 9.8 6.1C15.5 5 17 4.48 19 2c1 2 2 4.18 2 8 0 5.5-4.78 10-10 10Z" />
  <path d="M2 21c0-3 1.85-5.36 5.08-6C9.5 14.52 12 13 13 12" />

    </svg>
  </g>
  <!-- Icon 19: image-upscale -->
  <g transform="translate(436, 212)">
    <rect width="48" height="48" fill="#ffffff" stroke="#e9ecef" stroke-width="1" rx="4"/>
    <svg x="8" y="8" width="32" height="32" viewBox="0 0 24 24">
      
  <path d="M16 3h5v5" />
  <path d="M17 21h2a2 2 0 0 0 2-2" />
  <path d="M21 12v3" />
  <path d="m21 3-5 5" />
  <path d="M3 7V5a2 2 0 0 1 2-2" />
  <path d="m5 21 4.144-4.144a1.21 1.21 0 0 1 1.712 0L13 19" />
  <path d="M9 3h3" />
  <rect x="3" y="11" width="10" height="10" rx="1" />

    </svg>
  </g>
  <!-- Icon 20: hard-hat -->
  <g transform="translate(496, 212)">
    <rect width="48" height="48" fill="#ffffff" stroke="#e9ecef" stroke-width="1" rx="4"/>
    <svg x="8" y="8" width="32" height="32" viewBox="0 0 24 24">
      
  <path d="M10 10V5a1 1 0 0 1 1-1h2a1 1 0 0 1 1 1v5" />
  <path d="M14 6a6 6 0 0 1 6 6v3" />
  <path d="M4 15v-3a6 6 0 0 1 6-6" />
  <rect x="2" y="15" width="20" height="4" rx="1" />

    </svg>
  </g>
  <!-- Icon 21: git-fork -->
  <g transform="translate(556, 212)">
    <rect width="48" height="48" fill="#ffffff" stroke="#e9ecef" stroke-width="1" rx="4"/>
    <svg x="8" y="8" width="32" height="32" viewBox="0 0 24 24">
      
  <circle cx="12" cy="18" r="3" />
  <circle cx="6" cy="6" r="3" />
  <circle cx="18" cy="6" r="3" />
  <path d="M18 9v2c0 .6-.4 1-1 1H7c-.6 0-1-.4-1-1V9" />
  <path d="M12 12v3" />

    </svg>
  </g>
  <!-- Icon 22: folder-minus -->
  <g transform="translate(196, 272)">
    <rect width="48" height="48" fill="#ffffff" stroke="#e9ecef" stroke-width="1" rx="4"/>
    <svg x="8" y="8" width="32" height="32" viewBox="0 0 24 24">
      
  <path d="M9 13h6" />
  <path d="M20 20a2 2 0 0 0 2-2V8a2 2 0 0 0-2-2h-7.9a2 2 0 0 1-1.69-.9L9.6 3.9A2 2 0 0 0 7.93 3H4a2 2 0 0 0-2 2v13a2 2 0 0 0 2 2Z" />

    </svg>
  </g>
  <!-- Icon 23: file-warning -->
  <g transform="translate(256, 272)">
    <rect width="48" height="48" fill="#ffffff" stroke="#e9ecef" stroke-width="1" rx="4"/>
    <svg x="8" y="8" width="32" height="32" viewBox="0 0 24 24">
      
  <path d="M15 2H6a2 2 0 0 0-2 2v16a2 2 0 0 0 2 2h12a2 2 0 0 0 2-2V7Z" />
  <path d="M12 9v4" />
  <path d="M12 17h.01" />

    </svg>
  </g>
  <!-- Icon 24: file-chart-line -->
  <g transform="translate(316, 272)">
    <rect width="48" height="48" fill="#ffffff" stroke="#e9ecef" stroke-width="1" rx="4"/>
    <svg x="8" y="8" width="32" height="32" viewBox="0 0 24 24">
      
  <path d="M15 2H6a2 2 0 0 0-2 2v16a2 2 0 0 0 2 2h12a2 2 0 0 0 2-2V7Z" />
  <path d="M14 2v4a2 2 0 0 0 2 2h4" />
  <path d="m16 13-3.5 3.5-2-2L8 17" />

    </svg>
  </g>
  <!-- Icon 25: drill -->
  <g transform="translate(376, 272)">
    <rect width="48" height="48" fill="#ffffff" stroke="#e9ecef" stroke-width="1" rx="4"/>
    <svg x="8" y="8" width="32" height="32" viewBox="0 0 24 24">
      
  <path d="M10 18a1 1 0 0 1 1 1v2a1 1 0 0 1-1 1H5a3 3 0 0 1-3-3 1 1 0 0 1 1-1z" />
  <path d="M13 10H4a2 2 0 0 1-2-2V4a2 2 0 0 1 2-2h9a1 1 0 0 1 1 1v6a1 1 0 0 1-1 1l-.81 3.242a1 1 0 0 1-.97.758H8" />
  <path d="M14 4h3a1 1 0 0 1 1 1v2a1 1 0 0 1-1 1h-3" />
  <path d="M18 6h4" />
  <path d="m5 10-2 8" />
  <path d="m7 18 2-8" />

    </svg>
  </g>
  <!-- Icon 26: crosshair -->
  <g transform="translate(436, 272)">
    <rect width="48" height="48" fill="#ffffff" stroke="#e9ecef" stroke-width="1" rx="4"/>
    <svg x="8" y="8" width="32" height="32" viewBox="0 0 24 24">
      
  <circle cx="12" cy="12" r="10" />
  <line x1="22" x2="18" y1="12" y2="12" />
  <line x1="6" x2="2" y1="12" y2="12" />
  <line x1="12" x2="12" y1="6" y2="2" />
  <line x1="12" x2="12" y1="22" y2="18" />

    </svg>
  </g>
  <!-- Icon 27: code -->
  <g transform="translate(496, 272)">
    <rect width="48" height="48" fill="#ffffff" stroke="#e9ecef" stroke-width="1" rx="4"/>
    <svg x="8" y="8" width="32" height="32" viewBox="0 0 24 24">
      
  <path d="m16 18 6-6-6-6" />
  <path d="m8 6-6 6 6 6" />

    </svg>
  </g>
  <!-- Icon 28: clipboard-pen -->
  <g transform="translate(556, 272)">
    <rect width="48" height="48" fill="#ffffff" stroke="#e9ecef" stroke-width="1" rx="4"/>
    <svg x="8" y="8" width="32" height="32" viewBox="0 0 24 24">
      
  <rect width="8" height="4" x="8" y="2" rx="1" />
  <path d="M16 4h2a2 2 0 0 1 2 2v14a2 2 0 0 1-2 2h-5.5" />
  <path d="M4 13.5V6a2 2 0 0 1 2-2h2" />
  <path d="M13.378 15.626a1 1 0 1 0-3.004-3.004l-5.01 5.012a2 2 0 0 0-.506.854l-.837 2.87a.5.5 0 0 0 .62.62l2.87-.837a2 2 0 0 0 .854-.506z" />

    </svg>
  </g>
  <!-- Icon 29: circle-check-big -->
  <g transform="translate(196, 332)">
    <rect width="48" height="48" fill="#ffffff" stroke="#e9ecef" stroke-width="1" rx="4"/>
    <svg x="8" y="8" width="32" height="32" viewBox="0 0 24 24">
      
  <path d="M21.801 10A10 10 0 1 1 17 3.335" />
  <path d="m9 11 3 3L22 4" />

    </svg>
  </g>
  <!-- Icon 30: chart-column-stacked -->
  <g transform="translate(256, 332)">
    <rect width="48" height="48" fill="#ffffff" stroke="#e9ecef" stroke-width="1" rx="4"/>
    <svg x="8" y="8" width="32" height="32" viewBox="0 0 24 24">
      
  <path d="M11 13H7" />
  <path d="M19 9h-4" />
  <path d="M3 3v16a2 2 0 0 0 2 2h16" />
  <rect x="15" y="5" width="4" height="12" rx="1" />
  <rect x="7" y="8" width="4" height="9" rx="1" />

    </svg>
  </g>
  <!-- Icon 31: calendar-days -->
  <g transform="translate(316, 332)">
    <rect width="48" height="48" fill="#ffffff" stroke="#e9ecef" stroke-width="1" rx="4"/>
    <svg x="8" y="8" width="32" height="32" viewBox="0 0 24 24">
      
  <path d="M8 2v4" />
  <path d="M16 2v4" />
  <rect width="18" height="18" x="3" y="4" rx="2" />
  <path d="M3 10h18" />
  <path d="M8 14h.01" />
  <path d="M12 14h.01" />
  <path d="M16 14h.01" />
  <path d="M8 18h.01" />
  <path d="M12 18h.01" />
  <path d="M16 18h.01" />

    </svg>
  </g>
  <!-- Icon 32: bookmark-plus -->
  <g transform="translate(376, 332)">
    <rect width="48" height="48" fill="#ffffff" stroke="#e9ecef" stroke-width="1" rx="4"/>
    <svg x="8" y="8" width="32" height="32" viewBox="0 0 24 24">
      
  <path d="m19 21-7-4-7 4V5a2 2 0 0 1 2-2h10a2 2 0 0 1 2 2v16z" />
  <line x1="12" x2="12" y1="7" y2="13" />
  <line x1="15" x2="9" y1="10" y2="10" />

    </svg>
  </g>
  <!-- Icon 33: between-vertical-start -->
  <g transform="translate(436, 332)">
    <rect width="48" height="48" fill="#ffffff" stroke="#e9ecef" stroke-width="1" rx="4"/>
    <svg x="8" y="8" width="32" height="32" viewBox="0 0 24 24">
      
  <rect width="7" height="13" x="3" y="8" rx="1" />
  <path d="m15 2-3 3-3-3" />
  <rect width="7" height="13" x="14" y="8" rx="1" />

    </svg>
  </g>
  <!-- Icon 34: badge-plus -->
  <g transform="translate(496, 332)">
    <rect width="48" height="48" fill="#ffffff" stroke="#e9ecef" stroke-width="1" rx="4"/>
    <svg x="8" y="8" width="32" height="32" viewBox="0 0 24 24">
      
  <path d="M3.85 8.62a4 4 0 0 1 4.78-4.77 4 4 0 0 1 6.74 0 4 4 0 0 1 4.78 4.78 4 4 0 0 1 0 6.74 4 4 0 0 1-4.77 4.78 4 4 0 0 1-6.75 0 4 4 0 0 1-4.78-4.77 4 4 0 0 1 0-6.76Z" />
  <line x1="12" x2="12" y1="8" y2="16" />
  <line x1="8" x2="16" y1="12" y2="12" />

    </svg>
  </g>
  <!-- Icon 35: arrow-down-up -->
  <g transform="translate(556, 332)">
    <rect width="48" height="48" fill="#ffffff" stroke="#e9ecef" stroke-width="1" rx="4"/>
    <svg x="8" y="8" width="32" height="32" viewBox="0 0 24 24">
      
  <path d="m3 16 4 4 4-4" />
  <path d="M7 20V4" />
  <path d="m21 8-4-4-4 4" />
  <path d="M17 4v16" />

    </svg>
  </g>
  
  <!-- Footer -->
  <text x="400" y="580" text-anchor="middle" font-family="system-ui, -apple-system, sans-serif" font-size="12" fill="#6c757d">
    Showing 35 of 1635 icons
  </text>
  
</svg>