<svg width="800" height="600" xmlns="http://www.w3.org/2000/svg">
  <!-- Background -->
  <rect width="800" height="600" fill="#ffffff"/>
  
  <!-- Header Background -->
  <rect width="800" height="80" fill="#f8f9fa"/>
  
  <!-- Title -->
  <text x="400" y="30" text-anchor="middle" font-family="system-ui, -apple-system, sans-serif" font-size="20" font-weight="bold" fill="#212529">Material Design Icons - filled</text>
  
  <!-- Subtitle -->
  <text x="400" y="55" text-anchor="middle" font-family="system-ui, -apple-system, sans-serif" font-size="14" fill="#6c757d">2,870 icons</text>
  
  <!-- Icon Grid -->
  <!-- Icon 1: 24px -->
  <g transform="translate(196, 92)">
    <rect width="48" height="48" fill="#ffffff" stroke="#e9ecef" stroke-width="1" rx="4"/>
    <svg x="8" y="8" width="32" height="32" viewBox="0 0 24 24">
      <path d="M0 0h24v24H0z" fill="#2563eb"/><path d="M17 7H7c-2.76 0-5 2.24-5 5s2.24 5 5 5h10c2.76 0 5-2.24 5-5s-2.24-5-5-5zm0 8c-1.66 0-3-1.34-3-3s1.34-3 3-3 3 1.34 3 3-1.34 3-3 3z"/>
    </svg>
  </g>
  <!-- Icon 2: 24px -->
  <g transform="translate(256, 92)">
    <rect width="48" height="48" fill="#ffffff" stroke="#e9ecef" stroke-width="1" rx="4"/>
    <svg x="8" y="8" width="32" height="32" viewBox="0 0 24 24">
      <path d="M0 0h24v24H0z" fill="#2563eb"/><path d="M21 3H3c-1.11 0-2 .89-2 2v12c0 1.1.89 2 2 2h5v2h8v-2h5c1.1 0 1.99-.9 1.99-2L23 5c0-1.11-.9-2-2-2zm0 14H3V5h18v12z"/>
    </svg>
  </g>
  <!-- Icon 3: 24px -->
  <g transform="translate(316, 92)">
    <rect width="48" height="48" fill="#ffffff" stroke="#e9ecef" stroke-width="1" rx="4"/>
    <svg x="8" y="8" width="32" height="32" viewBox="0 0 24 24">
      <rect fill="#2563eb" height="24" width="24"/><path d="M19,12h3L12,3L2,12h3v8h2v-2h10v2h2V12z M7.21,10h9.58L17,10.19V12H7v-1.81L7.21,10z M14.57,8H9.43L12,5.69L14.57,8z M7,16 v-2h10v2H7z"/>
    </svg>
  </g>
  <!-- Icon 4: 24px -->
  <g transform="translate(376, 92)">
    <rect width="48" height="48" fill="#ffffff" stroke="#e9ecef" stroke-width="1" rx="4"/>
    <svg x="8" y="8" width="32" height="32" viewBox="0 0 24 24">
      <g><rect fill="#2563eb" height="24" width="24"/></g><g><g><path d="M17.92,7.02C17.45,4.18,14.97,2,12,2C9.82,2,7.83,3.18,6.78,5.06C4.09,5.41,2,7.74,2,10.5C2,13.53,4.47,16,7.5,16h10 c2.48,0,4.5-2.02,4.5-4.5C22,9.16,20.21,7.23,17.92,7.02z"/><polygon points="14.8,17 11.9,20.32 13.9,21.32 11.55,24 14.2,24 17.1,20.68 15.1,19.68 17.45,17"/><polygon points="8.8,17 5.9,20.32 7.9,21.32 5.55,24 8.2,24 11.1,20.68 9.1,19.68 11.45,17"/></g></g>
    </svg>
  </g>
  <!-- Icon 5: 24px -->
  <g transform="translate(436, 92)">
    <rect width="48" height="48" fill="#ffffff" stroke="#e9ecef" stroke-width="1" rx="4"/>
    <svg x="8" y="8" width="32" height="32" viewBox="0 0 24 24">
      <rect fill="#2563eb" height="24" width="24"/><path d="M11,5h2v14h-2V5z M5,12c1.1,0,2-0.9,2-2c0-1.1-0.9-2-2-2s-2,0.9-2,2C3,11.1,3.9,12,5,12z M7.78,13.58 C6.93,13.21,5.99,13,5,13s-1.93,0.21-2.78,0.58C1.48,13.9,1,14.62,1,15.43L1,16h8l0-0.57C9,14.62,8.52,13.9,7.78,13.58z M19,12 c1.1,0,2-0.9,2-2c0-1.1-0.9-2-2-2s-2,0.9-2,2C17,11.1,17.9,12,19,12z M21.78,13.58C20.93,13.21,19.99,13,19,13s-1.93,0.21-2.78,0.58 C15.48,13.9,15,14.62,15,15.43L15,16h8l0-0.57C23,14.62,22.52,13.9,21.78,13.58z"/>
    </svg>
  </g>
  <!-- Icon 6: 20px -->
  <g transform="translate(496, 92)">
    <rect width="48" height="48" fill="#ffffff" stroke="#e9ecef" stroke-width="1" rx="4"/>
    <svg x="8" y="8" width="32" height="32" viewBox="0 0 20 20">
      <g><rect fill="#2563eb" height="20" width="20"/></g><g><g><g><circle cx="10" cy="3.75" r="1.75"/><path d="M11.5,7h-3C7.67,7,7,7.67,7,8.5V13h2v5h2v-5h2V8.5C13,7.67,12.33,7,11.5,7z"/></g></g></g>
    </svg>
  </g>
  <!-- Icon 7: 20px -->
  <g transform="translate(556, 92)">
    <rect width="48" height="48" fill="#ffffff" stroke="#e9ecef" stroke-width="1" rx="4"/>
    <svg x="8" y="8" width="32" height="32" viewBox="0 0 20 20">
      <g><rect fill="#2563eb" height="20" width="20"/></g><g><g/><path d="M15,6h-2V5H7v1H5C4.45,6,4,6.45,4,7v1c0,1.66,1.34,3,3,3h0.18c0.36,1.01,1.24,1.77,2.32,1.95V15H7v1h2.5h1H13v-1h-2.5 v-2.05c1.08-0.18,1.96-0.94,2.32-1.95H13c1.66,0,3-1.34,3-3V7C16,6.45,15.55,6,15,6z M7,10c-1.1,0-2-0.9-2-2V7h2V10z M15,8 c0,1.1-0.9,2-2,2V7h2V8z"/></g>
    </svg>
  </g>
  <!-- Icon 8: 24px -->
  <g transform="translate(196, 152)">
    <rect width="48" height="48" fill="#ffffff" stroke="#e9ecef" stroke-width="1" rx="4"/>
    <svg x="8" y="8" width="32" height="32" viewBox="0 0 24 24">
      <g><rect fill="#2563eb" height="24" width="24"/></g><g><g><path d="M4,15v3c0,2.21,1.79,4,4,4h8c2.21,0,4-1.79,4-4v-3H4z"/><path d="M20,13v-3c0-1.86-1.28-3.41-3-3.86V4c0-1.1-0.9-2-2-2H9C7.9,2,7,2.9,7,4v2.14c-1.72,0.45-3,2-3,3.86v3H20z M9,4h6v2h-2 c0-0.55-0.45-1-1-1s-1,0.45-1,1H9V4z"/></g></g>
    </svg>
  </g>
  <!-- Icon 9: 24px -->
  <g transform="translate(256, 152)">
    <rect width="48" height="48" fill="#ffffff" stroke="#e9ecef" stroke-width="1" rx="4"/>
    <svg x="8" y="8" width="32" height="32" viewBox="0 0 24 24">
      <path d="M0 0h24v24H0z" fill="#2563eb"/><path d="M5 16h3v3h2v-5H5v2zm3-8H5v2h5V5H8v3zm6 11h2v-3h3v-2h-5v5zm2-11V5h-2v5h5V8h-3z"/>
    </svg>
  </g>
  <!-- Icon 10: 20px -->
  <g transform="translate(316, 152)">
    <rect width="48" height="48" fill="#ffffff" stroke="#e9ecef" stroke-width="1" rx="4"/>
    <svg x="8" y="8" width="32" height="32" viewBox="0 0 20 20">
      <g><rect fill="#2563eb" height="20" width="20"/></g><g><path d="M7.38,12c0,0.82,0.68,1.5,1.5,1.5h2.25c0.82,0,1.5-0.68,1.5-1.5V8c0-0.82-0.68-1.5-1.5-1.5H8.88c-0.82,0-1.5,0.68-1.5,1.5 V12z M11.12,12H8.88V8h2.25V12z M1.5,12h3v-1.25H3c-0.83,0-1.5-0.67-1.5-1.5V8c0-0.83,0.67-1.5,1.5-1.5h3V8H3v1.25h1.5 c0.83,0,1.5,0.67,1.5,1.5V12c0,0.83-0.67,1.5-1.5,1.5h-3V12z M14,12h3v-1.25h-1.5c-0.83,0-1.5-0.67-1.5-1.5V8 c0-0.83,0.67-1.5,1.5-1.5h3V8h-3v1.25H17c0.83,0,1.5,0.67,1.5,1.5V12c0,0.83-0.67,1.5-1.5,1.5h-3V12z"/></g>
    </svg>
  </g>
  <!-- Icon 11: 20px -->
  <g transform="translate(376, 152)">
    <rect width="48" height="48" fill="#ffffff" stroke="#e9ecef" stroke-width="1" rx="4"/>
    <svg x="8" y="8" width="32" height="32" viewBox="0 0 20 20">
      <g><rect fill="#2563eb" height="20" width="20"/></g><g><path d="M16.5,6h-4.25V3.5c0-0.83-0.67-1.5-1.5-1.5h-1.5c-0.83,0-1.5,0.67-1.5,1.5V6H3.5C2.67,6,2,6.67,2,7.5v9 C2,17.33,2.67,18,3.5,18h13c0.83,0,1.5-0.67,1.5-1.5v-9C18,6.67,17.33,6,16.5,6z M9.25,13.25H7.5V15H6v-1.75H4.25v-1.5H6V10h1.5 v1.75h1.75V13.25z M9.25,3.5h1.5v4h-1.5V3.5z M14,14.5h-3.25v-1H14V14.5z M15.75,12h-5v-1h5V12z"/></g>
    </svg>
  </g>
  <!-- Icon 12: 20px -->
  <g transform="translate(436, 152)">
    <rect width="48" height="48" fill="#ffffff" stroke="#e9ecef" stroke-width="1" rx="4"/>
    <svg x="8" y="8" width="32" height="32" viewBox="0 0 20 20">
      <g><rect fill="#2563eb" height="20" width="20"/></g><g><g><path d="M16,11.5c0-0.28-0.22-0.5-0.5-0.5H14v1h1.5C15.78,12,16,11.78,16,11.5z"/><path d="M15.5,14H14v1h1.5c0.28,0,0.5-0.22,0.5-0.5C16,14.22,15.78,14,15.5,14z"/><path d="M9,11v1H8v2h1l0,1c0,0.55,0.45,1,1,1h3v-6h-3C9.45,10,9,10.45,9,11z"/><path d="M6.75,9H7.5C8.88,9,10,7.88,10,6.5C10,5.12,8.88,4,7.5,4h-2C5.22,4,5,4.22,5,4.5C5,4.78,5.22,5,5.5,5h2 C8.33,5,9,5.67,9,6.5S8.33,8,7.5,8H6.75C5.23,8,4,9.23,4,10.75s1.23,2.75,2.75,2.75H7v-1H6.75C5.78,12.5,5,11.72,5,10.75 S5.78,9,6.75,9z"/></g></g>
    </svg>
  </g>
  <!-- Icon 13: 24px -->
  <g transform="translate(496, 152)">
    <rect width="48" height="48" fill="#ffffff" stroke="#e9ecef" stroke-width="1" rx="4"/>
    <svg x="8" y="8" width="32" height="32" viewBox="0 0 24 24">
      <g><rect fill="#2563eb" height="24" width="24"/></g><g><path d="M10.43,18.75C10.8,18.29,11.37,18,12,18c0.63,0,1.19,0.29,1.56,0.75c0.39-0.09,0.76-0.21,1.12-0.36l-1.42-3.18 c-0.39,0.15-0.82,0.23-1.26,0.23c-0.46,0-0.9-0.09-1.3-0.25l-1.43,3.19C9.65,18.54,10.03,18.67,10.43,18.75z M5.15,10 c-0.16,0.59-0.25,1.21-0.25,1.85c0,0.75,0.12,1.47,0.33,2.15c0.63,0.05,1.22,0.4,1.56,0.99c0.33,0.57,0.35,1.23,0.11,1.79 c0.27,0.27,0.56,0.53,0.87,0.76l1.52-3.39v0c-0.47-0.58-0.75-1.32-0.75-2.13c0-1.89,1.55-3.41,3.46-3.41 c1.91,0,3.46,1.53,3.46,3.41c0,0.82-0.29,1.57-0.78,2.16l1.5,3.35c0.32-0.24,0.62-0.5,0.9-0.79c-0.22-0.55-0.2-1.2,0.12-1.75 c0.33-0.57,0.9-0.92,1.52-0.99c0.22-0.68,0.34-1.41,0.34-2.16c0-0.64-0.09-1.27-0.25-1.86c-0.64-0.04-1.26-0.39-1.6-1 c-0.36-0.62-0.35-1.36-0.03-1.95c-0.91-0.98-2.1-1.71-3.44-2.05C13.39,5.6,12.74,6,12,6c-0.74,0-1.39-0.41-1.74-1.01 C8.92,5.33,7.73,6.04,6.82,7.02C7.15,7.62,7.17,8.37,6.8,9C6.45,9.62,5.81,9.97,5.15,10z M3.85,9.58C3.07,8.98,2.83,7.88,3.34,7 c0.51-0.88,1.58-1.23,2.49-0.85c1.11-1.17,2.56-2.03,4.18-2.42C10.15,2.75,10.99,2,12,2c1.01,0,1.85,0.75,1.98,1.73 c1.63,0.39,3.07,1.24,4.18,2.42c0.91-0.38,1.99-0.03,2.49,0.85c0.51,0.88,0.27,1.98-0.51,2.58c0.23,0.77,0.35,1.58,0.35,2.42 s-0.12,1.65-0.35,2.42c0.78,0.6,1.02,1.7,0.51,2.58c-0.51,0.88-1.58,1.23-2.49,0.85c-0.4,0.43-0.85,0.81-1.34,1.15l1.34,3H16.3 l-0.97-2.17c-0.43,0.18-0.88,0.33-1.34,0.44C13.85,21.25,13.01,22,12,22c-1.01,0-1.85-0.75-1.98-1.73 C9.54,20.15,9.08,20,8.64,19.81L7.66,22H5.78l1.36-3.03c-0.47-0.33-0.91-0.71-1.3-1.12C4.92,18.23,3.85,17.88,3.34,17 c-0.51-0.88-0.27-1.98,0.51-2.58C3.62,13.65,3.5,12.84,3.5,12S3.62,10.35,3.85,9.58z"/></g>
    </svg>
  </g>
  <!-- Icon 14: 24px -->
  <g transform="translate(556, 152)">
    <rect width="48" height="48" fill="#ffffff" stroke="#e9ecef" stroke-width="1" rx="4"/>
    <svg x="8" y="8" width="32" height="32" viewBox="0 0 24 24">
      <path d="M0 0h24v24H0z" fill="#2563eb"/><path d="M21 11H6.83l3.58-3.59L9 6l-6 6 6 6 1.41-1.41L6.83 13H21z"/>
    </svg>
  </g>
  <!-- Icon 15: 24px -->
  <g transform="translate(196, 212)">
    <rect width="48" height="48" fill="#ffffff" stroke="#e9ecef" stroke-width="1" rx="4"/>
    <svg x="8" y="8" width="32" height="32" viewBox="0 0 24 24">
      <g><rect fill="#2563eb" height="24" width="24"/></g><g><g><polygon points="20.13,5.41 18.72,4 9.53,13.19 5.28,8.95 3.87,10.36 9.53,16.02"/><rect height="2" width="14" x="5" y="18"/></g></g>
    </svg>
  </g>
  <!-- Icon 16: 20px -->
  <g transform="translate(256, 212)">
    <rect width="48" height="48" fill="#ffffff" stroke="#e9ecef" stroke-width="1" rx="4"/>
    <svg x="8" y="8" width="32" height="32" viewBox="0 0 20 20">
      <g><rect fill="#2563eb" height="20" width="20"/></g><g><path d="M7.62,5.5H17V7H9.12L7.62,5.5z M12.87,10.75H15v-1.5h-3.63L12.87,10.75z M16.01,18.13l1.06-1.06L2.93,2.93L1.87,3.99 L3.38,5.5H3V7h1.88l2.25,2.25H5v1.5h3.63L10.88,13L8,13v1.5h4v-0.38L16.01,18.13z"/></g>
    </svg>
  </g>
  <!-- Icon 17: 24px -->
  <g transform="translate(316, 212)">
    <rect width="48" height="48" fill="#ffffff" stroke="#e9ecef" stroke-width="1" rx="4"/>
    <svg x="8" y="8" width="32" height="32" viewBox="0 0 24 24">
      <g><rect fill="#2563eb" height="24" width="24"/></g><g><g><path d="M4.64,19.37c3.03,3.03,7.67,3.44,11.15,1.25l-1.46-1.46c-2.66,1.43-6.04,1.03-8.28-1.21c-2.73-2.73-2.73-7.17,0-9.9 C7.42,6.69,9.21,6.03,11,6.03V9l4-4l-4-4v3.01c-2.3,0-4.61,0.87-6.36,2.63C1.12,10.15,1.12,15.85,4.64,19.37z M11,13l6,6l6-6l-6-6 L11,13z"/></g></g>
    </svg>
  </g>
  <!-- Icon 18: 24px -->
  <g transform="translate(376, 212)">
    <rect width="48" height="48" fill="#ffffff" stroke="#e9ecef" stroke-width="1" rx="4"/>
    <svg x="8" y="8" width="32" height="32" viewBox="0 0 24 24">
      <path d="M0 0h24v24H0z" fill="#2563eb"/><path d="M17.73 12.02l3.98-3.98c.39-.39.39-1.02 0-1.41l-4.34-4.34c-.39-.39-1.02-.39-1.41 0l-3.98 3.98L8 2.29C7.8 2.1 7.55 2 7.29 2c-.25 0-.51.1-.7.29L2.25 6.63c-.39.39-.39 1.02 0 1.41l3.98 3.98L2.25 16c-.39.39-.39 1.02 0 1.41l4.34 4.34c.39.39 1.02.39 1.41 0l3.98-3.98 3.98 3.98c.2.2.45.29.71.29.26 0 .51-.1.71-.29l4.34-4.34c.39-.39.39-1.02 0-1.41l-3.99-3.98zM12 9c.55 0 1 .45 1 1s-.45 1-1 1-1-.45-1-1 .45-1 1-1zm-4.71 1.96L3.66 7.34l3.63-3.63 3.62 3.62-3.62 3.63zM10 13c-.55 0-1-.45-1-1s.45-1 1-1 1 .45 1 1-.45 1-1 1zm2 2c-.55 0-1-.45-1-1s.45-1 1-1 1 .45 1 1-.45 1-1 1zm2-4c.55 0 1 .45 1 1s-.45 1-1 1-1-.45-1-1 .45-1 1-1zm2.66 9.34l-3.63-3.62 3.63-3.63 3.62 3.62-3.62 3.63z"/>
    </svg>
  </g>
  <!-- Icon 19: 24px -->
  <g transform="translate(436, 212)">
    <rect width="48" height="48" fill="#ffffff" stroke="#e9ecef" stroke-width="1" rx="4"/>
    <svg x="8" y="8" width="32" height="32" viewBox="0 0 24 24">
      <path d="M0 0h24v24H0z" fill="#2563eb"/><path d="M10 3H5c-1.1 0-2 .9-2 2v14c0 1.1.9 2 2 2h5v2h2V1h-2v2zm0 15H5l5-6v6zm9-15h-5v2h5v13l-5-6v9h5c1.1 0 2-.9 2-2V5c0-1.1-.9-2-2-2z"/>
    </svg>
  </g>
  <!-- Icon 20: 24px -->
  <g transform="translate(496, 212)">
    <rect width="48" height="48" fill="#ffffff" stroke="#e9ecef" stroke-width="1" rx="4"/>
    <svg x="8" y="8" width="32" height="32" viewBox="0 0 24 24">
      <rect fill="#2563eb" height="24" width="24"/><path d="M0.99,19h2.42l1.27-3.58h5.65L11.59,19h2.42L8.75,5h-2.5L0.99,19z M5.41,13.39L7.44,7.6h0.12l2.03,5.79H5.41z M20,11h3v2h-3 v3h-2v-3h-3v-2h3V8h2V11z"/>
    </svg>
  </g>
  <!-- Icon 21: 24px -->
  <g transform="translate(556, 212)">
    <rect width="48" height="48" fill="#ffffff" stroke="#e9ecef" stroke-width="1" rx="4"/>
    <svg x="8" y="8" width="32" height="32" viewBox="0 0 24 24">
      <g><rect fill="#2563eb" height="24" width="24"/></g><g><g/><polygon points="13,6.99 16,6.99 12,3 8,6.99 11,6.99 11,17.01 8,17.01 12,21 16,17.01 13,17.01"/></g>
    </svg>
  </g>
  <!-- Icon 22: 24px -->
  <g transform="translate(196, 272)">
    <rect width="48" height="48" fill="#ffffff" stroke="#e9ecef" stroke-width="1" rx="4"/>
    <svg x="8" y="8" width="32" height="32" viewBox="0 0 24 24">
      <path d="M0 0h24v24H0z" fill="#2563eb"/><path d="M18.5 6C15.46 6 13 8.46 13 11.5c0 1.33.47 2.55 1.26 3.5H9.74c.79-.95 1.26-2.17 1.26-3.5C11 8.46 8.54 6 5.5 6S0 8.46 0 11.5 2.46 17 5.5 17h13c3.04 0 5.5-2.46 5.5-5.5S21.54 6 18.5 6zm-13 9C3.57 15 2 13.43 2 11.5S3.57 8 5.5 8 9 9.57 9 11.5 7.43 15 5.5 15zm13 0c-1.93 0-3.5-1.57-3.5-3.5S16.57 8 18.5 8 22 9.57 22 11.5 20.43 15 18.5 15z"/>
    </svg>
  </g>
  <!-- Icon 23: 24px -->
  <g transform="translate(256, 272)">
    <rect width="48" height="48" fill="#ffffff" stroke="#e9ecef" stroke-width="1" rx="4"/>
    <svg x="8" y="8" width="32" height="32" viewBox="0 0 24 24">
      <path d="M0 0h24v24H0z" fill="#2563eb"/><path d="M21 6h-2v9H6v2c0 .55.45 1 1 1h11l4 4V7c0-.55-.45-1-1-1zm-4 6V3c0-.55-.45-1-1-1H3c-.55 0-1 .45-1 1v14l4-4h10c.55 0 1-.45 1-1z"/>
    </svg>
  </g>
  <!-- Icon 24: 24px -->
  <g transform="translate(316, 272)">
    <rect width="48" height="48" fill="#ffffff" stroke="#e9ecef" stroke-width="1" rx="4"/>
    <svg x="8" y="8" width="32" height="32" viewBox="0 0 24 24">
      <path d="M0 0h24v24H0V0z" fill="#2563eb"/><path d="M21 1H3c-1.1 0-2 .9-2 2v18c0 1.1.9 2 2 2h18c1.1 0 2-.9 2-2V3c0-1.1-.9-2-2-2zM7 7h10v3l4-4-4-4v3H5v6h2V7zm10 10H7v-3l-4 4 4 4v-3h12v-6h-2v4zm-4-2V9h-1l-2 1v1h1.5v4H13z" fill-rule="evenodd"/>
    </svg>
  </g>
  <!-- Icon 25: 20px -->
  <g transform="translate(376, 272)">
    <rect width="48" height="48" fill="#ffffff" stroke="#e9ecef" stroke-width="1" rx="4"/>
    <svg x="8" y="8" width="32" height="32" viewBox="0 0 20 20">
      <rect fill="#2563eb" height="20" width="20" x="0"/><path d="M3,8v4h3l4,4V4L6,8H3z M11.5,13.15v-6.3c1.18,0.56,2,1.76,2,3.15S12.68,12.59,11.5,13.15z"/>
    </svg>
  </g>
  <!-- Icon 26: 24px -->
  <g transform="translate(436, 272)">
    <rect width="48" height="48" fill="#ffffff" stroke="#e9ecef" stroke-width="1" rx="4"/>
    <svg x="8" y="8" width="32" height="32" viewBox="0 0 24 24">
      <rect fill="#2563eb" height="24" width="24"/><path d="M12,6L12,6c3.33,0,6.49,1.08,9.08,3.07L12,18.17l-9.08-9.1C5.51,7.08,8.67,6,12,6 M12,4C7.31,4,3.07,5.9,0,8.98L12,21 L24,8.98C20.93,5.9,16.69,4,12,4L12,4z"/>
    </svg>
  </g>
  <!-- Icon 27: 20px -->
  <g transform="translate(496, 272)">
    <rect width="48" height="48" fill="#ffffff" stroke="#e9ecef" stroke-width="1" rx="4"/>
    <svg x="8" y="8" width="32" height="32" viewBox="0 0 20 20">
      <rect fill="#2563eb" height="20" width="20"/><path d="M10,6c2.21,0,4,1.79,4,4s-1.79,4-4,4s-4-1.79-4-4S7.79,6,10,6L10,6z M3.75,10.75c0.41,0,0.75-0.34,0.75-0.75 c0-0.41-0.34-0.75-0.75-0.75h-2C1.34,9.25,1,9.59,1,10s0.34,0.75,0.75,0.75H3.75z M18.25,10.75c0.41,0,0.75-0.34,0.75-0.75 c0-0.41-0.34-0.75-0.75-0.75h-2c-0.41,0-0.75,0.34-0.75,0.75s0.34,0.75,0.75,0.75H18.25z M9.25,3.75C9.25,4.16,9.59,4.5,10,4.5 c0.41,0,0.75-0.34,0.75-0.75v-2C10.75,1.34,10.41,1,10,1S9.25,1.34,9.25,1.75V3.75z M13.89,5.05c-0.29,0.29-0.29,0.77,0,1.06 s0.77,0.29,1.06,0l1.06-1.06c0.29-0.29,0.29-0.77,0-1.06c-0.29-0.29-0.77-0.29-1.06,0L13.89,5.05z M3.99,14.95 c-0.29,0.29-0.29,0.77,0,1.06s0.77,0.29,1.06,0l1.06-1.06c0.29-0.29,0.29-0.77,0-1.06c-0.29-0.29-0.77-0.29-1.06,0L3.99,14.95z M5.05,6.11c0.29,0.29,0.77,0.29,1.06,0s0.29-0.77,0-1.06L5.05,3.99c-0.29-0.29-0.77-0.29-1.06,0s-0.29,0.77,0,1.06L5.05,6.11z M14.95,16.01c0.29,0.29,0.77,0.29,1.06,0s0.29-0.77,0-1.06l-1.06-1.06c-0.29-0.29-0.77-0.29-1.06,0c-0.29,0.29-0.29,0.77,0,1.06 L14.95,16.01z M9.25,18.25C9.25,18.66,9.59,19,10,19c0.41,0,0.75-0.34,0.75-0.75v-2c0-0.41-0.34-0.75-0.75-0.75 s-0.75,0.34-0.75,0.75V18.25z"/>
    </svg>
  </g>
  <!-- Icon 28: 20px -->
  <g transform="translate(556, 272)">
    <rect width="48" height="48" fill="#ffffff" stroke="#e9ecef" stroke-width="1" rx="4"/>
    <svg x="8" y="8" width="32" height="32" viewBox="0 0 20 20">
      <g><rect fill="#2563eb" height="20" width="20" x="0"/><path d="M13.12,11.71L9,7.59V4c0-0.55,0.45-1,1-1s1,0.45,1,1v4l6,4v1L13.12,11.71z M17.07,17.07L2.93,2.93L2.22,3.64l5.33,5.33 L3,12v1l6-2v4l-1.5,1v1l2.5-0.5l2.5,0.5v-1L11,15v-2.59l5.36,5.36L17.07,17.07z"/></g>
    </svg>
  </g>
  <!-- Icon 29: 24px -->
  <g transform="translate(196, 332)">
    <rect width="48" height="48" fill="#ffffff" stroke="#e9ecef" stroke-width="1" rx="4"/>
    <svg x="8" y="8" width="32" height="32" viewBox="0 0 24 24">
      <g><rect fill="#2563eb" height="24" width="24"/></g><path d="M8.67,5.84L7.22,4.39C8.6,3.51,10.24,3,12,3c2.74,0,5.19,1.23,6.84,3.16L21,4v6h-6l2.41-2.41C16.12,6.02,14.18,5,12,5 C10.8,5,9.66,5.31,8.67,5.84z M13,7h-2v1.17l2,2V7z M19.78,22.61l-3-3C15.39,20.48,13.76,21,12,21c-4.97,0-9-4.03-9-9 c0-1.76,0.51-3.4,1.39-4.78L1.39,4.22l1.41-1.41l18.38,18.38L19.78,22.61z M15.32,18.15L5.84,8.67C5.31,9.66,5,10.8,5,12 c0,3.86,3.14,7,7,7C13.2,19,14.34,18.69,15.32,18.15z M20.94,13h-2.02c-0.12,0.83-0.39,1.61-0.77,2.32l1.47,1.47 C20.32,15.67,20.79,14.38,20.94,13z"/>
    </svg>
  </g>
  <!-- Icon 30: 24px -->
  <g transform="translate(256, 332)">
    <rect width="48" height="48" fill="#ffffff" stroke="#e9ecef" stroke-width="1" rx="4"/>
    <svg x="8" y="8" width="32" height="32" viewBox="0 0 24 24">
      <g><rect fill="#2563eb" height="24" width="24"/></g><g><g><path d="M20,4H6.83l8,8H20v2h-3.17l4.93,4.93C21.91,18.65,22,18.34,22,18V6C22,4.9,21.1,4,20,4z"/><path d="M1.04,3.87l1.2,1.2C2.09,5.35,2,5.66,2,6v12c0,1.1,0.9,2,2,2h13.17l2.96,2.96l1.41-1.41L2.45,2.45L1.04,3.87z M8,12v2H4 v-2H8z M14,16.83V18H4v-2h9.17L14,16.83z"/></g></g>
    </svg>
  </g>
  <!-- Icon 31: 20px -->
  <g transform="translate(316, 332)">
    <rect width="48" height="48" fill="#ffffff" stroke="#e9ecef" stroke-width="1" rx="4"/>
    <svg x="8" y="8" width="32" height="32" viewBox="0 0 20 20">
      <g><rect fill="#2563eb" height="20" width="20"/></g><g><g><path d="M5,8.25l1.06-1.06L4.87,6H14c0.83,0,1.5,0.67,1.5,1.5S14.83,9,14,9H3v1.5h11c1.65,0,3-1.35,3-3s-1.35-3-3-3H4.87 l1.19-1.19L5,2.25l-3,3L5,8.25z"/><path d="M3,17h14v-5H3V17z M12.83,13.5h2.67v2h-2.67V13.5z M8.67,13.5h2.67v2H8.67V13.5z M4.5,13.5h2.67v2H4.5V13.5z"/></g></g>
    </svg>
  </g>
  <!-- Icon 32: 24px -->
  <g transform="translate(376, 332)">
    <rect width="48" height="48" fill="#ffffff" stroke="#e9ecef" stroke-width="1" rx="4"/>
    <svg x="8" y="8" width="32" height="32" viewBox="0 0 24 24">
      <g><rect fill="#2563eb" height="24" width="24"/><path d="M14,11.05l-3.42-3.42c0.32-0.34,0.74-0.57,1.23-0.61c0.48-0.04,0.84,0.07,1.2,0.26c0.19,0.1,0.39,0.22,0.63,0.46l1.29,1.43 c0.98,1.08,2.53,1.85,4.07,1.83v2C17.25,12.99,15.29,12.12,14,11.05z M12,6c1.1,0,2-0.9,2-2s-0.9-2-2-2c-1.1,0-2,0.9-2,2 S10.9,6,12,6z M2.81,2.81L1.39,4.22L10,12.83V15c0,1.1,0.9,2,2,2h2.17l5.61,5.61l1.41-1.41L2.81,2.81z M10,20c-1.66,0-3-1.34-3-3 c0-1.31,0.84-2.41,2-2.83V12.1c-2.28,0.46-4,2.48-4,4.9c0,2.76,2.24,5,5,5c2.42,0,4.44-1.72,4.9-4h-2.07 C12.42,19.16,11.31,20,10,20z"/></g>
    </svg>
  </g>
  <!-- Icon 33: 24px -->
  <g transform="translate(436, 332)">
    <rect width="48" height="48" fill="#ffffff" stroke="#e9ecef" stroke-width="1" rx="4"/>
    <svg x="8" y="8" width="32" height="32" viewBox="0 0 24 24">
      <path d="M0 0h24v24H0z" fill="#2563eb"/><path d="M12 3L4 9v12h5v-7h6v7h5V9z"/>
    </svg>
  </g>
  <!-- Icon 34: 24px -->
  <g transform="translate(496, 332)">
    <rect width="48" height="48" fill="#ffffff" stroke="#e9ecef" stroke-width="1" rx="4"/>
    <svg x="8" y="8" width="32" height="32" viewBox="0 0 24 24">
      <path d="M0 0h24v24H0z" fill="#2563eb"/><path d="M20 13H4c-.55 0-1 .45-1 1v6c0 .55.45 1 1 1h16c.55 0 1-.45 1-1v-6c0-.55-.45-1-1-1zM7 19c-1.1 0-2-.9-2-2s.9-2 2-2 2 .9 2 2-.9 2-2 2zM20 3H4c-.55 0-1 .45-1 1v6c0 .55.45 1 1 1h16c.55 0 1-.45 1-1V4c0-.55-.45-1-1-1zM7 9c-1.1 0-2-.9-2-2s.9-2 2-2 2 .9 2 2-.9 2-2 2z"/>
    </svg>
  </g>
  <!-- Icon 35: 24px -->
  <g transform="translate(556, 332)">
    <rect width="48" height="48" fill="#ffffff" stroke="#e9ecef" stroke-width="1" rx="4"/>
    <svg x="8" y="8" width="32" height="32" viewBox="0 0 24 24">
      <path d="M0 0h24v24H0z" fill="#2563eb"/><path d="M17 3H7c-1.1 0-1.99.9-1.99 2L5 21l7-3 7 3V5c0-1.1-.9-2-2-2z"/>
    </svg>
  </g>
  
  <!-- Footer -->
  <text x="400" y="580" text-anchor="middle" font-family="system-ui, -apple-system, sans-serif" font-size="12" fill="#6c757d">
    Showing 35 of 2870 icons
  </text>
  
</svg>