<svg width="448" height="368" xmlns="http://www.w3.org/2000/svg">
  <!-- Background -->
  <rect width="448" height="368" fill="#1a1a1a"/>
  
  <!-- Icon Grid -->
  <!-- Icon 1: 24px -->
  <g transform="translate(20, 20)">
    <rect width="48" height="48" fill="#1a1a1a" stroke="#333333" stroke-width="1" rx="4"/>
    <svg x="8" y="8" width="32" height="32" viewBox="0 0 24 24" style="fill: #ffffff; stroke: none;">
      <path d="M0 0h24v24H0z" fill="none"/><path d="M17 7H7c-2.76 0-5 2.24-5 5s2.24 5 5 5h10c2.76 0 5-2.24 5-5s-2.24-5-5-5zm0 8c-1.66 0-3-1.34-3-3s1.34-3 3-3 3 1.34 3 3-1.34 3-3 3z"/>
    </svg>
  </g>
  <!-- Icon 2: 24px -->
  <g transform="translate(80, 20)">
    <rect width="48" height="48" fill="#1a1a1a" stroke="#333333" stroke-width="1" rx="4"/>
    <svg x="8" y="8" width="32" height="32" viewBox="0 0 24 24" style="fill: #ffffff; stroke: none;">
      <path d="M0 0h24v24H0V0z" fill="none"/><path d="M21 3H3c-1.11 0-2 .89-2 2v12c0 1.1.89 2 2 2h5v2h8v-2h5c1.1 0 1.99-.9 1.99-2L23 5c0-1.11-.9-2-2-2zm0 14H3V5h18v12zm-5-6l-7 4V7z"/>
    </svg>
  </g>
  <!-- Icon 3: 24px -->
  <g transform="translate(140, 20)">
    <rect width="48" height="48" fill="#1a1a1a" stroke="#333333" stroke-width="1" rx="4"/>
    <svg x="8" y="8" width="32" height="32" viewBox="0 0 24 24" style="fill: #ffffff; stroke: none;">
      <path d="M0 0h24v24H0z" fill="none"/><circle cx="7" cy="6" r="2"/><path d="M11.15 12c-.31-.22-.59-.46-.82-.72l-1.4-1.55c-.19-.21-.43-.38-.69-.5-.29-.14-.62-.23-.96-.23h-.03C6.01 9 5 10.01 5 11.25V12H2v8c0 1.1.9 2 2 2h16c1.1 0 2-.9 2-2v-8H11.15zM7 20H5v-6h2v6zm4 0H9v-6h2v6zm4 0h-2v-6h2v6zm4 0h-2v-6h2v6zm-.35-14.14l-.07-.07c-.57-.62-.82-1.41-.67-2.2L18 3h-1.89l-.06.43c-.2 1.36.27 2.71 1.3 3.72l.07.06c.57.62.82 1.41.67 2.2l-.11.59h1.91l.06-.43c.21-1.36-.27-2.71-1.3-3.71zm-4 0l-.07-.07c-.57-.62-.82-1.41-.67-2.2L14 3h-1.89l-.06.43c-.2 1.36.27 2.71 1.3 3.72l.07.06c.57.62.82 1.41.67 2.2l-.11.59h1.91l.06-.43c.21-1.36-.27-2.71-1.3-3.71z"/>
    </svg>
  </g>
  <!-- Icon 4: 24px -->
  <g transform="translate(200, 20)">
    <rect width="48" height="48" fill="#1a1a1a" stroke="#333333" stroke-width="1" rx="4"/>
    <svg x="8" y="8" width="32" height="32" viewBox="0 0 24 24" style="fill: #ffffff; stroke: none;">
      <rect fill="none" height="24" width="24"/><path d="M11,5.5H8V4h0.5c0.55,0,1-0.45,1-1c0-0.55-0.45-1-1-1h-3c-0.55,0-1,0.45-1,1c0,0.55,0.45,1,1,1H6v1.5H3c-0.55,0-1,0.45-1,1 c0,0.55,0.45,1,1,1V15c0,1.1,0.9,2,2,2h1v4l2,1.5V17h1c1.1,0,2-0.9,2-2V7.5c0.55,0,1-0.45,1-1C12,5.95,11.55,5.5,11,5.5z M9,9H7.25 C6.84,9,6.5,9.34,6.5,9.75c0,0.41,0.34,0.75,0.75,0.75H9V12H7.25c-0.41,0-0.75,0.34-0.75,0.75c0,0.41,0.34,0.75,0.75,0.75H9L9,15H5 V7.5h4V9z M19.5,10.5V10c0.55,0,1-0.45,1-1c0-0.55-0.45-1-1-1h-5c-0.55,0-1,0.45-1,1c0,0.55,0.45,1,1,1v0.5c0,0.5-1.5,1.16-1.5,3V20 c0,1.1,0.9,2,2,2h4c1.1,0,2-0.9,2-2v-6.5C21,11.66,19.5,11,19.5,10.5z M16.5,10.5V10h1v0.5c0,1.6,1.5,2,1.5,3V14h-4 c0-0.21,0-0.39,0-0.5C15,12.5,16.5,12.1,16.5,10.5z M15,20c0,0,0-0.63,0-1.5h4V20H15z"/>
    </svg>
  </g>
  <!-- Icon 5: 24px -->
  <g transform="translate(260, 20)">
    <rect width="48" height="48" fill="#1a1a1a" stroke="#333333" stroke-width="1" rx="4"/>
    <svg x="8" y="8" width="32" height="32" viewBox="0 0 24 24" style="fill: #ffffff; stroke: none;">
      <rect fill="none" height="24" width="24"/><path d="M11,5h2v14h-2V5z M5,12c1.1,0,2-0.9,2-2c0-1.1-0.9-2-2-2s-2,0.9-2,2C3,11.1,3.9,12,5,12z M7.78,13.58 C6.93,13.21,5.99,13,5,13s-1.93,0.21-2.78,0.58C1.48,13.9,1,14.62,1,15.43L1,16h8l0-0.57C9,14.62,8.52,13.9,7.78,13.58z M19,12 c1.1,0,2-0.9,2-2c0-1.1-0.9-2-2-2s-2,0.9-2,2C17,11.1,17.9,12,19,12z M21.78,13.58C20.93,13.21,19.99,13,19,13s-1.93,0.21-2.78,0.58 C15.48,13.9,15,14.62,15,15.43L15,16h8l0-0.57C23,14.62,22.52,13.9,21.78,13.58z"/>
    </svg>
  </g>
  <!-- Icon 6: 20px -->
  <g transform="translate(320, 20)">
    <rect width="48" height="48" fill="#1a1a1a" stroke="#333333" stroke-width="1" rx="4"/>
    <svg x="8" y="8" width="32" height="32" viewBox="0 0 20 20" style="fill: #ffffff; stroke: none;">
      <g><rect fill="none" height="20" width="20"/></g><g><g><path d="M11.5,7h-3C7.67,7,7,7.67,7,8.5V13h1.5v5h3v-5H13V8.5C13,7.67,12.33,7,11.5,7z"/><rect height="2.83" transform="matrix(0.7071 -0.7071 0.7071 0.7071 0.1005 8.2426)" width="2.83" x="8.59" y="2.59"/></g></g>
    </svg>
  </g>
  <!-- Icon 7: 20px -->
  <g transform="translate(380, 20)">
    <rect width="48" height="48" fill="#1a1a1a" stroke="#333333" stroke-width="1" rx="4"/>
    <svg x="8" y="8" width="32" height="32" viewBox="0 0 20 20" style="fill: #ffffff; stroke: none;">
      <g><rect fill="none" height="20" width="20"/></g><g><g/><path d="M9.99,3C6.13,3,3,6.14,3,10s3.13,7,6.99,7c3.87,0,7.01-3.14,7.01-7S13.86,3,9.99,3z M7,7c0.55,0,1,0.45,1,1 c0,0.55-0.45,1-1,1S6,8.55,6,8C6,7.45,6.45,7,7,7z M10,14c-1.86,0-3.41-1.28-3.86-3h7.72C13.41,12.72,11.86,14,10,14z M13,9 c-0.55,0-1-0.45-1-1c0-0.55,0.45-1,1-1s1,0.45,1,1C14,8.55,13.55,9,13,9z"/></g>
    </svg>
  </g>
  <!-- Icon 8: 24px -->
  <g transform="translate(20, 80)">
    <rect width="48" height="48" fill="#1a1a1a" stroke="#333333" stroke-width="1" rx="4"/>
    <svg x="8" y="8" width="32" height="32" viewBox="0 0 24 24" style="fill: #ffffff; stroke: none;">
      <g><rect fill="none" height="24" width="24"/></g><g><path d="M20,19V3H4v16H2v2h20v-2H20z M6,19v-6h5v1.8c-0.4,0.3-0.8,0.8-0.8,1.4c0,1,0.8,1.8,1.8,1.8s1.8-0.8,1.8-1.8 c0-0.6-0.3-1.1-0.8-1.4V13h5v6H6z"/></g>
    </svg>
  </g>
  <!-- Icon 9: 24px -->
  <g transform="translate(80, 80)">
    <rect width="48" height="48" fill="#1a1a1a" stroke="#333333" stroke-width="1" rx="4"/>
    <svg x="8" y="8" width="32" height="32" viewBox="0 0 24 24" style="fill: #ffffff; stroke: none;">
      <path d="M0 0h24v24H0z" fill="none"/><path d="M9 16.17L4.83 12l-1.42 1.41L9 19 21 7l-1.41-1.41z"/>
    </svg>
  </g>
  <!-- Icon 10: 20px -->
  <g transform="translate(140, 80)">
    <rect width="48" height="48" fill="#1a1a1a" stroke="#333333" stroke-width="1" rx="4"/>
    <svg x="8" y="8" width="32" height="32" viewBox="0 0 20 20" style="fill: #ffffff; stroke: none;">
      <g><rect fill="none" height="20" width="20"/></g><g><path d="M14.25,11.5H13v-3h1.25C15.77,8.5,17,7.27,17,5.75S15.77,3,14.25,3S11.5,4.23,11.5,5.75V7h-3V5.75C8.5,4.23,7.27,3,5.75,3 S3,4.23,3,5.75S4.23,8.5,5.75,8.5H7v3H5.75C4.23,11.5,3,12.73,3,14.25S4.23,17,5.75,17s2.75-1.23,2.75-2.75V13h3v1.25 c0,1.52,1.23,2.75,2.75,2.75S17,15.77,17,14.25S15.77,11.5,14.25,11.5z M13,5.75c0-0.69,0.56-1.25,1.25-1.25s1.25,0.56,1.25,1.25 S14.94,7,14.25,7H13V5.75z M5.75,7C5.06,7,4.5,6.44,4.5,5.75S5.06,4.5,5.75,4.5S7,5.06,7,5.75V7H5.75z M7,14.25 c0,0.69-0.56,1.25-1.25,1.25c-0.69,0-1.25-0.56-1.25-1.25S5.06,13,5.75,13H7h0V14.25z M8.5,11.5L8.5,11.5l0-3h3v3H8.5z M14.25,15.5 c-0.69,0-1.25-0.56-1.25-1.25V13h1.25c0.69,0,1.25,0.56,1.25,1.25S14.94,15.5,14.25,15.5z"/></g>
    </svg>
  </g>
  <!-- Icon 11: 24px -->
  <g transform="translate(200, 80)">
    <rect width="48" height="48" fill="#1a1a1a" stroke="#333333" stroke-width="1" rx="4"/>
    <svg x="8" y="8" width="32" height="32" viewBox="0 0 24 24" style="fill: #ffffff; stroke: none;">
      <path d="M0 0h24v24H0z" fill="none"/><path d="M7.41 18.59L8.83 20 12 16.83 15.17 20l1.41-1.41L12 14l-4.59 4.59zm9.18-13.18L15.17 4 12 7.17 8.83 4 7.41 5.41 12 10l4.59-4.59z"/>
    </svg>
  </g>
  <!-- Icon 12: 24px -->
  <g transform="translate(260, 80)">
    <rect width="48" height="48" fill="#1a1a1a" stroke="#333333" stroke-width="1" rx="4"/>
    <svg x="8" y="8" width="32" height="32" viewBox="0 0 24 24" style="fill: #ffffff; stroke: none;">
      <path d="M0 0h24v24H0z" fill="none"/><path d="M20 4H4v2h16V4zm1 10v-2l-1-5H4l-1 5v2h1v6h10v-6h4v6h2v-6h1zm-9 4H6v-4h6v4z"/>
    </svg>
  </g>
  <!-- Icon 13: 24px -->
  <g transform="translate(320, 80)">
    <rect width="48" height="48" fill="#1a1a1a" stroke="#333333" stroke-width="1" rx="4"/>
    <svg x="8" y="8" width="32" height="32" viewBox="0 0 24 24" style="fill: #ffffff; stroke: none;">
      <g><rect fill="none" height="24" width="24"/></g><g><path d="M20,7h-5V4c0-1.1-0.9-2-2-2h-2C9.9,2,9,2.9,9,4v3H4C2.9,7,2,7.9,2,9v11c0,1.1,0.9,2,2,2h16c1.1,0,2-0.9,2-2V9 C22,7.9,21.1,7,20,7z M11,4h2v5h-2V4z M11,16H9v2H7v-2H5v-2h2v-2h2v2h2V16z M13,14.5V13h6v1.5H13z M13,17.5V16h4v1.5H13z"/></g>
    </svg>
  </g>
  <!-- Icon 14: 20px -->
  <g transform="translate(380, 80)">
    <rect width="48" height="48" fill="#1a1a1a" stroke="#333333" stroke-width="1" rx="4"/>
    <svg x="8" y="8" width="32" height="32" viewBox="0 0 20 20" style="fill: #ffffff; stroke: none;">
      <rect fill="none" height="20" width="20"/><polygon points="16.81,7.8 15.31,5.2 11.5,7.4 11.5,3 8.5,3 8.5,7.4 4.69,5.2 3.19,7.8 7,10 3.19,12.2 4.69,14.8 8.5,12.6 8.5,17 11.5,17 11.5,12.6 15.31,14.8 16.81,12.2 13,10"/>
    </svg>
  </g>
  <!-- Icon 15: 24px -->
  <g transform="translate(20, 140)">
    <rect width="48" height="48" fill="#1a1a1a" stroke="#333333" stroke-width="1" rx="4"/>
    <svg x="8" y="8" width="32" height="32" viewBox="0 0 24 24" style="fill: #ffffff; stroke: none;">
      <g><rect fill="none" height="24" width="24"/></g><g><path d="M10.43,18.75C10.8,18.29,11.37,18,12,18c0.63,0,1.19,0.29,1.56,0.75c0.39-0.09,0.76-0.21,1.12-0.36l-1.42-3.18 c-0.39,0.15-0.82,0.23-1.26,0.23c-0.46,0-0.9-0.09-1.3-0.25l-1.43,3.19C9.65,18.54,10.03,18.67,10.43,18.75z M5.15,10 c-0.16,0.59-0.25,1.21-0.25,1.85c0,0.75,0.12,1.47,0.33,2.15c0.63,0.05,1.22,0.4,1.56,0.99c0.33,0.57,0.35,1.23,0.11,1.79 c0.27,0.27,0.56,0.53,0.87,0.76l1.52-3.39v0c-0.47-0.58-0.75-1.32-0.75-2.13c0-1.89,1.55-3.41,3.46-3.41 c1.91,0,3.46,1.53,3.46,3.41c0,0.82-0.29,1.57-0.78,2.16l1.5,3.35c0.32-0.24,0.62-0.5,0.9-0.79c-0.22-0.55-0.2-1.2,0.12-1.75 c0.33-0.57,0.9-0.92,1.52-0.99c0.22-0.68,0.34-1.41,0.34-2.16c0-0.64-0.09-1.27-0.25-1.86c-0.64-0.04-1.26-0.39-1.6-1 c-0.36-0.62-0.35-1.36-0.03-1.95c-0.91-0.98-2.1-1.71-3.44-2.05C13.39,5.6,12.74,6,12,6c-0.74,0-1.39-0.41-1.74-1.01 C8.92,5.33,7.73,6.04,6.82,7.02C7.15,7.62,7.17,8.37,6.8,9C6.45,9.62,5.81,9.97,5.15,10z M3.85,9.58C3.07,8.98,2.83,7.88,3.34,7 c0.51-0.88,1.58-1.23,2.49-0.85c1.11-1.17,2.56-2.03,4.18-2.42C10.15,2.75,10.99,2,12,2c1.01,0,1.85,0.75,1.98,1.73 c1.63,0.39,3.07,1.24,4.18,2.42c0.91-0.38,1.99-0.03,2.49,0.85c0.51,0.88,0.27,1.98-0.51,2.58c0.23,0.77,0.35,1.58,0.35,2.42 s-0.12,1.65-0.35,2.42c0.78,0.6,1.02,1.7,0.51,2.58c-0.51,0.88-1.58,1.23-2.49,0.85c-0.4,0.43-0.85,0.81-1.34,1.15l1.34,3H16.3 l-0.97-2.17c-0.43,0.18-0.88,0.33-1.34,0.44C13.85,21.25,13.01,22,12,22c-1.01,0-1.85-0.75-1.98-1.73 C9.54,20.15,9.08,20,8.64,19.81L7.66,22H5.78l1.36-3.03c-0.47-0.33-0.91-0.71-1.3-1.12C4.92,18.23,3.85,17.88,3.34,17 c-0.51-0.88-0.27-1.98,0.51-2.58C3.62,13.65,3.5,12.84,3.5,12S3.62,10.35,3.85,9.58z"/></g>
    </svg>
  </g>
  <!-- Icon 16: 24px -->
  <g transform="translate(80, 140)">
    <rect width="48" height="48" fill="#1a1a1a" stroke="#333333" stroke-width="1" rx="4"/>
    <svg x="8" y="8" width="32" height="32" viewBox="0 0 24 24" style="fill: #ffffff; stroke: none;">
      <path d="M0 0h24v24H0z" fill="none"/><path d="M21.99 4c0-1.1-.89-2-1.99-2H4c-1.1 0-2 .9-2 2v12c0 1.1.9 2 2 2h14l4 4-.01-18z"/>
    </svg>
  </g>
  <!-- Icon 17: 20px -->
  <g transform="translate(140, 140)">
    <rect width="48" height="48" fill="#1a1a1a" stroke="#333333" stroke-width="1" rx="4"/>
    <svg x="8" y="8" width="32" height="32" viewBox="0 0 20 20" style="fill: #ffffff; stroke: none;">
      <g><rect fill="none" height="20" width="20"/></g><g><g><rect height="6" width="3" x="13" y="10"/><rect height="8" width="3" x="4" y="8"/><rect height="12" width="3" x="8.5" y="4"/></g></g>
    </svg>
  </g>
  <!-- Icon 18: 20px -->
  <g transform="translate(200, 140)">
    <rect width="48" height="48" fill="#1a1a1a" stroke="#333333" stroke-width="1" rx="4"/>
    <svg x="8" y="8" width="32" height="32" viewBox="0 0 20 20" style="fill: #ffffff; stroke: none;">
      <g><rect fill="none" height="20" width="20"/></g><g><path d="M14,11.88V6H8.12l1.5,1.5h2.88v2.88L14,11.88z M4.5,17v-1.5H3C3,16.33,3.67,17,4.5,17z M3,13.88h1.5v-1.5H3V13.88z M3,10.75h1.5v-1.5H3V10.75z M15.5,10.75H17v-1.5h-1.5V10.75z M15.5,7.62H17v-1.5h-1.5V7.62z M15.5,3v1.5H17 C17,3.67,16.33,3,15.5,3z M12.38,4.5h1.5V3h-1.5V4.5z M9.25,4.5h1.5V3h-1.5V4.5z M6.12,17h1.5v-1.5h-1.5V17z M9.25,17h1.5v-1.5 h-1.5V17z M17.07,17.07L2.93,2.93L1.87,3.99L4,6.12H3v1.5h1.5v-1L6,8.12V14h5.88l1.5,1.5h-1V17h1.5v-1l2.13,2.13L17.07,17.07z M7.62,4.5V3h-1.5v1l0.5,0.5H7.62z M17,13.88v-1.5h-1.5v1l0.5,0.5H17z M10.38,12.5H7.5V9.62L10.38,12.5z"/></g>
    </svg>
  </g>
  <!-- Icon 19: 24px -->
  <g transform="translate(260, 140)">
    <rect width="48" height="48" fill="#1a1a1a" stroke="#333333" stroke-width="1" rx="4"/>
    <svg x="8" y="8" width="32" height="32" viewBox="0 0 24 24" style="fill: #ffffff; stroke: none;">
      <path d="M0 0h24v24H0z" fill="none"/><path d="M20 2H8c-1.1 0-2 .9-2 2v12c0 1.1.9 2 2 2h12c1.1 0 2-.9 2-2V4c0-1.1-.9-2-2-2zm-8.5 7.5c0 .83-.67 1.5-1.5 1.5H9v2H7.5V7H10c.83 0 1.5.67 1.5 1.5v1zm5 2c0 .83-.67 1.5-1.5 1.5h-2.5V7H15c.83 0 1.5.67 1.5 1.5v3zm4-3H19v1h1.5V11H19v2h-1.5V7h3v1.5zM9 9.5h1v-1H9v1zM4 6H2v14c0 1.1.9 2 2 2h14v-2H4V6zm10 5.5h1v-3h-1v3z"/>
    </svg>
  </g>
  <!-- Icon 20: 24px -->
  <g transform="translate(320, 140)">
    <rect width="48" height="48" fill="#1a1a1a" stroke="#333333" stroke-width="1" rx="4"/>
    <svg x="8" y="8" width="32" height="32" viewBox="0 0 24 24" style="fill: #ffffff; stroke: none;">
      <path d="M0 0h24v24H0z" fill="none"/><path d="M20 2H4c-1.1 0-2 .9-2 2v16c0 1.1.9 2 2 2h16c1.1 0 2-.9 2-2V4c0-1.1-.9-2-2-2zM8 20H4v-4h4v4zm0-6H4v-4h4v4zm0-6H4V4h4v4zm6 12h-4v-4h4v4zm0-6h-4v-4h4v4zm0-6h-4V4h4v4zm6 12h-4v-4h4v4zm0-6h-4v-4h4v4zm0-6h-4V4h4v4z"/>
    </svg>
  </g>
  <!-- Icon 21: 24px -->
  <g transform="translate(380, 140)">
    <rect width="48" height="48" fill="#1a1a1a" stroke="#333333" stroke-width="1" rx="4"/>
    <svg x="8" y="8" width="32" height="32" viewBox="0 0 24 24" style="fill: #ffffff; stroke: none;">
      <path d="M0 0h24v24H0V0z" fill="none"/><path d="M0 0h24v24H0V0z" fill="none"/><path d="M4 6H2v14c0 1.1.9 2 2 2h14v-2H4V6z"/><path d="M20 2H8c-1.1 0-2 .9-2 2v12c0 1.1.9 2 2 2h12c1.1 0 2-.9 2-2V4c0-1.1-.9-2-2-2zm0 10l-2.5-1.5L15 12V4h5v8z"/>
    </svg>
  </g>
  <!-- Icon 22: 20px -->
  <g transform="translate(20, 200)">
    <rect width="48" height="48" fill="#1a1a1a" stroke="#333333" stroke-width="1" rx="4"/>
    <svg x="8" y="8" width="32" height="32" viewBox="0 0 20 20" style="fill: #ffffff; stroke: none;">
      <g><rect fill="none" height="20" width="20"/></g><g><g><path d="M8,10c0,1.1,0.9,2,2,2s2-0.9,2-2s-0.9-2-2-2S8,8.9,8,10z"/><path d="M7,7H4.83C5.86,5.21,7.79,4,10,4c2.61,0,4.82,1.67,5.65,4h1.06C15.85,5.11,13.17,3,10,3C7.44,3,5.22,4.39,4,6.44V4H3v4h4 V7z"/><path d="M13,12v1h2.17c-1.04,1.79-2.96,3-5.17,3c-2.61,0-4.82-1.67-5.65-4H3.29c0.86,2.89,3.54,5,6.71,5c2.56,0,4.78-1.39,6-3.44 V16h1v-4H13z"/></g></g>
    </svg>
  </g>
  <!-- Icon 23: 24px -->
  <g transform="translate(80, 200)">
    <rect width="48" height="48" fill="#1a1a1a" stroke="#333333" stroke-width="1" rx="4"/>
    <svg x="8" y="8" width="32" height="32" viewBox="0 0 24 24" style="fill: #ffffff; stroke: none;">
      <path d="M0 0h24v24H0z" fill="none"/><path d="M4 6H2v14c0 1.1.9 2 2 2h14v-2H4V6zm16-4H8c-1.1 0-2 .9-2 2v12c0 1.1.9 2 2 2h12c1.1 0 2-.9 2-2V4c0-1.1-.9-2-2-2zm-1 9H9V9h10v2zm-4 4H9v-2h6v2zm4-8H9V5h10v2z"/>
    </svg>
  </g>
  <!-- Icon 24: 24px -->
  <g transform="translate(140, 200)">
    <rect width="48" height="48" fill="#1a1a1a" stroke="#333333" stroke-width="1" rx="4"/>
    <svg x="8" y="8" width="32" height="32" viewBox="0 0 24 24" style="fill: #ffffff; stroke: none;">
      <g><path d="M0,0h24v24H0V0z" fill="none"/></g><g><g><path d="M21.98,14H22H21.98z M5.35,13c1.19,0,1.42,1,3.33,1c1.95,0,2.09-1,3.33-1c1.19,0,1.42,1,3.33,1c1.95,0,2.09-1,3.33-1 c1.19,0,1.4,0.98,3.31,1v-2c-1.19,0-1.42-1-3.33-1c-1.95,0-2.09,1-3.33,1c-1.19,0-1.42-1-3.33-1c-1.95,0-2.09,1-3.33,1 c-1.19,0-1.42-1-3.33-1C3.38,11,3.24,12,2,12v2C3.9,14,4.17,13,5.35,13z M18.67,15c-1.95,0-2.09,1-3.33,1c-1.19,0-1.42-1-3.33-1 c-1.95,0-2.1,1-3.34,1c-1.24,0-1.38-1-3.33-1c-1.95,0-2.1,1-3.34,1v2c1.95,0,2.11-1,3.34-1c1.24,0,1.38,1,3.33,1 c1.95,0,2.1-1,3.34-1c1.19,0,1.42,1,3.33,1c1.94,0,2.09-1,3.33-1c1.19,0,1.42,1,3.33,1v-2C20.76,16,20.62,15,18.67,15z M5.35,9 c1.19,0,1.42,1,3.33,1c1.95,0,2.09-1,3.33-1c1.19,0,1.42,1,3.33,1c1.95,0,2.09-1,3.33-1c1.19,0,1.4,0.98,3.31,1V8 c-1.19,0-1.42-1-3.33-1c-1.95,0-2.09,1-3.33,1c-1.19,0-1.42-1-3.33-1C10.04,7,9.9,8,8.66,8C7.47,8,7.24,7,5.33,7 C3.38,7,3.24,8,2,8v2C3.9,10,4.17,9,5.35,9z"/></g></g>
    </svg>
  </g>
  <!-- Icon 25: 20px -->
  <g transform="translate(200, 200)">
    <rect width="48" height="48" fill="#1a1a1a" stroke="#333333" stroke-width="1" rx="4"/>
    <svg x="8" y="8" width="32" height="32" viewBox="0 0 20 20" style="fill: #ffffff; stroke: none;">
      <g><rect fill="none" height="20" width="20"/></g><g><g><path d="M13,5.39V2h-1.5v3.39C10.63,5.7,10,6.52,10,7.5c0,0.98,0.63,1.8,1.5,2.11V13c0,1.38-1.12,2.5-2.5,2.5S6.5,14.38,6.5,13v-1 H9L5,8v5c0,2.21,1.79,4,4,4s4-1.79,4-4V9.61c0.87-0.31,1.5-1.13,1.5-2.11C14.5,6.52,13.87,5.7,13,5.39z M12.25,8.25 c-0.41,0-0.75-0.34-0.75-0.75c0-0.41,0.34-0.75,0.75-0.75S13,7.09,13,7.5C13,7.91,12.66,8.25,12.25,8.25z"/></g></g>
    </svg>
  </g>
  <!-- Icon 26: 20px -->
  <g transform="translate(260, 200)">
    <rect width="48" height="48" fill="#1a1a1a" stroke="#333333" stroke-width="1" rx="4"/>
    <svg x="8" y="8" width="32" height="32" viewBox="0 0 20 20" style="fill: #ffffff; stroke: none;">
      <rect fill="none" height="20" width="20"/><path d="M10,3c-3.87,0-7,3.13-7,7s3.13,7,7,7s7-3.13,7-7c0-0.36-0.03-0.72-0.08-1.06C16.16,10,14.91,10.7,13.5,10.7 c-2.32,0-4.2-1.88-4.2-4.2c0-1.41,0.7-2.66,1.76-3.42C10.72,3.03,10.36,3,10,3L10,3z"/>
    </svg>
  </g>
  <!-- Icon 27: 20px -->
  <g transform="translate(320, 200)">
    <rect width="48" height="48" fill="#1a1a1a" stroke="#333333" stroke-width="1" rx="4"/>
    <svg x="8" y="8" width="32" height="32" viewBox="0 0 20 20" style="fill: #ffffff; stroke: none;">
      <g><rect fill="none" height="20" width="20"/></g><g><path d="M16.5,4h-13C2.67,4,2,4.67,2,5.5v9C2,15.33,2.67,16,3.5,16h13c0.83,0,1.5-0.67,1.5-1.5v-9C18,4.67,17.33,4,16.5,4z M3.5,5.5h1v9h-1V5.5z M16.5,14.5h-1v-9h1V14.5z"/></g>
    </svg>
  </g>
  <!-- Icon 28: 24px -->
  <g transform="translate(380, 200)">
    <rect width="48" height="48" fill="#1a1a1a" stroke="#333333" stroke-width="1" rx="4"/>
    <svg x="8" y="8" width="32" height="32" viewBox="0 0 24 24" style="fill: #ffffff; stroke: none;">
      <path d="M0 0h24v24H0z" fill="none"/><path d="M21 3H3c-1.1 0-2 .9-2 2v14c0 1.1.9 2 2 2h18c1.1 0 2-.9 2-2V5c0-1.1-.9-2-2-2zm0 16H3V5h10v4h8v10z"/>
    </svg>
  </g>
  <!-- Icon 29: 24px -->
  <g transform="translate(20, 260)">
    <rect width="48" height="48" fill="#1a1a1a" stroke="#333333" stroke-width="1" rx="4"/>
    <svg x="8" y="8" width="32" height="32" viewBox="0 0 24 24" style="fill: #ffffff; stroke: none;">
      <g><rect fill="none" height="24" width="24"/></g><g><path d="M20.5,4c-2.61,0.7-5.67,1-8.5,1S6.11,4.7,3.5,4L3,6c1.86,0.5,4,0.83,6,1v12h2v-6h2v6h2V7c2-0.17,4.14-0.5,6-1L20.5,4z M12,4c1.1,0,2-0.9,2-2s-0.9-2-2-2s-2,0.9-2,2S10.9,4,12,4z M7,24h2v-2H7V24z M11,24h2v-2h-2V24z M15,24h2v-2h-2V24z"/></g>
    </svg>
  </g>
  <!-- Icon 30: 24px -->
  <g transform="translate(80, 260)">
    <rect width="48" height="48" fill="#1a1a1a" stroke="#333333" stroke-width="1" rx="4"/>
    <svg x="8" y="8" width="32" height="32" viewBox="0 0 24 24" style="fill: #ffffff; stroke: none;">
      <g><rect fill="none" height="24" width="24"/><path d="M17,12c-2.76,0-5,2.24-5,5s2.24,5,5,5c2.76,0,5-2.24,5-5S19.76,12,17,12z M18.65,19.35l-2.15-2.15V14h1v2.79l1.85,1.85 L18.65,19.35z M18,3h-3.18C14.4,1.84,13.3,1,12,1S9.6,1.84,9.18,3H6C4.9,3,4,3.9,4,5v15c0,1.1,0.9,2,2,2h6.11 c-0.59-0.57-1.07-1.25-1.42-2H6V5h2v3h8V5h2v5.08c0.71,0.1,1.38,0.31,2,0.6V5C20,3.9,19.1,3,18,3z M12,5c-0.55,0-1-0.45-1-1 c0-0.55,0.45-1,1-1c0.55,0,1,0.45,1,1C13,4.55,12.55,5,12,5z"/></g>
    </svg>
  </g>
  <!-- Icon 31: 24px -->
  <g transform="translate(140, 260)">
    <rect width="48" height="48" fill="#1a1a1a" stroke="#333333" stroke-width="1" rx="4"/>
    <svg x="8" y="8" width="32" height="32" viewBox="0 0 24 24" style="fill: #ffffff; stroke: none;">
      <path d="M0 0h24v24H0z" fill="none"/><path d="M19 19H5V5h7V3H5c-1.11 0-2 .9-2 2v14c0 1.1.89 2 2 2h14c1.1 0 2-.9 2-2v-7h-2v7zM14 3v2h3.59l-9.83 9.83 1.41 1.41L19 6.41V10h2V3h-7z"/>
    </svg>
  </g>
  <!-- Icon 32: 20px -->
  <g transform="translate(200, 260)">
    <rect width="48" height="48" fill="#1a1a1a" stroke="#333333" stroke-width="1" rx="4"/>
    <svg x="8" y="8" width="32" height="32" viewBox="0 0 20 20" style="fill: #ffffff; stroke: none;">
      <g><rect fill="none" height="20" width="20"/></g><g><g><path d="M15.89,4.82C16.15,4.49,15.92,4,15.5,4H6.12l5.73,5.73L15.89,4.82z"/><path d="M2.93,2.93L1.87,3.99L9,11.12v4.38C9,15.78,9.22,16,9.5,16h1c0.28,0,0.5-0.22,0.5-0.5v-2.38l5.01,5.01l1.06-1.06 L2.93,2.93z"/></g></g>
    </svg>
  </g>
  <!-- Icon 33: 20px -->
  <g transform="translate(260, 260)">
    <rect width="48" height="48" fill="#1a1a1a" stroke="#333333" stroke-width="1" rx="4"/>
    <svg x="8" y="8" width="32" height="32" viewBox="0 0 20 20" style="fill: #ffffff; stroke: none;">
      <g><rect fill="none" height="20" width="20"/></g><g><path d="M16,3H4C3.45,3,3,3.45,3,4v13l3-3h10c0.55,0,1-0.45,1-1V4C17,3.45,16.55,3,16,3z M15,11l-2-1.31L11,11V5h4V11z"/></g>
    </svg>
  </g>
  <!-- Icon 34: 24px -->
  <g transform="translate(320, 260)">
    <rect width="48" height="48" fill="#1a1a1a" stroke="#333333" stroke-width="1" rx="4"/>
    <svg x="8" y="8" width="32" height="32" viewBox="0 0 24 24" style="fill: #ffffff; stroke: none;">
      <path d="M16.21 4.16l4 4v-4zm4 12l-4 4h4zm-12 4l-4-4v4zm-4-12l4-4h-4zm12.95-.95c-2.73-2.73-7.17-2.73-9.9 0s-2.73 7.17 0 9.9 7.17 2.73 9.9 0 2.73-7.16 0-9.9zm-1.1 8.8c-2.13 2.13-5.57 2.13-7.7 0s-2.13-5.57 0-7.7 5.57-2.13 7.7 0 2.13 5.57 0 7.7z"/><path d="M.21.16h24v24h-24z" fill="none"/>
    </svg>
  </g>
  <!-- Icon 35: 24px -->
  <g transform="translate(380, 260)">
    <rect width="48" height="48" fill="#1a1a1a" stroke="#333333" stroke-width="1" rx="4"/>
    <svg x="8" y="8" width="32" height="32" viewBox="0 0 24 24" style="fill: #ffffff; stroke: none;">
      <g><rect fill="none" height="24" width="24"/></g><g><g><polygon points="10,8 10,14 14.7,16.9 15.5,15.7 11.5,13.3 11.5,8"/><path d="M17.92,12c0.05,0.33,0.08,0.66,0.08,1c0,3.9-3.1,7-7,7s-7-3.1-7-7c0-3.9,3.1-7,7-7c0.7,0,1.37,0.1,2,0.29V4.23 C12.36,4.08,11.69,4,11,4c-5,0-9,4-9,9s4,9,9,9s9-4,9-9c0-0.34-0.02-0.67-0.06-1H17.92z"/><polygon points="20,5 20,2 18,2 18,5 15,5 15,7 18,7 18,10 20,10 20,7 23,7 23,5"/></g></g>
    </svg>
  </g>

  <!-- Title Background -->
  <rect x="0" y="323" width="448" height="60" fill="#1a1a1a"/>
  
  <!-- Title -->
  <text x="20" y="348" text-anchor="start" font-family="system-ui, -apple-system, sans-serif" font-size="18" font-weight="bold" fill="#ffffff">Material Design Icons - filled</text>

</svg>