<svg width="800" height="600" xmlns="http://www.w3.org/2000/svg">
  <!-- Background -->
  <rect width="800" height="600" fill="#ffffff"/>
  
  <!-- Header Background -->
  <rect width="800" height="80" fill="#f8f9fa"/>
  
  <!-- Title -->
  <text x="400" y="30" text-anchor="middle" font-family="system-ui, -apple-system, sans-serif" font-size="20" font-weight="bold" fill="#212529">Material Design Icons - twotone</text>
  
  <!-- Subtitle -->
  <text x="400" y="55" text-anchor="middle" font-family="system-ui, -apple-system, sans-serif" font-size="14" fill="#6c757d">2,851 icons</text>
  
  <!-- Icon Grid -->
  <!-- Icon 1: 24px -->
  <g transform="translate(12, 92)">
    <rect width="48" height="48" fill="#ffffff" stroke="#e9ecef" stroke-width="1" rx="4"/>
    <svg x="8" y="8" width="32" height="32" viewBox="0 0 24 24">
      <path d="M0 0h24v24H0z" fill="#2563eb"/><path d="M17 8H7c-2.21 0-4 1.79-4 4s1.79 4 4 4h10c2.21 0 4-1.79 4-4s-1.79-4-4-4zm0 7c-1.66 0-3-1.34-3-3s1.34-3 3-3 3 1.34 3 3-1.34 3-3 3z" opacity=".3"/><path d="M17 6H7c-3.31 0-6 2.69-6 6s2.69 6 6 6h10c3.31 0 6-2.69 6-6s-2.69-6-6-6zm0 10H7c-2.21 0-4-1.79-4-4s1.79-4 4-4h10c2.21 0 4 1.79 4 4s-1.79 4-4 4zm0-7c-1.66 0-3 1.34-3 3s1.34 3 3 3 3-1.34 3-3-1.34-3-3-3z"/>
    </svg>
  </g>
  <!-- Icon 2: 24px -->
  <g transform="translate(72, 92)">
    <rect width="48" height="48" fill="#ffffff" stroke="#e9ecef" stroke-width="1" rx="4"/>
    <svg x="8" y="8" width="32" height="32" viewBox="0 0 24 24">
      <path d="M0 0h24v24H0V0z" fill="#2563eb"/><path d="M15.2 18.21c1.21.41 2.48.67 3.8.76v-1.5c-.88-.07-1.75-.22-2.6-.45l-1.2 1.19zM6.54 5h-1.5c.09 1.32.34 2.58.75 3.79l1.2-1.21c-.24-.83-.39-1.7-.45-2.58z" opacity=".3"/><path d="M20 15.5c-1.25 0-2.45-.2-3.57-.57-.1-.03-.21-.05-.31-.05-.26 0-.51.1-.71.29l-2.2 2.2c-2.83-1.44-5.15-3.75-6.59-6.59l2.2-2.21c.28-.26.36-.65.25-1C8.7 6.45 8.5 5.25 8.5 4c0-.55-.45-1-1-1H4c-.55 0-1 .45-1 1 0 9.39 7.61 17 17 17 .55 0 1-.45 1-1v-3.5c0-.55-.45-1-1-1zM5.03 5h1.5c.07.88.22 1.75.45 2.58l-1.2 1.21c-.4-1.21-.66-2.47-.75-3.79zM19 18.97c-1.32-.09-2.6-.35-3.8-.76l1.2-1.2c.85.24 1.72.39 2.6.45v1.51zM14.71 9.5L17 7.21V11h.5l2.85-2.85L18.21 6l2.15-2.15L17.5 1H17v3.79L14.71 2.5l-.71.71L16.79 6 14 8.79l.71.71zM18 2.91l.94.94-.94.94V2.91zm0 4.3l.94.94-.94.94V7.21z"/>
    </svg>
  </g>
  <!-- Icon 3: 24px -->
  <g transform="translate(132, 92)">
    <rect width="48" height="48" fill="#ffffff" stroke="#e9ecef" stroke-width="1" rx="4"/>
    <svg x="8" y="8" width="32" height="32" viewBox="0 0 24 24">
      <g><path d="M0,0h24v24H0V0z" fill="#2563eb"/></g><g><g><path d="M12,3c-4.99,0-9,4.01-9,9s4.01,9,9,9s9-4.01,9-9S16.99,3,12,3z M12.54,19.8c-0.35,0.27-0.79,0.27-1.15,0 L4.2,12.58c-0.27-0.36-0.27-0.8,0-1.16l7.19-7.22c0.35-0.27,0.79-0.27,1.15,0l7.19,7.22c0.36,0.27,0.36,0.8,0,1.16L12.54,19.8z" opacity=".3"/><path d="M12,1C5.9,1,1,5.9,1,12s4.9,11,11,11s11-4.9,11-11S18.1,1,12,1z M12,21c-4.99,0-9-4.01-9-9s4.01-9,9-9s9,4.01,9,9 S16.99,21,12,21z"/><path d="M19.73,11.42L12.54,4.2c-0.36-0.27-0.8-0.27-1.15,0L4.2,11.42c-0.27,0.36-0.27,0.8,0,1.16l7.19,7.22 c0.36,0.27,0.8,0.27,1.15,0l7.19-7.22C20.09,12.22,20.09,11.69,19.73,11.42z M13.5,14.5V12H10v3H8v-4c0-0.6,0.4-1,1-1h4.5V7.5 L17,11L13.5,14.5z"/></g></g>
    </svg>
  </g>
  <!-- Icon 4: 24px -->
  <g transform="translate(192, 92)">
    <rect width="48" height="48" fill="#ffffff" stroke="#e9ecef" stroke-width="1" rx="4"/>
    <svg x="8" y="8" width="32" height="32" viewBox="0 0 24 24">
      <g><rect fill="#2563eb" height="24" width="24"/></g><g><g><path d="M16.26,5c-0.35,0-0.8,0.01-1.33,0.06l4.03,4.03c0.14-1.63,0.01-3.07-0.17-3.86C18.28,5.12,17.4,5,16.26,5z" opacity=".3"/><path d="M5.21,18.77C5.72,18.88,6.6,19,7.74,19c0.34,0,0.79-0.01,1.3-0.05l-4.01-4.01 C4.91,16.56,5.03,17.98,5.21,18.77z" opacity=".3"/><path d="M7.87,7.87c-1.28,1.28-2.03,2.97-2.45,4.65l6.04,6.04c1.6-0.39,3.33-1.11,4.66-2.44 c1.28-1.28,2.03-2.95,2.44-4.63l-6.05-6.05C10.92,5.83,9.2,6.55,7.87,7.87z M15.5,9.9l-5.6,5.6l-1.4-1.4l5.6-5.6L15.5,9.9z" opacity=".3"/><path d="M20.31,3.69C19.99,3.36,18.37,3,16.26,3c-3.03,0-7.09,0.75-9.8,3.46C1.87,11.05,2.9,19.52,3.69,20.31 C4.01,20.64,5.63,21,7.74,21c3.03,0,7.09-0.75,9.8-3.46C22.13,12.95,21.1,4.48,20.31,3.69z M7.74,19c-1.14,0-2.02-0.12-2.53-0.23 c-0.18-0.79-0.3-2.21-0.17-3.83l4.01,4.01C8.53,18.99,8.08,19,7.74,19z M16.13,16.13c-1.33,1.33-3.06,2.05-4.66,2.44l-6.04-6.04 c0.42-1.68,1.16-3.37,2.45-4.65c1.32-1.32,3.05-2.04,4.64-2.43l6.05,6.05C18.15,13.17,17.4,14.85,16.13,16.13z M18.96,9.09 l-4.03-4.03C15.45,5.01,15.91,5,16.26,5c1.14,0,2.02,0.12,2.53,0.23C18.97,6.02,19.09,7.45,18.96,9.09z"/><rect height="1.98" transform="matrix(0.7071 -0.7071 0.7071 0.7071 -4.9706 12.0001)" width="7.92" x="8.04" y="11.01"/></g></g>
    </svg>
  </g>
  <!-- Icon 5: 20px -->
  <g transform="translate(252, 92)">
    <rect width="48" height="48" fill="#ffffff" stroke="#e9ecef" stroke-width="1" rx="4"/>
    <svg x="8" y="8" width="32" height="32" viewBox="0 0 20 20">
      <rect fill="#2563eb" height="20" width="20"/><path d="M8.6,6.47C8.81,5.91,9.36,5.5,10,5.5c0.83,0,1.5,0.67,1.5,1.5c0,0.64-0.41,1.19-0.97,1.4L8.6,6.47z M5.5,14.5 v-0.41c0-0.18,0.09-0.34,0.22-0.42C7.02,12.9,8.5,12.5,10,12.5c0.13,0,0.26,0,0.39,0.01l1.99,1.99H5.5z" opacity=".3"/><path d="M11.64,9.51C12.46,8.98,13,8.05,13,7c0-1.66-1.34-3-3-3C8.95,4,8.02,4.54,7.49,5.36L8.6,6.47C8.81,5.91,9.36,5.5,10,5.5 c0.83,0,1.5,0.67,1.5,1.5c0,0.64-0.41,1.19-0.97,1.4L11.64,9.51z M15.99,13.87c-0.07-0.62-0.41-1.18-0.95-1.5 c-0.35-0.21-0.72-0.39-1.1-0.56L15.99,13.87z M2.93,2.93L1.87,3.99l7.07,7.07c-1.44,0.15-2.78,0.62-3.97,1.31 C4.36,12.72,4,13.39,4,14.09V16h9.88l2.13,2.13l1.06-1.06L2.93,2.93z M5.5,14.5v-0.41c0-0.18,0.09-0.34,0.22-0.42 C7.02,12.9,8.5,12.5,10,12.5c0.13,0,0.26,0,0.39,0.01l1.99,1.99H5.5z"/>
    </svg>
  </g>
  <!-- Icon 6: 24px -->
  <g transform="translate(312, 92)">
    <rect width="48" height="48" fill="#ffffff" stroke="#e9ecef" stroke-width="1" rx="4"/>
    <svg x="8" y="8" width="32" height="32" viewBox="0 0 24 24">
      <g><rect fill="#2563eb" height="24" width="24"/></g><g><g><path d="M15.43,15.48c-1.1-0.49-2.26-0.73-3.43-0.73c-1.18,0-2.33,0.25-3.43,0.73c-0.23,0.1-0.4,0.29-0.49,0.52 h7.85C15.83,15.77,15.66,15.58,15.43,15.48z" opacity=".3"/><path d="M12.94,8.79C12.86,8.33,12.47,8,12,8s-0.86,0.33-0.94,0.79L10.86,10h2.28L12.94,8.79z" opacity=".3"/><path d="M10.27,12h3.46c0.93,0,1.63-0.83,1.48-1.75l-0.3-1.79C14.67,7.04,13.44,6,12,6S9.33,7.04,9.09,8.47l-0.3,1.79 C8.64,11.17,9.34,12,10.27,12z M11.06,8.79C11.14,8.33,11.53,8,12,8s0.86,0.33,0.94,0.79l0.2,1.21h-2.28L11.06,8.79z"/><path d="M1.66,11.11c-0.13,0.26-0.18,0.57-0.1,0.88c0.16,0.69,0.76,1.03,1.53,1c0,0,1.49,0,1.95,0c0.83,0,1.51-0.58,1.51-1.29 c0-0.14-0.03-0.27-0.07-0.4c-0.01-0.03-0.01-0.05,0.01-0.08c0.09-0.16,0.14-0.34,0.14-0.53c0-0.31-0.14-0.6-0.36-0.82 c-0.03-0.03-0.03-0.06-0.02-0.1c0.07-0.2,0.07-0.43,0.01-0.65C6.1,8.69,5.71,8.4,5.27,8.38c-0.03,0-0.05-0.01-0.07-0.03 C5.03,8.14,4.72,8,4.37,8C4.07,8,3.8,8.1,3.62,8.26C3.59,8.29,3.56,8.29,3.53,8.28c-0.14-0.06-0.3-0.09-0.46-0.09 c-0.65,0-1.18,0.49-1.24,1.12c0,0.02-0.01,0.04-0.03,0.06c-0.29,0.26-0.46,0.65-0.41,1.05c0.03,0.22,0.12,0.43,0.25,0.6 C1.67,11.04,1.67,11.08,1.66,11.11z"/><path d="M16.24,13.65c-1.17-0.52-2.61-0.9-4.24-0.9c-1.63,0-3.07,0.39-4.24,0.9C6.68,14.13,6,15.21,6,16.39V18h12v-1.61 C18,15.21,17.32,14.13,16.24,13.65z M8.07,16c0.09-0.23,0.27-0.42,0.49-0.52c1.1-0.49,2.26-0.73,3.43-0.73 c1.18,0,2.33,0.25,3.43,0.73c0.23,0.1,0.4,0.29,0.49,0.52H8.07z"/><path d="M1.22,14.58C0.48,14.9,0,15.62,0,16.43V18l4.5,0v-1.61c0-0.83,0.23-1.61,0.63-2.29C4.76,14.04,4.39,14,4,14 C3.01,14,2.07,14.21,1.22,14.58z"/><path d="M22.78,14.58C21.93,14.21,20.99,14,20,14c-0.39,0-0.76,0.04-1.13,0.1c0.4,0.68,0.63,1.46,0.63,2.29V18l4.5,0v-1.57 C24,15.62,23.52,14.9,22.78,14.58z"/><path d="M22,11v-0.5c0-1.1-0.9-2-2-2h-2c-0.42,0-0.65,0.48-0.39,0.81l0.7,0.63C18.12,10.25,18,10.61,18,11c0,1.1,0.9,2,2,2 S22,12.1,22,11z"/></g></g>
    </svg>
  </g>
  <!-- Icon 7: 24px -->
  <g transform="translate(372, 92)">
    <rect width="48" height="48" fill="#ffffff" stroke="#e9ecef" stroke-width="1" rx="4"/>
    <svg x="8" y="8" width="32" height="32" viewBox="0 0 24 24">
      <rect fill="#2563eb" height="24" width="24"/><path d="M11,14H9c0-4.97,4.03-9,9-9v2C14.13,7,11,10.13,11,14z M18,11V9c-2.76,0-5,2.24-5,5h2C15,12.34,16.34,11,18,11z M7,4 c0-1.11-0.89-2-2-2S3,2.89,3,4s0.89,2,2,2S7,5.11,7,4z M11.45,4.5h-2C9.21,5.92,7.99,7,6.5,7h-3C2.67,7,2,7.67,2,8.5V11h6V8.74 C9.86,8.15,11.25,6.51,11.45,4.5z M19,17c1.11,0,2-0.89,2-2s-0.89-2-2-2s-2,0.89-2,2S17.89,17,19,17z M20.5,18h-3 c-1.49,0-2.71-1.08-2.95-2.5h-2c0.2,2.01,1.59,3.65,3.45,4.24V22h6v-2.5C22,18.67,21.33,18,20.5,18z"/>
    </svg>
  </g>
  <!-- Icon 8: 24px -->
  <g transform="translate(12, 152)">
    <rect width="48" height="48" fill="#ffffff" stroke="#e9ecef" stroke-width="1" rx="4"/>
    <svg x="8" y="8" width="32" height="32" viewBox="0 0 24 24">
      <path d="M0 0h24v24H0V0z" fill="#2563eb"/><path d="M3 16h18V8H3v8zm15.5-7c.83 0 1.5.67 1.5 1.5s-.67 1.5-1.5 1.5-1.5-.67-1.5-1.5.67-1.5 1.5-1.5zm-4 3c.83 0 1.5.67 1.5 1.5s-.67 1.5-1.5 1.5-1.5-.67-1.5-1.5.67-1.5 1.5-1.5zM4 11h2V9h2v2h2v2H8v2H6v-2H4v-2z" opacity=".3"/><path d="M21 6H3c-1.1 0-2 .9-2 2v8c0 1.1.9 2 2 2h18c1.1 0 2-.9 2-2V8c0-1.1-.9-2-2-2zm0 10H3V8h18v8zM6 15h2v-2h2v-2H8V9H6v2H4v2h2z"/><circle cx="14.5" cy="13.5" r="1.5"/><circle cx="18.5" cy="10.5" r="1.5"/>
    </svg>
  </g>
  <!-- Icon 9: 24px -->
  <g transform="translate(72, 152)">
    <rect width="48" height="48" fill="#ffffff" stroke="#e9ecef" stroke-width="1" rx="4"/>
    <svg x="8" y="8" width="32" height="32" viewBox="0 0 24 24">
      <path d="M0 0h24v24H0V0z" fill="#2563eb"/><path d="M4 6h16v10H4z" opacity=".3"/><path d="M20 18c1.1 0 1.99-.9 1.99-2L22 6c0-1.1-.9-2-2-2H4c-1.1 0-2 .9-2 2v10c0 1.1.9 2 2 2H0v2h24v-2h-4zM4 6h16v10H4V6z"/>
    </svg>
  </g>
  <!-- Icon 10: 20px -->
  <g transform="translate(132, 152)">
    <rect width="48" height="48" fill="#ffffff" stroke="#e9ecef" stroke-width="1" rx="4"/>
    <svg x="8" y="8" width="32" height="32" viewBox="0 0 20 20">
      <g><rect fill="#2563eb" height="20" width="20"/></g><g><g><path d="M10,4c-3.31,0-6,2.69-6,6s2.69,6,6,6s6-2.69,6-6S13.31,4,10,4z M11,5c0.55,0,1,0.45,1,1c0,0.55-0.45,1-1,1 s-1-0.45-1-1C10,5.45,10.45,5,11,5z M13.5,10.62c-0.6,0-1.87-0.38-2.67-1.4l-0.21,1.19L12,11.79V15h-1v-2.79l-1-0.99l-0.42,2.13 l-3.17-0.65l0.2-0.98l2.19,0.45l0.62-3.12L8.5,9.37v1.25h-1V8.67l2.67-0.96c0.46-0.16,0.99,0.01,1.22,0.44 c0.7,1.32,1.77,1.47,2.11,1.47V10.62z" opacity=".3"/><path d="M10,3c-3.87,0-7,3.13-7,7c0,3.87,3.13,7,7,7s7-3.13,7-7C17,6.13,13.87,3,10,3z M10,16c-3.31,0-6-2.69-6-6s2.69-6,6-6 s6,2.69,6,6S13.31,16,10,16z"/><path d="M11.39,8.15c-0.23-0.43-0.76-0.6-1.22-0.44L7.5,8.67v1.95h1V9.37l0.92-0.33L8.8,12.16l-2.19-0.45l-0.2,0.98l3.17,0.65 L10,11.21l1,0.99V15h1v-3.21l-1.39-1.38l0.21-1.19c0.81,1.03,2.08,1.4,2.67,1.4v-1C13.16,9.62,12.09,9.46,11.39,8.15z"/><circle cx="11" cy="6" r="1"/></g></g>
    </svg>
  </g>
  <!-- Icon 11: 24px -->
  <g transform="translate(192, 152)">
    <rect width="48" height="48" fill="#ffffff" stroke="#e9ecef" stroke-width="1" rx="4"/>
    <svg x="8" y="8" width="32" height="32" viewBox="0 0 24 24">
      <g><rect fill="#2563eb" height="24" width="24"/></g><g><g><g opacity=".3"><path d="M4,20h16V8H4V20z M8,13h3v-3h2v3h3v2h-3v3h-2v-3H8V13z"/></g><path d="M20,6h-4V4c0-1.1-0.9-2-2-2h-4C8.9,2,8,2.9,8,4v2H4C2.9,6,2,6.9,2,8v12c0,1.1,0.9,2,2,2h16c1.1,0,2-0.9,2-2V8 C22,6.9,21.1,6,20,6z M10,4h4v2h-4V4z M20,20H4V8h16V20z"/><polygon points="11,18 13,18 13,15 16,15 16,13 13,13 13,10 11,10 11,13 8,13 8,15 11,15"/></g></g>
    </svg>
  </g>
  <!-- Icon 12: 24px -->
  <g transform="translate(252, 152)">
    <rect width="48" height="48" fill="#ffffff" stroke="#e9ecef" stroke-width="1" rx="4"/>
    <svg x="8" y="8" width="32" height="32" viewBox="0 0 24 24">
      <g><rect fill="#2563eb" height="24" width="24" y="0"/></g><g><g><path d="M5.24,14.42C5.2,16.18,5.06,18.14,4.66,20h2.67c0.27-1.94,0.43-4.07,0.52-5.93C7.54,13.9,7.25,13.7,7,13.44 C6.53,13.93,5.92,14.27,5.24,14.42z" opacity=".3"/><path d="M11,11H8c0,0.83,0.67,1.5,1.5,1.5S11,11.83,11,11z" opacity=".3"/><path d="M6,11H3c0,0.83,0.67,1.5,1.5,1.5S6,11.83,6,11z" opacity=".3"/><path d="M12,4.71C10.67,5.85,8.51,7.55,5.89,9h12.23C15.49,7.55,13.33,5.85,12,4.71z" opacity=".3"/><path d="M19.5,12.5c0.83,0,1.5-0.67,1.5-1.5h-3C18,11.83,18.67,12.5,19.5,12.5z" opacity=".3"/><path d="M14.5,12.5c0.83,0,1.5-0.67,1.5-1.5h-3C13,11.83,13.67,12.5,14.5,12.5z" opacity=".3"/><path d="M17,13.44c-0.25,0.25-0.54,0.45-0.85,0.62c0.1,1.87,0.26,4,0.52,5.93h2.67c-0.39-1.86-0.54-3.82-0.57-5.58 C18.08,14.27,17.47,13.93,17,13.44z" opacity=".3"/><path d="M12,2c0,0-5,5-11,7v2c0,1.49,0.93,2.75,2.24,3.26C3.2,16.76,2.92,19.69,2,22h20c-0.92-2.31-1.2-5.24-1.24-7.74 C22.07,13.75,23,12.49,23,11V9C17,7,12,2,12,2z M12,4.71c1.33,1.14,3.49,2.84,6.11,4.29H5.89C8.51,7.55,10.67,5.85,12,4.71z M3,11 h3c0,0.83-0.67,1.5-1.5,1.5S3,11.83,3,11z M7.33,20H4.66c0.39-1.86,0.54-3.82,0.57-5.58c0.68-0.15,1.29-0.49,1.76-0.98 c0.25,0.25,0.54,0.45,0.85,0.62C7.76,15.93,7.6,18.06,7.33,20z M8,11h3c0,0.83-0.67,1.5-1.5,1.5S8,11.83,8,11z M9.35,20 c0.24-1.83,0.39-3.78,0.48-5.53c0.84-0.08,1.61-0.45,2.17-1.02c0.56,0.57,1.32,0.94,2.17,1.02c0.1,1.75,0.24,3.7,0.48,5.53H9.35z M14.5,12.5c-0.83,0-1.5-0.67-1.5-1.5h3C16,11.83,15.33,12.5,14.5,12.5z M16.67,20c-0.27-1.94-0.43-4.07-0.52-5.93 c0.31-0.17,0.61-0.37,0.85-0.62c0.47,0.48,1.08,0.83,1.76,0.98c0.03,1.76,0.18,3.72,0.57,5.58H16.67z M19.5,12.5 c-0.83,0-1.5-0.67-1.5-1.5h3C21,11.83,20.33,12.5,19.5,12.5z"/></g></g>
    </svg>
  </g>
  <!-- Icon 13: 24px -->
  <g transform="translate(312, 152)">
    <rect width="48" height="48" fill="#ffffff" stroke="#e9ecef" stroke-width="1" rx="4"/>
    <svg x="8" y="8" width="32" height="32" viewBox="0 0 24 24">
      <rect fill="#2563eb" height="24" width="24"/><path d="M14,4.8V7h3v3h1.41c0.06,0.39,0.09,0.79,0.09,1.2c0,2.57-2.1,5.79-6.16,9.51L12,21.01l-0.34-0.31 C7.6,16.99,5.5,13.77,5.5,11.2c0-3.84,2.82-6.7,6.5-6.7C12.7,4.5,13.37,4.6,14,4.8z" fill-opacity=".3"/><path d="M20,1v3h3v2h-3v3h-2V6h-3V4h3V1H20z M12,13c-1.1,0-2-0.9-2-2s0.9-2,2-2s2,0.9,2,2S13.1,13,12,13z M14,3.25v2.08 C13.38,5.11,12.7,5,12,5c-3.35,0-6,2.57-6,6.2c0,2.34,1.95,5.44,6,9.14c4.05-3.7,6-6.79,6-9.14c0-0.41-0.03-0.81-0.1-1.2h2.02 c0.05,0.39,0.08,0.79,0.08,1.2c0,3.32-2.67,7.25-8,11.8c-5.33-4.55-8-8.48-8-11.8C4,6.22,7.8,3,12,3C12.68,3,13.35,3.08,14,3.25z"/>
    </svg>
  </g>
  <!-- Icon 14: 24px -->
  <g transform="translate(372, 152)">
    <rect width="48" height="48" fill="#ffffff" stroke="#e9ecef" stroke-width="1" rx="4"/>
    <svg x="8" y="8" width="32" height="32" viewBox="0 0 24 24">
      <path d="M0 0h24v24H0V0z" fill="#2563eb"/><path d="M15 4.34V8h3.66C18.05 6.3 16.7 4.95 15 4.34zM8.04 14.36l.44.67c1.19.16 2.19.92 2.68 1.97h2.68c.56-1.18 1.77-2 3.16-2 .15 0 .31.01.46.03l.29-.37c.4-.51.7-1.07.92-1.66H7.37c.32.67.57 1.19.67 1.36z" opacity=".3"/><path d="M13 2v8h8c0-4.42-3.58-8-8-8zm2 6V4.34c1.7.6 3.05 1.95 3.66 3.66H15zm-8.56 3l-.95-2H2v2h2.22s1.89 4.07 2.12 4.42c-1.1.59-1.84 1.75-1.84 3.08C4.5 20.43 6.07 22 8 22c1.76 0 3.22-1.3 3.46-3h2.08c.24 1.7 1.7 3 3.46 3 1.93 0 3.5-1.57 3.5-3.5 0-1.04-.46-1.97-1.18-2.61C20.37 14.54 21 12.84 21 11H6.44zM8 20c-.83 0-1.5-.67-1.5-1.5S7.17 17 8 17s1.5.67 1.5 1.5S8.83 20 8 20zm9 0c-.83 0-1.5-.67-1.5-1.5S16.17 17 17 17s1.5.67 1.5 1.5S17.83 20 17 20zm.74-5.34l-.29.37c-.14-.02-.3-.03-.45-.03-1.39 0-2.6.82-3.16 2h-2.68c-.5-1.04-1.5-1.8-2.68-1.97l-.44-.67c-.1-.17-.34-.69-.67-1.36h11.29c-.21.59-.52 1.15-.92 1.66z"/>
    </svg>
  </g>
  <!-- Icon 15: 24px -->
  <g transform="translate(12, 212)">
    <rect width="48" height="48" fill="#ffffff" stroke="#e9ecef" stroke-width="1" rx="4"/>
    <svg x="8" y="8" width="32" height="32" viewBox="0 0 24 24">
      <g><rect fill="#2563eb" height="24" width="24"/></g><g><g><path d="M3,6l8,5l8-5v3h2V4c0-1.1-0.9-2-2-2H3C1.9,2,1.01,2.9,1.01,4L1,16c0,1.1,0.9,2,2,2h10v-2H3V6z M19,4l-8,5L3,4H19z"/><path d="M21,14v4c0,1.1-0.9,2-2,2s-2-0.9-2-2v-4.5c0-0.28,0.22-0.5,0.5-0.5s0.5,0.22,0.5,0.5V18h2v-4.5c0-1.38-1.12-2.5-2.5-2.5 S15,12.12,15,13.5V18c0,2.21,1.79,4,4,4s4-1.79,4-4v-4H21z"/></g></g>
    </svg>
  </g>
  <!-- Icon 16: 24px -->
  <g transform="translate(72, 212)">
    <rect width="48" height="48" fill="#ffffff" stroke="#e9ecef" stroke-width="1" rx="4"/>
    <svg x="8" y="8" width="32" height="32" viewBox="0 0 24 24">
      <path d="M0 0h24v24H0V0z" fill="#2563eb"/><path d="M4 6.47V18h16v-8H5.76z" opacity=".3"/><path d="M18 4l2 4h-3l-2-4h-2l2 4h-3l-2-4H8l2 4H7L5 4H4c-1.1 0-2 .9-2 2v12c0 1.1.9 2 2 2h16c1.1 0 2-.9 2-2V4h-4zm2 14H4V6.47L5.76 10H20v8z"/>
    </svg>
  </g>
  <!-- Icon 17: 24px -->
  <g transform="translate(132, 212)">
    <rect width="48" height="48" fill="#ffffff" stroke="#e9ecef" stroke-width="1" rx="4"/>
    <svg x="8" y="8" width="32" height="32" viewBox="0 0 24 24">
      <path d="M0 0h24v24H0z" fill="#2563eb"/><path d="M19 19V5L5 19h14zm-4.5-4.5v-2H16v2h2V16h-2v2h-1.5v-2h-2v-1.5h2z" opacity=".3"/><path d="M19 3H5c-1.1 0-2 .9-2 2v14c0 1.1.9 2 2 2h14c1.1 0 2-.9 2-2V5c0-1.1-.9-2-2-2zM6 7h5v1.5H6V7zm13 12H5L19 5v14zm-4.5-3v2H16v-2h2v-1.5h-2v-2h-1.5v2h-2V16z"/>
    </svg>
  </g>
  <!-- Icon 18: 24px -->
  <g transform="translate(192, 212)">
    <rect width="48" height="48" fill="#ffffff" stroke="#e9ecef" stroke-width="1" rx="4"/>
    <svg x="8" y="8" width="32" height="32" viewBox="0 0 24 24">
      <g><rect fill="#2563eb" height="24" width="24" x="0"/></g><g><g><rect height="8" opacity=".3" width="8" x="12" y="12"/><path d="M14,2H4C2.9,2,2,2.9,2,4v10h2V4h10V2z"/><path d="M20,10h-8c-1.1,0-2,0.9-2,2v8c0,1.1,0.9,2,2,2h8c1.1,0,2-0.9,2-2v-8C22,10.9,21.1,10,20,10z M20,20h-8v-8h8V20z"/><path d="M18,6H8C6.9,6,6,6.9,6,8v10h2V8h10V6z"/></g></g>
    </svg>
  </g>
  <!-- Icon 19: 24px -->
  <g transform="translate(252, 212)">
    <rect width="48" height="48" fill="#ffffff" stroke="#e9ecef" stroke-width="1" rx="4"/>
    <svg x="8" y="8" width="32" height="32" viewBox="0 0 24 24">
      <g><rect fill="#2563eb" height="24" width="24"/></g><g><polygon opacity=".3" points="19.63,9.78 16.56,19 7.44,19 4.37,9.78 12,4.44"/><path d="M19.63,9.78L16.56,19H7.44L4.37,9.78L12,4.44L19.63,9.78z M2,9l4,12h12l4-12L12,2L2,9z"/></g>
    </svg>
  </g>
  <!-- Icon 20: 24px -->
  <g transform="translate(312, 212)">
    <rect width="48" height="48" fill="#ffffff" stroke="#e9ecef" stroke-width="1" rx="4"/>
    <svg x="8" y="8" width="32" height="32" viewBox="0 0 24 24">
      <g><rect fill="#2563eb" height="24" width="24"/></g><g><g><path d="M9,4H7v2H5v12h2v2h2v-2h2V6H9V4z M9,16H7V8h2V16z"/><rect height="8" opacity=".3" width="2" x="7" y="8"/><rect height="3" opacity=".3" width="2" x="15" y="10"/><path d="M19,8h-2V4h-2v4h-2v7h2v5h2v-5h2V8z M17,13h-2v-3h2V13z"/></g></g>
    </svg>
  </g>
  <!-- Icon 21: 20px -->
  <g transform="translate(372, 212)">
    <rect width="48" height="48" fill="#ffffff" stroke="#e9ecef" stroke-width="1" rx="4"/>
    <svg x="8" y="8" width="32" height="32" viewBox="0 0 20 20">
      <g><rect fill="#2563eb" height="20" width="20" y="0"/></g><g><g><path d="M4.5,16.5h11V8h-11V16.5z M8,10h4v1.5H8V10z" enable-background="new" opacity=".3"/><rect enable-background="new" height="3" opacity=".3" width="13" x="3.5" y="3.5"/><path d="M16.5,2h-13C2.67,2,2,2.67,2,3.5v3c0,0.65,0.42,1.2,1,1.41v8.59C3,17.33,3.67,18,4.5,18h11c0.83,0,1.5-0.67,1.5-1.5V7.91 c0.58-0.21,1-0.76,1-1.41v-3C18,2.67,17.33,2,16.5,2z M15.5,16.5h-11V8h11V16.5z M16.5,6.5h-13v-3h13V6.5z"/><rect height="1.5" width="4" x="8" y="10"/></g></g>
    </svg>
  </g>
  <!-- Icon 22: 20px -->
  <g transform="translate(12, 272)">
    <rect width="48" height="48" fill="#ffffff" stroke="#e9ecef" stroke-width="1" rx="4"/>
    <svg x="8" y="8" width="32" height="32" viewBox="0 0 20 20">
      <g><rect fill="#2563eb" height="20" width="20"/></g><g><g><g><path d="M10.5,4.5V3c0-0.28-0.22-0.5-0.5-0.5S9.5,2.72,9.5,3v1.5h-5v2.34c1.18,0.56,2,1.77,2,3.16 s-0.82,2.6-2,3.16v2.34h2.34c0.49-1.04,1.48-1.79,2.66-1.96V10V7.57l2.17,1.09l3.83,1.91V4.5H10.5z" opacity=".3"/><path d="M6.84,15.5H4.5v-2.34c1.18-0.56,2-1.77,2-3.16s-0.82-2.6-2-3.16V4.5h5V3c0-0.28,0.22-0.5,0.5-0.5s0.5,0.22,0.5,0.5v1.5h5 v6.07l1.5,0.75V4.5C17,3.67,16.33,3,15.5,3H12c0-1.1-0.9-2-2-2S8,1.9,8,3H4.5C3.67,3,3,3.67,3,4.5V8c1.1,0,2,0.9,2,2s-0.9,2-2,2 v3.5C3,16.33,3.67,17,4.5,17H8c0-0.93,0.64-1.71,1.5-1.93v-1.53C8.32,13.71,7.33,14.46,6.84,15.5z"/></g><polygon points="11,10 11,13 14,14 11,15 11,18 19,14"/></g></g>
    </svg>
  </g>
  <!-- Icon 23: 20px -->
  <g transform="translate(72, 272)">
    <rect width="48" height="48" fill="#ffffff" stroke="#e9ecef" stroke-width="1" rx="4"/>
    <svg x="8" y="8" width="32" height="32" viewBox="0 0 20 20">
      <g><rect fill="#2563eb" height="20" width="20"/></g><g><g><path d="M1.5,15.5h0.14C2.93,13.97,4.85,13,7,13s4.07,0.97,5.36,2.5h6.14v-11h-17V15.5z M12.58,7.68l0.5-0.87 l1.42,0.82V6h1v1.63l1.42-0.82l0.5,0.87L16,8.5l1.42,0.82l-0.5,0.87L15.5,9.37V11h-1V9.37l-1.42,0.82l-0.5-0.87L14,8.5L12.58,7.68 z M7,7c1.38,0,2.5,1.12,2.5,2.5S8.38,12,7,12s-2.5-1.12-2.5-2.5S5.62,7,7,7z" opacity=".3"/><path d="M18.5,3h-17C0.67,3,0,3.67,0,4.5v11C0,16.33,0.67,17,1.5,17h17c0.83,0,1.5-0.67,1.5-1.5v-11C20,3.67,19.33,3,18.5,3z M3.85,15.5c0.89-0.63,1.98-1,3.15-1s2.26,0.37,3.15,1H3.85z M18.5,15.5h-6.14C11.07,13.97,9.15,13,7,13s-4.07,0.97-5.36,2.5H1.5 v-11h17V15.5z"/><path d="M7,12c1.38,0,2.5-1.12,2.5-2.5S8.38,7,7,7S4.5,8.12,4.5,9.5S5.62,12,7,12z M7,8.5c0.54,0,1,0.46,1,1s-0.46,1-1,1 s-1-0.46-1-1S6.46,8.5,7,8.5z"/><polygon points="13.08,10.18 14.5,9.37 14.5,11 15.5,11 15.5,9.37 16.92,10.18 17.42,9.32 16,8.5 17.42,7.68 16.92,6.82 15.5,7.63 15.5,6 14.5,6 14.5,7.63 13.08,6.82 12.58,7.68 14,8.5 12.58,9.32"/></g></g>
    </svg>
  </g>
  <!-- Icon 24: 20px -->
  <g transform="translate(132, 272)">
    <rect width="48" height="48" fill="#ffffff" stroke="#e9ecef" stroke-width="1" rx="4"/>
    <svg x="8" y="8" width="32" height="32" viewBox="0 0 20 20">
      <g><rect fill="#2563eb" height="20" width="20"/></g><g><g><polygon points="13,10.5 13,17 18,13.75"/><rect height="1.5" width="9" x="3" y="5"/><rect height="1.5" width="6" x="3" y="11.25"/><rect height="1.5" width="9" x="3" y="8.12"/></g></g>
    </svg>
  </g>
  <!-- Icon 25: 20px -->
  <g transform="translate(192, 272)">
    <rect width="48" height="48" fill="#ffffff" stroke="#e9ecef" stroke-width="1" rx="4"/>
    <svg x="8" y="8" width="32" height="32" viewBox="0 0 20 20">
      <g><rect fill="#2563eb" height="20" width="20"/></g><g><g><path d="M12,10.5h2V12h-3V8h4c0-0.55-0.45-1-1-1h-3c-0.55,0-1,0.45-1,1v4c0,0.55,0.45,1,1,1h3c0.55,0,1-0.45,1-1V9.5h-3V10.5z"/></g><g><path d="M9,8H6v1.5h2c0.55,0,1,0.45,1,1V12c0,0.55-0.45,1-1,1H5v-1h3v-1.5H5V7h4V8z"/></g></g>
    </svg>
  </g>
  <!-- Icon 26: 24px -->
  <g transform="translate(252, 272)">
    <rect width="48" height="48" fill="#ffffff" stroke="#e9ecef" stroke-width="1" rx="4"/>
    <svg x="8" y="8" width="32" height="32" viewBox="0 0 24 24">
      <g><rect fill="#2563eb" height="24" width="24"/></g><g><g><path d="M22,20.59l-4.69-4.69C18.37,14.55,19,12.85,19,11c0-4.42-3.58-8-8-8c-4.08,0-7.44,3.05-7.93,7h2.02C5.57,7.17,8.03,5,11,5 c3.31,0,6,2.69,6,6s-2.69,6-6,6c-2.42,0-4.5-1.44-5.45-3.5H3.4C4.45,16.69,7.46,19,11,19c1.85,0,3.55-0.63,4.9-1.69L20.59,22 L22,20.59z"/><polygon points="8.43,9.69 9.65,15 11.29,15 12.55,11.22 13.5,13.5 15.5,13.5 15.5,12 14.5,12 13.25,9 11.71,9 10.59,12.37 9.35,7 7.7,7 6.45,11 1,11 1,12.5 7.55,12.5"/></g></g>
    </svg>
  </g>
  <!-- Icon 27: 24px -->
  <g transform="translate(312, 272)">
    <rect width="48" height="48" fill="#ffffff" stroke="#e9ecef" stroke-width="1" rx="4"/>
    <svg x="8" y="8" width="32" height="32" viewBox="0 0 24 24">
      <path d="M0 0h24v24H0V0z" fill="#2563eb"/><path d="M6 11V9L4 7v10.17L5.17 16H13l-5-5H6zm2 3H6v-2h2v2zM20 4H6.66L10 7.34V6h8v2h-7.34l1 1H18v2h-4.34l5 5H20z" opacity=".3"/><path d="M20 4v12h-1.34l1.91 1.91C21.39 17.66 22 16.9 22 16V4c0-1.1-.9-2-2-2H4.66l2 2H20zM6 12h2v2H6zm12-1V9h-6.34l2 2zm0-3V6h-8v1.34l.66.66zM1.41 1.59L0 3l2 2.01V22l4-4h9l5.73 5.73 1.41-1.41L1.41 1.59zM5.17 16L4 17.17V7l2 2v2h2l5 5H5.17z"/>
    </svg>
  </g>
  <!-- Icon 28: 24px -->
  <g transform="translate(372, 272)">
    <rect width="48" height="48" fill="#ffffff" stroke="#e9ecef" stroke-width="1" rx="4"/>
    <svg x="8" y="8" width="32" height="32" viewBox="0 0 24 24">
      <path d="M0 0h24v24H0V0z" fill="#2563eb"/><path d="M15 11V4H4v8.17l.59-.58.58-.59H6z" opacity=".3"/><path d="M21 6h-2v9H6v2c0 .55.45 1 1 1h11l4 4V7c0-.55-.45-1-1-1zm-5 7c.55 0 1-.45 1-1V3c0-.55-.45-1-1-1H3c-.55 0-1 .45-1 1v14l4-4h10zM4.59 11.59l-.59.58V4h11v7H5.17l-.58.59z"/>
    </svg>
  </g>
  <!-- Icon 29: 24px -->
  <g transform="translate(12, 332)">
    <rect width="48" height="48" fill="#ffffff" stroke="#e9ecef" stroke-width="1" rx="4"/>
    <svg x="8" y="8" width="32" height="32" viewBox="0 0 24 24">
      <g><rect fill="#2563eb" height="24" width="24"/><path d="M15.5,13.5c0,2-2.5,3.5-2.5,5h-2c0-1.5-2.5-3-2.5-5c0-1.93,1.57-3.5,3.5-3.5h0C13.93,10,15.5,11.57,15.5,13.5z M13,19.5h-2 V21h2V19.5z M19,13c0,1.68-0.59,3.21-1.58,4.42l1.42,1.42C20.18,17.27,21,15.23,21,13c0-2.74-1.23-5.19-3.16-6.84l-1.42,1.42 C17.99,8.86,19,10.82,19,13z M16,5l-4-4v3c0,0,0,0,0,0c-4.97,0-9,4.03-9,9c0,2.23,0.82,4.27,2.16,5.84l1.42-1.42 C5.59,16.21,5,14.68,5,13c0-3.86,3.14-7,7-7c0,0,0,0,0,0v3L16,5z"/></g>
    </svg>
  </g>
  <!-- Icon 30: 24px -->
  <g transform="translate(72, 332)">
    <rect width="48" height="48" fill="#ffffff" stroke="#e9ecef" stroke-width="1" rx="4"/>
    <svg x="8" y="8" width="32" height="32" viewBox="0 0 24 24">
      <g><rect fill="#2563eb" height="24" width="24"/><path d="M17,5h-2V3h2V5z M15,15v6l2.29-2.29L19.59,21L21,19.59l-2.29-2.29L21,15H15z M19,9h2V7h-2V9z M19,13h2v-2h-2V13z M11,21h2 v-2h-2V21z M7,5h2V3H7V5z M3,17h2v-2H3V17z M5,21v-2H3C3,20.1,3.9,21,5,21z M19,3v2h2C21,3.9,20.1,3,19,3z M11,5h2V3h-2V5z M3,9h2 V7H3V9z M7,21h2v-2H7V21z M3,13h2v-2H3V13z M3,5h2V3C3.9,3,3,3.9,3,5z"/></g>
    </svg>
  </g>
  <!-- Icon 31: 24px -->
  <g transform="translate(132, 332)">
    <rect width="48" height="48" fill="#ffffff" stroke="#e9ecef" stroke-width="1" rx="4"/>
    <svg x="8" y="8" width="32" height="32" viewBox="0 0 24 24">
      <g><rect fill="#2563eb" height="24" width="24"/></g><g><g><rect height="2" width="18" x="3" y="3"/><rect height="2" width="18" x="3" y="19"/></g></g>
    </svg>
  </g>
  <!-- Icon 32: 24px -->
  <g transform="translate(192, 332)">
    <rect width="48" height="48" fill="#ffffff" stroke="#e9ecef" stroke-width="1" rx="4"/>
    <svg x="8" y="8" width="32" height="32" viewBox="0 0 24 24">
      <g><rect fill="#2563eb" height="24" width="24"/></g><g><g><polygon opacity=".3" points="6.47,6 17.53,6 12,3.24"/><rect height="7" width="2" x="5" y="10"/><rect height="7" width="2" x="11" y="10"/><path d="M22,6L12,1L2,6v2h20V6z M6.47,6L12,3.24L17.53,6H6.47z"/><path d="M2,19v2h12.4c-0.21-0.64-0.32-1.31-0.36-2H2z"/><polygon points="19,12.26 19,10 17,10 17,13.26"/><path d="M20,14l-4,2v2.55c0,2.52,1.71,4.88,4,5.45c2.29-0.57,4-2.93,4-5.45V16L20,14z M19.28,21l-2.03-2.03l1.06-1.06l0.97,0.97 l2.41-2.38l1.06,1.06L19.28,21z"/></g></g>
    </svg>
  </g>
  <!-- Icon 33: 24px -->
  <g transform="translate(252, 332)">
    <rect width="48" height="48" fill="#ffffff" stroke="#e9ecef" stroke-width="1" rx="4"/>
    <svg x="8" y="8" width="32" height="32" viewBox="0 0 24 24">
      <g><path d="M0,0h24v24H0V0z" fill="#2563eb"/></g><g><g><path d="M16.49,4.5c1.79,0,3.42,0.73,4.59,1.91l1.06-1.06C20.7,3.9,18.7,3,16.49,3c-2.21,0-4.21,0.9-5.66,2.34 l1.06,1.06C13.08,5.23,14.7,4.5,16.49,4.5z" fill-opacity=".3"/><path d="M16.49,6c-1.38,0-2.63,0.56-3.54,1.46l1.06,1.06c0.63-0.63,1.51-1.03,2.47-1.03s1.84,0.39,2.47,1.03 l1.06-1.06C19.12,6.56,17.87,6,16.49,6z" fill-opacity=".3"/><path d="M16.49,9c-0.55,0-1.05,0.22-1.41,0.59L16.49,11l1.41-1.41C17.54,9.22,17.04,9,16.49,9z"/><g><path d="M15,17.83c1.29,0.54,2.63,0.89,4,1.07v-2.23l-2.35-0.47L15,17.83z" enable-background="new" opacity=".3"/><path d="M7.33,5H5.1c0.18,1.37,0.53,2.7,1.07,4L7.8,7.35L7.33,5z" enable-background="new" opacity=".3"/><path d="M20.2,14.87l-3.67-0.73c-0.5-0.1-0.83,0.2-0.9,0.27l-2.52,2.5c-2.5-1.43-4.57-3.5-6-6l2.5-2.52 c0.23-0.24,0.33-0.57,0.27-0.9L9.13,3.8C9.04,3.34,8.63,3,8.15,3H4C3.44,3,2.97,3.47,3,4.03C3.17,6.92,4.05,9.63,5.43,12 c1.58,2.73,3.85,4.99,6.57,6.57c2.37,1.37,5.08,2.26,7.97,2.43c0.55,0.03,1.03-0.43,1.03-1v-4.15 C21,15.37,20.66,14.96,20.2,14.87z M5.1,5h2.23L7.8,7.35L6.17,9C5.63,7.7,5.27,6.37,5.1,5z M19,18.9c-1.37-0.18-2.7-0.53-4-1.07 l1.65-1.63L19,16.67V18.9z"/></g></g></g>
    </svg>
  </g>
  <!-- Icon 34: 24px -->
  <g transform="translate(312, 332)">
    <rect width="48" height="48" fill="#ffffff" stroke="#e9ecef" stroke-width="1" rx="4"/>
    <svg x="8" y="8" width="32" height="32" viewBox="0 0 24 24">
      <g><path d="M0,0h24v24H0V0z" fill="#2563eb"/></g><g><g><path d="M4,4v7.17L12.83,20L20,12.83L11.17,4H4z M6.5,8C5.67,8,5,7.33,5,6.5S5.67,5,6.5,5S8,5.67,8,6.5 S7.33,8,6.5,8z" opacity=".3"/><path d="M21.41,11.41l-8.83-8.83C12.21,2.21,11.7,2,11.17,2H4C2.9,2,2,2.9,2,4v7.17c0,0.53,0.21,1.04,0.59,1.41l8.83,8.83 c0.78,0.78,2.05,0.78,2.83,0l7.17-7.17C22.2,13.46,22.2,12.2,21.41,11.41z M12.83,20L4,11.17V4h7.17L20,12.83L12.83,20z"/><circle cx="6.5" cy="6.5" r="1.5"/></g></g>
    </svg>
  </g>
  <!-- Icon 35: 24px -->
  <g transform="translate(372, 332)">
    <rect width="48" height="48" fill="#ffffff" stroke="#e9ecef" stroke-width="1" rx="4"/>
    <svg x="8" y="8" width="32" height="32" viewBox="0 0 24 24">
      <g><path d="M0,0h24v24H0V0z" fill="#2563eb"/></g><g><g><path d="M12,11H6V7H4v10h2v-4h6v4h2V7h-2V11z M22,11h-2V9h-2v2h-2v2h2v2h2v-2h2V11z"/></g></g>
    </svg>
  </g>
  
  <!-- Footer -->
  <text x="400" y="580" text-anchor="middle" font-family="system-ui, -apple-system, sans-serif" font-size="12" fill="#6c757d">
    Showing 35 of 2851 icons
  </text>
  
</svg>