<svg width="800" height="600" xmlns="http://www.w3.org/2000/svg">
  <!-- Background -->
  <rect width="800" height="600" fill="#ffffff"/>
  
  <!-- Header Background -->
  <rect width="800" height="80" fill="#f8f9fa"/>
  
  <!-- Title -->
  <text x="400" y="30" text-anchor="middle" font-family="system-ui, -apple-system, sans-serif" font-size="20" font-weight="bold" fill="#212529">Material Design Icons - sharp</text>
  
  <!-- Subtitle -->
  <text x="400" y="55" text-anchor="middle" font-family="system-ui, -apple-system, sans-serif" font-size="14" fill="#6c757d">2,813 icons</text>
  
  <!-- Icon Grid -->
  <!-- Icon 1: 24px -->
  <g transform="translate(12, 92)">
    <rect width="48" height="48" fill="#ffffff" stroke="#e9ecef" stroke-width="1" rx="4"/>
    <svg x="8" y="8" width="32" height="32" viewBox="0 0 24 24">
      <path d="M0 0h24v24H0z" fill="#2563eb"/><path d="M17 7H7c-2.76 0-5 2.24-5 5s2.24 5 5 5h10c2.76 0 5-2.24 5-5s-2.24-5-5-5zm0 8c-1.66 0-3-1.34-3-3s1.34-3 3-3 3 1.34 3 3-1.34 3-3 3z"/>
    </svg>
  </g>
  <!-- Icon 2: 24px -->
  <g transform="translate(72, 92)">
    <rect width="48" height="48" fill="#ffffff" stroke="#e9ecef" stroke-width="1" rx="4"/>
    <svg x="8" y="8" width="32" height="32" viewBox="0 0 24 24">
      <path d="M0 0h24v24H0V0z" fill="#2563eb"/><path d="M23 3H1v16h7v2h8v-2h6.99L23 3zm-2 14H3V5h18v12zm-5-6l-7 4V7l7 4z"/>
    </svg>
  </g>
  <!-- Icon 3: 20px -->
  <g transform="translate(132, 92)">
    <rect width="48" height="48" fill="#ffffff" stroke="#e9ecef" stroke-width="1" rx="4"/>
    <svg x="8" y="8" width="32" height="32" viewBox="0 0 20 20">
      <g><rect fill="#2563eb" height="20" width="20"/></g><g><g><path d="M14.09,10.28c2.2-2.2,2.55-5.4,0.8-7.16c-1.76-1.76-4.96-1.4-7.16,0.8C6.4,5.24,5.75,6.93,5.82,8.44l0,0 c-0.04,0.82,0.29,2.73-0.98,4.01L2.28,15L3,15.72l2.56-2.56c1.27-1.27,3.19-0.94,4.01-0.98l0,0 C11.07,12.25,12.76,11.6,14.09,10.28z M7.64,10.36C6.27,9,6.63,6.42,8.43,4.62s4.38-2.16,5.75-0.8c1.36,1.36,1.01,3.94-0.8,5.75 S9,11.73,7.64,10.36z"/><path d="M16.12,12.88C15.54,12.29,14.77,12,14,12s-1.54,0.29-2.12,0.88c-1.17,1.17-1.17,3.07,0,4.24C12.46,17.71,13.23,18,14,18 s1.54-0.29,2.12-0.88C17.29,15.95,17.29,14.05,16.12,12.88z M15.41,16.41C15.04,16.79,14.53,17,14,17s-1.04-0.21-1.41-0.59 c-0.78-0.78-0.78-2.05,0-2.83C12.96,13.21,13.47,13,14,13s1.04,0.21,1.41,0.59C16.19,14.37,16.19,15.63,15.41,16.41z"/></g></g>
    </svg>
  </g>
  <!-- Icon 4: 20px -->
  <g transform="translate(192, 92)">
    <rect width="48" height="48" fill="#ffffff" stroke="#e9ecef" stroke-width="1" rx="4"/>
    <svg x="8" y="8" width="32" height="32" viewBox="0 0 20 20">
      <g><rect fill="#2563eb" height="20" width="20"/></g><g><g><path d="M10.5,4C8.22,4,6.35,5.71,6.06,7.91l-1.54,2.31C4.3,10.55,4.53,11,4.93,11H6v2c0,0.55,0.45,1,1,1h1v2h5v-3.76 c1.21-0.81,2-2.18,2-3.74C15,6.01,12.99,4,10.5,4z M12.33,8.67c0,0.09-0.01,0.18-0.02,0.26l0.56,0.44 c0.05,0.04,0.07,0.11,0.03,0.17l-0.53,0.92c-0.03,0.06-0.1,0.08-0.16,0.06l-0.66-0.27c-0.14,0.1-0.29,0.19-0.45,0.26L11,11.22 c-0.01,0.07-0.06,0.11-0.13,0.11H9.8c-0.07,0-0.12-0.05-0.13-0.11l-0.1-0.71c-0.16-0.07-0.31-0.15-0.45-0.26l-0.66,0.27 c-0.06,0.02-0.13,0-0.16-0.06L7.76,9.54C7.73,9.48,7.74,9.41,7.79,9.37l0.56-0.44C8.34,8.84,8.33,8.75,8.33,8.67 s0.01-0.18,0.02-0.26L7.79,7.97C7.74,7.93,7.73,7.86,7.76,7.8l0.53-0.92c0.03-0.06,0.1-0.08,0.16-0.06l0.66,0.27 c0.14-0.1,0.29-0.19,0.45-0.26l0.1-0.71C9.68,6.05,9.73,6,9.8,6h1.07c0.07,0,0.12,0.05,0.13,0.11l0.1,0.71 c0.16,0.07,0.31,0.15,0.45,0.26l0.66-0.27c0.06-0.02,0.13,0,0.16,0.06l0.53,0.92c0.03,0.06,0.02,0.13-0.03,0.17l-0.56,0.44 C12.33,8.49,12.33,8.58,12.33,8.67z"/><path d="M10.33,7.71c-0.52,0-0.95,0.43-0.95,0.95c0,0.52,0.43,0.95,0.95,0.95s0.95-0.43,0.95-0.95 C11.29,8.14,10.86,7.71,10.33,7.71z"/></g></g>
    </svg>
  </g>
  <!-- Icon 5: 24px -->
  <g transform="translate(252, 92)">
    <rect width="48" height="48" fill="#ffffff" stroke="#e9ecef" stroke-width="1" rx="4"/>
    <svg x="8" y="8" width="32" height="32" viewBox="0 0 24 24">
      <rect fill="#2563eb" height="24" width="24"/><path d="M21,23c-1.03,0-2.06-0.25-3-0.75h0c-1.89,1-4.11,1-6,0c-1.89,1-4.11,1-6,0C5.05,22.75,4.03,23,3,23H2l0-2h1 c1.04,0,2.08-0.35,3-1c1.83,1.3,4.17,1.3,6,0c1.83,1.3,4.17,1.3,6,0c0.91,0.65,1.96,1,3,1h1v2H21z M12,5.5c-1.1,0-2,0.9-2,2 s0.9,2,2,2s2-0.9,2-2S13.1,5.5,12,5.5z M24,17.5c0,0-1.52,0.71-3.93,1.37c-0.82-0.23-1.53-0.75-2.07-1.37c-0.73,0.84-1.8,1.5-3,1.5 s-2.27-0.66-3-1.5c-0.73,0.84-1.8,1.5-3,1.5s-2.27-0.66-3-1.5c-0.54,0.61-1.25,1.13-2.07,1.37C1.52,18.21,0,17.5,0,17.5 s2.93-1.36,7.13-2.08l1.35-4.17c0.31-0.95,1.32-1.47,2.27-1.16c0.09,0.03,0.19,0.07,0.27,0.11l0,0l2.47,1.3l2.84-1.5l1.65-3.71 l-0.51-1.32L18.8,2L22,3.43L20.67,6.4l-1.31,0.5l-3.72,8.34C20.49,15.87,24,17.5,24,17.5z M15.02,12.96l-1.52,0.8l-1.75-0.92 l-0.71,2.17C11.36,15.01,11.68,15,12,15c0.71,0,1.4,0.03,2.07,0.08L15.02,12.96z"/>
    </svg>
  </g>
  <!-- Icon 6: 20px -->
  <g transform="translate(312, 92)">
    <rect width="48" height="48" fill="#ffffff" stroke="#e9ecef" stroke-width="1" rx="4"/>
    <svg x="8" y="8" width="32" height="32" viewBox="0 0 20 20">
      <g><rect fill="#2563eb" height="20" width="20"/></g><g><path d="M5,15.5H3.5V14H5V15.5z M5,12.33H3.5v-1.5H5V12.33z M5,9.17H3.5v-1.5H5V9.17z M5,6H3.5V4.5H5V6z M8.5,15.5H7V14h1.5V15.5z M8.5,12.33H7v-1.5h1.5V12.33z M8.5,9.17H7v-1.5h1.5V9.17z M7,6V4.5h1.5V6H7z M18,12.5V6h-8V3H2v14h11.5v-1.5H10v-1.67h1.5v-1.5H10 v-1.67h1.5v-1.5H10V7.5h6.5v5H18z M15,9.17h-1.5v1.5H15V9.17z M15,12.33h-1.5v1.5H15V12.33z M18,15.5V14h-1.5v1.5H15V17h1.5v1.5H18 V17h1.5v-1.5H18z"/></g>
    </svg>
  </g>
  <!-- Icon 7: 24px -->
  <g transform="translate(372, 92)">
    <rect width="48" height="48" fill="#ffffff" stroke="#e9ecef" stroke-width="1" rx="4"/>
    <svg x="8" y="8" width="32" height="32" viewBox="0 0 24 24">
      <path d="M0 0h24v24H0V0z" fill="#2563eb"/><path d="M19 6.41L17.59 5 12 10.59 6.41 5 5 6.41 10.59 12 5 17.59 6.41 19 12 13.41 17.59 19 19 17.59 13.41 12 19 6.41z"/>
    </svg>
  </g>
  <!-- Icon 8: 24px -->
  <g transform="translate(12, 152)">
    <rect width="48" height="48" fill="#ffffff" stroke="#e9ecef" stroke-width="1" rx="4"/>
    <svg x="8" y="8" width="32" height="32" viewBox="0 0 24 24">
      <rect fill="#2563eb" height="24" width="24"/><path d="M12,20H2v-2h5.75l0,0C7.02,15.19,4.81,12.99,2,12.26C2.64,12.1,3.31,12,4,12C8.42,12,12,15.58,12,20z M22,12.26 C21.36,12.1,20.69,12,20,12c-2.93,0-5.48,1.58-6.88,3.93c0.29,0.66,0.53,1.35,0.67,2.07c0.13,0.65,0.2,1.32,0.2,2h2h6v-2h-5.75 C16.98,15.19,19.19,12.99,22,12.26z M15.64,11.02c0.78-2.09,2.23-3.84,4.09-5C15.44,6.16,12,9.67,12,14c0,0.01,0,0.02,0,0.02 C12.95,12.75,14.2,11.72,15.64,11.02z M11.42,8.85C10.58,6.66,8.88,4.89,6.7,4C8.14,5.86,9,8.18,9,10.71c0,0.21-0.03,0.41-0.04,0.61 c0.43,0.24,0.83,0.52,1.22,0.82C10.39,10.96,10.83,9.85,11.42,8.85z"/>
    </svg>
  </g>
  <!-- Icon 9: 24px -->
  <g transform="translate(72, 152)">
    <rect width="48" height="48" fill="#ffffff" stroke="#e9ecef" stroke-width="1" rx="4"/>
    <svg x="8" y="8" width="32" height="32" viewBox="0 0 24 24">
      <path d="M0 0h24v24H0V0z" fill="#2563eb"/><path d="M16.49 15.5v-1.75L14 16.25l2.49 2.5V17H22v-1.5h-5.51zm3.02 4.25H14v1.5h5.51V23L22 20.5 19.51 18v1.75zM9.5 5.5c1.1 0 2-.9 2-2s-.9-2-2-2-2 .9-2 2 .9 2 2 2zM5.75 8.9L3 23h2.1l1.75-8L9 17v6h2v-7.55L8.95 13.4l.6-3C10.85 12 12.8 13 15 13v-2c-1.85 0-3.45-1-4.35-2.45l-.95-1.6C9.35 6.35 8.7 6 8 6c-.25 0-.5.05-.75.15L2 8.3V13h2V9.65l1.75-.75"/>
    </svg>
  </g>
  <!-- Icon 10: 24px -->
  <g transform="translate(132, 152)">
    <rect width="48" height="48" fill="#ffffff" stroke="#e9ecef" stroke-width="1" rx="4"/>
    <svg x="8" y="8" width="32" height="32" viewBox="0 0 24 24">
      <g><rect fill="#2563eb" height="24" width="24"/></g><g><g><g><path d="M1,5h14l-6,9v4h2v2H5v-2h2v-4L1,5z M10.1,9l1.4-2H4.49l1.4,2H10.1z M17,5h5v3h-3v9l0,0c0,1.66-1.34,3-3,3s-3-1.34-3-3 s1.34-3,3-3c0.35,0,0.69,0.06,1,0.17V5z"/></g></g></g>
    </svg>
  </g>
  <!-- Icon 11: 20px -->
  <g transform="translate(192, 152)">
    <rect width="48" height="48" fill="#ffffff" stroke="#e9ecef" stroke-width="1" rx="4"/>
    <svg x="8" y="8" width="32" height="32" viewBox="0 0 20 20">
      <g><rect fill="#2563eb" height="20" width="20"/></g><g><g><g><polygon points="14,13 13,13 13,12 7,12 7,13 6,13 6,12 3,12 3,16 17,16 17,12 14,12"/></g><path d="M13,7V4H7v3H3v4h3v-1h1v1h6v-1h1v1h3V7H13z M12,7H8V5h4V7z"/></g></g>
    </svg>
  </g>
  <!-- Icon 12: 24px -->
  <g transform="translate(252, 152)">
    <rect width="48" height="48" fill="#ffffff" stroke="#e9ecef" stroke-width="1" rx="4"/>
    <svg x="8" y="8" width="32" height="32" viewBox="0 0 24 24">
      <g><rect fill="#2563eb" height="24" width="24"/></g><g><path d="M14.5,2.5c0,1.06-0.75,3.64-1.19,5.04C13.13,8.11,12.6,8.5,12,8.5h0c-0.6,0-1.13-0.39-1.31-0.96 C10.25,6.14,9.5,3.56,9.5,2.5C9.5,1.12,10.62,0,12,0S14.5,1.12,14.5,2.5z M12,10c-1.1,0-2,0.9-2,2s0.9,2,2,2s2-0.9,2-2 S13.1,10,12,10z M16.08,5.11c0.18-0.75,0.33-1.47,0.39-2.06C19.75,4.69,22,8.08,22,12c0,5.52-4.48,10-10,10S2,17.52,2,12 c0-3.92,2.25-7.31,5.53-8.95C7.6,3.64,7.74,4.37,7.92,5.11C5.58,6.51,4,9.07,4,12c0,4.42,3.58,8,8,8s8-3.58,8-8 C20,9.07,18.42,6.51,16.08,5.11z M18,12c0,3.31-2.69,6-6,6s-6-2.69-6-6c0-2,0.98-3.77,2.48-4.86c0.23,0.81,0.65,2.07,0.65,2.07 C8.43,9.93,8,10.92,8,12c0,2.21,1.79,4,4,4s4-1.79,4-4c0-1.08-0.43-2.07-1.13-2.79c0,0,0.41-1.22,0.65-2.07C17.02,8.23,18,10,18,12 z"/></g>
    </svg>
  </g>
  <!-- Icon 13: 24px -->
  <g transform="translate(312, 152)">
    <rect width="48" height="48" fill="#ffffff" stroke="#e9ecef" stroke-width="1" rx="4"/>
    <svg x="8" y="8" width="32" height="32" viewBox="0 0 24 24">
      <path d="M0 0h24v24H0V0z" fill="#2563eb"/><path d="M12.01 2C6.49 2 2.02 6.48 2.02 12s4.47 10 9.99 10c5.53 0 10.01-4.48 10.01-10S17.54 2 12.01 2zm.01 18c-4.42 0-8-3.58-8-8s3.58-8 8-8 8 3.58 8 8-3.58 8-8 8zm3.5-9c.83 0 1.5-.67 1.5-1.5S16.35 8 15.52 8s-1.5.67-1.5 1.5.67 1.5 1.5 1.5zm-7 0c.83 0 1.5-.67 1.5-1.5S9.35 8 8.52 8s-1.5.67-1.5 1.5.67 1.5 1.5 1.5zm3.5 6.5c2.33 0 4.31-1.46 5.11-3.5H6.91c.8 2.04 2.78 3.5 5.11 3.5z"/>
    </svg>
  </g>
  <!-- Icon 14: 20px -->
  <g transform="translate(372, 152)">
    <rect width="48" height="48" fill="#ffffff" stroke="#e9ecef" stroke-width="1" rx="4"/>
    <svg x="8" y="8" width="32" height="32" viewBox="0 0 20 20">
      <g><rect fill="#2563eb" height="20" width="20" y="0"/><g><path d="M17.07,17.07L2.93,2.93L2.22,3.64L4,5.41V16h10.59l1.78,1.78L17.07,17.07z M6,14l2-2.67l1.35,1.81l1.05-1.32L12.59,14H6z M16,14.59L5.41,4H16V14.59z"/></g></g>
    </svg>
  </g>
  <!-- Icon 15: 24px -->
  <g transform="translate(12, 212)">
    <rect width="48" height="48" fill="#ffffff" stroke="#e9ecef" stroke-width="1" rx="4"/>
    <svg x="8" y="8" width="32" height="32" viewBox="0 0 24 24">
      <path d="M0 0h24v24H0z" fill="#2563eb"/><path d="M21 3H3v18h18V3zm-2 16H5V5h14v14z"/>
    </svg>
  </g>
  <!-- Icon 16: 24px -->
  <g transform="translate(72, 212)">
    <rect width="48" height="48" fill="#ffffff" stroke="#e9ecef" stroke-width="1" rx="4"/>
    <svg x="8" y="8" width="32" height="32" viewBox="0 0 24 24">
      <g><rect fill="#2563eb" height="24" width="24"/></g><g><g><rect height="1.5" width="1.5" x="13.5" y="6.5"/><rect height="1.5" width="1.5" x="15" y="14"/><path d="M3,3v18h18V3H3z M12,10h3V9h-3V5.5h4.5v6H12V10z M7,5.5h3v6H8.5V7H7V5.5z M12.5,18.5H11V14h-1v3H8.5v-3h-1v4.5H6v-6h6.5 V18.5z M18,17h-3v1.5h-1.5v-6H18V17z"/></g></g>
    </svg>
  </g>
  <!-- Icon 17: 24px -->
  <g transform="translate(132, 212)">
    <rect width="48" height="48" fill="#ffffff" stroke="#e9ecef" stroke-width="1" rx="4"/>
    <svg x="8" y="8" width="32" height="32" viewBox="0 0 24 24">
      <path d="M0 0h24v24H0V0z" fill="#2563eb"/><path d="M22 6H12l-2-2H2v16h20V6zm-7 3c1.1 0 2 .9 2 2s-.9 2-2 2-2-.9-2-2 .9-2 2-2zm4 8h-8v-1c0-1.33 2.67-2 4-2s4 .67 4 2v1z"/>
    </svg>
  </g>
  <!-- Icon 18: 24px -->
  <g transform="translate(192, 212)">
    <rect width="48" height="48" fill="#ffffff" stroke="#e9ecef" stroke-width="1" rx="4"/>
    <svg x="8" y="8" width="32" height="32" viewBox="0 0 24 24">
      <path d="M0 0h24v24H0V0z" fill="#2563eb"/><path d="M19 7v4H5.83l3.58-3.59L8 6l-6 6 6 6 1.41-1.41L5.83 13H21V7h-2z"/>
    </svg>
  </g>
  <!-- Icon 19: 24px -->
  <g transform="translate(252, 212)">
    <rect width="48" height="48" fill="#ffffff" stroke="#e9ecef" stroke-width="1" rx="4"/>
    <svg x="8" y="8" width="32" height="32" viewBox="0 0 24 24">
      <path d="M0 0h24v24H0V0z" fill="#2563eb"/><path d="M7 8V5l-7 7 7 7v-3l-4-4 4-4zm6 1V5l-7 7 7 7v-4.1c5 0 8.5 1.6 11 5.1-1-5-4-10-11-11z"/>
    </svg>
  </g>
  <!-- Icon 20: 20px -->
  <g transform="translate(312, 212)">
    <rect width="48" height="48" fill="#ffffff" stroke="#e9ecef" stroke-width="1" rx="4"/>
    <svg x="8" y="8" width="32" height="32" viewBox="0 0 20 20">
      <g><rect fill="#2563eb" height="20" width="20"/></g><g><g><path d="M9.81,13.58c-1.89-0.96-3.43-2.5-4.39-4.39L7.1,7.5L6.69,4H3.02C2.63,10.79,8.21,16.37,15,15.98v-3.68l-3.51-0.41 L9.81,13.58z"/><path d="M16.67,5.3C16.53,5.19,15.11,4,13,4c-2.12,0-3.53,1.19-3.67,1.3L13,10L16.67,5.3z"/></g></g>
    </svg>
  </g>
  <!-- Icon 21: 20px -->
  <g transform="translate(372, 212)">
    <rect width="48" height="48" fill="#ffffff" stroke="#e9ecef" stroke-width="1" rx="4"/>
    <svg x="8" y="8" width="32" height="32" viewBox="0 0 20 20">
      <g><rect fill="#2563eb" height="20" width="20"/><path d="M15,12.5l3,3l-3,3V16h-3v-1h3V12.5z M11,16H3V4h14v8h-1V6.18L10,10L4,6.18V15h7L11,16z M4,5l6,3.82L16,5H4z"/></g>
    </svg>
  </g>
  <!-- Icon 22: 24px -->
  <g transform="translate(12, 272)">
    <rect width="48" height="48" fill="#ffffff" stroke="#e9ecef" stroke-width="1" rx="4"/>
    <svg x="8" y="8" width="32" height="32" viewBox="0 0 24 24">
      <g><path d="M0,0h24v24H0V0z" fill="#2563eb"/></g><g><g><path d="M15,3H3v18h18V9L15,3z M8,17c-0.55,0-1-0.45-1-1s0.45-1,1-1s1,0.45,1,1S8.55,17,8,17z M8,13c-0.55,0-1-0.45-1-1 s0.45-1,1-1s1,0.45,1,1S8.55,13,8,13z M8,9C7.45,9,7,8.55,7,8s0.45-1,1-1s1,0.45,1,1S8.55,9,8,9z M14,10V4.5l5.5,5.5H14z"/></g></g>
    </svg>
  </g>
  <!-- Icon 23: 24px -->
  <g transform="translate(72, 272)">
    <rect width="48" height="48" fill="#ffffff" stroke="#e9ecef" stroke-width="1" rx="4"/>
    <svg x="8" y="8" width="32" height="32" viewBox="0 0 24 24">
      <g><path d="M0,0h24v24H0V0z" fill="#2563eb"/></g><g><g><path d="M12,2C6.49,2,2,6.49,2,12s4.49,10,10,10s10-4.49,10-10S17.51,2,12,2z M12,20c-4.41,0-8-3.59-8-8s3.59-8,8-8s8,3.59,8,8 S16.41,20,12,20z M15,12c0,1.66-1.34,3-3,3s-3-1.34-3-3s1.34-3,3-3S15,10.34,15,12z"/></g></g>
    </svg>
  </g>
  <!-- Icon 24: 24px -->
  <g transform="translate(132, 272)">
    <rect width="48" height="48" fill="#ffffff" stroke="#e9ecef" stroke-width="1" rx="4"/>
    <svg x="8" y="8" width="32" height="32" viewBox="0 0 24 24">
      <path d="M0 0h24v24H0V0z" fill="#2563eb"/><path d="M15.67 4H14V2h-4v2H8.33C7.6 4 7 4.6 7 5.33v15.33C7 21.4 7.6 22 8.33 22h7.33c.74 0 1.34-.6 1.34-1.33V5.33C17 4.6 16.4 4 15.67 4zM13 18h-2v-2h2v2zm1.3-5.31s-.38.42-.67.71c-.48.48-.83 1.15-.83 1.6h-1.6c0-.83.46-1.52.93-2l.93-.94c.27-.27.44-.65.44-1.06 0-.83-.67-1.5-1.5-1.5s-1.5.67-1.5 1.5H9c0-1.66 1.34-3 3-3s3 1.34 3 3c0 .66-.27 1.26-.7 1.69z"/>
    </svg>
  </g>
  <!-- Icon 25: 24px -->
  <g transform="translate(192, 272)">
    <rect width="48" height="48" fill="#ffffff" stroke="#e9ecef" stroke-width="1" rx="4"/>
    <svg x="8" y="8" width="32" height="32" viewBox="0 0 24 24">
      <g><rect fill="#2563eb" height="24" width="24"/></g><g><path d="M2,4v16h20V4H2z M13,9h4c0.55,0,1,0.45,1,1v4c0,0.55-0.45,1-1,1h-4V9z M9.5,13.5v-1H6V9h5v2H9.5v-0.5h-2v1H11V15H6v-2h1.5 v0.5H9.5z M14.5,13.5h2v-3h-2V13.5z"/></g>
    </svg>
  </g>
  <!-- Icon 26: 24px -->
  <g transform="translate(252, 272)">
    <rect width="48" height="48" fill="#ffffff" stroke="#e9ecef" stroke-width="1" rx="4"/>
    <svg x="8" y="8" width="32" height="32" viewBox="0 0 24 24">
      <path d="M0 0h24v24H0V0z" fill="#2563eb"/><path d="M21 4H3v16h18V4zm-10 7H9.5v-.5h-2v3h2V13H11v2H6V9h5v2zm7 0h-1.5v-.5h-2v3h2V13H18v2h-5V9h5v2z"/>
    </svg>
  </g>
  <!-- Icon 27: 24px -->
  <g transform="translate(312, 272)">
    <rect width="48" height="48" fill="#ffffff" stroke="#e9ecef" stroke-width="1" rx="4"/>
    <svg x="8" y="8" width="32" height="32" viewBox="0 0 24 24">
      <g><rect fill="#2563eb" height="24" width="24"/></g><g><g><path d="M2,4v16h20V4H2z M11,17H7v-4h4V17z M11,11H7V7h4V11z M17,17h-4v-4h4V17z M17,11h-4V7h4V11z"/></g></g>
    </svg>
  </g>
  <!-- Icon 28: 20px -->
  <g transform="translate(372, 272)">
    <rect width="48" height="48" fill="#ffffff" stroke="#e9ecef" stroke-width="1" rx="4"/>
    <svg x="8" y="8" width="32" height="32" viewBox="0 0 20 20">
      <g><rect fill="#2563eb" height="20" width="20"/></g><g><path d="M8.07,10.75C8.42,12.6,10.05,14,12,14c2.21,0,4-1.79,4-4c0-2.21-1.79-4-4-4c-1.95,0-3.58,1.4-3.93,3.25l-3.2,0l1.19-1.19 L5,7l-3,3l3,3l1.06-1.06l-1.19-1.19L8.07,10.75z"/></g>
    </svg>
  </g>
  <!-- Icon 29: 24px -->
  <g transform="translate(12, 332)">
    <rect width="48" height="48" fill="#ffffff" stroke="#e9ecef" stroke-width="1" rx="4"/>
    <svg x="8" y="8" width="32" height="32" viewBox="0 0 24 24">
      <g><rect fill="#2563eb" height="24" width="24"/></g><g><g><path d="M14.73,13.31C15.52,12.24,16,10.93,16,9.5C16,5.91,13.09,3,9.5,3S3,5.91,3,9.5C3,13.09,5.91,16,9.5,16 c1.43,0,2.74-0.48,3.81-1.27L19.59,21L21,19.59L14.73,13.31z M9.5,14C7.01,14,5,11.99,5,9.5S7.01,5,9.5,5S14,7.01,14,9.5 S11.99,14,9.5,14z"/><polygon points="10.29,8.44 9.5,6 8.71,8.44 6.25,8.44 8.26,10.03 7.49,12.5 9.5,10.97 11.51,12.5 10.74,10.03 12.75,8.44"/></g></g>
    </svg>
  </g>
  <!-- Icon 30: 24px -->
  <g transform="translate(72, 332)">
    <rect width="48" height="48" fill="#ffffff" stroke="#e9ecef" stroke-width="1" rx="4"/>
    <svg x="8" y="8" width="32" height="32" viewBox="0 0 24 24">
      <rect fill="#2563eb" height="24" width="24" x="0" y="0"/><path d="M12,2C6.48,2,2,6.48,2,12c0,5.52,4.48,10,10,10s10-4.48,10-10C22,6.48,17.52,2,12,2z M13.88,11.54l-4.96,4.96l-1.41-1.41 l4.96-4.96L10.34,8l5.65,0.01L16,13.66L13.88,11.54z"/><g/><g/><g/>
    </svg>
  </g>
  <!-- Icon 31: 20px -->
  <g transform="translate(132, 332)">
    <rect width="48" height="48" fill="#ffffff" stroke="#e9ecef" stroke-width="1" rx="4"/>
    <svg x="8" y="8" width="32" height="32" viewBox="0 0 20 20">
      <g><rect fill="#2563eb" height="20" width="20"/></g><g><g><polygon points="14.5,15 5.5,15 5.5,5 12,5 12,1 4,1 4,19 16,19 16,13 14.5,13"/><polygon points="15.23,11 18.75,7.48 17.69,6.42 16,8.11 16,3 14.5,3 14.5,8.14 12.81,6.45 11.75,7.52"/></g></g>
    </svg>
  </g>
  <!-- Icon 32: 24px -->
  <g transform="translate(192, 332)">
    <rect width="48" height="48" fill="#ffffff" stroke="#e9ecef" stroke-width="1" rx="4"/>
    <svg x="8" y="8" width="32" height="32" viewBox="0 0 24 24">
      <g><path d="M0,0h24v24H0V0z" fill="#2563eb"/></g><g><path d="M4,20h16v2H4V20z M4,2h16v2H4V2z M13,9h3l-4-4L8,9h3v6H8l4,4l4-4h-3V9z"/></g>
    </svg>
  </g>
  <!-- Icon 33: 24px -->
  <g transform="translate(252, 332)">
    <rect width="48" height="48" fill="#ffffff" stroke="#e9ecef" stroke-width="1" rx="4"/>
    <svg x="8" y="8" width="32" height="32" viewBox="0 0 24 24">
      <path d="M0 0h24v24H0V0z" fill="#2563eb"/><path d="M3 17h18v2H3v-2zm0-7h18v5H3v-5zm0-4h18v2H3V6z"/>
    </svg>
  </g>
  <!-- Icon 34: 24px -->
  <g transform="translate(312, 332)">
    <rect width="48" height="48" fill="#ffffff" stroke="#e9ecef" stroke-width="1" rx="4"/>
    <svg x="8" y="8" width="32" height="32" viewBox="0 0 24 24">
      <path d="M0 0h24v24H0V0z" fill="#2563eb"/><path d="M21 18v3H3V3h18v3H10v12h11zm-9-2h10V8H12v8zm4-2.5c-.83 0-1.5-.67-1.5-1.5s.67-1.5 1.5-1.5 1.5.67 1.5 1.5-.67 1.5-1.5 1.5z"/>
    </svg>
  </g>
  <!-- Icon 35: 24px -->
  <g transform="translate(372, 332)">
    <rect width="48" height="48" fill="#ffffff" stroke="#e9ecef" stroke-width="1" rx="4"/>
    <svg x="8" y="8" width="32" height="32" viewBox="0 0 24 24">
      <path d="M19.5 9.5c-1.03 0-1.9.62-2.29 1.5h-2.92c-.39-.88-1.26-1.5-2.29-1.5s-1.9.62-2.29 1.5H6.79c-.39-.88-1.26-1.5-2.29-1.5C3.12 9.5 2 10.62 2 12s1.12 2.5 2.5 2.5c1.03 0 1.9-.62 2.29-1.5h2.92c.39.88 1.26 1.5 2.29 1.5s1.9-.62 2.29-1.5h2.92c.39.88 1.26 1.5 2.29 1.5 1.38 0 2.5-1.12 2.5-2.5s-1.12-2.5-2.5-2.5z"/>
    </svg>
  </g>
  
  <!-- Footer -->
  <text x="400" y="580" text-anchor="middle" font-family="system-ui, -apple-system, sans-serif" font-size="12" fill="#6c757d">
    Showing 35 of 2813 icons
  </text>
  
</svg>