<svg width="448" height="368" xmlns="http://www.w3.org/2000/svg">
  <!-- Background -->
  <rect width="448" height="368" fill="#1a1a1a"/>
  
  <!-- Icon Grid -->
  <!-- Icon 1: 24px -->
  <g transform="translate(20, 20)">
    <rect width="48" height="48" fill="#1a1a1a" stroke="#333333" stroke-width="1" rx="4"/>
    <svg x="8" y="8" width="32" height="32" viewBox="0 0 24 24" style="fill: #ffffff; stroke: none;">
      <path d="M0 0h24v24H0V0z" fill="none"/><path d="M17 7H7c-2.76 0-5 2.24-5 5s2.24 5 5 5h10c2.76 0 5-2.24 5-5s-2.24-5-5-5zM7 15c-1.66 0-3-1.34-3-3s1.34-3 3-3 3 1.34 3 3-1.34 3-3 3z"/>
    </svg>
  </g>
  <!-- Icon 2: 24px -->
  <g transform="translate(80, 20)">
    <rect width="48" height="48" fill="#1a1a1a" stroke="#333333" stroke-width="1" rx="4"/>
    <svg x="8" y="8" width="32" height="32" viewBox="0 0 24 24" style="fill: #ffffff; stroke: none;">
      <path d="M0 0h24v24H0V0z" fill="none"/><path d="M21 3H3c-1.1 0-2 .9-2 2v12c0 1.1.9 2 2 2h5v1c0 .55.45 1 1 1h6c.55 0 1-.45 1-1v-1h5c1.1 0 1.99-.9 1.99-2L23 5c0-1.11-.9-2-2-2zm-1 14H4c-.55 0-1-.45-1-1V6c0-.55.45-1 1-1h16c.55 0 1 .45 1 1v10c0 .55-.45 1-1 1z"/>
    </svg>
  </g>
  <!-- Icon 3: 24px -->
  <g transform="translate(140, 20)">
    <rect width="48" height="48" fill="#1a1a1a" stroke="#333333" stroke-width="1" rx="4"/>
    <svg x="8" y="8" width="32" height="32" viewBox="0 0 24 24" style="fill: #ffffff; stroke: none;">
      <rect fill="none" height="24" width="24"/><path d="M8.27,10c0.34,0,0.68-0.16,0.84-0.47C9.28,9.22,9.62,9,10,9h4c0.55,0,1,0.45,1,1v1H6c-2.21,0-4,1.79-4,4v2 c0,0.55,0.45,1,1,1h13c0.55,0,1-0.45,1-1v-1c1.66,0,3-1.34,3-3V9c0-0.55,0.45-1,1-1h0c0.55,0,1-0.45,1-1v0c0-0.55-0.45-1-1-1h0 c-1.66,0-3,1.34-3,3v4c0,0.55-0.45,1-1,1v-4c0-1.66-1.34-3-3-3h-4C8.87,7,7.89,7.62,7.37,8.55C7.01,9.2,7.53,10,8.27,10z"/>
    </svg>
  </g>
  <!-- Icon 4: 24px -->
  <g transform="translate(200, 20)">
    <rect width="48" height="48" fill="#1a1a1a" stroke="#333333" stroke-width="1" rx="4"/>
    <svg x="8" y="8" width="32" height="32" viewBox="0 0 24 24" style="fill: #ffffff; stroke: none;">
      <path d="M0,0h24v24H0V0z" fill="none"/><path d="M4,18h11c0.55,0,1-0.45,1-1v0c0-0.55-0.45-1-1-1H4c-0.55,0-1,0.45-1,1v0C3,17.55,3.45,18,4,18z M4,13h8c0.55,0,1-0.45,1-1v0 c0-0.55-0.45-1-1-1H4c-0.55,0-1,0.45-1,1v0C3,12.55,3.45,13,4,13z M3,7L3,7c0,0.55,0.45,1,1,1h11c0.55,0,1-0.45,1-1v0 c0-0.55-0.45-1-1-1H4C3.45,6,3,6.45,3,7z M20.3,14.88L17.42,12l2.88-2.88c0.39-0.39,0.39-1.02,0-1.41l0,0 c-0.39-0.39-1.02-0.39-1.41,0l-3.59,3.59c-0.39,0.39-0.39,1.02,0,1.41l3.59,3.59c0.39,0.39,1.02,0.39,1.41,0l0,0 C20.68,15.91,20.69,15.27,20.3,14.88z"/><path d="M0,0h24v24H0V0z" fill="none"/>
    </svg>
  </g>
  <!-- Icon 5: 20px -->
  <g transform="translate(260, 20)">
    <rect width="48" height="48" fill="#1a1a1a" stroke="#333333" stroke-width="1" rx="4"/>
    <svg x="8" y="8" width="32" height="32" viewBox="0 0 20 20" style="fill: #ffffff; stroke: none;">
      <g><rect fill="none" height="20" width="20"/></g><g><path d="M16,15.5v-11C16,3.67,15.33,3,14.5,3h-9C4.67,3,4,3.67,4,4.5v11H2.75C2.34,15.5,2,15.84,2,16.25l0,0 C2,16.66,2.34,17,2.75,17h14.5c0.41,0,0.75-0.34,0.75-0.75l0,0c0-0.41-0.34-0.75-0.75-0.75H16z M9,4.5h2v11H9V4.5z"/></g>
    </svg>
  </g>
  <!-- Icon 6: 24px -->
  <g transform="translate(320, 20)">
    <rect width="48" height="48" fill="#1a1a1a" stroke="#333333" stroke-width="1" rx="4"/>
    <svg x="8" y="8" width="32" height="32" viewBox="0 0 24 24" style="fill: #ffffff; stroke: none;">
      <path d="M9.29 15.88L13.17 12 9.29 8.12c-.39-.39-.39-1.02 0-1.41.39-.39 1.02-.39 1.41 0l4.59 4.59c.39.39.39 1.02 0 1.41L10.7 17.3c-.39.39-1.02.39-1.41 0-.38-.39-.39-1.03 0-1.42z"/>
    </svg>
  </g>
  <!-- Icon 7: 24px -->
  <g transform="translate(380, 20)">
    <rect width="48" height="48" fill="#1a1a1a" stroke="#333333" stroke-width="1" rx="4"/>
    <svg x="8" y="8" width="32" height="32" viewBox="0 0 24 24" style="fill: #ffffff; stroke: none;">
      <path d="M0 0h24v24H0V0z" fill="none"/><path d="M24 15c0-2.64-2.05-4.78-4.65-4.96C18.67 6.59 15.64 4 12 4c-1.33 0-2.57.36-3.65.97l1.49 1.49C10.51 6.17 11.23 6 12 6c3.04 0 5.5 2.46 5.5 5.5v.5H19c1.66 0 3 1.34 3 3 0 .99-.48 1.85-1.21 2.4l1.41 1.41c1.09-.92 1.8-2.27 1.8-3.81zM3.71 4.56c-.39.39-.39 1.02 0 1.41l2.06 2.06h-.42c-3.28.35-5.76 3.34-5.29 6.79C.46 17.84 3.19 20 6.22 20h11.51l1.29 1.29c.39.39 1.02.39 1.41 0 .39-.39.39-1.02 0-1.41L5.12 4.56c-.39-.39-1.02-.39-1.41 0zM6 18c-2.21 0-4-1.79-4-4s1.79-4 4-4h1.73l8 8H6z"/>
    </svg>
  </g>
  <!-- Icon 8: 20px -->
  <g transform="translate(20, 80)">
    <rect width="48" height="48" fill="#1a1a1a" stroke="#333333" stroke-width="1" rx="4"/>
    <svg x="8" y="8" width="32" height="32" viewBox="0 0 20 20" style="fill: #ffffff; stroke: none;">
      <g><rect fill="none" height="20" width="20"/></g><g><g><path d="M10,3c-3.87,0-7,3.13-7,7c0,3.87,3.13,7,7,7s7-3.13,7-7C17,6.13,13.87,3,10,3z M11,5c0.55,0,1,0.45,1,1c0,0.55-0.45,1-1,1 s-1-0.45-1-1C10,5.45,10.45,5,11,5z M12.88,10.53c-0.64-0.16-1.47-0.57-2.05-1.31l-0.21,1.19l1.24,1.24 C11.95,11.74,12,11.87,12,12v2.5c0,0.28-0.22,0.5-0.5,0.5h0c-0.28,0-0.5-0.22-0.5-0.5v-2.29l-1-0.99l-0.33,1.64 c-0.05,0.27-0.32,0.45-0.59,0.39L6.9,12.79c-0.27-0.06-0.45-0.32-0.39-0.59l0,0c0.06-0.27,0.32-0.44,0.59-0.39l1.7,0.35l0.62-3.12 L8.5,9.37v0.76c0,0.27-0.22,0.49-0.49,0.49H7.99c-0.27,0-0.49-0.22-0.49-0.49V9.02c0-0.21,0.13-0.4,0.33-0.47l2.34-0.84 c0.46-0.17,1.01,0.06,1.25,0.49c0.52,0.94,1.23,1.27,1.7,1.37c0.22,0.05,0.38,0.25,0.38,0.48v0 C13.5,10.37,13.19,10.61,12.88,10.53z"/></g></g>
    </svg>
  </g>
  <!-- Icon 9: 24px -->
  <g transform="translate(80, 80)">
    <rect width="48" height="48" fill="#1a1a1a" stroke="#333333" stroke-width="1" rx="4"/>
    <svg x="8" y="8" width="32" height="32" viewBox="0 0 24 24" style="fill: #ffffff; stroke: none;">
      <path d="M0 0h24v24H0V0z" fill="none"/><path d="M19.23 15.26l-2.54-.29c-.61-.07-1.21.14-1.64.57l-1.84 1.84c-2.83-1.44-5.15-3.75-6.59-6.59l1.85-1.85c.43-.43.64-1.03.57-1.64l-.29-2.52c-.12-1.01-.97-1.77-1.99-1.77H5.03c-1.13 0-2.07.94-2 2.07.53 8.54 7.36 15.36 15.89 15.89 1.13.07 2.07-.87 2.07-2v-1.73c.01-1.01-.75-1.86-1.76-1.98z"/>
    </svg>
  </g>
  <!-- Icon 10: 20px -->
  <g transform="translate(140, 80)">
    <rect width="48" height="48" fill="#1a1a1a" stroke="#333333" stroke-width="1" rx="4"/>
    <svg x="8" y="8" width="32" height="32" viewBox="0 0 20 20" style="fill: #ffffff; stroke: none;">
      <g><rect fill="none" height="20" width="20"/></g><g><g><path d="M15.5,7h-0.68l-1.58-4.34C13.1,2.26,12.72,2,12.3,2h-1.8C10.22,2,10,2.22,10,2.5C10,2.78,10.22,3,10.5,3h1.8l1.46,4H8.75 L8.38,6H9.5C9.78,6,10,5.78,10,5.5C10,5.22,9.78,5,9.5,5h-3C6.22,5,6,5.22,6,5.5C6,5.78,6.22,6,6.5,6h0.82l1.46,4H7.95 C7.7,8.22,6.18,6.9,4.29,7.01c-1.68,0.09-3.1,1.43-3.27,3.1C0.8,12.25,2.41,14,4.5,14c1.79,0,3.21-1.29,3.45-3h4.1 c0.25,1.78,1.77,3.1,3.66,2.99c1.68-0.09,3.1-1.43,3.27-3.1C19.2,8.75,17.59,7,15.5,7z M4.5,11h2.45c-0.23,1.15-1.22,2-2.45,2 C3.1,13,2,11.9,2,10.5C2,9.1,3.22,7.94,4.62,8c1.17,0.05,2.11,0.88,2.33,2H4.5C4.22,10,4,10.22,4,10.5C4,10.78,4.22,11,4.5,11z M9.84,10L9.11,8h3.92c-0.53,0.52-0.88,1.22-0.98,2H9.84z M15.48,13C14.13,12.99,13,11.85,13,10.5c0-0.94,0.5-1.73,1.24-2.16 l0.86,2.36c0.09,0.26,0.38,0.39,0.64,0.3c0.26-0.09,0.39-0.38,0.3-0.64l-0.85-2.33C15.3,8.02,15.4,8,15.5,8c1.4,0,2.5,1.1,2.5,2.5 C18,11.91,16.89,13.01,15.48,13z"/><polygon points="9.5,16 7,16 10.5,18 10.5,17 13,17 9.5,15"/></g></g>
    </svg>
  </g>
  <!-- Icon 11: 20px -->
  <g transform="translate(200, 80)">
    <rect width="48" height="48" fill="#1a1a1a" stroke="#333333" stroke-width="1" rx="4"/>
    <svg x="8" y="8" width="32" height="32" viewBox="0 0 20 20" style="fill: #ffffff; stroke: none;">
      <g><rect fill="none" height="20" width="20"/></g><g><g><path d="M15.5,10c0.54,0,1.04,0.13,1.5,0.35V7c0-0.55-0.45-1-1-1h-4.47l-0.8-0.8l0.8-0.8c0.15-0.15,0.15-0.38,0-0.53v0 c-0.15-0.15-0.38-0.15-0.53,0L8.88,6c-0.15,0.15-0.15,0.38,0,0.53v0c0.15,0.15,0.38,0.15,0.53,0l0.8-0.8l0.8,0.8V9 c0,0.55-0.45,1-1,1H9.24C9.72,10.72,10,11.57,10,12.5c0,0.17-0.03,0.33-0.05,0.5h2.1C12.29,11.31,13.74,10,15.5,10z"/><path d="M3.5,8H8c0-0.55-0.45-1-1-1H3.5C3.22,7,3,7.22,3,7.5C3,7.78,3.22,8,3.5,8z"/><path d="M15.5,11c-1.38,0-2.5,1.12-2.5,2.5c0,1.38,1.12,2.5,2.5,2.5s2.5-1.12,2.5-2.5C18,12.12,16.88,11,15.5,11z M15.5,15 c-0.83,0-1.5-0.67-1.5-1.5s0.67-1.5,1.5-1.5s1.5,0.67,1.5,1.5S16.33,15,15.5,15z"/><path d="M8.34,11.53L8.2,11.18l0.45-0.19C8.3,10.28,7.72,9.7,7.01,9.35L6.82,9.8L6.47,9.66l0.18-0.44C6.29,9.08,5.91,9,5.5,9 S4.71,9.08,4.34,9.21l0.18,0.44L4.18,9.8L3.99,9.35c-0.72,0.34-1.3,0.92-1.64,1.64l0.45,0.19l-0.14,0.35l-0.44-0.18 C2.08,11.71,2,12.09,2,12.5s0.08,0.79,0.21,1.16l0.44-0.18l0.14,0.35l-0.45,0.19c0.34,0.72,0.92,1.3,1.64,1.64l0.19-0.45 l0.35,0.14l-0.18,0.44C4.71,15.92,5.09,16,5.5,16s0.79-0.08,1.16-0.21l-0.18-0.44l0.35-0.14l0.19,0.45 c0.72-0.34,1.3-0.92,1.64-1.64L8.2,13.82l0.14-0.35l0.44,0.18C8.92,13.29,9,12.91,9,12.5s-0.08-0.79-0.21-1.16L8.34,11.53z M5.5,15C4.12,15,3,13.88,3,12.5C3,11.12,4.12,10,5.5,10S8,11.12,8,12.5C8,13.88,6.88,15,5.5,15z"/></g></g>
    </svg>
  </g>
  <!-- Icon 12: 24px -->
  <g transform="translate(260, 80)">
    <rect width="48" height="48" fill="#1a1a1a" stroke="#333333" stroke-width="1" rx="4"/>
    <svg x="8" y="8" width="32" height="32" viewBox="0 0 24 24" style="fill: #ffffff; stroke: none;">
      <path d="M0 0h24v24H0V0z" fill="none"/><path d="M14.91 6.71c-.39-.39-1.02-.39-1.41 0L8.91 11.3c-.39.39-.39 1.02 0 1.41l4.59 4.59c.39.39 1.02.39 1.41 0 .39-.39.39-1.02 0-1.41L11.03 12l3.88-3.88c.38-.39.38-1.03 0-1.41z"/>
    </svg>
  </g>
  <!-- Icon 13: 24px -->
  <g transform="translate(320, 80)">
    <rect width="48" height="48" fill="#1a1a1a" stroke="#333333" stroke-width="1" rx="4"/>
    <svg x="8" y="8" width="32" height="32" viewBox="0 0 24 24" style="fill: #ffffff; stroke: none;">
      <path d="M0 0h24v24H0V0z" fill="none"/><path d="M21 1H7c-1.1 0-2 .9-2 2v14c0 1.1.9 2 2 2h14c1.1 0 2-.9 2-2V3c0-1.1-.9-2-2-2zm-1 16H8c-.55 0-1-.45-1-1V4c0-.55.45-1 1-1h12c.55 0 1 .45 1 1v12c0 .55-.45 1-1 1zM2 5c-.55 0-1 .45-1 1v15c0 1.1.9 2 2 2h15c.55 0 1-.45 1-1s-.45-1-1-1H4c-.55 0-1-.45-1-1V6c0-.55-.45-1-1-1zm15 8v-1.5c0-.83-.67-1.5-1.5-1.5.83 0 1.5-.67 1.5-1.5V7c0-1.1-.9-2-2-2h-3c-.55 0-1 .45-1 1s.45 1 1 1h3v2h-1c-.55 0-1 .45-1 1s.45 1 1 1h1v2h-3c-.55 0-1 .45-1 1s.45 1 1 1h3c1.1 0 2-.9 2-2z"/>
    </svg>
  </g>
  <!-- Icon 14: 24px -->
  <g transform="translate(380, 80)">
    <rect width="48" height="48" fill="#1a1a1a" stroke="#333333" stroke-width="1" rx="4"/>
    <svg x="8" y="8" width="32" height="32" viewBox="0 0 24 24" style="fill: #ffffff; stroke: none;">
      <path d="M0 0h24v24H0V0z" fill="none"/><path d="M5 17.5c.83 0 1.5-.67 1.5-1.5s-.67-1.5-1.5-1.5-1.5.67-1.5 1.5.67 1.5 1.5 1.5zM9 13c.55 0 1-.45 1-1s-.45-1-1-1-1 .45-1 1 .45 1 1 1zm0-4c.55 0 1-.45 1-1s-.45-1-1-1-1 .45-1 1 .45 1 1 1zM4 21h16c.55 0 1-.45 1-1s-.45-1-1-1H4c-.55 0-1 .45-1 1s.45 1 1 1zM5 9.5c.83 0 1.5-.67 1.5-1.5S5.83 6.5 5 6.5 3.5 7.17 3.5 8 4.17 9.5 5 9.5zm0 4c.83 0 1.5-.67 1.5-1.5s-.67-1.5-1.5-1.5-1.5.67-1.5 1.5.67 1.5 1.5 1.5zM9 17c.55 0 1-.45 1-1s-.45-1-1-1-1 .45-1 1 .45 1 1 1zm8-.5c.28 0 .5-.22.5-.5s-.22-.5-.5-.5-.5.22-.5.5.22.5.5.5zM3 4c0 .55.45 1 1 1h16c.55 0 1-.45 1-1s-.45-1-1-1H4c-.55 0-1 .45-1 1zm14 4.5c.28 0 .5-.22.5-.5s-.22-.5-.5-.5-.5.22-.5.5.22.5.5.5zm0 4c.28 0 .5-.22.5-.5s-.22-.5-.5-.5-.5.22-.5.5.22.5.5.5zM13 9c.55 0 1-.45 1-1s-.45-1-1-1-1 .45-1 1 .45 1 1 1zm0 4c.55 0 1-.45 1-1s-.45-1-1-1-1 .45-1 1 .45 1 1 1zm0 4c.55 0 1-.45 1-1s-.45-1-1-1-1 .45-1 1 .45 1 1 1z"/>
    </svg>
  </g>
  <!-- Icon 15: 24px -->
  <g transform="translate(20, 140)">
    <rect width="48" height="48" fill="#1a1a1a" stroke="#333333" stroke-width="1" rx="4"/>
    <svg x="8" y="8" width="32" height="32" viewBox="0 0 24 24" style="fill: #ffffff; stroke: none;">
      <g><rect fill="none" height="24" width="24"/></g><g><g><path d="M2,6v12c0,1.1,0.9,2,2,2h16c1.1,0,2-0.9,2-2V6c0-1.1-0.9-2-2-2H4C2.9,4,2,4.9,2,6z"/></g></g>
    </svg>
  </g>
  <!-- Icon 16: 24px -->
  <g transform="translate(80, 140)">
    <rect width="48" height="48" fill="#1a1a1a" stroke="#333333" stroke-width="1" rx="4"/>
    <svg x="8" y="8" width="32" height="32" viewBox="0 0 24 24" style="fill: #ffffff; stroke: none;">
      <path d="M0 0h24v24H0V0z" fill="none"/><path d="M20.5 16h-2c-.28 0-.5.22-.5.5s.22.5.5.5H20v.5h-.5c-.28 0-.5.22-.5.5s.22.5.5.5h.5v.5h-1.5c-.28 0-.5.22-.5.5s.22.5.5.5h2c.28 0 .5-.22.5-.5v-3c0-.28-.22-.5-.5-.5zm-2-11h.5v2.5c0 .28.22.5.5.5s.5-.22.5-.5v-3c0-.28-.22-.5-.5-.5h-1c-.28 0-.5.22-.5.5s.22.5.5.5zm2.5 5.72v-.22c0-.28-.22-.5-.5-.5h-2c-.28 0-.5.22-.5.5s.22.5.5.5h1.3l-1.68 1.96c-.08.09-.12.21-.12.32v.22c0 .28.22.5.5.5h2c.28 0 .5-.22.5-.5s-.22-.5-.5-.5h-1.3l1.68-1.96c.08-.09.12-.21.12-.32zM15 5H3c-.55 0-1 .45-1 1s.45 1 1 1h12c.55 0 1-.45 1-1s-.45-1-1-1zm0 12H3c-.55 0-1 .45-1 1s.45 1 1 1h12c.55 0 1-.45 1-1s-.45-1-1-1zm0-6H3c-.55 0-1 .45-1 1s.45 1 1 1h12c.55 0 1-.45 1-1s-.45-1-1-1z"/>
    </svg>
  </g>
  <!-- Icon 17: 24px -->
  <g transform="translate(140, 140)">
    <rect width="48" height="48" fill="#1a1a1a" stroke="#333333" stroke-width="1" rx="4"/>
    <svg x="8" y="8" width="32" height="32" viewBox="0 0 24 24" style="fill: #ffffff; stroke: none;">
      <path d="M0 0h24v24H0V0z" fill="none"/><path d="M15.32 3H8.68c-.26 0-.52.11-.7.29L3.29 7.98c-.18.18-.29.44-.29.7v6.63c0 .27.11.52.29.71l4.68 4.68c.19.19.45.3.71.3h6.63c.27 0 .52-.11.71-.29l4.68-4.68c.19-.19.29-.44.29-.71V8.68c0-.27-.11-.52-.29-.71l-4.68-4.68c-.18-.18-.44-.29-.7-.29zM12 17.3c-.72 0-1.3-.58-1.3-1.3s.58-1.3 1.3-1.3 1.3.58 1.3 1.3-.58 1.3-1.3 1.3zm0-4.3c-.55 0-1-.45-1-1V8c0-.55.45-1 1-1s1 .45 1 1v4c0 .55-.45 1-1 1z"/>
    </svg>
  </g>
  <!-- Icon 18: 20px -->
  <g transform="translate(200, 140)">
    <rect width="48" height="48" fill="#1a1a1a" stroke="#333333" stroke-width="1" rx="4"/>
    <svg x="8" y="8" width="32" height="32" viewBox="0 0 20 20" style="fill: #ffffff; stroke: none;">
      <g><rect fill="none" height="20" width="20"/></g><g><g><circle cx="10" cy="3.75" r="1.75"/><path d="M11.39,7.92C11.15,7.36,10.61,7,10,7S8.85,7.36,8.61,7.92L6.6,12.61C6.31,13.27,6.8,14,7.52,14H8.5v3c0,0.55,0.45,1,1,1 h1.01c0.55,0,1-0.45,1-1v-3h0.98c0.72,0,1.2-0.73,0.92-1.39L11.39,7.92z"/></g></g>
    </svg>
  </g>
  <!-- Icon 19: 24px -->
  <g transform="translate(260, 140)">
    <rect width="48" height="48" fill="#1a1a1a" stroke="#333333" stroke-width="1" rx="4"/>
    <svg x="8" y="8" width="32" height="32" viewBox="0 0 24 24" style="fill: #ffffff; stroke: none;">
      <path d="M0 0h24v24H0V0z" fill="none"/><circle cx="15.5" cy="9.5" r="1.5"/><circle cx="8.5" cy="9.5" r="1.5"/><path d="M11.99 2C6.47 2 2 6.48 2 12s4.47 10 9.99 10C17.52 22 22 17.52 22 12S17.52 2 11.99 2zM12 20c-4.42 0-8-3.58-8-8s3.58-8 8-8 8 3.58 8 8-3.58 8-8 8zm0-6c-1.9 0-3.63.97-4.65 2.58-.22.35-.11.81.24 1.03.35.22.81.11 1.03-.24.74-1.18 2-1.88 3.38-1.88s2.64.7 3.38 1.88c.14.23.39.35.64.35.14 0 .27-.04.4-.11.35-.22.46-.68.24-1.03C15.63 14.96 13.9 14 12 14z"/>
    </svg>
  </g>
  <!-- Icon 20: 20px -->
  <g transform="translate(320, 140)">
    <rect width="48" height="48" fill="#1a1a1a" stroke="#333333" stroke-width="1" rx="4"/>
    <svg x="8" y="8" width="32" height="32" viewBox="0 0 20 20" style="fill: #ffffff; stroke: none;">
      <rect fill="none" height="20" width="20"/><g><path d="M15,11.03C13.52,10.3,12.5,8.77,12.5,7c0-0.73,0.17-1.41,0.48-2.02C12.4,4.56,11.73,4.25,11,4.1V3.03 c0-0.53-0.4-1-0.93-1.03C9.48,1.96,9,2.43,9,3v1.1C6.72,4.56,5,6.58,5,9v5H4.75C4.34,14,4,14.34,4,14.75v0 c0,0.41,0.34,0.75,0.75,0.75h10.5c0.41,0,0.75-0.34,0.75-0.75v0c0-0.41-0.34-0.75-0.75-0.75H15L15,11.03z M10,18 c0.83,0,1.5-0.67,1.5-1.5h-3C8.5,17.33,9.17,18,10,18z M19.31,6.31h-1.56V4.75C17.75,4.34,17.41,4,17,4l0,0 c-0.41,0-0.75,0.34-0.75,0.75v1.56h-1.56C14.31,6.31,14,6.62,14,7v0c0,0.38,0.31,0.69,0.69,0.69h1.56v1.56 C16.25,9.66,16.59,10,17,10l0,0c0.41,0,0.75-0.34,0.75-0.75V7.69h1.56C19.69,7.69,20,7.38,20,7v0C20,6.62,19.69,6.31,19.31,6.31z"/></g>
    </svg>
  </g>
  <!-- Icon 21: 20px -->
  <g transform="translate(380, 140)">
    <rect width="48" height="48" fill="#1a1a1a" stroke="#333333" stroke-width="1" rx="4"/>
    <svg x="8" y="8" width="32" height="32" viewBox="0 0 20 20" style="fill: #ffffff; stroke: none;">
      <g><rect fill="none" height="20" width="20"/></g><g><g><path d="M4.82,8H5h5h0.32c0.14,0,0.25-0.11,0.25-0.25S10.45,7.5,10.32,7.5H10c0-1.02-0.62-1.9-1.5-2.29v0.54 C8.5,5.89,8.39,6,8.25,6S8,5.89,8,5.75v-0.7C7.84,5.02,7.67,5,7.5,5S7.16,5.02,7,5.05v0.7C7,5.89,6.89,6,6.75,6S6.5,5.89,6.5,5.75 V5.21C5.62,5.6,5,6.48,5,7.5H4.82c-0.14,0-0.25,0.11-0.25,0.25S4.68,8,4.82,8z"/><path d="M7.5,10.5c1.21,0,2.22-0.86,2.45-2h-4.9C5.28,9.64,6.29,10.5,7.5,10.5z"/><path d="M17.27,5.31l0.66-0.59L17.4,3.79l-0.85,0.28c-0.1-0.08-0.21-0.14-0.33-0.19L16.04,3h-1.07l-0.18,0.87 c-0.12,0.05-0.24,0.12-0.34,0.19L13.6,3.79l-0.54,0.93l0.66,0.59c-0.01,0.13-0.01,0.25,0,0.37l-0.66,0.61l0.54,0.93l0.86-0.27 c0.1,0.07,0.2,0.13,0.31,0.18L14.96,8h1.07l0.19-0.87c0.11-0.05,0.22-0.11,0.32-0.18l0.85,0.27l0.54-0.93l-0.66-0.61 C17.28,5.55,17.28,5.43,17.27,5.31z M15.5,6.39c-0.49,0-0.89-0.4-0.89-0.89c0-0.49,0.4-0.89,0.89-0.89s0.89,0.4,0.89,0.89 C16.39,5.99,15.99,6.39,15.5,6.39z"/><path d="M15.3,8.72l-0.59,0.2c-0.07-0.05-0.15-0.1-0.23-0.13l-0.13-0.61H13.6l-0.13,0.61c-0.08,0.04-0.17,0.08-0.24,0.14 l-0.59-0.19l-0.38,0.65l0.46,0.41c-0.01,0.09-0.01,0.18,0,0.26l-0.46,0.42l0.38,0.65l0.6-0.19c0.07,0.05,0.14,0.09,0.22,0.12 l0.14,0.62h0.75l0.13-0.61c0.08-0.04,0.15-0.08,0.22-0.13l0.59,0.19l0.38-0.65l-0.46-0.42c0.01-0.09,0.01-0.17,0-0.26l0.47-0.42 L15.3,8.72z M13.97,10.54c-0.35,0-0.62-0.28-0.62-0.62c0-0.35,0.28-0.62,0.62-0.62c0.35,0,0.62,0.28,0.62,0.62 C14.6,10.26,14.32,10.54,13.97,10.54z"/><path d="M7.5,12C5,12,2,13.24,2,15v0.97h11V15C13,13.24,10,12,7.5,12z"/></g></g>
    </svg>
  </g>
  <!-- Icon 22: 24px -->
  <g transform="translate(20, 200)">
    <rect width="48" height="48" fill="#1a1a1a" stroke="#333333" stroke-width="1" rx="4"/>
    <svg x="8" y="8" width="32" height="32" viewBox="0 0 24 24" style="fill: #ffffff; stroke: none;">
      <path d="M0 0h24v24H0V0z" fill="none"/><path d="M1.01 7L1 17c0 1.1.9 2 2 2h18c1.1 0 2-.9 2-2V7c0-1.1-.9-2-2-2H3c-1.1 0-1.99.9-1.99 2zM19 7v10H5V7h14z"/>
    </svg>
  </g>
  <!-- Icon 23: 24px -->
  <g transform="translate(80, 200)">
    <rect width="48" height="48" fill="#1a1a1a" stroke="#333333" stroke-width="1" rx="4"/>
    <svg x="8" y="8" width="32" height="32" viewBox="0 0 24 24" style="fill: #ffffff; stroke: none;">
      <path d="M0 0h24v24H0V0z" fill="none"/><path d="M.71 2.39c-.39.39-.39 1.02 0 1.41L2 5.1V19c0 1.1.9 2 2 2h13.9l2.29 2.29c.39.39 1.02.39 1.41 0 .39-.39.39-1.02 0-1.41L2.12 2.39C1.73 2 1.1 2 .71 2.39zM6 19H4v-2h2v2zm0-4H4v-2h2v2zm-2-4V9h2v2H4zm6 8H8v-2h2v2zm-2-4v-2h2v2H8zm4 4v-2h1.9l2 2H12zM8 5h2v2h-.45L12 9.45V9h7c.55 0 1 .45 1 1v7.45l2 2V9c0-1.1-.9-2-2-2h-8V5c0-1.1-.9-2-2-2H5.55L8 5.45V5zm8 6h2v2h-2z"/>
    </svg>
  </g>
  <!-- Icon 24: 24px -->
  <g transform="translate(140, 200)">
    <rect width="48" height="48" fill="#1a1a1a" stroke="#333333" stroke-width="1" rx="4"/>
    <svg x="8" y="8" width="32" height="32" viewBox="0 0 24 24" style="fill: #ffffff; stroke: none;">
      <g><path d="M0,0h24v24H0V0z" fill="none"/></g><g><path d="M17,1.01L7,1C5.9,1,5,1.9,5,3v18c0,1.1,0.9,2,2,2h10c1.1,0,2-0.9,2-2V3C19,1.9,18.1,1.01,17,1.01z M17,18H7V6h10V18z M14.79,12.21H13V9c0-0.55-0.45-1-1-1h0c-0.55,0-1,0.45-1,1v3.21H9.21c-0.45,0-0.67,0.54-0.35,0.85l2.79,2.79 c0.2,0.2,0.51,0.2,0.71,0l2.79-2.79C15.46,12.75,15.24,12.21,14.79,12.21z"/></g>
    </svg>
  </g>
  <!-- Icon 25: 24px -->
  <g transform="translate(200, 200)">
    <rect width="48" height="48" fill="#1a1a1a" stroke="#333333" stroke-width="1" rx="4"/>
    <svg x="8" y="8" width="32" height="32" viewBox="0 0 24 24" style="fill: #ffffff; stroke: none;">
      <g><path d="M0,0h24v24H0V0z" fill="none"/></g><g><g><path d="M21.41,13.42L18.83,16l-1.81-1.81L19.2,12L12,4.8L9.81,6.99L8,5.17l2.58-2.58c0.78-0.78,2.05-0.78,2.83,0l8,8 C22.2,11.37,22.2,12.63,21.41,13.42z M20.48,21.9L20.48,21.9c-0.39,0.39-1.02,0.39-1.41,0L16,18.83l-2.58,2.58 c-0.78,0.78-2.05,0.78-2.83,0l-8-8c-0.78-0.78-0.78-2.05,0-2.83L5.17,8L2.1,4.93c-0.39-0.39-0.39-1.02,0-1.41l0,0 c0.39-0.39,1.02-0.39,1.41,0l16.98,16.97C20.87,20.87,20.87,21.51,20.48,21.9z M14.19,17.02l-1.39-1.39l-0.09,0.09 c-0.39,0.39-1.02,0.39-1.42,0l-3.01-3.01c-0.39-0.39-0.39-1.02,0-1.41l0.09-0.09l-1.4-1.39L4.8,12l7.2,7.2L14.19,17.02z M15.71,11.29l-3.01-3.01c-0.39-0.39-1.02-0.39-1.41,0L11.2,8.38l4.42,4.42l0.09-0.09C16.1,12.32,16.1,11.68,15.71,11.29z"/></g></g>
    </svg>
  </g>
  <!-- Icon 26: 24px -->
  <g transform="translate(260, 200)">
    <rect width="48" height="48" fill="#1a1a1a" stroke="#333333" stroke-width="1" rx="4"/>
    <svg x="8" y="8" width="32" height="32" viewBox="0 0 24 24" style="fill: #ffffff; stroke: none;">
      <path d="M0 0h24v24H0V0z" fill="none"/><path d="M15.98 10.28l-1.38 1.38c-.2.2-.2.51 0 .71l1.38 1.38c.28.28.75.15.85-.23.11-.5.17-1 .17-1.52 0-.51-.06-1.01-.18-1.48-.09-.38-.56-.52-.84-.24zm4.12-2.5c-.25-.55-.98-.67-1.4-.24-.26.26-.31.64-.17.98.46 1.07.72 2.24.72 3.47 0 1.24-.26 2.42-.73 3.49-.14.32-.09.69.16.94.41.41 1.1.29 1.35-.23.63-1.3.98-2.76.98-4.3-.01-1.45-.33-2.85-.91-4.11zM11.41 12L15 8.42c.39-.39.39-1.02 0-1.42l-4.29-4.29c-.63-.63-1.71-.19-1.71.7v6.18L5.11 5.7c-.39-.39-1.02-.39-1.41 0-.39.39-.39 1.02 0 1.41L8.59 12 3.7 16.89c-.39.39-.39 1.02 0 1.41.39.39 1.02.39 1.41 0L9 14.41v6.18c0 .89 1.08 1.34 1.71.71L15 17c.39-.39.39-1.02 0-1.42L11.41 12zM11 5.83l1.88 1.88L11 9.59V5.83zm0 12.34v-3.76l1.88 1.88L11 18.17z"/>
    </svg>
  </g>
  <!-- Icon 27: 24px -->
  <g transform="translate(320, 200)">
    <rect width="48" height="48" fill="#1a1a1a" stroke="#333333" stroke-width="1" rx="4"/>
    <svg x="8" y="8" width="32" height="32" viewBox="0 0 24 24" style="fill: #ffffff; stroke: none;">
      <path d="M11.99 5V2.21c0-.45-.54-.67-.85-.35L7.35 5.65c-.2.2-.2.51 0 .71l3.79 3.79c.31.31.85.09.85-.35V7c3.73 0 6.68 3.42 5.86 7.29-.47 2.27-2.31 4.1-4.57 4.57-3.57.75-6.75-1.7-7.23-5.01-.06-.48-.48-.85-.98-.85-.6 0-1.08.53-1 1.13.62 4.39 4.8 7.64 9.53 6.72 3.12-.61 5.63-3.12 6.24-6.24.99-5.13-2.9-9.61-7.85-9.61zm-1.1 11h-.85v-3.26l-1.01.31v-.69l1.77-.63h.09V16zm4.28-1.76c0 .32-.03.6-.1.82s-.17.42-.29.57-.28.26-.45.33-.37.1-.59.1-.41-.03-.59-.1-.33-.18-.46-.33-.23-.34-.3-.57-.11-.5-.11-.82v-.74c0-.32.03-.6.1-.82s.17-.42.29-.57.28-.26.45-.33.37-.1.59-.1.41.03.59.1.33.18.46.33.23.34.3.57.11.5.11.82v.74zm-.85-.86c0-.19-.01-.35-.04-.48s-.07-.23-.12-.31-.11-.14-.19-.17-.16-.05-.25-.05-.18.02-.25.05-.14.09-.19.17-.09.18-.12.31-.04.29-.04.48v.97c0 .19.01.35.04.48s.07.24.12.32.11.14.19.17.16.05.25.05.18-.02.25-.05.14-.09.19-.17.09-.19.11-.32.04-.29.04-.48v-.97z"/>
    </svg>
  </g>
  <!-- Icon 28: 24px -->
  <g transform="translate(380, 200)">
    <rect width="48" height="48" fill="#1a1a1a" stroke="#333333" stroke-width="1" rx="4"/>
    <svg x="8" y="8" width="32" height="32" viewBox="0 0 24 24" style="fill: #ffffff; stroke: none;">
      <path d="M21 3H3c-1.1 0-2 .9-2 2v14c0 1.1.9 2 2 2h18c1.1 0 2-.9 2-2V5c0-1.1-.9-2-2-2zm-1 16H4c-.55 0-1-.45-1-1v-1c0-.55.45-1 1-1h16c.55 0 1 .45 1 1v1c0 .55-.45 1-1 1z"/>
    </svg>
  </g>
  <!-- Icon 29: 24px -->
  <g transform="translate(20, 260)">
    <rect width="48" height="48" fill="#1a1a1a" stroke="#333333" stroke-width="1" rx="4"/>
    <svg x="8" y="8" width="32" height="32" viewBox="0 0 24 24" style="fill: #ffffff; stroke: none;">
      <path d="M0 0h24v24H0V0z" fill="none"/><path d="M4 15h6c.55 0 1-.45 1-1s-.45-1-1-1H4c-.55 0-1 .45-1 1s.45 1 1 1zm0 4h6c.55 0 1-.45 1-1s-.45-1-1-1H4c-.55 0-1 .45-1 1s.45 1 1 1zm0-8h6c.55 0 1-.45 1-1s-.45-1-1-1H4c-.55 0-1 .45-1 1s.45 1 1 1zM3 6c0 .55.45 1 1 1h6c.55 0 1-.45 1-1s-.45-1-1-1H4c-.55 0-1 .45-1 1zm11-1h6c.55 0 1 .45 1 1v12c0 .55-.45 1-1 1h-6c-.55 0-1-.45-1-1V6c0-.55.45-1 1-1z"/>
    </svg>
  </g>
  <!-- Icon 30: 20px -->
  <g transform="translate(80, 260)">
    <rect width="48" height="48" fill="#1a1a1a" stroke="#333333" stroke-width="1" rx="4"/>
    <svg x="8" y="8" width="32" height="32" viewBox="0 0 20 20" style="fill: #ffffff; stroke: none;">
      <g><rect fill="none" height="20" width="20"/></g><g><g><path d="M16.51,3.49C14.87,1.96,12.56,1,10,1S5.13,1.96,3.49,3.49L2,2v4h4L4.69,4.69C6.02,3.47,7.91,2.7,10,2.7 s3.98,0.77,5.31,1.99L14,6h4V2L16.51,3.49z"/><path d="M11.93,11H10.5V6.25C10.5,5.56,9.94,5,9.25,5h0C8.56,5,8,5.56,8,6.25V15l-2.49-0.83c-0.31-0.1-0.66-0.02-0.89,0.21l0,0 c-0.34,0.34-0.34,0.89,0,1.24l2.94,2.94C7.84,18.84,8.22,19,8.62,19h5.27c0.73,0,1.36-0.53,1.48-1.25l0.61-3.65 c0.11-0.65-0.22-1.29-0.81-1.59l-2.8-1.4C12.23,11.04,12.08,11,11.93,11z"/></g></g>
    </svg>
  </g>
  <!-- Icon 31: 20px -->
  <g transform="translate(140, 260)">
    <rect width="48" height="48" fill="#1a1a1a" stroke="#333333" stroke-width="1" rx="4"/>
    <svg x="8" y="8" width="32" height="32" viewBox="0 0 20 20" style="fill: #ffffff; stroke: none;">
      <g><rect fill="none" height="20" width="20"/></g><g><path d="M6.72,10.91c-0.15-0.15-0.19-0.36-0.11-0.55C6.98,9.54,8.03,7.38,9.5,5.91c3.45-3.45,6.38-3.58,7.6-3.42 c0.22,0.03,0.39,0.2,0.42,0.42c0.15,1.21,0.03,4.15-3.42,7.6c-1.47,1.47-3.63,2.52-4.45,2.89c-0.19,0.08-0.41,0.04-0.55-0.11 L6.72,10.91z M12.5,9C13.32,9,14,8.33,14,7.5S13.33,6,12.5,6C11.68,6,11,6.67,11,7.5S11.67,9,12.5,9z M7.04,5.29 c-0.46-0.06-0.92,0.1-1.25,0.43L2.82,8.69c-0.26,0.26-0.16,0.71,0.2,0.83l2.51,0.84c0.48-1.18,1.53-3.29,3-4.88L7.04,5.29z M14.71,12.96c0.06,0.46-0.1,0.92-0.43,1.25l-2.98,2.98c-0.26,0.26-0.71,0.16-0.83-0.2l-0.84-2.51c1.18-0.48,3.29-1.53,4.88-3 L14.71,12.96z M6.84,16.34c0.41-0.41,0.66-0.97,0.66-1.59c0-1.24-1.01-2.25-2.25-2.25c-0.62,0-1.18,0.25-1.59,0.66 c-0.89,0.89-1.36,3.05-1.55,4.16c-0.06,0.34,0.24,0.63,0.57,0.57C3.79,17.7,5.95,17.23,6.84,16.34z"/></g>
    </svg>
  </g>
  <!-- Icon 32: 24px -->
  <g transform="translate(200, 260)">
    <rect width="48" height="48" fill="#1a1a1a" stroke="#333333" stroke-width="1" rx="4"/>
    <svg x="8" y="8" width="32" height="32" viewBox="0 0 24 24" style="fill: #ffffff; stroke: none;">
      <path d="M0 0h24v24H0V0z" fill="none"/><path d="M18 19H6c-.55 0-1-.45-1-1V6c0-.55.45-1 1-1h5c.55 0 1-.45 1-1s-.45-1-1-1H5c-1.11 0-2 .9-2 2v14c0 1.1.9 2 2 2h14c1.1 0 2-.9 2-2v-6c0-.55-.45-1-1-1s-1 .45-1 1v5c0 .55-.45 1-1 1zM14 4c0 .55.45 1 1 1h2.59l-9.13 9.13c-.39.39-.39 1.02 0 1.41.39.39 1.02.39 1.41 0L19 6.41V9c0 .55.45 1 1 1s1-.45 1-1V4c0-.55-.45-1-1-1h-5c-.55 0-1 .45-1 1z"/>
    </svg>
  </g>
  <!-- Icon 33: 20px -->
  <g transform="translate(260, 260)">
    <rect width="48" height="48" fill="#1a1a1a" stroke="#333333" stroke-width="1" rx="4"/>
    <svg x="8" y="8" width="32" height="32" viewBox="0 0 20 20" style="fill: #ffffff; stroke: none;">
      <g><rect fill="none" height="20" width="20"/></g><g><path d="M15.94,10.29l2.28-2.28c0.29-0.29,0.29-0.77,0-1.06v0c-0.29-0.29-0.77-0.29-1.06,0L16,8.11V3.75C16,3.34,15.66,3,15.25,3h0 c-0.41,0-0.75,0.34-0.75,0.75v4.39l-1.16-1.16c-0.29-0.29-0.77-0.29-1.06,0l0,0c-0.29,0.29-0.29,0.77,0,1.06l2.25,2.25 C14.92,10.68,15.55,10.68,15.94,10.29z"/><path d="M14.5,15h-9V5H12V1H5.5C4.67,1,4,1.67,4,2.5v15C4,18.33,4.67,19,5.5,19h9c0.83,0,1.5-0.67,1.5-1.5V13h-1.5V15z"/></g>
    </svg>
  </g>
  <!-- Icon 34: 24px -->
  <g transform="translate(320, 260)">
    <rect width="48" height="48" fill="#1a1a1a" stroke="#333333" stroke-width="1" rx="4"/>
    <svg x="8" y="8" width="32" height="32" viewBox="0 0 24 24" style="fill: #ffffff; stroke: none;">
      <path d="M0 0h24v24H0V0z" fill="none"/><path d="M10.79 16.29c.39.39 1.02.39 1.41 0l3.59-3.59c.39-.39.39-1.02 0-1.41L12.2 7.7c-.39-.39-1.02-.39-1.41 0-.39.39-.39 1.02 0 1.41L12.67 11H4c-.55 0-1 .45-1 1s.45 1 1 1h8.67l-1.88 1.88c-.39.39-.38 1.03 0 1.41zM19 3H5c-1.11 0-2 .9-2 2v3c0 .55.45 1 1 1s1-.45 1-1V6c0-.55.45-1 1-1h12c.55 0 1 .45 1 1v12c0 .55-.45 1-1 1H6c-.55 0-1-.45-1-1v-2c0-.55-.45-1-1-1s-1 .45-1 1v3c0 1.1.9 2 2 2h14c1.1 0 2-.9 2-2V5c0-1.1-.9-2-2-2z"/>
    </svg>
  </g>
  <!-- Icon 35: 24px -->
  <g transform="translate(380, 260)">
    <rect width="48" height="48" fill="#1a1a1a" stroke="#333333" stroke-width="1" rx="4"/>
    <svg x="8" y="8" width="32" height="32" viewBox="0 0 24 24" style="fill: #ffffff; stroke: none;">
      <path d="M0 0h24v24H0V0z" fill="none"/><path d="m18.65 8.35-2.79 2.79c-.32.32-.1.86.35.86H18c0 3.31-2.69 6-6 6-.79 0-1.56-.15-2.25-.44-.36-.15-.77-.04-1.04.23-.51.51-.33 1.37.34 1.64.91.37 1.91.57 2.95.57 4.42 0 8-3.58 8-8h1.79c.45 0 .67-.54.35-.85l-2.79-2.79c-.19-.2-.51-.2-.7-.01zM6 12c0-3.31 2.69-6 6-6 .79 0 1.56.15 2.25.44.36.15.77.04 1.04-.23.51-.51.33-1.37-.34-1.64C14.04 4.2 13.04 4 12 4c-4.42 0-8 3.58-8 8H2.21c-.45 0-.67.54-.35.85l2.79 2.79c.2.2.51.2.71 0l2.79-2.79c.31-.31.09-.85-.36-.85H6z"/>
    </svg>
  </g>

  <!-- Title Background -->
  <rect x="0" y="323" width="448" height="60" fill="#1a1a1a"/>
  
  <!-- Title -->
  <text x="20" y="348" text-anchor="start" font-family="system-ui, -apple-system, sans-serif" font-size="18" font-weight="bold" fill="#ffffff">Material Design Icons - rounded</text>

</svg>