<svg width="800" height="600" xmlns="http://www.w3.org/2000/svg">
  <!-- Background -->
  <rect width="800" height="600" fill="#ffffff"/>
  
  <!-- Header Background -->
  <rect width="800" height="80" fill="#f8f9fa"/>
  
  <!-- Title -->
  <text x="400" y="30" text-anchor="middle" font-family="system-ui, -apple-system, sans-serif" font-size="20" font-weight="bold" fill="#212529">Material Design Icons - outlined</text>
  
  <!-- Subtitle -->
  <text x="400" y="55" text-anchor="middle" font-family="system-ui, -apple-system, sans-serif" font-size="14" fill="#6c757d">2,808 icons</text>
  
  <!-- Icon Grid -->
  <!-- Icon 1: 24px -->
  <g transform="translate(12, 92)">
    <rect width="48" height="48" fill="#ffffff" stroke="#e9ecef" stroke-width="1" rx="4"/>
    <svg x="8" y="8" width="32" height="32" viewBox="0 0 24 24">
      <path d="M0 0h24v24H0z" fill="#2563eb"/><path d="M17 6H7c-3.31 0-6 2.69-6 6s2.69 6 6 6h10c3.31 0 6-2.69 6-6s-2.69-6-6-6zm0 10H7c-2.21 0-4-1.79-4-4s1.79-4 4-4h10c2.21 0 4 1.79 4 4s-1.79 4-4 4zm0-7c-1.66 0-3 1.34-3 3s1.34 3 3 3 3-1.34 3-3-1.34-3-3-3z"/>
    </svg>
  </g>
  <!-- Icon 2: 20px -->
  <g transform="translate(72, 92)">
    <rect width="48" height="48" fill="#ffffff" stroke="#e9ecef" stroke-width="1" rx="4"/>
    <svg x="8" y="8" width="32" height="32" viewBox="0 0 20 20">
      <g><rect fill="#2563eb" height="20" width="20" x="0"/></g><g><polygon points="9.21,15 12.43,15 16,10 12.43,5 9.21,5 12.79,10"/><polygon points="4.21,15 7.43,15 11,10 7.43,5 4.21,5 7.79,10"/></g>
    </svg>
  </g>
  <!-- Icon 3: 24px -->
  <g transform="translate(132, 92)">
    <rect width="48" height="48" fill="#ffffff" stroke="#e9ecef" stroke-width="1" rx="4"/>
    <svg x="8" y="8" width="32" height="32" viewBox="0 0 24 24">
      <path d="M0 0h24v24H0V0zm0 0h24v24H0V0z" fill="#2563eb"/><path d="M18 8h-1V6c0-2.76-2.24-5-5-5S7 3.24 7 6v2H6c-1.1 0-2 .9-2 2v10c0 1.1.9 2 2 2h12c1.1 0 2-.9 2-2V10c0-1.1-.9-2-2-2zM8.9 6c0-1.71 1.39-3.1 3.1-3.1 1.71 0 3.1 1.39 3.1 3.1v2H8.9V6zM18 20H6V10h12v10zm-5-9h-2v3H8v2h3v3h2v-3h3v-2h-3z"/>
    </svg>
  </g>
  <!-- Icon 4: 20px -->
  <g transform="translate(192, 92)">
    <rect width="48" height="48" fill="#ffffff" stroke="#e9ecef" stroke-width="1" rx="4"/>
    <svg x="8" y="8" width="32" height="32" viewBox="0 0 20 20">
      <g><rect fill="#2563eb" height="20" width="20" x="0"/></g><g><path d="M19,5.16L12,10l-0.5,8H10l-0.5-7.7L7,9.5H1V8h5l5.5-4l0.98,1.14L9.2,7.5h2.3L18,4L19,5.16z M4,5.5C4,6.33,4.67,7,5.5,7 S7,6.33,7,5.5S6.33,4,5.5,4S4,4.67,4,5.5z"/></g>
    </svg>
  </g>
  <!-- Icon 5: 20px -->
  <g transform="translate(252, 92)">
    <rect width="48" height="48" fill="#ffffff" stroke="#e9ecef" stroke-width="1" rx="4"/>
    <svg x="8" y="8" width="32" height="32" viewBox="0 0 20 20">
      <g><rect fill="#2563eb" height="20" width="20" x="0"/></g><g><g><path d="M2,13.86V16h12v-2.14c0-1.9-4-2.86-6-2.86C6,11,2,11.96,2,13.86z M3,13.86C3,13.04,5.8,12,8,12c2.2,0,5,1.04,5,1.86V15H3 V13.86z"/><path d="M11,7c0-1.66-1.34-3-3-3C6.34,4,5,5.34,5,7c0,1.66,1.34,3,3,3C9.66,10,11,8.66,11,7z M10,7c0,1.1-0.9,2-2,2S6,8.1,6,7 s0.9-2,2-2S10,5.9,10,7z"/><rect height="1" transform="matrix(-1 4.479249e-11 -4.479249e-11 -1 30 19)" width="4" x="13" y="9"/></g></g>
    </svg>
  </g>
  <!-- Icon 6: 24px -->
  <g transform="translate(312, 92)">
    <rect width="48" height="48" fill="#ffffff" stroke="#e9ecef" stroke-width="1" rx="4"/>
    <svg x="8" y="8" width="32" height="32" viewBox="0 0 24 24">
      <rect fill="#2563eb" height="24" width="24"/><path d="M10.5,13H8v-3h2.5V7.5h3V10H16v3h-2.5v2.5h-3V13z M12,2L4,5v6.09c0,5.05,3.41,9.76,8,10.91c4.59-1.15,8-5.86,8-10.91V5L12,2 z M18,11.09c0,4-2.55,7.7-6,8.83c-3.45-1.13-6-4.82-6-8.83v-4.7l6-2.25l6,2.25V11.09z"/>
    </svg>
  </g>
  <!-- Icon 7: 20px -->
  <g transform="translate(372, 92)">
    <rect width="48" height="48" fill="#ffffff" stroke="#e9ecef" stroke-width="1" rx="4"/>
    <svg x="8" y="8" width="32" height="32" viewBox="0 0 20 20">
      <rect fill="#2563eb" height="20" width="20"/><g><path d="M13.93,11.7c-0.21-0.21-0.41-0.43-0.57-0.64c0.93-1.37,2.14-3.69,2.14-6.56C15.5,2.94,15.01,2,14,2 c-1.23,0-3.17,1.65-4,4.78C9.17,3.65,7.23,2,6,2C4.99,2,4.5,2.94,4.5,4.5c0,2.87,1.21,5.19,2.14,6.56 c-0.18,0.22-0.35,0.42-0.57,0.64c-0.2,0.2-1.57,1.1-1.57,2.8C4.5,16.43,6.07,18,8,18c1.18,0,2-0.4,2-0.4s0.82,0.4,2,0.4 c1.93,0,3.5-1.57,3.5-3.5C15.5,12.8,14.13,11.9,13.93,11.7z M13.88,3.53C13.94,3.69,14,4,14,4.5c0,2.32-0.94,4.27-1.73,5.49 c0,0-0.45-0.34-1.16-0.48C11.26,5.49,13.21,3.77,13.88,3.53z M6,4.5C6,4,6.06,3.69,6.12,3.53c0.67,0.24,2.62,1.96,2.77,5.98 C8.18,9.65,7.73,9.99,7.73,9.99C6.94,8.77,6,6.82,6,4.5z M12,16.5c-0.93,0-1.61-0.35-1.87-0.52c0.38-0.09,0.67-0.59,0.67-0.78 c0-0.22-0.36-0.4-0.8-0.4s-0.8,0.18-0.8,0.4c0,0.2,0.29,0.69,0.67,0.78C9.61,16.15,8.93,16.5,8,16.5c-1.1,0-2-0.9-2-2 c0-0.69,0.44-1.15,0.91-1.54c0.27-0.21,0.58-0.58,0.88-0.94C8.41,11.27,8.72,10.9,10,10.9s1.59,0.37,2.21,1.12 c0.3,0.36,0.61,0.73,0.88,0.94C13.56,13.35,14,13.81,14,14.5C14,15.6,13.1,16.5,12,16.5z M11.6,13.2c0,0.33-0.18,0.6-0.4,0.6 s-0.4-0.27-0.4-0.6c0-0.33,0.18-0.6,0.4-0.6S11.6,12.87,11.6,13.2z M9.2,13.2c0,0.33-0.18,0.6-0.4,0.6s-0.4-0.27-0.4-0.6 c0-0.33,0.18-0.6,0.4-0.6S9.2,12.87,9.2,13.2z"/></g>
    </svg>
  </g>
  <!-- Icon 8: 24px -->
  <g transform="translate(12, 152)">
    <rect width="48" height="48" fill="#ffffff" stroke="#e9ecef" stroke-width="1" rx="4"/>
    <svg x="8" y="8" width="32" height="32" viewBox="0 0 24 24">
      <g><rect fill="#2563eb" height="24" width="24"/></g><g><polygon points="11,6.83 9.41,8.41 8,7 12,3 16,7 14.59,8.41 13,6.83 13,21 11,21"/></g>
    </svg>
  </g>
  <!-- Icon 9: 24px -->
  <g transform="translate(72, 152)">
    <rect width="48" height="48" fill="#ffffff" stroke="#e9ecef" stroke-width="1" rx="4"/>
    <svg x="8" y="8" width="32" height="32" viewBox="0 0 24 24">
      <g><rect fill="#2563eb" height="24" width="24"/></g><g><g/><g><path d="M21,5c-1.11-0.35-2.33-0.5-3.5-0.5c-1.95,0-4.05,0.4-5.5,1.5c-1.45-1.1-3.55-1.5-5.5-1.5S2.45,4.9,1,6v14.65 c0,0.25,0.25,0.5,0.5,0.5c0.1,0,0.15-0.05,0.25-0.05C3.1,20.45,5.05,20,6.5,20c1.95,0,4.05,0.4,5.5,1.5c1.35-0.85,3.8-1.5,5.5-1.5 c1.65,0,3.35,0.3,4.75,1.05c0.1,0.05,0.15,0.05,0.25,0.05c0.25,0,0.5-0.25,0.5-0.5V6C22.4,5.55,21.75,5.25,21,5z M21,18.5 c-1.1-0.35-2.3-0.5-3.5-0.5c-1.7,0-4.15,0.65-5.5,1.5V8c1.35-0.85,3.8-1.5,5.5-1.5c1.2,0,2.4,0.15,3.5,0.5V18.5z"/><g><path d="M17.5,10.5c0.88,0,1.73,0.09,2.5,0.26V9.24C19.21,9.09,18.36,9,17.5,9c-1.7,0-3.24,0.29-4.5,0.83v1.66 C14.13,10.85,15.7,10.5,17.5,10.5z"/><path d="M13,12.49v1.66c1.13-0.64,2.7-0.99,4.5-0.99c0.88,0,1.73,0.09,2.5,0.26V11.9c-0.79-0.15-1.64-0.24-2.5-0.24 C15.8,11.66,14.26,11.96,13,12.49z"/><path d="M17.5,14.33c-1.7,0-3.24,0.29-4.5,0.83v1.66c1.13-0.64,2.7-0.99,4.5-0.99c0.88,0,1.73,0.09,2.5,0.26v-1.52 C19.21,14.41,18.36,14.33,17.5,14.33z"/></g></g></g>
    </svg>
  </g>
  <!-- Icon 10: 24px -->
  <g transform="translate(132, 152)">
    <rect width="48" height="48" fill="#ffffff" stroke="#e9ecef" stroke-width="1" rx="4"/>
    <svg x="8" y="8" width="32" height="32" viewBox="0 0 24 24">
      <g><rect fill="#2563eb" height="24" width="24" y="0"/></g><g><path d="M23,11V9c-6-2-11-7-11-7S7,7,1,9v2c0,1.49,0.93,2.75,2.24,3.26C3.2,16.76,2.92,19.69,2,22h20 c-0.92-2.31-1.2-5.24-1.24-7.74C22.07,13.75,23,12.49,23,11z M12,4.71c1.33,1.14,3.49,2.84,6.11,4.29H5.89 C8.51,7.55,10.67,5.85,12,4.71z M13,11h3c0,0.83-0.67,1.5-1.5,1.5S13,11.83,13,11z M9.5,12.5C8.67,12.5,8,11.83,8,11h3 C11,11.83,10.33,12.5,9.5,12.5z M6,11c0,0.83-0.67,1.5-1.5,1.5S3,11.83,3,11H6z M4.66,20c0.39-1.86,0.54-3.82,0.57-5.58 c0.68-0.15,1.29-0.49,1.76-0.98c0.25,0.25,0.54,0.45,0.85,0.62c-0.1,1.87-0.26,4-0.52,5.93H4.66z M9.35,20 c0.24-1.83,0.39-3.78,0.48-5.53c0.84-0.08,1.61-0.45,2.17-1.02c0.56,0.57,1.32,0.94,2.17,1.02c0.1,1.75,0.24,3.7,0.48,5.53H9.35z M16.67,20c-0.27-1.94-0.43-4.07-0.52-5.93c0.31-0.17,0.61-0.37,0.85-0.62c0.47,0.48,1.08,0.83,1.76,0.98 c0.03,1.76,0.18,3.72,0.57,5.58H16.67z M19.5,12.5c-0.83,0-1.5-0.67-1.5-1.5h3C21,11.83,20.33,12.5,19.5,12.5z"/></g>
    </svg>
  </g>
  <!-- Icon 11: 24px -->
  <g transform="translate(192, 152)">
    <rect width="48" height="48" fill="#ffffff" stroke="#e9ecef" stroke-width="1" rx="4"/>
    <svg x="8" y="8" width="32" height="32" viewBox="0 0 24 24">
      <g><rect fill="#2563eb" height="24" width="24" y="0"/></g><g><g><path d="M2,21.5C2,21.78,2.22,22,2.49,22h13.02c0.27,0,0.49-0.22,0.49-0.5V20H2V21.5z"/><path d="M15.5,16H11v-2H7v2H2.5C2.22,16,2,16.22,2,16.5V18h14v-1.5C16,16.22,15.78,16,15.5,16z"/><path d="M20.47,15.45c0.99-1.07,1.53-2.48,1.53-3.94V2h-6v9.47c0,1.48,0.58,2.92,1.6,4l0.4,0.42V22h4v-2h-2v-4.03L20.47,15.45z M18,4h2v4h-2V4z M19.03,14.07c-0.65-0.71-1.03-1.65-1.03-2.6V10h2v1.51C20,12.46,19.66,13.36,19.03,14.07z"/></g></g>
    </svg>
  </g>
  <!-- Icon 12: 20px -->
  <g transform="translate(252, 152)">
    <rect width="48" height="48" fill="#ffffff" stroke="#e9ecef" stroke-width="1" rx="4"/>
    <svg x="8" y="8" width="32" height="32" viewBox="0 0 20 20">
      <g><rect fill="#2563eb" height="20" width="20" x="0"/></g><g><g><polygon points="14.94,15 16,13.94 12.06,10 16,6.06 14.94,5 9.94,10"/><polygon points="9,15 10.06,13.94 6.12,10 10.06,6.06 9,5 4,10"/></g></g>
    </svg>
  </g>
  <!-- Icon 13: 24px -->
  <g transform="translate(312, 152)">
    <rect width="48" height="48" fill="#ffffff" stroke="#e9ecef" stroke-width="1" rx="4"/>
    <svg x="8" y="8" width="32" height="32" viewBox="0 0 24 24">
      <g><rect fill="#2563eb" height="24" width="24"/></g><g><g><path d="M21,11c0-4.97-4.03-9-9-9s-9,4.03-9,9c0,3.92,2.51,7.24,6,8.48V22h2v-2.06c0.33,0.04,0.66,0.06,1,0.06s0.67-0.02,1-0.06 V22h2v-2.52C18.49,18.24,21,14.92,21,11z M12,18c-3.86,0-7-3.14-7-7s3.14-7,7-7s7,3.14,7,7S15.86,18,12,18z"/><rect height="2" width="8" x="8" y="7"/><polygon points="12.75,10 9.75,13 11,14.25 9.75,15.5 11.25,17 14.25,14 13,12.75 14.25,11.5"/></g></g>
    </svg>
  </g>
  <!-- Icon 14: 24px -->
  <g transform="translate(372, 152)">
    <rect width="48" height="48" fill="#ffffff" stroke="#e9ecef" stroke-width="1" rx="4"/>
    <svg x="8" y="8" width="32" height="32" viewBox="0 0 24 24">
      <path d="M0 0h24v24H0V0z" fill="#2563eb"/><path d="M20.57 14.86L22 13.43 20.57 12 17 15.57 8.43 7 12 3.43 10.57 2 9.14 3.43 7.71 2 5.57 4.14 4.14 2.71 2.71 4.14l1.43 1.43L2 7.71l1.43 1.43L2 10.57 3.43 12 7 8.43 15.57 17 12 20.57 13.43 22l1.43-1.43L16.29 22l2.14-2.14 1.43 1.43 1.43-1.43-1.43-1.43L22 16.29l-1.43-1.43z"/>
    </svg>
  </g>
  <!-- Icon 15: 20px -->
  <g transform="translate(12, 212)">
    <rect width="48" height="48" fill="#ffffff" stroke="#e9ecef" stroke-width="1" rx="4"/>
    <svg x="8" y="8" width="32" height="32" viewBox="0 0 20 20">
      <g><rect fill="#2563eb" height="20" width="20" x="0"/></g><g><path d="M10,3.82l6.21,4.27l-2.57,7.41H6.37L3.79,8.09L10,3.82 M2,7.5L5.3,17h9.4L18,7.5L10,2L2,7.5z"/></g>
    </svg>
  </g>
  <!-- Icon 16: 24px -->
  <g transform="translate(72, 212)">
    <rect width="48" height="48" fill="#ffffff" stroke="#e9ecef" stroke-width="1" rx="4"/>
    <svg x="8" y="8" width="32" height="32" viewBox="0 0 24 24">
      <rect fill="#2563eb" height="24" width="24"/><path d="M22,7h-9v2h9V7z M22,15h-9v2h9V15z M5.54,11L2,7.46l1.41-1.41l2.12,2.12l4.24-4.24l1.41,1.41L5.54,11z M5.54,19L2,15.46 l1.41-1.41l2.12,2.12l4.24-4.24l1.41,1.41L5.54,19z"/>
    </svg>
  </g>
  <!-- Icon 17: 24px -->
  <g transform="translate(132, 212)">
    <rect width="48" height="48" fill="#ffffff" stroke="#e9ecef" stroke-width="1" rx="4"/>
    <svg x="8" y="8" width="32" height="32" viewBox="0 0 24 24">
      <path d="M0 0h24v24H0V0z" fill="#2563eb"/><path d="M19.35 10.04C18.67 6.59 15.64 4 12 4 9.11 4 6.6 5.64 5.35 8.04 2.34 8.36 0 10.91 0 14c0 3.31 2.69 6 6 6h13c2.76 0 5-2.24 5-5 0-2.64-2.05-4.78-4.65-4.96zM19 18H6c-2.21 0-4-1.79-4-4s1.79-4 4-4h.71C7.37 7.69 9.48 6 12 6c3.04 0 5.5 2.46 5.5 5.5v.5H19c1.66 0 3 1.34 3 3s-1.34 3-3 3z"/>
    </svg>
  </g>
  <!-- Icon 18: 24px -->
  <g transform="translate(192, 212)">
    <rect width="48" height="48" fill="#ffffff" stroke="#e9ecef" stroke-width="1" rx="4"/>
    <svg x="8" y="8" width="32" height="32" viewBox="0 0 24 24">
      <path d="M0 0h24v24H0V0z" fill="#2563eb"/><path d="M15 16h4v2h-4zm0-8h7v2h-7zm0 4h6v2h-6zM3 18c0 1.1.9 2 2 2h6c1.1 0 2-.9 2-2V8H3v10zm2-8h6v8H5v-8zm5-6H6L5 5H2v2h12V5h-3z"/>
    </svg>
  </g>
  <!-- Icon 19: 24px -->
  <g transform="translate(252, 212)">
    <rect width="48" height="48" fill="#ffffff" stroke="#e9ecef" stroke-width="1" rx="4"/>
    <svg x="8" y="8" width="32" height="32" viewBox="0 0 24 24">
      <path d="M0 0h24v24H0V0z" fill="#2563eb"/><path d="M23 15h-2v2h2v-2zm0-4h-2v2h2v-2zm0 8h-2v2c1 0 2-1 2-2zM15 3h-2v2h2V3zm8 4h-2v2h2V7zm-2-4v2h2c0-1-1-2-2-2zM3 21h8v-6H1v4c0 1.1.9 2 2 2zM3 7H1v2h2V7zm12 12h-2v2h2v-2zm4-16h-2v2h2V3zm0 16h-2v2h2v-2zM3 3C2 3 1 4 1 5h2V3zm0 8H1v2h2v-2zm8-8H9v2h2V3zM7 3H5v2h2V3z"/>
    </svg>
  </g>
  <!-- Icon 20: 20px -->
  <g transform="translate(312, 212)">
    <rect width="48" height="48" fill="#ffffff" stroke="#e9ecef" stroke-width="1" rx="4"/>
    <svg x="8" y="8" width="32" height="32" viewBox="0 0 20 20">
      <g><rect fill="#2563eb" height="20" width="20" x="0"/></g><g><g><path d="M16,5h-2l-2-2H8L6,5H4C3.45,5,3,5.45,3,6v9c0,0.55,0.45,1,1,1h12c0.55,0,1-0.45,1-1V6C17,5.45,16.55,5,16,5z M16,15H4V6h2 h0.41l0.29-0.29L8.41,4h3.17l1.71,1.71L13.59,6H14h2V15z"/><path d="M10,6C9.28,6,8.62,6.2,8.04,6.54l0.73,0.73C9.15,7.1,9.56,7,10,7c1.65,0,3,1.35,3,3h-1.5l2,2l2-2H14C14,7.79,12.21,6,10,6 z"/><path d="M10,13c-1.65,0-3-1.35-3-3h1.5l-2-2l-2,2H6c0,2.21,1.79,4,4,4c0.72,0,1.38-0.2,1.96-0.54l-0.73-0.73 C10.85,12.9,10.44,13,10,13z"/></g></g>
    </svg>
  </g>
  <!-- Icon 21: 24px -->
  <g transform="translate(372, 212)">
    <rect width="48" height="48" fill="#ffffff" stroke="#e9ecef" stroke-width="1" rx="4"/>
    <svg x="8" y="8" width="32" height="32" viewBox="0 0 24 24">
      <path d="M0 0h24v24H0V0z" fill="#2563eb"/><path d="M20 4v12H8V4h12m0-2H8c-1.1 0-2 .9-2 2v12c0 1.1.9 2 2 2h12c1.1 0 2-.9 2-2V4c0-1.1-.9-2-2-2zm-8.5 9.67l1.69 2.26 2.48-3.1L19 15H9zM2 6v14c0 1.1.9 2 2 2h14v-2H4V6H2z"/>
    </svg>
  </g>
  <!-- Icon 22: 20px -->
  <g transform="translate(12, 272)">
    <rect width="48" height="48" fill="#ffffff" stroke="#e9ecef" stroke-width="1" rx="4"/>
    <svg x="8" y="8" width="32" height="32" viewBox="0 0 20 20">
      <rect fill="#2563eb" height="20" width="20"/><g><path d="M17.5,13H17v-1c0-0.82-0.67-1.5-1.5-1.5S14,11.18,14,12v1h-0.5c-0.28,0-0.5,0.22-0.5,0.5v3c0,0.28,0.22,0.5,0.5,0.5h4 c0.28,0,0.5-0.22,0.5-0.5v-3C18,13.22,17.78,13,17.5,13z M14.75,12c0-0.41,0.34-0.75,0.75-0.75c0.41,0,0.75,0.34,0.75,0.75v1h-1.5 V12z M12,15l-2,2l-4.24-4.24L0,7.01C2.6,4.53,6.12,3,10,3c3.88,0,7.4,1.53,10,4.01L17.51,9.5H15c-1.66,0-3,1.34-3,3V15z"/></g>
    </svg>
  </g>
  <!-- Icon 23: 24px -->
  <g transform="translate(72, 272)">
    <rect width="48" height="48" fill="#ffffff" stroke="#e9ecef" stroke-width="1" rx="4"/>
    <svg x="8" y="8" width="32" height="32" viewBox="0 0 24 24">
      <g><path d="M0,0h24v24H0V0z" fill="#2563eb"/></g><g><g><path d="M22,8V5c0-1.1-0.9-2-2-2H4C2.9,3,2,3.9,2,5v12c0,1.1,0.9,2,2,2h4v2h8v-2h4c1.1,0,1.99-0.9,1.99-2v-5H22c0-1.1-0.9-2-2-2 h-7.17l1.83-1.83l-1.41-1.41C9.69,10.31,10.88,9.12,9,11c2.06,2.06,0.9,0.9,4.24,4.24l1.41-1.41L12.83,12H20v5H4V5h16v3H22z"/></g></g>
    </svg>
  </g>
  <!-- Icon 24: 20px -->
  <g transform="translate(132, 272)">
    <rect width="48" height="48" fill="#ffffff" stroke="#e9ecef" stroke-width="1" rx="4"/>
    <svg x="8" y="8" width="32" height="32" viewBox="0 0 20 20">
      <g><rect fill="#2563eb" height="20" width="20" x="0"/></g><g><g><rect height="1.5" width="1.5" x="2" y="3"/><rect height="1.5" width="1.5" x="2" y="6.12"/><rect height="1.5" width="1.5" x="2" y="9.25"/><rect height="1.5" width="1.5" x="2" y="12.38"/><rect height="1.5" width="1.5" x="2" y="15.5"/><rect height="1.5" width="1.5" x="5.12" y="3"/><rect height="1.5" width="1.5" x="5.12" y="15.5"/><path d="M16.5,3h-3V2.5c0-1.13-1.21-1.87-2.22-1.32l-2.5,1.36C8.3,2.81,8,3.32,8,3.87V15.5C8,16.33,8.67,17,9.5,17h7 c0.83,0,1.5-0.67,1.5-1.5v-11C18,3.67,17.33,3,16.5,3z M12,13.11l-2.5,1.36V4.5V3.87L12,2.5V13.11z M16.5,15.5h-5.75l1.97-1.07 c0.48-0.26,0.78-0.77,0.78-1.32V4.5h3V15.5z"/></g></g>
    </svg>
  </g>
  <!-- Icon 25: 24px -->
  <g transform="translate(192, 272)">
    <rect width="48" height="48" fill="#ffffff" stroke="#e9ecef" stroke-width="1" rx="4"/>
    <svg x="8" y="8" width="32" height="32" viewBox="0 0 24 24">
      <g><rect fill="#2563eb" height="24" width="24"/><rect fill="#2563eb" height="24" width="24"/><rect fill="#2563eb" height="24" width="24"/></g><g><g/><path d="M20,4H4C2.9,4,2.01,4.9,2.01,6L2,18c0,1.1,0.9,2,2,2h16c1.1,0,2-0.9,2-2V6C22,4.9,21.1,4,20,4z M4,9h10.5v3.5H4V9z M4,14.5 h10.5V18L4,18V14.5z M20,18l-3.5,0V9H20V18z"/></g>
    </svg>
  </g>
  <!-- Icon 26: 24px -->
  <g transform="translate(252, 272)">
    <rect width="48" height="48" fill="#ffffff" stroke="#e9ecef" stroke-width="1" rx="4"/>
    <svg x="8" y="8" width="32" height="32" viewBox="0 0 24 24">
      <path d="M0 0h24v24H0V0z" fill="#2563eb"/><path d="M4 6H2v14c0 1.1.9 2 2 2h14v-2H4V6zm16-4H8c-1.1 0-2 .9-2 2v12c0 1.1.9 2 2 2h12c1.1 0 2-.9 2-2V4c0-1.1-.9-2-2-2zm0 14H8V4h12v12zM10 9h8v2h-8zm0 3h4v2h-4zm0-6h8v2h-8z"/>
    </svg>
  </g>
  <!-- Icon 27: 20px -->
  <g transform="translate(312, 272)">
    <rect width="48" height="48" fill="#ffffff" stroke="#e9ecef" stroke-width="1" rx="4"/>
    <svg x="8" y="8" width="32" height="32" viewBox="0 0 20 20">
      <g><rect fill="#2563eb" height="20" width="20" x="0"/></g><g><path d="M16.5,4h-13C2.67,4,2,4.67,2,5.5v9C2,15.33,2.67,16,3.5,16h13c0.83,0,1.5-0.67,1.5-1.5v-9C18,4.67,17.33,4,16.5,4z M3.5,14.5v-9h1v9H3.5z M6,14.5v-9h8v9H6z M16.5,14.5h-1v-9h1V14.5z"/></g>
    </svg>
  </g>
  <!-- Icon 28: 24px -->
  <g transform="translate(372, 272)">
    <rect width="48" height="48" fill="#ffffff" stroke="#e9ecef" stroke-width="1" rx="4"/>
    <svg x="8" y="8" width="32" height="32" viewBox="0 0 24 24">
      <path d="M0 0h24v24H0V0zm0 0h24v24H0V0zm0 0h24v24H0V0z" fill="#2563eb"/><path d="M16.76 9l1.41 1.41-9.19 9.19 1.41 1.41 9.19-9.19L21 13.24V9h-4.24zm-8.28 3.75l3.54-3.54 2.19.92 1.48-1.48L4.56 4.23 3.5 5.29l4.42 11.14 1.48-1.48-.92-2.2zm-.82-1.72L5.43 6.16l4.87 2.23-2.64 2.64z"/>
    </svg>
  </g>
  <!-- Icon 29: 24px -->
  <g transform="translate(12, 332)">
    <rect width="48" height="48" fill="#ffffff" stroke="#e9ecef" stroke-width="1" rx="4"/>
    <svg x="8" y="8" width="32" height="32" viewBox="0 0 24 24">
      <path d="M0 0h24v24H0V0z" fill="#2563eb"/><path d="M8 11.5c0-.83-.67-1.5-1.5-1.5S5 10.67 5 11.5 5.67 13 6.5 13 8 12.33 8 11.5zm7-5c0-.83-.67-1.5-1.5-1.5h-3C9.67 5 9 5.67 9 6.5S9.67 8 10.5 8h3c.83 0 1.5-.67 1.5-1.5zM8.5 15c-.83 0-1.5.67-1.5 1.5S7.67 18 8.5 18s1.5-.67 1.5-1.5S9.33 15 8.5 15zM12 1C5.93 1 1 5.93 1 12s4.93 11 11 11 11-4.93 11-11S18.07 1 12 1zm0 20c-4.96 0-9-4.04-9-9s4.04-9 9-9 9 4.04 9 9-4.04 9-9 9zm5.5-11c-.83 0-1.5.67-1.5 1.5s.67 1.5 1.5 1.5 1.5-.67 1.5-1.5-.67-1.5-1.5-1.5zm-2 5c-.83 0-1.5.67-1.5 1.5s.67 1.5 1.5 1.5 1.5-.67 1.5-1.5-.67-1.5-1.5-1.5z"/>
    </svg>
  </g>
  <!-- Icon 30: 24px -->
  <g transform="translate(72, 332)">
    <rect width="48" height="48" fill="#ffffff" stroke="#e9ecef" stroke-width="1" rx="4"/>
    <svg x="8" y="8" width="32" height="32" viewBox="0 0 24 24">
      <path d="M0 0h24v24H0V0z" fill="#2563eb"/><path d="M12 3C6.95 3 3.15 4.85 0 7.23L12 22 24 7.25C20.85 4.87 17.05 3 12 3zM2.92 7.65C5.8 5.85 8.74 5 12 5c3.25 0 6.18.85 9.08 2.67L12 18.83 2.92 7.65zM11 10h2v6h-2zm0-4h2v2h-2z"/>
    </svg>
  </g>
  <!-- Icon 31: 20px -->
  <g transform="translate(132, 332)">
    <rect width="48" height="48" fill="#ffffff" stroke="#e9ecef" stroke-width="1" rx="4"/>
    <svg x="8" y="8" width="32" height="32" viewBox="0 0 20 20">
      <g><g><rect fill="#2563eb" height="20" width="20"/></g></g><g><g><path d="M5.5,16.5v-8h9v1.03c0.53,0.05,1.03,0.17,1.5,0.36V8.5C16,7.67,15.33,7,14.5,7H14V5c0-2.21-1.79-4-4-4S6,2.79,6,5v2H5.5 C4.67,7,4,7.67,4,8.5v8C4,17.33,4.67,18,5.5,18h3.9c-0.3-0.46-0.53-0.96-0.68-1.5H5.5z M7.5,5c0-1.38,1.12-2.5,2.5-2.5 s2.5,1.12,2.5,2.5v2h-5V5z"/><path d="M14,11c-2.21,0-4,1.79-4,4c0,2.21,1.79,4,4,4s4-1.79,4-4C18,12.79,16.21,11,14,11z M15.15,16.85l-1.65-1.65V13h1v1.79 l1.35,1.35L15.15,16.85z"/></g></g>
    </svg>
  </g>
  <!-- Icon 32: 24px -->
  <g transform="translate(192, 332)">
    <rect width="48" height="48" fill="#ffffff" stroke="#e9ecef" stroke-width="1" rx="4"/>
    <svg x="8" y="8" width="32" height="32" viewBox="0 0 24 24">
      <path d="M0 0h24v24H0V0z" fill="#2563eb"/><path d="M2.5 19h19v2h-19v-2zm16.84-3.15c.8.21 1.62-.26 1.84-1.06.21-.8-.26-1.62-1.06-1.84l-5.31-1.42-2.76-9.02L10.12 2v8.28L5.15 8.95l-.93-2.32-1.45-.39v5.17l16.57 4.44z"/>
    </svg>
  </g>
  <!-- Icon 33: 24px -->
  <g transform="translate(252, 332)">
    <rect width="48" height="48" fill="#ffffff" stroke="#e9ecef" stroke-width="1" rx="4"/>
    <svg x="8" y="8" width="32" height="32" viewBox="0 0 24 24">
      <path d="M0 0h24v24H0V0z" fill="#2563eb"/><path d="M12 4H5C3.34 4 2 5.34 2 7v8c0 1.66 1.34 3 3 3l-1 1v1h1l2-2h2v-5H4V6h9v2h2V7c0-1.66-1.34-3-3-3zM5 14c.55 0 1 .45 1 1s-.45 1-1 1-1-.45-1-1 .45-1 1-1zm15.57-4.34c-.14-.4-.52-.66-.97-.66h-7.19c-.46 0-.83.26-.98.66l-1.42 4.11v5.51c0 .38.31.72.69.72h.62c.38 0 .68-.38.68-.76V18h8v1.24c0 .38.31.76.69.76h.61c.38 0 .69-.34.69-.72l.01-1.37v-4.14l-1.43-4.11zm-8.16.34h7.19l1.03 3h-9.25l1.03-3zM12 16c-.55 0-1-.45-1-1s.45-1 1-1 1 .45 1 1-.45 1-1 1zm8 0c-.55 0-1-.45-1-1s.45-1 1-1 1 .45 1 1-.45 1-1 1z"/>
    </svg>
  </g>
  <!-- Icon 34: 24px -->
  <g transform="translate(312, 332)">
    <rect width="48" height="48" fill="#ffffff" stroke="#e9ecef" stroke-width="1" rx="4"/>
    <svg x="8" y="8" width="32" height="32" viewBox="0 0 24 24">
      <g><rect fill="#2563eb" height="24" width="24"/><path d="M14,12l-2,2l-2-2l2-2L14,12z M12,6l2.12,2.12l2.5-2.5L12,1L7.38,5.62l2.5,2.5L12,6z M6,12l2.12-2.12l-2.5-2.5L1,12 l4.62,4.62l2.5-2.5L6,12z M18,12l-2.12,2.12l2.5,2.5L23,12l-4.62-4.62l-2.5,2.5L18,12z M12,18l-2.12-2.12l-2.5,2.5L12,23l4.62-4.62 l-2.5-2.5L12,18z"/></g>
    </svg>
  </g>
  <!-- Icon 35: 20px -->
  <g transform="translate(372, 332)">
    <rect width="48" height="48" fill="#ffffff" stroke="#e9ecef" stroke-width="1" rx="4"/>
    <svg x="8" y="8" width="32" height="32" viewBox="0 0 20 20">
      <g><rect fill="#2563eb" height="20" width="20" x="0"/></g><g><g><path d="M9.43,11.86c0.36-0.68,0.67-0.89,0.72-0.93C7.85,10.59,4,11.52,4,13.21V15h5.35c-0.15-0.32-0.25-0.66-0.3-1H5v-0.79 C5,12.71,7.33,11.72,9.43,11.86z"/><path d="M9,10c1.38,0,2.5-1.12,2.5-2.5C11.5,6.12,10.38,5,9,5C7.62,5,6.5,6.12,6.5,7.5C6.5,8.88,7.62,10,9,10z M9,6 c0.83,0,1.5,0.67,1.5,1.5S9.83,9,9,9S7.5,8.33,7.5,7.5S8.17,6,9,6z"/><path d="M16.06,16.35l-1.48-1.48c0.26-0.4,0.42-0.87,0.42-1.38c0-1.38-1.12-2.5-2.5-2.5S10,12.12,10,13.5c0,1.38,1.12,2.5,2.5,2.5 c0.51,0,0.98-0.15,1.38-0.42l1.48,1.48L16.06,16.35z M12.5,15c-0.83,0-1.5-0.67-1.5-1.5s0.67-1.5,1.5-1.5s1.5,0.67,1.5,1.5 S13.33,15,12.5,15z"/></g></g>
    </svg>
  </g>
  
  <!-- Footer -->
  <text x="400" y="580" text-anchor="middle" font-family="system-ui, -apple-system, sans-serif" font-size="12" fill="#6c757d">
    Showing 35 of 2808 icons
  </text>
  
</svg>