<svg width="448" height="368" xmlns="http://www.w3.org/2000/svg">
  <!-- Background -->
  <rect width="448" height="368" fill="#1a1a1a"/>
  
  <!-- Icon Grid -->
  <!-- Icon 1: 24px -->
  <g transform="translate(20, 20)">
    <rect width="48" height="48" fill="#1a1a1a" stroke="#333333" stroke-width="1" rx="4"/>
    <svg x="8" y="8" width="32" height="32" viewBox="0 0 24 24" style="fill: #ffffff; stroke: none;">
      <path d="M0 0h24v24H0z" fill="none"/><path d="M17 8H7c-2.21 0-4 1.79-4 4s1.79 4 4 4h10c2.21 0 4-1.79 4-4s-1.79-4-4-4zm0 7c-1.66 0-3-1.34-3-3s1.34-3 3-3 3 1.34 3 3-1.34 3-3 3z" opacity=".3"/><path d="M17 6H7c-3.31 0-6 2.69-6 6s2.69 6 6 6h10c3.31 0 6-2.69 6-6s-2.69-6-6-6zm0 10H7c-2.21 0-4-1.79-4-4s1.79-4 4-4h10c2.21 0 4 1.79 4 4s-1.79 4-4 4zm0-7c-1.66 0-3 1.34-3 3s1.34 3 3 3 3-1.34 3-3-1.34-3-3-3z"/>
    </svg>
  </g>
  <!-- Icon 2: 24px -->
  <g transform="translate(80, 20)">
    <rect width="48" height="48" fill="#1a1a1a" stroke="#333333" stroke-width="1" rx="4"/>
    <svg x="8" y="8" width="32" height="32" viewBox="0 0 24 24" style="fill: #ffffff; stroke: none;">
      <rect fill="none" height="24" width="24" y="0"/><path d="M18,15.17V8c0-1.1-0.9-2-2-2H8.83l6,6h1.67v1.67L18,15.17z M17.17,20l-6-6H7.5v-2h1.67L6,8.83V20H17.17z" opacity=".3"/><path d="M6.98,4.15c0.01,0,0.01-0.01,0.02-0.01V2h3v2h4V2h3v2.14c1.72,0.45,3,2,3,3.86v9.17l-2-2V8c0-1.1-0.9-2-2-2H8.83L6.98,4.15z M14.83,12l1.67,1.67V12H14.83z M19.78,22.61l-0.85-0.85C18.65,21.91,18.34,22,18,22H6c-1.1,0-2-0.9-2-2V8 c0-0.36,0.06-0.69,0.15-1.02L1.39,4.22l1.41-1.41l18.38,18.38L19.78,22.61z M17.17,20l-6-6H7.5v-2h1.67L6,8.83V20H17.17z"/>
    </svg>
  </g>
  <!-- Icon 3: 24px -->
  <g transform="translate(140, 20)">
    <rect width="48" height="48" fill="#1a1a1a" stroke="#333333" stroke-width="1" rx="4"/>
    <svg x="8" y="8" width="32" height="32" viewBox="0 0 24 24" style="fill: #ffffff; stroke: none;">
      <path d="M.01 0h24v24h-24V0z" fill="none"/><path d="M12.01 4V1l-4 4 4 4V6c3.31 0 6 2.69 6 6 0 1.01-.25 1.97-.7 2.8l1.46 1.46c.78-1.23 1.24-2.69 1.24-4.26 0-4.42-3.58-8-8-8zm0 14c-3.31 0-6-2.69-6-6 0-1.01.25-1.97.7-2.8L5.25 7.74C4.47 8.97 4.01 10.43 4.01 12c0 4.42 3.58 8 8 8v3l4-4-4-4v3z"/>
    </svg>
  </g>
  <!-- Icon 4: 20px -->
  <g transform="translate(200, 20)">
    <rect width="48" height="48" fill="#1a1a1a" stroke="#333333" stroke-width="1" rx="4"/>
    <svg x="8" y="8" width="32" height="32" viewBox="0 0 20 20" style="fill: #ffffff; stroke: none;">
      <g><rect fill="none" height="20" width="20"/><path d="M16,15H4v-1h12V15z M16,11H4v1h12V11z M4,9l4-2.78L12,9l4-2.78V5l-4,2.78L8,5L4,7.78L4,9z"/></g>
    </svg>
  </g>
  <!-- Icon 5: 24px -->
  <g transform="translate(260, 20)">
    <rect width="48" height="48" fill="#1a1a1a" stroke="#333333" stroke-width="1" rx="4"/>
    <svg x="8" y="8" width="32" height="32" viewBox="0 0 24 24" style="fill: #ffffff; stroke: none;">
      <g><rect fill="none" height="24" width="24"/></g><g><g><path d="M4,10v9h5.59C9.21,18.07,9,17.06,9,16c0-3.39,2.11-6.27,5.08-7.44L10,5.5L4,10z" opacity=".3"/><path d="M4,19v-9l6-4.5l4.08,3.06c0.81-0.32,1.69-0.51,2.61-0.54L10,3L2,9v12h8.76c-0.48-0.6-0.88-1.27-1.17-2H4z"/><path d="M17,14.75c-0.69,0-1.25,0.56-1.25,1.25c0,0.4,0.2,0.75,0.5,0.97V22h1.5v-5.03c0.3-0.23,0.5-0.57,0.5-0.97 C18.25,15.31,17.69,14.75,17,14.75z"/><path d="M17,12c-2.21,0-4,1.79-4,4c0,1.1,0.45,2.1,1.17,2.83l1.06-1.06c-0.45-0.45-0.73-1.08-0.73-1.77c0-1.38,1.12-2.5,2.5-2.5 s2.5,1.12,2.5,2.5c0,0.69-0.28,1.31-0.73,1.76l1.06,1.06C20.55,18.1,21,17.1,21,16C21,13.79,19.21,12,17,12z"/><path d="M17,9.5c-3.59,0-6.5,2.91-6.5,6.5c0,1.79,0.73,3.42,1.9,4.6l1.06-1.06C12.56,18.63,12,17.38,12,16c0-2.76,2.24-5,5-5 s5,2.24,5,5c0,1.37-0.56,2.62-1.46,3.52l1.07,1.06c1.17-1.18,1.89-2.8,1.89-4.58C23.5,12.41,20.59,9.5,17,9.5z"/></g></g>
    </svg>
  </g>
  <!-- Icon 6: 24px -->
  <g transform="translate(320, 20)">
    <rect width="48" height="48" fill="#1a1a1a" stroke="#333333" stroke-width="1" rx="4"/>
    <svg x="8" y="8" width="32" height="32" viewBox="0 0 24 24" style="fill: #ffffff; stroke: none;">
      <g><rect fill="none" height="24" width="24"/></g><g><g><g><g><path d="M12,4c-4.41,0-8,3.59-8,8s3.59,8,8,8c0.28,0,0.5-0.22,0.5-0.5 c0-0.16-0.08-0.28-0.14-0.35c-0.41-0.46-0.63-1.05-0.63-1.65c0-1.38,1.12-2.5,2.5-2.5H16c2.21,0,4-1.79,4-4 C20,7.14,16.41,4,12,4z M6.5,13C5.67,13,5,12.33,5,11.5S5.67,10,6.5,10S8,10.67,8,11.5S7.33,13,6.5,13z M9.5,9 C8.67,9,8,8.33,8,7.5S8.67,6,9.5,6S11,6.67,11,7.5S10.33,9,9.5,9z M14.5,9C13.67,9,13,8.33,13,7.5S13.67,6,14.5,6 S16,6.67,16,7.5S15.33,9,14.5,9z M19,11.5c0,0.83-0.67,1.5-1.5,1.5S16,12.33,16,11.5s0.67-1.5,1.5-1.5S19,10.67,19,11.5z" enable-background="new" opacity=".3"/><path d="M12,2C6.49,2,2,6.49,2,12s4.49,10,10,10c1.38,0,2.5-1.12,2.5-2.5c0-0.61-0.23-1.21-0.64-1.67 c-0.08-0.09-0.13-0.21-0.13-0.33c0-0.28,0.22-0.5,0.5-0.5H16c3.31,0,6-2.69,6-6C22,6.04,17.51,2,12,2z M16,15h-1.77 c-1.38,0-2.5,1.12-2.5,2.5c0,0.61,0.22,1.19,0.63,1.65c0.06,0.07,0.14,0.19,0.14,0.35c0,0.28-0.22,0.5-0.5,0.5 c-4.41,0-8-3.59-8-8s3.59-8,8-8s8,3.14,8,7C20,13.21,18.21,15,16,15z"/><circle cx="6.5" cy="11.5" r="1.5"/><circle cx="9.5" cy="7.5" r="1.5"/><circle cx="14.5" cy="7.5" r="1.5"/><circle cx="17.5" cy="11.5" r="1.5"/></g></g></g></g>
    </svg>
  </g>
  <!-- Icon 7: 24px -->
  <g transform="translate(380, 20)">
    <rect width="48" height="48" fill="#1a1a1a" stroke="#333333" stroke-width="1" rx="4"/>
    <svg x="8" y="8" width="32" height="32" viewBox="0 0 24 24" style="fill: #ffffff; stroke: none;">
      <path d="M0 0h24v24H0V0z" fill="none"/><path d="M21 3H7v14h14V3zm-4 12h-2v-4h-4V5h2v4h2V5h2v10z" opacity=".3"/><path d="M3 23h16v-2H3V5H1v16c0 1.1.9 2 2 2zm4-4h14c1.1 0 2-.9 2-2V3c0-1.1-.9-2-2-2H7c-1.1 0-2 .9-2 2v14c0 1.1.9 2 2 2zM7 3h14v14H7V3zm8 6h-2V5h-2v6h4v4h2V5h-2z"/>
    </svg>
  </g>
  <!-- Icon 8: 24px -->
  <g transform="translate(20, 80)">
    <rect width="48" height="48" fill="#1a1a1a" stroke="#333333" stroke-width="1" rx="4"/>
    <svg x="8" y="8" width="32" height="32" viewBox="0 0 24 24" style="fill: #ffffff; stroke: none;">
      <path d="M0 0h24v24H0V0z" fill="none"/><path d="M18 9.52V6h-3.52L12 3.52 9.52 6H6v3.52L3.52 12 6 14.48V18h3.52L12 20.48 14.48 18H18v-3.52L20.48 12 18 9.52zm-6 7.98v-11c3.03 0 5.5 2.47 5.5 5.5s-2.47 5.5-5.5 5.5z" opacity=".3"/><path d="M20 8.69V4h-4.69L12 .69 8.69 4H4v4.69L.69 12 4 15.31V20h4.69L12 23.31 15.31 20H20v-4.69L23.31 12 20 8.69zm-2 5.79V18h-3.52L12 20.48 9.52 18H6v-3.52L3.52 12 6 9.52V6h3.52L12 3.52 14.48 6H18v3.52L20.48 12 18 14.48zM12 6.5v11c3.03 0 5.5-2.47 5.5-5.5S15.03 6.5 12 6.5z"/>
    </svg>
  </g>
  <!-- Icon 9: 24px -->
  <g transform="translate(80, 80)">
    <rect width="48" height="48" fill="#1a1a1a" stroke="#333333" stroke-width="1" rx="4"/>
    <svg x="8" y="8" width="32" height="32" viewBox="0 0 24 24" style="fill: #ffffff; stroke: none;">
      <g><rect fill="none" height="24" width="24" y="0"/></g><g><g><path d="M20,3H4C2.9,3,2,3.9,2,5v11c0,1.1,0.9,2,2,2h3l-1,1v2h12v-2l-1-1h3c1.1,0,2-0.9,2-2V5C22,3.9,21.1,3,20,3z M20,16H4V5h16 V16z"/></g><rect height="11" opacity=".3" width="16" x="4" y="5"/></g>
    </svg>
  </g>
  <!-- Icon 10: 20px -->
  <g transform="translate(140, 80)">
    <rect width="48" height="48" fill="#1a1a1a" stroke="#333333" stroke-width="1" rx="4"/>
    <svg x="8" y="8" width="32" height="32" viewBox="0 0 20 20" style="fill: #ffffff; stroke: none;">
      <rect fill="none" height="20" width="20"/><path d="M17.85,8.5h-1.54c-0.48-2.03-1.93-3.68-3.82-4.48V4.5C12.5,5.33,11.83,6,11,6H9v1c0,0.55-0.45,1-1,1H7v2h1v2H7L3.64,8.64 C3.55,9.08,3.5,9.53,3.5,10c0,3.58,2.92,6.5,6.5,6.5V18c-4.42,0-8-3.58-8-8s3.58-8,8-8C13.91,2,17.15,4.8,17.85,8.5z M18,16.44 l-1.06,1.06l-2.56-2.56c-0.54,0.35-1.19,0.56-1.88,0.56C10.57,15.5,9,13.93,9,12s1.57-3.5,3.5-3.5S16,10.07,16,12 c0,0.69-0.21,1.34-0.56,1.88L18,16.44z M14.5,12c0-1.1-0.9-2-2-2s-2,0.9-2,2s0.9,2,2,2S14.5,13.1,14.5,12z"/>
    </svg>
  </g>
  <!-- Icon 11: 24px -->
  <g transform="translate(200, 80)">
    <rect width="48" height="48" fill="#1a1a1a" stroke="#333333" stroke-width="1" rx="4"/>
    <svg x="8" y="8" width="32" height="32" viewBox="0 0 24 24" style="fill: #ffffff; stroke: none;">
      <g><rect fill="none" height="24" width="24"/></g><g><path d="M18.87,4C17.5,5.19,15,6.12,12,6.12C9,6.12,6.5,5.19,5.13,4H18.87z" opacity=".3"/><path d="M14,11V8c4.56-0.58,8-3.1,8-6H2c0,2.9,3.44,5.42,8,6l0,3c-3.68,0.73-8,3.61-8,11h6v-2H4.13c0.93-6.83,6.65-7.2,7.87-7.2 s6.94,0.37,7.87,7.2H16v2h6C22,14.61,17.68,11.73,14,11z M18.87,4C17.5,5.19,15,6.12,12,6.12C9,6.12,6.5,5.19,5.13,4H18.87z M12,22 c-1.1,0-2-0.9-2-2c0-0.55,0.22-1.05,0.59-1.41C11.39,17.79,16,16,16,16s-1.79,4.61-2.59,5.41C13.05,21.78,12.55,22,12,22z"/></g>
    </svg>
  </g>
  <!-- Icon 12: 20px -->
  <g transform="translate(260, 80)">
    <rect width="48" height="48" fill="#1a1a1a" stroke="#333333" stroke-width="1" rx="4"/>
    <svg x="8" y="8" width="32" height="32" viewBox="0 0 20 20" style="fill: #ffffff; stroke: none;">
      <g><rect fill="none" height="20" width="20"/></g><g><g><polygon opacity=".3" points="12,4 10.5,4 10.5,10.46 12,9.46"/><polygon opacity=".3" points="8,9.46 9.5,10.46 9.5,4 8,4"/><path d="M13.16,13.29l-2.27-0.19l-0.56-1.31l2.45-1.63C12.92,10.06,13,9.9,13,9.73V3H7v6.73c0,0.17,0.08,0.32,0.22,0.42l2.45,1.63 l-0.56,1.31l-2.27,0.19l1.72,1.49L8.05,17L10,15.82L11.95,17l-0.52-2.22L13.16,13.29z M10.5,4H12v5.46l-1.5,1V4z M9.5,10.46 l-1.5-1V4h1.5V10.46z"/></g></g>
    </svg>
  </g>
  <!-- Icon 13: 20px -->
  <g transform="translate(320, 80)">
    <rect width="48" height="48" fill="#1a1a1a" stroke="#333333" stroke-width="1" rx="4"/>
    <svg x="8" y="8" width="32" height="32" viewBox="0 0 20 20" style="fill: #ffffff; stroke: none;">
      <g><rect fill="none" height="20" width="20"/></g><g><g/><g><circle cx="10" cy="5" r="1"/><path d="M12.29,7.29C12.11,7.11,11.85,7,11.59,7H8.5C7.12,7,6,5.88,6,4.5V4H5v0.5C5,6.26,6.31,7.75,8,8v4v4h1v-4h2v4h1v-4V8.41 l2.83,2.83l0.71-0.71L12.29,7.29z"/></g></g>
    </svg>
  </g>
  <!-- Icon 14: 20px -->
  <g transform="translate(380, 80)">
    <rect width="48" height="48" fill="#1a1a1a" stroke="#333333" stroke-width="1" rx="4"/>
    <svg x="8" y="8" width="32" height="32" viewBox="0 0 20 20" style="fill: #ffffff; stroke: none;">
      <g><rect fill="none" height="20" width="20"/></g><g><path d="M10.75,17c0.39-1.97,1.59-4.5,2.38-4.5c0.77,0,1.99,2.58,2.38,4.5H10.75z M4.5,17 C5,12.83,6.11,9.28,6.88,8.57C7.64,9.28,8.75,12.83,9.25,17H4.5z M13.12,11c-0.81,0-1.49,0.54-2.04,1.28 c0.47-4.11,1.31-7.16,2.04-7.74c0.73,0.58,1.57,3.63,2.04,7.74C14.62,11.54,13.94,11,13.12,11z" opacity=".3"/><path d="M13.12,3c-1.96,0-2.94,4.51-3.42,8.41C9.08,9.12,8.15,7,6.88,7C4.1,7,3,17,3,17h1.5C5,12.83,6.11,9.28,6.88,8.57 C7.64,9.28,8.75,12.83,9.25,17h1.5c0.39-1.97,1.59-4.5,2.38-4.5c0.77,0,1.99,2.58,2.38,4.5H17C17,17,16.58,3,13.12,3z M13.12,11 c-0.81,0-1.49,0.54-2.04,1.28c0.47-4.11,1.31-7.16,2.04-7.74c0.73,0.58,1.57,3.63,2.04,7.74C14.62,11.54,13.94,11,13.12,11z"/></g>
    </svg>
  </g>
  <!-- Icon 15: 24px -->
  <g transform="translate(20, 140)">
    <rect width="48" height="48" fill="#1a1a1a" stroke="#333333" stroke-width="1" rx="4"/>
    <svg x="8" y="8" width="32" height="32" viewBox="0 0 24 24" style="fill: #ffffff; stroke: none;">
      <g><path d="M0,0h24v24H0V0z" fill="none"/></g><g><g><rect height="1" opacity=".3" width="10" x="7" y="20"/><rect height="1" opacity=".3" width="10" x="7" y="3"/><path d="M17,1.01L7,1C5.9,1,5,1.9,5,3v18c0,1.1,0.9,2,2,2h10c1.1,0,2-0.9,2-2V3C19,1.9,18.1,1.01,17,1.01z M17,21H7v-1h10V21z M17,18H7V6h10V18z M17,4H7V3h10V4z M16,12h-3V8h-2v4H8l4,4L16,12z"/></g></g>
    </svg>
  </g>
  <!-- Icon 16: 24px -->
  <g transform="translate(80, 140)">
    <rect width="48" height="48" fill="#1a1a1a" stroke="#333333" stroke-width="1" rx="4"/>
    <svg x="8" y="8" width="32" height="32" viewBox="0 0 24 24" style="fill: #ffffff; stroke: none;">
      <path d="M0 0h24v24H0V0z" fill="none"/><circle cx="12" cy="12" opacity=".3" r="2"/><path d="M12 8c-2.21 0-4 1.79-4 4s1.79 4 4 4 4-1.79 4-4-1.79-4-4-4zm0 6c-1.1 0-2-.9-2-2s.9-2 2-2 2 .9 2 2-.9 2-2 2zm8.94-3c-.46-4.17-3.77-7.48-7.94-7.94V1h-2v2.06C6.83 3.52 3.52 6.83 3.06 11H1v2h2.06c.46 4.17 3.77 7.48 7.94 7.94V23h2v-2.06c4.17-.46 7.48-3.77 7.94-7.94H23v-2h-2.06zM12 19c-3.87 0-7-3.13-7-7s3.13-7 7-7 7 3.13 7 7-3.13 7-7 7z"/>
    </svg>
  </g>
  <!-- Icon 17: 24px -->
  <g transform="translate(140, 140)">
    <rect width="48" height="48" fill="#1a1a1a" stroke="#333333" stroke-width="1" rx="4"/>
    <svg x="8" y="8" width="32" height="32" viewBox="0 0 24 24" style="fill: #ffffff; stroke: none;">
      <g><path d="M0,0h24v24H0V0z" fill="none"/></g><g><g><path d="M4.01,8.54C5.2,9.23,6,10.52,6,12c0,1.47-0.81,2.77-2,3.46V18h16V6H4L4.01,8.54z M8.14,12.53l1.26,0.99 l2.39-0.64l-2.4-4.16l1.4-0.38l4.01,3.74l2.44-0.65c0.51-0.14,1.04,0.17,1.18,0.68c0.13,0.51-0.17,1.04-0.69,1.19l-8.86,2.36 l-1.66-2.88L8.14,12.53z" opacity=".3"/><path d="M20.19,4H4C2.9,4,2.01,4.9,2.01,6v4C3.11,10,4,10.9,4,12s-0.89,2-2,2v4c0,1.1,0.9,2,2,2h16c1.1,0,2-0.9,2-2V6 C22,4.9,21.19,4,20.19,4z M20,18H4v-2.54c1.19-0.69,2-1.99,2-3.46c0-1.48-0.8-2.77-1.99-3.46L4,6h16V18z"/><path d="M17.73,13.3c0.52-0.15,0.82-0.68,0.69-1.19c-0.14-0.51-0.67-0.82-1.18-0.68l-2.44,0.65l-4.01-3.74l-1.4,0.38l2.4,4.16 L9.4,13.52l-1.26-0.99l-0.93,0.25l1.66,2.88L17.73,13.3z"/></g></g>
    </svg>
  </g>
  <!-- Icon 18: 20px -->
  <g transform="translate(200, 140)">
    <rect width="48" height="48" fill="#1a1a1a" stroke="#333333" stroke-width="1" rx="4"/>
    <svg x="8" y="8" width="32" height="32" viewBox="0 0 20 20" style="fill: #ffffff; stroke: none;">
      <rect fill="none" height="20" width="20"/><path d="M15.75,9.25H18v1.5h-2.25V13h-1.5v-2.25H12v-1.5h2.25V7h1.5V9.25z M4.49,12.44h4.04L9.42,15h1.73L7.39,5H5.61L1.85,15h1.73 L4.49,12.44z M6.07,8.02l0.39-1.16h0.08l0.39,1.16l1.06,2.98H5.01L6.07,8.02z"/>
    </svg>
  </g>
  <!-- Icon 19: 24px -->
  <g transform="translate(260, 140)">
    <rect width="48" height="48" fill="#1a1a1a" stroke="#333333" stroke-width="1" rx="4"/>
    <svg x="8" y="8" width="32" height="32" viewBox="0 0 24 24" style="fill: #ffffff; stroke: none;">
      <path d="M0 0h24v24H0V0z" fill="none"/><path d="M3 12h3v7h3v-7h3V9H3zm6-5h5v12h3V7h5V4H9z"/>
    </svg>
  </g>
  <!-- Icon 20: 24px -->
  <g transform="translate(320, 140)">
    <rect width="48" height="48" fill="#1a1a1a" stroke="#333333" stroke-width="1" rx="4"/>
    <svg x="8" y="8" width="32" height="32" viewBox="0 0 24 24" style="fill: #ffffff; stroke: none;">
      <path d="M0 0h24v24H0V0z" fill="none"/><path d="M9 12h6v8H9z" opacity=".3"/><path d="M12 1C8.98 1 6.24 2.23 4.25 4.21l1.41 1.41C7.28 4 9.53 3 12 3s4.72 1 6.34 2.62l1.41-1.41C17.76 2.23 15.02 1 12 1zM7 7.07L8.43 8.5c.91-.91 2.18-1.48 3.57-1.48s2.66.57 3.57 1.48L17 7.07C15.72 5.79 13.95 5 12 5s-3.72.79-5 2.07zm7.86 2.94L9.14 10C8.51 10 8 10.51 8 11.14v9.71c0 .63.51 1.14 1.14 1.14h5.71c.63 0 1.14-.51 1.14-1.14v-9.71c.01-.63-.5-1.13-1.13-1.13zM15 20H9v-8h6v8z"/>
    </svg>
  </g>
  <!-- Icon 21: 24px -->
  <g transform="translate(380, 140)">
    <rect width="48" height="48" fill="#1a1a1a" stroke="#333333" stroke-width="1" rx="4"/>
    <svg x="8" y="8" width="32" height="32" viewBox="0 0 24 24" style="fill: #ffffff; stroke: none;">
      <path d="M0 0h24v24H0V0z" fill="none"/><path d="M22 5H2v14h20V5zM9 6c1.65 0 3 1.35 3 3s-1.35 3-3 3-3-1.35-3-3 1.35-3 3-3zm6 12H3v-1.41C3 14.08 6.97 13 9 13s6 1.08 6 3.58V18zm2.85-4h1.64L21 16l-1.99 1.99c-1.31-.98-2.28-2.38-2.73-3.99-.18-.64-.28-1.31-.28-2s.1-1.36.28-2c.45-1.62 1.42-3.01 2.73-3.99L21 8l-1.51 2h-1.64c-.22.63-.35 1.3-.35 2s.13 1.37.35 2z" opacity=".3"/><path d="M2 21h20c1.1 0 1.99-.9 1.99-2L24 5c0-1.1-.9-2-2-2H2C.9 3 0 3.9 0 5v14c0 1.1.9 2 2 2zM2 5h20v14H2V5zm17.49 5L21 8l-1.99-1.99c-1.31.98-2.28 2.37-2.73 3.99-.18.64-.28 1.31-.28 2s.1 1.36.28 2c.45 1.61 1.42 3.01 2.73 3.99L21 16l-1.51-2h-1.64c-.22-.63-.35-1.3-.35-2s.13-1.37.35-2h1.64zM9 12c1.65 0 3-1.35 3-3s-1.35-3-3-3-3 1.35-3 3 1.35 3 3 3zm0-4c.55 0 1 .45 1 1s-.45 1-1 1-1-.45-1-1 .45-1 1-1zm0 5c-2.03 0-6 1.08-6 3.58V18h12v-1.41C15 14.08 11.03 13 9 13zm-3.52 3c.74-.5 2.22-1 3.52-1s2.77.49 3.52 1H5.48z"/>
    </svg>
  </g>
  <!-- Icon 22: 24px -->
  <g transform="translate(20, 200)">
    <rect width="48" height="48" fill="#1a1a1a" stroke="#333333" stroke-width="1" rx="4"/>
    <svg x="8" y="8" width="32" height="32" viewBox="0 0 24 24" style="fill: #ffffff; stroke: none;">
      <path d="M0 0h24v24H0V0z" fill="none"/><path d="M5 19h14v1H5z" opacity=".3"/><path d="M18 13h-.68l-2 2h1.91L19 17H5l1.78-2h2.05l-2-2H6l-3 3v4c0 1.1.89 2 1.99 2H19c1.1 0 2-.89 2-2v-4l-3-3zm1 7H5v-1h14v1z"/><path d="M12.048 12.905L8.505 9.362l4.95-4.95 3.543 3.543z" opacity=".3"/><path d="M19.11 7.25L14.16 2.3c-.38-.4-1.01-.4-1.4-.01L6.39 8.66c-.39.39-.39 1.02 0 1.41l4.95 4.95c.39.39 1.02.39 1.41 0l6.36-6.36c.39-.39.39-1.02 0-1.41zm-7.06 5.65L8.51 9.36l4.95-4.95L17 7.95l-4.95 4.95z"/>
    </svg>
  </g>
  <!-- Icon 23: 24px -->
  <g transform="translate(80, 200)">
    <rect width="48" height="48" fill="#1a1a1a" stroke="#333333" stroke-width="1" rx="4"/>
    <svg x="8" y="8" width="32" height="32" viewBox="0 0 24 24" style="fill: #ffffff; stroke: none;">
      <path d="M0 0h24v24H0V0z" fill="none"/><path d="M4 20h16v-8H4v8zm6-7.27L16 16l-6 3.26v-6.53z" opacity=".3"/><path d="M4 6h16v2H4zm2-4h12v2H6zm14 8H4c-1.1 0-2 .9-2 2v8c0 1.1.9 2 2 2h16c1.1 0 2-.9 2-2v-8c0-1.1-.9-2-2-2zm0 10H4v-8h16v8zm-10-7.27v6.53L16 16z"/>
    </svg>
  </g>
  <!-- Icon 24: 24px -->
  <g transform="translate(140, 200)">
    <rect width="48" height="48" fill="#1a1a1a" stroke="#333333" stroke-width="1" rx="4"/>
    <svg x="8" y="8" width="32" height="32" viewBox="0 0 24 24" style="fill: #ffffff; stroke: none;">
      <path d="M0 0h24v24H0V0z" fill="none"/><path d="M9.12 14.47V9.53H8.09v2.88L6.03 9.53H5v4.94h1.03v-2.88l2.1 2.88zm4.12-3.9V9.53h-3.3v4.94h3.3v-1.03h-2.06v-.91h2.06v-1.04h-2.06v-.92zm.82-1.04v4.12c0 .45.37.82.82.82h3.29c.45 0 .82-.37.82-.82V9.53h-1.03v3.71h-.92v-2.89h-1.03v2.9h-.93V9.53h-1.02z"/><path d="M4 6h16v12H4z" opacity=".3"/><path d="M20 4H4c-1.11 0-1.99.89-1.99 2L2 18c0 1.11.89 2 2 2h16c1.11 0 2-.89 2-2V6c0-1.11-.89-2-2-2zm0 14H4V6h16v12z"/>
    </svg>
  </g>
  <!-- Icon 25: 20px -->
  <g transform="translate(200, 200)">
    <rect width="48" height="48" fill="#1a1a1a" stroke="#333333" stroke-width="1" rx="4"/>
    <svg x="8" y="8" width="32" height="32" viewBox="0 0 20 20" style="fill: #ffffff; stroke: none;">
      <g><rect fill="none" height="20" width="20"/></g><g><g><path d="M11.95,6c-0.12-0.13-0.2-0.31-0.2-0.5c0-0.41,0.34-0.75,0.75-0.75s0.75,0.34,0.75,0.75 c0,0.41-0.34,0.75-0.75,0.75c-0.19,0-0.37-0.08-0.5-0.2v3.46C12,8.67,12.89,8,14,8s2,0.67,2,1.51h-4v1.36 c0.57,0.4,1.26,0.64,2,0.64c1.93,0,3.5-1.57,3.5-3.5V3.5h-7V6H11.95z M15.5,4.75c0.41,0,0.75,0.34,0.75,0.75 c0,0.41-0.34,0.75-0.75,0.75s-0.75-0.34-0.75-0.75C14.75,5.09,15.09,4.75,15.5,4.75z" opacity=".3"/><path d="M9,2v4h1.5V3.5h7V8c0,1.93-1.57,3.5-3.5,3.5c-0.74,0-1.43-0.24-2-0.64v1.71c0.61,0.27,1.29,0.42,2,0.42c2.76,0,5-2.24,5-5 V2H9z"/><circle cx="15.5" cy="5.5" r=".75"/><circle cx="12.5" cy="5.5" r=".75"/><path d="M9.5,13V8.5h-7V13c0,1.93,1.57,3.5,3.5,3.5C7.93,16.5,9.5,14.93,9.5,13z M3.75,10.5 c0-0.41,0.34-0.75,0.75-0.75s0.75,0.34,0.75,0.75c0,0.41-0.34,0.75-0.75,0.75S3.75,10.91,3.75,10.5z M6,14.51 c-1.11,0-2-0.67-2-1.51h4C8,13.83,7.11,14.51,6,14.51z M7.5,11.25c-0.41,0-0.75-0.34-0.75-0.75c0-0.41,0.34-0.75,0.75-0.75 s0.75,0.34,0.75,0.75C8.25,10.91,7.91,11.25,7.5,11.25z" opacity=".3"/><path d="M11,7H1v6c0,0.69,0.14,1.35,0.39,1.95c0.51,1.2,1.46,2.15,2.66,2.66C4.65,17.86,5.31,18,6,18s1.35-0.14,1.95-0.39 c1.2-0.51,2.15-1.46,2.66-2.66C10.86,14.35,11,13.69,11,13V7z M6,16.5c-1.93,0-3.5-1.57-3.5-3.5V8.5h7V13 C9.5,14.93,7.93,16.5,6,16.5z"/><circle cx="4.5" cy="10.5" r=".75"/><circle cx="7.5" cy="10.5" r=".75"/><path d="M6,14.51c1.11,0,2-0.67,2-1.51H4C4,13.83,4.89,14.51,6,14.51z"/><path d="M14,8c-1.11,0-2,0.67-2,1.51h4C16,8.67,15.11,8,14,8z"/></g></g>
    </svg>
  </g>
  <!-- Icon 26: 24px -->
  <g transform="translate(260, 200)">
    <rect width="48" height="48" fill="#1a1a1a" stroke="#333333" stroke-width="1" rx="4"/>
    <svg x="8" y="8" width="32" height="32" viewBox="0 0 24 24" style="fill: #ffffff; stroke: none;">
      <rect fill="none" height="24" width="24"/><path d="M19.71,9.71L22,12V6h-6l2.29,2.29l-4.17,4.17c-0.39,0.39-1.02,0.39-1.41,0l-1.17-1.17c-1.17-1.17-3.07-1.17-4.24,0L2,16.59 L3.41,18l5.29-5.29c0.39-0.39,1.02-0.39,1.41,0l1.17,1.17c1.17,1.17,3.07,1.17,4.24,0L19.71,9.71z"/>
    </svg>
  </g>
  <!-- Icon 27: 24px -->
  <g transform="translate(320, 200)">
    <rect width="48" height="48" fill="#1a1a1a" stroke="#333333" stroke-width="1" rx="4"/>
    <svg x="8" y="8" width="32" height="32" viewBox="0 0 24 24" style="fill: #ffffff; stroke: none;">
      <g><rect fill="none" height="24" width="24"/></g><g><path d="M14.59,15.59L16,17l4-4l-4-4l-1.41,1.41L16.17,12c-1.51-0.33-3.73,0.08-5.17,1.36l0-6.53l1.59,1.59L14,7l-4-4L6,7 l1.41,1.41L9,6.83V21l2,0v-4c0.73-2.58,3.07-3.47,5.17-3L14.59,15.59z"/></g>
    </svg>
  </g>
  <!-- Icon 28: 24px -->
  <g transform="translate(380, 200)">
    <rect width="48" height="48" fill="#1a1a1a" stroke="#333333" stroke-width="1" rx="4"/>
    <svg x="8" y="8" width="32" height="32" viewBox="0 0 24 24" style="fill: #ffffff; stroke: none;">
      <path d="M0 0h24v24H0V0z" fill="none"/><circle cx="17.5" cy="17.5" opacity=".3" r="2.5"/><path d="M5 15.5h4v4H5zm7-9.66L10.07 9h3.86z" opacity=".3"/><path d="M12 2l-5.5 9h11L12 2zm0 3.84L13.93 9h-3.87L12 5.84zM17.5 13c-2.49 0-4.5 2.01-4.5 4.5s2.01 4.5 4.5 4.5 4.5-2.01 4.5-4.5-2.01-4.5-4.5-4.5zm0 7c-1.38 0-2.5-1.12-2.5-2.5s1.12-2.5 2.5-2.5 2.5 1.12 2.5 2.5-1.12 2.5-2.5 2.5zM11 13.5H3v8h8v-8zm-2 6H5v-4h4v4z"/>
    </svg>
  </g>
  <!-- Icon 29: 20px -->
  <g transform="translate(20, 260)">
    <rect width="48" height="48" fill="#1a1a1a" stroke="#333333" stroke-width="1" rx="4"/>
    <svg x="8" y="8" width="32" height="32" viewBox="0 0 20 20" style="fill: #ffffff; stroke: none;">
      <g><rect fill="none" height="20" width="20"/></g><g><g><path d="M4.5,15.5h11v-11h-11V15.5z M12.5,6H14v6h-1.5V6z M9.25,6h1.5v4h-1.5V6z M6,6h1.5v8H6V6z" opacity=".3"/><g><path d="M15.5,3h-11C3.67,3,3,3.67,3,4.5v11C3,16.33,3.67,17,4.5,17h11c0.83,0,1.5-0.67,1.5-1.5v-11C17,3.67,16.33,3,15.5,3z M15.5,15.5h-11v-11h11V15.5z"/></g><g><rect height="4" width="1.5" x="9.25" y="6"/></g><g><rect height="8" width="1.5" x="6" y="6"/></g><g><rect height="6" width="1.5" x="12.5" y="6"/></g></g></g>
    </svg>
  </g>
  <!-- Icon 30: 24px -->
  <g transform="translate(80, 260)">
    <rect width="48" height="48" fill="#1a1a1a" stroke="#333333" stroke-width="1" rx="4"/>
    <svg x="8" y="8" width="32" height="32" viewBox="0 0 24 24" style="fill: #ffffff; stroke: none;">
      <g><rect fill="none" height="24" width="24"/></g><g><path d="M17.08,21h-6.55l-3.7-3.78L11,18.11V7.5C11,7.22,11.22,7,11.5,7S12,7.22,12,7.5v6.18h1.76L18,15.56L17.08,21 z" opacity=".3"/><path d="M18.89,13.77l-3.8-1.67C14.96,12.04,14.81,12,14.65,12H14V7.5C14,6.12,12.88,5,11.5,5S9,6.12,9,7.5v8.15l-1.87-0.4 c-0.19-0.03-1.02-0.15-1.73,0.56L4,17.22l5.12,5.19C9.49,22.79,10,23,10.53,23h6.55c0.98,0,1.81-0.7,1.97-1.67l0.92-5.44 C20.12,15.03,19.68,14.17,18.89,13.77z M17.08,21h-6.55l-3.7-3.78L11,18.11V7.5C11,7.22,11.22,7,11.5,7S12,7.22,12,7.5v6.18h1.76 L18,15.56L17.08,21z M12,2.5C7.26,2.5,4.33,5.02,3.57,7H2c0.73-2.88,4.51-6,10-6c3.22,0,6.18,1.13,8.5,3.02V2H22v5h-5V5.5h2.91 C17.79,3.64,15.03,2.5,12,2.5z"/></g>
    </svg>
  </g>
  <!-- Icon 31: 24px -->
  <g transform="translate(140, 260)">
    <rect width="48" height="48" fill="#1a1a1a" stroke="#333333" stroke-width="1" rx="4"/>
    <svg x="8" y="8" width="32" height="32" viewBox="0 0 24 24" style="fill: #ffffff; stroke: none;">
      <g><rect fill="none" height="24" width="24"/></g><g><g><path d="M15.5,14h-0.79l-0.28-0.27C15.41,12.59,16,11.11,16,9.5C16,5.91,13.09,3,9.5,3C6.08,3,3.28,5.64,3.03,9h2.02 C5.3,6.75,7.18,5,9.5,5C11.99,5,14,7.01,14,9.5S11.99,14,9.5,14c-0.17,0-0.33-0.03-0.5-0.05v2.02C9.17,15.99,9.33,16,9.5,16 c1.61,0,3.09-0.59,4.23-1.57L14,14.71v0.79l5,4.99L20.49,19L15.5,14z"/><polygon points="6.47,10.82 4,13.29 1.53,10.82 0.82,11.53 3.29,14 0.82,16.47 1.53,17.18 4,14.71 6.47,17.18 7.18,16.47 4.71,14 7.18,11.53"/></g></g>
    </svg>
  </g>
  <!-- Icon 32: 24px -->
  <g transform="translate(200, 260)">
    <rect width="48" height="48" fill="#1a1a1a" stroke="#333333" stroke-width="1" rx="4"/>
    <svg x="8" y="8" width="32" height="32" viewBox="0 0 24 24" style="fill: #ffffff; stroke: none;">
      <rect fill="none" height="24" width="24" x="0" y="0"/><path d="M12,4c-4.41,0-8,3.59-8,8c0,4.41,3.59,8,8,8s8-3.59,8-8C20,7.59,16.41,4,12,4z M13.88,11.54l-4.96,4.96 l-1.41-1.41l4.96-4.96L10.34,8l5.65,0.01L16,13.66L13.88,11.54z" opacity=".3"/><path d="M12,4c4.41,0,8,3.59,8,8s-3.59,8-8,8s-8-3.59-8-8S7.59,4,12,4 M12,2C6.48,2,2,6.48,2,12c0,5.52,4.48,10,10,10s10-4.48,10-10 C22,6.48,17.52,2,12,2L12,2z M13.88,11.54l-4.96,4.96l-1.41-1.41l4.96-4.96L10.34,8l5.65,0.01L16,13.66L13.88,11.54z"/>
    </svg>
  </g>
  <!-- Icon 33: 20px -->
  <g transform="translate(260, 260)">
    <rect width="48" height="48" fill="#1a1a1a" stroke="#333333" stroke-width="1" rx="4"/>
    <svg x="8" y="8" width="32" height="32" viewBox="0 0 20 20" style="fill: #ffffff; stroke: none;">
      <rect fill="none" height="20" width="20"/><path d="M5.25,10.84c0-1.21,0.47-2.35,1.32-3.22L10,4.14V15.5C7.38,15.5,5.25,13.41,5.25,10.84z" opacity=".3"/><path d="M14.53,6.59L14.53,6.59L10,2L5.5,6.56c-1.08,1.11-1.75,2.62-1.75,4.28c0,3.4,2.8,6.16,6.25,6.16s6.25-2.76,6.25-6.16 C16.25,9.19,15.6,7.7,14.53,6.59z M5.25,10.84c0-1.21,0.47-2.35,1.32-3.22L10,4.14V15.5C7.38,15.5,5.25,13.41,5.25,10.84z"/>
    </svg>
  </g>
  <!-- Icon 34: 24px -->
  <g transform="translate(320, 260)">
    <rect width="48" height="48" fill="#1a1a1a" stroke="#333333" stroke-width="1" rx="4"/>
    <svg x="8" y="8" width="32" height="32" viewBox="0 0 24 24" style="fill: #ffffff; stroke: none;">
      <rect fill="none" height="24" width="24"/><path d="M18,13v2.17L8.83,6H11V4c0-0.28,0.22-0.5,0.5-0.5S12,3.72,12,4v2h6v6h2 c0.28,0,0.5,0.22,0.5,0.5S20.28,13,20,13H18z M8,12.5c0,1.5-0.83,3.57-3,4.37V19h2.13c0.8-2.17,2.87-3,4.37-3 c0.69,0,1.5,0.18,2.25,0.58l-6.33-6.33C7.82,11,8,11.81,8,12.5z" enable-background="new" opacity=".3"/><path d="M1.39,4.22l1.62,1.62c0,0.05-0.01,0.1-0.01,0.16v3.8C5.7,9.8,6,11.96,6,12.5c0,0.54-0.29,2.7-3,2.7V19c0,1.1,0.9,2,2,2h3.8 c0-2.71,2.16-3,2.7-3c0.54,0,2.7,0.29,2.7,3H18c0.06,0,0.11,0,0.16-0.01l1.61,1.61l1.41-1.41L2.81,2.81L1.39,4.22z M11.5,16 c-1.5,0-3.57,0.83-4.37,3H5v-2.13c2.17-0.8,3-2.87,3-4.37c0-0.69-0.18-1.5-0.58-2.25l6.33,6.33C13,16.18,12.19,16,11.5,16z M8.83,6 l-2-2H9c0-1.38,1.12-2.5,2.5-2.5S14,2.62,14,4h4c1.1,0,2,0.9,2,2v4c1.38,0,2.5,1.12,2.5,2.5S21.38,15,20,15v2.17l-2-2V13h2 c0.28,0,0.5-0.22,0.5-0.5S20.28,12,20,12h-2V6h-6V4c0-0.28-0.22-0.5-0.5-0.5S11,3.72,11,4v2H8.83z"/>
    </svg>
  </g>
  <!-- Icon 35: 24px -->
  <g transform="translate(380, 260)">
    <rect width="48" height="48" fill="#1a1a1a" stroke="#333333" stroke-width="1" rx="4"/>
    <svg x="8" y="8" width="32" height="32" viewBox="0 0 24 24" style="fill: #ffffff; stroke: none;">
      <g><path d="M0,0h24v24H0V0z" fill="none"/></g><g><g><rect height="12" opacity=".3" width="2.5" x="8.5" y="6"/><rect height="12" opacity=".3" width="2.5" x="13" y="6"/><rect height="12" opacity=".3" width="2.5" x="4" y="6"/><rect height="12" opacity=".3" width="2.5" x="17.5" y="6"/><path d="M20,4H4C2.9,4,2,4.9,2,6v12c0,1.1,0.9,2,2,2h16c1.1,0,2-0.9,2-2V6C22,4.9,21.1,4,20,4z M6.5,18H4V6h2.5V18z M11,18H8.5V6 H11V18z M15.5,18H13V6h2.5V18z M20,18h-2.5V6H20V18z"/></g></g>
    </svg>
  </g>

  <!-- Title Background -->
  <rect x="0" y="323" width="448" height="60" fill="#1a1a1a"/>
  
  <!-- Title -->
  <text x="20" y="348" text-anchor="start" font-family="system-ui, -apple-system, sans-serif" font-size="18" font-weight="bold" fill="#ffffff">Material Design Icons - twotone</text>

</svg>