<svg width="800" height="600" xmlns="http://www.w3.org/2000/svg">
  <!-- Background -->
  <rect width="800" height="600" fill="#ffffff"/>
  
  <!-- Header Background -->
  <rect width="800" height="80" fill="#f8f9fa"/>
  
  <!-- Title -->
  <text x="400" y="30" text-anchor="middle" font-family="system-ui, -apple-system, sans-serif" font-size="20" font-weight="bold" fill="#212529">Material Design Icons - twotone</text>
  
  <!-- Subtitle -->
  <text x="400" y="55" text-anchor="middle" font-family="system-ui, -apple-system, sans-serif" font-size="14" fill="#6c757d">2,851 icons</text>
  
  <!-- Icon Grid -->
  <!-- Icon 1: 24px -->
  <g transform="translate(196, 92)">
    <rect width="48" height="48" fill="#ffffff" stroke="#e9ecef" stroke-width="1" rx="4"/>
    <svg x="8" y="8" width="32" height="32" viewBox="0 0 24 24">
      <path d="M0 0h24v24H0z" fill="#2563eb"/><path d="M17 8H7c-2.21 0-4 1.79-4 4s1.79 4 4 4h10c2.21 0 4-1.79 4-4s-1.79-4-4-4zm0 7c-1.66 0-3-1.34-3-3s1.34-3 3-3 3 1.34 3 3-1.34 3-3 3z" opacity=".3"/><path d="M17 6H7c-3.31 0-6 2.69-6 6s2.69 6 6 6h10c3.31 0 6-2.69 6-6s-2.69-6-6-6zm0 10H7c-2.21 0-4-1.79-4-4s1.79-4 4-4h10c2.21 0 4 1.79 4 4s-1.79 4-4 4zm0-7c-1.66 0-3 1.34-3 3s1.34 3 3 3 3-1.34 3-3-1.34-3-3-3z"/>
    </svg>
  </g>
  <!-- Icon 2: 24px -->
  <g transform="translate(256, 92)">
    <rect width="48" height="48" fill="#ffffff" stroke="#e9ecef" stroke-width="1" rx="4"/>
    <svg x="8" y="8" width="32" height="32" viewBox="0 0 24 24">
      <rect fill="#2563eb" height="24" width="24"/><path d="M4,18h10V6H4V18z M7.75,8c0.8,0,1.39,0.39,1.81,0.67C9.87,8.88,10.07,9,10.25,9c0.37,0,0.8-0.41,0.95-0.61 l1.42,1.42c-0.36,0.4-1.22,1.19-2.37,1.19c-0.79,0-1.37-0.38-1.79-0.66C8.13,10.12,7.94,10,7.75,10c-0.37,0-0.8,0.41-0.95,0.61 L5.37,9.19C5.73,8.79,6.59,8,7.75,8z M7.75,13c0.8,0,1.39,0.39,1.81,0.67C9.87,13.88,10.07,14,10.25,14c0.37,0,0.8-0.41,0.95-0.61 l1.42,1.42c-0.36,0.4-1.22,1.19-2.37,1.19c-0.79,0-1.37-0.38-1.79-0.66C8.13,15.12,7.94,15,7.75,15c-0.37,0-0.8,0.41-0.95,0.61 l-1.42-1.42C5.73,13.79,6.59,13,7.75,13z M16,6v12h4V6H16z M18,17c-0.55,0-1-0.45-1-1c0-0.55,0.45-1,1-1c0.55,0,1,0.45,1,1 C19,16.55,18.55,17,18,17z M18,13c-0.55,0-1-0.45-1-1c0-0.55,0.45-1,1-1c0.55,0,1,0.45,1,1C19,12.55,18.55,13,18,13z M19,9h-2V7h2V9 z" opacity=".3"/><path d="M20,4H4C2.9,4,2,4.9,2,6v12c0,1.1,0.9,2,2,2h16c1.1,0,2-0.9,2-2V6C22,4.9,21.1,4,20,4z M4,6h10v12H4V6z M20,18h-4V6h4V18z M19,9h-2V7h2V9z M18,13L18,13c-0.55,0-1-0.45-1-1v0c0-0.55,0.45-1,1-1h0c0.55,0,1,0.45,1,1v0C19,12.55,18.55,13,18,13z M18,17 L18,17c-0.55,0-1-0.45-1-1v0c0-0.55,0.45-1,1-1h0c0.55,0,1,0.45,1,1v0C19,16.55,18.55,17,18,17z M10.25,16 c-0.79,0-1.37-0.38-1.79-0.66C8.13,15.12,7.94,15,7.75,15c-0.37,0-0.8,0.41-0.95,0.61l-1.42-1.42C5.73,13.79,6.59,13,7.75,13 c0.8,0,1.39,0.39,1.81,0.67C9.87,13.88,10.07,14,10.25,14c0.37,0,0.8-0.41,0.95-0.61l1.42,1.42C12.26,15.21,11.41,16,10.25,16z M10.25,11c-0.79,0-1.37-0.38-1.79-0.66C8.13,10.12,7.94,10,7.75,10c-0.37,0-0.8,0.41-0.95,0.61L5.37,9.19C5.73,8.79,6.59,8,7.75,8 c0.8,0,1.39,0.39,1.81,0.67C9.87,8.88,10.07,9,10.25,9c0.37,0,0.8-0.41,0.95-0.61l1.42,1.42C12.26,10.21,11.41,11,10.25,11z"/>
    </svg>
  </g>
  <!-- Icon 3: 24px -->
  <g transform="translate(316, 92)">
    <rect width="48" height="48" fill="#ffffff" stroke="#e9ecef" stroke-width="1" rx="4"/>
    <svg x="8" y="8" width="32" height="32" viewBox="0 0 24 24">
      <g><rect fill="#2563eb" height="24" width="24"/><path d="M17 6H3v8h14V6zm-7 7c-1.66 0-3-1.34-3-3s1.34-3 3-3 3 1.34 3 3-1.34 3-3 3z" opacity=".3"/><g><path d="M17 4H3c-1.1 0-2 .9-2 2v8c0 1.1.9 2 2 2h14c1.1 0 2-.9 2-2V6c0-1.1-.9-2-2-2zM3 14V6h14v8H3z"/><path d="M10 7c-1.66 0-3 1.34-3 3s1.34 3 3 3 3-1.34 3-3-1.34-3-3-3z"/></g><path d="M23 7v11c0 1.1-.9 2-2 2H4v-2h17V7h2z"/></g>
    </svg>
  </g>
  <!-- Icon 4: 20px -->
  <g transform="translate(376, 92)">
    <rect width="48" height="48" fill="#ffffff" stroke="#e9ecef" stroke-width="1" rx="4"/>
    <svg x="8" y="8" width="32" height="32" viewBox="0 0 20 20">
      <g><rect fill="#2563eb" height="20" width="20"/></g><g><g><path d="M9.5,4.03C8.6,4.11,7.75,4.38,7,4.81v6.34l2.5-1.44V4.03z" opacity=".3"/><path d="M10.5,4.04v1.62l5.37,3.11C15.34,6.21,13.16,4.27,10.5,4.04z" opacity=".3"/><path d="M10,10.58l-4.92,2.84c0.51,0.73,1.17,1.32,1.94,1.77l5.48-3.17L10,10.58z" opacity=".3"/><path d="M6,5.55C4.78,6.65,4,8.23,4,10c0,0.91,0.21,1.78,0.58,2.55L6,11.73V5.55z" opacity=".3"/><path d="M8.13,15.7C8.72,15.89,9.35,16,10,16c2.04,0,3.84-1.02,4.92-2.58L13.5,12.6L8.13,15.7z" opacity=".3"/><path d="M10.5,6.82v2.89l4.92,2.84c0.37-0.77,0.58-1.64,0.58-2.55L10.5,6.82z" opacity=".3"/><path d="M10,3c-3.87,0-7,3.13-7,7c0,3.87,3.13,7,7,7c3.87,0,7-3.13,7-7C17,6.13,13.87,3,10,3z M10.5,4.04 c2.66,0.22,4.84,2.17,5.37,4.73L10.5,5.67V4.04z M7,4.81c0.75-0.43,1.6-0.7,2.5-0.78v5.68L7,11.15V4.81z M4.58,12.55 C4.21,11.78,4,10.91,4,10c0-1.77,0.78-3.35,2-4.45v6.18L4.58,12.55z M5.08,13.42L10,10.58l2.5,1.44l-5.48,3.17 C6.25,14.74,5.58,14.15,5.08,13.42z M10,16c-0.65,0-1.28-0.11-1.87-0.3l5.37-3.1l1.42,0.82C13.84,14.98,12.04,16,10,16z M10.5,9.71V6.82l5.5,3.18c0,0.91-0.21,1.77-0.58,2.55L10.5,9.71z"/></g></g>
    </svg>
  </g>
  <!-- Icon 5: 24px -->
  <g transform="translate(436, 92)">
    <rect width="48" height="48" fill="#ffffff" stroke="#e9ecef" stroke-width="1" rx="4"/>
    <svg x="8" y="8" width="32" height="32" viewBox="0 0 24 24">
      <g><rect fill="#2563eb" height="24" width="24"/></g><g><g opacity=".3"><g><path d="M18,14H6V3h5v1H9.5C9.22,4,9,4.22,9,4.5C9,4.78,9.22,5,9.5,5H11l0.1,1H9.5C9.22,6,9,6.22,9,6.5C9,6.78,9.22,7,9.5,7h1.81 c0.45,1.12,1.4,2.01,2.6,2.36l2.62,0.73C17.4,10.33,18,11.1,18,12V14z M5,21c-0.55,0-1-0.45-1-1c0-0.55,0.45-1,1-1s1,0.45,1,1 C6,20.55,5.55,21,5,21z M19,21c-0.55,0-1-0.45-1-1c0-0.55,0.45-1,1-1s1,0.45,1,1C20,20.55,19.55,21,19,21z M12,21 c-0.55,0-1-0.45-1-1c0-0.55,0.45-1,1-1s1,0.45,1,1C13,20.55,12.55,21,12,21z"/></g></g><g><g><path d="M20,12c0-1.79-1.19-3.34-2.91-3.82l-2.62-0.74C13.62,7.19,13,6.39,13,5.5V1H4v15h16V12z M18,14H6V3h5v1H9.5 C9.22,4,9,4.22,9,4.5C9,4.78,9.22,5,9.5,5H11l0.1,1H9.5C9.22,6,9,6.22,9,6.5C9,6.78,9.22,7,9.5,7h1.81 c0.45,1.12,1.4,2.01,2.6,2.36l2.62,0.73C17.4,10.33,18,11.1,18,12V14z M5,17c-1.66,0-3,1.34-3,3s1.34,3,3,3s3-1.34,3-3 S6.66,17,5,17z M5,21c-0.55,0-1-0.45-1-1c0-0.55,0.45-1,1-1s1,0.45,1,1C6,20.55,5.55,21,5,21z M19,17c-1.66,0-3,1.34-3,3 s1.34,3,3,3s3-1.34,3-3S20.66,17,19,17z M19,21c-0.55,0-1-0.45-1-1c0-0.55,0.45-1,1-1s1,0.45,1,1C20,20.55,19.55,21,19,21z M12,17c-1.66,0-3,1.34-3,3s1.34,3,3,3s3-1.34,3-3S13.66,17,12,17z M12,21c-0.55,0-1-0.45-1-1c0-0.55,0.45-1,1-1s1,0.45,1,1 C13,20.55,12.55,21,12,21z"/></g></g></g>
    </svg>
  </g>
  <!-- Icon 6: 20px -->
  <g transform="translate(496, 92)">
    <rect width="48" height="48" fill="#ffffff" stroke="#e9ecef" stroke-width="1" rx="4"/>
    <svg x="8" y="8" width="32" height="32" viewBox="0 0 20 20">
      <g><rect fill="#2563eb" height="20" width="20"/></g><g><g><polygon opacity=".3" points="10.44,12.4 8.21,11.28 4.94,12.31 3.5,11.59 3.5,13.41 5.06,14.19"/><polygon opacity=".3" points="7.21,10.02 6.2,8.5 3.5,8.5 3.5,9.91 5.06,10.69"/><polygon opacity=".3" points="12.5,4.07 12.5,2.17 10.28,1.62 8.5,2.8 8.5,4.2 10.11,5.27"/><polygon opacity=".3" points="4.94,15.81 3.5,15.09 3.5,16.5 14.8,16.5 12.21,13.39"/><polygon opacity=".3" points="14.5,8.25 14.5,9.38 15.3,10.17 17.5,9.07 17.5,8.17 15.33,7.63"/><path d="M9,10L7,7H2v11h16l-5-6L9,10z M3.5,8.5h2.7l1.02,1.52l-2.15,0.67L3.5,9.91V8.5z M3.5,11.59l1.44,0.72l3.28-1.02l2.23,1.11 l-5.38,1.79L3.5,13.41V11.59z M3.5,16.5v-1.41l1.44,0.72l7.26-2.42l2.59,3.11H3.5z"/><path d="M14,5V1l-4-1L7,2v3l3,2L14,5z M8.5,2.8l1.78-1.19l2.22,0.55v1.9l-2.39,1.2L8.5,4.2V2.8z"/><path d="M15,6l-2,1.5V10l2,2l4-2V7L15,6z M17.5,9.07l-2.2,1.1l-0.8-0.8V8.25l0.83-0.62l2.17,0.54V9.07z"/></g></g>
    </svg>
  </g>
  <!-- Icon 7: 24px -->
  <g transform="translate(556, 92)">
    <rect width="48" height="48" fill="#ffffff" stroke="#e9ecef" stroke-width="1" rx="4"/>
    <svg x="8" y="8" width="32" height="32" viewBox="0 0 24 24">
      <rect fill="#2563eb" height="24" width="24"/><path d="M13.5,5.5c1.1,0,2-0.9,2-2s-0.9-2-2-2s-2,0.9-2,2S12.4,5.5,13.5,5.5z M20,12.5V23h-1V12.5c0-0.28-0.22-0.5-0.5-0.5 S18,12.22,18,12.5v1h-1v-0.69c-1.46-0.38-2.7-1.29-3.51-2.52C13.18,11.16,13,12.07,13,13c0,0.23,0.02,0.46,0.03,0.69L15,16.5V23h-2 v-5l-1.78-2.54L11,19l-3,4l-1.6-1.2L9,18.33V13c0-1.15,0.18-2.29,0.5-3.39L8,10.46V14H6V9.3l5.4-3.07l0,0.01 c0.59-0.31,1.32-0.33,1.94,0.03c0.36,0.21,0.63,0.51,0.8,0.85l0,0l0.79,1.67C15.58,10.1,16.94,11,18.5,11C19.33,11,20,11.67,20,12.5 z"/>
    </svg>
  </g>
  <!-- Icon 8: 24px -->
  <g transform="translate(196, 152)">
    <rect width="48" height="48" fill="#ffffff" stroke="#e9ecef" stroke-width="1" rx="4"/>
    <svg x="8" y="8" width="32" height="32" viewBox="0 0 24 24">
      <g><rect fill="#2563eb" height="24" width="24"/></g><g><g><g opacity=".3"><path d="M7.1,7.01C5.74,8.32,5,10.1,5,12c0,3.86,3.14,7,7,7c1.87,0,3.63-0.73,4.95-2.05C18.27,15.63,19,13.87,19,12V5h-7 C10.16,5,8.42,5.71,7.1,7.01z M13.88,7.12c0.14,0.14,0.16,0.36,0.04,0.52l-2.44,3.33l4.05,0.4c0.44,0.04,0.63,0.59,0.3,0.89 l-5.16,4.63c-0.16,0.15-0.41,0.14-0.56-0.01c-0.14-0.14-0.16-0.36-0.04-0.52l2.44-3.33l-4.05-0.4c-0.44-0.04-0.63-0.59-0.3-0.89 l5.16-4.63C13.48,6.96,13.73,6.97,13.88,7.12z"/></g><path d="M12,3C12,3,12,3,12,3c-4.8,0-9,3.86-9,9c0,2.12,0.74,4.07,1.97,5.61L3,19.59L4.41,21l1.97-1.97C7.93,20.26,9.88,21,12,21 c2.3,0,4.61-0.88,6.36-2.64C20.12,16.61,21,14.3,21,12V3H12z M19,12c0,1.87-0.73,3.63-2.05,4.95C15.63,18.27,13.87,19,12,19 c-3.86,0-7-3.14-7-7c0-1.9,0.74-3.68,2.1-4.99C8.42,5.71,10.16,5,12,5h7V12z"/><path d="M8.46,12.63l4.05,0.4l-2.44,3.33c-0.11,0.16-0.1,0.38,0.04,0.52c0.15,0.15,0.4,0.16,0.56,0.01l5.16-4.63 c0.33-0.3,0.15-0.85-0.3-0.89l-4.05-0.4l2.44-3.33c0.11-0.16,0.1-0.38-0.04-0.52c-0.15-0.15-0.4-0.16-0.56-0.01l-5.16,4.63 C7.84,12.04,8.02,12.59,8.46,12.63z"/></g></g>
    </svg>
  </g>
  <!-- Icon 9: 24px -->
  <g transform="translate(256, 152)">
    <rect width="48" height="48" fill="#ffffff" stroke="#e9ecef" stroke-width="1" rx="4"/>
    <svg x="8" y="8" width="32" height="32" viewBox="0 0 24 24">
      <path d="M0 0h24v24H0z" fill="#2563eb"/><path d="M12 2C6.5 2 2 6.5 2 12s4.5 10 10 10 10-4.5 10-10S17.5 2 12 2zM4 12c0-4.4 3.6-8 8-8 1.8 0 3.5.6 4.9 1.7L5.7 16.9C4.6 15.5 4 13.8 4 12zm8 8c-1.8 0-3.5-.6-4.9-1.7L18.3 7.1C19.4 8.5 20 10.2 20 12c0 4.4-3.6 8-8 8z"/>
    </svg>
  </g>
  <!-- Icon 10: 24px -->
  <g transform="translate(316, 152)">
    <rect width="48" height="48" fill="#ffffff" stroke="#e9ecef" stroke-width="1" rx="4"/>
    <svg x="8" y="8" width="32" height="32" viewBox="0 0 24 24">
      <rect fill="#2563eb" height="24" width="24"/><path d="M14.12,17c-0.73,1.78-2.43,3-4.37,3c-1.94,0-3.67-1.23-4.43-3h8.78" opacity=".3"/><path d="M6.4,7C6.06,7.55,6,7.97,6,8.38C6,9.15,7,11,7,12c0,0.95-0.4,1.5-0.4,1.5H5.1c0,0,0.4-0.55,0.4-1.5c0-1-1-2.85-1-3.62 C4.5,7.97,4.56,7.55,4.9,7H6.4z M11.4,7C11.06,7.55,11,7.97,11,8.38C11,9.15,12,11,12,12c0,0.95-0.4,1.5-0.4,1.5h1.5 c0,0,0.4-0.55,0.4-1.5c0-1-1-2.85-1-3.62c0-0.41,0.06-0.83,0.4-1.38H11.4z M8.15,7c-0.34,0.55-0.4,0.97-0.4,1.38 c0,0.77,1,2.63,1,3.62c0,0.95-0.4,1.5-0.4,1.5h1.5c0,0,0.4-0.55,0.4-1.5c0-1-1-2.85-1-3.62c0-0.41,0.06-0.83,0.4-1.38H8.15z M18.6,2 c-1.54,0-2.81,1.16-2.98,2.65L14.53,15H4.01c-0.6,0-1.09,0.53-1,1.13C3.53,19.46,6.39,22,9.75,22c3.48,0,6.34-2.73,6.71-6.23 l1.15-10.87C17.66,4.39,18.08,4,18.6,4c0.55,0,1,0.45,1,1c0,0.3-0.1,1.25-0.1,1.25l1.97,0.25c0,0,0.13-1.06,0.13-1.5 C21.6,3.35,20.25,2,18.6,2z M9.75,20c-1.94,0-3.67-1.23-4.43-3h8.78h0.01C13.39,18.78,11.69,20,9.75,20z"/>
    </svg>
  </g>
  <!-- Icon 11: 20px -->
  <g transform="translate(376, 152)">
    <rect width="48" height="48" fill="#ffffff" stroke="#e9ecef" stroke-width="1" rx="4"/>
    <svg x="8" y="8" width="32" height="32" viewBox="0 0 20 20">
      <g><rect fill="#2563eb" height="20" width="20"/></g><g><path d="M12.25,7.5c0,0.83-0.67,1.5-1.5,1.5h-1.5c-0.83,0-1.5-0.67-1.5-1.5H3.5v9h13v-9H12.25z M9.25,13.25H7.5V15H6 v-1.75H4.25v-1.5H6V10h1.5v1.75h1.75V13.25z M14,14.5h-3.25v-1H14V14.5z M15.75,12h-5v-1h5V12z" opacity=".3"/><path d="M9.25,13.25H7.5V15H6v-1.75H4.25v-1.5H6V10h1.5v1.75h1.75V13.25z M14,14.5v-1h-3.25v1H14z M15.75,12v-1h-5v1H15.75z M18,7.5v9c0,0.83-0.67,1.5-1.5,1.5h-13C2.67,18,2,17.33,2,16.5v-9C2,6.67,2.67,6,3.5,6h4.25V3.5c0-0.83,0.67-1.5,1.5-1.5h1.5 c0.83,0,1.5,0.67,1.5,1.5V6h4.25C17.33,6,18,6.67,18,7.5z M9.25,7.5h1.5v-4h-1.5V7.5z M16.5,7.5h-4.25c0,0.83-0.67,1.5-1.5,1.5 h-1.5c-0.83,0-1.5-0.67-1.5-1.5H3.5v9h13V7.5z"/></g>
    </svg>
  </g>
  <!-- Icon 12: 24px -->
  <g transform="translate(436, 152)">
    <rect width="48" height="48" fill="#ffffff" stroke="#e9ecef" stroke-width="1" rx="4"/>
    <svg x="8" y="8" width="32" height="32" viewBox="0 0 24 24">
      <g><rect fill="#2563eb" height="24" width="24"/></g><g><g><g><path d="M3,13h0.17C3.58,11.84,4.7,11,6,11c0.35,0,0.69,0.06,1,0.17V10H3V13z" enable-background="new" opacity=".3"/><path d="M19,11h-3v2h1.17c0.3-0.85,0.98-1.53,1.83-1.83V11z" enable-background="new" opacity=".3"/><path d="M21,11.18V9.72c0-0.47-0.16-0.92-0.46-1.28L16.6,3.72C16.22,3.26,15.66,3,15.06,3H3C1.9,3,1,3.9,1,5v8c0,1.1,0.9,2,2,2 h0.18C3.6,16.16,4.7,17,6,17s2.4-0.84,2.82-2h8.37c0.41,1.16,1.51,2,2.82,2c1.66,0,3-1.34,3-3C23,12.7,22.16,11.6,21,11.18z M6,15c-0.55,0-1-0.45-1-1s0.45-1,1-1s1,0.45,1,1S6.55,15,6,15z M7,11.17C6.69,11.06,6.35,11,6,11c-1.3,0-2.42,0.84-2.83,2H3v-3 h4V11.17z M7,8H3V5h4V8z M14,13H9v-3h3V8H9V5h5V13z M16,6.12L18.4,9H16V6.12z M17.17,13H16v-2h3v0.17 C18.15,11.47,17.47,12.15,17.17,13z M20,15c-0.55,0-1-0.45-1-1s0.45-1,1-1s1,0.45,1,1S20.55,15,20,15z"/></g><polygon points="7,20 11,20 11,18 17,21 13,21 13,23"/></g></g>
    </svg>
  </g>
  <!-- Icon 13: 20px -->
  <g transform="translate(496, 152)">
    <rect width="48" height="48" fill="#ffffff" stroke="#e9ecef" stroke-width="1" rx="4"/>
    <svg x="8" y="8" width="32" height="32" viewBox="0 0 20 20">
      <g><rect fill="#2563eb" height="20" width="20"/><path d="M8.38,9.41l-0.71,0.71c-0.47-0.5-0.93-1.1-1.25-1.96L7.4,7.91C7.66,8.54,8,9.01,8.38,9.41z M9.5,6l-3-3l-3,3h2.53 c0.02,0.43,0.07,0.83,0.14,1.19l0.97-0.24C7.08,6.66,7.04,6.34,7.02,6H9.5z M16.5,6l-3-3l-3,3h2.48c-0.12,2.22-1.02,3.11-1.9,3.96 c-0.39,0.37-0.78,0.75-1.08,1.23c-0.26-0.41-0.58-0.75-0.91-1.07l-0.71,0.71C9.03,11.47,9.5,11.99,9.5,13v4h1v-4c0,0,0,0,0,0h0 c0-1.1,0.53-1.61,1.27-2.32c0.94-0.9,2.07-2.03,2.21-4.68H16.5z"/></g>
    </svg>
  </g>
  <!-- Icon 14: 24px -->
  <g transform="translate(556, 152)">
    <rect width="48" height="48" fill="#ffffff" stroke="#e9ecef" stroke-width="1" rx="4"/>
    <svg x="8" y="8" width="32" height="32" viewBox="0 0 24 24">
      <path d="M0 0h24v24H0V0z" fill="#2563eb"/><path d="M5 17c0 .55.45 1 1 1h1v-4H5v3zm12-3h2v4h-2z" opacity=".3"/><path d="M12 1c-4.97 0-9 4.03-9 9v7c0 1.66 1.34 3 3 3h3v-8H5v-2c0-3.87 3.13-7 7-7s7 3.13 7 7v2h-4v8h4v1h-7v2h6c1.66 0 3-1.34 3-3V10c0-4.97-4.03-9-9-9zM7 14v4H6c-.55 0-1-.45-1-1v-3h2zm12 4h-2v-4h2v4z"/>
    </svg>
  </g>
  <!-- Icon 15: 24px -->
  <g transform="translate(196, 212)">
    <rect width="48" height="48" fill="#ffffff" stroke="#e9ecef" stroke-width="1" rx="4"/>
    <svg x="8" y="8" width="32" height="32" viewBox="0 0 24 24">
      <path d="M0 0h24v24H0V0z" fill="#2563eb"/><path d="M20 6h-4.05l-1.83-2H9.88L8.05 6H4v12h16V6zm-8 11c-2.76 0-5-2.24-5-5s2.24-5 5-5 5 2.24 5 5-2.24 5-5 5z" opacity=".3"/><path d="M4 20h16c1.1 0 2-.9 2-2V6c0-1.1-.9-2-2-2h-3.17L15 2H9L7.17 4H4c-1.1 0-2 .9-2 2v12c0 1.1.9 2 2 2zM4 6h4.05l1.83-2h4.24l1.83 2H20v12H4V6zm8 1c-2.76 0-5 2.24-5 5s2.24 5 5 5 5-2.24 5-5-2.24-5-5-5zm0 8c-1.65 0-3-1.35-3-3s1.35-3 3-3 3 1.35 3 3-1.35 3-3 3z"/>
    </svg>
  </g>
  <!-- Icon 16: 24px -->
  <g transform="translate(256, 212)">
    <rect width="48" height="48" fill="#ffffff" stroke="#e9ecef" stroke-width="1" rx="4"/>
    <svg x="8" y="8" width="32" height="32" viewBox="0 0 24 24">
      <path d="M0 0h24v24H0V0z" fill="#2563eb"/><path d="M7 3h14v14H7z" opacity=".3"/><path d="M3 23h16v-2H3V5H1v16c0 1.1.9 2 2 2zM21 1H7c-1.1 0-2 .9-2 2v14c0 1.1.9 2 2 2h14c1.1 0 2-.9 2-2V3c0-1.1-.9-2-2-2zm0 16H7V3h14v14z"/>
    </svg>
  </g>
  <!-- Icon 17: 24px -->
  <g transform="translate(316, 212)">
    <rect width="48" height="48" fill="#ffffff" stroke="#e9ecef" stroke-width="1" rx="4"/>
    <svg x="8" y="8" width="32" height="32" viewBox="0 0 24 24">
      <path d="M0 0h24v24H0V0z" fill="#2563eb"/><path d="M10.9 19.91c.36.05.72.09 1.1.09 2.18 0 4.16-.88 5.61-2.3L14.89 13l-3.99 6.91zm-1.04-.21l2.71-4.7H4.59c.93 2.28 2.87 4.03 5.27 4.7zM8.54 12L5.7 7.09C4.64 8.45 4 10.15 4 12c0 .69.1 1.36.26 2h5.43l-1.15-2zm9.76 4.91C19.36 15.55 20 13.85 20 12c0-.69-.1-1.36-.26-2h-5.43l3.99 6.91zM13.73 9h5.68c-.93-2.28-2.88-4.04-5.28-4.7L11.42 9h2.31zm-3.46 0l2.83-4.92C12.74 4.03 12.37 4 12 4c-2.18 0-4.16.88-5.6 2.3L9.12 11l1.15-2z" opacity=".3"/><path d="M12 22c5.52 0 10-4.48 10-10 0-4.75-3.31-8.72-7.75-9.74l-.08-.04-.01.02C13.46 2.09 12.74 2 12 2 6.48 2 2 6.48 2 12s4.48 10 10 10zm0-2c-.38 0-.74-.04-1.1-.09L14.89 13l2.72 4.7C16.16 19.12 14.18 20 12 20zm8-8c0 1.85-.64 3.55-1.7 4.91l-4-6.91h5.43c.17.64.27 1.31.27 2zm-.59-3h-7.99l2.71-4.7c2.4.66 4.35 2.42 5.28 4.7zM12 4c.37 0 .74.03 1.1.08L10.27 9l-1.15 2L6.4 6.3C7.84 4.88 9.82 4 12 4zm-8 8c0-1.85.64-3.55 1.7-4.91L8.54 12l1.15 2H4.26C4.1 13.36 4 12.69 4 12zm6.27 3h2.3l-2.71 4.7c-2.4-.67-4.35-2.42-5.28-4.7h5.69z"/>
    </svg>
  </g>
  <!-- Icon 18: 20px -->
  <g transform="translate(376, 212)">
    <rect width="48" height="48" fill="#ffffff" stroke="#e9ecef" stroke-width="1" rx="4"/>
    <svg x="8" y="8" width="32" height="32" viewBox="0 0 20 20">
      <g><rect fill="#2563eb" height="20" width="20"/></g><g><path d="M9.38,7.5l-2-2H3.5v9h13v-7H9.38z M15.5,10H15v2.5c0,0.55-0.45,1-1,1h-1.5c-0.55,0-1-0.45-1-1V10H11V9h1.5 V8.5H14V9h1.5V10z M14,12.5h-1.5V10H14V12.5z" opacity=".3"/><path d="M7.38,5.5l2,2h7.12v7h-13v-9H7.38z M3.5,4C2.67,4,2,4.67,2,5.5v9C2,15.33,2.67,16,3.5,16h13c0.83,0,1.5-0.67,1.5-1.5v-7 C18,6.67,17.33,6,16.5,6H10L8,4H3.5z M14,9V8.5h-1.5V9H11v1h0.5v2.5c0,0.55,0.45,1,1,1H14c0.55,0,1-0.45,1-1V10h0.5V9H14z M14,12.5 h-1.5V10H14V12.5z"/></g>
    </svg>
  </g>
  <!-- Icon 19: 24px -->
  <g transform="translate(436, 212)">
    <rect width="48" height="48" fill="#ffffff" stroke="#e9ecef" stroke-width="1" rx="4"/>
    <svg x="8" y="8" width="32" height="32" viewBox="0 0 24 24">
      <path d="M0 0h24v24H0V0z" fill="#2563eb"/><path d="M4 12c0 4.07 3.06 7.44 7 7.93V4.07C7.06 4.56 4 7.93 4 12zm9 7.93c3.61-.45 6.48-3.32 6.93-6.93H13v6.93zm0-15.86V11h6.93c-.45-3.61-3.32-6.48-6.93-6.93z" opacity=".3"/><path d="M12 2C6.48 2 2 6.48 2 12s4.48 10 10 10 10-4.48 10-10S17.52 2 12 2zm-1 17.93c-3.94-.49-7-3.86-7-7.93s3.06-7.44 7-7.93v15.86zm2 0V13h6.93c-.45 3.61-3.32 6.48-6.93 6.93zM13 11V4.07c3.61.45 6.48 3.32 6.93 6.93H13z"/>
    </svg>
  </g>
  <!-- Icon 20: 24px -->
  <g transform="translate(496, 212)">
    <rect width="48" height="48" fill="#ffffff" stroke="#e9ecef" stroke-width="1" rx="4"/>
    <svg x="8" y="8" width="32" height="32" viewBox="0 0 24 24">
      <path d="M0 0h24v24H0V0z" fill="#2563eb"/><path d="M16.5 12c1.93 0 3.5-1.57 3.5-3.5S18.43 5 16.5 5 13 6.57 13 8.5s1.57 3.5 3.5 3.5z" opacity=".3"/><circle cx="15.01" cy="18" opacity=".3" r="1"/><circle cx="7" cy="14" opacity=".3" r="2"/><path d="M7 18c2.21 0 4-1.79 4-4s-1.79-4-4-4-4 1.79-4 4 1.79 4 4 4zm0-6c1.1 0 2 .9 2 2s-.9 2-2 2-2-.9-2-2 .9-2 2-2zm11.01 6c0-1.65-1.35-3-3-3s-3 1.35-3 3 1.35 3 3 3 3-1.35 3-3zm-4 0c0-.55.45-1 1-1s1 .45 1 1-.45 1-1 1-1-.45-1-1zm2.49-4c3.03 0 5.5-2.47 5.5-5.5S19.53 3 16.5 3 11 5.47 11 8.5s2.47 5.5 5.5 5.5zm0-9C18.43 5 20 6.57 20 8.5S18.43 12 16.5 12 13 10.43 13 8.5 14.57 5 16.5 5z"/>
    </svg>
  </g>
  <!-- Icon 21: 24px -->
  <g transform="translate(556, 212)">
    <rect width="48" height="48" fill="#ffffff" stroke="#e9ecef" stroke-width="1" rx="4"/>
    <svg x="8" y="8" width="32" height="32" viewBox="0 0 24 24">
      <path d="M0 0h24v24H0V0z" fill="#2563eb"/><path d="M12.01 18c-1.48 0-2.75-.81-3.45-2H5v3h14v-3h-3.55c-.69 1.19-1.97 2-3.44 2z" opacity=".3"/><path d="M19 3H5c-1.1 0-2 .9-2 2v14c0 1.1.89 2 2 2h14c1.1 0 2-.9 2-2V5c0-1.1-.9-2-2-2zm0 16H5v-3h3.56c.69 1.19 1.97 2 3.45 2s2.75-.81 3.45-2H19v3zm0-5h-5c0 1.1-.9 2-2 2s-2-.9-2-2H5V5h14v9z"/>
    </svg>
  </g>
  <!-- Icon 22: 24px -->
  <g transform="translate(196, 272)">
    <rect width="48" height="48" fill="#ffffff" stroke="#e9ecef" stroke-width="1" rx="4"/>
    <svg x="8" y="8" width="32" height="32" viewBox="0 0 24 24">
      <path d="M0 0h24v24H0V0z" fill="#2563eb"/><path d="M4 20h16v-8H4v8zm6-7.27L16 16l-6 3.26v-6.53z" opacity=".3"/><path d="M4 6h16v2H4zm2-4h12v2H6zm14 8H4c-1.1 0-2 .9-2 2v8c0 1.1.9 2 2 2h16c1.1 0 2-.9 2-2v-8c0-1.1-.9-2-2-2zm0 10H4v-8h16v8zm-10-7.27v6.53L16 16z"/>
    </svg>
  </g>
  <!-- Icon 23: 24px -->
  <g transform="translate(256, 272)">
    <rect width="48" height="48" fill="#ffffff" stroke="#e9ecef" stroke-width="1" rx="4"/>
    <svg x="8" y="8" width="32" height="32" viewBox="0 0 24 24">
      <path d="M0 0h24v24H0V0z" fill="#2563eb"/><path d="M9.12 14.47V9.53H8.09v2.88L6.03 9.53H5v4.94h1.03v-2.88l2.1 2.88zm4.12-3.9V9.53h-3.3v4.94h3.3v-1.03h-2.06v-.91h2.06v-1.04h-2.06v-.92zm.82-1.04v4.12c0 .45.37.82.82.82h3.29c.45 0 .82-.37.82-.82V9.53h-1.03v3.71h-.92v-2.89h-1.03v2.9h-.93V9.53h-1.02z"/><path d="M4 6h16v12H4z" opacity=".3"/><path d="M20 4H4c-1.11 0-1.99.89-1.99 2L2 18c0 1.11.89 2 2 2h16c1.11 0 2-.89 2-2V6c0-1.11-.89-2-2-2zm0 14H4V6h16v12z"/>
    </svg>
  </g>
  <!-- Icon 24: 20px -->
  <g transform="translate(316, 272)">
    <rect width="48" height="48" fill="#ffffff" stroke="#e9ecef" stroke-width="1" rx="4"/>
    <svg x="8" y="8" width="32" height="32" viewBox="0 0 20 20">
      <g><rect fill="#2563eb" height="20" width="20"/></g><g><g><path d="M17,4.86L10,10L6.5,6.5L3,9V7.16l3.66-2.62l3.49,3.49L17,3L17,4.86z M17,12.5h-3.5l-3.36,2.52L5.5,10.3L3,12.14L3,14 l2.3-1.69L10,17l4-3h3V12.5z"/></g></g>
    </svg>
  </g>
  <!-- Icon 25: 20px -->
  <g transform="translate(376, 272)">
    <rect width="48" height="48" fill="#ffffff" stroke="#e9ecef" stroke-width="1" rx="4"/>
    <svg x="8" y="8" width="32" height="32" viewBox="0 0 20 20">
      <g><rect fill="#2563eb" height="20" width="20"/></g><g><g><rect height="2.5" opacity=".3" width="7" x="6.5" y="2.5"/><path d="M4.5,16.5h11v-10h-11V16.5z M10,7.5c2.21,0,4,1.79,4,4c0,2.21-1.79,4-4,4s-4-1.79-4-4 C6,9.29,7.79,7.5,10,7.5z" opacity=".3"/><path d="M15.5,5H15V1H5v4H4.5C3.67,5,3,5.67,3,6.5v10C3,17.33,3.67,18,4.5,18h11c0.83,0,1.5-0.67,1.5-1.5v-10 C17,5.67,16.33,5,15.5,5z M6.5,2.5h7V5h-7V2.5z M15.5,16.5h-11v-10h11V16.5z"/><path d="M10,15.5c2.21,0,4-1.79,4-4c0-2.21-1.79-4-4-4s-4,1.79-4,4C6,13.71,7.79,15.5,10,15.5z M10,8.5c1.65,0,3,1.35,3,3 c0,1.65-1.35,3-3,3c-1.65,0-3-1.35-3-3C7,9.85,8.35,8.5,10,8.5z"/><polygon points="11.85,12.65 10.5,11.29 10.5,9.5 9.5,9.5 9.5,11.71 11.15,13.35"/></g></g>
    </svg>
  </g>
  <!-- Icon 26: 24px -->
  <g transform="translate(436, 272)">
    <rect width="48" height="48" fill="#ffffff" stroke="#e9ecef" stroke-width="1" rx="4"/>
    <svg x="8" y="8" width="32" height="32" viewBox="0 0 24 24">
      <path d="M0 0h24v24H0V0z" fill="#2563eb"/><path d="M7 5h10v2h2V3c0-1.1-.9-1.99-2-1.99L7 1c-1.1 0-2 .9-2 2v4h2V5zm8.41 11.59L20 12l-4.59-4.59L14 8.83 17.17 12 14 15.17l1.41 1.42zM10 15.17L6.83 12 10 8.83 8.59 7.41 4 12l4.59 4.59L10 15.17zM17 19H7v-2H5v4c0 1.1.9 2 2 2h10c1.1 0 2-.9 2-2v-4h-2v2z"/>
    </svg>
  </g>
  <!-- Icon 27: 24px -->
  <g transform="translate(496, 272)">
    <rect width="48" height="48" fill="#ffffff" stroke="#e9ecef" stroke-width="1" rx="4"/>
    <svg x="8" y="8" width="32" height="32" viewBox="0 0 24 24">
      <path d="M0 0h24v24H0V0z" fill="#2563eb"/><path d="M18.99 5H5l7 3.5zm.01 8.05V7l-7 3.5L5 7v8h10.35c.56-1.18 1.76-2 3.15-2 .17 0 .34.03.5.05z" opacity=".3"/><path d="M20.99 14.04V5c0-1.1-.9-2-2-2H5c-1.1 0-2 .9-2 2v10c0 1.1.9 2 2 2h10.05c.28 1.92 2.1 3.35 4.18 2.93 1.34-.27 2.43-1.37 2.7-2.71.25-1.24-.16-2.39-.94-3.18zm-2-9.04L12 8.5 5 5h13.99zm-3.64 10H5V7l7 3.5L19 7v6.05c-.16-.02-.33-.05-.5-.05-1.39 0-2.59.82-3.15 2zm5.15 2h-4v-1h4v1z"/>
    </svg>
  </g>
  <!-- Icon 28: 24px -->
  <g transform="translate(556, 272)">
    <rect width="48" height="48" fill="#ffffff" stroke="#e9ecef" stroke-width="1" rx="4"/>
    <svg x="8" y="8" width="32" height="32" viewBox="0 0 24 24">
      <rect fill="#2563eb" height="24" width="24"/><path d="M3,10.5c-0.55,0-1-0.45-1-1c0-0.55,0.45-1,1-1s1,0.45,1,1C4,10.05,3.55,10.5,3,10.5z M6,21 c-0.55,0-1-0.45-1-1c0-0.55,0.45-1,1-1s1,0.45,1,1C7,20.55,6.55,21,6,21z M11,3c0-0.55,0.45-1,1-1s1,0.45,1,1c0,0.55-0.45,1-1,1 S11,3.55,11,3z M12,15c-1.38,0-2.5-1.12-2.5-2.5c0-1.38,1.12-2.5,2.5-2.5s2.5,1.12,2.5,2.5C14.5,13.88,13.38,15,12,15z M18,19 c0.55,0,1,0.45,1,1c0,0.55-0.45,1-1,1s-1-0.45-1-1C17,19.45,17.45,19,18,19z M21,10.5c-0.55,0-1-0.45-1-1c0-0.55,0.45-1,1-1 s1,0.45,1,1C22,10.05,21.55,10.5,21,10.5z" opacity=".3"/><path d="M21,6.5c-1.66,0-3,1.34-3,3c0,0.07,0,0.14,0.01,0.21l-2.03,0.68c-0.64-1.21-1.82-2.09-3.22-2.32V5.91 C14.04,5.57,15,4.4,15,3c0-1.66-1.34-3-3-3S9,1.34,9,3c0,1.4,0.96,2.57,2.25,2.91v2.16c-1.4,0.23-2.58,1.11-3.22,2.32L5.99,9.71 C6,9.64,6,9.57,6,9.5c0-1.66-1.34-3-3-3s-3,1.34-3,3s1.34,3,3,3c1.06,0,1.98-0.55,2.52-1.37l2.03,0.68 c-0.2,1.29,0.17,2.66,1.09,3.69l-1.41,1.77C6.85,17.09,6.44,17,6,17c-1.66,0-3,1.34-3,3s1.34,3,3,3s3-1.34,3-3 c0-0.68-0.22-1.3-0.6-1.8l1.41-1.77c1.36,0.76,3.02,0.75,4.37,0l1.41,1.77C15.22,18.7,15,19.32,15,20c0,1.66,1.34,3,3,3s3-1.34,3-3 s-1.34-3-3-3c-0.44,0-0.85,0.09-1.23,0.26l-1.41-1.77c0.93-1.04,1.29-2.4,1.09-3.69l2.03-0.68c0.53,0.82,1.46,1.37,2.52,1.37 c1.66,0,3-1.34,3-3S22.66,6.5,21,6.5z M3,10.5c-0.55,0-1-0.45-1-1c0-0.55,0.45-1,1-1s1,0.45,1,1C4,10.05,3.55,10.5,3,10.5z M6,21 c-0.55,0-1-0.45-1-1c0-0.55,0.45-1,1-1s1,0.45,1,1C7,20.55,6.55,21,6,21z M11,3c0-0.55,0.45-1,1-1s1,0.45,1,1c0,0.55-0.45,1-1,1 S11,3.55,11,3z M12,15c-1.38,0-2.5-1.12-2.5-2.5c0-1.38,1.12-2.5,2.5-2.5s2.5,1.12,2.5,2.5C14.5,13.88,13.38,15,12,15z M18,19 c0.55,0,1,0.45,1,1c0,0.55-0.45,1-1,1s-1-0.45-1-1C17,19.45,17.45,19,18,19z M21,10.5c-0.55,0-1-0.45-1-1c0-0.55,0.45-1,1-1 s1,0.45,1,1C22,10.05,21.55,10.5,21,10.5z"/>
    </svg>
  </g>
  <!-- Icon 29: 24px -->
  <g transform="translate(196, 332)">
    <rect width="48" height="48" fill="#ffffff" stroke="#e9ecef" stroke-width="1" rx="4"/>
    <svg x="8" y="8" width="32" height="32" viewBox="0 0 24 24">
      <path d="M0 0h24v24H0V0z" fill="#2563eb"/><path d="M4 15h16v-2H4v2zm0 4h16v-2H4v2zm0-8h16V9H4v2zm0-6v2h16V5H4z"/>
    </svg>
  </g>
  <!-- Icon 30: 20px -->
  <g transform="translate(256, 332)">
    <rect width="48" height="48" fill="#ffffff" stroke="#e9ecef" stroke-width="1" rx="4"/>
    <svg x="8" y="8" width="32" height="32" viewBox="0 0 20 20">
      <g><rect fill="#2563eb" height="20" width="20"/></g><g><path d="M18.35,14.09l-4.81,2.13l-4.62-1.78L9.1,14l3.09-0.54L9.18,6.68c-0.11-0.25,0-0.55,0.25-0.66 c0.25-0.11,0.55,0,0.66,0.25l1.82,4.11l1.96-0.87l2.84,0.05c0.22,0.01,0.4,0.16,0.46,0.36L18.35,14.09z" opacity=".3"/><path d="M4,5.5c0,2.03,0.75,3.88,2,5.29L5.29,11.5C3.87,9.91,3,7.81,3,5.5c0-0.93,0.14-1.82,0.4-2.66L1.71,4.53L1,3.83L3.83,1 l2.83,2.83L5.94,4.53L4.4,2.99C4.14,3.78,4,4.62,4,5.5z M16.79,8.07L13.6,8l-0.91,0.41l-1.22-2.74C11.02,4.65,9.84,4.2,8.83,4.64 C7.82,5.09,7.36,6.27,7.81,7.28l2.23,5.03l-1.19,0.21C8.39,12.6,7.91,12.9,7.7,13.46L6.99,15.3L13,17.63 c0.37,0.14,0.78,0.13,1.15-0.03l4.81-2.13c0.68-0.3,1.04-1.06,0.84-1.78l-1.18-4.17C18.39,8.69,17.65,8.11,16.79,8.07z M18.35,14.09l-4.81,2.13l-4.62-1.78L9.1,14l3.09-0.54L9.18,6.68c-0.11-0.25,0-0.55,0.25-0.66c0.25-0.11,0.55,0,0.66,0.25 l1.82,4.11l1.96-0.87l2.84,0.05c0.22,0.01,0.4,0.16,0.46,0.36L18.35,14.09z"/></g>
    </svg>
  </g>
  <!-- Icon 31: 24px -->
  <g transform="translate(316, 332)">
    <rect width="48" height="48" fill="#ffffff" stroke="#e9ecef" stroke-width="1" rx="4"/>
    <svg x="8" y="8" width="32" height="32" viewBox="0 0 24 24">
      <g><rect fill="#2563eb" height="24" width="24"/></g><g><path d="M5,10.5l6,1.5l-6,1.5v3.49l5.39-2.27c0.6-1.73,1.86-3.16,3.48-3.97L5,7.01V10.5 z" enable-background="new" opacity=".3"/><g><path d="M11,12l-6-1.5V7.01l8.87,3.74c0.94-0.47,2-0.75,3.13-0.75c0.1,0,0.19,0.01,0.28,0.01L3,4v16l7-2.95c0-0.02,0-0.03,0-0.05 c0-0.8,0.14-1.56,0.39-2.28L5,16.99V13.5L11,12z"/><path d="M17,12c-2.76,0-5,2.24-5,5s2.24,5,5,5c2.76,0,5-2.24,5-5S19.76,12,17,12z M18.65,19.35l-2.15-2.15V14h1v2.79l1.85,1.85 L18.65,19.35z"/></g></g>
    </svg>
  </g>
  <!-- Icon 32: 24px -->
  <g transform="translate(376, 332)">
    <rect width="48" height="48" fill="#ffffff" stroke="#e9ecef" stroke-width="1" rx="4"/>
    <svg x="8" y="8" width="32" height="32" viewBox="0 0 24 24">
      <g><rect fill="#2563eb" height="24" width="24"/></g><g><g><path d="M12,18c-1.63,0-3.06-0.79-3.98-2H5v3h14v-3h-3.02C15.06,17.21,13.63,18,12,18z" enable-background="new" opacity=".3"/><polygon points="11,14 13,14 13,11 16,11 12,7 8,11 11,11"/><path d="M19,3H5C3.9,3,3,3.9,3,5v14c0,1.1,0.9,2,2,2h14c1.1,0,2-0.9,2-2V5C21,3.9,20.1,3,19,3z M19,19H5v-3h3.02 c0.91,1.21,2.35,2,3.98,2s3.06-0.79,3.98-2H19V19z M19,14h-4.18c-0.41,1.16-1.51,2-2.82,2s-2.4-0.84-2.82-2H5V5h14V14z"/></g></g>
    </svg>
  </g>
  <!-- Icon 33: 20px -->
  <g transform="translate(436, 332)">
    <rect width="48" height="48" fill="#ffffff" stroke="#e9ecef" stroke-width="1" rx="4"/>
    <svg x="8" y="8" width="32" height="32" viewBox="0 0 20 20">
      <g><rect fill="#2563eb" height="20" width="20"/></g><g><g><path d="M10,14.24c1.73-1.43,2-3.32,2-4.24c0-0.91-0.27-2.81-2-4.24C8.27,7.19,8,9.09,8,10C8,10.92,8.27,12.81,10,14.24z"/><path d="M10.85,14.81c0.79,0.43,1.69,0.69,2.65,0.69c3.04,0,5.5-2.46,5.5-5.5c0-3.04-2.46-5.5-5.5-5.5 c-0.96,0-1.86,0.25-2.65,0.69C12.77,6.92,13,9.11,13,10C13,10.89,12.77,13.08,10.85,14.81z"/><path d="M6.5,15.5c0.96,0,1.86-0.25,2.65-0.69c-0.42-0.38-0.77-0.77-1.04-1.18C7.62,13.86,7.08,14,6.5,14c-2.21,0-4-1.79-4-4 s1.79-4,4-4c0.58,0,1.12,0.14,1.61,0.36c0.27-0.4,0.62-0.8,1.04-1.18C8.36,4.75,7.46,4.5,6.5,4.5C3.46,4.5,1,6.96,1,10 C1,13.04,3.46,15.5,6.5,15.5z"/></g></g>
    </svg>
  </g>
  <!-- Icon 34: 24px -->
  <g transform="translate(496, 332)">
    <rect width="48" height="48" fill="#ffffff" stroke="#e9ecef" stroke-width="1" rx="4"/>
    <svg x="8" y="8" width="32" height="32" viewBox="0 0 24 24">
      <g><path d="M0,0h24v24H0V0z" fill="#2563eb"/></g><g><path d="M4,20h16v2H4V20z M4,2h16v2H4V2z M13,9h3l-4-4L8,9h3v6H8l4,4l4-4h-3V9z"/></g>
    </svg>
  </g>
  <!-- Icon 35: 24px -->
  <g transform="translate(556, 332)">
    <rect width="48" height="48" fill="#ffffff" stroke="#e9ecef" stroke-width="1" rx="4"/>
    <svg x="8" y="8" width="32" height="32" viewBox="0 0 24 24">
      <g><path d="M0,0h24v24H0V0z" fill="#2563eb"/></g><g><g><rect height="12" opacity=".3" width="2.5" x="8.5" y="6"/><rect height="12" opacity=".3" width="2.5" x="13" y="6"/><rect height="12" opacity=".3" width="2.5" x="4" y="6"/><rect height="12" opacity=".3" width="2.5" x="17.5" y="6"/><path d="M20,4H4C2.9,4,2,4.9,2,6v12c0,1.1,0.9,2,2,2h16c1.1,0,2-0.9,2-2V6C22,4.9,21.1,4,20,4z M6.5,18H4V6h2.5V18z M11,18H8.5V6 H11V18z M15.5,18H13V6h2.5V18z M20,18h-2.5V6H20V18z"/></g></g>
    </svg>
  </g>
  
  <!-- Footer -->
  <text x="400" y="580" text-anchor="middle" font-family="system-ui, -apple-system, sans-serif" font-size="12" fill="#6c757d">
    Showing 35 of 2851 icons
  </text>
  
</svg>