<svg width="448" height="368" xmlns="http://www.w3.org/2000/svg">
  <!-- Background -->
  <rect width="448" height="368" fill="#1a1a1a"/>
  
  <!-- Icon Grid -->
  <!-- Icon 1: 24px -->
  <g transform="translate(20, 20)">
    <rect width="48" height="48" fill="#1a1a1a" stroke="#333333" stroke-width="1" rx="4"/>
    <svg x="8" y="8" width="32" height="32" viewBox="0 0 24 24" style="fill: #ffffff; stroke: none;">
      <path d="M0 0h24v24H0z" fill="none"/><path d="M17 6H7c-3.31 0-6 2.69-6 6s2.69 6 6 6h10c3.31 0 6-2.69 6-6s-2.69-6-6-6zm0 10H7c-2.21 0-4-1.79-4-4s1.79-4 4-4h10c2.21 0 4 1.79 4 4s-1.79 4-4 4zm0-7c-1.66 0-3 1.34-3 3s1.34 3 3 3 3-1.34 3-3-1.34-3-3-3z"/>
    </svg>
  </g>
  <!-- Icon 2: 24px -->
  <g transform="translate(80, 20)">
    <rect width="48" height="48" fill="#1a1a1a" stroke="#333333" stroke-width="1" rx="4"/>
    <svg x="8" y="8" width="32" height="32" viewBox="0 0 24 24" style="fill: #ffffff; stroke: none;">
      <g><rect fill="none" height="24" width="24"/><path d="M17,6v8.17l2,2V3c0-1.1-0.9-1.99-2-1.99L7,1C6.15,1,5.42,1.55,5.13,2.3L8.83,6H17z M7,3h10v1H7V3z M21.19,21.19L19,19l-2-2 L7,7L5,5L2.81,2.81L1.39,4.22L5,7.83V21c0,1.1,0.9,2,2,2h10c0.85,0,1.58-0.55,1.87-1.3l0.91,0.91L21.19,21.19z M17,21H7v-1h10V21z M7,18V9.83L15.17,18H7z"/></g>
    </svg>
  </g>
  <!-- Icon 3: 24px -->
  <g transform="translate(140, 20)">
    <rect width="48" height="48" fill="#1a1a1a" stroke="#333333" stroke-width="1" rx="4"/>
    <svg x="8" y="8" width="32" height="32" viewBox="0 0 24 24" style="fill: #ffffff; stroke: none;">
      <g><path d="M0,0h24v24H0V0z" fill="none"/></g><g><g><path d="M6,5H4v16c0,1.1,0.9,2,2,2h10v-2H6V5z"/><path d="M18,1h-8C8.9,1,8,1.9,8,3v14c0,1.1,0.9,2,2,2h8c1.1,0,2-0.9,2-2V3C20,1.9,19.1,1,18,1z M18,17h-8v-1h8V17z M18,14h-8V6h8 V14z M18,4h-8V3h8V4z"/><path d="M12.5,10.25h1.63l-0.69,0.69L14.5,12L17,9.5L14.5,7l-1.06,1.06l0.69,0.69H12c-0.55,0-1,0.45-1,1V12h1.5V10.25z"/></g></g>
    </svg>
  </g>
  <!-- Icon 4: 24px -->
  <g transform="translate(200, 20)">
    <rect width="48" height="48" fill="#1a1a1a" stroke="#333333" stroke-width="1" rx="4"/>
    <svg x="8" y="8" width="32" height="32" viewBox="0 0 24 24" style="fill: #ffffff; stroke: none;">
      <path d="M0 0h24v24H0V0z" fill="none" opacity=".87"/><path d="M21 8h-6.31l.95-4.57.03-.32c0-.41-.17-.79-.44-1.06L14.17 1 7.59 7.59C7.22 7.95 7 8.45 7 9v10c0 1.1.9 2 2 2h9c.83 0 1.54-.5 1.84-1.22l3.02-7.05c.09-.23.14-.47.14-.73v-2c0-1.1-.9-2-2-2zm0 4l-3 7H9V9l4.34-4.34L12.23 10H21v2zM1 9h4v12H1z"/>
    </svg>
  </g>
  <!-- Icon 5: 24px -->
  <g transform="translate(260, 20)">
    <rect width="48" height="48" fill="#1a1a1a" stroke="#333333" stroke-width="1" rx="4"/>
    <svg x="8" y="8" width="32" height="32" viewBox="0 0 24 24" style="fill: #ffffff; stroke: none;">
      <rect fill="none" height="24" width="24"/><path d="M16,4c0-1.1,0.9-2,2-2s2,0.9,2,2s-0.9,2-2,2S16,5.1,16,4z M20.78,7.58C19.93,7.21,18.99,7,18,7c-0.67,0-1.31,0.1-1.92,0.28 C16.66,7.83,17,8.6,17,9.43V10h5V9.43C22,8.62,21.52,7.9,20.78,7.58z M6,6c1.1,0,2-0.9,2-2S7.1,2,6,2S4,2.9,4,4S4.9,6,6,6z M7.92,7.28C7.31,7.1,6.67,7,6,7C5.01,7,4.07,7.21,3.22,7.58C2.48,7.9,2,8.62,2,9.43V10h5V9.43C7,8.6,7.34,7.83,7.92,7.28z M10,4 c0-1.1,0.9-2,2-2s2,0.9,2,2s-0.9,2-2,2S10,5.1,10,4z M16,10H8V9.43C8,8.62,8.48,7.9,9.22,7.58C10.07,7.21,11.01,7,12,7 c0.99,0,1.93,0.21,2.78,0.58C15.52,7.9,16,8.62,16,9.43V10z M15,16c0-1.1,0.9-2,2-2s2,0.9,2,2s-0.9,2-2,2S15,17.1,15,16z M21,22h-8 v-0.57c0-0.81,0.48-1.53,1.22-1.85C15.07,19.21,16.01,19,17,19c0.99,0,1.93,0.21,2.78,0.58C20.52,19.9,21,20.62,21,21.43V22z M5,16 c0-1.1,0.9-2,2-2s2,0.9,2,2s-0.9,2-2,2S5,17.1,5,16z M11,22H3v-0.57c0-0.81,0.48-1.53,1.22-1.85C5.07,19.21,6.01,19,7,19 c0.99,0,1.93,0.21,2.78,0.58C10.52,19.9,11,20.62,11,21.43V22z M12.75,13v-2h-1.5v2H9l3,3l3-3H12.75z"/>
    </svg>
  </g>
  <!-- Icon 6: 24px -->
  <g transform="translate(320, 20)">
    <rect width="48" height="48" fill="#1a1a1a" stroke="#333333" stroke-width="1" rx="4"/>
    <svg x="8" y="8" width="32" height="32" viewBox="0 0 24 24" style="fill: #ffffff; stroke: none;">
      <g><rect fill="none" height="24" width="24"/></g><g><g><path d="M11,12L8,8H2v14h20l-6-8L11,12z M12.53,14.77L6,16.95l-2-0.67v-1.89l2,0.67l3.95-1.32L12.53,14.77z M7,10l1.57,2.09 L6,12.95l-2-0.67V10H7z M4,20v-1.61l2,0.67l9.03-3.01L18,20H4z"/><path d="M17,6V1l-5-1L9,2v4l3,2L17,6z M11,3.07l1.42-0.95L15,2.64v2.01l-2.77,1.11L11,4.93V3.07z"/><path d="M18.5,7L16,9v3l2.5,2l4.5-2V8L18.5,7z M21,10.7l-2.2,0.98L18,11.04V9.96l1-0.8l2,0.44V10.7z"/></g></g>
    </svg>
  </g>
  <!-- Icon 7: 24px -->
  <g transform="translate(380, 20)">
    <rect width="48" height="48" fill="#1a1a1a" stroke="#333333" stroke-width="1" rx="4"/>
    <svg x="8" y="8" width="32" height="32" viewBox="0 0 24 24" style="fill: #ffffff; stroke: none;">
      <g><rect fill="none" height="24" width="24"/></g><g><g><path d="M21.97,13.52c0-0.01,0-0.02,0-0.04C23.21,12.38,24,10.78,24,9c0-3.31-2.69-6-6-6c-0.26,0-0.52,0.02-0.78,0.06 C16.19,1.23,14.24,0,12,0S7.81,1.23,6.78,3.06C6.52,3.02,6.26,3,6,3C2.69,3,0,5.69,0,9c0,1.78,0.79,3.38,2.02,4.48 c0,0.01,0,0.02,0,0.04C0.79,14.62,0,16.22,0,18c0,3.31,2.69,6,6,6c1.39,0,2.67-0.48,3.69-1.28C10.43,22.9,11.2,23,12,23 s1.57-0.1,2.31-0.28C15.33,23.52,16.61,24,18,24c3.31,0,6-2.69,6-6C24,16.22,23.21,14.62,21.97,13.52z M22,9 c0,0.55-0.12,1.07-0.32,1.54c-0.57-2.25-1.9-4.19-3.7-5.54c0.01,0,0.01,0,0.02,0C20.21,5,22,6.79,22,9z M12.03,5 c2.73,0.01,5.13,1.39,6.57,3.48c-0.71,0.57-1.6,0.89-2.53,0.89C13.82,9.38,12,7.55,12,5.31C12,5.21,12.02,5.11,12.03,5z M12,2 c1.25,0,2.36,0.59,3.1,1.5C14.12,3.18,13.08,3,12,3S9.88,3.18,8.9,3.5C9.64,2.59,10.75,2,12,2z M6,5c0.01,0,0.01,0,0.02,0 c-1.8,1.35-3.13,3.29-3.7,5.54C2.12,10.07,2,9.55,2,9C2,6.79,3.79,5,6,5z M6,22c-2.21,0-4-1.79-4-4c0-0.69,0.19-1.32,0.5-1.88 c0.8,2.44,2.52,4.47,4.74,5.68C6.85,21.93,6.44,22,6,22z M4,13c0-3.72,2.56-6.85,6-7.74c0,0.02,0,0.03,0,0.05 c0,3.34,2.72,6.06,6.06,6.06c1.26,0,2.45-0.39,3.45-1.09C19.82,11.14,20,12.05,20,13c0,4.41-3.59,8-8,8S4,17.41,4,13z M18,22 c-0.44,0-0.85-0.07-1.25-0.2c2.23-1.21,3.94-3.24,4.74-5.68c0.31,0.56,0.5,1.2,0.5,1.88C22,20.21,20.21,22,18,22z"/><circle cx="9" cy="14" r="1.25"/><circle cx="15" cy="14" r="1.25"/></g></g>
    </svg>
  </g>
  <!-- Icon 8: 20px -->
  <g transform="translate(20, 80)">
    <rect width="48" height="48" fill="#1a1a1a" stroke="#333333" stroke-width="1" rx="4"/>
    <svg x="8" y="8" width="32" height="32" viewBox="0 0 20 20" style="fill: #ffffff; stroke: none;">
      <g><rect fill="none" height="20" width="20" x="0"/></g><g><g><path d="M14.8,7c-0.83,0-1.29,0.22-3.01,0.91c-0.14-0.12-0.28-0.22-0.44-0.31c0.22-0.99,0.64-1.47,1.1-1.78 C13.09,5.39,13.4,4.75,13.4,4c0-0.98-0.76-2-2.08-2C8.69,2,7.2,3.34,7.03,4.91l2.13,2.13C8.66,5.8,8.6,5.56,8.6,5.2 c0-0.94,1.12-1.6,2.72-1.6c0.46,0,0.48,0.33,0.48,0.4c0,0.28-0.09,0.39-0.25,0.49c-0.91,0.61-1.49,1.52-1.77,2.77L9.73,7.61 l5.73,5.73c0.17,0.04,0.35,0.06,0.54,0.06c0.98,0,2-0.76,2-2.08C18,8.52,16.49,7,14.8,7z M16,11.8c-0.28,0-0.39-0.09-0.49-0.25 c-0.61-0.91-1.52-1.49-2.77-1.77c-0.01-0.17-0.04-0.34-0.09-0.5c1.52-0.62,1.76-0.68,2.14-0.68c0.94,0,1.6,1.12,1.6,2.72 C16.4,11.78,16.07,11.8,16,11.8z"/><path d="M1.87,3.99l2.67,2.67C4.37,6.62,4.19,6.6,4,6.6c-0.98,0-2,0.76-2,2.08C2,11.48,3.51,13,5.2,13c0.83,0,1.29-0.22,3.01-0.91 c0.14,0.12,0.28,0.22,0.44,0.31c-0.22,0.99-0.64,1.47-1.1,1.78C6.91,14.61,6.6,15.25,6.6,16c0,0.98,0.76,2,2.08,2 c2.63,0,4.12-1.34,4.29-2.91l3.04,3.04l1.06-1.06L2.93,2.93L1.87,3.99z M10.22,12.74c0.12-0.01,0.23-0.04,0.34-0.06l0.28,0.28 c0.5,1.24,0.56,1.48,0.56,1.84c0,0.94-1.12,1.6-2.72,1.6c-0.46,0-0.48-0.33-0.48-0.4c0-0.28,0.09-0.39,0.25-0.49 C9.36,14.9,9.94,13.99,10.22,12.74z M7.26,10.22c0.01,0.17,0.04,0.34,0.09,0.5C5.82,11.33,5.59,11.4,5.2,11.4 c-0.94,0-1.6-1.12-1.6-2.72C3.6,8.22,3.93,8.2,4,8.2c0.28,0,0.39,0.09,0.49,0.25C5.1,9.36,6.01,9.94,7.26,10.22z"/></g></g>
    </svg>
  </g>
  <!-- Icon 9: 24px -->
  <g transform="translate(80, 80)">
    <rect width="48" height="48" fill="#1a1a1a" stroke="#333333" stroke-width="1" rx="4"/>
    <svg x="8" y="8" width="32" height="32" viewBox="0 0 24 24" style="fill: #ffffff; stroke: none;">
      <g><rect fill="none" height="24" width="24"/></g><g><polygon points="5,12 6.41,13.41 12,7.83 17.59,13.41 19,12 12,5"/></g>
    </svg>
  </g>
  <!-- Icon 10: 24px -->
  <g transform="translate(140, 80)">
    <rect width="48" height="48" fill="#1a1a1a" stroke="#333333" stroke-width="1" rx="4"/>
    <svg x="8" y="8" width="32" height="32" viewBox="0 0 24 24" style="fill: #ffffff; stroke: none;">
      <path d="M0 0h24v24H0V0z" fill="none"/><path d="M21 3H3c-1.11 0-2 .89-2 2v12c0 1.1.89 2 2 2h5v2h8v-2h5c1.1 0 1.99-.9 1.99-2L23 5c0-1.11-.9-2-2-2zm0 14H3V5h18v12z"/>
    </svg>
  </g>
  <!-- Icon 11: 24px -->
  <g transform="translate(200, 80)">
    <rect width="48" height="48" fill="#1a1a1a" stroke="#333333" stroke-width="1" rx="4"/>
    <svg x="8" y="8" width="32" height="32" viewBox="0 0 24 24" style="fill: #ffffff; stroke: none;">
      <g><rect fill="none" height="24" width="24"/></g><g><g><g><circle cx="6.5" cy="15.5" r="1.5"/></g><g><circle cx="15.5" cy="15.5" r="1.5"/></g><g><path d="M18,13v5H4v-5H18c-1.91,0-3.63-0.76-4.89-2H4.81l1.04-3h5.44C11.1,7.37,11,6.7,11,6s0.1-1.37,0.29-2H8v2H5.5 C4.84,6,4.29,6.42,4.08,7.01L2,13v8c0,0.55,0.45,1,1,1h1c0.55,0,1-0.45,1-1v-1h12v1c0,0.55,0.45,1,1,1h1c0.55,0,1-0.45,1-1v-8 l-0.09-0.27C19.3,12.9,18.66,13,18,13z"/></g><g><path d="M18,1c-2.76,0-5,2.24-5,5s2.24,5,5,5s5-2.24,5-5S20.76,1,18,1z M18.5,9h-1V8h1V9z M18.5,7h-1V3h1V7z"/></g></g></g>
    </svg>
  </g>
  <!-- Icon 12: 20px -->
  <g transform="translate(260, 80)">
    <rect width="48" height="48" fill="#1a1a1a" stroke="#333333" stroke-width="1" rx="4"/>
    <svg x="8" y="8" width="32" height="32" viewBox="0 0 20 20" style="fill: #ffffff; stroke: none;">
      <g><rect fill="none" height="20" width="20" x="0"/></g><g><path d="M18.25,3c0,0-1.5,1.67-1.5,2.5c0,0.55,0.3,1.03,0.75,1.29V11H16V9.5C16,8.67,15.33,8,14.5,8h-0.14 C14.76,7.43,15,6.74,15,5.99c0-1.23-0.65-2.38-1.71-3.01L10,1L6.71,2.98C5.65,3.61,5,4.76,5,5.99C5,6.74,5.24,7.43,5.64,8H5.5 C4.67,8,4,8.67,4,9.5V11H2.5V6.79C2.95,6.53,3.25,6.05,3.25,5.5c0-0.83-1.5-2.5-1.5-2.5s-1.5,1.67-1.5,2.5 c0,0.55,0.3,1.03,0.75,1.29V17h8v-3.5c0-0.55,0.45-1,1-1s1,0.45,1,1V17h8V6.79c0.45-0.26,0.75-0.74,0.75-1.29 C19.75,4.67,18.25,3,18.25,3z M7.48,4.26L10,2.75l2.52,1.51c0.6,0.36,0.98,1.02,0.98,1.73c0,1.1-0.88,1.99-1.97,2.01H8.48 C7.38,7.98,6.5,7.09,6.5,5.99C6.5,5.29,6.87,4.62,7.48,4.26z M17.5,15.5h-5v-2c0-1.38-1.12-2.5-2.5-2.5s-2.5,1.12-2.5,2.5v2h-5v-3 h3v-3h9v3h3V15.5z"/></g>
    </svg>
  </g>
  <!-- Icon 13: 24px -->
  <g transform="translate(320, 80)">
    <rect width="48" height="48" fill="#1a1a1a" stroke="#333333" stroke-width="1" rx="4"/>
    <svg x="8" y="8" width="32" height="32" viewBox="0 0 24 24" style="fill: #ffffff; stroke: none;">
      <g><rect fill="none" height="24" width="24"/></g><g><g><path d="M24,18l-3.86-6H22L15,2l-3,4.29L9,2L2,12h1.86L0,18h7v4h4v-4h2v4h4v-4H24z M15,5.49L18.16,10h-1.68l3.86,6h-3.62l-2.57-4 H16l-2.78-3.97L15,5.49z M3.66,16l3.86-6H5.84L9,5.49L12.16,10h-1.68l3.86,6H3.66z"/></g></g>
    </svg>
  </g>
  <!-- Icon 14: 24px -->
  <g transform="translate(380, 80)">
    <rect width="48" height="48" fill="#1a1a1a" stroke="#333333" stroke-width="1" rx="4"/>
    <svg x="8" y="8" width="32" height="32" viewBox="0 0 24 24" style="fill: #ffffff; stroke: none;">
      <g><rect fill="none" height="24" width="24"/></g><g><g><g><path d="M21,9v2h-2V3h-2v2h-2V3h-2v2h-2V3H9v2H7V3H5v8H3V9H1v12h9v-3c0-1.1,0.9-2,2-2s2,0.9,2,2v3h9V9H21z M21,19h-5v-1 c0-2.21-1.79-4-4-4s-4,1.79-4,4v1H3v-6h4V7h10v6h4V19z"/></g><g><rect height="3" width="2" x="9" y="9"/></g><g><rect height="3" width="2" x="13" y="9"/></g></g></g>
    </svg>
  </g>
  <!-- Icon 15: 24px -->
  <g transform="translate(20, 140)">
    <rect width="48" height="48" fill="#1a1a1a" stroke="#333333" stroke-width="1" rx="4"/>
    <svg x="8" y="8" width="32" height="32" viewBox="0 0 24 24" style="fill: #ffffff; stroke: none;">
      <path d="M0 0h24v24H0V0z" fill="none"/><path d="M19 9h-4V3H9v6H5l7 7 7-7zm-8 2V5h2v6h1.17L12 13.17 9.83 11H11zm-6 7h14v2H5z"/>
    </svg>
  </g>
  <!-- Icon 16: 24px -->
  <g transform="translate(80, 140)">
    <rect width="48" height="48" fill="#1a1a1a" stroke="#333333" stroke-width="1" rx="4"/>
    <svg x="8" y="8" width="32" height="32" viewBox="0 0 24 24" style="fill: #ffffff; stroke: none;">
      <g><rect fill="none" height="24" width="24"/></g><g><path d="M12,5.5c-3.89,0-6.95-0.84-8.69-1.43C2.67,3.85,2,4.33,2,5.02L2,19c0,0.68,0.66,1.17,1.31,0.95 C5.36,19.26,8.1,18.5,12,18.5c3.87,0,6.66,0.76,8.69,1.45C21.34,20.16,22,19.68,22,19l0-14c0-0.68-0.66-1.17-1.31-0.95 C18.66,4.73,15.86,5.5,12,5.5z"/></g>
    </svg>
  </g>
  <!-- Icon 17: 24px -->
  <g transform="translate(140, 140)">
    <rect width="48" height="48" fill="#1a1a1a" stroke="#333333" stroke-width="1" rx="4"/>
    <svg x="8" y="8" width="32" height="32" viewBox="0 0 24 24" style="fill: #ffffff; stroke: none;">
      <path d="M0 0h24v24H0V0z" fill="none"/><path d="M3 5H1v16c0 1.1.9 2 2 2h16v-2H3V5zm18-4H7c-1.1 0-2 .9-2 2v14c0 1.1.9 2 2 2h14c1.1 0 2-.9 2-2V3c0-1.1-.9-2-2-2zm0 16H7V3h14v14zM15 5h-2c-1.1 0-2 .89-2 2v2c0 1.11.9 2 2 2h2v2h-4v2h4c1.1 0 2-.89 2-2V7c0-1.11-.9-2-2-2zm0 4h-2V7h2v2z"/>
    </svg>
  </g>
  <!-- Icon 18: 24px -->
  <g transform="translate(200, 140)">
    <rect width="48" height="48" fill="#1a1a1a" stroke="#333333" stroke-width="1" rx="4"/>
    <svg x="8" y="8" width="32" height="32" viewBox="0 0 24 24" style="fill: #ffffff; stroke: none;">
      <path d="M0 0h24v24H0V0z" fill="none"/><path d="M20 8.69V4h-4.69L12 .69 8.69 4H4v4.69L.69 12 4 15.31V20h4.69L12 23.31 15.31 20H20v-4.69L23.31 12 20 8.69zm-2 5.79V18h-3.52L12 20.48 9.52 18H6v-3.52L3.52 12 6 9.52V6h3.52L12 3.52 14.48 6H18v3.52L20.48 12 18 14.48zM12 6.5v11c3.03 0 5.5-2.47 5.5-5.5S15.03 6.5 12 6.5z"/>
    </svg>
  </g>
  <!-- Icon 19: 24px -->
  <g transform="translate(260, 140)">
    <rect width="48" height="48" fill="#1a1a1a" stroke="#333333" stroke-width="1" rx="4"/>
    <svg x="8" y="8" width="32" height="32" viewBox="0 0 24 24" style="fill: #ffffff; stroke: none;">
      <path d="M0 0h24v24H0V0z" fill="none"/><path d="M10 9V5l-7 7 7 7v-4.1c5 0 8.5 1.6 11 5.1-1-5-4-10-11-11z"/>
    </svg>
  </g>
  <!-- Icon 20: 20px -->
  <g transform="translate(320, 140)">
    <rect width="48" height="48" fill="#1a1a1a" stroke="#333333" stroke-width="1" rx="4"/>
    <svg x="8" y="8" width="32" height="32" viewBox="0 0 20 20" style="fill: #ffffff; stroke: none;">
      <g><rect fill="none" height="20" width="20" x="0"/></g><g><path d="M2.93,2.93L1.87,3.99l1.66,1.66C2.02,6.51,1,8.14,1,10c0,2.76,2.24,5,5,5c1.86,0,3.49-1.02,4.35-2.53l5.66,5.66l1.06-1.06 L2.93,2.93z M6,13.5c-1.93,0-3.5-1.57-3.5-3.5c0-1.45,0.89-2.7,2.15-3.23L5.88,8C4.83,8.06,4,8.93,4,10c0,1.1,0.9,2,2,2 c1.07,0,1.94-0.83,2-1.88l1.24,1.24C8.78,12.27,7.87,13.5,6,13.5z M14.5,12.38V10.5h-1.88L14.5,12.38z M17,14.88V12h2V8h-8.88 l1.5,1.5h5.88v1h-2v2.88L17,14.88z"/></g>
    </svg>
  </g>
  <!-- Icon 21: 24px -->
  <g transform="translate(380, 140)">
    <rect width="48" height="48" fill="#1a1a1a" stroke="#333333" stroke-width="1" rx="4"/>
    <svg x="8" y="8" width="32" height="32" viewBox="0 0 24 24" style="fill: #ffffff; stroke: none;">
      <path d="M0 0h24v24H0V0z" fill="none"/><path d="M22 6c0-1.1-.9-2-2-2H4c-1.1 0-2 .9-2 2v12c0 1.1.9 2 2 2h16c1.1 0 2-.9 2-2V6zm-2 0l-8 5-8-5h16zm0 12H4V8l8 5 8-5v10z"/>
    </svg>
  </g>
  <!-- Icon 22: 24px -->
  <g transform="translate(20, 200)">
    <rect width="48" height="48" fill="#1a1a1a" stroke="#333333" stroke-width="1" rx="4"/>
    <svg x="8" y="8" width="32" height="32" viewBox="0 0 24 24" style="fill: #ffffff; stroke: none;">
      <path d="M0 0h24v24H0z" fill="none"/><path d="M20.38 8.57l-1.23 1.85a8 8 0 0 1-.22 7.58H5.07A8 8 0 0 1 15.58 6.85l1.85-1.23A10 10 0 0 0 3.35 19a2 2 0 0 0 1.72 1h13.85a2 2 0 0 0 1.74-1 10 10 0 0 0-.27-10.44z"/><path d="M10.59 15.41a2 2 0 0 0 2.83 0l5.66-8.49-8.49 5.66a2 2 0 0 0 0 2.83z"/>
    </svg>
  </g>
  <!-- Icon 23: 24px -->
  <g transform="translate(80, 200)">
    <rect width="48" height="48" fill="#1a1a1a" stroke="#333333" stroke-width="1" rx="4"/>
    <svg x="8" y="8" width="32" height="32" viewBox="0 0 24 24" style="fill: #ffffff; stroke: none;">
      <g><rect fill="none" height="24" width="24"/><rect fill="none" height="24" width="24"/><rect fill="none" height="24" width="24"/></g><g><g/><path d="M15,9.86L18.03,12L15,14.14V9.86 M6,9.86L9.03,12L6,14.14V9.86 M13,6v12l8.5-6L13,6L13,6z M4,6v12l8.5-6L4,6L4,6z"/></g>
    </svg>
  </g>
  <!-- Icon 24: 24px -->
  <g transform="translate(140, 200)">
    <rect width="48" height="48" fill="#1a1a1a" stroke="#333333" stroke-width="1" rx="4"/>
    <svg x="8" y="8" width="32" height="32" viewBox="0 0 24 24" style="fill: #ffffff; stroke: none;">
      <path d="M0 0h24v24H0V0z" fill="none"/><path d="M12 2C6.48 2 2 6.48 2 12s4.48 10 10 10 10-4.48 10-10S17.52 2 12 2zm7.93 9H13V4.07c3.61.45 6.48 3.32 6.93 6.93zM4 12c0-4.07 3.06-7.44 7-7.93v15.86c-3.94-.49-7-3.86-7-7.93zm9 7.93V13h6.93c-.45 3.61-3.32 6.48-6.93 6.93z"/>
    </svg>
  </g>
  <!-- Icon 25: 20px -->
  <g transform="translate(200, 200)">
    <rect width="48" height="48" fill="#1a1a1a" stroke="#333333" stroke-width="1" rx="4"/>
    <svg x="8" y="8" width="32" height="32" viewBox="0 0 20 20" style="fill: #ffffff; stroke: none;">
      <rect fill="none" height="20" width="20"/><path d="M9,7.5H2V6h7V7.5z M9,12.5H2V14h7V12.5z M11.64,5.11l-1.06,1.06L13.4,9L18,4.4l-1.06-1.06L13.4,6.88L11.64,5.11z M11.64,11.61l-1.06,1.06l2.83,2.83l4.6-4.6l-1.06-1.06l-3.54,3.54L11.64,11.61z"/>
    </svg>
  </g>
  <!-- Icon 26: 24px -->
  <g transform="translate(260, 200)">
    <rect width="48" height="48" fill="#1a1a1a" stroke="#333333" stroke-width="1" rx="4"/>
    <svg x="8" y="8" width="32" height="32" viewBox="0 0 24 24" style="fill: #ffffff; stroke: none;">
      <g><path d="M0,0h24v24H0V0z" fill="none"/></g><g><path d="M24,8.98C20.93,5.9,16.69,4,12,4C7.31,4,3.07,5.9,0,8.98L12,21v-9h8.99L24,8.98z M19.59,14l-2.09,2.09l-0.3-0.3L15.41,14 L14,15.41l1.79,1.79l0.3,0.3L14,19.59L15.41,21l2.09-2.08L19.59,21L21,19.59l-2.08-2.09L21,15.41L19.59,14z"/></g>
    </svg>
  </g>
  <!-- Icon 27: 24px -->
  <g transform="translate(320, 200)">
    <rect width="48" height="48" fill="#1a1a1a" stroke="#333333" stroke-width="1" rx="4"/>
    <svg x="8" y="8" width="32" height="32" viewBox="0 0 24 24" style="fill: #ffffff; stroke: none;">
      <g><path d="M0,0h24v24H0V0z" fill="none"/></g><g><g><path d="M9,6.17V3h6v4h-4v1.17L9,6.17z M19.42,15L22,17.57l-0.8,0.8l-6.78-6.78l0.8-0.8l2.75,2.75V9h0.6L22,12.43L19.42,15z M19.17,13.55l1.13-1.13l-1.13-1.13V13.55z M21.19,21.19l-1.41,1.41l-3.98-3.98l-0.58,0.58l-0.85-0.85l0.58-0.58L11,13.83V17 c0,2.21-1.78,4-3.99,4S3,19.21,3,17s1.79-4,4.01-4c0.73,0,1.41,0.21,2,0.55v-1.72L1.39,4.22L2.8,2.81L21.19,21.19z"/></g></g>
    </svg>
  </g>
  <!-- Icon 28: 20px -->
  <g transform="translate(380, 200)">
    <rect width="48" height="48" fill="#1a1a1a" stroke="#333333" stroke-width="1" rx="4"/>
    <svg x="8" y="8" width="32" height="32" viewBox="0 0 20 20" style="fill: #ffffff; stroke: none;">
      <g><rect fill="none" height="20" width="20" x="0"/></g><g><path d="M13,3.5c0.55,0,1,0.45,1,1V17c0,0.55-0.45,1-1,1H7c-0.55,0-1-0.45-1-1V4.5c0-0.55,0.45-1,1-1h1.5V2h3v1.5H13z M12.5,5h-5 v6.5h5V5z"/></g>
    </svg>
  </g>
  <!-- Icon 29: 24px -->
  <g transform="translate(20, 260)">
    <rect width="48" height="48" fill="#1a1a1a" stroke="#333333" stroke-width="1" rx="4"/>
    <svg x="8" y="8" width="32" height="32" viewBox="0 0 24 24" style="fill: #ffffff; stroke: none;">
      <rect fill="none" height="24" width="24"/><path d="M15,7v10H9V7H15z M21,5h-3v14h3V5z M17,5H7v14h10V5z M6,5H3v14h3V5z"/>
    </svg>
  </g>
  <!-- Icon 30: 24px -->
  <g transform="translate(80, 260)">
    <rect width="48" height="48" fill="#1a1a1a" stroke="#333333" stroke-width="1" rx="4"/>
    <svg x="8" y="8" width="32" height="32" viewBox="0 0 24 24" style="fill: #ffffff; stroke: none;">
      <g><rect fill="none" height="24" width="24"/></g><g><path d="M20.22,10l-4.15,0.01c-0.16-0.01-0.31,0.02-0.45,0.08l-0.59,0.26L13.2,6.25c-0.56-1.26-2.04-1.83-3.3-1.27 s-1.83,2.04-1.27,3.3l3.3,7.45l-1.87,0.39c-0.19,0.05-0.99,0.27-1.36,1.21L8,19.19l6.78,2.67c0.49,0.19,1.05,0.18,1.53-0.04 l5.99-2.65c0.89-0.4,1.37-1.38,1.13-2.32l-1.36-5.34C21.85,10.65,21.1,10.04,20.22,10z M21.49,17.34L15.5,20l-4.92-1.96l4.18-0.88 l-4.3-9.7c-0.11-0.25,0-0.55,0.25-0.66c0.25-0.11,0.55,0,0.66,0.25l2.5,5.65l1.61-0.71L20.13,12L21.49,17.34z M3.8,12.18 c-0.2-0.86-0.3-1.76-0.3-2.68c0-2.84,0.99-5.45,2.63-7.5L7.2,3.07C5.82,4.85,5,7.08,5,9.5c0,0.88,0.11,1.74,0.32,2.56l1.62-1.62 L8,11.5L4.5,15L1,11.5l1.06-1.06L3.8,12.18z"/></g>
    </svg>
  </g>
  <!-- Icon 31: 24px -->
  <g transform="translate(140, 260)">
    <rect width="48" height="48" fill="#1a1a1a" stroke="#333333" stroke-width="1" rx="4"/>
    <svg x="8" y="8" width="32" height="32" viewBox="0 0 24 24" style="fill: #ffffff; stroke: none;">
      <path d="M0 0h24v24H0z" fill="none"/><path d="M19 19h2v2h-2v-2zm0-2h2v-2h-2v2zM3 13h2v-2H3v2zm0 4h2v-2H3v2zm0-8h2V7H3v2zm0-4h2V3H3v2zm4 0h2V3H7v2zm8 16h2v-2h-2v2zm-4 0h2v-2h-2v2zm4 0h2v-2h-2v2zm-8 0h2v-2H7v2zm-4 0h2v-2H3v2zM21 8c0-2.76-2.24-5-5-5h-5v2h5c1.65 0 3 1.35 3 3v5h2V8z"/>
    </svg>
  </g>
  <!-- Icon 32: 24px -->
  <g transform="translate(200, 260)">
    <rect width="48" height="48" fill="#1a1a1a" stroke="#333333" stroke-width="1" rx="4"/>
    <svg x="8" y="8" width="32" height="32" viewBox="0 0 24 24" style="fill: #ffffff; stroke: none;">
      <rect fill="none" height="24" width="24"/><polygon points="21,11 21,3 13,3 16.29,6.29 6.29,16.29 3,13 3,21 11,21 7.71,17.71 17.71,7.71"/>
    </svg>
  </g>
  <!-- Icon 33: 24px -->
  <g transform="translate(260, 260)">
    <rect width="48" height="48" fill="#1a1a1a" stroke="#333333" stroke-width="1" rx="4"/>
    <svg x="8" y="8" width="32" height="32" viewBox="0 0 24 24" style="fill: #ffffff; stroke: none;">
      <g fill="none"><path d="M0 0h24v24H0V0z"/><path d="M0 0h24v24H0V0z" opacity=".87"/></g><path d="M21 3.01H3c-1.1 0-2 .9-2 2V9h2V4.99h18v14.03H3V15H1v4.01c0 1.1.9 1.98 2 1.98h18c1.1 0 2-.88 2-1.98v-14c0-1.11-.9-2-2-2zM11 16l4-4-4-4v3H1v2h10v3zM21 3.01H3c-1.1 0-2 .9-2 2V9h2V4.99h18v14.03H3V15H1v4.01c0 1.1.9 1.98 2 1.98h18c1.1 0 2-.88 2-1.98v-14c0-1.11-.9-2-2-2zM11 16l4-4-4-4v3H1v2h10v3z"/>
    </svg>
  </g>
  <!-- Icon 34: 24px -->
  <g transform="translate(320, 260)">
    <rect width="48" height="48" fill="#1a1a1a" stroke="#333333" stroke-width="1" rx="4"/>
    <svg x="8" y="8" width="32" height="32" viewBox="0 0 24 24" style="fill: #ffffff; stroke: none;">
      <g><rect fill="none" height="24" width="24"/></g><g><path d="M6.05,8.05c-2.73,2.73-2.73,7.17,0,9.9C7.42,19.32,9.21,20,11,20s3.58-0.68,4.95-2.05C19.43,14.47,20,4,20,4 S9.53,4.57,6.05,8.05z M14.54,16.54C13.59,17.48,12.34,18,11,18c-0.89,0-1.73-0.25-2.48-0.68c0.92-2.88,2.62-5.41,4.88-7.32 c-2.63,1.36-4.84,3.46-6.37,6c-1.48-1.96-1.35-4.75,0.44-6.54C9.21,7.72,14.04,6.65,17.8,6.2C17.35,9.96,16.28,14.79,14.54,16.54z"/></g>
    </svg>
  </g>
  <!-- Icon 35: 24px -->
  <g transform="translate(380, 260)">
    <rect width="48" height="48" fill="#1a1a1a" stroke="#333333" stroke-width="1" rx="4"/>
    <svg x="8" y="8" width="32" height="32" viewBox="0 0 24 24" style="fill: #ffffff; stroke: none;">
      <path d="M0 0h24v24H0V0z" fill="none"/><path d="M22.61 18.99l-9.08-9.08c.93-2.34.45-5.1-1.44-7C9.79.61 6.21.4 3.66 2.26L7.5 6.11 6.08 7.52 2.25 3.69C.39 6.23.6 9.82 2.9 12.11c1.86 1.86 4.57 2.35 6.89 1.48l9.11 9.11c.39.39 1.02.39 1.41 0l2.3-2.3c.4-.38.4-1.01 0-1.41zm-3 1.6l-9.46-9.46c-.61.45-1.29.72-2 .82-1.36.2-2.79-.21-3.83-1.25C3.37 9.76 2.93 8.5 3 7.26l3.09 3.09 4.24-4.24-3.09-3.09c1.24-.07 2.49.37 3.44 1.31 1.08 1.08 1.49 2.57 1.24 3.96-.12.71-.42 1.37-.88 1.96l9.45 9.45-.88.89z"/>
    </svg>
  </g>

  <!-- Title Background -->
  <rect x="0" y="323" width="448" height="60" fill="#1a1a1a"/>
  
  <!-- Title -->
  <text x="20" y="348" text-anchor="start" font-family="system-ui, -apple-system, sans-serif" font-size="18" font-weight="bold" fill="#ffffff">Material Design Icons - outlined</text>

</svg>