<svg width="800" height="600" xmlns="http://www.w3.org/2000/svg">
  <!-- Background -->
  <rect width="800" height="600" fill="#ffffff"/>
  
  <!-- Header Background -->
  <rect width="800" height="80" fill="#f8f9fa"/>
  
  <!-- Title -->
  <text x="400" y="30" text-anchor="middle" font-family="system-ui, -apple-system, sans-serif" font-size="20" font-weight="bold" fill="#212529">Material Design Icons - outlined</text>
  
  <!-- Subtitle -->
  <text x="400" y="55" text-anchor="middle" font-family="system-ui, -apple-system, sans-serif" font-size="14" fill="#6c757d">2,808 icons</text>
  
  <!-- Icon Grid -->
  <!-- Icon 1: 24px -->
  <g transform="translate(196, 92)">
    <rect width="48" height="48" fill="#ffffff" stroke="#e9ecef" stroke-width="1" rx="4"/>
    <svg x="8" y="8" width="32" height="32" viewBox="0 0 24 24">
      <path d="M0 0h24v24H0z" fill="#2563eb"/><path d="M17 6H7c-3.31 0-6 2.69-6 6s2.69 6 6 6h10c3.31 0 6-2.69 6-6s-2.69-6-6-6zm0 10H7c-2.21 0-4-1.79-4-4s1.79-4 4-4h10c2.21 0 4 1.79 4 4s-1.79 4-4 4zm0-7c-1.66 0-3 1.34-3 3s1.34 3 3 3 3-1.34 3-3-1.34-3-3-3z"/>
    </svg>
  </g>
  <!-- Icon 2: 24px -->
  <g transform="translate(256, 92)">
    <rect width="48" height="48" fill="#ffffff" stroke="#e9ecef" stroke-width="1" rx="4"/>
    <svg x="8" y="8" width="32" height="32" viewBox="0 0 24 24">
      <g><rect fill="#2563eb" height="24" width="24"/></g><g><path d="M2,6v12h2V8h10v10h2v-2h4v2h2V6H2z M20,8v2h-4V8H20z M16,14v-2h4v2H16z"/></g>
    </svg>
  </g>
  <!-- Icon 3: 24px -->
  <g transform="translate(316, 92)">
    <rect width="48" height="48" fill="#ffffff" stroke="#e9ecef" stroke-width="1" rx="4"/>
    <svg x="8" y="8" width="32" height="32" viewBox="0 0 24 24">
      <path d="M0 0h24v24H0V0z" fill="#2563eb"/><path d="M3 12c0 2.21.91 4.2 2.36 5.64L3 20h6v-6l-2.24 2.24C5.68 15.15 5 13.66 5 12c0-2.61 1.67-4.83 4-5.65V4.26C5.55 5.15 3 8.27 3 12zm8 5h2v-2h-2v2zM21 4h-6v6l2.24-2.24C18.32 8.85 19 10.34 19 12c0 2.61-1.67 4.83-4 5.65v2.09c3.45-.89 6-4.01 6-7.74 0-2.21-.91-4.2-2.36-5.64L21 4zm-10 9h2V7h-2v6z"/>
    </svg>
  </g>
  <!-- Icon 4: 20px -->
  <g transform="translate(376, 92)">
    <rect width="48" height="48" fill="#ffffff" stroke="#e9ecef" stroke-width="1" rx="4"/>
    <svg x="8" y="8" width="32" height="32" viewBox="0 0 20 20">
      <g><rect fill="#2563eb" height="20" width="20" x="0"/></g><g><g><path d="M15.33,14.28c-1.95,1.59-3.31,1.65-5.33,0c-1.95,1.59-3.31,1.65-5.33,0C3.17,15.5,2.54,15.5,2,15.5V17 c0.93,0,1.85-0.28,2.67-0.82c1.64,1.08,3.69,1.08,5.33,0c1.64,1.08,3.69,1.08,5.33,0C16.15,16.72,17.07,17,18,17v-1.5 C17.49,15.5,16.83,15.5,15.33,14.28z"/><path d="M16.5,10.5H18V9h-1.5c-1.6,0-2.9-1.3-2.9-2.9c0-0.57,0.18-1.31,0.46-1.91l0.46-0.92C13.44,3.1,12.92,3,12.01,3 C6.3,3,2,7.08,2,12.5V14c0.93,0,1.85-0.28,2.67-0.82c1.64,1.08,3.69,1.08,5.33,0c1.64,1.08,3.69,1.08,5.33,0 C16.15,13.72,17.07,14,18,14v-1.5c-0.51,0-1.17,0-2.67-1.22c-1.95,1.59-3.31,1.65-5.33,0c-0.16,0.13-0.59,0.47-0.65,0.51 c-0.51-0.77-0.79-1.66-0.79-2.61c0-2.2,1.51-3.92,3.73-4.35c-0.1,0.44-0.17,0.88-0.17,1.27C12.11,8.53,14.08,10.5,16.5,10.5z M7.05,9.18c0,1.16,0.32,2.27,0.91,3.23c-0.52,0.1-1.5,0.33-3.3-1.14c-0.5,0.41-0.67,0.57-1.15,0.82 c0.16-3.27,2.21-5.91,5.21-7.03C7.69,6.14,7.05,7.58,7.05,9.18z"/></g></g>
    </svg>
  </g>
  <!-- Icon 5: 24px -->
  <g transform="translate(436, 92)">
    <rect width="48" height="48" fill="#ffffff" stroke="#e9ecef" stroke-width="1" rx="4"/>
    <svg x="8" y="8" width="32" height="32" viewBox="0 0 24 24">
      <path d="M0 0h24v24H0V0z" fill="#2563eb"/><path d="M12 3 1 9l4 2.18v6L12 21l7-3.82v-6l2-1.09V17h2V9L12 3zm6.82 6L12 12.72 5.18 9 12 5.28 18.82 9zM17 15.99l-5 2.73-5-2.73v-3.72L12 15l5-2.73v3.72z"/>
    </svg>
  </g>
  <!-- Icon 6: 20px -->
  <g transform="translate(496, 92)">
    <rect width="48" height="48" fill="#ffffff" stroke="#e9ecef" stroke-width="1" rx="4"/>
    <svg x="8" y="8" width="32" height="32" viewBox="0 0 20 20">
      <g><rect fill="#2563eb" height="20" width="20" x="0"/></g><g><g><path d="M13.16,13.29l-2.27-0.19l-0.56-1.31l2.45-1.63C12.92,10.06,13,9.9,13,9.73V3H7v6.73c0,0.17,0.08,0.32,0.22,0.42l2.45,1.63 l-0.56,1.31l-2.27,0.19l1.72,1.49L8.05,17L10,15.82L11.95,17l-0.52-2.22L13.16,13.29z M10.5,4H12v5.46l-1.5,1V4z M9.5,10.46 l-1.5-1V4h1.5V10.46z"/></g></g>
    </svg>
  </g>
  <!-- Icon 7: 24px -->
  <g transform="translate(556, 92)">
    <rect width="48" height="48" fill="#ffffff" stroke="#e9ecef" stroke-width="1" rx="4"/>
    <svg x="8" y="8" width="32" height="32" viewBox="0 0 24 24">
      <g><rect fill="#2563eb" height="24" width="24"/></g><g><g/><g><path d="M12,3c-0.46,0-0.93,0.04-1.4,0.14C7.84,3.67,5.64,5.9,5.12,8.66c-0.48,2.61,0.48,5.01,2.22,6.56 C7.77,15.6,8,16.13,8,16.69V19c0,1.1,0.9,2,2,2h0.28c0.35,0.6,0.98,1,1.72,1s1.38-0.4,1.72-1H14c1.1,0,2-0.9,2-2v-2.31 c0-0.55,0.22-1.09,0.64-1.46C18.09,13.95,19,12.08,19,10C19,6.13,15.87,3,12,3z M14,17h-4v-1h4V17z M10,19v-1h4v1H10z M15.31,13.74c-0.09,0.08-0.16,0.18-0.24,0.26H8.92c-0.08-0.09-0.15-0.19-0.24-0.27c-1.32-1.18-1.91-2.94-1.59-4.7 c0.36-1.94,1.96-3.55,3.89-3.93C11.32,5.03,11.66,5,12,5c2.76,0,5,2.24,5,5C17,11.43,16.39,12.79,15.31,13.74z"/></g><g><rect height="3" width="1" x="11.5" y="11"/><rect height="3" transform="matrix(0.7071 -0.7071 0.7071 0.7071 -4.0312 10.8536)" width="1" x="10.59" y="8.79"/><rect height="3" transform="matrix(-0.7071 -0.7071 0.7071 -0.7071 14.7678 26.7028)" width="1" x="12.41" y="8.79"/></g></g>
    </svg>
  </g>
  <!-- Icon 8: 20px -->
  <g transform="translate(196, 152)">
    <rect width="48" height="48" fill="#ffffff" stroke="#e9ecef" stroke-width="1" rx="4"/>
    <svg x="8" y="8" width="32" height="32" viewBox="0 0 20 20">
      <g><rect fill="#2563eb" height="20" width="20" x="0"/></g><g><g><path d="M16.5,10h-13L2,18h16L16.5,10z M15.26,11.5l0.33,1.75h-4.83V11.5H15.26z M9.25,11.5v1.75H4.42l0.33-1.75H9.25z M4.14,14.75h5.11v1.75H3.81L4.14,14.75z M10.75,16.5v-1.75h5.11l0.33,1.75H10.75z"/><rect height="2" width="1.5" x="9.25" y="7"/><rect height="2" transform="matrix(0.7071 -0.7071 0.7071 0.7071 -0.3314 12.1139)" width="1.5" x="13.71" y="5.46"/><rect height="1.5" transform="matrix(0.7071 -0.7071 0.7071 0.7071 -2.9423 5.8107)" width="2" x="4.54" y="5.71"/><rect height="1.5" width="2" x="3" y="2.05"/><rect height="1.5" width="2" x="15" y="2.05"/><path d="M10,6c2.21,0,4-1.79,4-4h-1.5c0,1.38-1.12,2.5-2.5,2.5S7.5,3.38,7.5,2H6C6,4.21,7.79,6,10,6z"/></g></g>
    </svg>
  </g>
  <!-- Icon 9: 24px -->
  <g transform="translate(256, 152)">
    <rect width="48" height="48" fill="#ffffff" stroke="#e9ecef" stroke-width="1" rx="4"/>
    <svg x="8" y="8" width="32" height="32" viewBox="0 0 24 24">
      <path d="M0 0h24v24H0V0z" fill="#2563eb" opacity=".87"/><path d="M12 2C6.47 2 2 6.47 2 12s4.47 10 10 10 10-4.47 10-10S17.53 2 12 2zm0 18c-4.41 0-8-3.59-8-8s3.59-8 8-8 8 3.59 8 8-3.59 8-8 8zm3.59-13L12 10.59 8.41 7 7 8.41 10.59 12 7 15.59 8.41 17 12 13.41 15.59 17 17 15.59 13.41 12 17 8.41z"/>
    </svg>
  </g>
  <!-- Icon 10: 20px -->
  <g transform="translate(316, 152)">
    <rect width="48" height="48" fill="#ffffff" stroke="#e9ecef" stroke-width="1" rx="4"/>
    <svg x="8" y="8" width="32" height="32" viewBox="0 0 20 20">
      <g><rect fill="#2563eb" height="20" width="20"/></g><g><g><path d="M14.5,2h-9C4.67,2,4,2.67,4,3.5v13C4,17.33,4.67,18,5.5,18h9c0.83,0,1.5-0.67,1.5-1.5v-13C16,2.67,15.33,2,14.5,2z M14.5,16.5h-9v-13H9V10l2-1l2,1V3.5h1.5V16.5z"/><polygon points="9.5,14 8.12,12.17 6,15 14,15 11.38,11.5"/></g></g>
    </svg>
  </g>
  <!-- Icon 11: 24px -->
  <g transform="translate(376, 152)">
    <rect width="48" height="48" fill="#ffffff" stroke="#e9ecef" stroke-width="1" rx="4"/>
    <svg x="8" y="8" width="32" height="32" viewBox="0 0 24 24">
      <path d="M0 0h24v24H0V0z" fill="#2563eb"/><path d="M3 5H1v16c0 1.1.9 2 2 2h16v-2H3V5zm18-4H7c-1.1 0-2 .9-2 2v14c0 1.1.9 2 2 2h14c1.1 0 2-.9 2-2V3c0-1.1-.9-2-2-2zm0 16H7V3h14v14z"/>
    </svg>
  </g>
  <!-- Icon 12: 24px -->
  <g transform="translate(436, 152)">
    <rect width="48" height="48" fill="#ffffff" stroke="#e9ecef" stroke-width="1" rx="4"/>
    <svg x="8" y="8" width="32" height="32" viewBox="0 0 24 24">
      <path d="M0 0h24v24H0V0z" fill="#2563eb"/><path d="M5 20v2h5v2l3-3-3-3v2zm9 0h5v2h-5zM11.99 8C13.1 8 14 7.1 14 6s-.9-2-2.01-2S10 4.9 10 6s.89 2 1.99 2zM17 0H7C5.9 0 5 .9 5 2v14c0 1.1.9 2 2 2h10c1.1 0 2-.9 2-2V2c0-1.1-.9-2-2-2zm0 16H7v-2h10v2zm0-3.5c0-1.67-3.33-2.5-5-2.5s-5 .83-5 2.5V2h10v10.5z"/>
    </svg>
  </g>
  <!-- Icon 13: 24px -->
  <g transform="translate(496, 152)">
    <rect width="48" height="48" fill="#ffffff" stroke="#e9ecef" stroke-width="1" rx="4"/>
    <svg x="8" y="8" width="32" height="32" viewBox="0 0 24 24">
      <path d="M0 0h24v24H0V0z" fill="#2563eb"/><path d="M20 6h-8l-2-2H4c-1.1 0-1.99.9-1.99 2L2 18c0 1.1.9 2 2 2h16c1.1 0 2-.9 2-2V8c0-1.1-.9-2-2-2zm0 12H4V8h16v10z"/>
    </svg>
  </g>
  <!-- Icon 14: 24px -->
  <g transform="translate(556, 152)">
    <rect width="48" height="48" fill="#ffffff" stroke="#e9ecef" stroke-width="1" rx="4"/>
    <svg x="8" y="8" width="32" height="32" viewBox="0 0 24 24">
      <g><rect fill="#2563eb" height="24" width="24"/></g><g><path d="M21,9.02c0,1.09-0.89,1.98-1.98,1.98H18V8.86c1.72-0.44,3-1.99,3-3.84V5l-2,0.02C19,6.11,18.11,7,17.02,7H16.5L12,1L7.5,7 H6.98C5.89,7,5,6.11,5,5.02H3c0,1.86,1.28,3.4,3,3.84V11H4.98C3.89,11,3,10.11,3,9.02H1c0,1.86,1.28,3.4,3,3.84V22h7v-4 c0-0.55,0.45-1,1-1s1,0.45,1,1v4h7v-9.14c1.72-0.44,3-1.99,3-3.84V9L21,9.02z M12,4.33L14,7h-4L12,4.33z M8,9h8v2H8V9z M18,20h-3 v-2c0-1.65-1.35-3-3-3c-1.65,0-3,1.35-3,3v2H6v-7h12V20z"/></g>
    </svg>
  </g>
  <!-- Icon 15: 20px -->
  <g transform="translate(196, 212)">
    <rect width="48" height="48" fill="#ffffff" stroke="#e9ecef" stroke-width="1" rx="4"/>
    <svg x="8" y="8" width="32" height="32" viewBox="0 0 20 20">
      <g><rect fill="#2563eb" height="20" width="20" x="0"/></g><g><path d="M18.25,3c0,0-1.5,1.67-1.5,2.5c0,0.55,0.3,1.03,0.75,1.29V11H16V9.5C16,8.67,15.33,8,14.5,8h-0.14 C14.76,7.43,15,6.74,15,5.99c0-1.23-0.65-2.38-1.71-3.01L10,1L6.71,2.98C5.65,3.61,5,4.76,5,5.99C5,6.74,5.24,7.43,5.64,8H5.5 C4.67,8,4,8.67,4,9.5V11H2.5V6.79C2.95,6.53,3.25,6.05,3.25,5.5c0-0.83-1.5-2.5-1.5-2.5s-1.5,1.67-1.5,2.5 c0,0.55,0.3,1.03,0.75,1.29V17h8v-3.5c0-0.55,0.45-1,1-1s1,0.45,1,1V17h8V6.79c0.45-0.26,0.75-0.74,0.75-1.29 C19.75,4.67,18.25,3,18.25,3z M7.48,4.26L10,2.75l2.52,1.51c0.6,0.36,0.98,1.02,0.98,1.73c0,1.1-0.88,1.99-1.97,2.01H8.48 C7.38,7.98,6.5,7.09,6.5,5.99C6.5,5.29,6.87,4.62,7.48,4.26z M17.5,15.5h-5v-2c0-1.38-1.12-2.5-2.5-2.5s-2.5,1.12-2.5,2.5v2h-5v-3 h3v-3h9v3h3V15.5z"/></g>
    </svg>
  </g>
  <!-- Icon 16: 20px -->
  <g transform="translate(256, 212)">
    <rect width="48" height="48" fill="#ffffff" stroke="#e9ecef" stroke-width="1" rx="4"/>
    <svg x="8" y="8" width="32" height="32" viewBox="0 0 20 20">
      <g><rect fill="#2563eb" height="20" width="20" x="0"/></g><g><g><path d="M9,11.36c1.2-1.05,2.74-1.4,4.13-1.11l-1.19-1.19L13,8l3,3l-3,3l-1.06-1.06l1.19-1.19C11.26,11.32,9.56,12.28,9,14v3H7.5 l0-11.13L6.31,7.06L5.25,6l3-3l3,3l-1.06,1.06L9,5.87L9,11.36z"/></g></g>
    </svg>
  </g>
  <!-- Icon 17: 20px -->
  <g transform="translate(316, 212)">
    <rect width="48" height="48" fill="#ffffff" stroke="#e9ecef" stroke-width="1" rx="4"/>
    <svg x="8" y="8" width="32" height="32" viewBox="0 0 20 20">
      <g><rect fill="#2563eb" height="20" width="20" y="0"/></g><g><g><path d="M2,18l11.49-4.07L6.07,6.51L2,18z M10.75,13.31l-6.29,2.22l2.22-6.29L10.75,13.31z"/><path d="M12.25,5.63L9.78,8.1l0.71,0.71l2.47-2.47c0.78-0.78,0.78-2.05,0-2.83l-1.41-1.41L10.84,2.8l1.41,1.41 C12.64,4.6,12.64,5.24,12.25,5.63z"/><path d="M8.36,6.69l0.71,0.71l0.71-0.71c0.78-0.78,0.78-2.05,0-2.83L9.07,3.15L8.36,3.86l0.71,0.71c0.39,0.39,0.39,1.02,0,1.41 L8.36,6.69z"/><path d="M15.79,8.58c-0.51,0-1.02,0.2-1.41,0.59l-1.77,1.77l0.71,0.71l1.77-1.77c0.2-0.2,0.45-0.29,0.71-0.29s0.51,0.1,0.71,0.29 l1.41,1.41l0.71-0.71L17.2,9.16C16.81,8.77,16.3,8.58,15.79,8.58z"/><path d="M18.62,4.92c-0.39-0.39-0.9-0.59-1.41-0.59s-1.02,0.2-1.41,0.59l-4.6,4.6l0.71,0.71l4.6-4.6c0.2-0.2,0.45-0.29,0.71-0.29 s0.51,0.1,0.71,0.29l0.71,0.71l0.71-0.71L18.62,4.92z"/></g></g>
    </svg>
  </g>
  <!-- Icon 18: 24px -->
  <g transform="translate(376, 212)">
    <rect width="48" height="48" fill="#ffffff" stroke="#e9ecef" stroke-width="1" rx="4"/>
    <svg x="8" y="8" width="32" height="32" viewBox="0 0 24 24">
      <g><rect fill="#2563eb" height="24" width="24"/></g><g><g><rect height="2" width="6" x="15" y="5"/><polygon points="9,5 3,5 3,7 7.85,7 14.77,19 21,19 21,17 15.93,17"/></g></g>
    </svg>
  </g>
  <!-- Icon 19: 24px -->
  <g transform="translate(436, 212)">
    <rect width="48" height="48" fill="#ffffff" stroke="#e9ecef" stroke-width="1" rx="4"/>
    <svg x="8" y="8" width="32" height="32" viewBox="0 0 24 24">
      <path d="M0 0h24v24H0V0z" fill="#2563eb"/><path d="M15.73 3H8.27L3 8.27v7.46L8.27 21h7.46L21 15.73V8.27L15.73 3zM19 14.9L14.9 19H9.1L5 14.9V9.1L9.1 5h5.8L19 9.1v5.8z"/><circle cx="12" cy="16" r="1"/><path d="M11 7h2v7h-2z"/>
    </svg>
  </g>
  <!-- Icon 20: 24px -->
  <g transform="translate(496, 212)">
    <rect width="48" height="48" fill="#ffffff" stroke="#e9ecef" stroke-width="1" rx="4"/>
    <svg x="8" y="8" width="32" height="32" viewBox="0 0 24 24">
      <path d="M0 0h24v24H0V0z" fill="#2563eb"/><path d="M5 4v3h5.5v12h3V7H19V4H5z"/>
    </svg>
  </g>
  <!-- Icon 21: 24px -->
  <g transform="translate(556, 212)">
    <rect width="48" height="48" fill="#ffffff" stroke="#e9ecef" stroke-width="1" rx="4"/>
    <svg x="8" y="8" width="32" height="32" viewBox="0 0 24 24">
      <g><rect fill="#2563eb" height="24" width="24"/></g><g><path d="M17.2,3H6.8l-5.2,9l5.2,9h10.4l5.2-9L17.2,3z M16.05,19H7.95l-4.04-7l4.04-7h8.09l4.04,7L16.05,19z"/></g>
    </svg>
  </g>
  <!-- Icon 22: 20px -->
  <g transform="translate(196, 272)">
    <rect width="48" height="48" fill="#ffffff" stroke="#e9ecef" stroke-width="1" rx="4"/>
    <svg x="8" y="8" width="32" height="32" viewBox="0 0 20 20">
      <rect fill="#2563eb" height="20" width="20"/><g><path d="M17.78,17.78L2.22,2.22L1.16,3.28L2.38,4.5C2.14,4.77,2,5.12,2,5.5v9C2,15.33,2.67,16,3.5,16h10.38l2.84,2.84L17.78,17.78z M3.5,14.5V7h1.38l7.5,7.5H3.5z M6.12,4H16.5C17.33,4,18,4.67,18,5.5v9c0,0.38-0.14,0.73-0.38,1l-1.12-1.12V7H9.12L6.12,4z"/></g>
    </svg>
  </g>
  <!-- Icon 23: 24px -->
  <g transform="translate(256, 272)">
    <rect width="48" height="48" fill="#ffffff" stroke="#e9ecef" stroke-width="1" rx="4"/>
    <svg x="8" y="8" width="32" height="32" viewBox="0 0 24 24">
      <path d="M0 0h24v24H0V0z" fill="#2563eb"/><path d="M12 14c1.66 0 3-1.34 3-3V5c0-1.66-1.34-3-3-3S9 3.34 9 5v6c0 1.66 1.34 3 3 3zm-1-9c0-.55.45-1 1-1s1 .45 1 1v6c0 .55-.45 1-1 1s-1-.45-1-1V5zm6 6c0 2.76-2.24 5-5 5s-5-2.24-5-5H5c0 3.53 2.61 6.43 6 6.92V21h2v-3.08c3.39-.49 6-3.39 6-6.92h-2z"/>
    </svg>
  </g>
  <!-- Icon 24: 20px -->
  <g transform="translate(316, 272)">
    <rect width="48" height="48" fill="#ffffff" stroke="#e9ecef" stroke-width="1" rx="4"/>
    <svg x="8" y="8" width="32" height="32" viewBox="0 0 20 20">
      <g><rect fill="#2563eb" height="20" width="20" x="0"/></g><g><g><path d="M10,13c1.12,0,2.12,0.42,2.91,1.09L10,17l-2.91-2.91C7.88,13.42,8.88,13,10,13z"/></g></g>
    </svg>
  </g>
  <!-- Icon 25: 24px -->
  <g transform="translate(376, 272)">
    <rect width="48" height="48" fill="#ffffff" stroke="#e9ecef" stroke-width="1" rx="4"/>
    <svg x="8" y="8" width="32" height="32" viewBox="0 0 24 24">
      <g><path d="M0,0h24v24H0V0z" fill="#2563eb"/></g><g><g><path d="M8,17h2v-1h1c0.55,0,1-0.45,1-1v-3c0-0.55-0.45-1-1-1H8v-1h4V8h-2V7H8v1H7C6.45,8,6,8.45,6,9v3c0,0.55,0.45,1,1,1h3v1H6v2 h2V17z M20,4H4C2.89,4,2.01,4.89,2.01,6L2,18c0,1.11,0.89,2,2,2h16c1.11,0,2-0.89,2-2V6C22,4.89,21.11,4,20,4z M20,18H4V6h16V18z M14,10l2-2l2,2 M18,14.25l-2,2l-2-2"/></g></g>
    </svg>
  </g>
  <!-- Icon 26: 24px -->
  <g transform="translate(436, 272)">
    <rect width="48" height="48" fill="#ffffff" stroke="#e9ecef" stroke-width="1" rx="4"/>
    <svg x="8" y="8" width="32" height="32" viewBox="0 0 24 24">
      <g><rect fill="#2563eb" height="24" width="24"/></g><g><g><g><path d="M7,17h1.09c0.28-1.67,1.24-3.1,2.6-4H7V17z"/></g><g><path d="M5,19V5h14v7h1c0.34,0,0.67,0.04,1,0.09V5c0-1.1-0.9-2-2-2H5C3.9,3,3,3.9,3,5v14c0,1.1,0.9,2,2,2h3.81 c-0.35-0.61-0.6-1.28-0.72-2H5z"/></g><g><rect height="4" width="4" x="7" y="7"/></g><g><rect height="4" width="4" x="13" y="7"/></g><path d="M16,20h-2c-1.1,0-2-0.9-2-2s0.9-2,2-2h2v-2h-2c-2.21,0-4,1.79-4,4c0,2.21,1.79,4,4,4h2V20z"/><path d="M20,14h-2v2h2c1.1,0,2,0.9,2,2s-0.9,2-2,2h-2v2h2c2.21,0,4-1.79,4-4C24,15.79,22.21,14,20,14z"/><polygon points="20,19 20,17 17,17 14,17 14,19 19,19"/></g></g>
    </svg>
  </g>
  <!-- Icon 27: 24px -->
  <g transform="translate(496, 272)">
    <rect width="48" height="48" fill="#ffffff" stroke="#e9ecef" stroke-width="1" rx="4"/>
    <svg x="8" y="8" width="32" height="32" viewBox="0 0 24 24">
      <g><rect fill="#2563eb" height="24" width="24"/></g><g><g><path d="M18,6v6.26l2,1V6c0-1.1-0.9-2-2-2h-4c0-1.38-1.12-2.5-2.5-2.5S9,2.62,9,4H5.01c-1.1,0-2,0.9-2,2v3.8 C5.7,9.8,6,11.96,6,12.5c0,0.54-0.29,2.7-3,2.7V19c0,1.1,0.9,2,2,2h3.8c0-2.16,1.37-2.78,2.2-2.94v-2.03 C9.57,16.2,7.85,17.07,7.13,19H5v-2.13c2.17-0.8,3-2.87,3-4.37c0-1.49-0.83-3.56-2.99-4.37V6H11V4c0-0.28,0.22-0.5,0.5-0.5 S12,3.72,12,4v2H18z"/><polygon points="13,12 13,16 17,17 13,18 13,22 23,17"/></g></g>
    </svg>
  </g>
  <!-- Icon 28: 24px -->
  <g transform="translate(556, 272)">
    <rect width="48" height="48" fill="#ffffff" stroke="#e9ecef" stroke-width="1" rx="4"/>
    <svg x="8" y="8" width="32" height="32" viewBox="0 0 24 24">
      <path d="M0 0h24v24H0z" fill="#2563eb"/><path d="M22 3H2C.9 3 0 3.9 0 5v14c0 1.1.9 2 2 2h20c1.1 0 1.99-.9 1.99-2L24 5c0-1.1-.9-2-2-2zm0 16H2V5h20v14zM21 6h-7v5h7V6zm-1 2l-2.5 1.75L15 8V7l2.5 1.75L20 7v1zM9 12c1.65 0 3-1.35 3-3s-1.35-3-3-3-3 1.35-3 3 1.35 3 3 3zm0-4c.55 0 1 .45 1 1s-.45 1-1 1-1-.45-1-1 .45-1 1-1zm6 8.59c0-2.5-3.97-3.58-6-3.58s-6 1.08-6 3.58V18h12v-1.41zM5.48 16c.74-.5 2.22-1 3.52-1s2.77.49 3.52 1H5.48z"/>
    </svg>
  </g>
  <!-- Icon 29: 24px -->
  <g transform="translate(196, 332)">
    <rect width="48" height="48" fill="#ffffff" stroke="#e9ecef" stroke-width="1" rx="4"/>
    <svg x="8" y="8" width="32" height="32" viewBox="0 0 24 24">
      <rect fill="#2563eb" height="24" width="24"/><path d="M2,7h4v10H2V7z M7,19h10V5H7V19z M9,7h6v10H9V7z M18,7h4v10h-4V7z"/>
    </svg>
  </g>
  <!-- Icon 30: 24px -->
  <g transform="translate(256, 332)">
    <rect width="48" height="48" fill="#ffffff" stroke="#e9ecef" stroke-width="1" rx="4"/>
    <svg x="8" y="8" width="32" height="32" viewBox="0 0 24 24">
      <g><rect fill="#2563eb" height="24" width="24"/></g><g><path d="M18.89,13.77l-3.8-1.67C14.96,12.04,14.81,12,14.65,12H14V7.5C14,6.12,12.88,5,11.5,5S9,6.12,9,7.5v8.15l-1.87-0.4 c-0.19-0.03-1.02-0.15-1.73,0.56L4,17.22l5.12,5.19C9.49,22.79,10,23,10.53,23h6.55c0.98,0,1.81-0.7,1.97-1.67l0.92-5.44 C20.12,15.03,19.68,14.17,18.89,13.77z M17.08,21h-6.55l-3.7-3.78L11,18.11V7.5C11,7.22,11.22,7,11.5,7S12,7.22,12,7.5v6.18h1.76 L18,15.56L17.08,21z M4.09,5.5H7V7H2V2h1.5v2.02C5.82,2.13,8.78,1,12,1c5.49,0,9.27,3.12,10,6h-1.57C19.67,5.02,16.74,2.5,12,2.5 C8.97,2.5,6.21,3.64,4.09,5.5z"/></g>
    </svg>
  </g>
  <!-- Icon 31: 24px -->
  <g transform="translate(316, 332)">
    <rect width="48" height="48" fill="#ffffff" stroke="#e9ecef" stroke-width="1" rx="4"/>
    <svg x="8" y="8" width="32" height="32" viewBox="0 0 24 24">
      <path d="M0 0h24v24H0z" fill="#2563eb"/><path d="M19 19h2v2h-2v-2zm0-2h2v-2h-2v2zM3 13h2v-2H3v2zm0 4h2v-2H3v2zm0-8h2V7H3v2zm0-4h2V3H3v2zm4 0h2V3H7v2zm8 16h2v-2h-2v2zm-4 0h2v-2h-2v2zm4 0h2v-2h-2v2zm-8 0h2v-2H7v2zm-4 0h2v-2H3v2zM21 8c0-2.76-2.24-5-5-5h-5v2h5c1.65 0 3 1.35 3 3v5h2V8z"/>
    </svg>
  </g>
  <!-- Icon 32: 24px -->
  <g transform="translate(376, 332)">
    <rect width="48" height="48" fill="#ffffff" stroke="#e9ecef" stroke-width="1" rx="4"/>
    <svg x="8" y="8" width="32" height="32" viewBox="0 0 24 24">
      <path d="M0 0h24v24H0V0z" fill="#2563eb"/><path d="M19 19H5V5h7V3H5c-1.11 0-2 .9-2 2v14c0 1.1.89 2 2 2h14c1.1 0 2-.9 2-2v-7h-2v7zM14 3v2h3.59l-9.83 9.83 1.41 1.41L19 6.41V10h2V3h-7z"/>
    </svg>
  </g>
  <!-- Icon 33: 24px -->
  <g transform="translate(436, 332)">
    <rect width="48" height="48" fill="#ffffff" stroke="#e9ecef" stroke-width="1" rx="4"/>
    <svg x="8" y="8" width="32" height="32" viewBox="0 0 24 24">
      <path d="M0 0h24v24H0V0z" fill="#2563eb"/><path d="M18 8h-1V6c0-2.76-2.24-5-5-5S7 3.24 7 6v2H6c-1.1 0-2 .9-2 2v10c0 1.1.9 2 2 2h12c1.1 0 2-.9 2-2V10c0-1.1-.9-2-2-2zM9 6c0-1.66 1.34-3 3-3s3 1.34 3 3v2H9V6zm9 14H6V10h12v10zm-6-3c1.1 0 2-.9 2-2s-.9-2-2-2-2 .9-2 2 .9 2 2 2z"/>
    </svg>
  </g>
  <!-- Icon 34: 24px -->
  <g transform="translate(496, 332)">
    <rect width="48" height="48" fill="#ffffff" stroke="#e9ecef" stroke-width="1" rx="4"/>
    <svg x="8" y="8" width="32" height="32" viewBox="0 0 24 24">
      <rect fill="#2563eb" height="24" width="24"/><path d="M5,10h14v2h2V6c0-1.1-0.9-2-2-2h-1V2h-2v2H8V2H6v2H5C3.89,4,3.01,4.9,3.01,6L3,20c0,1.1,0.89,2,2,2h7v-2H5V10z M5,6h14v2H5 V6z M22.84,16.28l-0.71,0.71l-2.12-2.12l0.71-0.71c0.39-0.39,1.02-0.39,1.41,0l0.71,0.71C23.23,15.26,23.23,15.89,22.84,16.28z M19.3,15.58l2.12,2.12l-5.3,5.3H14v-2.12L19.3,15.58z"/>
    </svg>
  </g>
  <!-- Icon 35: 24px -->
  <g transform="translate(556, 332)">
    <rect width="48" height="48" fill="#ffffff" stroke="#e9ecef" stroke-width="1" rx="4"/>
    <svg x="8" y="8" width="32" height="32" viewBox="0 0 24 24">
      <path d="M0 0h24v24H0V0z" fill="#2563eb"/><path d="M20 8h-2.81c-.45-.78-1.07-1.45-1.82-1.96L17 4.41 15.59 3l-2.17 2.17C12.96 5.06 12.49 5 12 5s-.96.06-1.41.17L8.41 3 7 4.41l1.62 1.63C7.88 6.55 7.26 7.22 6.81 8H4v2h2.09c-.05.33-.09.66-.09 1v1H4v2h2v1c0 .34.04.67.09 1H4v2h2.81c1.04 1.79 2.97 3 5.19 3s4.15-1.21 5.19-3H20v-2h-2.09c.05-.33.09-.66.09-1v-1h2v-2h-2v-1c0-.34-.04-.67-.09-1H20V8zm-4 4v3c0 .22-.03.47-.07.7l-.1.65-.37.65c-.72 1.24-2.04 2-3.46 2s-2.74-.77-3.46-2l-.37-.64-.1-.65C8.03 15.48 8 15.23 8 15v-4c0-.23.03-.48.07-.7l.1-.65.37-.65c.3-.52.72-.97 1.21-1.31l.57-.39.74-.18c.31-.08.63-.12.94-.12.32 0 .63.04.95.12l.68.16.61.42c.5.34.91.78 1.21 1.31l.38.65.1.65c.04.22.07.47.07.69v1zm-6 2h4v2h-4zm0-4h4v2h-4z"/>
    </svg>
  </g>
  
  <!-- Footer -->
  <text x="400" y="580" text-anchor="middle" font-family="system-ui, -apple-system, sans-serif" font-size="12" fill="#6c757d">
    Showing 35 of 2808 icons
  </text>
  
</svg>