<svg width="800" height="600" xmlns="http://www.w3.org/2000/svg">
  <!-- Background -->
  <rect width="800" height="600" fill="#ffffff"/>
  
  <!-- Header Background -->
  <rect width="800" height="80" fill="#f8f9fa"/>
  
  <!-- Title -->
  <text x="400" y="30" text-anchor="middle" font-family="system-ui, -apple-system, sans-serif" font-size="20" font-weight="bold" fill="#212529">Material Design Icons - filled</text>
  
  <!-- Subtitle -->
  <text x="400" y="55" text-anchor="middle" font-family="system-ui, -apple-system, sans-serif" font-size="14" fill="#6c757d">2,870 icons</text>
  
  <!-- Icon Grid -->
  <!-- Icon 1: 24px -->
  <g transform="translate(196, 92)">
    <rect width="48" height="48" fill="#ffffff" stroke="#e9ecef" stroke-width="1" rx="4"/>
    <svg x="8" y="8" width="32" height="32" viewBox="0 0 24 24">
      <path d="M0 0h24v24H0z" fill="#2563eb"/><path d="M17 7H7c-2.76 0-5 2.24-5 5s2.24 5 5 5h10c2.76 0 5-2.24 5-5s-2.24-5-5-5zm0 8c-1.66 0-3-1.34-3-3s1.34-3 3-3 3 1.34 3 3-1.34 3-3 3z"/>
    </svg>
  </g>
  <!-- Icon 2: 24px -->
  <g transform="translate(256, 92)">
    <rect width="48" height="48" fill="#ffffff" stroke="#e9ecef" stroke-width="1" rx="4"/>
    <svg x="8" y="8" width="32" height="32" viewBox="0 0 24 24">
      <path d="M0 0h24v24H0z" fill="#2563eb"/><path d="M21 3H3c-1.11 0-2 .89-2 2v12c0 1.1.89 2 2 2h5v2h8v-2h5c1.1 0 1.99-.9 1.99-2L23 5c0-1.11-.9-2-2-2zm0 14H3V5h18v12z"/>
    </svg>
  </g>
  <!-- Icon 3: 24px -->
  <g transform="translate(316, 92)">
    <rect width="48" height="48" fill="#ffffff" stroke="#e9ecef" stroke-width="1" rx="4"/>
    <svg x="8" y="8" width="32" height="32" viewBox="0 0 24 24">
      <path d="M0 0h24v24H0V0z" fill="#2563eb"/><title>Asset 1</title><path d="M14 10H9c-.6 0-1 .4-1 1v4h2v-3h4v2.5l3.5-3.5L14 7.5V10zm-2-9C5.9 1 1 5.9 1 12s4.9 11 11 11 11-4.9 11-11S18.1 1 12 1zm7.73 11.58l-7.19 7.22c-.35.27-.79.27-1.15 0L4.2 12.58c-.27-.36-.27-.8 0-1.16l7.19-7.22c.35-.27.79-.27 1.15 0l7.19 7.22c.36.27.36.8 0 1.16z"/>
    </svg>
  </g>
  <!-- Icon 4: 24px -->
  <g transform="translate(376, 92)">
    <rect width="48" height="48" fill="#ffffff" stroke="#e9ecef" stroke-width="1" rx="4"/>
    <svg x="8" y="8" width="32" height="32" viewBox="0 0 24 24">
      <g><rect fill="#2563eb" height="24" width="24"/><path d="M16,4c0-1.11,0.89-2,2-2s2,0.89,2,2s-0.89,2-2,2S16,5.11,16,4z M20,22v-6h2.5l-2.54-7.63C19.68,7.55,18.92,7,18.06,7h-0.12 c-0.86,0-1.63,0.55-1.9,1.37l-0.86,2.58C16.26,11.55,17,12.68,17,14v8H20z M12.5,11.5c0.83,0,1.5-0.67,1.5-1.5s-0.67-1.5-1.5-1.5 S11,9.17,11,10S11.67,11.5,12.5,11.5z M5.5,6c1.11,0,2-0.89,2-2s-0.89-2-2-2s-2,0.89-2,2S4.39,6,5.5,6z M7.5,22v-7H9V9 c0-1.1-0.9-2-2-2H4C2.9,7,2,7.9,2,9v6h1.5v7H7.5z M14,22v-4h1v-4c0-0.82-0.68-1.5-1.5-1.5h-2c-0.82,0-1.5,0.68-1.5,1.5v4h1v4H14z"/></g>
    </svg>
  </g>
  <!-- Icon 5: 20px -->
  <g transform="translate(436, 92)">
    <rect width="48" height="48" fill="#ffffff" stroke="#e9ecef" stroke-width="1" rx="4"/>
    <svg x="8" y="8" width="32" height="32" viewBox="0 0 20 20">
      <rect fill="#2563eb" height="20" width="20"/><path d="M14.44,5.76C14.09,3.63,12.23,2,10,2C8.36,2,6.87,2.88,6.09,4.3C4.07,4.57,2.5,6.3,2.5,8.37c0,2.27,1.85,4.12,4.12,4.12h7.5 c1.86,0,3.38-1.52,3.38-3.38C17.5,7.37,16.16,5.93,14.44,5.76z M14.5,14c0.41,0,0.75,0.34,0.75,0.75s-0.34,0.75-0.75,0.75 s-0.75-0.34-0.75-0.75S14.09,14,14.5,14z M6.25,16.5C6.66,16.5,7,16.84,7,17.25S6.66,18,6.25,18S5.5,17.67,5.5,17.25 S5.84,16.5,6.25,16.5z M4.75,14.75C4.75,14.34,5.09,14,5.5,14h6.75c0.41,0,0.75,0.34,0.75,0.75s-0.34,0.75-0.75,0.75H5.5 C5.09,15.5,4.75,15.17,4.75,14.75z M7.75,17.25c0-0.41,0.34-0.75,0.75-0.75h5.25c0.41,0,0.75,0.34,0.75,0.75S14.16,18,13.75,18H8.5 C8.09,18,7.75,17.67,7.75,17.25z"/>
    </svg>
  </g>
  <!-- Icon 6: 24px -->
  <g transform="translate(496, 92)">
    <rect width="48" height="48" fill="#ffffff" stroke="#e9ecef" stroke-width="1" rx="4"/>
    <svg x="8" y="8" width="32" height="32" viewBox="0 0 24 24">
      <g><rect fill="#2563eb" height="24" width="24"/></g><g><path d="M7,5L3,7V3L7,5z M18,3v4l4-2L18,3z M11,2v4l4-2L11,2z M5,10.04C6.38,10.53,8.77,11,12,11s5.62-0.47,7-0.96 C19,9.86,16.22,9,12,9S5,9.86,5,10.04z M15,17H9l0,4.88C4.94,21.49,2,20.34,2,19v-9c0-1.66,4.48-3,10-3s10,1.34,10,3v9 c0,1.34-2.94,2.48-7,2.87L15,17z"/></g>
    </svg>
  </g>
  <!-- Icon 7: 20px -->
  <g transform="translate(556, 92)">
    <rect width="48" height="48" fill="#ffffff" stroke="#e9ecef" stroke-width="1" rx="4"/>
    <svg x="8" y="8" width="32" height="32" viewBox="0 0 20 20">
      <g><rect fill="#2563eb" height="20" width="20"/></g><g><g><path d="M16,6h-3V4c0-0.55-0.45-1-1-1H8C7.45,3,7,3.45,7,4v2H4C3.45,6,3,6.45,3,7v9c0,0.55,0.45,1,1,1h12c0.55,0,1-0.45,1-1V7 C17,6.45,16.55,6,16,6z M8,4h4v2H8V4z M12.5,12h-2v2h-1v-2h-2v-1h2V9h1v2h2V12z"/></g></g>
    </svg>
  </g>
  <!-- Icon 8: 24px -->
  <g transform="translate(196, 152)">
    <rect width="48" height="48" fill="#ffffff" stroke="#e9ecef" stroke-width="1" rx="4"/>
    <svg x="8" y="8" width="32" height="32" viewBox="0 0 24 24">
      <g><rect fill="#2563eb" height="24" width="24"/></g><g><path d="M12,9c-3.15,0-6,2.41-6,6.15c0,2.49,2,5.44,6,8.85c4-3.41,6-6.36,6-8.85C18,11.41,15.15,9,12,9z M12,16.5 c-0.83,0-1.5-0.67-1.5-1.5s0.67-1.5,1.5-1.5s1.5,0.67,1.5,1.5S12.83,16.5,12,16.5z M12,4c1.93,0,3.68,0.78,4.95,2.05l-1.41,1.41 C14.63,6.56,13.38,6,12,6S9.37,6.56,8.46,7.46L7.05,6.05C8.32,4.78,10.07,4,12,4z M19.78,3.23l-1.41,1.41 C16.74,3.01,14.49,2,12.01,2S7.27,3.01,5.64,4.63L4.22,3.22C6.22,1.23,8.97,0,12.01,0S17.79,1.23,19.78,3.23z"/></g>
    </svg>
  </g>
  <!-- Icon 9: 24px -->
  <g transform="translate(256, 152)">
    <rect width="48" height="48" fill="#ffffff" stroke="#e9ecef" stroke-width="1" rx="4"/>
    <svg x="8" y="8" width="32" height="32" viewBox="0 0 24 24">
      <path d="M0 0h24v24H0z" fill="#2563eb"/><path d="M19 1H5c-1.1 0-1.99.9-1.99 2L3 15.93c0 .69.35 1.3.88 1.66L12 23l8.11-5.41c.53-.36.88-.97.88-1.66L21 3c0-1.1-.9-2-2-2zm-9 15l-5-5 1.41-1.41L10 13.17l7.59-7.59L19 7l-9 9z"/>
    </svg>
  </g>
  <!-- Icon 10: 20px -->
  <g transform="translate(316, 152)">
    <rect width="48" height="48" fill="#ffffff" stroke="#e9ecef" stroke-width="1" rx="4"/>
    <svg x="8" y="8" width="32" height="32" viewBox="0 0 20 20">
      <g><rect fill="#2563eb" height="20" width="20"/></g><g><g><path d="M10,6.5c1.93,0,3.5,1.57,3.5,3.5c0,0.41-0.08,0.8-0.21,1.17l1.14,1.14C14.79,11.62,15,10.83,15,10 c0-1.65-0.81-3.1-2.04-4.01L12,2H8L7.25,5.13l1.59,1.59C9.2,6.58,9.59,6.5,10,6.5z"/><path d="M2.93,2.93L1.87,3.99l3.7,3.7C5.21,8.38,5,9.17,5,10c0,1.64,0.8,3.07,2.01,3.99L8,18h4l0.77-3.11l3.24,3.24l1.06-1.06 L2.93,2.93z M10,13.5c-1.93,0-3.5-1.57-3.5-3.5c0-0.41,0.08-0.8,0.21-1.17l4.45,4.45C10.8,13.42,10.41,13.5,10,13.5z"/></g></g>
    </svg>
  </g>
  <!-- Icon 11: 24px -->
  <g transform="translate(376, 152)">
    <rect width="48" height="48" fill="#ffffff" stroke="#e9ecef" stroke-width="1" rx="4"/>
    <svg x="8" y="8" width="32" height="32" viewBox="0 0 24 24">
      <path d="M0 0h24v24H0z" fill="#2563eb"/><path d="M0 0h24v24H0V0z" fill="#2563eb"/><path d="M17 16l-4-4V8.82C14.16 8.4 15 7.3 15 6c0-1.66-1.34-3-3-3S9 4.34 9 6c0 1.3.84 2.4 2 2.82V12l-4 4H3v5h5v-3.05l4-4.2 4 4.2V21h5v-5h-4z"/>
    </svg>
  </g>
  <!-- Icon 12: 20px -->
  <g transform="translate(436, 152)">
    <rect width="48" height="48" fill="#ffffff" stroke="#e9ecef" stroke-width="1" rx="4"/>
    <svg x="8" y="8" width="32" height="32" viewBox="0 0 20 20">
      <g><rect fill="#2563eb" height="20" width="20"/></g><g><g><path d="M15.82,13.55l-0.62-5.76C15.08,6.77,14.23,6,13.21,6H6.79C5.77,6,4.92,6.77,4.81,7.78l-0.62,5.76 C4.09,14.32,4.69,15,5.46,15c0.34,0,0.67-0.14,0.91-0.38L8,13h4l1.62,1.62c0.24,0.24,0.57,0.38,0.91,0.38 C15.31,15,15.91,14.32,15.82,13.55z M9.25,9.75H8V11H7.5V9.75H6.25v-0.5H7.5V8H8v1.25h1.25V9.75z M11.5,9C11.22,9,11,8.78,11,8.5 C11,8.22,11.22,8,11.5,8S12,8.22,12,8.5C12,8.78,11.78,9,11.5,9z M12.5,11c-0.28,0-0.5-0.22-0.5-0.5c0-0.28,0.22-0.5,0.5-0.5 s0.5,0.22,0.5,0.5C13,10.78,12.78,11,12.5,11z"/></g></g>
    </svg>
  </g>
  <!-- Icon 13: 24px -->
  <g transform="translate(496, 152)">
    <rect width="48" height="48" fill="#ffffff" stroke="#e9ecef" stroke-width="1" rx="4"/>
    <svg x="8" y="8" width="32" height="32" viewBox="0 0 24 24">
      <g><rect fill="#2563eb" height="24" width="24"/></g><g><path d="M13,8c0-2.21-1.79-4-4-4S5,5.79,5,8s1.79,4,4,4S13,10.21,13,8z M15,10v2h3v3h2v-3h3v-2h-3V7h-2v3H15z M1,18v2h16v-2 c0-2.66-5.33-4-8-4S1,15.34,1,18z"/></g>
    </svg>
  </g>
  <!-- Icon 14: 20px -->
  <g transform="translate(556, 152)">
    <rect width="48" height="48" fill="#ffffff" stroke="#e9ecef" stroke-width="1" rx="4"/>
    <svg x="8" y="8" width="32" height="32" viewBox="0 0 20 20">
      <g><rect fill="#2563eb" height="20" width="20"/><rect fill="#2563eb" height="20" width="20"/></g><g><g><g><circle cx="6" cy="7" r="3"/></g><g><path d="M11.03,12.37C9.56,11.5,7.84,11,6,11s-3.56,0.5-5.03,1.37C0.36,12.72,0,13.39,0,14.09V16h12v-1.91 C12,13.39,11.64,12.72,11.03,12.37z"/></g><g><path d="M15.03,12.37c-0.92-0.54-1.94-0.92-3.02-1.14c0.92,0.64,1.48,1.71,1.48,2.86V16H16v-1.91 C16,13.39,15.64,12.72,15.03,12.37z"/></g><g><path d="M10,10c1.66,0,3-1.34,3-3s-1.34-3-3-3C9.79,4,9.58,4.02,9.38,4.06C10.07,4.85,10.5,5.87,10.5,7 c0,1.13-0.43,2.14-1.12,2.93C9.58,9.98,9.79,10,10,10z"/></g><g><polygon points="19.5,7.75 17.75,7.75 17.75,6 16.25,6 16.25,7.75 14.5,7.75 14.5,9.25 16.25,9.25 16.25,11 17.75,11 17.75,9.25 19.5,9.25"/></g></g></g>
    </svg>
  </g>
  <!-- Icon 15: 20px -->
  <g transform="translate(196, 212)">
    <rect width="48" height="48" fill="#ffffff" stroke="#e9ecef" stroke-width="1" rx="4"/>
    <svg x="8" y="8" width="32" height="32" viewBox="0 0 20 20">
      <rect fill="#2563eb" height="20" width="20"/><g><path d="M9.4,10.69c0.07-0.18,0.1-0.37,0.1-0.57C9.5,8,6,8,6,8s0.25,0.27,0.24,1.25l0.01,0.88c0,0.9,0.73,1.62,1.62,1.62 c0.42,0,0.8-0.16,1.09-0.42c0.16,0.4,0.4,1.1,0.42,1.72c-1.06,0.16-1.96,0.73-2.46,1.51C5.46,13.57,4.5,11.9,4.5,10 c0-3.03,2.47-5.5,5.5-5.5h0v2l3.5-3.25L10,0v2h0c-4.42,0-8,3.58-8,8s3.58,8,8,8s8-3.58,8-8h-2.5c0,1.9-0.97,3.57-2.43,4.56 c-0.49-0.77-1.36-1.33-2.39-1.5c0.11-0.95,0.33-1.57,0.63-2.38C11.63,10.88,12,11,12.4,11C15,11,15,6.91,15,6c0,0-0.5,1-2,1h-0.6 c-1.1,0-2,0.9-2,2c0,0.38,0.11,0.74,0.29,1.04c0.14-0.15,1.05-1.09,1.81-1.54c-0.48,0.4-1.78,1.93-2.5,3.71 C9.42,11.08,8.51,10.17,8.25,10C8.69,10.17,9.24,10.58,9.4,10.69z"/></g>
    </svg>
  </g>
  <!-- Icon 16: 24px -->
  <g transform="translate(256, 212)">
    <rect width="48" height="48" fill="#ffffff" stroke="#e9ecef" stroke-width="1" rx="4"/>
    <svg x="8" y="8" width="32" height="32" viewBox="0 0 24 24">
      <path d="M0 0h24v24H0z" fill="#2563eb"/><path d="M10 18h4v-2h-4v2zM3 6v2h18V6H3zm3 7h12v-2H6v2z"/>
    </svg>
  </g>
  <!-- Icon 17: 20px -->
  <g transform="translate(316, 212)">
    <rect width="48" height="48" fill="#ffffff" stroke="#e9ecef" stroke-width="1" rx="4"/>
    <svg x="8" y="8" width="32" height="32" viewBox="0 0 20 20">
      <g><rect fill="#2563eb" height="20" width="20"/></g><g><g><g><path d="M9,11l5,5l5-5l-5-5L9,11z"/><path d="M2,11c0,3.87,3.13,7,7,7c1.43,0,2.76-0.43,3.86-1.17l-1.09-1.09C10.96,16.22,10.01,16.5,9,16.5c-3.03,0-5.5-2.47-5.5-5.5 S5.97,5.5,9,5.5v2.25l3-3l-3-3V4C5.13,4,2,7.13,2,11z"/></g></g></g>
    </svg>
  </g>
  <!-- Icon 18: 24px -->
  <g transform="translate(376, 212)">
    <rect width="48" height="48" fill="#ffffff" stroke="#e9ecef" stroke-width="1" rx="4"/>
    <svg x="8" y="8" width="32" height="32" viewBox="0 0 24 24">
      <path d="M0 0h24v24H0z" fill="#2563eb"/><path d="M12 2c3.31 0 6 2.69 6 6s-2.69 6-6 6-6-2.69-6-6 2.69-6 6-6zm0 2C9.79 4 8 5.79 8 8s1.79 4 4 4 4-1.79 4-4-1.79-4-4-4zm1 7h-2V9H9V7h2V5h2v2h2v2h-2v2zm11 9h-2v2h-1.5v-2h-2v-1.5h2v-2H22v2h2V20zm-6-1.5c0 .6-.4 1.1-.9 1.4L18 22h-1.5l-.9-2h-1.1v2H13v-6h3.5c.8 0 1.5.7 1.5 1.5v1zm-1.5 0v-1h-2v1h2zm-13-.5v-2H5v6H3.5v-2.5h-2V22H0v-6h1.5v2h2zm6.5-2c.8 0 1.5.7 1.5 1.5v3c0 .8-.7 1.5-1.5 1.5H6.5v-6H10zm0 4.5v-3H8v3h2z"/>
    </svg>
  </g>
  <!-- Icon 19: 24px -->
  <g transform="translate(436, 212)">
    <rect width="48" height="48" fill="#ffffff" stroke="#e9ecef" stroke-width="1" rx="4"/>
    <svg x="8" y="8" width="32" height="32" viewBox="0 0 24 24">
      <path d="M0 0h24v24H0z" fill="#2563eb"/><path d="M10 3H5c-1.1 0-2 .9-2 2v14c0 1.1.9 2 2 2h5v2h2V1h-2v2zm0 15H5l5-6v6zm9-15h-5v2h5v13l-5-6v9h5c1.1 0 2-.9 2-2V5c0-1.1-.9-2-2-2z"/>
    </svg>
  </g>
  <!-- Icon 20: 24px -->
  <g transform="translate(496, 212)">
    <rect width="48" height="48" fill="#ffffff" stroke="#e9ecef" stroke-width="1" rx="4"/>
    <svg x="8" y="8" width="32" height="32" viewBox="0 0 24 24">
      <g><path d="M0,0h24v24H0V0z" fill="#2563eb"/></g><g><g><path d="M21.98,11L24,8.98C20.93,5.9,16.69,4,12,4C7.31,4,3.07,5.9,0,8.98l6.35,6.36L12,21l3.05-3.05V15 c0-0.45,0.09-0.88,0.23-1.29c0.54-1.57,2.01-2.71,3.77-2.71H21.98z"/><path d="M22,16v-1c0-1.1-0.9-2-2-2s-2,0.9-2,2v1c-0.55,0-1,0.45-1,1v3c0,0.55,0.45,1,1,1h4c0.55,0,1-0.45,1-1v-3 C23,16.45,22.55,16,22,16z M21,16h-2v-1c0-0.55,0.45-1,1-1s1,0.45,1,1V16z"/></g></g>
    </svg>
  </g>
  <!-- Icon 21: 24px -->
  <g transform="translate(556, 212)">
    <rect width="48" height="48" fill="#ffffff" stroke="#e9ecef" stroke-width="1" rx="4"/>
    <svg x="8" y="8" width="32" height="32" viewBox="0 0 24 24">
      <g><path d="M0,0h24v24H0V0z" fill="#2563eb"/></g><g><g><path d="M12,5V2L8,6l4,4V7c3.31,0,6,2.69,6,6c0,2.97-2.17,5.43-5,5.91v2.02c3.95-0.49,7-3.85,7-7.93C20,8.58,16.42,5,12,5z"/><path d="M6,13c0-1.65,0.67-3.15,1.76-4.24L6.34,7.34C4.9,8.79,4,10.79,4,13c0,4.08,3.05,7.44,7,7.93v-2.02 C8.17,18.43,6,15.97,6,13z"/></g></g>
    </svg>
  </g>
  <!-- Icon 22: 20px -->
  <g transform="translate(196, 272)">
    <rect width="48" height="48" fill="#ffffff" stroke="#e9ecef" stroke-width="1" rx="4"/>
    <svg x="8" y="8" width="32" height="32" viewBox="0 0 20 20">
      <g><rect fill="#2563eb" height="20" width="20"/></g><g><g><g><path d="M16.56,11.53l-5.97,5.97L3,9.91v1.5c0,0.4,0.16,0.78,0.44,1.06l6.09,6.09C9.82,18.85,10.21,19,10.59,19 c0.38,0,0.77-0.15,1.06-0.44l4.91-4.91C17.15,13.07,17.15,12.12,16.56,11.53L16.56,11.53z"/></g><g><path d="M9.53,14.56c0.59,0.59,1.54,0.59,2.12,0l4.91-4.91c0.59-0.59,0.59-1.54,0-2.12l-6.09-6.09C10.19,1.16,9.81,1,9.41,1H4.5 C3.67,1,3,1.67,3,2.5v4.91c0,0.4,0.16,0.78,0.44,1.06L9.53,14.56z M6.5,3.5c0.55,0,1,0.45,1,1s-0.45,1-1,1s-1-0.45-1-1 S5.95,3.5,6.5,3.5z"/></g></g></g>
    </svg>
  </g>
  <!-- Icon 23: 20px -->
  <g transform="translate(256, 272)">
    <rect width="48" height="48" fill="#ffffff" stroke="#e9ecef" stroke-width="1" rx="4"/>
    <svg x="8" y="8" width="32" height="32" viewBox="0 0 20 20">
      <rect fill="#2563eb" height="20" width="20"/><path d="M10,3C8.34,3,7,4.34,7,6c0,1.66,1.34,3,3,3s3-1.34,3-3C13,4.34,11.66,3,10,3z M14,11c-1.66,0-3,1.34-3,3c0,1.66,1.34,3,3,3 s3-1.34,3-3C17,12.34,15.66,11,14,11z M6,11c-1.66,0-3,1.34-3,3c0,1.66,1.34,3,3,3s3-1.34,3-3C9,12.34,7.66,11,6,11z"/>
    </svg>
  </g>
  <!-- Icon 24: 20px -->
  <g transform="translate(316, 272)">
    <rect width="48" height="48" fill="#ffffff" stroke="#e9ecef" stroke-width="1" rx="4"/>
    <svg x="8" y="8" width="32" height="32" viewBox="0 0 20 20">
      <g><rect fill="#2563eb" height="20" width="20"/></g><g><g><path d="M15,4H5C4.45,4,4,4.45,4,5v10c0,0.55,0.45,1,1,1h10c0.55,0,1-0.45,1-1V5C16,4.45,15.55,4,15,4z M15,15H5V7h10V15z"/><polygon points="13.18,9.23 12.47,8.53 8.94,12.06 7.53,10.65 6.82,11.35 8.94,13.47"/></g></g>
    </svg>
  </g>
  <!-- Icon 25: 24px -->
  <g transform="translate(376, 272)">
    <rect width="48" height="48" fill="#ffffff" stroke="#e9ecef" stroke-width="1" rx="4"/>
    <svg x="8" y="8" width="32" height="32" viewBox="0 0 24 24">
      <g><rect fill="#2563eb" height="24" width="24" x="0"/></g><g><g><g><path d="M21,3H3C1.89,3,1,3.89,1,5v12c0,1.1,0.89,2,2,2h5v2h8v-2h2v-2H3V5h18v8h2V5C23,3.89,22.1,3,21,3z M13,10V7h-2v3H8v2h3v3 h2v-3h3v-2H13z M24,18l-4.5,4.5L18,21l3-3l-3-3l1.5-1.5L24,18z"/></g></g></g>
    </svg>
  </g>
  <!-- Icon 26: 24px -->
  <g transform="translate(436, 272)">
    <rect width="48" height="48" fill="#ffffff" stroke="#e9ecef" stroke-width="1" rx="4"/>
    <svg x="8" y="8" width="32" height="32" viewBox="0 0 24 24">
      <path d="M0 0h24v24H0V0z" fill="#2563eb"/><path d="M8 10h1.5v1.5H8zm11-7H5c-1.1 0-2 .9-2 2v14c0 1.1.9 2 2 2h14c1.1 0 2-.9 2-2V5c0-1.1-.9-2-2-2zm-8 11c0 .55-.45 1-1 1H6.5v-1.5h3v-1h-2c-.55 0-1-.45-1-1V10c0-.55.45-1 1-1H10c.55 0 1 .45 1 1v4zm7 1h-1.75l-1.75-2.25V15H13V9h1.5v2.25L16.25 9H18l-2.25 3L18 15z"/>
    </svg>
  </g>
  <!-- Icon 27: 24px -->
  <g transform="translate(496, 272)">
    <rect width="48" height="48" fill="#ffffff" stroke="#e9ecef" stroke-width="1" rx="4"/>
    <svg x="8" y="8" width="32" height="32" viewBox="0 0 24 24">
      <g><rect fill="#2563eb" height="24" width="24"/></g><g><path d="M10.53,7.43c0.42-0.31,0.93-0.47,1.54-0.47s1.11,0.16,1.5,0.49c0.39,0.32,0.65,0.7,0.79,1.12l1.89-0.8 c-0.24-0.71-0.71-1.35-1.4-1.92c-0.5-0.4-1.12-0.65-1.85-0.77V3h-2v2.11c-0.41,0.08-0.79,0.21-1.14,0.39 c-0.35,0.18-0.64,0.39-0.9,0.63l1.43,1.43C10.43,7.52,10.48,7.47,10.53,7.43z M2.81,2.81L1.39,4.22l12.35,12.35 C13.31,16.85,12.79,17,12.19,17c-0.71,0-1.32-0.23-1.83-0.7c-0.5-0.47-0.86-1.07-1.06-1.81l-1.98,0.8 c0.34,1.17,0.95,2.08,1.83,2.73c0.57,0.42,1.19,0.68,1.85,0.83V21h2v-2.08c0.44-0.07,0.87-0.17,1.29-0.35 c0.34-0.14,0.64-0.32,0.92-0.53l4.57,4.57l1.41-1.41L2.81,2.81z"/></g>
    </svg>
  </g>
  <!-- Icon 28: 24px -->
  <g transform="translate(556, 272)">
    <rect width="48" height="48" fill="#ffffff" stroke="#e9ecef" stroke-width="1" rx="4"/>
    <svg x="8" y="8" width="32" height="32" viewBox="0 0 24 24">
      <path d="M0 0h24v24H0z" fill="#2563eb"/><path d="M7 5h2V3H7v2zm0 8h2v-2H7v2zm0 8h2v-2H7v2zm4-4h2v-2h-2v2zm0 4h2v-2h-2v2zm-8 0h2v-2H3v2zm0-4h2v-2H3v2zm0-4h2v-2H3v2zm0-4h2V7H3v2zm0-4h2V3H3v2zm8 8h2v-2h-2v2zm8 4h2v-2h-2v2zm0-4h2v-2h-2v2zm0 8h2v-2h-2v2zm0-12h2V7h-2v2zm-8 0h2V7h-2v2zm8-6v2h2V3h-2zm-8 2h2V3h-2v2zm4 16h2v-2h-2v2zm0-8h2v-2h-2v2zm0-8h2V3h-2v2z"/>
    </svg>
  </g>
  <!-- Icon 29: 24px -->
  <g transform="translate(196, 332)">
    <rect width="48" height="48" fill="#ffffff" stroke="#e9ecef" stroke-width="1" rx="4"/>
    <svg x="8" y="8" width="32" height="32" viewBox="0 0 24 24">
      <g><rect fill="#2563eb" height="24" width="24" x="0"/></g><g><g><g><path d="M21,10.12h-6.78l2.74-2.82c-2.73-2.7-7.15-2.8-9.88-0.1c-2.73,2.71-2.73,7.08,0,9.79s7.15,2.71,9.88,0 C18.32,15.65,19,14.08,19,12.1h2c0,1.98-0.88,4.55-2.64,6.29c-3.51,3.48-9.21,3.48-12.72,0c-3.5-3.47-3.53-9.11-0.02-12.58 s9.14-3.47,12.65,0L21,3V10.12z M12.5,8v4.25l3.5,2.08l-0.72,1.21L11,13V8H12.5z"/></g></g></g>
    </svg>
  </g>
  <!-- Icon 30: 20px -->
  <g transform="translate(256, 332)">
    <rect width="48" height="48" fill="#ffffff" stroke="#e9ecef" stroke-width="1" rx="4"/>
    <svg x="8" y="8" width="32" height="32" viewBox="0 0 20 20">
      <g><rect fill="#2563eb" height="20" width="20"/></g><g><g><g><path d="M16,12v1h-1.59l2.46,2.46C16.95,15.32,17,15.17,17,15V5c0-0.55-0.45-1-1-1H5.41l8,8H16z"/><path d="M2.93,2.93L2.22,3.64l0.9,0.9C3.05,4.68,3,4.83,3,5v10c0,0.55,0.45,1,1,1h10.59l1.78,1.78l0.71-0.71L2.93,2.93z M8,12 h2.59l1,1H8V12z M4,12h3v1H4V12z M12,15H4v-1h8V15z"/></g></g></g>
    </svg>
  </g>
  <!-- Icon 31: 24px -->
  <g transform="translate(316, 332)">
    <rect width="48" height="48" fill="#ffffff" stroke="#e9ecef" stroke-width="1" rx="4"/>
    <svg x="8" y="8" width="32" height="32" viewBox="0 0 24 24">
      <path d="M0 0h24v24H0z" fill="#2563eb"/><path d="M20 6h-2.18c.11-.31.18-.65.18-1 0-1.66-1.34-3-3-3-1.05 0-1.96.54-2.5 1.35l-.5.67-.5-.68C10.96 2.54 10.05 2 9 2 7.34 2 6 3.34 6 5c0 .35.07.69.18 1H4c-1.11 0-1.99.89-1.99 2L2 19c0 1.11.89 2 2 2h16c1.11 0 2-.89 2-2V8c0-1.11-.89-2-2-2zm-5-2c.55 0 1 .45 1 1s-.45 1-1 1-1-.45-1-1 .45-1 1-1zM9 4c.55 0 1 .45 1 1s-.45 1-1 1-1-.45-1-1 .45-1 1-1zm11 15H4v-2h16v2zm0-5H4V8h5.08L7 10.83 8.62 12 11 8.76l1-1.36 1 1.36L15.38 12 17 10.83 14.92 8H20v6z"/>
    </svg>
  </g>
  <!-- Icon 32: 24px -->
  <g transform="translate(376, 332)">
    <rect width="48" height="48" fill="#ffffff" stroke="#e9ecef" stroke-width="1" rx="4"/>
    <svg x="8" y="8" width="32" height="32" viewBox="0 0 24 24">
      <g><rect fill="#2563eb" height="24" width="24"/></g><g><g><path d="M15.18,10.94c0.2-0.44,0.32-0.92,0.32-1.44C15.5,7.57,13.93,6,12,6c-0.52,0-1,0.12-1.44,0.32L15.18,10.94z"/><path d="M12,2C6.48,2,2,6.48,2,12s4.48,10,10,10s10-4.48,10-10S17.52,2,12,2z M12,15c-2.32,0-4.45,0.8-6.14,2.12 C4.7,15.73,4,13.95,4,12c0-1.85,0.63-3.55,1.69-4.9l2.86,2.86c0.21,1.56,1.43,2.79,2.99,2.99l2.2,2.2C13.17,15.05,12.59,15,12,15z M18.31,16.9L7.1,5.69C8.45,4.63,10.15,4,12,4c4.42,0,8,3.58,8,8C20,13.85,19.37,15.54,18.31,16.9z"/></g></g>
    </svg>
  </g>
  <!-- Icon 33: 20px -->
  <g transform="translate(436, 332)">
    <rect width="48" height="48" fill="#ffffff" stroke="#e9ecef" stroke-width="1" rx="4"/>
    <svg x="8" y="8" width="32" height="32" viewBox="0 0 20 20">
      <rect fill="#2563eb" height="20" width="20"/><path d="M7.06 8H1l4.94 3.93L4.06 18 9 14.25 13.94 18l-1.88-6.07L17 8h-6.06L9 2 7.06 8zm4.3-3.56.67 2.06h1.58L12.15 2l-.79 2.44zM16.9 10l-3.1 2.47 1.23 3.97L17.08 18l-1.55-5 3.77-3h-2.4z"/>
    </svg>
  </g>
  <!-- Icon 34: 24px -->
  <g transform="translate(496, 332)">
    <rect width="48" height="48" fill="#ffffff" stroke="#e9ecef" stroke-width="1" rx="4"/>
    <svg x="8" y="8" width="32" height="32" viewBox="0 0 24 24">
      <path d="M0 0h24v24H0z" fill="#2563eb"/><path d="M18 7l-1.41-1.41-6.34 6.34 1.41 1.41L18 7zm4.24-1.41L11.66 16.17 7.48 12l-1.41 1.41L11.66 19l12-12-1.42-1.41zM.41 13.41L6 19l1.41-1.41L1.83 12 .41 13.41z"/>
    </svg>
  </g>
  <!-- Icon 35: 20px -->
  <g transform="translate(556, 332)">
    <rect width="48" height="48" fill="#ffffff" stroke="#e9ecef" stroke-width="1" rx="4"/>
    <svg x="8" y="8" width="32" height="32" viewBox="0 0 20 20">
      <rect fill="#2563eb" height="20" width="20"/><path d="M15.75,4.25v-1.5h-1.5v1.5h-1.5v1.5h1.5v1.5h1.5v-1.5h1.5v-1.5H15.75z M11,5c0,2.21,1.79,4,4,4v8l-5-2l-5,2V4.5 C5,3.67,5.67,3,6.5,3l5.04,0C11.19,3.59,11,4.27,11,5z"/>
    </svg>
  </g>
  
  <!-- Footer -->
  <text x="400" y="580" text-anchor="middle" font-family="system-ui, -apple-system, sans-serif" font-size="12" fill="#6c757d">
    Showing 35 of 2870 icons
  </text>
  
</svg>