<svg width="800" height="600" xmlns="http://www.w3.org/2000/svg">
  <!-- Background -->
  <rect width="800" height="600" fill="#ffffff"/>
  
  <!-- Header Background -->
  <rect width="800" height="80" fill="#f8f9fa"/>
  
  <!-- Title -->
  <text x="400" y="30" text-anchor="middle" font-family="system-ui, -apple-system, sans-serif" font-size="20" font-weight="bold" fill="#212529">Material Design Icons - rounded</text>
  
  <!-- Subtitle -->
  <text x="400" y="55" text-anchor="middle" font-family="system-ui, -apple-system, sans-serif" font-size="14" fill="#6c757d">2,813 icons</text>
  
  <!-- Icon Grid -->
  <!-- Icon 1: 24px -->
  <g transform="translate(196, 92)">
    <rect width="48" height="48" fill="#ffffff" stroke="#e9ecef" stroke-width="1" rx="4"/>
    <svg x="8" y="8" width="32" height="32" viewBox="0 0 24 24">
      <path d="M0 0h24v24H0z" fill="#2563eb"/><path d="M17 7H7c-2.76 0-5 2.24-5 5s2.24 5 5 5h10c2.76 0 5-2.24 5-5s-2.24-5-5-5zm0 8c-1.66 0-3-1.34-3-3s1.34-3 3-3 3 1.34 3 3-1.34 3-3 3z"/>
    </svg>
  </g>
  <!-- Icon 2: 24px -->
  <g transform="translate(256, 92)">
    <rect width="48" height="48" fill="#ffffff" stroke="#e9ecef" stroke-width="1" rx="4"/>
    <svg x="8" y="8" width="32" height="32" viewBox="0 0 24 24">
      <path d="M0 0h24v24H0V0z" fill="#2563eb"/><path d="M5.35 5.64c-.9-.64-1.12-1.88-.49-2.79.63-.9 1.88-1.12 2.79-.49.9.64 1.12 1.88.49 2.79-.64.9-1.88 1.12-2.79.49zM16 20c0-.55-.45-1-1-1H8.93c-1.48 0-2.74-1.08-2.96-2.54L4.16 7.78C4.07 7.33 3.67 7 3.2 7c-.62 0-1.08.57-.96 1.18l1.75 8.58C4.37 19.2 6.47 21 8.94 21H15c.55 0 1-.45 1-1zm-.46-5h-4.19l-1.03-4.1c1.28.72 2.63 1.28 4.1 1.3.58.01 1.05-.49 1.05-1.07 0-.59-.49-1.04-1.08-1.06-1.31-.04-2.63-.56-3.61-1.33L9.14 7.47c-.23-.18-.49-.3-.76-.38-.32-.09-.66-.12-.99-.06h-.02c-1.23.22-2.05 1.39-1.84 2.61l1.35 5.92C7.16 16.98 8.39 18 9.83 18h6.85l3.09 2.42c.42.33 1.02.29 1.39-.08.45-.45.4-1.18-.1-1.57l-4.29-3.35c-.35-.27-.78-.42-1.23-.42z"/>
    </svg>
  </g>
  <!-- Icon 3: 24px -->
  <g transform="translate(316, 92)">
    <rect width="48" height="48" fill="#ffffff" stroke="#e9ecef" stroke-width="1" rx="4"/>
    <svg x="8" y="8" width="32" height="32" viewBox="0 0 24 24">
      <rect fill="#2563eb" height="24" width="24"/><path d="M12,2C6.48,2,2,6.48,2,12c0,5.52,4.48,10,10,10s10-4.48,10-10C22,6.48,17.52,2,12,2z M15.79,11.71l-3.08,3.08 c-0.39,0.39-1.02,0.39-1.42,0l-3.08-3.08c-0.39-0.39-0.39-1.03,0-1.42c0.39-0.39,1.02-0.39,1.41,0L12,12.67l2.38-2.38 c0.39-0.39,1.02-0.39,1.41,0C16.18,10.68,16.18,11.32,15.79,11.71z"/>
    </svg>
  </g>
  <!-- Icon 4: 24px -->
  <g transform="translate(376, 92)">
    <rect width="48" height="48" fill="#ffffff" stroke="#e9ecef" stroke-width="1" rx="4"/>
    <svg x="8" y="8" width="32" height="32" viewBox="0 0 24 24">
      <path d="M0 0h24v24H0V0z" fill="#2563eb"/><path d="M20 3H6c-1.1 0-2 .9-2 2v8c0 2.21 1.79 4 4 4h6c2.21 0 4-1.79 4-4v-3h2c1.11 0 2-.9 2-2V5c0-1.1-.9-2-2-2zm0 5h-2V5h2v3zM5 19h14c.55 0 1 .45 1 1s-.45 1-1 1H5c-.55 0-1-.45-1-1s.45-1 1-1z"/>
    </svg>
  </g>
  <!-- Icon 5: 20px -->
  <g transform="translate(436, 92)">
    <rect width="48" height="48" fill="#ffffff" stroke="#e9ecef" stroke-width="1" rx="4"/>
    <svg x="8" y="8" width="32" height="32" viewBox="0 0 20 20">
      <g><rect fill="#2563eb" height="20" width="20"/></g><g><path d="M11.72,2.21l-8.56,7.93c-0.32,0.3-0.12,0.83,0.31,0.86l7.33,0.5l-3.64,5.27c-0.24,0.3-0.21,0.73,0.06,1.01h0 c0.29,0.29,0.76,0.3,1.06,0.01l8.56-7.93c0.32-0.3,0.12-0.83-0.31-0.86L9.2,8.5l3.64-5.27c0.24-0.3,0.21-0.73-0.06-1.01l0,0 C12.49,1.93,12.01,1.93,11.72,2.21z"/></g>
    </svg>
  </g>
  <!-- Icon 6: 24px -->
  <g transform="translate(496, 92)">
    <rect width="48" height="48" fill="#ffffff" stroke="#e9ecef" stroke-width="1" rx="4"/>
    <svg x="8" y="8" width="32" height="32" viewBox="0 0 24 24">
      <g><rect fill="#2563eb" height="24" width="24"/></g><g><g><polygon points="13,10 18,10 21,7 18,4 13,4 13,2 11,2 11,4 4,4 4,10 11,10 11,12 6,12 3,15 6,18 11,18 11,22 13,22 13,18 20,18 20,12 13,12"/></g></g>
    </svg>
  </g>
  <!-- Icon 7: 24px -->
  <g transform="translate(556, 92)">
    <rect width="48" height="48" fill="#ffffff" stroke="#e9ecef" stroke-width="1" rx="4"/>
    <svg x="8" y="8" width="32" height="32" viewBox="0 0 24 24">
      <path d="M0 0h24v24H0V0z" fill="#2563eb"/><path d="M14.65 4.98l-5-1.75c-.42-.15-.88-.15-1.3-.01L4.36 4.56C3.55 4.84 3 5.6 3 6.46v11.85c0 1.41 1.41 2.37 2.72 1.86l2.93-1.14c.22-.09.47-.09.69-.01l5 1.75c.42.15.88.15 1.3.01l3.99-1.34c.81-.27 1.36-1.04 1.36-1.9V5.69c0-1.41-1.41-2.37-2.72-1.86l-2.93 1.14c-.22.08-.46.09-.69.01zM15 18.89l-6-2.11V5.11l6 2.11v11.67z"/>
    </svg>
  </g>
  <!-- Icon 8: 24px -->
  <g transform="translate(196, 152)">
    <rect width="48" height="48" fill="#ffffff" stroke="#e9ecef" stroke-width="1" rx="4"/>
    <svg x="8" y="8" width="32" height="32" viewBox="0 0 24 24">
      <g><rect fill="#2563eb" height="24" width="24"/><rect fill="#2563eb" height="24" width="24"/></g><g><g><path d="M21,14c0-0.55-0.45-1-1-1h-2v2h2C20.55,15,21,14.55,21,14z"/><path d="M20,17h-2v2h2c0.55,0,1-0.45,1-1C21,17.45,20.55,17,20,17z"/><path d="M16,12h-2c-1.1,0-2,0.9-2,2h-1c-0.55,0-1,0.45-1,1v2c0,0.55,0.45,1,1,1h1c0,1.1,0.9,2,2,2h2c0.55,0,1-0.45,1-1v-6 C17,12.45,16.55,12,16,12z"/><path d="M5,13c0-1.1,0.9-2,2-2h1.5c1.93,0,3.5-1.57,3.5-3.5S10.43,4,8.5,4H5C4.45,4,4,4.45,4,5c0,0.55,0.45,1,1,1h3.5 C9.33,6,10,6.67,10,7.5S9.33,9,8.5,9H7c-2.21,0-4,1.79-4,4c0,2.21,1.79,4,4,4h2v-2H7C5.9,15,5,14.1,5,13z"/></g></g>
    </svg>
  </g>
  <!-- Icon 9: 20px -->
  <g transform="translate(256, 152)">
    <rect width="48" height="48" fill="#ffffff" stroke="#e9ecef" stroke-width="1" rx="4"/>
    <svg x="8" y="8" width="32" height="32" viewBox="0 0 20 20">
      <g><rect fill="#2563eb" height="20" width="20" y="0"/></g><g><path d="M16.5,6H12V3.5C12,2.67,11.33,2,10.5,2h-1C8.67,2,8,2.67,8,3.5V6H3.5C2.67,6,2,6.67,2,7.5v9C2,17.33,2.67,18,3.5,18h13 c0.83,0,1.5-0.67,1.5-1.5v-9C18,6.67,17.33,6,16.5,6z M7.5,10c0.69,0,1.25,0.56,1.25,1.25S8.19,12.5,7.5,12.5s-1.25-0.56-1.25-1.25 S6.81,10,7.5,10z M10,15H5v-0.48c0-0.5,0.3-0.95,0.76-1.16C6.3,13.13,6.88,13,7.5,13c0.62,0,1.2,0.13,1.74,0.36 C9.7,13.56,10,14.01,10,14.52V15z M10.5,7.5h-1v-4h1V7.5z M14.25,14h-1.5C12.34,14,12,13.66,12,13.25v0c0-0.41,0.34-0.75,0.75-0.75 h1.5c0.41,0,0.75,0.34,0.75,0.75v0C15,13.66,14.66,14,14.25,14z M14.25,11.5h-1.5c-0.41,0-0.75-0.34-0.75-0.75v0 c0-0.41,0.34-0.75,0.75-0.75h1.5c0.41,0,0.75,0.34,0.75,0.75v0C15,11.16,14.66,11.5,14.25,11.5z"/></g>
    </svg>
  </g>
  <!-- Icon 10: 20px -->
  <g transform="translate(316, 152)">
    <rect width="48" height="48" fill="#ffffff" stroke="#e9ecef" stroke-width="1" rx="4"/>
    <svg x="8" y="8" width="32" height="32" viewBox="0 0 20 20">
      <g><rect fill="#2563eb" height="20" width="20"/></g><g><g><circle cx="10" cy="3.75" r="1.75"/><path d="M11.39,7.92C11.15,7.36,10.61,7,10,7S8.85,7.36,8.61,7.92L6.3,13.3C6.16,13.63,6.4,14,6.76,14H9v3.5 C9,17.78,9.22,18,9.5,18h1c0.28,0,0.5-0.22,0.5-0.5V14h2.24c0.36,0,0.6-0.37,0.46-0.7L11.39,7.92z"/></g></g>
    </svg>
  </g>
  <!-- Icon 11: 24px -->
  <g transform="translate(376, 152)">
    <rect width="48" height="48" fill="#ffffff" stroke="#e9ecef" stroke-width="1" rx="4"/>
    <svg x="8" y="8" width="32" height="32" viewBox="0 0 24 24">
      <path d="M0 0h24v24H0V0z" fill="#2563eb"/><path d="M18 16.08c-.76 0-1.44.3-1.96.77L8.91 12.7c.05-.23.09-.46.09-.7s-.04-.47-.09-.7l7.05-4.11c.54.5 1.25.81 2.04.81 1.66 0 3-1.34 3-3s-1.34-3-3-3-3 1.34-3 3c0 .24.04.47.09.7L8.04 9.81C7.5 9.31 6.79 9 6 9c-1.66 0-3 1.34-3 3s1.34 3 3 3c.79 0 1.5-.31 2.04-.81l7.12 4.16c-.05.21-.08.43-.08.65 0 1.61 1.31 2.92 2.92 2.92s2.92-1.31 2.92-2.92-1.31-2.92-2.92-2.92z"/>
    </svg>
  </g>
  <!-- Icon 12: 24px -->
  <g transform="translate(436, 152)">
    <rect width="48" height="48" fill="#ffffff" stroke="#e9ecef" stroke-width="1" rx="4"/>
    <svg x="8" y="8" width="32" height="32" viewBox="0 0 24 24">
      <g><rect fill="#2563eb" height="24" width="24"/><rect fill="#2563eb" height="24" width="24"/></g><g><g><path d="M17,22c1.66,0,3-1.34,3-3s-1.34-3-3-3c-1.3,0-2.4,0.84-2.82,2H9.14l1.99-3.06C11.42,14.98,11.71,15,12,15 s0.58-0.02,0.87-0.06l1.02,1.57c0.42-0.53,0.96-0.95,1.6-1.21l-0.6-0.93c2.1-0.95,3.64-2.9,4.02-5.24C19.01,8.54,18.52,8,17.92,8 C15.31,8,8.69,8,6.08,8C5.48,8,4.99,8.54,5.09,9.14c0.38,2.34,1.93,4.29,4.02,5.24l-3.95,6.08c-0.3,0.46-0.17,1.08,0.29,1.38h0 c0.46,0.3,1.08,0.17,1.38-0.29l1-1.55h6.34C14.6,21.16,15.7,22,17,22z M17,18c0.55,0,1,0.45,1,1c0,0.55-0.45,1-1,1s-1-0.45-1-1 C16,18.45,16.45,18,17,18z"/><path d="M9.5,6.47C9.48,6.75,9.68,7,9.96,7H10c0.24,0,0.44-0.18,0.46-0.42c0.1-0.87,0.04-1.39-0.94-2.54 C9.16,3.61,8.92,3.35,8.99,2.49C9.02,2.23,8.8,2,8.53,2H8.48C8.24,2,8.03,2.19,8.01,2.43c-0.08,0.93,0.2,1.74,0.95,2.53 C9.15,5.17,9.6,5.52,9.5,6.47z"/><path d="M11.99,6.47C11.96,6.75,12.17,7,12.45,7h0.03c0.24,0,0.44-0.18,0.46-0.42c0.1-0.87,0.04-1.39-0.94-2.54 c-0.36-0.43-0.61-0.69-0.53-1.55C11.5,2.23,11.28,2,11.01,2h-0.05c-0.24,0-0.45,0.19-0.47,0.43c-0.08,0.93,0.2,1.74,0.95,2.53 C11.63,5.17,12.08,5.52,11.99,6.47z"/><path d="M14.5,6.47C14.48,6.75,14.68,7,14.96,7H15c0.24,0,0.44-0.18,0.46-0.42c0.1-0.87,0.04-1.39-0.94-2.54 c-0.36-0.43-0.61-0.69-0.53-1.55C14.02,2.23,13.8,2,13.53,2h-0.05c-0.24,0-0.45,0.19-0.47,0.43c-0.08,0.93,0.2,1.74,0.95,2.53 C14.15,5.17,14.6,5.52,14.5,6.47z"/></g></g>
    </svg>
  </g>
  <!-- Icon 13: 24px -->
  <g transform="translate(496, 152)">
    <rect width="48" height="48" fill="#ffffff" stroke="#e9ecef" stroke-width="1" rx="4"/>
    <svg x="8" y="8" width="32" height="32" viewBox="0 0 24 24">
      <g><rect fill="#2563eb" height="24" width="24"/><rect fill="#2563eb" height="24" width="24"/></g><g><g><path d="M12,2C6.48,2,2,6.48,2,12s4.48,10,10,10s10-4.48,10-10S17.52,2,12,2z M12,20c-4.41,0-8-3.59-8-8 c0-1.12,0.23-2.18,0.65-3.15C4.74,8.94,4.86,9,5,9c0.28,0,0.5-0.22,0.5-0.5c0-0.25-0.19-0.45-0.43-0.49 c0.15-0.26,0.32-0.51,0.49-0.75C5.53,7.34,5.5,7.41,5.5,7.5C5.5,7.78,5.72,8,6,8s0.5-0.22,0.5-0.5C6.5,7.22,6.28,7,6,7 C5.87,7,5.75,7.05,5.66,7.13c0.52-0.68,1.15-1.28,1.86-1.76C7.51,5.41,7.5,5.45,7.5,5.5C7.5,5.78,7.72,6,8,6s0.5-0.22,0.5-0.5 c0-0.24-0.17-0.43-0.4-0.48c0.16-0.09,0.32-0.17,0.49-0.25C8.68,4.91,8.83,5,9,5c0.28,0,0.5-0.22,0.5-0.5 c0-0.03-0.01-0.06-0.02-0.09c0.39-0.13,0.79-0.23,1.21-0.3C10.58,4.21,10.5,4.34,10.5,4.5C10.5,4.78,10.72,5,11,5 s0.5-0.22,0.5-0.5c0-0.21-0.13-0.38-0.3-0.46C11.46,4.01,11.73,4,12,4s0.54,0.01,0.8,0.04c-0.18,0.08-0.3,0.25-0.3,0.46 C12.5,4.78,12.72,5,13,5s0.5-0.22,0.5-0.5c0-0.16-0.08-0.29-0.19-0.38c0.41,0.07,0.82,0.17,1.21,0.3 C14.51,4.44,14.5,4.47,14.5,4.5C14.5,4.78,14.72,5,15,5c0.17,0,0.32-0.09,0.41-0.23c0.17,0.08,0.33,0.16,0.49,0.25 c-0.23,0.05-0.4,0.24-0.4,0.48C15.5,5.78,15.72,6,16,6s0.5-0.22,0.5-0.5c0-0.05-0.01-0.09-0.03-0.13 c0.71,0.48,1.34,1.08,1.86,1.76C18.25,7.05,18.13,7,18,7c-0.28,0-0.5,0.22-0.5,0.5C17.5,7.78,17.72,8,18,8s0.5-0.22,0.5-0.5 c0-0.09-0.03-0.16-0.07-0.23c0.18,0.24,0.34,0.49,0.49,0.75C18.69,8.05,18.5,8.25,18.5,8.5C18.5,8.78,18.72,9,19,9 c0.14,0,0.26-0.06,0.35-0.15C19.77,9.82,20,10.88,20,12C20,16.41,16.41,20,12,20z"/><circle cx="9" cy="13" r="1.25"/><circle cx="12" cy="5.5" r=".5"/><circle cx="14" cy="5.5" r=".5"/><circle cx="10" cy="5.5" r=".5"/><circle cx="17" cy="6.5" r=".5"/><circle cx="9" cy="6.5" r=".5"/><circle cx="7" cy="6.5" r=".5"/><circle cx="11" cy="6.5" r=".5"/><circle cx="13" cy="6.5" r=".5"/><circle cx="15" cy="6.5" r=".5"/><circle cx="12" cy="7.5" r=".5"/><circle cx="14" cy="7.5" r=".5"/><circle cx="16" cy="7.5" r=".5"/><circle cx="10" cy="7.5" r=".5"/><circle cx="8" cy="7.5" r=".5"/><circle cx="9" cy="8.5" r=".5"/><circle cx="7" cy="8.5" r=".5"/><circle cx="11" cy="8.5" r=".5"/><circle cx="13" cy="8.5" r=".5"/><circle cx="15" cy="8.5" r=".5"/><circle cx="17" cy="8.5" r=".5"/><circle cx="15" cy="13" r="1.25"/></g></g>
    </svg>
  </g>
  <!-- Icon 14: 20px -->
  <g transform="translate(556, 152)">
    <rect width="48" height="48" fill="#ffffff" stroke="#e9ecef" stroke-width="1" rx="4"/>
    <svg x="8" y="8" width="32" height="32" viewBox="0 0 20 20">
      <g><rect fill="#2563eb" height="20" width="20"/></g><g><g><rect height=".75" width="1" x="11" y="10.25"/><rect height=".75" width="1" x="11" y="9"/><path d="M15.5,3h-11C3.67,3,3,3.67,3,4.5v11C3,16.33,3.67,17,4.5,17h11c0.83,0,1.5-0.67,1.5-1.5v-11C17,3.67,16.33,3,15.5,3z M8.5,12L8.5,12C8.22,12,8,11.78,8,11.5V9H7.5C7.22,9,7,8.78,7,8.5v0C7,8.22,7.22,8,7.5,8h1C8.78,8,9,8.22,9,8.5v3 C9,11.78,8.78,12,8.5,12z M13,11.5c0,0.28-0.22,0.5-0.5,0.5h-2c-0.28,0-0.5-0.22-0.5-0.5v-3C10,8.22,10.22,8,10.5,8h2 C12.78,8,13,8.22,13,8.5V11.5z"/></g></g>
    </svg>
  </g>
  <!-- Icon 15: 24px -->
  <g transform="translate(196, 212)">
    <rect width="48" height="48" fill="#ffffff" stroke="#e9ecef" stroke-width="1" rx="4"/>
    <svg x="8" y="8" width="32" height="32" viewBox="0 0 24 24">
      <rect fill="#2563eb" height="24" width="24"/><g><path d="M7.83,5H18v10.17L19.83,17H21c0.55,0,1-0.45,1-1v0c0-0.55-0.45-1-1-1h-1v-2h1c0.55,0,1-0.45,1-1v0c0-0.55-0.45-1-1-1h-1V9 h1c0.55,0,1-0.45,1-1v0c0-0.55-0.45-1-1-1h-1V5c0-1.1-0.9-2-2-2H5.83L7.83,5z M15,10h-2c-0.06,0-0.13-0.01-0.19-0.02l-0.79-0.79 C12.01,9.13,12,9.06,12,9V8c0-0.55,0.45-1,1-1h2c0.55,0,1,0.45,1,1v1C16,9.55,15.55,10,15,10z M11,8v0.17L9.83,7H10 C10.55,7,11,7.45,11,8z M16,12v1.17L13.83,11H15C15.55,11,16,11.45,16,12z M1.39,2.81L1.39,2.81C1,3.2,1,3.83,1.39,4.22l0.61,0.61 C2,4.89,2,4.94,2,5v14c0,1.1,0.9,2,2,2h14c0.06,0,0.11,0,0.16-0.01l1.61,1.61c0.39,0.39,1.02,0.39,1.41,0l0,0 c0.39-0.39,0.39-1.02,0-1.41L2.81,2.81C2.42,2.42,1.78,2.42,1.39,2.81z M4,19V6.83l2,2V11c0,0.55,0.45,1,1,1h2.17l1.02,1.02 C10.13,13.01,10.06,13,10,13H7c-0.55,0-1,0.45-1,1v2c0,0.55,0.45,1,1,1h3c0.55,0,1-0.45,1-1v-2c0-0.06-0.01-0.13-0.02-0.19 L12,14.83v0.46V16c0,0.55,0.45,1,1,1h0.38h0.8l2,2H4z"/></g>
    </svg>
  </g>
  <!-- Icon 16: 24px -->
  <g transform="translate(256, 212)">
    <rect width="48" height="48" fill="#ffffff" stroke="#e9ecef" stroke-width="1" rx="4"/>
    <svg x="8" y="8" width="32" height="32" viewBox="0 0 24 24">
      <g><rect fill="#2563eb" height="24" width="24"/></g><g><path d="M3,5v14c0,1.1,0.9,2,2,2h14c1.1,0,2-0.9,2-2V5c0-1.1-0.9-2-2-2H5C3.9,3,3,3.9,3,5z M9,8c0,0.55-0.45,1-1,1S7,8.55,7,8 s0.45-1,1-1S9,7.45,9,8z M13,8c0,0.55-0.45,1-1,1s-1-0.45-1-1s0.45-1,1-1S13,7.45,13,8z M17,8c0,0.55-0.45,1-1,1 c-0.55,0-1-0.45-1-1s0.45-1,1-1C16.55,7,17,7.45,17,8z M17,12c0,0.55-0.45,1-1,1c-0.55,0-1-0.45-1-1s0.45-1,1-1 C16.55,11,17,11.45,17,12z M13,12c0,0.55-0.45,1-1,1s-1-0.45-1-1s0.45-1,1-1S13,11.45,13,12z M9,12c0,0.55-0.45,1-1,1s-1-0.45-1-1 s0.45-1,1-1S9,11.45,9,12z"/></g>
    </svg>
  </g>
  <!-- Icon 17: 24px -->
  <g transform="translate(316, 212)">
    <rect width="48" height="48" fill="#ffffff" stroke="#e9ecef" stroke-width="1" rx="4"/>
    <svg x="8" y="8" width="32" height="32" viewBox="0 0 24 24">
      <rect fill="#2563eb" height="24" width="24"/><g><path d="M14.06,9.94L13,9.45c-0.39-0.18-0.39-0.73,0-0.91l1.06-0.49L14.55,7c0.18-0.39,0.73-0.39,0.91,0l0.49,1.06L17,8.55 c0.39,0.18,0.39,0.73,0,0.91l-1.06,0.49L15.45,11c-0.18,0.39-0.73,0.39-0.91,0L14.06,9.94z M4.45,13l0.49-1.06L6,11.45 c0.39-0.18,0.39-0.73,0-0.91l-1.06-0.49L4.45,9C4.28,8.61,3.72,8.61,3.55,9l-0.49,1.06L2,10.55c-0.39,0.18-0.39,0.73,0,0.91 l1.06,0.49L3.55,13C3.72,13.39,4.28,13.39,4.45,13z M8.96,7.99l0.63-1.4l1.4-0.63c0.39-0.18,0.39-0.73,0-0.91l-1.4-0.63l-0.63-1.4 c-0.18-0.39-0.73-0.39-0.91,0l-0.63,1.4l-1.4,0.63c-0.39,0.18-0.39,0.73,0,0.91l1.4,0.63l0.63,1.4C8.22,8.38,8.78,8.38,8.96,7.99z M22.34,8.27c-0.4-0.4-1.07-0.39-1.45,0.04l-6.39,7.18l-3.29-3.29c-0.39-0.39-1.02-0.39-1.41,0l-6.04,6.05 c-0.41,0.41-0.41,1.09,0,1.5c0.41,0.41,1.09,0.41,1.5,0l5.25-5.26l3.25,3.25c0.41,0.41,1.07,0.39,1.45-0.04l7.17-8.07 C22.73,9.24,22.71,8.64,22.34,8.27z"/></g>
    </svg>
  </g>
  <!-- Icon 18: 24px -->
  <g transform="translate(376, 212)">
    <rect width="48" height="48" fill="#ffffff" stroke="#e9ecef" stroke-width="1" rx="4"/>
    <svg x="8" y="8" width="32" height="32" viewBox="0 0 24 24">
      <path d="M0 0h24v24H0V0z" fill="#2563eb"/><path d="M12 2C6.47 2 2 6.47 2 12s4.47 10 10 10 10-4.47 10-10S17.53 2 12 2zm0 18c-4.41 0-8-3.59-8-8s3.59-8 8-8 8 3.59 8 8-3.59 8-8 8z"/>
    </svg>
  </g>
  <!-- Icon 19: 24px -->
  <g transform="translate(436, 212)">
    <rect width="48" height="48" fill="#ffffff" stroke="#e9ecef" stroke-width="1" rx="4"/>
    <svg x="8" y="8" width="32" height="32" viewBox="0 0 24 24">
      <path d="M0 0h24v24H0z" fill="#2563eb"/><path d="M21 1H7c-1.1 0-2 .9-2 2v14c0 1.1.9 2 2 2h14c1.1 0 2-.9 2-2V3c0-1.1-.9-2-2-2zm-1 16H8c-.55 0-1-.45-1-1V4c0-.55.45-1 1-1h12c.55 0 1 .45 1 1v12c0 .55-.45 1-1 1zM2 5c-.55 0-1 .45-1 1v15c0 1.1.9 2 2 2h15c.55 0 1-.45 1-1s-.45-1-1-1H4c-.55 0-1-.45-1-1V6c0-.55-.45-1-1-1zm15 8v-2c0-1.1-.9-2-2-2h-2V7h3c.55 0 1-.45 1-1s-.45-1-1-1h-4c-.55 0-1 .45-1 1v4c0 .55.45 1 1 1h3v2h-3c-.55 0-1 .45-1 1s.45 1 1 1h3c1.1 0 2-.9 2-2z"/>
    </svg>
  </g>
  <!-- Icon 20: 24px -->
  <g transform="translate(496, 212)">
    <rect width="48" height="48" fill="#ffffff" stroke="#e9ecef" stroke-width="1" rx="4"/>
    <svg x="8" y="8" width="32" height="32" viewBox="0 0 24 24">
      <path d="M0 0h24v24H0V0z" fill="#2563eb"/><path d="M12.43 2.3c-2.38-.59-4.68-.27-6.63.64-.35.16-.41.64-.1.86C8.3 5.6 10 8.6 10 12c0 3.4-1.7 6.4-4.3 8.2-.32.22-.26.7.09.86 1.28.6 2.71.94 4.21.94 6.05 0 10.85-5.38 9.87-11.6-.61-3.92-3.59-7.16-7.44-8.1z"/>
    </svg>
  </g>
  <!-- Icon 21: 24px -->
  <g transform="translate(556, 212)">
    <rect width="48" height="48" fill="#ffffff" stroke="#e9ecef" stroke-width="1" rx="4"/>
    <svg x="8" y="8" width="32" height="32" viewBox="0 0 24 24">
      <g><rect fill="#2563eb" height="24" width="24"/><rect fill="#2563eb" height="24" width="24"/></g><g><g><path d="M5,11h4c1.1,0,2-0.9,2-2V5c0-1.1-0.9-2-2-2H5C3.9,3,3,3.9,3,5v4C3,10.1,3.9,11,5,11z M5,5h4v4H5V5z"/><path d="M5,21h4c1.1,0,2-0.9,2-2v-4c0-1.1-0.9-2-2-2H5c-1.1,0-2,0.9-2,2v4C3,20.1,3.9,21,5,21z M5,15h4v4H5V15z"/><path d="M13,5v4c0,1.1,0.9,2,2,2h4c1.1,0,2-0.9,2-2V5c0-1.1-0.9-2-2-2h-4C13.9,3,13,3.9,13,5z M19,9h-4V5h4V9z"/><path d="M21,20.5v-1c0-0.28-0.22-0.5-0.5-0.5h-1c-0.28,0-0.5,0.22-0.5,0.5v1c0,0.28,0.22,0.5,0.5,0.5h1C20.78,21,21,20.78,21,20.5 z"/><path d="M13,13.5v1c0,0.28,0.22,0.5,0.5,0.5h1c0.28,0,0.5-0.22,0.5-0.5v-1c0-0.28-0.22-0.5-0.5-0.5h-1C13.22,13,13,13.22,13,13.5z"/><path d="M16.5,15h-1c-0.28,0-0.5,0.22-0.5,0.5v1c0,0.28,0.22,0.5,0.5,0.5h1c0.28,0,0.5-0.22,0.5-0.5v-1C17,15.22,16.78,15,16.5,15 z"/><path d="M13,17.5v1c0,0.28,0.22,0.5,0.5,0.5h1c0.28,0,0.5-0.22,0.5-0.5v-1c0-0.28-0.22-0.5-0.5-0.5h-1C13.22,17,13,17.22,13,17.5z"/><path d="M15.5,21h1c0.28,0,0.5-0.22,0.5-0.5v-1c0-0.28-0.22-0.5-0.5-0.5h-1c-0.28,0-0.5,0.22-0.5,0.5v1C15,20.78,15.22,21,15.5,21 z"/><path d="M17.5,19h1c0.28,0,0.5-0.22,0.5-0.5v-1c0-0.28-0.22-0.5-0.5-0.5h-1c-0.28,0-0.5,0.22-0.5,0.5v1C17,18.78,17.22,19,17.5,19 z"/><path d="M18.5,13h-1c-0.28,0-0.5,0.22-0.5,0.5v1c0,0.28,0.22,0.5,0.5,0.5h1c0.28,0,0.5-0.22,0.5-0.5v-1C19,13.22,18.78,13,18.5,13 z"/><path d="M19.5,17h1c0.28,0,0.5-0.22,0.5-0.5v-1c0-0.28-0.22-0.5-0.5-0.5h-1c-0.28,0-0.5,0.22-0.5,0.5v1C19,16.78,19.22,17,19.5,17 z"/></g></g>
    </svg>
  </g>
  <!-- Icon 22: 24px -->
  <g transform="translate(196, 272)">
    <rect width="48" height="48" fill="#ffffff" stroke="#e9ecef" stroke-width="1" rx="4"/>
    <svg x="8" y="8" width="32" height="32" viewBox="0 0 24 24">
      <g><rect fill="#2563eb" height="24" width="24"/><rect fill="#2563eb" height="24" width="24"/></g><g><g><path d="M7.9,14.1l0.09-0.09c0.27-0.27,0.32-0.71,0.08-1.01C7.36,12.09,7,11.01,7,10c0-1.08,0.35-2.16,1.04-3.01 c0.25-0.3,0.21-0.75-0.07-1.02L7.9,5.9C7.56,5.56,7,5.6,6.7,5.98C5.79,7.16,5.3,8.58,5.3,10c0,1.42,0.49,2.84,1.4,4.02 C7,14.4,7.56,14.44,7.9,14.1z"/><path d="M18.51,3.49l-0.08,0.08c-0.3,0.3-0.29,0.76-0.03,1.08c1.26,1.53,1.9,3.48,1.9,5.35c0,1.87-0.63,3.81-1.9,5.35 c-0.28,0.33-0.23,0.83,0.08,1.14v0c0.35,0.35,0.93,0.31,1.24-0.07C21.29,14.54,22,12.31,22,10c0-2.32-0.79-4.55-2.31-6.43 C19.39,3.2,18.84,3.16,18.51,3.49z"/><path d="M5.57,3.57L5.49,3.49C5.16,3.16,4.61,3.2,4.31,3.57C2.79,5.45,2,7.68,2,10c0,2.32,0.79,4.55,2.31,6.43 c0.3,0.37,0.85,0.42,1.18,0.08l0.08-0.08c0.3-0.3,0.29-0.76,0.03-1.08C4.33,13.81,3.7,11.87,3.7,10c0-1.87,0.63-3.81,1.9-5.35 C5.86,4.33,5.87,3.87,5.57,3.57z"/><path d="M16.07,14.07c0.36,0.36,0.95,0.32,1.26-0.09c0.9-1.18,1.37-2.58,1.37-3.98c-0.08-1.41-0.51-2.83-1.4-4.01 c-0.29-0.39-0.86-0.43-1.2-0.09l-0.08,0.08c-0.27,0.27-0.32,0.71-0.08,1.01C16.64,7.91,17,8.99,17,10c0,1.07-0.34,2.13-1.01,2.98 C15.73,13.3,15.77,13.77,16.07,14.07L16.07,14.07z"/><path d="M14.5,10c0-1.6-1.51-2.85-3.18-2.41c-0.8,0.21-1.46,0.85-1.7,1.65c-0.32,1.06,0.06,2.04,0.76,2.64l-2.96,8.87 C7.21,21.37,7.67,22,8.32,22h0c0.41,0,0.77-0.26,0.9-0.65L9.67,20h4.67l0.45,1.35c0.13,0.39,0.49,0.65,0.9,0.65h0 c0.65,0,1.1-0.63,0.9-1.25l-2.96-8.87C14.16,11.42,14.5,10.76,14.5,10z M10.33,18L12,13l1.67,5H10.33z"/></g></g>
    </svg>
  </g>
  <!-- Icon 23: 24px -->
  <g transform="translate(256, 272)">
    <rect width="48" height="48" fill="#ffffff" stroke="#e9ecef" stroke-width="1" rx="4"/>
    <svg x="8" y="8" width="32" height="32" viewBox="0 0 24 24">
      <g><rect fill="#2563eb" height="24" width="24"/></g><g><path d="M21,7c0-0.55-0.45-1-1-1H8.83l2,2H20C20.55,8,21,7.55,21,7z M18,12c0-0.55-0.45-1-1-1h-3.17l2,2H17 C17.55,13,18,12.55,18,12z M13.98,16.81C13.99,16.87,14,16.94,14,17c0,0.55-0.45,1-1,1h-2c-0.55,0-1-0.45-1-1s0.45-1,1-1h2 c0.06,0,0.13,0.01,0.19,0.02L10.17,13H7c-0.55,0-1-0.45-1-1s0.45-1,1-1h1.17l-3-3H4C3.45,8,3,7.55,3,7c0-0.32,0.15-0.6,0.38-0.79 L2.1,4.93c-0.39-0.39-0.39-1.02,0-1.41s1.02-0.39,1.41,0l16.97,16.97c0.39,0.39,0.39,1.02,0,1.41s-1.02,0.39-1.41,0L13.98,16.81z"/></g>
    </svg>
  </g>
  <!-- Icon 24: 24px -->
  <g transform="translate(316, 272)">
    <rect width="48" height="48" fill="#ffffff" stroke="#e9ecef" stroke-width="1" rx="4"/>
    <svg x="8" y="8" width="32" height="32" viewBox="0 0 24 24">
      <g><rect fill="#2563eb" height="24" width="24"/></g><g><path d="M12,2C6.48,2,2,6.48,2,12s4.48,10,10,10s10-4.48,10-10S17.52,2,12,2z M18,12.74c-0.12,3.09-2.67,5.64-5.76,5.76 c-3.01,0.12-5.56-1.99-6.12-4.82C5.99,13.07,6.48,12.5,7.1,12.5h0c0.47,0,0.88,0.33,0.98,0.8c0.42,2.07,2.44,3.57,4.72,3.12 c1.56-0.3,2.82-1.56,3.12-3.12c0.5-2.56-1.45-4.8-3.92-4.8v1.79c0,0.45-0.54,0.67-0.85,0.35L8.35,7.85c-0.2-0.2-0.2-0.51,0-0.71 l2.79-2.79C11.46,4.04,12,4.26,12,4.71V6.5C15.39,6.5,18.13,9.32,18,12.74z"/></g>
    </svg>
  </g>
  <!-- Icon 25: 24px -->
  <g transform="translate(376, 272)">
    <rect width="48" height="48" fill="#ffffff" stroke="#e9ecef" stroke-width="1" rx="4"/>
    <svg x="8" y="8" width="32" height="32" viewBox="0 0 24 24">
      <path d="M11 16.07V7.93c0-.81-.91-1.28-1.58-.82l-5.77 4.07c-.56.4-.56 1.24 0 1.63l5.77 4.07c.67.47 1.58 0 1.58-.81zm1.66-3.25l5.77 4.07c.66.47 1.58-.01 1.58-.82V7.93c0-.81-.91-1.28-1.58-.82l-5.77 4.07c-.57.4-.57 1.24 0 1.64z"/>
    </svg>
  </g>
  <!-- Icon 26: 24px -->
  <g transform="translate(436, 272)">
    <rect width="48" height="48" fill="#ffffff" stroke="#e9ecef" stroke-width="1" rx="4"/>
    <svg x="8" y="8" width="32" height="32" viewBox="0 0 24 24">
      <g><path d="M0,0h24v24H0V0z" fill="#2563eb"/></g><g><g><path d="M23.21,8.24C20.22,5.6,16.3,4,12,4S3.78,5.6,0.79,8.24C0.35,8.63,0.32,9.3,0.73,9.71l5.62,5.63l4.94,4.95 c0.39,0.39,1.02,0.39,1.42,0l2.34-2.34V15c0-0.45,0.09-0.88,0.23-1.29c0.54-1.57,2.01-2.71,3.77-2.71h2.94l1.29-1.29 C23.68,9.3,23.65,8.63,23.21,8.24z"/><path d="M22,16v-1c0-1.1-0.9-2-2-2s-2,0.9-2,2v1c-0.55,0-1,0.45-1,1v3c0,0.55,0.45,1,1,1h4c0.55,0,1-0.45,1-1v-3 C23,16.45,22.55,16,22,16z M21,16h-2v-1c0-0.55,0.45-1,1-1s1,0.45,1,1V16z"/></g></g>
    </svg>
  </g>
  <!-- Icon 27: 24px -->
  <g transform="translate(496, 272)">
    <rect width="48" height="48" fill="#ffffff" stroke="#e9ecef" stroke-width="1" rx="4"/>
    <svg x="8" y="8" width="32" height="32" viewBox="0 0 24 24">
      <g><path d="M0,0h24v24H0V0z" fill="#2563eb"/></g><g><g><path d="M9,5l0.01,8.55c-0.6-0.34-1.28-0.55-2-0.55C4.79,13,3,14.79,3,17s1.79,4,4.01,4S11,19.21,11,17V7h2c1.1,0,2-0.9,2-2v0 c0-1.1-0.9-2-2-2h-2C9.9,3,9,3.9,9,5z M20.29,11.72l-2.47-2.47c-0.32-0.31-0.85-0.09-0.85,0.35v3.94l-2.33-2.33 c-0.23-0.23-0.61-0.23-0.85,0l0,0c-0.23,0.23-0.23,0.62,0,0.85L16.73,15l-2.93,2.93c-0.23,0.23-0.23,0.61,0,0.85l0,0 c0.23,0.23,0.61,0.23,0.85,0l2.33-2.33v3.94c0,0.45,0.54,0.67,0.85,0.35l2.46-2.46c0.39-0.39,0.39-1.02,0-1.41L18.42,15l1.87-1.86 C20.68,12.75,20.68,12.11,20.29,11.72z M18.17,11.3l1.13,1.13l-1.13,1.13V11.3z M19.3,17.57l-1.13,1.13v-2.26L19.3,17.57z"/></g></g>
    </svg>
  </g>
  <!-- Icon 28: 20px -->
  <g transform="translate(556, 272)">
    <rect width="48" height="48" fill="#ffffff" stroke="#e9ecef" stroke-width="1" rx="4"/>
    <svg x="8" y="8" width="32" height="32" viewBox="0 0 20 20">
      <g><rect fill="#2563eb" height="20" width="20"/></g><g><path d="M13,3.5c0.55,0,1,0.45,1,1V17c0,0.55-0.45,1-1,1H7c-0.55,0-1-0.45-1-1V4.5c0-0.55,0.45-1,1-1h1.5V3c0-0.55,0.45-1,1-1h1 c0.55,0,1,0.45,1,1v0.5H13z M12.5,5h-5v5h5V5z"/></g>
    </svg>
  </g>
  <!-- Icon 29: 24px -->
  <g transform="translate(196, 332)">
    <rect width="48" height="48" fill="#ffffff" stroke="#e9ecef" stroke-width="1" rx="4"/>
    <svg x="8" y="8" width="32" height="32" viewBox="0 0 24 24">
      <rect fill="#2563eb" height="24" width="24"/><path d="M20,5h-1c-0.55,0-1,0.45-1,1v12c0,0.55,0.45,1,1,1h1c0.55,0,1-0.45,1-1V6C21,5.45,20.55,5,20,5z M16,5H8C7.45,5,7,5.45,7,6 v12c0,0.55,0.45,1,1,1h8c0.55,0,1-0.45,1-1V6C17,5.45,16.55,5,16,5z M5,5H4C3.45,5,3,5.45,3,6v12c0,0.55,0.45,1,1,1h1 c0.55,0,1-0.45,1-1V6C6,5.45,5.55,5,5,5z"/>
    </svg>
  </g>
  <!-- Icon 30: 24px -->
  <g transform="translate(256, 332)">
    <rect width="48" height="48" fill="#ffffff" stroke="#e9ecef" stroke-width="1" rx="4"/>
    <svg x="8" y="8" width="32" height="32" viewBox="0 0 24 24">
      <g><rect fill="#2563eb" height="24" width="24"/></g><g><path d="M3.5,4.02V2.75C3.5,2.34,3.16,2,2.75,2S2,2.34,2,2.75V6c0,0.55,0.45,1,1,1h3.25C6.66,7,7,6.66,7,6.25S6.66,5.5,6.25,5.5 H4.09c2.11-1.86,4.88-3,7.91-3c4.42,0,7.27,2.19,8.25,4.1C20.37,6.85,20.63,7,20.91,7c0.56,0,0.93-0.59,0.67-1.08 C20.3,3.39,16.81,1,12,1C8.78,1,5.82,2.13,3.5,4.02z M5.2,17.43c0-0.65,0.6-1.13,1.24-0.99L10,17.24V6.5C10,5.67,10.67,5,11.5,5 S13,5.67,13,6.5v6h0.91c0.31,0,0.62,0.07,0.89,0.21l4.09,2.04c0.77,0.38,1.21,1.22,1.09,2.07l-0.63,4.46 C19.21,22.27,18.36,23,17.37,23h-6.16c-0.53,0-1.29-0.21-1.66-0.59l-4.07-4.29C5.3,17.94,5.2,17.69,5.2,17.43z"/></g>
    </svg>
  </g>
  <!-- Icon 31: 24px -->
  <g transform="translate(316, 332)">
    <rect width="48" height="48" fill="#ffffff" stroke="#e9ecef" stroke-width="1" rx="4"/>
    <svg x="8" y="8" width="32" height="32" viewBox="0 0 24 24">
      <path d="M0 0h24v24H0z" fill="#2563eb"/><path d="M19 19h2v2h-2v-2zm0-2h2v-2h-2v2zM3 13h2v-2H3v2zm0 4h2v-2H3v2zm0-8h2V7H3v2zm0-4h2V3H3v2zm4 0h2V3H7v2zm8 16h2v-2h-2v2zm-4 0h2v-2h-2v2zm4 0h2v-2h-2v2zm-8 0h2v-2H7v2zm-4 0h2v-2H3v2zM21 8c0-2.76-2.24-5-5-5h-5v2h5c1.65 0 3 1.35 3 3v5h2V8z"/>
    </svg>
  </g>
  <!-- Icon 32: 24px -->
  <g transform="translate(376, 332)">
    <rect width="48" height="48" fill="#ffffff" stroke="#e9ecef" stroke-width="1" rx="4"/>
    <svg x="8" y="8" width="32" height="32" viewBox="0 0 24 24">
      <rect fill="#2563eb" height="24" width="24" x="0" y="0"/><path d="M12,2C6.48,2,2,6.48,2,12c0,5.52,4.48,10,10,10s10-4.48,10-10C22,6.48,17.52,2,12,2z M13.88,11.54l-4.25,4.25 c-0.39,0.39-1.02,0.39-1.41,0l0,0c-0.39-0.39-0.39-1.02,0-1.41l4.25-4.25L11.2,8.86C10.88,8.54,11.11,8,11.55,8l3.94,0 c0.28,0,0.5,0.22,0.5,0.5l0,3.94c0,0.45-0.54,0.67-0.85,0.35L13.88,11.54z"/><g/><g/><g/>
    </svg>
  </g>
  <!-- Icon 33: 24px -->
  <g transform="translate(436, 332)">
    <rect width="48" height="48" fill="#ffffff" stroke="#e9ecef" stroke-width="1" rx="4"/>
    <svg x="8" y="8" width="32" height="32" viewBox="0 0 24 24">
      <g><rect fill="#2563eb" height="24" width="24"/><rect fill="#2563eb" height="24" width="24"/></g><g><path d="M18.71,13.29l3.59-3.59c0.39-0.39,0.39-1.02,0-1.41l0,0c-0.39-0.39-1.02-0.39-1.41,0L19,10.17V4c0-0.55-0.45-1-1-1h0 c-0.55,0-1,0.45-1,1v6.17l-1.89-1.88c-0.39-0.39-1.02-0.39-1.41,0l0,0c-0.39,0.39-0.39,1.02,0,1.41l3.59,3.59 C17.69,13.68,18.32,13.68,18.71,13.29z"/><path d="M17,18H7V6h7V1H7C5.9,1,5,1.9,5,3v18c0,1.1,0.9,2,2,2h10c1.1,0,2-0.9,2-2v-5h-2V18z"/></g>
    </svg>
  </g>
  <!-- Icon 34: 24px -->
  <g transform="translate(496, 332)">
    <rect width="48" height="48" fill="#ffffff" stroke="#e9ecef" stroke-width="1" rx="4"/>
    <svg x="8" y="8" width="32" height="32" viewBox="0 0 24 24">
      <path d="M0 0h24v24H0V0z" fill="#2563eb"/><path d="M5.5 21c.83 0 1.5-.67 1.5-1.5V18h10v1.5c0 .83.67 1.5 1.5 1.5s1.5-.67 1.5-1.5V17c0-1.1-.9-2-2-2H6c-1.1 0-2 .9-2 2v2.5c0 .83.67 1.5 1.5 1.5zM20 10h1c.55 0 1 .45 1 1v1c0 .55-.45 1-1 1h-1c-.55 0-1-.45-1-1v-1c0-.55.45-1 1-1zM3 10h1c.55 0 1 .45 1 1v1c0 .55-.45 1-1 1H3c-.55 0-1-.45-1-1v-1c0-.55.45-1 1-1zm14 3H7V5c0-1.1.9-2 2-2h6c1.1 0 2 .9 2 2v8z"/>
    </svg>
  </g>
  <!-- Icon 35: 20px -->
  <g transform="translate(556, 332)">
    <rect width="48" height="48" fill="#ffffff" stroke="#e9ecef" stroke-width="1" rx="4"/>
    <svg x="8" y="8" width="32" height="32" viewBox="0 0 20 20">
      <g><rect fill="#2563eb" height="20" width="20"/></g><g><path d="M6,11.25c0-0.41,0.34-0.75,0.75-0.75s0.75,0.34,0.75,0.75C7.5,11.66,7.16,12,6.75,12S6,11.66,6,11.25z M10,12 c0.41,0,0.75-0.34,0.75-0.75c0-0.41-0.34-0.75-0.75-0.75s-0.75,0.34-0.75,0.75C9.25,11.66,9.59,12,10,12z M13.25,12 c0.41,0,0.75-0.34,0.75-0.75c0-0.41-0.34-0.75-0.75-0.75s-0.75,0.34-0.75,0.75C12.5,11.66,12.84,12,13.25,12z M6.75,15 c0.41,0,0.75-0.34,0.75-0.75c0-0.41-0.34-0.75-0.75-0.75S6,13.84,6,14.25C6,14.66,6.34,15,6.75,15z M10,15 c0.41,0,0.75-0.34,0.75-0.75c0-0.41-0.34-0.75-0.75-0.75s-0.75,0.34-0.75,0.75C9.25,14.66,9.59,15,10,15z M13.25,15 c0.41,0,0.75-0.34,0.75-0.75c0-0.41-0.34-0.75-0.75-0.75s-0.75,0.34-0.75,0.75C12.5,14.66,12.84,15,13.25,15z M13.25,2 C13.66,2,14,2.34,14,2.75V4h1.5C16.33,4,17,4.68,17,5.5v11c0,0.83-0.67,1.5-1.5,1.5h-11C3.67,18,3,17.33,3,16.5v-11 C3,4.68,3.67,4,4.5,4H6V2.75C6,2.34,6.34,2,6.75,2S7.5,2.34,7.5,2.75V4h5V2.75C12.5,2.34,12.84,2,13.25,2z M15.5,9h-11v7.5h11V9z"/></g>
    </svg>
  </g>
  
  <!-- Footer -->
  <text x="400" y="580" text-anchor="middle" font-family="system-ui, -apple-system, sans-serif" font-size="12" fill="#6c757d">
    Showing 35 of 2813 icons
  </text>
  
</svg>