<svg width="800" height="600" xmlns="http://www.w3.org/2000/svg">
  <!-- Background -->
  <rect width="800" height="600" fill="#ffffff"/>
  
  <!-- Header Background -->
  <rect width="800" height="80" fill="#f8f9fa"/>
  
  <!-- Title -->
  <text x="400" y="30" text-anchor="middle" font-family="system-ui, -apple-system, sans-serif" font-size="20" font-weight="bold" fill="#212529">Material Design Icons - outlined</text>
  
  <!-- Subtitle -->
  <text x="400" y="55" text-anchor="middle" font-family="system-ui, -apple-system, sans-serif" font-size="14" fill="#6c757d">2,808 icons</text>
  
  <!-- Icon Grid -->
  <!-- Icon 1: 24px -->
  <g transform="translate(196, 92)">
    <rect width="48" height="48" fill="#ffffff" stroke="#e9ecef" stroke-width="1" rx="4"/>
    <svg x="8" y="8" width="32" height="32" viewBox="0 0 24 24">
      <path d="M0 0h24v24H0z" fill="#2563eb"/><path d="M17 6H7c-3.31 0-6 2.69-6 6s2.69 6 6 6h10c3.31 0 6-2.69 6-6s-2.69-6-6-6zm0 10H7c-2.21 0-4-1.79-4-4s1.79-4 4-4h10c2.21 0 4 1.79 4 4s-1.79 4-4 4zm0-7c-1.66 0-3 1.34-3 3s1.34 3 3 3 3-1.34 3-3-1.34-3-3-3z"/>
    </svg>
  </g>
  <!-- Icon 2: 24px -->
  <g transform="translate(256, 92)">
    <rect width="48" height="48" fill="#ffffff" stroke="#e9ecef" stroke-width="1" rx="4"/>
    <svg x="8" y="8" width="32" height="32" viewBox="0 0 24 24">
      <path d="M0 0h24v24H0V0z" fill="#2563eb"/><path d="M5.35 5.64c-.9-.64-1.12-1.88-.49-2.79.63-.9 1.88-1.12 2.79-.49.9.64 1.12 1.88.49 2.79-.64.9-1.88 1.12-2.79.49zM16 19H8.93c-1.48 0-2.74-1.08-2.96-2.54L4 7H2l1.99 9.76C4.37 19.2 6.47 21 8.94 21H16v-2zm.23-4h-4.88l-1.03-4.1c1.58.89 3.28 1.54 5.15 1.22V9.99c-1.63.31-3.44-.27-4.69-1.25L9.14 7.47c-.23-.18-.49-.3-.76-.38-.32-.09-.66-.12-.99-.06h-.02c-1.23.22-2.05 1.39-1.84 2.61l1.35 5.92C7.16 16.98 8.39 18 9.83 18h6.85l3.82 3 1.5-1.5-5.77-4.5z"/>
    </svg>
  </g>
  <!-- Icon 3: 24px -->
  <g transform="translate(316, 92)">
    <rect width="48" height="48" fill="#ffffff" stroke="#e9ecef" stroke-width="1" rx="4"/>
    <svg x="8" y="8" width="32" height="32" viewBox="0 0 24 24">
      <g><rect fill="#2563eb" height="24" width="24" y="0"/></g><g><g><g><path d="M19.05,4.91C17.18,3.03,14.69,2,12.04,2c-5.46,0-9.91,4.45-9.91,9.91c0,1.75,0.46,3.45,1.32,4.95L2.05,22l5.25-1.38 c1.45,0.79,3.08,1.21,4.74,1.21h0c0,0,0,0,0,0c5.46,0,9.91-4.45,9.91-9.91C21.95,9.27,20.92,6.78,19.05,4.91z M12.04,20.15 L12.04,20.15c-1.48,0-2.93-0.4-4.2-1.15l-0.3-0.18l-3.12,0.82l0.83-3.04l-0.2-0.31c-0.82-1.31-1.26-2.83-1.26-4.38 c0-4.54,3.7-8.24,8.24-8.24c2.2,0,4.27,0.86,5.82,2.42c1.56,1.56,2.41,3.63,2.41,5.83C20.28,16.46,16.58,20.15,12.04,20.15z M16.56,13.99c-0.25-0.12-1.47-0.72-1.69-0.81c-0.23-0.08-0.39-0.12-0.56,0.12c-0.17,0.25-0.64,0.81-0.78,0.97 c-0.14,0.17-0.29,0.19-0.54,0.06c-0.25-0.12-1.05-0.39-1.99-1.23c-0.74-0.66-1.23-1.47-1.38-1.72c-0.14-0.25-0.02-0.38,0.11-0.51 c0.11-0.11,0.25-0.29,0.37-0.43c0.12-0.14,0.17-0.25,0.25-0.41c0.08-0.17,0.04-0.31-0.02-0.43c-0.06-0.12-0.56-1.34-0.76-1.84 c-0.2-0.48-0.41-0.42-0.56-0.43C8.86,7.33,8.7,7.33,8.53,7.33c-0.17,0-0.43,0.06-0.66,0.31C7.65,7.89,7.01,8.49,7.01,9.71 c0,1.22,0.89,2.4,1.01,2.56c0.12,0.17,1.75,2.67,4.23,3.74c0.59,0.26,1.05,0.41,1.41,0.52c0.59,0.19,1.13,0.16,1.56,0.1 c0.48-0.07,1.47-0.6,1.67-1.18c0.21-0.58,0.21-1.07,0.14-1.18S16.81,14.11,16.56,13.99z"/></g></g></g>
    </svg>
  </g>
  <!-- Icon 4: 20px -->
  <g transform="translate(376, 92)">
    <rect width="48" height="48" fill="#ffffff" stroke="#e9ecef" stroke-width="1" rx="4"/>
    <svg x="8" y="8" width="32" height="32" viewBox="0 0 20 20">
      <g><rect fill="#2563eb" height="20" width="20" x="0"/></g><g><g><polygon points="9.75,8.81 13,5.56 11.94,4.5 9.75,6.69 9.75,4 8.25,4 8.25,6.69 6.06,4.5 5,5.56 8.25,8.81 8.25,10.25 6.81,10.25 3.56,7 2.5,8.06 4.69,10.25 2,10.25 2,11.75 4.69,11.75 2.5,13.94 3.56,15 6.81,11.75 8.25,11.75 8.25,13.19 5,16.44 6.06,17.5 8.25,15.31 8.25,18 9.75,18 9.75,15.31 11.94,17.5 13,16.44 9.75,13.19 9.75,11.75 11.19,11.75 14.44,15 15.5,13.94 13.31,11.75 16,11.75 16,10.25 9.75,10.25"/><rect height="4" width="1.5" x="15.5" y="2"/><rect height="1.5" width="1.5" x="15.5" y="7"/></g></g>
    </svg>
  </g>
  <!-- Icon 5: 24px -->
  <g transform="translate(436, 92)">
    <rect width="48" height="48" fill="#ffffff" stroke="#e9ecef" stroke-width="1" rx="4"/>
    <svg x="8" y="8" width="32" height="32" viewBox="0 0 24 24">
      <rect fill="#2563eb" height="24" width="24" x="0" y="0"/><g><path d="M16,14v3H8v-7c0-2.21,1.79-4,4-4c0.85,0,1.64,0.26,2.28,0.72l1.43-1.43c-0.64-0.51-1.39-0.88-2.21-1.09V3.5 C13.5,2.67,12.83,2,12,2s-1.5,0.67-1.5,1.5v0.7C7.91,4.86,6,7.21,6,10v7H4v2h16v-2h-2v-3H16z M12,22c1.1,0,2-0.9,2-2h-4 C10,21.1,10.9,22,12,22z M24,8h-3V5h-2v3h-3v2h3v3h2v-3h3V8z"/></g>
    </svg>
  </g>
  <!-- Icon 6: 20px -->
  <g transform="translate(496, 92)">
    <rect width="48" height="48" fill="#ffffff" stroke="#e9ecef" stroke-width="1" rx="4"/>
    <svg x="8" y="8" width="32" height="32" viewBox="0 0 20 20">
      <g><rect fill="#2563eb" height="20" width="20" x="0"/></g><g><g><circle cx="7.5" cy="10.5" r="1"/><circle cx="12.5" cy="10.5" r="1"/><path d="M19.81,18.33l-0.93-8.38C18.38,5.42,14.55,2,10,2C5.45,2,1.62,5.42,1.12,9.95l-0.93,8.38C0.09,19.22,0.78,20,1.68,20 h16.65C19.22,20,19.91,19.22,19.81,18.33z M16.5,10c0,3.58-2.92,6.5-6.5,6.5S3.5,13.58,3.5,10c0-0.78,0.15-1.53,0.4-2.22 C4.61,8.24,5.44,8.5,6.32,8.5C7.85,8.5,9.2,7.72,10,6.53c0.8,1.19,2.15,1.97,3.68,1.97c0.87,0,1.71-0.26,2.42-0.72 C16.35,8.47,16.5,9.22,16.5,10z M10.75,3.55c1.94,0.22,3.63,1.31,4.66,2.86C14.92,6.78,14.32,7,13.68,7 c-1.62,0-2.93-1.32-2.93-2.93V3.55z M9.25,3.55v0.52C9.25,5.68,7.94,7,6.32,7C5.68,7,5.08,6.78,4.59,6.41 C5.62,4.85,7.31,3.77,9.25,3.55z M1.68,18.5l0.68-6.13C3.37,15.63,6.41,18,10,18s6.63-2.37,7.64-5.63l0.68,6.13H1.68z"/></g></g>
    </svg>
  </g>
  <!-- Icon 7: 20px -->
  <g transform="translate(556, 92)">
    <rect width="48" height="48" fill="#ffffff" stroke="#e9ecef" stroke-width="1" rx="4"/>
    <svg x="8" y="8" width="32" height="32" viewBox="0 0 20 20">
      <g><rect fill="#2563eb" height="20" width="20" x="0"/></g><g><path d="M18,6.5C18,5.12,14.42,4,10,4S2,5.12,2,6.5c0,1.3,3.18,2.37,7.25,2.49v3.51H7.61c-0.58,0-1.11,0.33-1.35,0.86L5,16h1.5l1-2 h5l1,2H15l-1.26-2.64c-0.25-0.52-0.78-0.86-1.35-0.86h-1.64V8.99C14.82,8.87,18,7.8,18,6.5z M10,5.5c3.04,0,5.16,0.55,6.1,1 c-0.94,0.45-3.06,1-6.1,1s-5.16-0.55-6.1-1C4.84,6.05,6.96,5.5,10,5.5z"/></g>
    </svg>
  </g>
  <!-- Icon 8: 24px -->
  <g transform="translate(196, 152)">
    <rect width="48" height="48" fill="#ffffff" stroke="#e9ecef" stroke-width="1" rx="4"/>
    <svg x="8" y="8" width="32" height="32" viewBox="0 0 24 24">
      <path d="M0 0h24v24H0V0z" fill="#2563eb"/><path d="M18.36 9l.6 3H5.04l.6-3h12.72M20 4H4v2h16V4zm0 3H4l-1 5v2h1v6h10v-6h4v6h2v-6h1v-2l-1-5zM6 18v-4h6v4H6z"/>
    </svg>
  </g>
  <!-- Icon 9: 24px -->
  <g transform="translate(256, 152)">
    <rect width="48" height="48" fill="#ffffff" stroke="#e9ecef" stroke-width="1" rx="4"/>
    <svg x="8" y="8" width="32" height="32" viewBox="0 0 24 24">
      <g><rect fill="#2563eb" height="24" width="24"/></g><g><path d="M6.41,21L5,19.59l4.83-4.83c0.75-0.75,1.17-1.77,1.17-2.83v-5.1L9.41,8.41L8,7l4-4l4,4l-1.41,1.41L13,6.83v5.1 c0,1.06,0.42,2.08,1.17,2.83L19,19.59L17.59,21L12,15.41L6.41,21z"/></g>
    </svg>
  </g>
  <!-- Icon 10: 20px -->
  <g transform="translate(316, 152)">
    <rect width="48" height="48" fill="#ffffff" stroke="#e9ecef" stroke-width="1" rx="4"/>
    <svg x="8" y="8" width="32" height="32" viewBox="0 0 20 20">
      <g><rect fill="#2563eb" height="20" width="20" x="0"/></g><g><path d="M16.5,10v6.5h-13V9.47L6,8.33v1.71l4-1.75V10H16.5z M15,2l-1,6.5h-2.5V6l-4,1.75V6L2,8.5V18h16V8.5L17,2H15z M14,11.5h-1.5 V15H14V11.5z M7.5,11.5H6V15h1.5V11.5z M10.75,11.5h-1.5V15h1.5V11.5z"/></g>
    </svg>
  </g>
  <!-- Icon 11: 24px -->
  <g transform="translate(376, 152)">
    <rect width="48" height="48" fill="#ffffff" stroke="#e9ecef" stroke-width="1" rx="4"/>
    <svg x="8" y="8" width="32" height="32" viewBox="0 0 24 24">
      <g><rect fill="#2563eb" height="24" width="24" y="0"/></g><g><g><path d="M2,21.5C2,21.78,2.22,22,2.49,22h13.02c0.27,0,0.49-0.22,0.49-0.5V20H2V21.5z"/><path d="M15.5,16H11v-2H7v2H2.5C2.22,16,2,16.22,2,16.5V18h14v-1.5C16,16.22,15.78,16,15.5,16z"/><path d="M20.47,15.45c0.99-1.07,1.53-2.48,1.53-3.94V2h-6v9.47c0,1.48,0.58,2.92,1.6,4l0.4,0.42V22h4v-2h-2v-4.03L20.47,15.45z M18,4h2v4h-2V4z M19.03,14.07c-0.65-0.71-1.03-1.65-1.03-2.6V10h2v1.51C20,12.46,19.66,13.36,19.03,14.07z"/></g></g>
    </svg>
  </g>
  <!-- Icon 12: 24px -->
  <g transform="translate(436, 152)">
    <rect width="48" height="48" fill="#ffffff" stroke="#e9ecef" stroke-width="1" rx="4"/>
    <svg x="8" y="8" width="32" height="32" viewBox="0 0 24 24">
      <g><rect fill="#2563eb" height="24" width="24"/></g><g><g><path d="M14.69,2.21L4.33,11.49c-0.64,0.58-0.28,1.65,0.58,1.73L13,14l-4.85,6.76c-0.22,0.31-0.19,0.74,0.08,1.01h0 c0.3,0.3,0.77,0.31,1.08,0.02l10.36-9.28c0.64-0.58,0.28-1.65-0.58-1.73L11,10l4.85-6.76c0.22-0.31,0.19-0.74-0.08-1.01l0,0 C15.47,1.93,15,1.92,14.69,2.21z"/></g></g>
    </svg>
  </g>
  <!-- Icon 13: 24px -->
  <g transform="translate(496, 152)">
    <rect width="48" height="48" fill="#ffffff" stroke="#e9ecef" stroke-width="1" rx="4"/>
    <svg x="8" y="8" width="32" height="32" viewBox="0 0 24 24">
      <path d="M0 0h24v24H0V0z" fill="#2563eb"/><path d="M10 11l-.94 2.06L7 14l2.06.94L10 17l.94-2.06L13 14l-2.06-.94zm8.01-7l2 4h-3l-2-4h-2l2 4h-3l-2-4h-2l2 4h-3l-2-4h-1c-1.1 0-1.99.9-1.99 2l-.01 12c0 1.1.9 2 2 2h16c1.1 0 1.99-.9 1.99-2V4h-3.99zm2 14h-16V6.47L5.77 10H16l-.63 1.37L14 12l1.37.63L16 14l.63-1.37L18 12l-1.37-.63L16 10h4.01v8z"/>
    </svg>
  </g>
  <!-- Icon 14: 24px -->
  <g transform="translate(556, 152)">
    <rect width="48" height="48" fill="#ffffff" stroke="#e9ecef" stroke-width="1" rx="4"/>
    <svg x="8" y="8" width="32" height="32" viewBox="0 0 24 24">
      <path d="M0 0h24v24H0V0z" fill="#2563eb"/><path d="M16.05 16.29l2.86-3.07c.38-.39.72-.79 1.04-1.18.32-.39.59-.78.82-1.17s.41-.78.54-1.17c.13-.39.19-.79.19-1.18 0-.53-.09-1.02-.27-1.46s-.44-.81-.78-1.11c-.34-.31-.77-.54-1.26-.71-.51-.16-1.08-.24-1.72-.24-.69 0-1.31.11-1.85.32-.54.21-1 .51-1.36.88-.37.37-.65.8-.84 1.3-.18.47-.27.97-.28 1.5h2.14c.01-.31.05-.6.13-.87.09-.29.23-.54.4-.75.18-.21.41-.37.68-.49s.6-.18.96-.18c.31 0 .58.05.81.15s.43.25.59.43.28.4.37.65c.08.25.13.52.13.81 0 .22-.03.43-.08.65-.06.22-.15.45-.29.7-.14.25-.32.53-.56.83-.23.3-.52.65-.88 1.03l-4.17 4.55V18H22v-1.71h-5.95zM8 7H6v4H2v2h4v4h2v-4h4v-2H8V7z"/>
    </svg>
  </g>
  <!-- Icon 15: 20px -->
  <g transform="translate(196, 212)">
    <rect width="48" height="48" fill="#ffffff" stroke="#e9ecef" stroke-width="1" rx="4"/>
    <svg x="8" y="8" width="32" height="32" viewBox="0 0 20 20">
      <g><rect fill="#2563eb" height="20" width="20"/></g><g><path d="M10.28 2H10c-4.47 0-8 3.62-8 8 0 4.42 3.58 8 8 8 2.97 0 5.55-1.62 6.93-4.02-6.01-.2-9.67-6.74-6.65-11.98zM10 16.5c-3.59 0-6.5-2.92-6.5-6.5 0-2.87 1.87-5.31 4.45-6.17-.54 2.26-.22 4.66.95 6.77 1.18 2.12 3.05 3.65 5.25 4.39-1.15.96-2.61 1.51-4.15 1.51z"/></g>
    </svg>
  </g>
  <!-- Icon 16: 24px -->
  <g transform="translate(256, 212)">
    <rect width="48" height="48" fill="#ffffff" stroke="#e9ecef" stroke-width="1" rx="4"/>
    <svg x="8" y="8" width="32" height="32" viewBox="0 0 24 24">
      <path d="M0 0h24v24H0V0z" fill="#2563eb"/><path d="M11.59 7.41L15.17 11H1v2h14.17l-3.59 3.59L13 18l6-6-6-6-1.41 1.41zM20 6v12h2V6h-2z"/>
    </svg>
  </g>
  <!-- Icon 17: 24px -->
  <g transform="translate(316, 212)">
    <rect width="48" height="48" fill="#ffffff" stroke="#e9ecef" stroke-width="1" rx="4"/>
    <svg x="8" y="8" width="32" height="32" viewBox="0 0 24 24">
      <g><rect fill="#2563eb" height="24" width="24"/></g><g><path d="M15,22H6c-1.1,0-2-0.9-2-2V4c0-1.1,0.9-2,2-2h8l6,6v6h-2V9h-5V4H6v16h9V22z M19,21.66l0-2.24l2.95,2.95l1.41-1.41L20.41,18 h2.24v-2H17v5.66H19z"/></g>
    </svg>
  </g>
  <!-- Icon 18: 24px -->
  <g transform="translate(376, 212)">
    <rect width="48" height="48" fill="#ffffff" stroke="#e9ecef" stroke-width="1" rx="4"/>
    <svg x="8" y="8" width="32" height="32" viewBox="0 0 24 24">
      <path d="M0 0h24v24H0V0z" fill="#2563eb"/><path d="M19 3H5c-1.1 0-2 .9-2 2v14c0 1.1.89 2 2 2h14c1.1 0 2-.9 2-2V5c0-1.1-.9-2-2-2zm0 16H5v-3h3.56c.69 1.19 1.97 2 3.45 2s2.75-.81 3.45-2H19v3zm0-5h-4.99c0 1.1-.9 2-2 2s-2-.9-2-2H5V5h14v9z"/>
    </svg>
  </g>
  <!-- Icon 19: 24px -->
  <g transform="translate(436, 212)">
    <rect width="48" height="48" fill="#ffffff" stroke="#e9ecef" stroke-width="1" rx="4"/>
    <svg x="8" y="8" width="32" height="32" viewBox="0 0 24 24">
      <rect fill="#2563eb" height="24" width="24"/><path d="M19.66,14c-0.66,1.92-2.24,3.54-4.4,4.39L14,18.88V20h-4v-1.12l-1.27-0.5c-2.16-0.85-3.74-2.47-4.4-4.39H19.66 M12,2 C6.48,2,2,6.48,2,12c0,3.69,2.47,6.86,6,8.25V22h8v-1.75c3.53-1.39,6-4.56,6-8.25h0C22,6.48,17.52,2,12,2L12,2z M10,12V4.26 C10.64,4.1,11.31,4,12,4s1.36,0.1,2,0.26V12H10L10,12z M16,12V5.08c2.39,1.39,4,3.96,4,6.92H16L16,12z M4,12 c0-2.95,1.61-5.53,4-6.92V12H4L4,12z"/>
    </svg>
  </g>
  <!-- Icon 20: 24px -->
  <g transform="translate(496, 212)">
    <rect width="48" height="48" fill="#ffffff" stroke="#e9ecef" stroke-width="1" rx="4"/>
    <svg x="8" y="8" width="32" height="32" viewBox="0 0 24 24">
      <rect fill="#2563eb" height="24" width="24"/><path d="M10,10v2H8v-2H10z M16,12v-2h-2v2H16z M21,14v8H3v-8h1v-4c0-4.42,3.58-8,8-8s8,3.58,8,8v4H21z M7,16H5v4h2V16z M11,16H9v4h2 V16z M11,4.08C8.16,4.56,6,7.03,6,10v4h5V4.08z M13,14h5v-4c0-2.97-2.16-5.44-5-5.92V14z M15,16h-2v4h2V16z M19,16h-2v4h2V16z"/>
    </svg>
  </g>
  <!-- Icon 21: 20px -->
  <g transform="translate(556, 212)">
    <rect width="48" height="48" fill="#ffffff" stroke="#e9ecef" stroke-width="1" rx="4"/>
    <svg x="8" y="8" width="32" height="32" viewBox="0 0 20 20">
      <g><rect fill="#2563eb" height="20" width="20" x="0"/></g><g><path d="M16.27,10l-3.14,5.5H6.87L3.73,10l3.14-5.5h6.26L16.27,10z M6,3l-4,7l4,7h8l4-7l-4-7H6z"/></g>
    </svg>
  </g>
  <!-- Icon 22: 20px -->
  <g transform="translate(196, 272)">
    <rect width="48" height="48" fill="#ffffff" stroke="#e9ecef" stroke-width="1" rx="4"/>
    <svg x="8" y="8" width="32" height="32" viewBox="0 0 20 20">
      <g><rect fill="#2563eb" height="20" width="20" x="0"/></g><g><g><polygon points="13,4 11,4 10,3 6,3 5,4 3,4 3,5 13,5"/><path d="M12.5,8c-0.17,0-0.33,0.03-0.5,0.05V6H4v8c0,0.55,0.45,1,1,1h3.76c0.81,1.21,2.18,2,3.74,2c2.49,0,4.5-2.01,4.5-4.5 S14.99,8,12.5,8z M8.28,14H5V7h6v1.28C9.26,8.9,8,10.54,8,12.5C8,13.03,8.11,13.53,8.28,14z M12.5,16C10.57,16,9,14.43,9,12.5 S10.57,9,12.5,9s3.5,1.57,3.5,3.5S14.43,16,12.5,16z"/><polygon points="13,12.42 13,10 12,10 12,13 14.6,14.5 15.1,13.63"/></g></g>
    </svg>
  </g>
  <!-- Icon 23: 20px -->
  <g transform="translate(256, 272)">
    <rect width="48" height="48" fill="#ffffff" stroke="#e9ecef" stroke-width="1" rx="4"/>
    <svg x="8" y="8" width="32" height="32" viewBox="0 0 20 20">
      <rect fill="#2563eb" height="20" width="20"/><path d="M17.5,5.5C16.12,5.5,15,6.62,15,8c0,0.08,0,0.15,0.01,0.22L13.42,8.7c-0.52-1.15-1.61-2-2.92-2.17V4.95 c1.14-0.23,2-1.24,2-2.45C12.5,1.12,11.38,0,10,0S7.5,1.12,7.5,2.5c0,1.21,0.86,2.22,2,2.45v1.58C8.2,6.71,7.11,7.55,6.58,8.7 L4.99,8.22C5,8.15,5,8.08,5,8c0-1.38-1.12-2.5-2.5-2.5S0,6.62,0,8c0,1.38,1.12,2.5,2.5,2.5c0.95,0,1.78-0.53,2.2-1.32L6.3,9.66 c-0.18,1.12,0.15,2.3,0.99,3.18l-1.15,1.43C5.8,14.1,5.41,14,5,14c-1.38,0-2.5,1.12-2.5,2.5C2.5,17.88,3.62,19,5,19 s2.5-1.12,2.5-2.5c0-0.61-0.22-1.17-0.58-1.6l1.15-1.43c1.18,0.71,2.68,0.71,3.86,0l1.15,1.43c-0.36,0.43-0.58,0.99-0.58,1.6 c0,1.38,1.12,2.5,2.5,2.5s2.5-1.12,2.5-2.5c0-1.38-1.12-2.5-2.5-2.5c-0.41,0-0.8,0.1-1.14,0.27l-1.15-1.43 c0.84-0.88,1.17-2.06,0.99-3.18l1.59-0.48c0.42,0.78,1.25,1.32,2.2,1.32c1.38,0,2.5-1.12,2.5-2.5C20,6.62,18.88,5.5,17.5,5.5z M2.5,9c-0.55,0-1-0.45-1-1c0-0.55,0.45-1,1-1s1,0.45,1,1C3.5,8.55,3.05,9,2.5,9z M5,17.5c-0.55,0-1-0.45-1-1c0-0.55,0.45-1,1-1 s1,0.45,1,1C6,17.05,5.55,17.5,5,17.5z M9,2.5c0-0.55,0.45-1,1-1s1,0.45,1,1c0,0.55-0.45,1-1,1S9,3.05,9,2.5z M10,12.5 c-1.24,0-2.25-1.01-2.25-2.25C7.75,9.01,8.76,8,10,8s2.25,1.01,2.25,2.25C12.25,11.49,11.24,12.5,10,12.5z M15,15.5 c0.55,0,1,0.45,1,1c0,0.55-0.45,1-1,1s-1-0.45-1-1C14,15.95,14.45,15.5,15,15.5z M17.5,9c-0.55,0-1-0.45-1-1c0-0.55,0.45-1,1-1 s1,0.45,1,1C18.5,8.55,18.05,9,17.5,9z"/>
    </svg>
  </g>
  <!-- Icon 24: 24px -->
  <g transform="translate(316, 272)">
    <rect width="48" height="48" fill="#ffffff" stroke="#e9ecef" stroke-width="1" rx="4"/>
    <svg x="8" y="8" width="32" height="32" viewBox="0 0 24 24">
      <g><path d="M0,0h24v24H0V0z" fill="#2563eb"/></g><g><path d="M17,1.01L7,1C5.9,1,5,1.9,5,3v18c0,1.1,0.9,2,2,2h10c1.1,0,2-0.9,2-2V3C19,1.9,18.1,1.01,17,1.01z M17,21H7v-1h10V21z M17,18H7V6h10V18z M17,4H7V3h10V4z M16,10.05l-1.41-1.41l-3.54,3.54l-1.41-1.41l-1.41,1.41L11.05,15L16,10.05z"/></g>
    </svg>
  </g>
  <!-- Icon 25: 20px -->
  <g transform="translate(376, 272)">
    <rect width="48" height="48" fill="#ffffff" stroke="#e9ecef" stroke-width="1" rx="4"/>
    <svg x="8" y="8" width="32" height="32" viewBox="0 0 20 20">
      <g><rect fill="#2563eb" height="20" width="20" x="0"/></g><g><path d="M10,3C6.12,3,2.6,4.53,0,7.01L10,17l10-9.99C17.4,4.53,13.88,3,10,3z M12.56,12.32c-1.53-1.07-3.6-1.07-5.13,0L2.21,7.1 C4.46,5.41,7.17,4.5,10,4.5c2.83,0,5.54,0.91,7.79,2.6L12.56,12.32z"/></g>
    </svg>
  </g>
  <!-- Icon 26: 24px -->
  <g transform="translate(436, 272)">
    <rect width="48" height="48" fill="#ffffff" stroke="#e9ecef" stroke-width="1" rx="4"/>
    <svg x="8" y="8" width="32" height="32" viewBox="0 0 24 24">
      <g><path d="M0,0h24v24H0V0z" fill="#2563eb"/></g><g><g><circle cx="6.5" cy="14.5" r="1.5"/><circle cx="15.5" cy="14.5" r="1.5"/><path d="M18,17H4v-5h11v-2H4.81l1.04-3H15V5H5.5C4.84,5,4.29,5.42,4.08,6.01L2,12v8c0,0.55,0.45,1,1,1h1c0.55,0,1-0.45,1-1v-1h12 v1c0,0.55,0.45,1,1,1h1c0.55,0,1-0.45,1-1v-8h-2V17z"/><path d="M22,3.85L19.15,1h-0.5v3.79l-2.3-2.29l-0.7,0.7L18.44,6l-2.79,2.79l0.7,0.71l2.3-2.3V11h0.5L22,8.14L19.85,6L22,3.85z M19.65,2.91l0.94,0.94l-0.94,0.94V2.91z M20.59,8.14l-0.94,0.94V7.2L20.59,8.14z"/></g></g>
    </svg>
  </g>
  <!-- Icon 27: 24px -->
  <g transform="translate(496, 272)">
    <rect width="48" height="48" fill="#ffffff" stroke="#e9ecef" stroke-width="1" rx="4"/>
    <svg x="8" y="8" width="32" height="32" viewBox="0 0 24 24">
      <path d="M0 0h24v24H0V0z" fill="#2563eb"/><path d="M12 5V1L7 6l5 5V7c3.31 0 6 2.69 6 6s-2.69 6-6 6-6-2.69-6-6H4c0 4.42 3.58 8 8 8s8-3.58 8-8-3.58-8-8-8zm-1.31 8.9l.25-2.17h2.39v.71h-1.7l-.11.92c.03-.02.07-.03.11-.05s.09-.04.15-.05.12-.03.18-.04.13-.02.2-.02c.21 0 .39.03.55.1s.3.16.41.28.2.27.25.45.09.38.09.6c0 .19-.03.37-.09.54s-.15.32-.27.45-.27.24-.45.31-.39.12-.64.12c-.18 0-.36-.03-.53-.08s-.32-.14-.46-.24-.24-.24-.32-.39-.13-.33-.13-.53h.84c.02.18.08.32.19.41s.25.15.42.15c.11 0 .2-.02.27-.06s.14-.1.18-.17.08-.15.11-.25.03-.2.03-.31-.01-.21-.04-.31-.07-.17-.13-.24-.13-.12-.21-.15-.19-.05-.3-.05c-.08 0-.15.01-.2.02s-.11.03-.15.05-.08.05-.12.07-.07.06-.1.09l-.67-.16z"/>
    </svg>
  </g>
  <!-- Icon 28: 24px -->
  <g transform="translate(556, 272)">
    <rect width="48" height="48" fill="#ffffff" stroke="#e9ecef" stroke-width="1" rx="4"/>
    <svg x="8" y="8" width="32" height="32" viewBox="0 0 24 24">
      <path d="M0 0h24v24H0V0z" fill="#2563eb"/><path d="M21 3H3c-1.1 0-2 .9-2 2v14c0 1.1.9 2 2 2h18c1.1 0 2-.9 2-2V5c0-1.1-.9-2-2-2zm0 16H3V5h18v14zM5 15h14v3H5z"/>
    </svg>
  </g>
  <!-- Icon 29: 20px -->
  <g transform="translate(196, 332)">
    <rect width="48" height="48" fill="#ffffff" stroke="#e9ecef" stroke-width="1" rx="4"/>
    <svg x="8" y="8" width="32" height="32" viewBox="0 0 20 20">
      <rect fill="#2563eb" height="20" width="20"/><path d="M2,6.5h3v7H2V6.5z M15,6.5v7h3v-7H15z M6,5h8v10H6V5z M7.5,13.5h5v-7h-5V13.5z"/>
    </svg>
  </g>
  <!-- Icon 30: 20px -->
  <g transform="translate(256, 332)">
    <rect width="48" height="48" fill="#ffffff" stroke="#e9ecef" stroke-width="1" rx="4"/>
    <svg x="8" y="8" width="32" height="32" viewBox="0 0 20 20">
      <g><rect fill="#2563eb" height="20" width="20" x="0"/></g><g><path d="M10.75,11.93C12.6,11.58,14,9.95,14,8c0-2.21-1.79-4-4-4C7.79,4,6,5.79,6,8c0,1.95,1.4,3.58,3.25,3.93l0,3.2l-1.19-1.19 L7,15l3,3l3-3l-1.06-1.06l-1.19,1.19L10.75,11.93z M12.5,8c0,1.38-1.12,2.5-2.5,2.5c-1.38,0-2.5-1.12-2.5-2.5S8.62,5.5,10,5.5 C11.38,5.5,12.5,6.62,12.5,8z"/></g>
    </svg>
  </g>
  <!-- Icon 31: 24px -->
  <g transform="translate(316, 332)">
    <rect width="48" height="48" fill="#ffffff" stroke="#e9ecef" stroke-width="1" rx="4"/>
    <svg x="8" y="8" width="32" height="32" viewBox="0 0 24 24">
      <path d="M0 0h24v24H0z" fill="#2563eb"/><path d="M8.5 14.5L4 19l1.5 1.5L9 17h2l-2.5-2.5zM15 1c-1.1 0-2 .9-2 2s.9 2 2 2 2-.9 2-2-.9-2-2-2zm6 20.01L18 24l-2.99-3.01V19.5l-7.1-7.09c-.31.05-.61.07-.91.07v-2.16c1.66.03 3.61-.87 4.67-2.04l1.4-1.55c.19-.21.43-.38.69-.5.29-.14.62-.23.96-.23h.03C15.99 6.01 17 7.02 17 8.26v5.75c0 .84-.35 1.61-.92 2.16l-3.58-3.58v-2.27c-.63.52-1.43 1.02-2.29 1.39L16.5 18H18l3 3.01z"/>
    </svg>
  </g>
  <!-- Icon 32: 24px -->
  <g transform="translate(376, 332)">
    <rect width="48" height="48" fill="#ffffff" stroke="#e9ecef" stroke-width="1" rx="4"/>
    <svg x="8" y="8" width="32" height="32" viewBox="0 0 24 24">
      <path d="M0 0h24v24H0V0z" fill="#2563eb"/><path d="M19 19H5V5h7V3H5c-1.11 0-2 .9-2 2v14c0 1.1.89 2 2 2h14c1.1 0 2-.9 2-2v-7h-2v7zM14 3v2h3.59l-9.83 9.83 1.41 1.41L19 6.41V10h2V3h-7z"/>
    </svg>
  </g>
  <!-- Icon 33: 24px -->
  <g transform="translate(436, 332)">
    <rect width="48" height="48" fill="#ffffff" stroke="#e9ecef" stroke-width="1" rx="4"/>
    <svg x="8" y="8" width="32" height="32" viewBox="0 0 24 24">
      <path d="M24 24H0V0h24v24z" fill="#2563eb" opacity=".87"/><path d="M4.5 11h-2V9H1v6h1.5v-2.5h2V15H6V9H4.5v2zm2.5-.5h1.5V15H10v-4.5h1.5V9H7v1.5zm5.5 0H14V15h1.5v-4.5H17V9h-4.5v1.5zm9-1.5H18v6h1.5v-2h2c.8 0 1.5-.7 1.5-1.5v-1c0-.8-.7-1.5-1.5-1.5zm0 2.5h-2v-1h2v1z"/>
    </svg>
  </g>
  <!-- Icon 34: 24px -->
  <g transform="translate(496, 332)">
    <rect width="48" height="48" fill="#ffffff" stroke="#e9ecef" stroke-width="1" rx="4"/>
    <svg x="8" y="8" width="32" height="32" viewBox="0 0 24 24">
      <g><rect fill="#2563eb" height="24" width="24"/><path d="M13,11H4c-1.1,0-2-0.9-2-2V6c0-1.1,0.9-2,2-2h9V11z M4,9h7V6H4V9z M15,20H4c-1.1,0-2-0.9-2-2v-3c0-1.1,0.9-2,2-2h11V20z M4,18h9v-3H4V18z M22,9h-2l2-5h-7v7h2v9L22,9z M4.75,17.25h1.5v-1.5h-1.5V17.25z M4.75,8.25h1.5v-1.5h-1.5V8.25z"/></g>
    </svg>
  </g>
  <!-- Icon 35: 24px -->
  <g transform="translate(556, 332)">
    <rect width="48" height="48" fill="#ffffff" stroke="#e9ecef" stroke-width="1" rx="4"/>
    <svg x="8" y="8" width="32" height="32" viewBox="0 0 24 24">
      <path d="M0 0h24v24H0V0z" fill="#2563eb"/><path d="M22.61 18.99l-9.08-9.08c.93-2.34.45-5.1-1.44-7C9.79.61 6.21.4 3.66 2.26L7.5 6.11 6.08 7.52 2.25 3.69C.39 6.23.6 9.82 2.9 12.11c1.86 1.86 4.57 2.35 6.89 1.48l9.11 9.11c.39.39 1.02.39 1.41 0l2.3-2.3c.4-.38.4-1.01 0-1.41zm-3 1.6l-9.46-9.46c-.61.45-1.29.72-2 .82-1.36.2-2.79-.21-3.83-1.25C3.37 9.76 2.93 8.5 3 7.26l3.09 3.09 4.24-4.24-3.09-3.09c1.24-.07 2.49.37 3.44 1.31 1.08 1.08 1.49 2.57 1.24 3.96-.12.71-.42 1.37-.88 1.96l9.45 9.45-.88.89z"/>
    </svg>
  </g>
  
  <!-- Footer -->
  <text x="400" y="580" text-anchor="middle" font-family="system-ui, -apple-system, sans-serif" font-size="12" fill="#6c757d">
    Showing 35 of 2808 icons
  </text>
  
</svg>