<svg width="800" height="600" xmlns="http://www.w3.org/2000/svg">
  <!-- Background -->
  <rect width="800" height="600" fill="#ffffff"/>
  
  <!-- Header Background -->
  <rect width="800" height="80" fill="#f8f9fa"/>
  
  <!-- Title -->
  <text x="400" y="30" text-anchor="middle" font-family="system-ui, -apple-system, sans-serif" font-size="20" font-weight="bold" fill="#212529">Material Design Icons - sharp</text>
  
  <!-- Subtitle -->
  <text x="400" y="55" text-anchor="middle" font-family="system-ui, -apple-system, sans-serif" font-size="14" fill="#6c757d">2,813 icons</text>
  
  <!-- Icon Grid -->
  <!-- Icon 1: 24px -->
  <g transform="translate(196, 92)">
    <rect width="48" height="48" fill="#ffffff" stroke="#e9ecef" stroke-width="1" rx="4"/>
    <svg x="8" y="8" width="32" height="32" viewBox="0 0 24 24">
      <path d="M0 0h24v24H0z" fill="#2563eb"/><path d="M17 7H7c-2.76 0-5 2.24-5 5s2.24 5 5 5h10c2.76 0 5-2.24 5-5s-2.24-5-5-5zm0 8c-1.66 0-3-1.34-3-3s1.34-3 3-3 3 1.34 3 3-1.34 3-3 3z"/>
    </svg>
  </g>
  <!-- Icon 2: 24px -->
  <g transform="translate(256, 92)">
    <rect width="48" height="48" fill="#ffffff" stroke="#e9ecef" stroke-width="1" rx="4"/>
    <svg x="8" y="8" width="32" height="32" viewBox="0 0 24 24">
      <path d="M0 0h24v24H0V0z" fill="#2563eb"/><path d="M23 3H1v16h7v2h8v-2h6.99L23 3zm-2 14H3V5h18v12z"/>
    </svg>
  </g>
  <!-- Icon 3: 24px -->
  <g transform="translate(316, 92)">
    <rect width="48" height="48" fill="#ffffff" stroke="#e9ecef" stroke-width="1" rx="4"/>
    <svg x="8" y="8" width="32" height="32" viewBox="0 0 24 24">
      <path d="M0 0h24v24H0V0z" fill="#2563eb"/><path d="M20 2.01 4 2v20h16V2.01zM18 20H6v-9.02h12V20zm0-11H6V4h12v5zM8 5h2v3H8V5zm0 7h2v5H8v-5z"/>
    </svg>
  </g>
  <!-- Icon 4: 24px -->
  <g transform="translate(376, 92)">
    <rect width="48" height="48" fill="#ffffff" stroke="#e9ecef" stroke-width="1" rx="4"/>
    <svg x="8" y="8" width="32" height="32" viewBox="0 0 24 24">
      <path d="M0 0h24v24H0V0z" fill="#2563eb"/><path d="M12 8c1.1 0 2-.9 2-2s-.9-2-2-2-2 .9-2 2 .9 2 2 2zm0 2c-1.1 0-2 .9-2 2s.9 2 2 2 2-.9 2-2-.9-2-2-2zm0 6c-1.1 0-2 .9-2 2s.9 2 2 2 2-.9 2-2-.9-2-2-2z"/>
    </svg>
  </g>
  <!-- Icon 5: 20px -->
  <g transform="translate(436, 92)">
    <rect width="48" height="48" fill="#ffffff" stroke="#e9ecef" stroke-width="1" rx="4"/>
    <svg x="8" y="8" width="32" height="32" viewBox="0 0 20 20">
      <g><rect fill="#2563eb" height="20" width="20"/></g><g><g><path d="M15.46,13.34c0.17,0.04,0.35,0.06,0.54,0.06c0.98,0,2-0.76,2-2.08C18,8.52,16.49,7,14.8,7c-0.83,0-1.29,0.22-3.01,0.91 c-0.14-0.12-0.28-0.22-0.44-0.31c0.22-0.99,0.64-1.47,1.1-1.78C13.09,5.39,13.4,4.75,13.4,4c0-0.98-0.76-2-2.08-2 C8.69,2,7.2,3.34,7.03,4.91L15.46,13.34z"/><path d="M2.93,2.93L1.87,3.99l2.67,2.67C4.37,6.62,4.19,6.6,4,6.6c-0.98,0-2,0.76-2,2.08C2,11.48,3.51,13,5.2,13 c0.83,0,1.29-0.22,3.01-0.91c0.14,0.12,0.28,0.22,0.44,0.31c-0.22,0.99-0.64,1.47-1.1,1.78C6.91,14.61,6.6,15.25,6.6,16 c0,0.98,0.76,2,2.08,2c2.63,0,4.12-1.34,4.29-2.91l3.04,3.04l1.06-1.06L2.93,2.93z"/></g></g>
    </svg>
  </g>
  <!-- Icon 6: 24px -->
  <g transform="translate(496, 92)">
    <rect width="48" height="48" fill="#ffffff" stroke="#e9ecef" stroke-width="1" rx="4"/>
    <svg x="8" y="8" width="32" height="32" viewBox="0 0 24 24">
      <path d="M0 0h24v24H0V0z" fill="#2563eb"/><path d="M15.41 16.59L10.83 12l4.58-4.59L14 6l-6 6 6 6 1.41-1.41z"/>
    </svg>
  </g>
  <!-- Icon 7: 20px -->
  <g transform="translate(556, 92)">
    <rect width="48" height="48" fill="#ffffff" stroke="#e9ecef" stroke-width="1" rx="4"/>
    <svg x="8" y="8" width="32" height="32" viewBox="0 0 20 20">
      <rect fill="#2563eb" height="20" width="20"/><path d="M16.12,14H18v-1.5h-2v-1.75h2v-1.5h-2V7.5h2V6h-2V3H5.12l1.5,1.5h7.88v7.88L16.12,14z M8.12,6H9v0.88L8.12,6z M13,8h-2.88 L10,7.88V6h3V8z M11.12,9H13v1.88L11.12,9z M2.22,2.22L1.16,3.28L2,4.12L2,17h12.88l1.84,1.84l1.06-1.06L2.22,2.22z M3.5,15.5V5.62 L5,7.12V10h2.88l1,1H5v3h4v-2.88l1,1V14h1.88l1.5,1.5H3.5z"/>
    </svg>
  </g>
  <!-- Icon 8: 20px -->
  <g transform="translate(196, 152)">
    <rect width="48" height="48" fill="#ffffff" stroke="#e9ecef" stroke-width="1" rx="4"/>
    <svg x="8" y="8" width="32" height="32" viewBox="0 0 20 20">
      <g><rect fill="#2563eb" height="20" width="20"/></g><g><g><path d="M15,6h-3v1h2v1.79L10.79,12H9V8H6c-1.66,0-3,1.34-3,3v2h2c0,1.1,0.9,2,2,2s2-0.9,2-2h2.21L15,9.21V6z M7,14 c-0.55,0-1-0.45-1-1h2C8,13.55,7.55,14,7,14z"/><rect height="1" width="4" x="5" y="6"/><path d="M15,11c-1.1,0-2,0.9-2,2c0,1.1,0.9,2,2,2s2-0.9,2-2C17,11.9,16.1,11,15,11z M15,14c-0.55,0-1-0.45-1-1c0-0.55,0.45-1,1-1 s1,0.45,1,1C16,13.55,15.55,14,15,14z"/></g></g>
    </svg>
  </g>
  <!-- Icon 9: 20px -->
  <g transform="translate(256, 152)">
    <rect width="48" height="48" fill="#ffffff" stroke="#e9ecef" stroke-width="1" rx="4"/>
    <svg x="8" y="8" width="32" height="32" viewBox="0 0 20 20">
      <g><rect fill="#2563eb" height="20" width="20"/></g><g><g><path d="M19,9l-2-4h-1.5V3H13v2h-3v4.5H1V15h2.05c0.23,1.14,1.24,2,2.45,2c1.21,0,2.22-0.86,2.45-2h4.1c0.23,1.14,1.24,2,2.45,2 c1.21,0,2.22-0.86,2.45-2H19V9z M5.5,15.5c-0.55,0-1-0.45-1-1s0.45-1,1-1s1,0.45,1,1S6.05,15.5,5.5,15.5z M14.5,15.5 c-0.55,0-1-0.45-1-1s0.45-1,1-1s1,0.45,1,1S15.05,15.5,14.5,15.5z M17.5,9.5h-6v-3h4.57l1.43,2.85V9.5z"/><path d="M9,7.5H8V6h1V5H1v1h1v1.5H1v1h8V7.5z M4.5,7.5H3V6h1.5V7.5z M7,7.5H5.5V6H7V7.5z"/></g></g>
    </svg>
  </g>
  <!-- Icon 10: 20px -->
  <g transform="translate(316, 152)">
    <rect width="48" height="48" fill="#ffffff" stroke="#e9ecef" stroke-width="1" rx="4"/>
    <svg x="8" y="8" width="32" height="32" viewBox="0 0 20 20">
      <g><rect fill="#2563eb" height="20" width="20"/></g><g><g><path d="M17.5,7v2H16V2h-1.5v2h-2V2H11v2H9V2H7.5v2h-2V2H4v7H2.5V7H1v10h7v-4h4v4h7V7H17.5z M9,10H7.5V7H9V10z M12.5,10H11V7h1.5 V10z"/></g></g>
    </svg>
  </g>
  <!-- Icon 11: 24px -->
  <g transform="translate(376, 152)">
    <rect width="48" height="48" fill="#ffffff" stroke="#e9ecef" stroke-width="1" rx="4"/>
    <svg x="8" y="8" width="32" height="32" viewBox="0 0 24 24">
      <path d="M0 0h24v24H0V0z" fill="#2563eb"/><path d="M19.35 10.04C18.67 6.59 15.64 4 12 4 9.11 4 6.6 5.64 5.35 8.04 2.34 8.36 0 10.91 0 14c0 3.31 2.69 6 6 6h13c2.76 0 5-2.24 5-5 0-2.64-2.05-4.78-4.65-4.96zM14 13v4h-4v-4H7l5-5 5 5h-3z"/>
    </svg>
  </g>
  <!-- Icon 12: 24px -->
  <g transform="translate(436, 152)">
    <rect width="48" height="48" fill="#ffffff" stroke="#e9ecef" stroke-width="1" rx="4"/>
    <svg x="8" y="8" width="32" height="32" viewBox="0 0 24 24">
      <path d="M0 0h24v24H0V0z" fill="#2563eb"/><path d="M12 2C6.47 2 2 6.47 2 12s4.47 10 10 10 10-4.47 10-10S17.53 2 12 2zm0 18c-4.41 0-8-3.59-8-8s3.59-8 8-8 8 3.59 8 8-3.59 8-8 8z"/>
    </svg>
  </g>
  <!-- Icon 13: 24px -->
  <g transform="translate(496, 152)">
    <rect width="48" height="48" fill="#ffffff" stroke="#e9ecef" stroke-width="1" rx="4"/>
    <svg x="8" y="8" width="32" height="32" viewBox="0 0 24 24">
      <path d="M0 0h24v24H0V0z" fill="#2563eb"/><path d="M3 5H1v18h18v-2H3V5zm20-4H5v18h18V1zm-2 16H7V3h14v14zm-4-4h-4v-2h4V5h-6v2h4v2h-4v6h6v-2z"/>
    </svg>
  </g>
  <!-- Icon 14: 24px -->
  <g transform="translate(556, 152)">
    <rect width="48" height="48" fill="#ffffff" stroke="#e9ecef" stroke-width="1" rx="4"/>
    <svg x="8" y="8" width="32" height="32" viewBox="0 0 24 24">
      <path d="M0 0h24v24H0V0z" fill="#2563eb"/><circle cx="12" cy="12" r="10"/>
    </svg>
  </g>
  <!-- Icon 15: 24px -->
  <g transform="translate(196, 212)">
    <rect width="48" height="48" fill="#ffffff" stroke="#e9ecef" stroke-width="1" rx="4"/>
    <svg x="8" y="8" width="32" height="32" viewBox="0 0 24 24">
      <g><rect fill="#2563eb" height="24" width="24"/></g><g><g><path d="M6,4.01C3.58,5.84,2,8.73,2,12c0,1.46,0.32,2.85,0.89,4.11L6,14.31V4.01z"/><path d="M11,11.42V2.05C9.94,2.16,8.93,2.43,8,2.84v10.32L11,11.42z"/><path d="M12,13.15l-8.11,4.68c0.61,0.84,1.34,1.59,2.18,2.2L15,14.89L12,13.15z"/><path d="M13,7.96v3.46l8.11,4.68c0.42-0.93,0.7-1.93,0.82-2.98L13,7.96z"/><path d="M8.07,21.2C9.28,21.71,10.6,22,12,22c3.34,0,6.29-1.65,8.11-4.16L17,16.04L8.07,21.2z"/><path d="M21.92,10.81c-0.55-4.63-4.26-8.3-8.92-8.76v3.6L21.92,10.81z"/></g></g>
    </svg>
  </g>
  <!-- Icon 16: 20px -->
  <g transform="translate(256, 212)">
    <rect width="48" height="48" fill="#ffffff" stroke="#e9ecef" stroke-width="1" rx="4"/>
    <svg x="8" y="8" width="32" height="32" viewBox="0 0 20 20">
      <rect fill="#2563eb" height="20" width="20"/><path d="M13 14h3.83l-1.09 2.17c-.25.51-.77.83-1.34.83H13M7.62 7.72l1.8-3-.9-1.49c-.39-.65-1.33-.65-1.72 0L5.05 6.17l2.57 1.55zm8.72.77L13.72 10l1.83 3h.85c.57 0 1.09-.32 1.34-.83.23-.46.21-1-.06-1.44l-1.34-2.24zM4.37 15.08c-.22.37-.24.83-.05 1.22.22.43.66.7 1.14.7H8.5v-3H5.02l-.65 1.08zM13 14v-1.54l-3 3 3 3V17m1.01-12.4-1.13-1.88c-.26-.44-.75-.72-1.28-.72H8.95l2.49 4.15-1.29.77 4.12 1.03 1.03-4.12-1.29.77zM5.3 11.58l1.28.77-1.02-4.12-4.12 1.03 1.29.77-.42.69c-.26.44-.28.98-.06 1.44l1.22 2.44 1.83-3.02z"/>
    </svg>
  </g>
  <!-- Icon 17: 20px -->
  <g transform="translate(316, 212)">
    <rect width="48" height="48" fill="#ffffff" stroke="#e9ecef" stroke-width="1" rx="4"/>
    <svg x="8" y="8" width="32" height="32" viewBox="0 0 20 20">
      <rect fill="#2563eb" height="20" width="20"/><path d="M16,4h-4.5v1.5h1.94l-2.76,2.76C9.99,7.78,9.15,7.5,8.25,7.5C5.9,7.5,4,9.4,4,11.75C4,14.1,5.9,16,8.25,16 s4.25-1.9,4.25-4.25c0-0.9-0.28-1.74-0.76-2.43l2.76-2.76V8.5H16V4z M8.25,14.5c-1.52,0-2.75-1.23-2.75-2.75S6.73,9,8.25,9 S11,10.23,11,11.75S9.77,14.5,8.25,14.5z"/>
    </svg>
  </g>
  <!-- Icon 18: 24px -->
  <g transform="translate(376, 212)">
    <rect width="48" height="48" fill="#ffffff" stroke="#e9ecef" stroke-width="1" rx="4"/>
    <svg x="8" y="8" width="32" height="32" viewBox="0 0 24 24">
      <g><rect fill="#2563eb" height="24" width="24"/></g><g><g><path d="M18.5,11c-1.56,0-2.92-0.9-3.58-2.21l-0.79-1.67l0,0C14.12,7.1,13.63,6,12.34,6l0,0C8.72,6,6,16.69,6,19h2.5l-2.1,2.8 L8,23l3-4h2v4h2v-4.03L13,13l0.49-2.71c0.81,1.23,2.05,2.14,3.51,2.52v0.69h1v-1c0-0.28,0.22-0.5,0.5-0.5s0.5,0.22,0.5,0.5V23h1 V12.5C20,11.67,19.33,11,18.5,11z"/><path d="M11.6,2.91c-0.06,0.19-0.1,0.38-0.1,0.59c0,1.1,0.9,2,2,2s2-0.9,2-2c0-1.1-0.9-2-2-2c-0.21,0-0.4,0.04-0.59,0.1 C12.76,1.25,12.41,1,12,1c-0.55,0-1,0.45-1,1C11,2.41,11.25,2.76,11.6,2.91z"/></g></g>
    </svg>
  </g>
  <!-- Icon 19: 24px -->
  <g transform="translate(436, 212)">
    <rect width="48" height="48" fill="#ffffff" stroke="#e9ecef" stroke-width="1" rx="4"/>
    <svg x="8" y="8" width="32" height="32" viewBox="0 0 24 24">
      <path d="M4 9h16v2H4V9zm0 4h10v2H4v-2z"/>
    </svg>
  </g>
  <!-- Icon 20: 24px -->
  <g transform="translate(496, 212)">
    <rect width="48" height="48" fill="#ffffff" stroke="#e9ecef" stroke-width="1" rx="4"/>
    <svg x="8" y="8" width="32" height="32" viewBox="0 0 24 24">
      <g><rect fill="#2563eb" height="24" width="24"/></g><g><g><path d="M10,17.62L17.62,10l-10-10L6.21,1.41l2.38,2.38L2.38,10L10,17.62z M10,5.21L14.79,10H5.21 L10,5.21z" enable-background="new"/><path d="M19,17c1.1,0,2-0.9,2-2c0-1.33-2-3.5-2-3.5s-2,2.17-2,3.5C17,16.1,17.9,17,19,17z" enable-background="new"/><rect enable-background="new" height="4" width="20" x="2" y="20"/></g></g>
    </svg>
  </g>
  <!-- Icon 21: 24px -->
  <g transform="translate(556, 212)">
    <rect width="48" height="48" fill="#ffffff" stroke="#e9ecef" stroke-width="1" rx="4"/>
    <svg x="8" y="8" width="32" height="32" viewBox="0 0 24 24">
      <path d="M0 0h24v24H0V0z" fill="#2563eb"/><path d="M12 2C6.48 2 2 6.48 2 12s4.48 10 10 10 10-4.48 10-10S17.52 2 12 2zm5 11H7v-2h10v2z"/>
    </svg>
  </g>
  <!-- Icon 22: 20px -->
  <g transform="translate(196, 272)">
    <rect width="48" height="48" fill="#ffffff" stroke="#e9ecef" stroke-width="1" rx="4"/>
    <svg x="8" y="8" width="32" height="32" viewBox="0 0 20 20">
      <g><rect fill="#2563eb" height="20" width="20"/></g><g><g><path d="M9.81,13.58c-1.89-0.96-3.43-2.5-4.39-4.39L7.1,7.5L6.69,4H3.02C2.63,10.79,8.21,16.37,15,15.98v-3.68l-3.51-0.41 L9.81,13.58z"/><path d="M16.67,5.3C16.53,5.19,15.11,4,13,4c-2.12,0-3.53,1.19-3.67,1.3L13,10L16.67,5.3z"/></g></g>
    </svg>
  </g>
  <!-- Icon 23: 20px -->
  <g transform="translate(256, 272)">
    <rect width="48" height="48" fill="#ffffff" stroke="#e9ecef" stroke-width="1" rx="4"/>
    <svg x="8" y="8" width="32" height="32" viewBox="0 0 20 20">
      <g><rect fill="#2563eb" height="20" width="20"/></g><g><path d="M14,3H6v4l3,3l-3,3v4h8v-4l-3-3l3-3V3z M13,13.41V16H7v-2.59l3-3L13,13.41z"/></g>
    </svg>
  </g>
  <!-- Icon 24: 24px -->
  <g transform="translate(316, 272)">
    <rect width="48" height="48" fill="#ffffff" stroke="#e9ecef" stroke-width="1" rx="4"/>
    <svg x="8" y="8" width="32" height="32" viewBox="0 0 24 24">
      <path d="M0 0h24v24H0V0z" fill="#2563eb"/><path d="M10.59 9.17L5.41 4 4 5.41l5.17 5.17 1.42-1.41zM14.5 4l2.04 2.04L4 18.59 5.41 20 17.96 7.46 20 9.5V4h-5.5zm.33 9.41l-1.41 1.41 3.13 3.13L14.5 20H20v-5.5l-2.04 2.04-3.13-3.13z"/>
    </svg>
  </g>
  <!-- Icon 25: 24px -->
  <g transform="translate(376, 272)">
    <rect width="48" height="48" fill="#ffffff" stroke="#e9ecef" stroke-width="1" rx="4"/>
    <svg x="8" y="8" width="32" height="32" viewBox="0 0 24 24">
      <g><rect fill="#2563eb" height="24" width="24"/></g><g><g enable-background="new"><path d="M21,4H3v16h18V4z M11,11H9.5v-0.5h-2v3h2V13H11v2H6V9h5V11z M18,11h-1.5v-0.5h-2v3h2V13H18v2h-5V9h5V11z"/></g></g>
    </svg>
  </g>
  <!-- Icon 26: 24px -->
  <g transform="translate(436, 272)">
    <rect width="48" height="48" fill="#ffffff" stroke="#e9ecef" stroke-width="1" rx="4"/>
    <svg x="8" y="8" width="32" height="32" viewBox="0 0 24 24">
      <rect fill="#2563eb" height="24" width="24"/><g><path d="M14.67,5v14H9.33V5H14.67z M15.67,19H21V5h-5.33V19z M8.33,19V5H3v14H8.33z"/></g>
    </svg>
  </g>
  <!-- Icon 27: 20px -->
  <g transform="translate(496, 272)">
    <rect width="48" height="48" fill="#ffffff" stroke="#e9ecef" stroke-width="1" rx="4"/>
    <svg x="8" y="8" width="32" height="32" viewBox="0 0 20 20">
      <g><rect fill="#2563eb" height="20" width="20"/></g><g><path d="M8.07,10.75C8.42,12.6,10.05,14,12,14c2.21,0,4-1.79,4-4c0-2.21-1.79-4-4-4c-1.95,0-3.58,1.4-3.93,3.25l-3.2,0l1.19-1.19 L5,7l-3,3l3,3l1.06-1.06l-1.19-1.19L8.07,10.75z"/></g>
    </svg>
  </g>
  <!-- Icon 28: 24px -->
  <g transform="translate(556, 272)">
    <rect width="48" height="48" fill="#ffffff" stroke="#e9ecef" stroke-width="1" rx="4"/>
    <svg x="8" y="8" width="32" height="32" viewBox="0 0 24 24">
      <path d="M0 0h24v24H0V0z" fill="#2563eb"/><path d="M11.99 2C6.47 2 2 6.48 2 12s4.47 10 9.99 10C17.52 22 22 17.52 22 12S17.52 2 11.99 2zM12 20c-4.42 0-8-3.58-8-8s3.58-8 8-8 8 3.58 8 8-3.58 8-8 8zm.5-13H11v6l5.25 3.15.75-1.23-4.5-2.67z"/>
    </svg>
  </g>
  <!-- Icon 29: 24px -->
  <g transform="translate(196, 332)">
    <rect width="48" height="48" fill="#ffffff" stroke="#e9ecef" stroke-width="1" rx="4"/>
    <svg x="8" y="8" width="32" height="32" viewBox="0 0 24 24">
      <rect fill="#2563eb" height="24" width="24" x="0" y="0"/><path d="M12,2C6.48,2,2,6.48,2,12c0,5.52,4.48,10,10,10s10-4.48,10-10C22,6.48,17.52,2,12,2z M13.88,11.54l-4.96,4.96l-1.41-1.41 l4.96-4.96L10.34,8l5.65,0.01L16,13.66L13.88,11.54z"/><g/><g/><g/>
    </svg>
  </g>
  <!-- Icon 30: 20px -->
  <g transform="translate(256, 332)">
    <rect width="48" height="48" fill="#ffffff" stroke="#e9ecef" stroke-width="1" rx="4"/>
    <svg x="8" y="8" width="32" height="32" viewBox="0 0 20 20">
      <g><rect fill="#2563eb" height="20" width="20"/></g><g><path d="M10.5,10.75h1V11h1v-0.75h-2V8h3v1.25h-1V9h-1v0.75h2V12h-3V10.75z M8,8v3H7v-1H6v2h3V8H8z"/></g>
    </svg>
  </g>
  <!-- Icon 31: 24px -->
  <g transform="translate(316, 332)">
    <rect width="48" height="48" fill="#ffffff" stroke="#e9ecef" stroke-width="1" rx="4"/>
    <svg x="8" y="8" width="32" height="32" viewBox="0 0 24 24">
      <g><path d="M0,0h24v24H0V0z" fill="#2563eb"/></g><g><path d="M4,20h16v2H4V20z M4,2h16v2H4V2z M13,9h3l-4-4L8,9h3v6H8l4,4l4-4h-3V9z"/></g>
    </svg>
  </g>
  <!-- Icon 32: 24px -->
  <g transform="translate(376, 332)">
    <rect width="48" height="48" fill="#ffffff" stroke="#e9ecef" stroke-width="1" rx="4"/>
    <svg x="8" y="8" width="32" height="32" viewBox="0 0 24 24">
      <g><path d="M0,0h24v24H0V0z" fill="#2563eb"/></g><g><path d="M12,2C6.48,2,2,6.48,2,12s4.48,10,10,10s10-4.48,10-10S17.52,2,12,2z M12,18.5L12,18.5c-0.83,0-1.5-0.67-1.5-1.5v0h3v0 C13.5,17.83,12.83,18.5,12,18.5z M17,16H7v-2h1v-3c0-1.86,1.28-3.41,3-3.86V5.5h2v1.64c1.72,0.45,3,2,3,3.86v3h1V16z"/></g>
    </svg>
  </g>
  <!-- Icon 33: 24px -->
  <g transform="translate(436, 332)">
    <rect width="48" height="48" fill="#ffffff" stroke="#e9ecef" stroke-width="1" rx="4"/>
    <svg x="8" y="8" width="32" height="32" viewBox="0 0 24 24">
      <g><rect fill="#2563eb" height="24" width="24"/></g><g><path d="M21,3H3v18h18V3z M12,6c1.93,0,3.5,1.57,3.5,3.5c0,1.93-1.57,3.5-3.5,3.5s-3.5-1.57-3.5-3.5C8.5,7.57,10.07,6,12,6z M19,19 H5v-0.23c0-0.62,0.28-1.2,0.76-1.58C7.47,15.82,9.64,15,12,15s4.53,0.82,6.24,2.19c0.48,0.38,0.76,0.97,0.76,1.58V19z"/></g>
    </svg>
  </g>
  <!-- Icon 34: 20px -->
  <g transform="translate(496, 332)">
    <rect width="48" height="48" fill="#ffffff" stroke="#e9ecef" stroke-width="1" rx="4"/>
    <svg x="8" y="8" width="32" height="32" viewBox="0 0 20 20">
      <g><rect fill="#2563eb" height="20" width="20"/></g><g><g><path d="M9,8h2v8H9V8z M5,16h2v-5H5V16z"/></g></g>
    </svg>
  </g>
  <!-- Icon 35: 24px -->
  <g transform="translate(556, 332)">
    <rect width="48" height="48" fill="#ffffff" stroke="#e9ecef" stroke-width="1" rx="4"/>
    <svg x="8" y="8" width="32" height="32" viewBox="0 0 24 24">
      <g><path d="M0,0h24v24H0V0z" fill="#2563eb"/></g><g><g><path d="M15,11H9V7H7v10h2v-4h6v4h2V7h-2V11z"/></g></g>
    </svg>
  </g>
  
  <!-- Footer -->
  <text x="400" y="580" text-anchor="middle" font-family="system-ui, -apple-system, sans-serif" font-size="12" fill="#6c757d">
    Showing 35 of 2813 icons
  </text>
  
</svg>