<svg width="800" height="600" xmlns="http://www.w3.org/2000/svg">
  <!-- Background -->
  <rect width="800" height="600" fill="#ffffff"/>
  
  <!-- Header Background -->
  <rect width="800" height="80" fill="#f8f9fa"/>
  
  <!-- Title -->
  <text x="400" y="30" text-anchor="middle" font-family="system-ui, -apple-system, sans-serif" font-size="20" font-weight="bold" fill="#212529">Material Design Icons - filled</text>
  
  <!-- Subtitle -->
  <text x="400" y="55" text-anchor="middle" font-family="system-ui, -apple-system, sans-serif" font-size="14" fill="#6c757d">2,870 icons</text>
  
  <!-- Icon Grid -->
  <!-- Icon 1: 24px -->
  <g transform="translate(12, 92)">
    <rect width="48" height="48" fill="#ffffff" stroke="#e9ecef" stroke-width="1" rx="4"/>
    <svg x="8" y="8" width="32" height="32" viewBox="0 0 24 24">
      <path d="M0 0h24v24H0z" fill="#2563eb"/><path d="M17 7H7c-2.76 0-5 2.24-5 5s2.24 5 5 5h10c2.76 0 5-2.24 5-5s-2.24-5-5-5zm0 8c-1.66 0-3-1.34-3-3s1.34-3 3-3 3 1.34 3 3-1.34 3-3 3z"/>
    </svg>
  </g>
  <!-- Icon 2: 24px -->
  <g transform="translate(72, 92)">
    <rect width="48" height="48" fill="#ffffff" stroke="#e9ecef" stroke-width="1" rx="4"/>
    <svg x="8" y="8" width="32" height="32" viewBox="0 0 24 24">
      <path d="M0 0h24v24H0z" fill="#2563eb"/><path d="M22.25 14.29l-.69 1.89L9.2 11.71l2.08-5.66 8.56 3.09c2.1.76 3.18 3.06 2.41 5.15zM1.5 12.14L8 14.48V19h8v-1.63L20.52 19l.69-1.89-19.02-6.86-.69 1.89zm5.8-1.94c1.49-.72 2.12-2.51 1.41-4C7.99 4.71 6.2 4.08 4.7 4.8c-1.49.71-2.12 2.5-1.4 4 .71 1.49 2.5 2.12 4 1.4z"/>
    </svg>
  </g>
  <!-- Icon 3: 20px -->
  <g transform="translate(132, 92)">
    <rect width="48" height="48" fill="#ffffff" stroke="#e9ecef" stroke-width="1" rx="4"/>
    <svg x="8" y="8" width="32" height="32" viewBox="0 0 20 20">
      <rect fill="#2563eb" height="20" width="20"/><path d="M18,14.5V16c-1.58,0-1.72-1-2.66-1c-0.95,0-1.08,1-2.67,1c-1.58,0-1.72-1-2.67-1c-0.95,0-1.08,1-2.67,1 c-1.59,0-1.72-1-2.67-1C3.72,15,3.58,16,2,16v-1.5c0.95,0,1.08-1,2.67-1c1.58,0,1.72,1,2.67,1c0.95,0,1.08-1,2.67-1 c1.58,0,1.72,1,2.67,1c0.95,0,1.08-1,2.67-1C16.92,13.5,17.05,14.5,18,14.5z M16.74,9.64l-1.07,1.07C15.49,10.89,15.23,11,14.97,11 L14,11V8.09l1.11,0.82L16,7.7l-6-4.4L4,7.7l0.89,1.21L6,8.09V11l-0.97,0c-0.27,0-0.52-0.11-0.71-0.29L3.26,9.64L2.2,10.7l1.07,1.07 c0.47,0.47,1.1,0.73,1.77,0.73h9.93c0.66,0,1.3-0.26,1.77-0.73l1.07-1.07L16.74,9.64z M10.75,11h-1.5V9h1.5V11z"/>
    </svg>
  </g>
  <!-- Icon 4: 24px -->
  <g transform="translate(192, 92)">
    <rect width="48" height="48" fill="#ffffff" stroke="#e9ecef" stroke-width="1" rx="4"/>
    <svg x="8" y="8" width="32" height="32" viewBox="0 0 24 24">
      <g><rect fill="#2563eb" height="24" width="24"/><path d="M20,15H4v-2h16V15z M20,17H4v2h16V17z M15,11l5-3.55L20,5l-5,3.55L10,5L4,8.66L4,11l5.92-3.61L15,11z"/></g>
    </svg>
  </g>
  <!-- Icon 5: 20px -->
  <g transform="translate(252, 92)">
    <rect width="48" height="48" fill="#ffffff" stroke="#e9ecef" stroke-width="1" rx="4"/>
    <svg x="8" y="8" width="32" height="32" viewBox="0 0 20 20">
      <g><rect fill="#2563eb" height="20" width="20"/></g><g><g><path d="M10,3c-3.87,0-7,3.13-7,7c0,3.87,3.13,7,7,7s7-3.13,7-7C17,6.13,13.87,3,10,3z M10.5,5.45l1.55-1.08 c1.14,0.41,2.11,1.16,2.81,2.12l-0.48,1.67l-0.68,0.23L10.5,6.15V5.45z M13.01,9.13l-1.14,3.37H8.12L6.99,9.13L10,7.02L13.01,9.13 z M7.95,4.37L9.5,5.45v0.7L6.31,8.39L5.63,8.15L5.15,6.49C5.84,5.53,6.82,4.78,7.95,4.37z M6.8,13.55l-1.52,0.13 c-0.79-1-1.26-2.26-1.27-3.63l1.3-0.95L6,9.34l1.19,3.53L6.8,13.55z M11.53,15.8c-0.49,0.13-1,0.2-1.53,0.2s-1.04-0.08-1.53-0.2 l-0.81-1.74l0.32-0.55h4.04l0.32,0.55L11.53,15.8z M14.72,13.69l-1.52-0.13l-0.4-0.68L14,9.34l0.69-0.24l1.3,0.95 C15.98,11.42,15.51,12.68,14.72,13.69z"/></g></g>
    </svg>
  </g>
  <!-- Icon 6: 24px -->
  <g transform="translate(312, 92)">
    <rect width="48" height="48" fill="#ffffff" stroke="#e9ecef" stroke-width="1" rx="4"/>
    <svg x="8" y="8" width="32" height="32" viewBox="0 0 24 24">
      <g><rect fill="#2563eb" height="24" width="24"/></g><g><path d="M19.94,9.06C19.5,5.73,16.57,3,13,3C9.47,3,6.57,5.61,6.08,9l-1.93,3.48C3.74,13.14,4.22,14,5,14h1l0,2c0,1.1,0.9,2,2,2h1 v3h7l0-4.68C18.62,15.07,20.35,12.24,19.94,9.06z M12.5,14c-0.41,0-0.74-0.33-0.74-0.74c0-0.41,0.33-0.73,0.74-0.73 c0.41,0,0.73,0.32,0.73,0.73C13.23,13.67,12.92,14,12.5,14z M14.26,9.68c-0.44,0.65-0.86,0.85-1.09,1.27 c-0.09,0.17-0.13,0.28-0.13,0.82h-1.06c0-0.29-0.04-0.75,0.18-1.16c0.28-0.51,0.83-0.81,1.14-1.26c0.33-0.47,0.15-1.36-0.8-1.36 c-0.62,0-0.92,0.47-1.05,0.86l-0.96-0.4C10.76,7.67,11.46,7,12.5,7c0.86,0,1.45,0.39,1.75,0.88C14.51,8.31,14.66,9.1,14.26,9.68z"/></g>
    </svg>
  </g>
  <!-- Icon 7: 20px -->
  <g transform="translate(372, 92)">
    <rect width="48" height="48" fill="#ffffff" stroke="#e9ecef" stroke-width="1" rx="4"/>
    <svg x="8" y="8" width="32" height="32" viewBox="0 0 20 20">
      <g><rect fill="#2563eb" height="20" width="20"/></g><g><g><polygon points="8.55,6.66 11.38,6.66 11.39,6.66 12.8,4.34 11.38,2 8.55,2 7.13,4.34 8.55,6.66"/><polygon points="11.38,13.34 8.55,13.34 8.55,13.34 7.13,15.66 8.55,18 11.38,18 12.8,15.66 11.39,13.34"/><polygon points="11.38,7.67 8.55,7.67 8.55,7.67 7.13,10 8.55,12.33 8.55,12.33 11.38,12.33 11.39,12.33 12.8,10 11.39,7.67"/><polygon points="13.67,9.5 16.5,9.5 17.92,7.17 16.5,4.83 13.67,4.83 12.25,7.17"/><polygon points="13.67,10.5 12.25,12.83 13.67,15.17 16.5,15.17 17.92,12.83 16.5,10.5"/><polygon points="6.26,9.5 7.68,7.17 6.26,4.83 3.43,4.83 2.02,7.17 3.43,9.5"/><polygon points="6.26,10.5 3.43,10.5 2.02,12.83 3.43,15.17 6.26,15.17 7.68,12.83"/></g></g>
    </svg>
  </g>
  <!-- Icon 8: 24px -->
  <g transform="translate(12, 152)">
    <rect width="48" height="48" fill="#ffffff" stroke="#e9ecef" stroke-width="1" rx="4"/>
    <svg x="8" y="8" width="32" height="32" viewBox="0 0 24 24">
      <g><path d="M0,0h24v24H0V0z" fill="#2563eb"/><path d="M12,7V3H2v18h20V7H12z M6,19H4v-2h2V19z M6,15H4v-2h2V15z M6,11H4V9h2V11z M6,7H4V5h2V7z M10,19H8v-2h2V19z M10,15H8v-2h2 V15z M10,11H8V9h2V11z M10,7H8V5h2V7z M20,19h-8v-2h2v-2h-2v-2h2v-2h-2V9h8V19z M18,11h-2v2h2V11z M18,15h-2v2h2V15z"/></g>
    </svg>
  </g>
  <!-- Icon 9: 24px -->
  <g transform="translate(72, 152)">
    <rect width="48" height="48" fill="#ffffff" stroke="#e9ecef" stroke-width="1" rx="4"/>
    <svg x="8" y="8" width="32" height="32" viewBox="0 0 24 24">
      <rect fill="#2563eb" height="24" width="24"/><path d="M17.92,7.02C17.45,4.18,14.97,2,12,2C9.82,2,7.83,3.18,6.78,5.06C4.09,5.41,2,7.74,2,10.5C2,13.53,4.47,16,7.5,16h10 c2.48,0,4.5-2.02,4.5-4.5C22,9.16,20.21,7.23,17.92,7.02z M18,17.01c0.55,0,1,0.45,1,1s-0.45,1-1,1s-1-0.45-1-1 S17.45,17.01,18,17.01z M7,20.01c0.55,0,1,0.45,1,1s-0.45,1-1,1s-1-0.45-1-1S6.45,20.01,7,20.01z M6,17.01h9c0.55,0,1,0.45,1,1l0,0 c0,0.55-0.45,1-1,1H6c-0.55,0-1-0.45-1-1l0,0C5,17.46,5.45,17.01,6,17.01z M10,20.01h7c0.55,0,1,0.45,1,1l0,0c0,0.55-0.45,1-1,1h-7 c-0.55,0-1-0.45-1-1l0,0C9,20.46,9.45,20.01,10,20.01z"/>
    </svg>
  </g>
  <!-- Icon 10: 24px -->
  <g transform="translate(132, 152)">
    <rect width="48" height="48" fill="#ffffff" stroke="#e9ecef" stroke-width="1" rx="4"/>
    <svg x="8" y="8" width="32" height="32" viewBox="0 0 24 24">
      <path d="M0 0h24v24H0V0z" fill="#2563eb"/><path d="M2 12.5C2 9.46 4.46 7 7.5 7H18c2.21 0 4 1.79 4 4s-1.79 4-4 4H9.5C8.12 15 7 13.88 7 12.5S8.12 10 9.5 10H17v2H9.41c-.55 0-.55 1 0 1H18c1.1 0 2-.9 2-2s-.9-2-2-2H7.5C5.57 9 4 10.57 4 12.5S5.57 16 7.5 16H17v2H7.5C4.46 18 2 15.54 2 12.5z"/>
    </svg>
  </g>
  <!-- Icon 11: 24px -->
  <g transform="translate(192, 152)">
    <rect width="48" height="48" fill="#ffffff" stroke="#e9ecef" stroke-width="1" rx="4"/>
    <svg x="8" y="8" width="32" height="32" viewBox="0 0 24 24">
      <g><rect fill="#2563eb" height="24" width="24"/></g><g><path d="M23 17v2h-5V3h2v14h3zm-6.27-1.85c.17.42.27.87.27 1.35 0 1.93-1.57 3.5-3.5 3.5-1.4 0-2.6-.82-3.16-2H6.83A2.99 2.99 0 014 20c-1.66 0-3-1.34-3-3 0-.89.39-1.69 1-2.24V10h2V4h8l4.73 11.15zM5 17c0-.55-.45-1-1-1s-1 .45-1 1 .45 1 1 1 1-.45 1-1zm8.65-4-2.97-7H6v4l2.92 3h4.73zM15 16.5c0-.83-.67-1.5-1.5-1.5s-1.5.67-1.5 1.5.67 1.5 1.5 1.5 1.5-.67 1.5-1.5z"/></g>
    </svg>
  </g>
  <!-- Icon 12: 20px -->
  <g transform="translate(252, 152)">
    <rect width="48" height="48" fill="#ffffff" stroke="#e9ecef" stroke-width="1" rx="4"/>
    <svg x="8" y="8" width="32" height="32" viewBox="0 0 20 20">
      <rect fill="#2563eb" height="20" width="20"/><g><path d="M4.96,11c0,0,0.31-0.42,0.31-1.15c0-0.77-0.77-2.19-0.77-2.79C4.5,6.74,4.54,6.42,4.81,6h0.98 C5.53,6.42,5.48,6.74,5.48,7.06c0,0.59,0.77,2.02,0.77,2.79c0,0.73-0.31,1.15-0.31,1.15H4.96z M8.32,11c0,0,0.31-0.42,0.31-1.15 c0-0.77-0.77-2.19-0.77-2.79C7.86,6.74,7.9,6.42,8.16,6H7.18C6.92,6.42,6.88,6.74,6.88,7.06c0,0.59,0.77,2.02,0.77,2.79 c0,0.73-0.31,1.15-0.31,1.15H8.32z M10.69,11c0,0,0.31-0.42,0.31-1.15c0-0.77-0.77-2.19-0.77-2.79c0-0.31,0.04-0.64,0.31-1.06H9.56 C9.29,6.42,9.25,6.74,9.25,7.06c0,0.59,0.77,2.02,0.77,2.79c0,0.73-0.31,1.15-0.31,1.15H10.69z M17.68,5.49 c0,0,0.07-0.47,0.07-1.24C17.75,3.01,16.74,2,15.5,2c-1.16,0-2.11,0.88-2.24,2l-0.94,8.4l-8.82,0c-0.29,0-0.53,0.24-0.5,0.52 C3.25,15.77,5.59,18,8.4,18c2.78,0,5.07-2.18,5.36-4.99l0.99-8.84c0.04-0.38,0.36-0.67,0.75-0.67c0.41,0,0.75,0.34,0.75,0.75 S16.2,5.3,16.2,5.3L17.68,5.49z"/></g>
    </svg>
  </g>
  <!-- Icon 13: 24px -->
  <g transform="translate(312, 152)">
    <rect width="48" height="48" fill="#ffffff" stroke="#e9ecef" stroke-width="1" rx="4"/>
    <svg x="8" y="8" width="32" height="32" viewBox="0 0 24 24">
      <rect fill="#2563eb" fill-rule="evenodd" height="24" width="24"/><path d="M12,2C6.48,2,2,6.48,2,12c0,1.54,0.36,2.98,0.97,4.29L1,23l6.71-1.97 C9.02,21.64,10.46,22,12,22c5.52,0,10-4.48,10-10C22,6.48,17.52,2,12,2z M16,13h-3v3h-2v-3H8v-2h3V8h2v3h3V13z" fill-rule="evenodd"/>
    </svg>
  </g>
  <!-- Icon 14: 20px -->
  <g transform="translate(372, 152)">
    <rect width="48" height="48" fill="#ffffff" stroke="#e9ecef" stroke-width="1" rx="4"/>
    <svg x="8" y="8" width="32" height="32" viewBox="0 0 20 20">
      <g><rect fill="#2563eb" height="20" width="20"/></g><g><g><path d="M16.71,14.59l-3.54-3.54h-1.41l-0.34-0.34l-0.71,0.71l0.34,0.34v1.41l3.54,3.54c0.39,0.39,1.02,0.39,1.41,0L16.71,16 C17.1,15.61,17.1,14.98,16.71,14.59z"/><path d="M12.57,8.14L12.57,8.14l0.88,0.88l1.06-1.06l1.41,1.41c0.78-0.78,0.78-2.05,0-2.83l-2.47-2.47l-0.74,0.74l0-1.49 l-0.49-0.49L9.74,5.31l0.49,0.49l1.49,0l-0.74,0.74l0.88,0.88L10,9.29L7.51,6.81l0.15-1.26L5.36,3.23L3.23,5.36l2.31,2.31 l1.26-0.15L9.29,10l-1.05,1.05H6.83l-3.54,3.54c-0.39,0.39-0.39,1.02,0,1.41L4,16.71c0.39,0.39,1.02,0.39,1.41,0l3.54-3.54v-1.41 L12.57,8.14z"/></g></g>
    </svg>
  </g>
  <!-- Icon 15: 24px -->
  <g transform="translate(12, 212)">
    <rect width="48" height="48" fill="#ffffff" stroke="#e9ecef" stroke-width="1" rx="4"/>
    <svg x="8" y="8" width="32" height="32" viewBox="0 0 24 24">
      <g><rect fill="#2563eb" height="24" width="24"/><path d="M9.78,11.16l-1.42,1.42c-0.68-0.69-1.34-1.58-1.79-2.94l1.94-0.49C8.83,10.04,9.28,10.65,9.78,11.16z M11,6L7,2L3,6h3.02 C6.04,6.81,6.1,7.54,6.21,8.17l1.94-0.49C8.08,7.2,8.03,6.63,8.02,6H11z M21,6l-4-4l-4,4h2.99c-0.1,3.68-1.28,4.75-2.54,5.88 c-0.5,0.44-1.01,0.92-1.45,1.55c-0.34-0.49-0.73-0.88-1.13-1.24L9.46,13.6C10.39,14.45,11,15.14,11,17c0,0,0,0,0,0h0v5h2v-5 c0,0,0,0,0,0c0-2.02,0.71-2.66,1.79-3.63c1.38-1.24,3.08-2.78,3.2-7.37H21z"/></g>
    </svg>
  </g>
  <!-- Icon 16: 24px -->
  <g transform="translate(72, 212)">
    <rect width="48" height="48" fill="#ffffff" stroke="#e9ecef" stroke-width="1" rx="4"/>
    <svg x="8" y="8" width="32" height="32" viewBox="0 0 24 24">
      <g><rect fill="#2563eb" height="24" width="24"/></g><g><g><g><polygon points="3,17.25 3,21 6.75,21 17.81,9.94 14.06,6.19"/></g><g><path d="M20.71,5.63l-2.34-2.34c-0.39-0.39-1.02-0.39-1.41,0l-1.83,1.83l3.75,3.75l1.83-1.83C21.1,6.65,21.1,6.02,20.71,5.63z"/></g></g></g>
    </svg>
  </g>
  <!-- Icon 17: 24px -->
  <g transform="translate(132, 212)">
    <rect width="48" height="48" fill="#ffffff" stroke="#e9ecef" stroke-width="1" rx="4"/>
    <svg x="8" y="8" width="32" height="32" viewBox="0 0 24 24">
      <g><rect fill="#2563eb" height="24" width="24"/></g><g><g><rect height="11" width="4" x="4" y="9"/><rect height="7" width="4" x="16" y="13"/><rect height="16" width="4" x="10" y="4"/></g></g>
    </svg>
  </g>
  <!-- Icon 18: 24px -->
  <g transform="translate(192, 212)">
    <rect width="48" height="48" fill="#ffffff" stroke="#e9ecef" stroke-width="1" rx="4"/>
    <svg x="8" y="8" width="32" height="32" viewBox="0 0 24 24">
      <path d="M0 0h24v24H0z" fill="#2563eb"/><path d="M12 2C6.47 2 2 6.47 2 12s4.47 10 10 10 10-4.47 10-10S17.53 2 12 2zm0 18c-4.41 0-8-3.59-8-8s3.59-8 8-8 8 3.59 8 8-3.59 8-8 8z"/>
    </svg>
  </g>
  <!-- Icon 19: 24px -->
  <g transform="translate(252, 212)">
    <rect width="48" height="48" fill="#ffffff" stroke="#e9ecef" stroke-width="1" rx="4"/>
    <svg x="8" y="8" width="32" height="32" viewBox="0 0 24 24">
      <path d="M0 0h24v24H0z" fill="#2563eb"/><path d="M3 5H1v16c0 1.1.9 2 2 2h16v-2H3V5zm12 10h2V5h-2v4h-2V5h-2v6h4v4zm6-14H7c-1.1 0-2 .9-2 2v14c0 1.1.9 2 2 2h14c1.1 0 2-.9 2-2V3c0-1.1-.9-2-2-2zm0 16H7V3h14v14z"/>
    </svg>
  </g>
  <!-- Icon 20: 24px -->
  <g transform="translate(312, 212)">
    <rect width="48" height="48" fill="#ffffff" stroke="#e9ecef" stroke-width="1" rx="4"/>
    <svg x="8" y="8" width="32" height="32" viewBox="0 0 24 24">
      <path d="M0 0h24v24H0z" fill="#2563eb"/><path d="M20 8.69V4h-4.69L12 .69 8.69 4H4v4.69L.69 12 4 15.31V20h4.69L12 23.31 15.31 20H20v-4.69L23.31 12 20 8.69zM12 18c-3.31 0-6-2.69-6-6s2.69-6 6-6 6 2.69 6 6-2.69 6-6 6zm0-10c-2.21 0-4 1.79-4 4s1.79 4 4 4 4-1.79 4-4-1.79-4-4-4z"/>
    </svg>
  </g>
  <!-- Icon 21: 20px -->
  <g transform="translate(372, 212)">
    <rect width="48" height="48" fill="#ffffff" stroke="#e9ecef" stroke-width="1" rx="4"/>
    <svg x="8" y="8" width="32" height="32" viewBox="0 0 20 20">
      <g><rect fill="#2563eb" height="20" width="20"/></g><g><g><path d="M15,10c-1.1,0-2-0.9-2-2V4h0.5C13.78,4,14,3.78,14,3.5C14,3.22,13.78,3,13.5,3h-7C6.22,3,6,3.22,6,3.5 C6,3.78,6.22,4,6.5,4H7v4c0,1.1-0.9,2-2,2v1h4.5v5.5L10,17l0.5-0.5V11H15V10z"/></g></g>
    </svg>
  </g>
  <!-- Icon 22: 20px -->
  <g transform="translate(12, 272)">
    <rect width="48" height="48" fill="#ffffff" stroke="#e9ecef" stroke-width="1" rx="4"/>
    <svg x="8" y="8" width="32" height="32" viewBox="0 0 20 20">
      <g><g><rect fill="#2563eb" height="20" width="20"/></g></g><g><g><circle cx="10" cy="11" r="1.5"/><path d="M10,6c-2.76,0-5,2.24-5,5c0,1.38,0.56,2.63,1.46,3.54l1.06-1.06C6.89,12.84,6.5,11.96,6.5,11c0-1.93,1.57-3.5,3.5-3.5 s3.5,1.57,3.5,3.5c0,0.96-0.39,1.84-1.03,2.47l1.06,1.06C14.44,13.63,15,12.38,15,11C15,8.24,12.76,6,10,6z"/><path d="M10,3c-4.42,0-8,3.58-8,8c0,2.21,0.9,4.21,2.34,5.66l1.06-1.06C4.23,14.42,3.5,12.79,3.5,11c0-3.58,2.92-6.5,6.5-6.5 c2.3,0,4.31,1.2,5.47,3h1.72C15.89,4.84,13.16,3,10,3z"/><rect height="5" width="1.5" x="16.5" y="9"/><rect height="1.5" width="1.5" x="16.5" y="15"/></g></g>
    </svg>
  </g>
  <!-- Icon 23: 24px -->
  <g transform="translate(72, 272)">
    <rect width="48" height="48" fill="#ffffff" stroke="#e9ecef" stroke-width="1" rx="4"/>
    <svg x="8" y="8" width="32" height="32" viewBox="0 0 24 24">
      <path d="M0 0h24v24H0z" fill="#2563eb"/><path d="M10 16h4c.55 0 1-.45 1-1v-3c0-.55-.45-1-1-1v-1c0-1.11-.9-2-2-2-1.11 0-2 .9-2 2v1c-.55 0-1 .45-1 1v3c0 .55.45 1 1 1zm.8-6c0-.66.54-1.2 1.2-1.2.66 0 1.2.54 1.2 1.2v1h-2.4v-1zM17 1H7c-1.1 0-2 .9-2 2v18c0 1.1.9 2 2 2h10c1.1 0 2-.9 2-2V3c0-1.1-.9-2-2-2zm0 18H7V5h10v14z"/>
    </svg>
  </g>
  <!-- Icon 24: 24px -->
  <g transform="translate(132, 272)">
    <rect width="48" height="48" fill="#ffffff" stroke="#e9ecef" stroke-width="1" rx="4"/>
    <svg x="8" y="8" width="32" height="32" viewBox="0 0 24 24">
      <g><path d="M0,0h24v24H0V0z" fill="#2563eb"/></g><g><g><path d="M12,2C6.48,2,2,6.48,2,12s4.48,10,10,10s10-4.48,10-10S17.52,2,12,2z M12,20c-4.41,0-8-3.59-8-8s3.59-8,8-8s8,3.59,8,8 S16.41,20,12,20z M12,6c-3.3,0-6,2.7-6,6s2.7,6,6,6s6-2.7,6-6S15.4,6,12,6z M15,13H9v-2h6V13z"/></g></g>
    </svg>
  </g>
  <!-- Icon 25: 24px -->
  <g transform="translate(192, 272)">
    <rect width="48" height="48" fill="#ffffff" stroke="#e9ecef" stroke-width="1" rx="4"/>
    <svg x="8" y="8" width="32" height="32" viewBox="0 0 24 24">
      <path d="M0 0h24v24H0V0z" fill="#2563eb"/><path d="M21.22 18.02l2 2H24v-2h-2.78zm.77-2l.01-10c0-1.11-.9-2-2-2H7.22l5.23 5.23c.18-.04.36-.07.55-.1V7.02l4 3.73-1.58 1.47 5.54 5.54c.61-.33 1.03-.99 1.03-1.74zM2.39 1.73L1.11 3l1.54 1.54c-.4.36-.65.89-.65 1.48v10c0 1.1.89 2 2 2H0v2h18.13l2.71 2.71 1.27-1.27L2.39 1.73zM7 15.02c.31-1.48.92-2.95 2.07-4.06l1.59 1.59c-1.54.38-2.7 1.18-3.66 2.47z"/>
    </svg>
  </g>
  <!-- Icon 26: 24px -->
  <g transform="translate(252, 272)">
    <rect width="48" height="48" fill="#ffffff" stroke="#e9ecef" stroke-width="1" rx="4"/>
    <svg x="8" y="8" width="32" height="32" viewBox="0 0 24 24">
      <path d="M0 0h24v24H0z" fill="#2563eb"/><path d="M17 3h-1v5h1V3zm-2 2h-2V4h2V3h-3v3h2v1h-2v1h3V5zm3-2v5h1V6h2V3h-3zm2 2h-1V4h1v1zm0 10.5c-1.25 0-2.45-.2-3.57-.57-.35-.11-.74-.03-1.01.24l-2.2 2.2c-2.83-1.44-5.15-3.75-6.59-6.59l2.2-2.21c.27-.26.35-.65.24-1C8.7 6.45 8.5 5.25 8.5 4c0-.55-.45-1-1-1H4c-.55 0-1 .45-1 1 0 9.39 7.61 17 17 17 .55 0 1-.45 1-1v-3.5c0-.55-.45-1-1-1z"/>
    </svg>
  </g>
  <!-- Icon 27: 24px -->
  <g transform="translate(312, 272)">
    <rect width="48" height="48" fill="#ffffff" stroke="#e9ecef" stroke-width="1" rx="4"/>
    <svg x="8" y="8" width="32" height="32" viewBox="0 0 24 24">
      <g><rect fill="#2563eb" height="24" width="24" x="0"/></g><g><g><g><path d="M21,3H3C1.89,3,1,3.89,1,5v12c0,1.1,0.89,2,2,2h5v2h8v-2h2v-2H3V5h18v8h2V5C23,3.89,22.1,3,21,3z M13,10V7h-2v3H8v2h3v3 h2v-3h3v-2H13z M24,18l-4.5,4.5L18,21l3-3l-3-3l1.5-1.5L24,18z"/></g></g></g>
    </svg>
  </g>
  <!-- Icon 28: 24px -->
  <g transform="translate(372, 272)">
    <rect width="48" height="48" fill="#ffffff" stroke="#e9ecef" stroke-width="1" rx="4"/>
    <svg x="8" y="8" width="32" height="32" viewBox="0 0 24 24">
      <path d="M0 0h24v24H0V0z" fill="#2563eb"/><path d="M8 12.5h1.5V14H8zM8 10h1.5v1.5H8zm11-7H5c-1.1 0-2 .9-2 2v14c0 1.1.9 2 2 2h14c1.1 0 2-.9 2-2V5c0-1.1-.9-2-2-2zm-8 11c0 .55-.45 1-1 1H7.5c-.55 0-1-.45-1-1v-4c0-.55.45-1 1-1H10c.55 0 1 .45 1 1v4zm7 1h-1.75l-1.75-2.25V15H13V9h1.5v2.25L16.25 9H18l-2.25 3L18 15z"/>
    </svg>
  </g>
  <!-- Icon 29: 24px -->
  <g transform="translate(12, 332)">
    <rect width="48" height="48" fill="#ffffff" stroke="#e9ecef" stroke-width="1" rx="4"/>
    <svg x="8" y="8" width="32" height="32" viewBox="0 0 24 24">
      <g><rect fill="#2563eb" height="24" width="24" x="0"/></g><g><g><g><path d="M21,10.12h-6.78l2.74-2.82c-2.73-2.7-7.15-2.8-9.88-0.1c-2.73,2.71-2.73,7.08,0,9.79s7.15,2.71,9.88,0 C18.32,15.65,19,14.08,19,12.1h2c0,1.98-0.88,4.55-2.64,6.29c-3.51,3.48-9.21,3.48-12.72,0c-3.5-3.47-3.53-9.11-0.02-12.58 s9.14-3.47,12.65,0L21,3V10.12z M12.5,8v4.25l3.5,2.08l-0.72,1.21L11,13V8H12.5z"/></g></g></g>
    </svg>
  </g>
  <!-- Icon 30: 24px -->
  <g transform="translate(72, 332)">
    <rect width="48" height="48" fill="#ffffff" stroke="#e9ecef" stroke-width="1" rx="4"/>
    <svg x="8" y="8" width="32" height="32" viewBox="0 0 24 24">
      <path d="M0 0h24v24H0z" fill="#2563eb"/><path d="M11.99 2c-5.52 0-10 4.48-10 10s4.48 10 10 10 10-4.48 10-10-4.48-10-10-10zm3.61 6.34c1.07 0 1.93.86 1.93 1.93 0 1.07-.86 1.93-1.93 1.93-1.07 0-1.93-.86-1.93-1.93-.01-1.07.86-1.93 1.93-1.93zm-6-1.58c1.3 0 2.36 1.06 2.36 2.36 0 1.3-1.06 2.36-2.36 2.36s-2.36-1.06-2.36-2.36c0-1.31 1.05-2.36 2.36-2.36zm0 9.13v3.75c-2.4-.75-4.3-2.6-5.14-4.96 1.05-1.12 3.67-1.69 5.14-1.69.53 0 1.2.08 1.9.22-1.64.87-1.9 2.02-1.9 2.68zM11.99 20c-.27 0-.53-.01-.79-.04v-4.07c0-1.42 2.94-2.13 4.4-2.13 1.07 0 2.92.39 3.84 1.15-1.17 2.97-4.06 5.09-7.45 5.09z"/>
    </svg>
  </g>
  <!-- Icon 31: 24px -->
  <g transform="translate(132, 332)">
    <rect width="48" height="48" fill="#ffffff" stroke="#e9ecef" stroke-width="1" rx="4"/>
    <svg x="8" y="8" width="32" height="32" viewBox="0 0 24 24">
      <path d="M0 0h24v24H0z" fill="#2563eb"/><path d="M1 21h22L12 2 1 21zm12-3h-2v-2h2v2zm0-4h-2v-4h2v4z"/>
    </svg>
  </g>
  <!-- Icon 32: 24px -->
  <g transform="translate(192, 332)">
    <rect width="48" height="48" fill="#ffffff" stroke="#e9ecef" stroke-width="1" rx="4"/>
    <svg x="8" y="8" width="32" height="32" viewBox="0 0 24 24">
      <g><rect fill="#2563eb" height="24" width="24"/><path d="M14,11.05l-3.42-3.42c0.32-0.34,0.74-0.57,1.23-0.61c0.48-0.04,0.84,0.07,1.2,0.26c0.19,0.1,0.39,0.22,0.63,0.46l1.29,1.43 c0.98,1.08,2.53,1.85,4.07,1.83v2C17.25,12.99,15.29,12.12,14,11.05z M12,6c1.1,0,2-0.9,2-2s-0.9-2-2-2c-1.1,0-2,0.9-2,2 S10.9,6,12,6z M2.81,2.81L1.39,4.22L10,12.83V15c0,1.1,0.9,2,2,2h2.17l5.61,5.61l1.41-1.41L2.81,2.81z M10,20c-1.66,0-3-1.34-3-3 c0-1.31,0.84-2.41,2-2.83V12.1c-2.28,0.46-4,2.48-4,4.9c0,2.76,2.24,5,5,5c2.42,0,4.44-1.72,4.9-4h-2.07 C12.42,19.16,11.31,20,10,20z"/></g>
    </svg>
  </g>
  <!-- Icon 33: 24px -->
  <g transform="translate(252, 332)">
    <rect width="48" height="48" fill="#ffffff" stroke="#e9ecef" stroke-width="1" rx="4"/>
    <svg x="8" y="8" width="32" height="32" viewBox="0 0 24 24">
      <rect fill="#2563eb" height="24" width="24"/><path d="M8.58 10H1l6.17 4.41L4.83 22 11 17.31 17.18 22l-2.35-7.59L21 10h-7.58L11 2l-2.42 8zm12.78 12-1.86-6.01L23.68 13h-3.44l-3.08 2.2 1.46 4.72L21.36 22zM17 8l-1.82-6-1.04 3.45.77 2.55H17z"/>
    </svg>
  </g>
  <!-- Icon 34: 24px -->
  <g transform="translate(312, 332)">
    <rect width="48" height="48" fill="#ffffff" stroke="#e9ecef" stroke-width="1" rx="4"/>
    <svg x="8" y="8" width="32" height="32" viewBox="0 0 24 24">
      <path d="M0 0h24v24H0z" fill="#2563eb"/><path d="M18 7l-1.41-1.41-6.34 6.34 1.41 1.41L18 7zm4.24-1.41L11.66 16.17 7.48 12l-1.41 1.41L11.66 19l12-12-1.42-1.41zM.41 13.41L6 19l1.41-1.41L1.83 12 .41 13.41z"/>
    </svg>
  </g>
  <!-- Icon 35: 24px -->
  <g transform="translate(372, 332)">
    <rect width="48" height="48" fill="#ffffff" stroke="#e9ecef" stroke-width="1" rx="4"/>
    <svg x="8" y="8" width="32" height="32" viewBox="0 0 24 24">
      <path d="M0 0h24v24H0z" fill="#2563eb"/><path d="M18 2H6c-1.1 0-2 .9-2 2v16c0 1.1.9 2 2 2h12c1.1 0 2-.9 2-2V4c0-1.1-.9-2-2-2zM6 4h5v8l-2.5-1.5L6 12V4z"/>
    </svg>
  </g>
  
  <!-- Footer -->
  <text x="400" y="580" text-anchor="middle" font-family="system-ui, -apple-system, sans-serif" font-size="12" fill="#6c757d">
    Showing 35 of 2870 icons
  </text>
  
</svg>