<svg width="448" height="368" xmlns="http://www.w3.org/2000/svg">
  <!-- Background -->
  <rect width="448" height="368" fill="#1a1a1a"/>
  
  <!-- Icon Grid -->
  <!-- Icon 1: 24px -->
  <g transform="translate(20, 20)">
    <rect width="48" height="48" fill="#1a1a1a" stroke="#333333" stroke-width="1" rx="4"/>
    <svg x="8" y="8" width="32" height="32" viewBox="0 0 24 24" style="fill: #ffffff; stroke: none;">
      <path d="M0 0h24v24H0z" fill="none"/><path d="M17 7H7c-2.76 0-5 2.24-5 5s2.24 5 5 5h10c2.76 0 5-2.24 5-5s-2.24-5-5-5zm0 8c-1.66 0-3-1.34-3-3s1.34-3 3-3 3 1.34 3 3-1.34 3-3 3z"/>
    </svg>
  </g>
  <!-- Icon 2: 24px -->
  <g transform="translate(80, 20)">
    <rect width="48" height="48" fill="#1a1a1a" stroke="#333333" stroke-width="1" rx="4"/>
    <svg x="8" y="8" width="32" height="32" viewBox="0 0 24 24" style="fill: #ffffff; stroke: none;">
      <path d="M0 0h24v24H0V0z" fill="none"/><path d="M15.73 14.85l-2.52 2.52c-2.83-1.44-5.15-3.75-6.59-6.59l2.53-2.53L8.54 3H3.03C2.45 13.18 10.82 21.55 21 20.97v-5.51l-5.27-.61zM18 9h-2.59l5.02-5.02-1.41-1.41L14 7.59V5h-2v6h6z"/>
    </svg>
  </g>
  <!-- Icon 3: 24px -->
  <g transform="translate(140, 20)">
    <rect width="48" height="48" fill="#1a1a1a" stroke="#333333" stroke-width="1" rx="4"/>
    <svg x="8" y="8" width="32" height="32" viewBox="0 0 24 24" style="fill: #ffffff; stroke: none;">
      <path d="M0 0h24v24H0V0z" fill="none"/><path d="M12 8l-6 6 1.41 1.41L12 10.83l4.59 4.58L18 14l-6-6z"/>
    </svg>
  </g>
  <!-- Icon 4: 20px -->
  <g transform="translate(200, 20)">
    <rect width="48" height="48" fill="#1a1a1a" stroke="#333333" stroke-width="1" rx="4"/>
    <svg x="8" y="8" width="32" height="32" viewBox="0 0 20 20" style="fill: #ffffff; stroke: none;">
      <g><rect fill="none" height="20" width="20"/></g><g><g><path d="M10,3C7.24,3,5,5.24,5,8s2.24,5,5,5s5-2.24,5-5S12.76,3,10,3z M10,12c-2.21,0-4-1.79-4-4c0-2.21,1.79-4,4-4s4,1.79,4,4 C14,10.21,12.21,12,10,12z"/><circle cx="8.5" cy="6.5" r=".5"/><circle cx="11.5" cy="6.5" r=".5"/><circle cx="10" cy="5.5" r=".5"/><path d="M7,15h1.5c0.55,0,1,0.45,1,1v1h1v-1c0-0.55,0.45-1,1-1H13v-1H7V15z"/></g></g>
    </svg>
  </g>
  <!-- Icon 5: 20px -->
  <g transform="translate(260, 20)">
    <rect width="48" height="48" fill="#1a1a1a" stroke="#333333" stroke-width="1" rx="4"/>
    <svg x="8" y="8" width="32" height="32" viewBox="0 0 20 20" style="fill: #ffffff; stroke: none;">
      <g><rect fill="none" height="20" width="20"/></g><g><g><path d="M8,11c2,0,6,0.96,6,2.86V16H2v-2.14C2,11.96,6,11,8,11z"/><circle cx="8" cy="7" r="3"/><rect height="1" width="4" x="13" y="9"/></g></g>
    </svg>
  </g>
  <!-- Icon 6: 20px -->
  <g transform="translate(320, 20)">
    <rect width="48" height="48" fill="#1a1a1a" stroke="#333333" stroke-width="1" rx="4"/>
    <svg x="8" y="8" width="32" height="32" viewBox="0 0 20 20" style="fill: #ffffff; stroke: none;">
      <g><rect fill="none" height="20" width="20"/></g><g><g><rect height="2.83" transform="matrix(0.7071 -0.7071 0.7071 0.7071 -4.6317 4.818)" width="2.83" x="2.09" y="6.59"/><polygon points="16.5,6.5 14.5,10 18.5,10"/><path d="M13.9,10.93C12.87,10.41,11.54,10,10,10c-1.54,0-2.87,0.41-3.9,0.93C5.42,11.26,5,11.96,5,12.72L5,14h10l0-1.28 C15,11.96,14.58,11.26,13.9,10.93z"/><path d="M18.74,11.01c-0.64-0.25-1.4-0.41-2.24-0.41c-0.44,0-0.86,0.05-1.25,0.12c0.48,0.54,0.75,1.24,0.75,1.99L16,14h4l0-1.13 C20,12.05,19.5,11.31,18.74,11.01z"/><path d="M3.5,10.6c-0.85,0-1.6,0.16-2.24,0.41C0.5,11.31,0,12.05,0,12.87L0,14h4l0-1.28c0-0.76,0.28-1.45,0.75-1.99 C4.36,10.65,3.94,10.6,3.5,10.6z"/><path d="M10,9c1.38,0,2.5-1.12,2.5-2.5C12.5,5.12,11.38,4,10,4S7.5,5.12,7.5,6.5C7.5,7.88,8.62,9,10,9z"/></g></g>
    </svg>
  </g>
  <!-- Icon 7: 20px -->
  <g transform="translate(380, 20)">
    <rect width="48" height="48" fill="#1a1a1a" stroke="#333333" stroke-width="1" rx="4"/>
    <svg x="8" y="8" width="32" height="32" viewBox="0 0 20 20" style="fill: #ffffff; stroke: none;">
      <g><rect fill="none" height="20" width="20"/></g><g><g><polygon points="17,8 10,3 3,8 9.5,8 9.5,17 10.5,17 10.5,8"/><polygon points="4.92,13 4.37,10 3.38,10.18 4,13.5 4,17 5,17 5,14 7,14 7,17 8,17 8,13"/><polygon points="15.63,10 15.08,13 12,13 12,17 13,17 13,14 15,14 15,17 16,17 16,13.5 16.62,10.18"/></g></g>
    </svg>
  </g>
  <!-- Icon 8: 24px -->
  <g transform="translate(20, 80)">
    <rect width="48" height="48" fill="#1a1a1a" stroke="#333333" stroke-width="1" rx="4"/>
    <svg x="8" y="8" width="32" height="32" viewBox="0 0 24 24" style="fill: #ffffff; stroke: none;">
      <g><rect fill="none" height="24" width="24"/></g><g><g><path d="M19.03,3.56c-1.67-1.39-3.74-2.3-6.03-2.51v2.01c1.73,0.19,3.31,0.88,4.61,1.92L19.03,3.56z"/><path d="M11,3.06V1.05C8.71,1.25,6.64,2.17,4.97,3.56l1.42,1.42C7.69,3.94,9.27,3.25,11,3.06z"/><path d="M4.98,6.39L3.56,4.97C2.17,6.64,1.26,8.71,1.05,11h2.01C3.25,9.27,3.94,7.69,4.98,6.39z"/><path d="M20.94,11h2.01c-0.21-2.29-1.12-4.36-2.51-6.03l-1.42,1.42C20.06,7.69,20.75,9.27,20.94,11z"/><polygon points="7,12 10.44,13.56 12,17 13.56,13.56 17,12 13.56,10.44 12,7 10.44,10.44"/><path d="M12,21c-3.11,0-5.85-1.59-7.46-4H7v-2H1v6h2v-2.7c1.99,2.84,5.27,4.7,9,4.7c4.87,0,9-3.17,10.44-7.56l-1.96-0.45 C19.25,18.48,15.92,21,12,21z"/></g></g>
    </svg>
  </g>
  <!-- Icon 9: 24px -->
  <g transform="translate(80, 80)">
    <rect width="48" height="48" fill="#1a1a1a" stroke="#333333" stroke-width="1" rx="4"/>
    <svg x="8" y="8" width="32" height="32" viewBox="0 0 24 24" style="fill: #ffffff; stroke: none;">
      <path d="M0 0h24v24H0z" fill="none"/><path d="M21 3H3v18h18V3zM7.5 18c-.83 0-1.5-.67-1.5-1.5S6.67 15 7.5 15s1.5.67 1.5 1.5S8.33 18 7.5 18zm0-9C6.67 9 6 8.33 6 7.5S6.67 6 7.5 6 9 6.67 9 7.5 8.33 9 7.5 9zm4.5 4.5c-.83 0-1.5-.67-1.5-1.5s.67-1.5 1.5-1.5 1.5.67 1.5 1.5-.67 1.5-1.5 1.5zm4.5 4.5c-.83 0-1.5-.67-1.5-1.5s.67-1.5 1.5-1.5 1.5.67 1.5 1.5-.67 1.5-1.5 1.5zm0-9c-.83 0-1.5-.67-1.5-1.5S15.67 6 16.5 6s1.5.67 1.5 1.5S17.33 9 16.5 9z"/>
    </svg>
  </g>
  <!-- Icon 10: 24px -->
  <g transform="translate(140, 80)">
    <rect width="48" height="48" fill="#1a1a1a" stroke="#333333" stroke-width="1" rx="4"/>
    <svg x="8" y="8" width="32" height="32" viewBox="0 0 24 24" style="fill: #ffffff; stroke: none;">
      <path d="M0 0h24v24H0V0z" fill="none"/><path d="M7.41 15.41L12 10.83l4.59 4.58L18 14l-6-6-6 6 1.41 1.41z"/>
    </svg>
  </g>
  <!-- Icon 11: 20px -->
  <g transform="translate(200, 80)">
    <rect width="48" height="48" fill="#1a1a1a" stroke="#333333" stroke-width="1" rx="4"/>
    <svg x="8" y="8" width="32" height="32" viewBox="0 0 20 20" style="fill: #ffffff; stroke: none;">
      <g><rect fill="none" height="20" width="20"/></g><g><g><polygon points="13.5,7 6.5,7 5.56,9.5 14.44,9.5"/><polygon points="12,3 12,1 10.5,1 10.5,3 9.5,3 9.5,1 8,1 8,3 7.06,5.5 12.94,5.5"/><polygon points="16.5,9 16.5,11 3.5,11 3.5,9 2,9 2,18 8,18 8,14 12,14 12,18 18,18 18,9"/></g></g>
    </svg>
  </g>
  <!-- Icon 12: 20px -->
  <g transform="translate(260, 80)">
    <rect width="48" height="48" fill="#1a1a1a" stroke="#333333" stroke-width="1" rx="4"/>
    <svg x="8" y="8" width="32" height="32" viewBox="0 0 20 20" style="fill: #ffffff; stroke: none;">
      <g><rect fill="none" height="20" width="20"/></g><g><g><path d="M14.83,7C14.93,6.68,15,6.34,15,5.99c0-1.23-0.65-2.38-1.71-3.01L10,1L6.71,2.98C5.65,3.61,5,4.76,5,5.99 C5,6.34,5.07,6.68,5.17,7"/><path d="M19.75,5.5c0-0.83-1.5-2.5-1.5-2.5s-1.5,1.67-1.5,2.5c0,0.55,0.3,1.03,0.75,1.29V11H16V8H4c0,0,0,0,0,0v3H2.5V6.79 C2.95,6.53,3.25,6.05,3.25,5.5c0-0.83-1.5-2.5-1.5-2.5s-1.5,1.67-1.5,2.5c0,0.55,0.3,1.03,0.75,1.29V17h7v-5h4v5h7V6.79 C19.45,6.53,19.75,6.05,19.75,5.5z"/></g></g>
    </svg>
  </g>
  <!-- Icon 13: 20px -->
  <g transform="translate(320, 80)">
    <rect width="48" height="48" fill="#1a1a1a" stroke="#333333" stroke-width="1" rx="4"/>
    <svg x="8" y="8" width="32" height="32" viewBox="0 0 20 20" style="fill: #ffffff; stroke: none;">
      <g><rect fill="none" height="20" width="20"/></g><g><g><polygon points="13,10 8,2 3,10 4.18,10 1,15 6.5,15 6.5,18 9.5,18 9.5,15 15,15 11.82,10"/><polygon points="15.82,10 17,10 12,2 10.59,4.26 14.8,11 13.64,11 16.19,15 19,15"/><rect height="2" width="3" x="10.5" y="16"/></g></g>
    </svg>
  </g>
  <!-- Icon 14: 24px -->
  <g transform="translate(380, 80)">
    <rect width="48" height="48" fill="#1a1a1a" stroke="#333333" stroke-width="1" rx="4"/>
    <svg x="8" y="8" width="32" height="32" viewBox="0 0 24 24" style="fill: #ffffff; stroke: none;">
      <path d="M0 0h24v24H0V0z" fill="none"/><path d="M18.58 5H5.43L3 12v9h3v-2h12v2h3v-9l-2.42-7zM6.5 16c-.83 0-1.5-.67-1.5-1.5S5.67 13 6.5 13s1.5.67 1.5 1.5S7.33 16 6.5 16zm11 0c-.83 0-1.5-.67-1.5-1.5s.67-1.5 1.5-1.5 1.5.67 1.5 1.5-.67 1.5-1.5 1.5zM5 11l1.5-4.5h11L19 11H5z"/>
    </svg>
  </g>
  <!-- Icon 15: 24px -->
  <g transform="translate(20, 140)">
    <rect width="48" height="48" fill="#1a1a1a" stroke="#333333" stroke-width="1" rx="4"/>
    <svg x="8" y="8" width="32" height="32" viewBox="0 0 24 24" style="fill: #ffffff; stroke: none;">
      <path d="M0 0h24v24H0V0z" fill="none"/><path d="M7.34 6.41L.86 12.9l6.49 6.48 6.49-6.48-6.5-6.49zM3.69 12.9l3.66-3.66L11 12.9l-3.66 3.66-3.65-3.66zm15.67-6.26C17.61 4.88 15.3 4 13 4V.76L8.76 5 13 9.24V6c1.79 0 3.58.68 4.95 2.05 2.73 2.73 2.73 7.17 0 9.9C16.58 19.32 14.79 20 13 20c-.97 0-1.94-.21-2.84-.61l-1.49 1.49C10.02 21.62 11.51 22 13 22c2.3 0 4.61-.88 6.36-2.64 3.52-3.51 3.52-9.21 0-12.72z"/>
    </svg>
  </g>
  <!-- Icon 16: 24px -->
  <g transform="translate(80, 140)">
    <rect width="48" height="48" fill="#1a1a1a" stroke="#333333" stroke-width="1" rx="4"/>
    <svg x="8" y="8" width="32" height="32" viewBox="0 0 24 24" style="fill: #ffffff; stroke: none;">
      <path d="M0 0h24v24H0V0z" fill="none"/><path d="M22 2H2v20h20V2zM8 20H4v-4h4v4zm0-6H4v-4h4v4zm0-6H4V4h4v4zm6 12h-4v-4h4v4zm0-6h-4v-4h4v4zm0-6h-4V4h4v4zm6 12h-4v-4h4v4zm0-6h-4v-4h4v4zm0-6h-4V4h4v4z"/>
    </svg>
  </g>
  <!-- Icon 17: 24px -->
  <g transform="translate(140, 140)">
    <rect width="48" height="48" fill="#1a1a1a" stroke="#333333" stroke-width="1" rx="4"/>
    <svg x="8" y="8" width="32" height="32" viewBox="0 0 24 24" style="fill: #ffffff; stroke: none;">
      <g><rect fill="none" height="24" width="24"/></g><g><g><g><path d="M21,4H3v16h18V4z M19,18H5V6h14V18z"/></g></g></g>
    </svg>
  </g>
  <!-- Icon 18: 24px -->
  <g transform="translate(200, 140)">
    <rect width="48" height="48" fill="#1a1a1a" stroke="#333333" stroke-width="1" rx="4"/>
    <svg x="8" y="8" width="32" height="32" viewBox="0 0 24 24" style="fill: #ffffff; stroke: none;">
      <g><rect fill="none" height="24" width="24"/><path d="M21,9l-6-6H3v18h18V9z M7,7h7v2H7V7z M17,17H7v-2h10V17z M17,13H7v-2h10V13z"/></g>
    </svg>
  </g>
  <!-- Icon 19: 24px -->
  <g transform="translate(260, 140)">
    <rect width="48" height="48" fill="#1a1a1a" stroke="#333333" stroke-width="1" rx="4"/>
    <svg x="8" y="8" width="32" height="32" viewBox="0 0 24 24" style="fill: #ffffff; stroke: none;">
      <path d="M0 0h24v24H0V0z" fill="none"/><path d="M15.73 3H8.27L3 8.27v7.46L8.27 21h7.46L21 15.73V8.27L15.73 3zM12 17.3c-.72 0-1.3-.58-1.3-1.3s.58-1.3 1.3-1.3 1.3.58 1.3 1.3-.58 1.3-1.3 1.3zm1-4.3h-2V7h2v6z"/>
    </svg>
  </g>
  <!-- Icon 20: 24px -->
  <g transform="translate(320, 140)">
    <rect width="48" height="48" fill="#1a1a1a" stroke="#333333" stroke-width="1" rx="4"/>
    <svg x="8" y="8" width="32" height="32" viewBox="0 0 24 24" style="fill: #ffffff; stroke: none;">
      <path d="M8 19h3v4h2v-4h3l-4-4-4 4zm8-14h-3V1h-2v4H8l4 4 4-4zM4 11v2h16v-2H4z"/>
    </svg>
  </g>
  <!-- Icon 21: 20px -->
  <g transform="translate(380, 140)">
    <rect width="48" height="48" fill="#1a1a1a" stroke="#333333" stroke-width="1" rx="4"/>
    <svg x="8" y="8" width="32" height="32" viewBox="0 0 20 20" style="fill: #ffffff; stroke: none;">
      <g><rect fill="none" height="20" width="20"/></g><g><polygon points="6,3 2,10 6,17 14,17 18,10 14,3"/></g>
    </svg>
  </g>
  <!-- Icon 22: 24px -->
  <g transform="translate(20, 200)">
    <rect width="48" height="48" fill="#1a1a1a" stroke="#333333" stroke-width="1" rx="4"/>
    <svg x="8" y="8" width="32" height="32" viewBox="0 0 24 24" style="fill: #ffffff; stroke: none;">
      <g><rect fill="none" height="24" width="24"/></g><g><g><polygon points="15,2 11.5,2 10.5,1 5.5,1 4.5,2 1,2 1,4 15,4"/><path d="M16,9c-0.7,0-1.37,0.1-2,0.29V5H2v14h7.68c1.12,2.36,3.53,4,6.32,4c3.87,0,7-3.13,7-7C23,12.13,19.87,9,16,9z M16,21 c-2.76,0-5-2.24-5-5s2.24-5,5-5s5,2.24,5,5S18.76,21,16,21z"/><polygon points="16.5,12 15,12 15,17 18.6,19.1 19.4,17.9 16.5,16.2"/></g></g>
    </svg>
  </g>
  <!-- Icon 23: 24px -->
  <g transform="translate(80, 200)">
    <rect width="48" height="48" fill="#1a1a1a" stroke="#333333" stroke-width="1" rx="4"/>
    <svg x="8" y="8" width="32" height="32" viewBox="0 0 24 24" style="fill: #ffffff; stroke: none;">
      <g><path d="M0,0h24v24H0V0z" fill="none"/></g><g><g><path d="M5,1v22h14V1H5z M17,18H7V6h10V18z M9.5,8.5H12V7H8v4h1.5V8.5z M12,17h4v-4h-1.5v2.5H12V17z"/></g></g>
    </svg>
  </g>
  <!-- Icon 24: 24px -->
  <g transform="translate(140, 200)">
    <rect width="48" height="48" fill="#1a1a1a" stroke="#333333" stroke-width="1" rx="4"/>
    <svg x="8" y="8" width="32" height="32" viewBox="0 0 24 24" style="fill: #ffffff; stroke: none;">
      <g><path d="M0,0h24v24H0V0z" fill="none"/></g><g><g><rect height="6" width="14" x="5" y="9"/><rect height="3" width="2" x="11" y="2"/><rect height="2" transform="matrix(0.7046 -0.7096 0.7096 0.7046 1.1814 15.2381)" width="2.54" x="17.62" y="5.2"/><rect height="3" width="2" x="11" y="19"/><polygon points="17.29,17.71 19.08,19.51 20.5,18.09 18.7,16.3"/><rect height="2.53" transform="matrix(0.7071 -0.7071 0.7071 0.7071 -2.8904 5.4222)" width="1.99" x="4.1" y="4.93"/><rect height="2" transform="matrix(0.7096 -0.7046 0.7046 0.7096 -11.1263 8.7897)" width="2.54" x="3.83" y="16.89"/></g></g>
    </svg>
  </g>
  <!-- Icon 25: 24px -->
  <g transform="translate(200, 200)">
    <rect width="48" height="48" fill="#1a1a1a" stroke="#333333" stroke-width="1" rx="4"/>
    <svg x="8" y="8" width="32" height="32" viewBox="0 0 24 24" style="fill: #ffffff; stroke: none;">
      <path d="M0 0h24v24H0V0z" fill="none"/><path d="M3 4v16h18V4H3zm16 14H5V8h14v10z"/>
    </svg>
  </g>
  <!-- Icon 26: 24px -->
  <g transform="translate(260, 200)">
    <rect width="48" height="48" fill="#1a1a1a" stroke="#333333" stroke-width="1" rx="4"/>
    <svg x="8" y="8" width="32" height="32" viewBox="0 0 24 24" style="fill: #ffffff; stroke: none;">
      <path d="M0 0h24v24H0V0z" fill="none"/><path d="M12 4V1L8 5l4 4V6c3.31 0 6 2.69 6 6 0 1.01-.25 1.97-.7 2.8l1.46 1.46C19.54 15.03 20 13.57 20 12c0-4.42-3.58-8-8-8zm0 14c-3.31 0-6-2.69-6-6 0-1.01.25-1.97.7-2.8L5.24 7.74C4.46 8.97 4 10.43 4 12c0 4.42 3.58 8 8 8v3l4-4-4-4v3z"/>
    </svg>
  </g>
  <!-- Icon 27: 24px -->
  <g transform="translate(320, 200)">
    <rect width="48" height="48" fill="#1a1a1a" stroke="#333333" stroke-width="1" rx="4"/>
    <svg x="8" y="8" width="32" height="32" viewBox="0 0 24 24" style="fill: #ffffff; stroke: none;">
      <path d="M0 0h24v24H0V0z" fill="none"/><path d="M20 18l2-2V4H2v12l2 2H0v2h24v-2h-4zm-7-3.53v-2.19c-2.78 0-4.61.85-6 2.72.56-2.67 2.11-5.33 6-5.87V7l4 3.73-4 3.74z"/>
    </svg>
  </g>
  <!-- Icon 28: 20px -->
  <g transform="translate(380, 200)">
    <rect width="48" height="48" fill="#1a1a1a" stroke="#333333" stroke-width="1" rx="4"/>
    <svg x="8" y="8" width="32" height="32" viewBox="0 0 20 20" style="fill: #ffffff; stroke: none;">
      <rect fill="none" height="20" width="20"/><path d="M14.12,12H15v-1.5h-2.38l-1.25-1.25H15v-1.5H9.87L8.62,6.5H15V5H7.12l-3-3H18v13.88L14.12,12z M2.22,2.22L1.16,3.28L2,4.12 V15h10.88l3.84,3.84l1.06-1.06L2.22,2.22z M5,9.25v-1.5h0.63l1.5,1.5H5z M8,12v-1.5h0.38l1.5,1.5H8z"/>
    </svg>
  </g>
  <!-- Icon 29: 20px -->
  <g transform="translate(20, 260)">
    <rect width="48" height="48" fill="#1a1a1a" stroke="#333333" stroke-width="1" rx="4"/>
    <svg x="8" y="8" width="32" height="32" viewBox="0 0 20 20" style="fill: #ffffff; stroke: none;">
      <rect fill="none" height="20" width="20"/><path d="M2,6.5h3v7H2V6.5z M15,6.5v7h3v-7H15z M6,5h8v10H6V5z"/>
    </svg>
  </g>
  <!-- Icon 30: 20px -->
  <g transform="translate(80, 260)">
    <rect width="48" height="48" fill="#1a1a1a" stroke="#333333" stroke-width="1" rx="4"/>
    <svg x="8" y="8" width="32" height="32" viewBox="0 0 20 20" style="fill: #ffffff; stroke: none;">
      <g><rect fill="none" height="20" width="20"/></g><g><path d="M8.07,10.75C8.42,12.6,10.05,14,12,14c2.21,0,4-1.79,4-4c0-2.21-1.79-4-4-4c-1.95,0-3.58,1.4-3.93,3.25l-3.2,0l1.19-1.19 L5,7l-3,3l3,3l1.06-1.06l-1.19-1.19L8.07,10.75z"/></g>
    </svg>
  </g>
  <!-- Icon 31: 24px -->
  <g transform="translate(140, 260)">
    <rect width="48" height="48" fill="#1a1a1a" stroke="#333333" stroke-width="1" rx="4"/>
    <svg x="8" y="8" width="32" height="32" viewBox="0 0 24 24" style="fill: #ffffff; stroke: none;">
      <g><rect fill="none" height="24" width="24"/></g><path d="M19,19h2v2h-2V19z M19,17h2v-2h-2V17z M3,13h2v-2H3V13z M3,17h2v-2H3V17z M3,9h2V7H3V9z M3,5h2V3H3V5z M7,5h2V3H7V5z M15,21 h2v-2h-2V21z M11,21h2v-2h-2V21z M15,21h2v-2h-2V21z M7,21h2v-2H7V21z M3,21h2v-2H3V21z M21,8c0-2.76-2.24-5-5-5h-5v2h5 c1.65,0,3,1.35,3,3v5h2V8z"/>
    </svg>
  </g>
  <!-- Icon 32: 24px -->
  <g transform="translate(200, 260)">
    <rect width="48" height="48" fill="#1a1a1a" stroke="#333333" stroke-width="1" rx="4"/>
    <svg x="8" y="8" width="32" height="32" viewBox="0 0 24 24" style="fill: #ffffff; stroke: none;">
      <path d="M0 0h24v24H0V0z" fill="none"/><path d="M19 19H5V5h7V3H3v18h18v-9h-2v7zM14 3v2h3.59l-9.83 9.83 1.41 1.41L19 6.41V10h2V3h-7z"/>
    </svg>
  </g>
  <!-- Icon 33: 24px -->
  <g transform="translate(260, 260)">
    <rect width="48" height="48" fill="#1a1a1a" stroke="#333333" stroke-width="1" rx="4"/>
    <svg x="8" y="8" width="32" height="32" viewBox="0 0 24 24" style="fill: #ffffff; stroke: none;">
      <g><rect fill="none" height="24" width="24"/></g><g><g><polygon points="20,17 4,17 4,5 12,5 12,3 2,3 2,19 8,19 8,21 16,21 16,19 22,19 22,14 20,14"/><polygon points="17,14 22,9 20.59,7.59 18,10.17 18,3 16,3 16,10.17 13.41,7.59 12,9"/></g></g>
    </svg>
  </g>
  <!-- Icon 34: 20px -->
  <g transform="translate(320, 260)">
    <rect width="48" height="48" fill="#1a1a1a" stroke="#333333" stroke-width="1" rx="4"/>
    <svg x="8" y="8" width="32" height="32" viewBox="0 0 20 20" style="fill: #ffffff; stroke: none;">
      <g><rect fill="none" height="20" width="20"/></g><g><path d="M17,10.5V4h-3V2h-1.5v2h-5V2H6v2H3v14h7.5v-1.5h-6V9h11v1.5H17z M12,12h1l0,1.35c0.73-0.83,1.81-1.35,3-1.35 c2.21,0,4,1.79,4,4c0,2.21-1.79,4-4,4c-2.04,0-3.72-1.53-3.97-3.5l1.01,0C13.28,17.92,14.51,19,16,19c1.66,0,3-1.34,3-3 s-1.34-3-3-3c-0.89,0-1.69,0.39-2.24,1L15,14v1h-3V12z"/></g>
    </svg>
  </g>
  <!-- Icon 35: 20px -->
  <g transform="translate(380, 260)">
    <rect width="48" height="48" fill="#1a1a1a" stroke="#333333" stroke-width="1" rx="4"/>
    <svg x="8" y="8" width="32" height="32" viewBox="0 0 20 20" style="fill: #ffffff; stroke: none;">
      <g><rect fill="none" height="20" width="20"/></g><g><path d="M15.5,4H14V2h-1.5v2h-5V2H6v2H4.5C3.67,4,3,4.68,3,5.5v11C3,17.32,3.67,18,4.5,18h11c0.83,0,1.5-0.68,1.5-1.5v-11 C17,4.68,16.33,4,15.5,4z M15.5,16.5h-11V9h11V16.5z M7.5,12H6v-1.5h1.5V12z M10.75,12h-1.5v-1.5h1.5V12z M14,12h-1.5v-1.5H14V12z M7.5,15H6v-1.5h1.5V15z M10.75,15h-1.5v-1.5h1.5V15z M14,15h-1.5v-1.5H14V15z"/></g>
    </svg>
  </g>

  <!-- Title Background -->
  <rect x="0" y="323" width="448" height="60" fill="#1a1a1a"/>
  
  <!-- Title -->
  <text x="20" y="348" text-anchor="start" font-family="system-ui, -apple-system, sans-serif" font-size="18" font-weight="bold" fill="#ffffff">Material Design Icons - sharp</text>

</svg>