<svg width="800" height="600" xmlns="http://www.w3.org/2000/svg">
  <!-- Background -->
  <rect width="800" height="600" fill="#ffffff"/>
  
  <!-- Header Background -->
  <rect width="800" height="80" fill="#f8f9fa"/>
  
  <!-- Title -->
  <text x="400" y="30" text-anchor="middle" font-family="system-ui, -apple-system, sans-serif" font-size="20" font-weight="bold" fill="#212529">Material Design Icons - twotone</text>
  
  <!-- Subtitle -->
  <text x="400" y="55" text-anchor="middle" font-family="system-ui, -apple-system, sans-serif" font-size="14" fill="#6c757d">2,851 icons</text>
  
  <!-- Icon Grid -->
  <!-- Icon 1: 24px -->
  <g transform="translate(196, 92)">
    <rect width="48" height="48" fill="#ffffff" stroke="#e9ecef" stroke-width="1" rx="4"/>
    <svg x="8" y="8" width="32" height="32" viewBox="0 0 24 24">
      <path d="M0 0h24v24H0z" fill="#2563eb"/><path d="M17 8H7c-2.21 0-4 1.79-4 4s1.79 4 4 4h10c2.21 0 4-1.79 4-4s-1.79-4-4-4zm0 7c-1.66 0-3-1.34-3-3s1.34-3 3-3 3 1.34 3 3-1.34 3-3 3z" opacity=".3"/><path d="M17 6H7c-3.31 0-6 2.69-6 6s2.69 6 6 6h10c3.31 0 6-2.69 6-6s-2.69-6-6-6zm0 10H7c-2.21 0-4-1.79-4-4s1.79-4 4-4h10c2.21 0 4 1.79 4 4s-1.79 4-4 4zm0-7c-1.66 0-3 1.34-3 3s1.34 3 3 3 3-1.34 3-3-1.34-3-3-3z"/>
    </svg>
  </g>
  <!-- Icon 2: 24px -->
  <g transform="translate(256, 92)">
    <rect width="48" height="48" fill="#ffffff" stroke="#e9ecef" stroke-width="1" rx="4"/>
    <svg x="8" y="8" width="32" height="32" viewBox="0 0 24 24">
      <rect fill="#2563eb" height="24" width="24"/><path d="M4,12c0-1.95,0.7-3.74,1.87-5.13L9,10v1c0,1.1,0.9,2,2,2v5.59c0,0.27,0.11,0.52,0.29,0.71L12,20 C7.58,20,4,16.42,4,12z M13,19.94V18l3.75-5.62c0.16-0.25,0.25-0.54,0.25-0.83V10.5c0-0.55-0.45-1-1-1h-1.5l-1.4-1.75 C12.72,7.28,12.15,7,11.54,7H8V5.07C9.18,4.39,10.54,4,12,4c4.41,0,8,3.59,8,8C20,16.07,16.94,19.44,13,19.94z" opacity=".3"/><path d="M12,2C6.48,2,2,6.48,2,12c0,5.52,4.48,10,10,10s10-4.48,10-10C22,6.48,17.52,2,12,2z M4,12c0-1.95,0.7-3.74,1.87-5.13L9,10 v1c0,1.1,0.9,2,2,2v5.59c0,0.27,0.11,0.52,0.29,0.71L12,20C7.58,20,4,16.42,4,12z M13,19.94V18l3.75-5.62 c0.16-0.25,0.25-0.54,0.25-0.83V10.5c0-0.55-0.45-1-1-1h-1.5l-1.4-1.75C12.72,7.28,12.15,7,11.54,7H8V5.07C9.18,4.39,10.54,4,12,4 c4.41,0,8,3.59,8,8C20,16.07,16.94,19.44,13,19.94z"/>
    </svg>
  </g>
  <!-- Icon 3: 24px -->
  <g transform="translate(316, 92)">
    <rect width="48" height="48" fill="#ffffff" stroke="#e9ecef" stroke-width="1" rx="4"/>
    <svg x="8" y="8" width="32" height="32" viewBox="0 0 24 24">
      <path d="M0 0h24v24H0V0z" fill="#2563eb"/><path d="M12 16c-2.69 0-5.77 1.28-6 2h12c-.2-.71-3.3-2-6-2z" opacity=".3"/><circle cx="12" cy="8" opacity=".3" r="2"/><path d="M12 14c-2.67 0-8 1.34-8 4v2h16v-2c0-2.66-5.33-4-8-4zm-6 4c.22-.72 3.31-2 6-2 2.7 0 5.8 1.29 6 2H6zm6-6c2.21 0 4-1.79 4-4s-1.79-4-4-4-4 1.79-4 4 1.79 4 4 4zm0-6c1.1 0 2 .9 2 2s-.9 2-2 2-2-.9-2-2 .9-2 2-2z"/>
    </svg>
  </g>
  <!-- Icon 4: 24px -->
  <g transform="translate(376, 92)">
    <rect width="48" height="48" fill="#ffffff" stroke="#e9ecef" stroke-width="1" rx="4"/>
    <svg x="8" y="8" width="32" height="32" viewBox="0 0 24 24">
      <g><rect fill="#2563eb" height="24" width="24"/></g><g><g><path d="M8.66,15.5c1.01,0,1.3-0.65,2.42-0.9l-0.91-3.39l3.86-1.04l1.42,5.31c1.03-0.07,1.3-0.85,2.85-0.96 L16.16,6.5l-5.74-2.09L6.5,9.09l1.7,6.36C8.33,15.48,8.48,15.5,8.66,15.5z" opacity=".3"/><path d="M18.67,19c-1.95,0-2.09,1-3.33,1c-1.19,0-1.42-1-3.33-1c-1.95,0-2.1,1-3.34,1c-1.24,0-1.38-1-3.33-1c-1.95,0-2.1,1-3.34,1 v2c1.95,0,2.11-1,3.34-1c1.24,0,1.38,1,3.33,1c1.95,0,2.1-1,3.34-1c1.22,0,1.4,1,3.33,1c1.93,0,2.1-1,3.33-1c1.22,0,1.4,1,3.33,1 v-2C20.76,20,20.62,19,18.67,19z"/><path d="M8.68,17.5c1.95,0,2.09-1,3.33-1c1.19,0,1.42,1,3.33,1c1.95,0,2.09-1,3.33-1c1.19,0,1.4,0.98,3.31,1v-2 c-0.63,0-1-0.28-1.48-0.55l-2.02-7.53l2.09,0.85l0.74-1.86L9.78,2L2,11.61l1.57,1.23l1.39-1.78l0.93,3.48 c-0.18-0.02-0.35-0.05-0.56-0.05c-1.95,0-2.09,1-3.33,1v2c1.9,0,2.17-1,3.35-1C6.54,16.5,6.77,17.5,8.68,17.5z M10.42,4.41 l5.74,2.09l2.15,8.02c-1.54,0.11-1.82,0.89-2.85,0.96l-1.42-5.31l-3.86,1.04l0.91,3.39c-1.12,0.25-1.41,0.9-2.42,0.9 c-0.18,0-0.33-0.02-0.45-0.05L6.5,9.09L10.42,4.41z"/></g></g>
    </svg>
  </g>
  <!-- Icon 5: 24px -->
  <g transform="translate(436, 92)">
    <rect width="48" height="48" fill="#ffffff" stroke="#e9ecef" stroke-width="1" rx="4"/>
    <svg x="8" y="8" width="32" height="32" viewBox="0 0 24 24">
      <rect fill="#2563eb" height="24" width="24"/><path d="M19,16c0,3.31-2.69,6-6,6h0c-2.61,0-4.95-1.59-5.91-4.01l-2.6-6.54l0.53,0.14c0.46,0.12,0.83,0.46,1,0.9L7,15 h2V4.5C9,4.22,9.22,4,9.5,4S10,4.22,10,4.5V12h2V2.5C12,2.22,12.22,2,12.5,2S13,2.22,13,2.5V12h2V4c0-0.28,0.22-0.5,0.5-0.5 S16,3.72,16,4v8h2V7c0-0.28,0.22-0.5,0.5-0.5S19,6.72,19,7L19,16z" opacity=".3"/><path d="M21,7c0-1.38-1.12-2.5-2.5-2.5c-0.17,0-0.34,0.02-0.5,0.05V4c0-1.38-1.12-2.5-2.5-2.5c-0.23,0-0.46,0.03-0.67,0.09 C14.46,0.66,13.56,0,12.5,0c-1.23,0-2.25,0.89-2.46,2.06C9.87,2.02,9.69,2,9.5,2C8.12,2,7,3.12,7,4.5v5.89 c-0.34-0.31-0.76-0.54-1.22-0.66L5.01,9.52c-0.83-0.23-1.7,0.09-2.19,0.83c-0.38,0.57-0.4,1.31-0.15,1.95l2.56,6.43 C6.49,21.91,9.57,24,13,24h0c4.42,0,8-3.58,8-8V7z M19,16c0,3.31-2.69,6-6,6h0c-2.61,0-4.95-1.59-5.91-4.01l-2.6-6.54l0.53,0.14 c0.46,0.12,0.83,0.46,1,0.9L7,15h2V4.5C9,4.22,9.22,4,9.5,4S10,4.22,10,4.5V12h2V2.5C12,2.22,12.22,2,12.5,2S13,2.22,13,2.5V12h2V4 c0-0.28,0.22-0.5,0.5-0.5S16,3.72,16,4v8h2V7c0-0.28,0.22-0.5,0.5-0.5S19,6.72,19,7L19,16z"/>
    </svg>
  </g>
  <!-- Icon 6: 20px -->
  <g transform="translate(496, 92)">
    <rect width="48" height="48" fill="#ffffff" stroke="#e9ecef" stroke-width="1" rx="4"/>
    <svg x="8" y="8" width="32" height="32" viewBox="0 0 20 20">
      <rect fill="#2563eb" height="20" width="20"/><path d="M4.55,4.5h1.87l0.35,1.57L5.31,7.52C4.94,6.57,4.68,5.55,4.55,4.5z M15.5,15.45 c-1.05-0.13-2.07-0.39-3.02-0.76l1.46-1.46l1.57,0.35V15.45z" opacity=".3"/><path d="M16.22,12.2l-2.23-0.49c-0.29-0.06-0.65,0-0.92,0.27l-2.08,2c-2.11-1.15-3.85-2.89-5-5l2.04-2.04 C8.27,6.69,8.37,6.34,8.3,6.01L7.8,3.78C7.7,3.33,7.29,3,6.83,3L4,3C3.41,3,2.96,3.51,3,4.1C3.53,10.95,9.04,16.46,15.9,17 c0.41,0.03,1.1-0.25,1.1-1v-2.82C17,12.71,16.67,12.3,16.22,12.2z M4.55,4.5h1.87l0.35,1.57L5.31,7.52C4.94,6.57,4.68,5.55,4.55,4.5 z M15.5,15.45c-1.05-0.13-2.07-0.39-3.02-0.76l1.46-1.46l1.57,0.35V15.45z M16.5,5H16V4c0-0.82-0.67-1.5-1.5-1.5S13,3.18,13,4v1 h-0.5C12.22,5,12,5.22,12,5.5v3C12,8.78,12.22,9,12.5,9h4C16.78,9,17,8.78,17,8.5v-3C17,5.22,16.78,5,16.5,5z M13.75,4 c0-0.41,0.34-0.75,0.75-0.75c0.41,0,0.75,0.34,0.75,0.75v1h-1.5V4z"/>
    </svg>
  </g>
  <!-- Icon 7: 24px -->
  <g transform="translate(556, 92)">
    <rect width="48" height="48" fill="#ffffff" stroke="#e9ecef" stroke-width="1" rx="4"/>
    <svg x="8" y="8" width="32" height="32" viewBox="0 0 24 24">
      <rect fill="#2563eb" height="24" width="24"/><path d="M7.21,10h9.58L17,10.19V12H7v-1.81L7.21,10z M14.57,8H9.43L12,5.69L14.57,8z M7,16v-2h10v2H7z" opacity=".3"/><path d="M19,12h3L12,3L2,12h3v8h2v-2h10v2h2V12z M7.21,10h9.58L17,10.19V12H7v-1.81L7.21,10z M14.57,8H9.43L12,5.69L14.57,8z M7,16 v-2h10v2H7z"/>
    </svg>
  </g>
  <!-- Icon 8: 24px -->
  <g transform="translate(196, 152)">
    <rect width="48" height="48" fill="#ffffff" stroke="#e9ecef" stroke-width="1" rx="4"/>
    <svg x="8" y="8" width="32" height="32" viewBox="0 0 24 24">
      <path d="M0 0h24v24H0V0z" fill="#2563eb"/><path d="M3 18h18v-2H3v2zm0-5h18v-2H3v2zm0-7v2h18V6H3z"/>
    </svg>
  </g>
  <!-- Icon 9: 24px -->
  <g transform="translate(256, 152)">
    <rect width="48" height="48" fill="#ffffff" stroke="#e9ecef" stroke-width="1" rx="4"/>
    <svg x="8" y="8" width="32" height="32" viewBox="0 0 24 24">
      <g><rect fill="#2563eb" height="24" width="24"/></g><g><g><path d="M12,4c-3.86,0-7,3.14-7,7s3.14,7,7,7s7-3.14,7-7S15.86,4,12,4z M14.25,14l-3,3l-1.5-1.5L11,14.25L9.75,13 l3-3l1.5,1.5L13,12.75L14.25,14z M16,9H8V7h8V9z" opacity=".3"/><path d="M12,2c-4.97,0-9,4.03-9,9c0,3.92,2.51,7.24,6,8.48V22h2v-2.06c0.33,0.04,0.66,0.06,1,0.06s0.67-0.02,1-0.06V22h2v-2.52 c3.49-1.24,6-4.56,6-8.48C21,6.03,16.97,2,12,2z M12,18c-3.86,0-7-3.14-7-7s3.14-7,7-7s7,3.14,7,7S15.86,18,12,18z"/><rect height="2" width="8" x="8" y="7"/><polygon points="12.75,10 9.75,13 11,14.25 9.75,15.5 11.25,17 14.25,14 13,12.75 14.25,11.5"/></g></g>
    </svg>
  </g>
  <!-- Icon 10: 24px -->
  <g transform="translate(316, 152)">
    <rect width="48" height="48" fill="#ffffff" stroke="#e9ecef" stroke-width="1" rx="4"/>
    <svg x="8" y="8" width="32" height="32" viewBox="0 0 24 24">
      <g display="none"><rect display="inline" fill="#2563eb" height="24" width="24" y="0"/></g><g><g><path d="M18,12H6c-1.1,0-2,0.9-2,2c0,0.51,0.2,0.97,0.51,1.32C5.05,14.53,5.97,14,7,14c1.3,0,2.4,0.84,2.82,2h4.37 c0.41-1.16,1.51-2,2.82-2c1.03,0,1.95,0.53,2.49,1.32C19.8,14.97,20,14.51,20,14C20,12.9,19.1,12,18,12z" opacity=".3"/><path d="M18.75,10.08L17.4,6.05C17,4.82,15.85,4,14.56,4H9.44C8.15,4,7,4.82,6.6,6.05L5.81,8.4L4.41,7l0.29-0.29 c0.39-0.39,0.39-1.02,0-1.41c-0.39-0.39-1.02-0.39-1.41,0l-2,2c-0.39,0.39-0.39,1.02,0,1.41c0.39,0.39,1.02,0.39,1.41,0L3,8.41 l1.79,1.79C3.18,10.72,2,12.22,2,14c0,1.49,0.83,2.78,2.05,3.47C4.27,18.9,5.51,20,7,20c1.3,0,2.4-0.84,2.82-2h4.37 c0.41,1.16,1.51,2,2.82,2c1.49,0,2.73-1.1,2.95-2.53C21.17,16.78,22,15.49,22,14C22,12.05,20.6,10.43,18.75,10.08z M13,6h1.56 c0.43,0,0.81,0.27,0.95,0.68L16.61,10H13V6z M8.49,6.68C8.63,6.27,9.01,6,9.44,6H11v4H7.41L7.39,9.98L8.49,6.68z M7,18 c-0.55,0-1-0.45-1-1s0.45-1,1-1s1,0.45,1,1S7.55,18,7,18z M17,18c-0.55,0-1-0.45-1-1s0.45-1,1-1s1,0.45,1,1S17.55,18,17,18z M19.49,15.32C18.95,14.53,18.03,14,17,14c-1.3,0-2.4,0.84-2.82,2H9.82C9.4,14.84,8.3,14,7,14c-1.03,0-1.95,0.53-2.49,1.32 C4.2,14.97,4,14.51,4,14c0-1.1,0.9-2,2-2h12c1.1,0,2,0.9,2,2C20,14.51,19.8,14.97,19.49,15.32z"/></g></g>
    </svg>
  </g>
  <!-- Icon 11: 24px -->
  <g transform="translate(376, 152)">
    <rect width="48" height="48" fill="#ffffff" stroke="#e9ecef" stroke-width="1" rx="4"/>
    <svg x="8" y="8" width="32" height="32" viewBox="0 0 24 24">
      <rect fill="#2563eb" height="24" width="24" y="0"/><path d="M22,13v3c0,1.1-0.9,2-2,2h-3l1,1v2H6v-2l1-1H4c-1.1,0-2-0.9-2-2V5c0-1.1,0.9-2,2-2l8,0v2L4,5v11h16v-3H22z M15,15l-5-5h4V3 h2v7h4L15,15z"/>
    </svg>
  </g>
  <!-- Icon 12: 20px -->
  <g transform="translate(436, 152)">
    <rect width="48" height="48" fill="#ffffff" stroke="#e9ecef" stroke-width="1" rx="4"/>
    <svg x="8" y="8" width="32" height="32" viewBox="0 0 20 20">
      <g><rect fill="#2563eb" height="20" width="20"/></g><g><path d="M13.25,3c-2.37,0-4.33,1.73-4.69,4L4.87,7l1.19-1.19L5,4.75l-3,3l3,3l1.06-1.06L4.87,8.5l3.69,0 c0.74,0,1.36-0.54,1.48-1.25c0.24-1.56,1.59-2.75,3.21-2.75l0,0c1.79,0,3.25,1.46,3.25,3.25c0,1.62-1.18,2.96-2.73,3.21 c-0.72,0.11-1.27,0.67-1.27,1.4l0,4.64H14v-4.56l0,0c2.27-0.36,4-2.32,4-4.69C18,5.13,15.87,3,13.25,3"/></g>
    </svg>
  </g>
  <!-- Icon 13: 24px -->
  <g transform="translate(496, 152)">
    <rect width="48" height="48" fill="#ffffff" stroke="#e9ecef" stroke-width="1" rx="4"/>
    <svg x="8" y="8" width="32" height="32" viewBox="0 0 24 24">
      <path d="M0 0h24v24H0V0z" fill="#2563eb"/><path d="M19 17.13v-6.95c-2.1.38-4.05 1.35-5.64 2.83L12 14.28l-1.36-1.27C9.05 11.53 7.1 10.56 5 10.18v6.95c2.53.34 4.94 1.3 7 2.83 2.07-1.52 4.47-2.49 7-2.83z" opacity=".3"/><circle cx="12" cy="5" opacity=".3" r="2"/><path d="M16 5c0-2.21-1.79-4-4-4S8 2.79 8 5s1.79 4 4 4 4-1.79 4-4zm-6 0c0-1.1.9-2 2-2s2 .9 2 2-.9 2-2 2-2-.9-2-2zM3 19c3.48 0 6.64 1.35 9 3.55 2.36-2.19 5.52-3.55 9-3.55V8c-3.48 0-6.64 1.35-9 3.55C9.64 9.35 6.48 8 3 8v11zm2-8.82c2.1.38 4.05 1.35 5.64 2.83L12 14.28l1.36-1.27c1.59-1.48 3.54-2.45 5.64-2.83v6.95c-2.53.34-4.93 1.3-7 2.82-2.06-1.52-4.47-2.49-7-2.83v-6.94z"/>
    </svg>
  </g>
  <!-- Icon 14: 20px -->
  <g transform="translate(556, 152)">
    <rect width="48" height="48" fill="#ffffff" stroke="#e9ecef" stroke-width="1" rx="4"/>
    <svg x="8" y="8" width="32" height="32" viewBox="0 0 20 20">
      <g><rect fill="#2563eb" height="20" width="20" y="0"/></g><g><g><polygon points="14.03,3.56 9,8.59 9,10 10.41,10 15.44,4.97"/><path d="M5,8.5c0,2.47,3.1,5.8,5,7.53c1.9-1.73,5-5.05,5-7.53 c0-0.3-0.04-0.59-0.09-0.88l-3.88,3.88H7.5V7.96l4.16-4.16C11.14,3.62,10.58,3.5,10,3.5C7.24,3.5,5,5.74,5,8.5z" enable-background="new" opacity=".3"/><path d="M15,8.5c0,2.47-3.1,5.8-5,7.53C8.1,14.3,5,10.97,5,8.5c0-2.76,2.24-5,5-5c0.58,0,1.14,0.12,1.66,0.3l1.16-1.16 C11.96,2.24,11.01,2,10,2C6.41,2,3.5,4.91,3.5,8.5C3.5,12.84,10,18,10,18s6.5-5.16,6.5-9.5c0-0.74-0.13-1.45-0.36-2.11l-1.23,1.23 C14.96,7.91,15,8.2,15,8.5z"/><g><path d="M15.44,2.15l-0.71,0.71l1.41,1.41l0.71-0.71c0.2-0.2,0.2-0.51,0-0.71l-0.71-0.71C15.95,1.95,15.63,1.95,15.44,2.15z"/></g></g></g>
    </svg>
  </g>
  <!-- Icon 15: 24px -->
  <g transform="translate(196, 212)">
    <rect width="48" height="48" fill="#ffffff" stroke="#e9ecef" stroke-width="1" rx="4"/>
    <svg x="8" y="8" width="32" height="32" viewBox="0 0 24 24">
      <path d="M0 0h24v24H0V0z" fill="#2563eb"/><path d="M9 16.77V20l4-4-4-4v2.73c-3.15-.56-5-1.9-5-2.73 0-1.06 3.04-3 8-3s8 1.94 8 3c0 .73-1.46 1.89-4 2.53v2.05c3.53-.77 6-2.53 6-4.58 0-2.76-4.48-5-10-5S2 9.24 2 12c0 2.24 2.94 4.13 7 4.77z"/>
    </svg>
  </g>
  <!-- Icon 16: 20px -->
  <g transform="translate(256, 212)">
    <rect width="48" height="48" fill="#ffffff" stroke="#e9ecef" stroke-width="1" rx="4"/>
    <svg x="8" y="8" width="32" height="32" viewBox="0 0 20 20">
      <rect fill="#2563eb" height="20" width="20"/><path d="M3.5,4.75c0-0.69,0.56-1.25,1.25-1.25S6,4.06,6,4.75S5.44,6,4.75,6S3.5,5.44,3.5,4.75z M10,2C8.83,2,7.72,2.26,6.71,2.71 l1.15,1.15C8.54,3.63,9.25,3.5,10,3.5c3.58,0,6.5,2.92,6.5,6.5s-2.92,6.5-6.5,6.5S3.5,13.58,3.5,10c0-0.75,0.13-1.46,0.37-2.13 L2.71,6.71C2.26,7.72,2,8.83,2,10c0,4.42,3.58,8,8,8s8-3.58,8-8C18,5.58,14.42,2,10,2z M9.25,12.5h-1.5v-5h1.5V12.5z M12.25,12.5 h-1.5v-5h1.5V12.5z"/>
    </svg>
  </g>
  <!-- Icon 17: 24px -->
  <g transform="translate(316, 212)">
    <rect width="48" height="48" fill="#ffffff" stroke="#e9ecef" stroke-width="1" rx="4"/>
    <svg x="8" y="8" width="32" height="32" viewBox="0 0 24 24">
      <path d="M0 0h24v24H0z" fill="#2563eb"/><path d="M19 19V5L5 19h14zm-4.5-4.5v-2H16v2h2V16h-2v2h-1.5v-2h-2v-1.5h2z" opacity=".3"/><path d="M19 3H5c-1.1 0-2 .9-2 2v14c0 1.1.9 2 2 2h14c1.1 0 2-.9 2-2V5c0-1.1-.9-2-2-2zM6 7h5v1.5H6V7zm13 12H5L19 5v14zm-4.5-3v2H16v-2h2v-1.5h-2v-2h-1.5v2h-2V16z"/>
    </svg>
  </g>
  <!-- Icon 18: 24px -->
  <g transform="translate(376, 212)">
    <rect width="48" height="48" fill="#ffffff" stroke="#e9ecef" stroke-width="1" rx="4"/>
    <svg x="8" y="8" width="32" height="32" viewBox="0 0 24 24">
      <g><rect fill="#2563eb" height="24" width="24" x="0"/></g><g><g><rect height="8" opacity=".3" width="8" x="12" y="12"/><path d="M14,2H4C2.9,2,2,2.9,2,4v10h2V4h10V2z"/><path d="M20,10h-8c-1.1,0-2,0.9-2,2v8c0,1.1,0.9,2,2,2h8c1.1,0,2-0.9,2-2v-8C22,10.9,21.1,10,20,10z M20,20h-8v-8h8V20z"/><path d="M18,6H8C6.9,6,6,6.9,6,8v10h2V8h10V6z"/></g></g>
    </svg>
  </g>
  <!-- Icon 19: 24px -->
  <g transform="translate(436, 212)">
    <rect width="48" height="48" fill="#ffffff" stroke="#e9ecef" stroke-width="1" rx="4"/>
    <svg x="8" y="8" width="32" height="32" viewBox="0 0 24 24">
      <g><rect fill="#2563eb" height="24" width="24"/></g><g><g><path d="M5,19h14V5H5V19z M15,7h2v2h-2V7z M11,7h2v2h-2V7z M7,7h2v2H7V7z" enable-background="new" opacity=".3"/><path d="M3,5v14c0,1.1,0.9,2,2,2h14c1.1,0,2-0.9,2-2V5c0-1.1-0.9-2-2-2H5C3.9,3,3,3.9,3,5z M19,19H5V5h14V19z"/><rect height="2" width="2" x="15" y="7"/><rect height="2" width="2" x="7" y="7"/><rect height="2" width="2" x="11" y="7"/></g></g>
    </svg>
  </g>
  <!-- Icon 20: 20px -->
  <g transform="translate(496, 212)">
    <rect width="48" height="48" fill="#ffffff" stroke="#e9ecef" stroke-width="1" rx="4"/>
    <svg x="8" y="8" width="32" height="32" viewBox="0 0 20 20">
      <g><rect fill="#2563eb" height="20" width="20"/></g><g><g><path d="M7.25,3h-1.5v2H4v10h1.75v2h1.5v-2H9V5H7.25V3z M7.5,6.5v7h-2v-7H7.5z"/><rect height="7" opacity=".3" width="2" x="5.5" y="6.5"/><rect height="3" opacity=".3" width="2" x="12.5" y="8.5"/><path d="M14.25,7V3h-1.5v4H11v6h1.75v4h1.5v-4H16V7H14.25z M14.5,11.5h-2v-3h2V11.5z"/></g></g>
    </svg>
  </g>
  <!-- Icon 21: 24px -->
  <g transform="translate(556, 212)">
    <rect width="48" height="48" fill="#ffffff" stroke="#e9ecef" stroke-width="1" rx="4"/>
    <svg x="8" y="8" width="32" height="32" viewBox="0 0 24 24">
      <path d="M0 0h24v24H0V0z" fill="#2563eb"/><path d="M12.01 18c-1.48 0-2.75-.81-3.45-2H5v3h14v-3h-3.55c-.69 1.19-1.97 2-3.44 2z" opacity=".3"/><path d="M19 3H5c-1.1 0-2 .9-2 2v14c0 1.1.89 2 2 2h14c1.1 0 2-.9 2-2V5c0-1.1-.9-2-2-2zm0 16H5v-3h3.56c.69 1.19 1.97 2 3.45 2s2.75-.81 3.45-2H19v3zm0-5h-5c0 1.1-.9 2-2 2s-2-.9-2-2H5V5h14v9z"/>
    </svg>
  </g>
  <!-- Icon 22: 24px -->
  <g transform="translate(196, 272)">
    <rect width="48" height="48" fill="#ffffff" stroke="#e9ecef" stroke-width="1" rx="4"/>
    <svg x="8" y="8" width="32" height="32" viewBox="0 0 24 24">
      <path d="M0 0h24v24H0V0z" fill="#2563eb"/><path d="M20 16V6H4v10.01L20 16zm-7-1.53v-2.19c-2.78 0-4.61.85-6 2.72.56-2.67 2.11-5.33 6-5.87V7l4 3.73-4 3.74z" opacity=".3"/><path d="M20 18c1.1 0 1.99-.9 1.99-2L22 6c0-1.11-.9-2-2-2H4c-1.11 0-2 .89-2 2v10c0 1.1.89 2 2 2H0v2h24v-2h-4zM4 16V6h16v10.01L4 16zm9-6.87c-3.89.54-5.44 3.2-6 5.87 1.39-1.87 3.22-2.72 6-2.72v2.19l4-3.74L13 7v2.13z"/>
    </svg>
  </g>
  <!-- Icon 23: 24px -->
  <g transform="translate(256, 272)">
    <rect width="48" height="48" fill="#ffffff" stroke="#e9ecef" stroke-width="1" rx="4"/>
    <svg x="8" y="8" width="32" height="32" viewBox="0 0 24 24">
      <g><rect fill="#2563eb" height="24" width="24"/></g><g><g><path d="M2,19h0.08c1.38-2.39,3.96-4,6.92-4s5.54,1.61,6.92,4H22V5H2V19z M15.03,8.15l0.75-1.3l1.47,0.85V6h1.5v1.7 l1.47-0.85l0.75,1.3L19.5,9l1.47,0.85l-0.75,1.3l-1.47-0.85V12h-1.5v-1.7l-1.47,0.85l-0.75-1.3L16.5,9L15.03,8.15z M9,8 c1.65,0,3,1.35,3,3s-1.35,3-3,3s-3-1.35-3-3S7.35,8,9,8z" opacity=".3"/><path d="M9,14c1.65,0,3-1.35,3-3s-1.35-3-3-3s-3,1.35-3,3S7.35,14,9,14z M9,10c0.54,0,1,0.46,1,1s-0.46,1-1,1s-1-0.46-1-1 S8.46,10,9,10z"/><path d="M22,3H2C0.9,3,0,3.9,0,5v14c0,1.1,0.9,2,2,2h20c1.1,0,1.99-0.9,1.99-2L24,5C24,3.9,23.1,3,22,3z M4.54,19 c1.1-1.22,2.69-2,4.46-2s3.36,0.78,4.46,2H4.54z M22,19h-6.08c-1.38-2.39-3.96-4-6.92-4s-5.54,1.61-6.92,4H2V5h20V19z"/><polygon points="15.78,11.15 17.25,10.3 17.25,12 18.75,12 18.75,10.3 20.22,11.15 20.97,9.85 19.5,9 20.97,8.15 20.22,6.85 18.75,7.7 18.75,6 17.25,6 17.25,7.7 15.78,6.85 15.03,8.15 16.5,9 15.03,9.85"/></g></g>
    </svg>
  </g>
  <!-- Icon 24: 24px -->
  <g transform="translate(316, 272)">
    <rect width="48" height="48" fill="#ffffff" stroke="#e9ecef" stroke-width="1" rx="4"/>
    <svg x="8" y="8" width="32" height="32" viewBox="0 0 24 24">
      <g><path d="M0,0h24v24H0V0z" fill="#2563eb"/></g><g><path d="M24,8.98C20.93,5.9,16.69,4,12,4C7.31,4,3.07,5.9,0,8.98L12,21v-9h8.99L24,8.98z M19.59,14l-2.09,2.09l-0.3-0.3L15.41,14 L14,15.41l1.79,1.79l0.3,0.3L14,19.59L15.41,21l2.09-2.08L19.59,21L21,19.59l-2.08-2.09L21,15.41L19.59,14z"/></g>
    </svg>
  </g>
  <!-- Icon 25: 20px -->
  <g transform="translate(376, 272)">
    <rect width="48" height="48" fill="#ffffff" stroke="#e9ecef" stroke-width="1" rx="4"/>
    <svg x="8" y="8" width="32" height="32" viewBox="0 0 20 20">
      <g><rect fill="#2563eb" height="20" width="20"/></g><g><path d="M6.36,11.25L2.21,7.1C4.46,5.41,7.17,4.5,10,4.5c2.83,0,5.54,0.91,7.79,2.6l-4.15,4.15 C12.58,10.43,11.33,10,10,10C8.67,10,7.42,10.43,6.36,11.25z" opacity=".3"/><path d="M10,3C6.12,3,2.6,4.53,0,7.01L10,17l10-9.99C17.4,4.53,13.88,3,10,3z M6.36,11.25L2.21,7.1C4.46,5.41,7.17,4.5,10,4.5 c2.83,0,5.54,0.91,7.79,2.6l-4.15,4.15C12.58,10.43,11.33,10,10,10C8.67,10,7.42,10.43,6.36,11.25z"/></g>
    </svg>
  </g>
  <!-- Icon 26: 24px -->
  <g transform="translate(436, 272)">
    <rect width="48" height="48" fill="#ffffff" stroke="#e9ecef" stroke-width="1" rx="4"/>
    <svg x="8" y="8" width="32" height="32" viewBox="0 0 24 24">
      <path d="M0 0h24v24H0V0z" fill="#2563eb"/><path d="M18 9.52V6h-3.52L12 3.52 9.52 6H6v3.52L3.52 12 6 14.48V18h3.52L12 20.48 14.48 18H18v-3.52L20.48 12 18 9.52zM12 18c-3.31 0-6-2.69-6-6s2.69-6 6-6 6 2.69 6 6-2.69 6-6 6z" fill-opacity=".3"/><path d="M20 8.69V4h-4.69L12 .69 8.69 4H4v4.69L.69 12 4 15.31V20h4.69L12 23.31 15.31 20H20v-4.69L23.31 12 20 8.69zm-2 5.79V18h-3.52L12 20.48 9.52 18H6v-3.52L3.52 12 6 9.52V6h3.52L12 3.52 14.48 6H18v3.52L20.48 12 18 14.48zM12 6c-3.31 0-6 2.69-6 6s2.69 6 6 6 6-2.69 6-6-2.69-6-6-6zm0 10c-2.21 0-4-1.79-4-4s1.79-4 4-4 4 1.79 4 4-1.79 4-4 4z"/><circle cx="12" cy="12" r="2.5"/>
    </svg>
  </g>
  <!-- Icon 27: 24px -->
  <g transform="translate(496, 272)">
    <rect width="48" height="48" fill="#ffffff" stroke="#e9ecef" stroke-width="1" rx="4"/>
    <svg x="8" y="8" width="32" height="32" viewBox="0 0 24 24">
      <g><path d="M0,0h24v24H0V0z" fill="#2563eb"/></g><g><g><path d="M13,11v2h2v2h-4V9h6c0-1.1-0.9-2-2-2h-4C9.9,7,9,7.9,9,9v6c0,1.1,0.9,2,2,2h4c1.1,0,2-0.9,2-2v-4H13z M24,11h-2V9h-2v2h-2 v2h2v2h2v-2h2V11z M7,7H5v5H3V7H1v7h4v3h2v-3h1v-2H7V7z"/></g></g>
    </svg>
  </g>
  <!-- Icon 28: 24px -->
  <g transform="translate(556, 272)">
    <rect width="48" height="48" fill="#ffffff" stroke="#e9ecef" stroke-width="1" rx="4"/>
    <svg x="8" y="8" width="32" height="32" viewBox="0 0 24 24">
      <path d="M0 0h24v24H0V0z" fill="#2563eb"/><path d="M12 18c3.31 0 6-2.69 6-6s-2.69-6-6-6-6 2.69-6 6 2.69 6 6 6z" opacity=".3"/><path d="M12 20c4.42 0 8-3.58 8-8s-3.58-8-8-8-8 3.58-8 8 3.58 8 8 8zm0-14c3.31 0 6 2.69 6 6s-2.69 6-6 6-6-2.69-6-6 2.69-6 6-6z"/>
    </svg>
  </g>
  <!-- Icon 29: 20px -->
  <g transform="translate(196, 332)">
    <rect width="48" height="48" fill="#ffffff" stroke="#e9ecef" stroke-width="1" rx="4"/>
    <svg x="8" y="8" width="32" height="32" viewBox="0 0 20 20">
      <g><rect fill="#2563eb" height="20" width="20"/></g><g><g><path d="M3.5,14.5h13v-9h-13V14.5z M11,6h3v3h-3V6z M11,11h3v3h-3V11z M6,6h3v3H6V6z M6,11h3v3H6V11z" opacity=".3"/><rect height="3" width="3" x="6" y="6"/><rect height="3" width="3" x="11" y="6"/><rect height="3" width="3" x="6" y="11"/><rect height="3" width="3" x="11" y="11"/><path d="M16.5,4h-13C2.67,4,2,4.67,2,5.5v9C2,15.33,2.67,16,3.5,16h13c0.83,0,1.5-0.67,1.5-1.5v-9C18,4.67,17.33,4,16.5,4z M16.5,14.5h-13v-9h13V14.5z"/></g></g>
    </svg>
  </g>
  <!-- Icon 30: 24px -->
  <g transform="translate(256, 332)">
    <rect width="48" height="48" fill="#ffffff" stroke="#e9ecef" stroke-width="1" rx="4"/>
    <svg x="8" y="8" width="32" height="32" viewBox="0 0 24 24">
      <g><rect fill="#2563eb" height="24" width="24"/></g><g><path d="M21.49,17.34L15.5,20l-4.92-1.96l4.18-0.88l-4.3-9.7c-0.11-0.25,0-0.55,0.25-0.66 c0.25-0.11,0.55,0,0.66,0.25l2.5,5.65l1.61-0.71L20.13,12L21.49,17.34z" opacity=".3"/><path d="M20.22,10l-4.15,0.01c-0.16-0.01-0.31,0.02-0.45,0.08l-0.59,0.26L13.2,6.25c-0.56-1.26-2.04-1.83-3.3-1.27 s-1.83,2.04-1.27,3.3l3.3,7.45l-1.87,0.39c-0.19,0.05-0.99,0.27-1.36,1.21L8,19.19l6.78,2.67c0.49,0.19,1.05,0.18,1.53-0.04 l5.99-2.65c0.89-0.4,1.37-1.38,1.13-2.32l-1.36-5.34C21.85,10.65,21.1,10.04,20.22,10z M21.49,17.34L15.5,20l-4.92-1.96l4.18-0.88 l-4.3-9.7c-0.11-0.25,0-0.55,0.25-0.66c0.25-0.11,0.55,0,0.66,0.25l2.5,5.65l1.61-0.71L20.13,12L21.49,17.34z M2.06,5.56L1,4.5 L4.5,1L8,4.5L6.94,5.56L5.32,3.94C5.11,4.76,5,5.62,5,6.5c0,2.42,0.82,4.65,2.2,6.43L6.13,14C4.49,11.95,3.5,9.34,3.5,6.5 c0-0.92,0.1-1.82,0.3-2.68L2.06,5.56z"/></g>
    </svg>
  </g>
  <!-- Icon 31: 24px -->
  <g transform="translate(316, 332)">
    <rect width="48" height="48" fill="#ffffff" stroke="#e9ecef" stroke-width="1" rx="4"/>
    <svg x="8" y="8" width="32" height="32" viewBox="0 0 24 24">
      <g><rect fill="#2563eb" height="24" width="24"/></g><g><g><path d="M14.73,13.31C15.52,12.24,16,10.93,16,9.5C16,5.91,13.09,3,9.5,3S3,5.91,3,9.5C3,13.09,5.91,16,9.5,16 c1.43,0,2.74-0.48,3.81-1.27L19.59,21L21,19.59L14.73,13.31z M9.5,14C7.01,14,5,11.99,5,9.5S7.01,5,9.5,5S14,7.01,14,9.5 S11.99,14,9.5,14z"/><polygon points="9.5,6 8.71,8.44 6.25,8.44 8.26,10.03 7.49,12.5 9.5,10.97 11.51,12.5 10.74,10.03 12.75,8.44 10.29,8.44"/></g></g>
    </svg>
  </g>
  <!-- Icon 32: 24px -->
  <g transform="translate(376, 332)">
    <rect width="48" height="48" fill="#ffffff" stroke="#e9ecef" stroke-width="1" rx="4"/>
    <svg x="8" y="8" width="32" height="32" viewBox="0 0 24 24">
      <rect fill="#2563eb" height="24" width="24" x="0" y="0"/><path d="M12,4c-4.41,0-8,3.59-8,8c0,4.41,3.59,8,8,8s8-3.59,8-8C20,7.59,16.41,4,12,4z M13.88,11.54l-4.96,4.96 l-1.41-1.41l4.96-4.96L10.34,8l5.65,0.01L16,13.66L13.88,11.54z" opacity=".3"/><path d="M12,4c4.41,0,8,3.59,8,8s-3.59,8-8,8s-8-3.59-8-8S7.59,4,12,4 M12,2C6.48,2,2,6.48,2,12c0,5.52,4.48,10,10,10s10-4.48,10-10 C22,6.48,17.52,2,12,2L12,2z M13.88,11.54l-4.96,4.96l-1.41-1.41l4.96-4.96L10.34,8l5.65,0.01L16,13.66L13.88,11.54z"/>
    </svg>
  </g>
  <!-- Icon 33: 24px -->
  <g transform="translate(436, 332)">
    <rect width="48" height="48" fill="#ffffff" stroke="#e9ecef" stroke-width="1" rx="4"/>
    <svg x="8" y="8" width="32" height="32" viewBox="0 0 24 24">
      <g><rect fill="#2563eb" height="24" width="24"/></g><g><path d="M12,14v-1h1.5v0.5h2v-1H13c-0.55,0-1-0.45-1-1V10c0-0.55,0.45-1,1-1h3c0.55,0,1,0.45,1,1v1h-1.5v-0.5h-2v1H16 c0.55,0,1,0.45,1,1V14c0,0.55-0.45,1-1,1h-3C12.45,15,12,14.55,12,14z M9,9v4.5H7.5v-1H6v1C6,14.33,6.67,15,7.5,15H9 c0.83,0,1.5-0.67,1.5-1.5V9C10.5,9,9.83,9,9,9z"/></g>
    </svg>
  </g>
  <!-- Icon 34: 24px -->
  <g transform="translate(496, 332)">
    <rect width="48" height="48" fill="#ffffff" stroke="#e9ecef" stroke-width="1" rx="4"/>
    <svg x="8" y="8" width="32" height="32" viewBox="0 0 24 24">
      <path d="M0 0h24v24H0V0z" fill="#2563eb"/><path d="M12 20c1.48 0 2.86-.41 4.06-1.12l-3.98-3.98-5.58 2.6 2.59-5.58-3.97-3.98C4.41 9.14 4 10.52 4 12c0 4.41 3.59 8 8 8zm0-16c-1.48 0-2.86.41-4.06 1.12l3.98 3.98 5.58-2.6-2.59 5.58 3.98 3.98c.7-1.2 1.11-2.58 1.11-4.06 0-4.41-3.59-8-8-8z" opacity=".3"/><path d="M17.5 6.5l-5.58 2.59 2.99 2.99zM2.1 4.93l1.56 1.56C2.61 8.07 2 9.96 2 12c0 5.52 4.48 10 10 10 2.04 0 3.93-.61 5.51-1.66l1.56 1.56 1.41-1.41L3.51 3.51 2.1 4.93zm3.02 3.01l3.98 3.98-2.6 5.58 5.58-2.59 3.98 3.98c-1.2.7-2.58 1.11-4.06 1.11-4.41 0-8-3.59-8-8 0-1.48.41-2.86 1.12-4.06zM12 4c4.41 0 8 3.59 8 8 0 1.48-.41 2.86-1.12 4.06l1.46 1.46C21.39 15.93 22 14.04 22 12c0-5.52-4.48-10-10-10-2.04 0-3.93.61-5.51 1.66l1.46 1.46C9.14 4.41 10.52 4 12 4z"/>
    </svg>
  </g>
  <!-- Icon 35: 24px -->
  <g transform="translate(556, 332)">
    <rect width="48" height="48" fill="#ffffff" stroke="#e9ecef" stroke-width="1" rx="4"/>
    <svg x="8" y="8" width="32" height="32" viewBox="0 0 24 24">
      <path d="M0 0h24v24H0V0z" fill="#2563eb"/><path d="M12 4H5C3.34 4 2 5.34 2 7v8c0 1.66 1.34 3 3 3l-1 1v1h1l2-2h2v-5H4V6h9v2h2V7c0-1.66-1.34-3-3-3zM5 14c.55 0 1 .45 1 1s-.45 1-1 1-1-.45-1-1 .45-1 1-1zm15.57-4.34c-.14-.4-.52-.66-.97-.66h-7.19c-.46 0-.83.26-.98.66l-1.42 4.11v5.51c0 .38.31.72.69.72h.62c.38 0 .68-.38.68-.76V18h8v1.24c0 .38.31.76.69.76h.61c.38 0 .69-.34.69-.72l.01-1.37v-4.14l-1.43-4.11zm-8.16.34h7.19l1.03 3h-9.25l1.03-3zM12 16c-.55 0-1-.45-1-1s.45-1 1-1 1 .45 1 1-.45 1-1 1zm8 0c-.55 0-1-.45-1-1s.45-1 1-1 1 .45 1 1-.45 1-1 1z"/>
    </svg>
  </g>
  
  <!-- Footer -->
  <text x="400" y="580" text-anchor="middle" font-family="system-ui, -apple-system, sans-serif" font-size="12" fill="#6c757d">
    Showing 35 of 2851 icons
  </text>
  
</svg>