<svg width="800" height="600" xmlns="http://www.w3.org/2000/svg">
  <!-- Background -->
  <rect width="800" height="600" fill="#ffffff"/>
  
  <!-- Header Background -->
  <rect width="800" height="80" fill="#f8f9fa"/>
  
  <!-- Title -->
  <text x="400" y="30" text-anchor="middle" font-family="system-ui, -apple-system, sans-serif" font-size="20" font-weight="bold" fill="#212529">Material Design Icons - rounded</text>
  
  <!-- Subtitle -->
  <text x="400" y="55" text-anchor="middle" font-family="system-ui, -apple-system, sans-serif" font-size="14" fill="#6c757d">2,813 icons</text>
  
  <!-- Icon Grid -->
  <!-- Icon 1: 24px -->
  <g transform="translate(196, 92)">
    <rect width="48" height="48" fill="#ffffff" stroke="#e9ecef" stroke-width="1" rx="4"/>
    <svg x="8" y="8" width="32" height="32" viewBox="0 0 24 24">
      <path d="M0 0h24v24H0z" fill="#2563eb"/><path d="M17 7H7c-2.76 0-5 2.24-5 5s2.24 5 5 5h10c2.76 0 5-2.24 5-5s-2.24-5-5-5zm0 8c-1.66 0-3-1.34-3-3s1.34-3 3-3 3 1.34 3 3-1.34 3-3 3z"/>
    </svg>
  </g>
  <!-- Icon 2: 24px -->
  <g transform="translate(256, 92)">
    <rect width="48" height="48" fill="#ffffff" stroke="#e9ecef" stroke-width="1" rx="4"/>
    <svg x="8" y="8" width="32" height="32" viewBox="0 0 24 24">
      <rect fill="#2563eb" height="24" width="24" y="0"/><g><g><path d="M6.98,4.15c0.01,0,0.01-0.01,0.02-0.01V3.5C7,2.67,7.67,2,8.5,2S10,2.67,10,3.5V4h4V3.5C14,2.67,14.67,2,15.5,2 S17,2.67,17,3.5v0.64c1.72,0.45,3,2,3,3.86v9.17l-2.03-2.03C17.98,15.09,18,15.05,18,15v-2c0-0.55-0.45-1-1-1h-2.17L6.98,4.15z M20.49,21.9c-0.39,0.39-1.02,0.39-1.41,0l-0.14-0.14C18.65,21.91,18.34,22,18,22H6c-1.1,0-2-0.9-2-2V8 c0-0.36,0.06-0.69,0.15-1.02L2.1,4.93c-0.39-0.39-0.39-1.02,0-1.41c0.39-0.39,1.02-0.39,1.41,0l16.97,16.97 C20.88,20.88,20.88,21.51,20.49,21.9z M11.17,14l-2-2H7c-0.55,0-1,0.45-1,1c0,0.55,0.45,1,1,1H11.17z"/></g></g>
    </svg>
  </g>
  <!-- Icon 3: 24px -->
  <g transform="translate(316, 92)">
    <rect width="48" height="48" fill="#ffffff" stroke="#e9ecef" stroke-width="1" rx="4"/>
    <svg x="8" y="8" width="32" height="32" viewBox="0 0 24 24">
      <g><path d="M0,0h24v24H0V0z" fill="#2563eb"/></g><g><g><g><path d="M5,5L5,5C4.45,5,4,5.45,4,6v15c0,1.1,0.9,2,2,2h9c0.55,0,1-0.45,1-1v0c0-0.55-0.45-1-1-1H6V6C6,5.45,5.55,5,5,5z"/></g><g><path d="M18,1h-8C8.9,1,8,1.9,8,3v14c0,1.1,0.9,2,2,2h8c1.1,0,2-0.9,2-2V3C20,1.9,19.1,1,18,1z M18,15h-8V5h8V15z"/></g><g><path d="M12.5,10.25h2v0.54c0,0.45,0.54,0.67,0.85,0.35l1.29-1.29c0.2-0.2,0.2-0.51,0-0.71l-1.29-1.29 c-0.31-0.31-0.85-0.09-0.85,0.35v0.54H12c-0.55,0-1,0.45-1,1v1.5c0,0.41,0.34,0.75,0.75,0.75h0c0.41,0,0.75-0.34,0.75-0.75V10.25 z"/></g></g></g>
    </svg>
  </g>
  <!-- Icon 4: 24px -->
  <g transform="translate(376, 92)">
    <rect width="48" height="48" fill="#ffffff" stroke="#e9ecef" stroke-width="1" rx="4"/>
    <svg x="8" y="8" width="32" height="32" viewBox="0 0 24 24">
      <path d="M0 0h24v24H0V0z" fill="#2563eb" opacity=".87"/><path d="M13.12 2.06L7.58 7.6c-.37.37-.58.88-.58 1.41V19c0 1.1.9 2 2 2h9c.8 0 1.52-.48 1.84-1.21l3.26-7.61C23.94 10.2 22.49 8 20.34 8h-5.65l.95-4.58c.1-.5-.05-1.01-.41-1.37-.59-.58-1.53-.58-2.11.01zM3 21c1.1 0 2-.9 2-2v-8c0-1.1-.9-2-2-2s-2 .9-2 2v8c0 1.1.9 2 2 2z"/>
    </svg>
  </g>
  <!-- Icon 5: 24px -->
  <g transform="translate(436, 92)">
    <rect width="48" height="48" fill="#ffffff" stroke="#e9ecef" stroke-width="1" rx="4"/>
    <svg x="8" y="8" width="32" height="32" viewBox="0 0 24 24">
      <g><rect fill="#2563eb" height="24" width="24"/><rect fill="#2563eb" height="24" width="24"/></g><g><path d="M20,11.09v-4.7c0-0.83-0.52-1.58-1.3-1.87l-6-2.25c-0.45-0.17-0.95-0.17-1.4,0L6.78,3.96l12.09,12.09 C19.59,14.52,20,12.83,20,11.09z M20.49,20.49L3.51,3.51c-0.39-0.39-1.02-0.39-1.41,0c-0.39,0.39-0.39,1.02,0,1.41L4,6.83v4.26 c0,4.83,3.13,9.37,7.43,10.75c0.37,0.12,0.77,0.12,1.14,0c1.49-0.48,2.84-1.35,3.97-2.47l2.53,2.53c0.39,0.39,1.02,0.39,1.41,0 C20.88,21.51,20.88,20.88,20.49,20.49z"/></g>
    </svg>
  </g>
  <!-- Icon 6: 20px -->
  <g transform="translate(496, 92)">
    <rect width="48" height="48" fill="#ffffff" stroke="#e9ecef" stroke-width="1" rx="4"/>
    <svg x="8" y="8" width="32" height="32" viewBox="0 0 20 20">
      <g><rect fill="#2563eb" height="20" width="20"/></g><g><g><circle cx="10" cy="3.75" r="1.75"/><path d="M11.5,7h-3C7.67,7,7,7.67,7,8.5V12c0,0.55,0.45,1,1,1h0.5v4c0,0.55,0.45,1,1,1h1c0.55,0,1-0.45,1-1v-4H12 c0.55,0,1-0.45,1-1V8.5C13,7.67,12.33,7,11.5,7z"/></g></g>
    </svg>
  </g>
  <!-- Icon 7: 24px -->
  <g transform="translate(556, 92)">
    <rect width="48" height="48" fill="#ffffff" stroke="#e9ecef" stroke-width="1" rx="4"/>
    <svg x="8" y="8" width="32" height="32" viewBox="0 0 24 24">
      <rect fill="#2563eb" height="24" width="24"/><path d="M19,5h-2V4c0-0.55-0.45-1-1-1H8C7.45,3,7,3.45,7,4v1H5C3.9,5,3,5.9,3,7v1c0,2.55,1.92,4.63,4.39,4.94 c0.63,1.5,1.98,2.63,3.61,2.96V19H8c-0.55,0-1,0.45-1,1v0c0,0.55,0.45,1,1,1h8c0.55,0,1-0.45,1-1v0c0-0.55-0.45-1-1-1h-3v-3.1 c1.63-0.33,2.98-1.46,3.61-2.96C19.08,12.63,21,10.55,21,8V7C21,5.9,20.1,5,19,5z M5,8V7h2v3.82C5.84,10.4,5,9.3,5,8z M19,8 c0,1.3-0.84,2.4-2,2.82V7h2V8z"/>
    </svg>
  </g>
  <!-- Icon 8: 24px -->
  <g transform="translate(196, 152)">
    <rect width="48" height="48" fill="#ffffff" stroke="#e9ecef" stroke-width="1" rx="4"/>
    <svg x="8" y="8" width="32" height="32" viewBox="0 0 24 24">
      <rect fill="#2563eb" height="24" width="24" x="0"/><path d="M6,6c1.1,0,2-0.9,2-2S7.1,2,6,2S4,2.9,4,4S4.9,6,6,6z M10,9.43c0-0.81-0.48-1.53-1.22-1.85C7.93,7.21,6.99,7,6,7 C5.01,7,4.07,7.21,3.22,7.58C2.48,7.9,2,8.62,2,9.43V10h8V9.43z M18,6c1.1,0,2-0.9,2-2s-0.9-2-2-2s-2,0.9-2,2S16.9,6,18,6z M22,9.43 c0-0.81-0.48-1.53-1.22-1.85C19.93,7.21,18.99,7,18,7c-0.99,0-1.93,0.21-2.78,0.58C14.48,7.9,14,8.62,14,9.43V10h8V9.43z M21.65,14.35l-1.79,1.79C19.54,16.46,19,16.24,19,15.79v-0.8L5,15v0.79c0,0.45-0.54,0.67-0.85,0.35l-1.79-1.79 c-0.2-0.2-0.2-0.51,0-0.71l1.79-1.79C4.46,11.54,5,11.76,5,12.21v0.8L19,13v-0.79c0-0.45,0.54-0.67,0.85-0.35l1.79,1.79 C21.84,13.84,21.84,14.16,21.65,14.35z M10,18.5L10,18.5c0-0.28-0.22-0.5-0.5-0.5h-2C7.22,18,7,18.22,7,18.5v3 C7,21.78,7.22,22,7.5,22h2c0.28,0,0.5-0.22,0.5-0.5V20c0-0.28-0.22-0.5-0.5-0.5H8V19h1.5C9.78,19,10,18.78,10,18.5z M9,20.5V21H8 v-0.5H9z M17,19h-0.5v2.5c0,0.28-0.22,0.5-0.5,0.5h0c-0.28,0-0.5-0.22-0.5-0.5V19H15c-0.28,0-0.5-0.22-0.5-0.5v0 c0-0.28,0.22-0.5,0.5-0.5h2c0.28,0,0.5,0.22,0.5,0.5v0C17.5,18.78,17.28,19,17,19z M14,18.5c0,0.28-0.22,0.5-0.5,0.5h-1v0.5H13 c0.28,0,0.5,0.22,0.5,0.5c0,0.28-0.22,0.5-0.5,0.5h-0.5v1c0,0.28-0.22,0.5-0.5,0.5c-0.28,0-0.5-0.22-0.5-0.5v-3 c0-0.28,0.22-0.5,0.5-0.5h1.5C13.78,18,14,18.22,14,18.5z"/>
    </svg>
  </g>
  <!-- Icon 9: 20px -->
  <g transform="translate(256, 152)">
    <rect width="48" height="48" fill="#ffffff" stroke="#e9ecef" stroke-width="1" rx="4"/>
    <svg x="8" y="8" width="32" height="32" viewBox="0 0 20 20">
      <g><rect fill="#2563eb" height="20" width="20"/></g><g><g><path d="M15.37,14.47L15.37,14.47c0.29-0.29,0.29-0.77,0-1.06L11.96,10l3.41-3.41c0.29-0.29,0.29-0.77,0-1.06l0,0 c-0.29-0.29-0.77-0.29-1.06,0l-3.76,3.76c-0.39,0.39-0.39,1.02,0,1.41l3.76,3.76C14.6,14.76,15.07,14.76,15.37,14.47z"/><path d="M9.43,14.47L9.43,14.47c0.29-0.29,0.29-0.77,0-1.06L6.02,10l3.41-3.41c0.29-0.29,0.29-0.77,0-1.06l0,0 c-0.29-0.29-0.77-0.29-1.06,0L4.6,9.29c-0.39,0.39-0.39,1.02,0,1.41l3.76,3.76C8.66,14.76,9.13,14.76,9.43,14.47z"/></g></g>
    </svg>
  </g>
  <!-- Icon 10: 20px -->
  <g transform="translate(316, 152)">
    <rect width="48" height="48" fill="#ffffff" stroke="#e9ecef" stroke-width="1" rx="4"/>
    <svg x="8" y="8" width="32" height="32" viewBox="0 0 20 20">
      <g><rect fill="#2563eb" height="20" width="20"/></g><g><g><g><path d="M18.14,7.01c-0.35,0-0.63,0.25-0.73,0.58C17.17,8.4,16.41,9,15.52,9H4.48c-0.9,0-1.66-0.6-1.9-1.41 C2.48,7.26,2.2,7.01,1.86,7.01C1.35,7.01,1,7.51,1.14,7.99c0.38,1.29,1.5,2.27,2.86,2.46v6.05C4,17.33,4.67,18,5.5,18H8l0-1.89 c0-1,0.68-1.92,1.66-2.08C10.92,13.82,12,14.79,12,16v2h2.5c0.83,0,1.5-0.67,1.5-1.5v-6.05c0.49-0.07,2.43-0.61,2.9-2.55 C19.01,7.44,18.62,7,18.14,7.01z"/></g><g><path d="M9.6,1.52L6.92,5h6.15L10.4,1.52C10.2,1.26,9.8,1.26,9.6,1.52z"/></g><g><path d="M4.89,7.16V8H15V7.16c1.18-0.56,1.66-1.49,1.86-2.2c0.13-0.48-0.23-0.95-0.73-0.94c-0.34,0-0.62,0.24-0.71,0.57 c-0.24,0.81-0.99,1.4-1.87,1.42h-7.2C5.46,5.99,4.71,5.39,4.47,4.58C4.38,4.25,4.1,4.01,3.76,4.01c-0.5,0-0.86,0.46-0.73,0.94 C3.23,5.67,3.71,6.6,4.89,7.16z"/></g></g></g>
    </svg>
  </g>
  <!-- Icon 11: 24px -->
  <g transform="translate(376, 152)">
    <rect width="48" height="48" fill="#ffffff" stroke="#e9ecef" stroke-width="1" rx="4"/>
    <svg x="8" y="8" width="32" height="32" viewBox="0 0 24 24">
      <path d="M0 0h24v24H0V0z" fill="#2563eb"/><path d="M12.93 4.26l6.15 14.99c.34.83-.51 1.66-1.33 1.29l-5.34-2.36c-.26-.11-.55-.11-.81 0l-5.34 2.36c-.82.36-1.67-.46-1.33-1.29l6.15-14.99c.33-.83 1.51-.83 1.85 0z"/>
    </svg>
  </g>
  <!-- Icon 12: 24px -->
  <g transform="translate(436, 152)">
    <rect width="48" height="48" fill="#ffffff" stroke="#e9ecef" stroke-width="1" rx="4"/>
    <svg x="8" y="8" width="32" height="32" viewBox="0 0 24 24">
      <g><rect fill="#2563eb" height="24" width="24"/><rect fill="#2563eb" height="24" width="24"/></g><g><g><g><path d="M17,16c-0.55,0-1-0.45-1-1H8c0,0.55-0.45,1-1,1s-1-0.45-1-1H2v3c0,1.1,0.9,2,2,2h16c1.1,0,2-0.9,2-2v-3h-4 C18,15.55,17.55,16,17,16z"/></g><path d="M20,8h-3V6c0-1.1-0.9-2-2-2H9C7.9,4,7,4.9,7,6v2H4c-1.1,0-2,0.9-2,2v4h4v-1c0-0.55,0.45-1,1-1s1,0.45,1,1v1h8v-1 c0-0.55,0.45-1,1-1s1,0.45,1,1v1h4v-4C22,8.9,21.1,8,20,8z M15,8H9V6h6V8z"/></g></g>
    </svg>
  </g>
  <!-- Icon 13: 24px -->
  <g transform="translate(496, 152)">
    <rect width="48" height="48" fill="#ffffff" stroke="#e9ecef" stroke-width="1" rx="4"/>
    <svg x="8" y="8" width="32" height="32" viewBox="0 0 24 24">
      <path d="M0 0h24v24H0V0z" fill="#2563eb"/><circle cx="12" cy="17" r="4"/><path d="M12 3C8.49 3 5.28 4.29 2.8 6.41c-.44.38-.48 1.06-.06 1.48l3.6 3.6c.36.36.92.39 1.32.08 1.2-.94 2.71-1.5 4.34-1.5 1.64 0 3.14.56 4.34 1.49.4.31.96.28 1.31-.08l3.6-3.6c.42-.42.38-1.1-.07-1.48C18.72 4.28 15.51 3 12 3z"/>
    </svg>
  </g>
  <!-- Icon 14: 24px -->
  <g transform="translate(556, 152)">
    <rect width="48" height="48" fill="#ffffff" stroke="#e9ecef" stroke-width="1" rx="4"/>
    <svg x="8" y="8" width="32" height="32" viewBox="0 0 24 24">
      <path d="M0 0h24v24H0V0z" fill="#2563eb"/><path d="M2.53 19.65l1.34.56v-9.03l-2.43 5.86c-.41 1.02.08 2.19 1.09 2.61zm19.5-3.7L17.07 3.98c-.31-.75-1.04-1.21-1.81-1.23-.26 0-.53.04-.79.15L7.1 5.95c-.75.31-1.21 1.03-1.23 1.8-.01.27.04.54.15.8l4.96 11.97c.31.76 1.05 1.22 1.83 1.23.26 0 .52-.05.77-.15l7.36-3.05c1.02-.42 1.51-1.59 1.09-2.6zM7.88 8.75c-.55 0-1-.45-1-1s.45-1 1-1 1 .45 1 1-.45 1-1 1zm-2 11c0 1.1.9 2 2 2h1.45l-3.45-8.34v6.34z"/>
    </svg>
  </g>
  <!-- Icon 15: 24px -->
  <g transform="translate(196, 212)">
    <rect width="48" height="48" fill="#ffffff" stroke="#e9ecef" stroke-width="1" rx="4"/>
    <svg x="8" y="8" width="32" height="32" viewBox="0 0 24 24">
      <path d="M0 0h24v24H0V0z" fill="#2563eb"/><path d="M5 8c-2.21 0-4 1.79-4 4s1.79 4 4 4 4-1.79 4-4-1.79-4-4-4zm12-2c-3.31 0-6 2.69-6 6s2.69 6 6 6 6-2.69 6-6-2.69-6-6-6zm0 10c-2.21 0-4-1.79-4-4s1.79-4 4-4 4 1.79 4 4-1.79 4-4 4z"/>
    </svg>
  </g>
  <!-- Icon 16: 24px -->
  <g transform="translate(256, 212)">
    <rect width="48" height="48" fill="#ffffff" stroke="#e9ecef" stroke-width="1" rx="4"/>
    <svg x="8" y="8" width="32" height="32" viewBox="0 0 24 24">
      <path d="M0 0h24v24H0z" fill="#2563eb"/><path d="M19 3H5c-1.1 0-2 .9-2 2v14c0 1.1.9 2 2 2h14c1.1 0 2-.9 2-2V5c0-1.1-.9-2-2-2zm-1 16H6c-.55 0-1-.45-1-1V6c0-.55.45-1 1-1h12c.55 0 1 .45 1 1v12c0 .55-.45 1-1 1z"/>
    </svg>
  </g>
  <!-- Icon 17: 24px -->
  <g transform="translate(316, 212)">
    <rect width="48" height="48" fill="#ffffff" stroke="#e9ecef" stroke-width="1" rx="4"/>
    <svg x="8" y="8" width="32" height="32" viewBox="0 0 24 24">
      <g><rect fill="#2563eb" height="24" width="24"/></g><g><g><rect height="1.5" width="1.5" x="15" y="14"/><path d="M19,3H5C3.9,3,3,3.9,3,5v14c0,1.1,0.9,2,2,2h14c1.1,0,2-0.9,2-2V5C21,3.9,20.1,3,19,3z M12,9c0-0.55,0.45-1,1-1h2V7h-2.25 C12.34,7,12,6.66,12,6.25s0.34-0.75,0.75-0.75h2.75c0.55,0,1,0.45,1,1V8c0,0.55-0.45,1-1,1h-2v1h2.25c0.41,0,0.75,0.34,0.75,0.75 s-0.34,0.75-0.75,0.75H12V9z M7.75,5.5H9c0.55,0,1,0.45,1,1v4.25c0,0.41-0.34,0.75-0.75,0.75S8.5,11.16,8.5,10.75V7H7.75 C7.34,7,7,6.66,7,6.25S7.34,5.5,7.75,5.5z M12.5,17.75c0,0.41-0.34,0.75-0.75,0.75S11,18.16,11,17.75V14h-1v2.25 C10,16.66,9.66,17,9.25,17S8.5,16.66,8.5,16.25V14h-1v3.75c0,0.41-0.34,0.75-0.75,0.75S6,18.16,6,17.75V13.5c0-0.55,0.45-1,1-1 h4.5c0.55,0,1,0.45,1,1V17.75z M18,16c0,0.55-0.45,1-1,1h-2v0.75c0,0.41-0.34,0.75-0.75,0.75s-0.75-0.34-0.75-0.75V13.5 c0-0.55,0.45-1,1-1H17c0.55,0,1,0.45,1,1V16z"/></g></g>
    </svg>
  </g>
  <!-- Icon 18: 24px -->
  <g transform="translate(376, 212)">
    <rect width="48" height="48" fill="#ffffff" stroke="#e9ecef" stroke-width="1" rx="4"/>
    <svg x="8" y="8" width="32" height="32" viewBox="0 0 24 24">
      <path d="M0 0h24v24H0V0z" fill="#2563eb"/><path d="M17.59 3.59c-.38-.38-.89-.59-1.42-.59H5c-1.11 0-2 .9-2 2v14c0 1.1.9 2 2 2h14c1.1 0 2-.9 2-2V7.83c0-.53-.21-1.04-.59-1.41l-2.82-2.83zM12 19c-1.66 0-3-1.34-3-3s1.34-3 3-3 3 1.34 3 3-1.34 3-3 3zm1-10H7c-1.1 0-2-.9-2-2s.9-2 2-2h6c1.1 0 2 .9 2 2s-.9 2-2 2z"/>
    </svg>
  </g>
  <!-- Icon 19: 24px -->
  <g transform="translate(436, 212)">
    <rect width="48" height="48" fill="#ffffff" stroke="#e9ecef" stroke-width="1" rx="4"/>
    <svg x="8" y="8" width="32" height="32" viewBox="0 0 24 24">
      <path d="M0 0h24v24H0V0z" fill="#2563eb"/><path d="M19 3H5c-1.11 0-2 .9-2 2v14c0 1.1.89 2 2 2h14c1.1 0 2-.9 2-2V5c0-1.1-.9-2-2-2zm-3 10h-3v3c0 .55-.45 1-1 1s-1-.45-1-1v-3H8c-.55 0-1-.45-1-1s.45-1 1-1h3V8c0-.55.45-1 1-1s1 .45 1 1v3h3c.55 0 1 .45 1 1s-.45 1-1 1z"/>
    </svg>
  </g>
  <!-- Icon 20: 24px -->
  <g transform="translate(496, 212)">
    <rect width="48" height="48" fill="#ffffff" stroke="#e9ecef" stroke-width="1" rx="4"/>
    <svg x="8" y="8" width="32" height="32" viewBox="0 0 24 24">
      <g><rect fill="#2563eb" fill-rule="evenodd" height="24" width="24"/><g><path d="M19,13H5c-0.55,0-1-0.45-1-1v0c0-0.55,0.45-1,1-1h14c0.55,0,1,0.45,1,1v0 C20,12.55,19.55,13,19,13z" fill-rule="evenodd"/></g></g>
    </svg>
  </g>
  <!-- Icon 21: 24px -->
  <g transform="translate(556, 212)">
    <rect width="48" height="48" fill="#ffffff" stroke="#e9ecef" stroke-width="1" rx="4"/>
    <svg x="8" y="8" width="32" height="32" viewBox="0 0 24 24">
      <g><rect fill="#2563eb" height="24" width="24"/><rect fill="#2563eb" height="24" width="24"/></g><g><g><path d="M22,4.95C21.79,4.78,19.67,3,16.5,3c-3.18,0-5.29,1.78-5.5,1.95L16.5,12L22,4.95z"/><path d="M19.2,15.28l-2.54-0.29c-0.61-0.07-1.21,0.14-1.64,0.57l-1.84,1.84c-2.83-1.44-5.15-3.75-6.59-6.59l1.85-1.85 c0.43-0.43,0.64-1.04,0.57-1.64L8.72,4.8C8.6,3.79,7.75,3.03,6.73,3.03H5c-1.13,0-2.07,0.94-2,2.07 C3.53,13.64,10.36,20.47,18.9,21c1.13,0.07,2.07-0.87,2.07-2v-1.73C20.97,16.25,20.21,15.4,19.2,15.28z"/></g></g>
    </svg>
  </g>
  <!-- Icon 22: 24px -->
  <g transform="translate(196, 272)">
    <rect width="48" height="48" fill="#ffffff" stroke="#e9ecef" stroke-width="1" rx="4"/>
    <svg x="8" y="8" width="32" height="32" viewBox="0 0 24 24">
      <path d="M0 0h24v24H0V0z" fill="#2563eb"/><path d="M20 6h-1v8c0 .55-.45 1-1 1H6v1c0 1.1.9 2 2 2h10l4 4V8c0-1.1-.9-2-2-2zm-3 5V4c0-1.1-.9-2-2-2H4c-1.1 0-2 .9-2 2v13l4-4h9c1.1 0 2-.9 2-2z"/>
    </svg>
  </g>
  <!-- Icon 23: 24px -->
  <g transform="translate(256, 272)">
    <rect width="48" height="48" fill="#ffffff" stroke="#e9ecef" stroke-width="1" rx="4"/>
    <svg x="8" y="8" width="32" height="32" viewBox="0 0 24 24">
      <rect fill="#2563eb" height="24" width="24"/><path d="M13,8v8h-3V8H13 M13,5h-3C8.34,5,7,6.34,7,8v8c0,1.66,1.34,3,3,3h3c1.66,0,3-1.34,3-3V8C16,6.34,14.66,5,13,5z M2.5,8H3v9.5 C3,18.33,3.67,19,4.5,19h0C5.33,19,6,18.33,6,17.5V7c0-1.1-0.9-2-2-2H2.5C1.67,5,1,5.67,1,6.5v0C1,7.33,1.67,8,2.5,8z M18.5,11 c-0.83,0-1.5,0.68-1.5,1.5v2c0,0.82,0.67,1.5,1.5,1.5H21v1h-3c-0.55,0-1,0.45-1,1v0c0,0.55,0.45,1,1,1h3.5c0.83,0,1.5-0.67,1.5-1.5 v-2c0-0.83-0.67-1.5-1.5-1.5H19v-1h3c0.55,0,1-0.45,1-1v0c0-0.55-0.45-1-1-1H18.5z"/>
    </svg>
  </g>
  <!-- Icon 24: 24px -->
  <g transform="translate(316, 272)">
    <rect width="48" height="48" fill="#ffffff" stroke="#e9ecef" stroke-width="1" rx="4"/>
    <svg x="8" y="8" width="32" height="32" viewBox="0 0 24 24">
      <g><rect fill="#2563eb" height="24" width="24"/><rect fill="#2563eb" height="24" width="24"/></g><g><path d="M12,4C7.7,4,3.78,5.6,0.79,8.24C0.35,8.63,0.32,9.3,0.73,9.71l10.56,10.58c0.39,0.39,1.02,0.39,1.42,0L23.27,9.71 c0.41-0.41,0.38-1.08-0.06-1.47C20.22,5.6,16.3,4,12,4z M2.92,9.07C5.51,7.08,8.67,6,12,6s6.49,1.08,9.08,3.07l-2.85,2.86 C16.46,10.71,14.31,10,12,10c-2.31,0-4.46,0.71-6.23,1.93L2.92,9.07z"/></g>
    </svg>
  </g>
  <!-- Icon 25: 24px -->
  <g transform="translate(376, 272)">
    <rect width="48" height="48" fill="#ffffff" stroke="#e9ecef" stroke-width="1" rx="4"/>
    <svg x="8" y="8" width="32" height="32" viewBox="0 0 24 24">
      <path d="M0 0h24v24H0V0z" fill="#2563eb"/><path d="M20 15.31l1.9-1.9c.78-.78.78-2.05 0-2.83L20 8.69V6c0-1.1-.9-2-2-2h-2.69l-1.9-1.9c-.78-.78-2.05-.78-2.83 0L8.69 4H6c-1.1 0-2 .9-2 2v2.69l-1.9 1.9c-.78.78-.78 2.05 0 2.83l1.9 1.9V18c0 1.1.9 2 2 2h2.69l1.9 1.9c.78.78 2.05.78 2.83 0l1.9-1.9H18c1.1 0 2-.9 2-2v-2.69zm-8 1.59V7.1c0-.61.55-1.11 1.15-.99C15.91 6.65 18 9.08 18 12s-2.09 5.35-4.85 5.89c-.6.12-1.15-.38-1.15-.99z"/>
    </svg>
  </g>
  <!-- Icon 26: 24px -->
  <g transform="translate(436, 272)">
    <rect width="48" height="48" fill="#ffffff" stroke="#e9ecef" stroke-width="1" rx="4"/>
    <svg x="8" y="8" width="32" height="32" viewBox="0 0 24 24">
      <g><rect fill="#2563eb" height="24" width="24"/></g><g><path d="M21,1H3C1.9,1,1,1.9,1,3v18c0,1.1,0.9,2,2,2h18c1.1,0,2-0.9,2-2V3C23,1.9,22.1,1,21,1z M4.3,4.7 c0.39-0.39,1.02-0.39,1.41,0l4.47,4.47l-1.42,1.4L4.3,6.11C3.91,5.72,3.91,5.09,4.3,4.7z M19.59,19.5c0,0.28-0.22,0.5-0.5,0.5H15.3 c-0.45,0-0.67-0.54-0.36-0.85l1.2-1.2l-3.13-3.13l1.41-1.41l3.13,3.14l1.19-1.19c0.31-0.32,0.85-0.1,0.85,0.35V19.5z M19.59,8.29 c0,0.45-0.54,0.67-0.85,0.36l-1.19-1.19L5.7,19.29c-0.39,0.39-1.02,0.39-1.41,0c-0.39-0.39-0.39-1.02,0-1.41L16.13,6.04l-1.19-1.19 C14.63,4.54,14.85,4,15.3,4h3.79c0.28,0,0.5,0.22,0.5,0.5V8.29z"/></g>
    </svg>
  </g>
  <!-- Icon 27: 24px -->
  <g transform="translate(496, 272)">
    <rect width="48" height="48" fill="#ffffff" stroke="#e9ecef" stroke-width="1" rx="4"/>
    <svg x="8" y="8" width="32" height="32" viewBox="0 0 24 24">
      <g><rect fill="#2563eb" height="24" width="24"/></g><g><g enable-background="new"><path d="M19,4H5C3.89,4,3,4.9,3,6v12c0,1.1,0.89,2,2,2h14c1.1,0,2-0.9,2-2V6C21,4.9,20.1,4,19,4z M11,10.5 c0,0.28-0.22,0.5-0.5,0.5H10c-0.28,0-0.5-0.22-0.5-0.5h-2v3h2c0-0.28,0.22-0.5,0.5-0.5h0.5c0.28,0,0.5,0.22,0.5,0.5V14 c0,0.55-0.45,1-1,1H7c-0.55,0-1-0.45-1-1v-4c0-0.55,0.45-1,1-1h3c0.55,0,1,0.45,1,1V10.5z M18,10.5c0,0.28-0.22,0.5-0.5,0.5H17 c-0.28,0-0.5-0.22-0.5-0.5h-2v3h2c0-0.28,0.22-0.5,0.5-0.5h0.5c0.28,0,0.5,0.22,0.5,0.5V14c0,0.55-0.45,1-1,1h-3 c-0.55,0-1-0.45-1-1v-4c0-0.55,0.45-1,1-1h3c0.55,0,1,0.45,1,1V10.5z"/></g></g>
    </svg>
  </g>
  <!-- Icon 28: 24px -->
  <g transform="translate(556, 272)">
    <rect width="48" height="48" fill="#ffffff" stroke="#e9ecef" stroke-width="1" rx="4"/>
    <svg x="8" y="8" width="32" height="32" viewBox="0 0 24 24">
      <g><rect fill="#2563eb" height="24" width="24"/></g><g><g><path d="M20,3v4c0,0.55-0.45,1-1,1H7C6.45,8,6,7.55,6,7V6H4v4h8c1.1,0,2,0.9,2,2v3h1c0.55,0,1,0.45,1,1v6c0,0.55-0.45,1-1,1h-4 c-0.55,0-1-0.45-1-1v-6c0-0.55,0.45-1,1-1h1v-3H4c-1.1,0-2-0.9-2-2V6c0-1.1,0.9-2,2-2h2V3c0-0.55,0.45-1,1-1h12 C19.55,2,20,2.45,20,3z"/></g></g>
    </svg>
  </g>
  <!-- Icon 29: 24px -->
  <g transform="translate(196, 332)">
    <rect width="48" height="48" fill="#ffffff" stroke="#e9ecef" stroke-width="1" rx="4"/>
    <svg x="8" y="8" width="32" height="32" viewBox="0 0 24 24">
      <rect fill="#2563eb" height="24" width="24"/><path d="M20,5h-1c-0.55,0-1,0.45-1,1v12c0,0.55,0.45,1,1,1h1c0.55,0,1-0.45,1-1V6C21,5.45,20.55,5,20,5z M16,5H8C7.45,5,7,5.45,7,6 v12c0,0.55,0.45,1,1,1h8c0.55,0,1-0.45,1-1V6C17,5.45,16.55,5,16,5z M5,5H4C3.45,5,3,5.45,3,6v12c0,0.55,0.45,1,1,1h1 c0.55,0,1-0.45,1-1V6C6,5.45,5.55,5,5,5z"/>
    </svg>
  </g>
  <!-- Icon 30: 20px -->
  <g transform="translate(256, 332)">
    <rect width="48" height="48" fill="#ffffff" stroke="#e9ecef" stroke-width="1" rx="4"/>
    <svg x="8" y="8" width="32" height="32" viewBox="0 0 20 20">
      <g><rect fill="#2563eb" height="20" width="20"/></g><g><g><path d="M16.51,3.49C14.87,1.96,12.56,1,10,1S5.13,1.96,3.49,3.49L2,2v4h4L4.69,4.69C6.02,3.47,7.91,2.7,10,2.7 s3.98,0.77,5.31,1.99L14,6h4V2L16.51,3.49z"/><path d="M11.93,11H10.5V6.25C10.5,5.56,9.94,5,9.25,5h0C8.56,5,8,5.56,8,6.25V15l-2.49-0.83c-0.31-0.1-0.66-0.02-0.89,0.21l0,0 c-0.34,0.34-0.34,0.89,0,1.24l2.94,2.94C7.84,18.84,8.22,19,8.62,19h5.27c0.73,0,1.36-0.53,1.48-1.25l0.61-3.65 c0.11-0.65-0.22-1.29-0.81-1.59l-2.8-1.4C12.23,11.04,12.08,11,11.93,11z"/></g></g>
    </svg>
  </g>
  <!-- Icon 31: 24px -->
  <g transform="translate(316, 332)">
    <rect width="48" height="48" fill="#ffffff" stroke="#e9ecef" stroke-width="1" rx="4"/>
    <svg x="8" y="8" width="32" height="32" viewBox="0 0 24 24">
      <path d="M0 0h24v24H0z" fill="#2563eb"/><path d="M4.75 18.25c-.41.41-.41 1.09 0 1.5.41.41 1.09.41 1.5 0L9 17h2l-2.5-2.5-3.75 3.75zM15 5c1.1 0 2-.9 2-2s-.9-2-2-2-2 .9-2 2 .9 2 2 2zm5.29 15.3l-2-2.01c-.18-.18-.44-.29-.71-.29H16.5l-6.29-6.29c.79-.33 1.66-.87 2.29-1.39v2.27l3.58 3.58c.57-.55.92-1.32.92-2.16V8.26C17 7.02 15.98 6 14.74 6h-.02c-.34 0-.67.09-.96.23-.26.12-.5.29-.69.5l-1.4 1.55C10.61 9.45 8.66 10.35 7 10.32c-.6 0-1.08.48-1.08 1.08 0 .6.48 1.08 1.08 1.08.31 0 .61-.03.9-.07l7.11 7.09v1.08c0 .26.1.52.29.7l1.99 2.01c.39.39 1.02.39 1.42 0l1.58-1.58c.39-.38.39-1.02 0-1.41z"/>
    </svg>
  </g>
  <!-- Icon 32: 20px -->
  <g transform="translate(376, 332)">
    <rect width="48" height="48" fill="#ffffff" stroke="#e9ecef" stroke-width="1" rx="4"/>
    <svg x="8" y="8" width="32" height="32" viewBox="0 0 20 20">
      <g><rect fill="#2563eb" height="20" width="20"/></g><g><g><path d="M15.5,3h-11C3.67,3,3,3.67,3,4.5v11C3,16.33,3.67,17,4.5,17h11c0.83,0,1.5-0.67,1.5-1.5v-11C17,3.67,16.33,3,15.5,3z M15.5,11h-2.38c-0.58,0-1.07,0.36-1.33,0.88C11.47,12.54,10.79,13,10,13s-1.47-0.46-1.8-1.12C7.95,11.36,7.46,11,6.88,11H4.5V4.5 h11V11z"/><path d="M10,11L10,11c0.41,0,0.75-0.34,0.75-0.75V9h1.04c0.45,0,0.67-0.54,0.35-0.85l-1.79-1.79c-0.2-0.2-0.51-0.2-0.71,0 L7.85,8.15C7.54,8.46,7.76,9,8.21,9h1.04v1.25C9.25,10.66,9.59,11,10,11z"/></g></g>
    </svg>
  </g>
  <!-- Icon 33: 24px -->
  <g transform="translate(436, 332)">
    <rect width="48" height="48" fill="#ffffff" stroke="#e9ecef" stroke-width="1" rx="4"/>
    <svg x="8" y="8" width="32" height="32" viewBox="0 0 24 24">
      <g><rect fill="#2563eb" height="24" width="24"/><rect fill="#2563eb" height="24" width="24"/></g><g><path d="M12.68,6.8c-0.39-0.35-0.98-0.35-1.37,0C9.35,8.56,9,10.84,9,12c0,1.15,0.35,3.44,2.32,5.2c0.39,0.35,0.98,0.35,1.37,0 C14.65,15.44,15,13.16,15,12C15,10.85,14.65,8.56,12.68,6.8z"/><g><path d="M9.04,16.87C8.71,16.95,8.36,17,8,17c-2.76,0-5-2.24-5-5s2.24-5,5-5c0.36,0,0.71,0.05,1.04,0.13 c0.39-0.56,0.88-1.12,1.49-1.63C9.75,5.19,8.9,5,8,5c-3.86,0-7,3.14-7,7s3.14,7,7,7c0.9,0,1.75-0.19,2.53-0.5 C9.92,17.99,9.43,17.43,9.04,16.87z"/></g><path d="M16,5c-0.9,0-1.75,0.19-2.53,0.5c0.61,0.51,1.1,1.07,1.49,1.63C15.29,7.05,15.64,7,16,7c2.76,0,5,2.24,5,5s-2.24,5-5,5 c-0.36,0-0.71-0.05-1.04-0.13c-0.39,0.56-0.88,1.12-1.49,1.63C14.25,18.81,15.1,19,16,19c3.86,0,7-3.14,7-7S19.86,5,16,5z"/></g>
    </svg>
  </g>
  <!-- Icon 34: 20px -->
  <g transform="translate(496, 332)">
    <rect width="48" height="48" fill="#ffffff" stroke="#e9ecef" stroke-width="1" rx="4"/>
    <svg x="8" y="8" width="32" height="32" viewBox="0 0 20 20">
      <g><rect fill="#2563eb" height="20" width="20"/></g><g><path d="M17,10.5v-5C17,4.68,16.33,4,15.5,4H14V2.78c0-0.41-0.32-0.77-0.73-0.78c-0.42-0.01-0.77,0.33-0.77,0.75V4h-5V2.75 C7.5,2.33,7.15,1.99,6.73,2C6.32,2.01,6,2.37,6,2.78L6,4H4.5C3.67,4,3,4.68,3,5.5v11C3,17.33,3.67,18,4.5,18h6v-1.5h-6V9h11v1.5H17 z M16,20c-1.82,0-3.35-1.21-3.84-2.87c-0.09-0.32,0.15-0.63,0.48-0.63c0.22,0,0.42,0.15,0.48,0.36C13.5,18.1,14.64,19,16,19 c1.66,0,3-1.34,3-3s-1.34-3-3-3c-0.89,0-1.69,0.39-2.24,1l0.74,0c0.28,0,0.5,0.22,0.5,0.5c0,0.28-0.22,0.5-0.5,0.5h-2 c-0.28,0-0.5-0.22-0.5-0.5v-2c0-0.28,0.22-0.5,0.5-0.5c0.28,0,0.5,0.22,0.5,0.5l0,0.85c0.73-0.83,1.81-1.35,3-1.35 c2.21,0,4,1.79,4,4C20,18.21,18.21,20,16,20z"/></g>
    </svg>
  </g>
  <!-- Icon 35: 24px -->
  <g transform="translate(556, 332)">
    <rect width="48" height="48" fill="#ffffff" stroke="#e9ecef" stroke-width="1" rx="4"/>
    <svg x="8" y="8" width="32" height="32" viewBox="0 0 24 24">
      <g><rect fill="#2563eb" height="24" width="24"/><rect fill="#2563eb" height="24" width="24"/></g><g><path d="M17,2c-0.55,0-1,0.45-1,1v1H8V3c0-0.55-0.45-1-1-1S6,2.45,6,3v1H5C3.89,4,3.01,4.9,3.01,6L3,20c0,1.1,0.89,2,2,2h14 c1.1,0,2-0.9,2-2V6c0-1.1-0.9-2-2-2h-1V3C18,2.45,17.55,2,17,2z M19,20H5V10h14V20z M11,13c0-0.55,0.45-1,1-1s1,0.45,1,1 s-0.45,1-1,1S11,13.55,11,13z M7,13c0-0.55,0.45-1,1-1s1,0.45,1,1s-0.45,1-1,1S7,13.55,7,13z M15,13c0-0.55,0.45-1,1-1s1,0.45,1,1 s-0.45,1-1,1S15,13.55,15,13z M11,17c0-0.55,0.45-1,1-1s1,0.45,1,1s-0.45,1-1,1S11,17.55,11,17z M7,17c0-0.55,0.45-1,1-1 s1,0.45,1,1s-0.45,1-1,1S7,17.55,7,17z M15,17c0-0.55,0.45-1,1-1s1,0.45,1,1s-0.45,1-1,1S15,17.55,15,17z"/></g>
    </svg>
  </g>
  
  <!-- Footer -->
  <text x="400" y="580" text-anchor="middle" font-family="system-ui, -apple-system, sans-serif" font-size="12" fill="#6c757d">
    Showing 35 of 2813 icons
  </text>
  
</svg>