<svg width="800" height="600" xmlns="http://www.w3.org/2000/svg">
  <!-- Background -->
  <rect width="800" height="600" fill="#ffffff"/>
  
  <!-- Header Background -->
  <rect width="800" height="80" fill="#f8f9fa"/>
  
  <!-- Title -->
  <text x="400" y="30" text-anchor="middle" font-family="system-ui, -apple-system, sans-serif" font-size="20" font-weight="bold" fill="#212529">Material Design Icons - rounded</text>
  
  <!-- Subtitle -->
  <text x="400" y="55" text-anchor="middle" font-family="system-ui, -apple-system, sans-serif" font-size="14" fill="#6c757d">2,813 icons</text>
  
  <!-- Icon Grid -->
  <!-- Icon 1: 24px -->
  <g transform="translate(12, 92)">
    <rect width="48" height="48" fill="#ffffff" stroke="#e9ecef" stroke-width="1" rx="4"/>
    <svg x="8" y="8" width="32" height="32" viewBox="0 0 24 24">
      <path d="M0 0h24v24H0z" fill="#2563eb"/><path d="M17 7H7c-2.76 0-5 2.24-5 5s2.24 5 5 5h10c2.76 0 5-2.24 5-5s-2.24-5-5-5zm0 8c-1.66 0-3-1.34-3-3s1.34-3 3-3 3 1.34 3 3-1.34 3-3 3z"/>
    </svg>
  </g>
  <!-- Icon 2: 24px -->
  <g transform="translate(72, 92)">
    <rect width="48" height="48" fill="#ffffff" stroke="#e9ecef" stroke-width="1" rx="4"/>
    <svg x="8" y="8" width="32" height="32" viewBox="0 0 24 24">
      <path d="M0 0h24v24H0V0z" fill="#2563eb"/><path d="M5 12V4c0-.55-.45-1-1-1s-1 .45-1 1v8c0 2.76 2.24 5 5 5h5c.55 0 1-.45 1-1s-.45-1-1-1H8c-1.66 0-3-1.34-3-3zm15.5 6H19v-7c0-1.1-.9-2-2-2h-5V3H6v8c0 1.65 1.35 3 3 3h7v5c0 1.1.9 2 2 2h2.5c.83 0 1.5-.67 1.5-1.5s-.67-1.5-1.5-1.5z"/>
    </svg>
  </g>
  <!-- Icon 3: 24px -->
  <g transform="translate(132, 92)">
    <rect width="48" height="48" fill="#ffffff" stroke="#e9ecef" stroke-width="1" rx="4"/>
    <svg x="8" y="8" width="32" height="32" viewBox="0 0 24 24">
      <rect fill="#2563eb" height="24" width="24"/><path d="M22.39,12.19c0.34-0.44,0.25-1.07-0.19-1.4l-9.6-7.33c-0.36-0.27-0.86-0.27-1.21,0L6,7.58V7c0-0.55-0.45-1-1-1S4,6.45,4,7 v2.11l-2.21,1.68c-0.44,0.33-0.52,0.96-0.19,1.4c0.34,0.44,0.96,0.52,1.4,0.19L4,11.62V20c0,0.55,0.45,1,1,1h6v-5c0-0.55,0.45-1,1-1 s1,0.45,1,1v5h6c0.55,0,1-0.45,1-1v-8.38l0.99,0.76C21.43,12.72,22.06,12.63,22.39,12.19z M5.27,5c-0.74,0-1.26-0.8-0.9-1.45 C4.89,2.62,5.87,2,7,2c0.38,0,0.72-0.22,0.89-0.53C8.04,1.16,8.39,1,8.73,1c0.74,0,1.26,0.8,0.9,1.45C9.11,3.38,8.13,4,7,4 C6.62,4,6.28,4.22,6.11,4.53C5.96,4.84,5.61,5,5.27,5z"/>
    </svg>
  </g>
  <!-- Icon 4: 24px -->
  <g transform="translate(192, 92)">
    <rect width="48" height="48" fill="#ffffff" stroke="#e9ecef" stroke-width="1" rx="4"/>
    <svg x="8" y="8" width="32" height="32" viewBox="0 0 24 24">
      <g><rect fill="#2563eb" height="24" width="24"/><rect fill="#2563eb" height="24" width="24"/></g><g><g><path d="M14.27,6C13.72,6.95,14.05,8.18,15,8.73c0.95,0.55,2.18,0.22,2.73-0.73c0.55-0.95,0.22-2.18-0.73-2.73 C16.05,4.72,14.82,5.05,14.27,6z"/><path d="M15.84,10.41c0,0-1.63-0.94-2.6-1.5c-2.13-1.24-3.01-3.83-2.18-6.07c0.17-0.46-0.01-0.97-0.43-1.21 C10.1,1.33,9.41,1.56,9.2,2.13C8.25,4.64,8.85,7.48,10.66,9.4l-4.65,8.05c-0.28,0.48-0.11,1.09,0.37,1.37 c0.48,0.28,1.09,0.11,1.37-0.37l1-1.73l1.73,1l-2.5,4.33c-0.28,0.48-0.11,1.09,0.37,1.37c0.48,0.28,1.09,0.11,1.37-0.37 l5.79-10.02c0.98,1.34,1.26,3.12,0.66,4.72c-0.17,0.45,0.02,0.96,0.43,1.2c0.53,0.31,1.22,0.08,1.44-0.5 C19.01,15.83,18.45,12.61,15.84,10.41z"/><path d="M12.75,3.8c0.72,0.41,1.63,0.17,2.05-0.55c0.41-0.72,0.17-1.63-0.55-2.05c-0.72-0.41-1.63-0.17-2.05,0.55 C11.79,2.47,12.03,3.39,12.75,3.8z"/></g></g>
    </svg>
  </g>
  <!-- Icon 5: 24px -->
  <g transform="translate(252, 92)">
    <rect width="48" height="48" fill="#ffffff" stroke="#e9ecef" stroke-width="1" rx="4"/>
    <svg x="8" y="8" width="32" height="32" viewBox="0 0 24 24">
      <rect fill="#2563eb" height="24" width="24"/><path d="M19,3H5C3.9,3,3,3.9,3,5v14c0,1.1,0.9,2,2,2h14c1.1,0,2-0.9,2-2V5C21,3.9,20.1,3,19,3z M14,14.5h0.25V19h-4.5v-4.5H10 c0.55,0,1-0.45,1-1V5h2v8.5C13,14.05,13.45,14.5,14,14.5z M5,5h2v8.5c0,0.55,0.45,1,1,1h0.25V19H5V5z M19,19h-3.25v-4.5H16 c0.55,0,1-0.45,1-1V5h2V19z"/>
    </svg>
  </g>
  <!-- Icon 6: 20px -->
  <g transform="translate(312, 92)">
    <rect width="48" height="48" fill="#ffffff" stroke="#e9ecef" stroke-width="1" rx="4"/>
    <svg x="8" y="8" width="32" height="32" viewBox="0 0 20 20">
      <g><rect fill="#2563eb" height="20" width="20"/></g><g><g><path d="M13.6,3c-0.77,0-1.52,0.2-2.18,0.56L10,8h1.13c0.68,0,1.16,0.66,0.95,1.3l-1.16,3.66c-0.09,0.29-0.53,0.19-0.49-0.11L11,9 H9.77C9.12,9,8.65,8.39,8.8,7.77L9.63,4.3C8.77,3.49,7.61,3,6.4,3C3.94,3,2,4.95,2,7.43c0,3.08,2.86,5.42,6.99,9.15 c0.57,0.52,1.44,0.52,2.02,0.01C14.92,13.1,18,10.58,18,7.43C18,4.95,16.06,3,13.6,3z"/></g></g>
    </svg>
  </g>
  <!-- Icon 7: 24px -->
  <g transform="translate(372, 92)">
    <rect width="48" height="48" fill="#ffffff" stroke="#e9ecef" stroke-width="1" rx="4"/>
    <svg x="8" y="8" width="32" height="32" viewBox="0 0 24 24">
      <g><rect fill="#2563eb" height="24" width="24"/><rect fill="#2563eb" height="24" width="24"/></g><g><g><path d="M20.41,9c0.49,0,0.69-0.63,0.29-0.91L13.15,2.8c-0.69-0.48-1.61-0.48-2.29,0L3.3,8.09C2.9,8.37,3.1,9,3.59,9H11v12 c0,0.55,0.45,1,1,1s1-0.45,1-1V9H20.41z"/><path d="M8,16H4.9l-0.57-3.02c-0.1-0.54-0.62-0.9-1.17-0.8c-0.54,0.1-0.9,0.62-0.8,1.17L3,16.74V21c0,0.55,0.45,1,1,1h0.01 c0.55,0,1-0.44,1-0.99L5.02,18H7v3c0,0.55,0.45,1,1,1s1-0.45,1-1v-4C9,16.45,8.55,16,8,16z"/><path d="M20.84,12.18c-0.54-0.1-1.06,0.26-1.17,0.8L19.1,16H16c-0.55,0-1,0.45-1,1v4c0,0.55,0.45,1,1,1s1-0.45,1-1v-3h1.98 l0.02,3.01c0,0.55,0.45,0.99,1,0.99H20c0.55,0,1-0.45,1-1v-4.26l0.64-3.39C21.74,12.81,21.38,12.28,20.84,12.18z"/></g></g>
    </svg>
  </g>
  <!-- Icon 8: 24px -->
  <g transform="translate(12, 152)">
    <rect width="48" height="48" fill="#ffffff" stroke="#e9ecef" stroke-width="1" rx="4"/>
    <svg x="8" y="8" width="32" height="32" viewBox="0 0 24 24">
      <path d="M24 0v24H0V0h24z" fill="#2563eb" opacity=".87"/><path d="M12.29 8.71L9.7 11.3c-.39.39-.39 1.02 0 1.41l2.59 2.59c.63.63 1.71.18 1.71-.71V9.41c0-.89-1.08-1.33-1.71-.7z"/>
    </svg>
  </g>
  <!-- Icon 9: 24px -->
  <g transform="translate(72, 152)">
    <rect width="48" height="48" fill="#ffffff" stroke="#e9ecef" stroke-width="1" rx="4"/>
    <svg x="8" y="8" width="32" height="32" viewBox="0 0 24 24">
      <g><rect fill="#2563eb" height="24" width="24"/><rect fill="#2563eb" height="24" width="24"/></g><g><path d="M20.29,12.29c-0.39-0.39-1.02-0.39-1.41,0L18,13.17V9c0-3.31-2.69-6-6-6S6,5.69,6,9v11c0,0.55,0.45,1,1,1s1-0.45,1-1V9 c0-2.21,1.79-4,4-4s4,1.79,4,4v4.17l-0.88-0.88c-0.39-0.39-1.02-0.39-1.41,0c-0.39,0.39-0.39,1.02,0,1.41l2.59,2.59 c0.39,0.39,1.02,0.39,1.41,0l2.59-2.59C20.68,13.32,20.68,12.68,20.29,12.29z"/></g>
    </svg>
  </g>
  <!-- Icon 10: 24px -->
  <g transform="translate(132, 152)">
    <rect width="48" height="48" fill="#ffffff" stroke="#e9ecef" stroke-width="1" rx="4"/>
    <svg x="8" y="8" width="32" height="32" viewBox="0 0 24 24">
      <g><rect fill="#2563eb" height="24" width="24"/></g><g><g><g><path d="M4,11V8h7.29c-0.77-2.6,0.21-4.61,0.37-4.97C2.97,2.67,2,5.02,2,7v9.5C2,18.43,3.57,20,5.5,20l-1.21,0.81 C4.11,20.93,4,21.13,4,21.35v0C4,21.71,4.29,22,4.65,22h10.7c0.36,0,0.65-0.29,0.65-0.65v0c0-0.22-0.11-0.42-0.29-0.54L14.5,20 c1.93,0,3.5-1.57,3.5-3.5V13c-1.91,0-3.63-0.76-4.89-2H4z M10,17c-0.83,0-1.5-0.67-1.5-1.5c0-0.83,0.67-1.5,1.5-1.5 s1.5,0.67,1.5,1.5C11.5,16.33,10.83,17,10,17z"/></g><g><path d="M18,1c-2.76,0-5,2.24-5,5s2.24,5,5,5s5-2.24,5-5S20.76,1,18,1z M18,9c-0.28,0-0.5-0.22-0.5-0.5C17.5,8.22,17.72,8,18,8 s0.5,0.22,0.5,0.5C18.5,8.78,18.28,9,18,9z M18.5,6.5C18.5,6.78,18.28,7,18,7s-0.5-0.22-0.5-0.5v-3C17.5,3.22,17.72,3,18,3 s0.5,0.22,0.5,0.5V6.5z"/></g></g></g>
    </svg>
  </g>
  <!-- Icon 11: 24px -->
  <g transform="translate(192, 152)">
    <rect width="48" height="48" fill="#ffffff" stroke="#e9ecef" stroke-width="1" rx="4"/>
    <svg x="8" y="8" width="32" height="32" viewBox="0 0 24 24">
      <path d="M0 0h24v24H0V0z" fill="#2563eb"/><path d="M5.23 2C4.04 2 3.11 3.04 3.24 4.22l1.77 16.01C5.13 21.23 5.97 22 7 22h10c1.03 0 1.87-.77 1.99-1.77l1.77-16.01c.13-1.18-.8-2.22-1.99-2.22H5.23zM12 19c-1.66 0-3-1.34-3-3 0-1.55 1.81-3.95 2.62-4.94.2-.25.57-.25.77 0 .81 1 2.62 3.39 2.62 4.94-.01 1.66-1.35 3-3.01 3zm6.33-11H5.67l-.32-2.89c-.06-.59.4-1.11 1-1.11h11.3c.59 0 1.06.52.99 1.11L18.33 8z"/>
    </svg>
  </g>
  <!-- Icon 12: 24px -->
  <g transform="translate(252, 152)">
    <rect width="48" height="48" fill="#ffffff" stroke="#e9ecef" stroke-width="1" rx="4"/>
    <svg x="8" y="8" width="32" height="32" viewBox="0 0 24 24">
      <path d="M0 0h24v24H0V0z" fill="#2563eb"/><path d="M13.5 5.5c1.1 0 2-.9 2-2s-.9-2-2-2-2 .9-2 2 .9 2 2 2zM9.8 8.9L7.24 21.81c-.13.61.35 1.19.98 1.19h.08c.47 0 .87-.32.98-.78L10.9 15l2.1 2v5c0 .55.45 1 1 1s1-.45 1-1v-5.64c0-.55-.22-1.07-.62-1.45L12.9 13.5l.6-3c1.07 1.24 2.62 2.13 4.36 2.41.6.09 1.14-.39 1.14-1 0-.49-.36-.9-.85-.98-1.52-.25-2.78-1.15-3.45-2.33l-1-1.6c-.56-.89-1.68-1.25-2.65-.84L7.22 7.78C6.48 8.1 6 8.82 6 9.63V12c0 .55.45 1 1 1s1-.45 1-1V9.6l1.8-.7"/>
    </svg>
  </g>
  <!-- Icon 13: 20px -->
  <g transform="translate(312, 152)">
    <rect width="48" height="48" fill="#ffffff" stroke="#e9ecef" stroke-width="1" rx="4"/>
    <svg x="8" y="8" width="32" height="32" viewBox="0 0 20 20">
      <g display="none"><rect display="inline" fill="#2563eb" height="20" width="20" y="0"/></g><g><g><path d="M14.55,8.53l-0.83-2.49c-0.31-0.92-1.17-1.54-2.13-1.54H8.41c-0.97,0-1.83,0.62-2.13,1.54L5.73,7.67l-1-1l0.15-0.15 c0.29-0.29,0.29-0.77,0-1.06s-0.77-0.29-1.06,0L2.47,6.82c-0.29,0.29-0.29,0.77,0,1.06c0.29,0.29,0.77,0.29,1.06,0l0.14-0.14 l0.99,0.99C3.69,9.15,3,10.12,3,11.25c0,0.98,0.51,1.83,1.28,2.32c0.16,1.09,1.09,1.93,2.22,1.93c0.98,0,1.8-0.63,2.11-1.5h2.78 c0.31,0.87,1.14,1.5,2.11,1.5c1.13,0,2.06-0.84,2.22-1.93c0.77-0.49,1.28-1.34,1.28-2.32C17,9.84,15.92,8.68,14.55,8.53z M6.5,14 c-0.41,0-0.75-0.34-0.75-0.75S6.09,12.5,6.5,12.5s0.75,0.34,0.75,0.75S6.91,14,6.5,14z M9.25,8.5H7.04L7.7,6.51 C7.81,6.21,8.09,6,8.41,6h0.84V8.5z M10.75,8.5V6h0.84c0.32,0,0.61,0.21,0.71,0.51l0.66,1.99H10.75z M13.5,14 c-0.41,0-0.75-0.34-0.75-0.75s0.34-0.75,0.75-0.75s0.75,0.34,0.75,0.75S13.91,14,13.5,14z"/></g></g>
    </svg>
  </g>
  <!-- Icon 14: 24px -->
  <g transform="translate(372, 152)">
    <rect width="48" height="48" fill="#ffffff" stroke="#e9ecef" stroke-width="1" rx="4"/>
    <svg x="8" y="8" width="32" height="32" viewBox="0 0 24 24">
      <path d="M19.2 8.56l-4.22-2.3c-.3-.16-.66-.16-.96 0L9.8 8.56c-.35.19-.35.69 0 .88l4.22 2.3c.3.16.66.16.96 0l4.22-2.3c.34-.19.34-.69 0-.88zM21 3H3c-1.1 0-2 .9-2 2v2c0 .55.45 1 1 1s1-.45 1-1V6c0-.55.45-1 1-1h16c.55 0 1 .45 1 1v12c0 .55-.45 1-1 1h-5c-.55 0-1 .45-1 1s.45 1 1 1h6c1.1 0 2-.9 2-2V5c0-1.1-.9-2-2-2zm-6.98 9.74L11 11.09v1.41c0 .37.2.7.52.88l2.5 1.36c.3.16.66.16.96 0l2.5-1.36c.32-.18.52-.52.52-.88v-1.41l-3.02 1.65c-.3.16-.66.16-.96 0zM1 18v3h3c0-1.66-1.34-3-3-3zm1.14-3.91c-.6-.1-1.14.39-1.14 1 0 .49.36.9.85.98 2.08.36 3.72 2 4.08 4.08.08.49.49.85.98.85.61 0 1.09-.54 1-1.14-.48-2.96-2.82-5.29-5.77-5.77zm-.04-4.04c-.59-.05-1.1.41-1.1 1 0 .51.38.94.88.99 4.27.41 7.67 3.81 8.08 8.08.05.5.48.87.99.87.6 0 1.06-.52 1-1.11-.53-5.19-4.66-9.31-9.85-9.83z"/>
    </svg>
  </g>
  <!-- Icon 15: 20px -->
  <g transform="translate(12, 212)">
    <rect width="48" height="48" fill="#ffffff" stroke="#e9ecef" stroke-width="1" rx="4"/>
    <svg x="8" y="8" width="32" height="32" viewBox="0 0 20 20">
      <g><rect fill="#2563eb" height="20" width="20"/></g><g><path d="M2.75,6C3.16,6,3.5,6.34,3.5,6.75V17.5h8.75c0.41,0,0.75,0.34,0.75,0.75S12.66,19,12.25,19H3.5C2.67,19,2,18.33,2,17.5 V6.75C2,6.34,2.34,6,2.75,6z M17,5.62v8.88c0,0.83-0.67,1.5-1.5,1.5h-9C5.67,16,5,15.33,5,14.5v-12C5,1.67,5.67,1,6.5,1h5.88 c0.4,0,0.78,0.16,1.06,0.44l3.12,3.12C16.84,4.84,17,5.22,17,5.62z M13.25,11.75c0-0.41-0.34-0.75-0.75-0.75h-3 c-0.41,0-0.75,0.34-0.75,0.75v0c0,0.41,0.34,0.75,0.75,0.75h3C12.91,12.5,13.25,12.16,13.25,11.75L13.25,11.75z M12.5,6.5h-0.75 V5.75C11.75,5.34,11.41,5,11,5h0c-0.41,0-0.75,0.34-0.75,0.75V6.5H9.5c-0.41,0-0.75,0.34-0.75,0.75v0C8.75,7.66,9.09,8,9.5,8h0.75 v0.75c0,0.41,0.34,0.75,0.75,0.75h0c0.41,0,0.75-0.34,0.75-0.75V8h0.75c0.41,0,0.75-0.34,0.75-0.75v0 C13.25,6.84,12.91,6.5,12.5,6.5z"/></g>
    </svg>
  </g>
  <!-- Icon 16: 24px -->
  <g transform="translate(72, 212)">
    <rect width="48" height="48" fill="#ffffff" stroke="#e9ecef" stroke-width="1" rx="4"/>
    <svg x="8" y="8" width="32" height="32" viewBox="0 0 24 24">
      <path d="M0 0h24v24H0V0z" fill="#2563eb"/><path d="M20 6.54v10.91c-2.6-.77-5.28-1.16-8-1.16s-5.4.39-8 1.16V6.54c2.6.77 5.28 1.16 8 1.16 2.72.01 5.4-.38 8-1.16M21.43 4c-.1 0-.2.02-.31.06C18.18 5.16 15.09 5.7 12 5.7s-6.18-.55-9.12-1.64C2.77 4.02 2.66 4 2.57 4c-.34 0-.57.23-.57.63v14.75c0 .39.23.62.57.62.1 0 .2-.02.31-.06 2.94-1.1 6.03-1.64 9.12-1.64s6.18.55 9.12 1.64c.11.04.21.06.31.06.33 0 .57-.23.57-.63V4.63c0-.4-.24-.63-.57-.63z"/>
    </svg>
  </g>
  <!-- Icon 17: 24px -->
  <g transform="translate(132, 212)">
    <rect width="48" height="48" fill="#ffffff" stroke="#e9ecef" stroke-width="1" rx="4"/>
    <svg x="8" y="8" width="32" height="32" viewBox="0 0 24 24">
      <path d="M0 0h24v24H0V0z" fill="#2563eb"/><path d="M2 5c-.55 0-1 .45-1 1v15c0 1.1.9 2 2 2h15c.55 0 1-.45 1-1s-.45-1-1-1H4c-.55 0-1-.45-1-1V6c0-.55-.45-1-1-1zm19-4H7c-1.1 0-2 .9-2 2v14c0 1.1.9 2 2 2h14c1.1 0 2-.9 2-2V3c0-1.1-.9-2-2-2zm-1 16H8c-.55 0-1-.45-1-1V4c0-.55.45-1 1-1h12c.55 0 1 .45 1 1v12c0 .55-.45 1-1 1zm-6.75-2.49l3.58-7.17c.11-.22.17-.47.17-.72 0-.9-.72-1.62-1.62-1.62H12c-.55 0-1 .45-1 1s.45 1 1 1h3l-3.36 6.71c-.3.59.13 1.29.8 1.29h.01c.34 0 .65-.19.8-.49z"/>
    </svg>
  </g>
  <!-- Icon 18: 24px -->
  <g transform="translate(192, 212)">
    <rect width="48" height="48" fill="#ffffff" stroke="#e9ecef" stroke-width="1" rx="4"/>
    <svg x="8" y="8" width="32" height="32" viewBox="0 0 24 24">
      <path d="M0 0h24v24H0V0z" fill="#2563eb"/><path d="M20 8.69V5c0-.55-.45-1-1-1h-3.69l-2.6-2.6c-.39-.39-1.02-.39-1.41 0L8.69 4H5c-.55 0-1 .45-1 1v3.69l-2.6 2.6c-.39.39-.39 1.02 0 1.41L4 15.3V19c0 .55.45 1 1 1h3.69l2.6 2.6c.39.39 1.02.39 1.41 0l2.6-2.6H19c.55 0 1-.45 1-1v-3.69l2.6-2.6c.39-.39.39-1.02 0-1.41L20 8.69zM12 18c-3.31 0-6-2.69-6-6s2.69-6 6-6 6 2.69 6 6-2.69 6-6 6zm0-10c-2.21 0-4 1.79-4 4s1.79 4 4 4 4-1.79 4-4-1.79-4-4-4z"/>
    </svg>
  </g>
  <!-- Icon 19: 24px -->
  <g transform="translate(252, 212)">
    <rect width="48" height="48" fill="#ffffff" stroke="#e9ecef" stroke-width="1" rx="4"/>
    <svg x="8" y="8" width="32" height="32" viewBox="0 0 24 24">
      <rect fill="#2563eb" height="24" width="24"/><path d="M14,10.5V11h-3v-0.5C11,9.67,10.33,9,9.5,9h-1V7h1C10.33,7,11,6.33,11,5.5v-3C11,1.67,10.33,1,9.5,1h-4C4.67,1,4,1.67,4,2.5 v3C4,6.33,4.67,7,5.5,7h1v2h-1C4.67,9,4,9.67,4,10.5v3C4,14.33,4.67,15,5.5,15h1v2h-1C4.67,17,4,17.67,4,18.5v3 C4,22.33,4.67,23,5.5,23h4c0.83,0,1.5-0.67,1.5-1.5v-3c0-0.83-0.67-1.5-1.5-1.5h-1v-2h1c0.83,0,1.5-0.67,1.5-1.5V13h3v0.5 c0,0.83,0.67,1.5,1.5,1.5h4c0.83,0,1.5-0.67,1.5-1.5v-3C21,9.67,20.33,9,19.5,9h-4C14.67,9,14,9.67,14,10.5z"/>
    </svg>
  </g>
  <!-- Icon 20: 24px -->
  <g transform="translate(312, 212)">
    <rect width="48" height="48" fill="#ffffff" stroke="#e9ecef" stroke-width="1" rx="4"/>
    <svg x="8" y="8" width="32" height="32" viewBox="0 0 24 24">
      <path d="M0 0h24v24H0V0z" fill="#2563eb"/><path d="M18.5 8c.83 0 1.5-.67 1.5-1.5S19.33 5 18.5 5H6.39l3 3h1.83l-.55 1.28 2.09 2.09L14.21 8h4.29zm-1.06 10.88L4.12 5.56c-.39-.39-1.02-.39-1.41 0-.39.39-.39 1.02 0 1.41l6.26 6.26-1.65 3.84c-.39.92.28 1.93 1.27 1.93.55 0 1.05-.33 1.27-.84l1.21-2.83 4.95 4.95c.39.39 1.02.39 1.41 0 .4-.38.4-1.01.01-1.4z"/>
    </svg>
  </g>
  <!-- Icon 21: 24px -->
  <g transform="translate(372, 212)">
    <rect width="48" height="48" fill="#ffffff" stroke="#e9ecef" stroke-width="1" rx="4"/>
    <svg x="8" y="8" width="32" height="32" viewBox="0 0 24 24">
      <path d="M0 0h24v24H0V0z" fill="#2563eb"/><path d="M12 2C6.48 2 2 6.48 2 12s4.48 10 10 10 10-4.48 10-10S17.52 2 12 2zm4 11H8c-.55 0-1-.45-1-1s.45-1 1-1h8c.55 0 1 .45 1 1s-.45 1-1 1z"/>
    </svg>
  </g>
  <!-- Icon 22: 24px -->
  <g transform="translate(12, 272)">
    <rect width="48" height="48" fill="#ffffff" stroke="#e9ecef" stroke-width="1" rx="4"/>
    <svg x="8" y="8" width="32" height="32" viewBox="0 0 24 24">
      <path d="M12 7c.55 0 1 .45 1 1v4c0 .55-.45 1-1 1s-1-.45-1-1V8c0-.55.45-1 1-1zm-.01-5C6.47 2 2 6.48 2 12s4.47 10 9.99 10C17.52 22 22 17.52 22 12S17.52 2 11.99 2zM12 20c-4.42 0-8-3.58-8-8s3.58-8 8-8 8 3.58 8 8-3.58 8-8 8zm1-3h-2v-2h2v2z"/>
    </svg>
  </g>
  <!-- Icon 23: 20px -->
  <g transform="translate(72, 272)">
    <rect width="48" height="48" fill="#ffffff" stroke="#e9ecef" stroke-width="1" rx="4"/>
    <svg x="8" y="8" width="32" height="32" viewBox="0 0 20 20">
      <g><rect fill="#2563eb" height="20" width="20"/></g><g><path d="M7,17h6c0.55,0,1-0.45,1-1v-2.59c0-0.27-0.11-0.52-0.29-0.71L11,10l2.71-2.71C13.89,7.11,14,6.85,14,6.59V4 c0-0.55-0.45-1-1-1H7C6.45,3,6,3.45,6,4v2.59c0,0.27,0.11,0.52,0.29,0.71L9,10l-2.71,2.71C6.11,12.89,6,13.15,6,13.41V16 C6,16.55,6.45,17,7,17z M7,6.59V4.5C7,4.22,7.22,4,7.5,4h5C12.78,4,13,4.22,13,4.5v2.09l-3,3L7,6.59z"/></g>
    </svg>
  </g>
  <!-- Icon 24: 24px -->
  <g transform="translate(132, 272)">
    <rect width="48" height="48" fill="#ffffff" stroke="#e9ecef" stroke-width="1" rx="4"/>
    <svg x="8" y="8" width="32" height="32" viewBox="0 0 24 24">
      <path d="M7 6c.55 0 1 .45 1 1v10c0 .55-.45 1-1 1s-1-.45-1-1V7c0-.55.45-1 1-1zm3.66 6.82l5.77 4.07c.66.47 1.58-.01 1.58-.82V7.93c0-.81-.91-1.28-1.58-.82l-5.77 4.07c-.57.4-.57 1.24 0 1.64z"/>
    </svg>
  </g>
  <!-- Icon 25: 24px -->
  <g transform="translate(192, 272)">
    <rect width="48" height="48" fill="#ffffff" stroke="#e9ecef" stroke-width="1" rx="4"/>
    <svg x="8" y="8" width="32" height="32" viewBox="0 0 24 24">
      <path d="M21 3H3c-1.1 0-2 .9-2 2v14c0 1.1.9 2 2 2h18c1.1 0 2-.9 2-2V5c0-1.1-.9-2-2-2zm-1 16H4c-.55 0-1-.45-1-1v-1c0-.55.45-1 1-1h16c.55 0 1 .45 1 1v1c0 .55-.45 1-1 1z"/>
    </svg>
  </g>
  <!-- Icon 26: 24px -->
  <g transform="translate(252, 272)">
    <rect width="48" height="48" fill="#ffffff" stroke="#e9ecef" stroke-width="1" rx="4"/>
    <svg x="8" y="8" width="32" height="32" viewBox="0 0 24 24">
      <g><rect fill="#2563eb" height="24" width="24"/><rect fill="#2563eb" height="24" width="24"/></g><g><g><path d="M20,4H4C2.9,4,2,4.9,2,6v12c0,1.1,0.9,2,2,2h16c1.1,0,2-0.9,2-2V6C22,4.9,21.1,4,20,4z M11,16.5H8 c-0.28,0-0.5-0.22-0.5-0.5v-3c0-0.28,0.22-0.5,0.5-0.5h3c0.28,0,0.5,0.22,0.5,0.5v3C11.5,16.28,11.28,16.5,11,16.5z M11,11.5H8 c-0.28,0-0.5-0.22-0.5-0.5V8c0-0.28,0.22-0.5,0.5-0.5h3c0.28,0,0.5,0.22,0.5,0.5v3C11.5,11.28,11.28,11.5,11,11.5z M16,16.5h-3 c-0.28,0-0.5-0.22-0.5-0.5v-3c0-0.28,0.22-0.5,0.5-0.5h3c0.28,0,0.5,0.22,0.5,0.5v3C16.5,16.28,16.28,16.5,16,16.5z M16,11.5h-3 c-0.28,0-0.5-0.22-0.5-0.5V8c0-0.28,0.22-0.5,0.5-0.5h3c0.28,0,0.5,0.22,0.5,0.5v3C16.5,11.28,16.28,11.5,16,11.5z"/></g></g>
    </svg>
  </g>
  <!-- Icon 27: 20px -->
  <g transform="translate(312, 272)">
    <rect width="48" height="48" fill="#ffffff" stroke="#e9ecef" stroke-width="1" rx="4"/>
    <svg x="8" y="8" width="32" height="32" viewBox="0 0 20 20">
      <g><rect fill="#2563eb" height="20" width="20"/></g><g><path d="M5.53,12.47c0.29-0.29,0.29-0.77,0-1.06l-0.66-0.66l3.2,0C8.42,12.6,10.05,14,12,14c2.21,0,4-1.79,4-4c0-2.21-1.79-4-4-4 c-1.95,0-3.58,1.4-3.93,3.25l-3.2,0l0.66-0.66c0.29-0.29,0.29-0.77,0-1.06s-0.77-0.29-1.06,0L2.71,9.29 c-0.39,0.39-0.39,1.02,0,1.41l1.76,1.76C4.76,12.76,5.24,12.76,5.53,12.47z"/></g>
    </svg>
  </g>
  <!-- Icon 28: 24px -->
  <g transform="translate(372, 272)">
    <rect width="48" height="48" fill="#ffffff" stroke="#e9ecef" stroke-width="1" rx="4"/>
    <svg x="8" y="8" width="32" height="32" viewBox="0 0 24 24">
      <g><rect fill="#2563eb" height="24" width="24"/></g><g><path d="M20.95,14.88c-0.4,3.18-2.89,5.67-6.07,6.07C14.37,21.01,14,21.44,14,21.94c0,0.04,0,0.08,0.01,0.12 c0.07,0.55,0.57,0.94,1.12,0.87c4.09-0.51,7.3-3.72,7.81-7.81c0.06-0.55-0.33-1.05-0.88-1.11C21.51,13.94,21.01,14.33,20.95,14.88z M18.84,15.26c0.14-0.53-0.18-1.08-0.72-1.22c-0.54-0.14-1.08,0.18-1.22,0.72c-0.27,1.05-1.09,1.87-2.15,2.15 C14.3,17.03,14,17.43,14,17.88c0,0.08,0.01,0.17,0.03,0.25c0.14,0.53,0.69,0.85,1.22,0.72C17.02,18.38,18.39,17.01,18.84,15.26z M21.8,4.12l-3.54-3.54c-0.78-0.78-2.05-0.78-2.83,0l-3.18,3.18c-0.78,0.78-0.78,2.05,0,2.83l1.24,1.24l-0.71,0.71L11.55,7.3 c-0.78-0.78-2.05-0.78-2.83,0L7.3,8.72c-0.78,0.78-0.78,2.05,0,2.83l1.24,1.24l-0.71,0.71L6.6,12.25c-0.78-0.78-2.05-0.78-2.83,0 l-3.18,3.18c-0.78,0.78-0.78,2.05,0,2.83l3.54,3.54c0.78,0.78,2.05,0.78,2.83,0l3.18-3.18c0.78-0.78,0.78-2.05,0-2.83l-1.24-1.24 l0.71-0.71l1.24,1.24c0.78,0.78,2.05,0.78,2.83,0l1.41-1.41c0.78-0.78,0.78-2.05,0-2.83L13.84,9.6l0.71-0.71l1.24,1.24 c0.78,0.78,2.05,0.78,2.83,0l3.18-3.18C22.58,6.17,22.58,4.9,21.8,4.12z M5.54,20.38L2,16.85l1.06-1.06l3.54,3.54L5.54,20.38z M7.66,18.26l-3.54-3.54l1.06-1.06l3.54,3.54L7.66,18.26z M17.2,8.72l-3.54-3.54l1.06-1.06l3.54,3.54L17.2,8.72z M19.32,6.6 l-3.54-3.54L16.85,2l3.54,3.54L19.32,6.6z"/></g>
    </svg>
  </g>
  <!-- Icon 29: 24px -->
  <g transform="translate(12, 332)">
    <rect width="48" height="48" fill="#ffffff" stroke="#e9ecef" stroke-width="1" rx="4"/>
    <svg x="8" y="8" width="32" height="32" viewBox="0 0 24 24">
      <rect fill="#2563eb" height="24" width="24" x="0" y="0"/><path d="M12,2C6.48,2,2,6.48,2,12c0,5.52,4.48,10,10,10s10-4.48,10-10C22,6.48,17.52,2,12,2z M13.88,11.54l-4.25,4.25 c-0.39,0.39-1.02,0.39-1.41,0l0,0c-0.39-0.39-0.39-1.02,0-1.41l4.25-4.25L11.2,8.86C10.88,8.54,11.11,8,11.55,8l3.94,0 c0.28,0,0.5,0.22,0.5,0.5l0,3.94c0,0.45-0.54,0.67-0.85,0.35L13.88,11.54z"/><g/><g/><g/>
    </svg>
  </g>
  <!-- Icon 30: 24px -->
  <g transform="translate(72, 332)">
    <rect width="48" height="48" fill="#ffffff" stroke="#e9ecef" stroke-width="1" rx="4"/>
    <svg x="8" y="8" width="32" height="32" viewBox="0 0 24 24">
      <g><rect fill="#2563eb" height="24" width="24"/><rect fill="#2563eb" height="24" width="24"/></g><g><path d="M18.71,13.29l3.59-3.59c0.39-0.39,0.39-1.02,0-1.41l0,0c-0.39-0.39-1.02-0.39-1.41,0L19,10.17V4c0-0.55-0.45-1-1-1h0 c-0.55,0-1,0.45-1,1v6.17l-1.89-1.88c-0.39-0.39-1.02-0.39-1.41,0l0,0c-0.39,0.39-0.39,1.02,0,1.41l3.59,3.59 C17.69,13.68,18.32,13.68,18.71,13.29z"/><path d="M17,18H7V6h7V1H7C5.9,1,5,1.9,5,3v18c0,1.1,0.9,2,2,2h10c1.1,0,2-0.9,2-2v-5h-2V18z"/></g>
    </svg>
  </g>
  <!-- Icon 31: 24px -->
  <g transform="translate(132, 332)">
    <rect width="48" height="48" fill="#ffffff" stroke="#e9ecef" stroke-width="1" rx="4"/>
    <svg x="8" y="8" width="32" height="32" viewBox="0 0 24 24">
      <g><path d="M0,0h24v24H0V0z" fill="#2563eb"/></g><g><path d="M5,20h14c0.55,0,1,0.45,1,1v0c0,0.55-0.45,1-1,1H5c-0.55,0-1-0.45-1-1v0C4,20.45,4.45,20,5,20z M5,2h14c0.55,0,1,0.45,1,1 v0c0,0.55-0.45,1-1,1H5C4.45,4,4,3.55,4,3v0C4,2.45,4.45,2,5,2z M13,9h1.79c0.45,0,0.67-0.54,0.35-0.85l-2.79-2.79 c-0.2-0.2-0.51-0.2-0.71,0L8.85,8.15C8.54,8.46,8.76,9,9.21,9H11v6H9.21c-0.45,0-0.67,0.54-0.35,0.85l2.79,2.79 c0.2,0.2,0.51,0.2,0.71,0l2.79-2.79c0.31-0.31,0.09-0.85-0.35-0.85H13V9z"/></g>
    </svg>
  </g>
  <!-- Icon 32: 24px -->
  <g transform="translate(192, 332)">
    <rect width="48" height="48" fill="#ffffff" stroke="#e9ecef" stroke-width="1" rx="4"/>
    <svg x="8" y="8" width="32" height="32" viewBox="0 0 24 24">
      <path d="M0 0h24v24H0V0z" fill="#2563eb"/><path d="M12 2C6.48 2 2 6.48 2 12s4.48 10 10 10 10-4.48 10-10S17.52 2 12 2zM9.29 16.29 5.7 12.7c-.39-.39-.39-1.02 0-1.41.39-.39 1.02-.39 1.41 0L10 14.17l6.88-6.88c.39-.39 1.02-.39 1.41 0 .39.39.39 1.02 0 1.41l-7.59 7.59c-.38.39-1.02.39-1.41 0z"/>
    </svg>
  </g>
  <!-- Icon 33: 24px -->
  <g transform="translate(252, 332)">
    <rect width="48" height="48" fill="#ffffff" stroke="#e9ecef" stroke-width="1" rx="4"/>
    <svg x="8" y="8" width="32" height="32" viewBox="0 0 24 24">
      <g><rect fill="#2563eb" height="24" width="24"/><rect fill="#2563eb" height="24" width="24"/></g><g><path d="M14,19c0-0.55-0.45-1-1-1H4v-6h18V6c0-1.1-0.9-2-2-2H4C2.89,4,2.01,4.89,2.01,6L2,18c0,1.11,0.89,2,2,2h9 C13.55,20,14,19.55,14,19z M20,8H4V6h16V8z M20,22c-0.55,0-1-0.45-1-1v-2h-2c-0.55,0-1-0.45-1-1c0-0.55,0.45-1,1-1h2v-2 c0-0.55,0.45-1,1-1c0.55,0,1,0.45,1,1v2h2c0.55,0,1,0.45,1,1c0,0.55-0.45,1-1,1h-2v2C21,21.55,20.55,22,20,22z"/></g>
    </svg>
  </g>
  <!-- Icon 34: 24px -->
  <g transform="translate(312, 332)">
    <rect width="48" height="48" fill="#ffffff" stroke="#e9ecef" stroke-width="1" rx="4"/>
    <svg x="8" y="8" width="32" height="32" viewBox="0 0 24 24">
      <path d="M0 0h24v24H0V0z" fill="#2563eb"/><path d="M18.5 4c.83 0 1.5.67 1.5 1.5v13c0 .83-.67 1.5-1.5 1.5s-1.5-.67-1.5-1.5v-13c0-.83.67-1.5 1.5-1.5zm-12 10c.83 0 1.5.67 1.5 1.5v3c0 .83-.67 1.5-1.5 1.5S5 19.33 5 18.5v-3c0-.83.67-1.5 1.5-1.5zm6-5c.83 0 1.5.67 1.5 1.5v8c0 .83-.67 1.5-1.5 1.5s-1.5-.67-1.5-1.5v-8c0-.83.67-1.5 1.5-1.5z"/>
    </svg>
  </g>
  <!-- Icon 35: 24px -->
  <g transform="translate(372, 332)">
    <rect width="48" height="48" fill="#ffffff" stroke="#e9ecef" stroke-width="1" rx="4"/>
    <svg x="8" y="8" width="32" height="32" viewBox="0 0 24 24">
      <g><path d="M0,0h24v24H0V0z" fill="#2563eb"/></g><g><g><path d="M15,11H9V8c0-0.55-0.45-1-1-1h0C7.45,7,7,7.45,7,8v8c0,0.55,0.45,1,1,1h0c0.55,0,1-0.45,1-1v-3h6v3c0,0.55,0.45,1,1,1h0 c0.55,0,1-0.45,1-1V8c0-0.55-0.45-1-1-1h0c-0.55,0-1,0.45-1,1V11z"/></g></g>
    </svg>
  </g>
  
  <!-- Footer -->
  <text x="400" y="580" text-anchor="middle" font-family="system-ui, -apple-system, sans-serif" font-size="12" fill="#6c757d">
    Showing 35 of 2813 icons
  </text>
  
</svg>