<svg width="800" height="600" xmlns="http://www.w3.org/2000/svg">
  <!-- Background -->
  <rect width="800" height="600" fill="#ffffff"/>
  
  <!-- Header Background -->
  <rect width="800" height="80" fill="#f8f9fa"/>
  
  <!-- Title -->
  <text x="400" y="30" text-anchor="middle" font-family="system-ui, -apple-system, sans-serif" font-size="20" font-weight="bold" fill="#212529">Material Design Icons - sharp</text>
  
  <!-- Subtitle -->
  <text x="400" y="55" text-anchor="middle" font-family="system-ui, -apple-system, sans-serif" font-size="14" fill="#6c757d">2,813 icons</text>
  
  <!-- Icon Grid -->
  <!-- Icon 1: 24px -->
  <g transform="translate(196, 92)">
    <rect width="48" height="48" fill="#ffffff" stroke="#e9ecef" stroke-width="1" rx="4"/>
    <svg x="8" y="8" width="32" height="32" viewBox="0 0 24 24">
      <path d="M0 0h24v24H0z" fill="#2563eb"/><path d="M17 7H7c-2.76 0-5 2.24-5 5s2.24 5 5 5h10c2.76 0 5-2.24 5-5s-2.24-5-5-5zm0 8c-1.66 0-3-1.34-3-3s1.34-3 3-3 3 1.34 3 3-1.34 3-3 3z"/>
    </svg>
  </g>
  <!-- Icon 2: 24px -->
  <g transform="translate(256, 92)">
    <rect width="48" height="48" fill="#ffffff" stroke="#e9ecef" stroke-width="1" rx="4"/>
    <svg x="8" y="8" width="32" height="32" viewBox="0 0 24 24">
      <path d="M0 0h24v24H0V0z" fill="#2563eb"/><path d="M23 3H1v16h7v2h8v-2h6.99L23 3zm-2 14H3V5h18v12z"/>
    </svg>
  </g>
  <!-- Icon 3: 24px -->
  <g transform="translate(316, 92)">
    <rect width="48" height="48" fill="#ffffff" stroke="#e9ecef" stroke-width="1" rx="4"/>
    <svg x="8" y="8" width="32" height="32" viewBox="0 0 24 24">
      <rect fill="#2563eb" height="24" width="24"/><path d="M18,6v8h-1V7H7v3h2V9h6v2H6c-2.21,0-4,1.79-4,4v3h15v-2h3V8h2V6H18z"/>
    </svg>
  </g>
  <!-- Icon 4: 24px -->
  <g transform="translate(376, 92)">
    <rect width="48" height="48" fill="#ffffff" stroke="#e9ecef" stroke-width="1" rx="4"/>
    <svg x="8" y="8" width="32" height="32" viewBox="0 0 24 24">
      <rect fill="#2563eb" height="24" width="24"/><path d="M19.3,16.9c0.4-0.7,0.7-1.5,0.7-2.4c0-2.5-2-4.5-4.5-4.5S11,12,11,14.5s2,4.5,4.5,4.5c0.9,0,1.7-0.3,2.4-0.7l3.2,3.2 l1.4-1.4L19.3,16.9z M15.5,17c-1.4,0-2.5-1.1-2.5-2.5s1.1-2.5,2.5-2.5s2.5,1.1,2.5,2.5S16.9,17,15.5,17z M12,20v2 C6.48,22,2,17.52,2,12C2,6.48,6.48,2,12,2c4.84,0,8.87,3.44,9.8,8h-2.07c-0.64-2.46-2.4-4.47-4.73-5.41V5c0,1.1-0.9,2-2,2h-2v2 c0,0.55-0.45,1-1,1H8v2h2v3H9l-4.79-4.79C4.08,10.79,4,11.38,4,12C4,16.41,7.59,20,12,20z"/>
    </svg>
  </g>
  <!-- Icon 5: 20px -->
  <g transform="translate(436, 92)">
    <rect width="48" height="48" fill="#ffffff" stroke="#e9ecef" stroke-width="1" rx="4"/>
    <svg x="8" y="8" width="32" height="32" viewBox="0 0 20 20">
      <g><rect fill="#2563eb" height="20" width="20"/></g><g><path d="M15.74,14.39L11.5,8.93V5.87l0.85-1.06C12.61,4.48,12.38,4,11.96,4H8.04C7.62,4,7.39,4.48,7.65,4.81L8.5,5.87v3.05 l-4.24,5.46C3.74,15.04,4.21,16,5.04,16h9.91C15.79,16,16.26,15.04,15.74,14.39z"/></g>
    </svg>
  </g>
  <!-- Icon 6: 24px -->
  <g transform="translate(496, 92)">
    <rect width="48" height="48" fill="#ffffff" stroke="#e9ecef" stroke-width="1" rx="4"/>
    <svg x="8" y="8" width="32" height="32" viewBox="0 0 24 24">
      <g><rect fill="#2563eb" height="24" width="24"/></g><g><path d="M17,11V2H7v9l4.66,2.8l-0.99,2.34l-3.41,0.29l2.59,2.24L9.07,22L12,20.23L14.93,22l-0.78-3.33l2.59-2.24l-3.41-0.29 l-0.99-2.34L17,11z M13,12.23l-1,0.6l-1-0.6V3h2V12.23z"/></g>
    </svg>
  </g>
  <!-- Icon 7: 24px -->
  <g transform="translate(556, 92)">
    <rect width="48" height="48" fill="#ffffff" stroke="#e9ecef" stroke-width="1" rx="4"/>
    <svg x="8" y="8" width="32" height="32" viewBox="0 0 24 24">
      <g><rect fill="#2563eb" height="24" width="24"/></g><g><g/><g><rect height="2" width="8" x="3" y="2"/><polygon points="6,11 8,11 8,7 11,7 11,5 3,5 3,7 6,7"/><rect height="2" transform="matrix(0.7071 -0.7071 0.7071 0.7071 -7.0416 16.9999)" width="11" x="11.5" y="16"/><circle cx="14.5" cy="14.5" r="1.5"/><circle cx="19.5" cy="19.5" r="1.5"/><path d="M15.5,11c1.38,0,2.5-1.12,2.5-2.5V4h3V2h-4v4.51C16.58,6.19,16.07,6,15.5,6C14.12,6,13,7.12,13,8.5 C13,9.88,14.12,11,15.5,11z"/><path d="M9.74,15.96l-1.41,1.41l-0.71-0.71l0.35-0.35c0.98-0.98,0.98-2.56,0-3.54c-0.49-0.49-1.13-0.73-1.77-0.73 c-0.64,0-1.28,0.24-1.77,0.73c-0.98,0.98-0.98,2.56,0,3.54l0.35,0.35l-1.06,1.06c-0.98,0.98-0.98,2.56,0,3.54 C4.22,21.76,4.86,22,5.5,22s1.28-0.24,1.77-0.73l1.06-1.06l1.41,1.41l1.41-1.41l-1.41-1.41l1.41-1.41L9.74,15.96z M5.85,14.2 c0.12-0.12,0.26-0.15,0.35-0.15s0.23,0.03,0.35,0.15c0.19,0.2,0.19,0.51,0,0.71l-0.35,0.35L5.85,14.9 C5.66,14.71,5.66,14.39,5.85,14.2z M5.85,19.85C5.73,19.97,5.59,20,5.5,20s-0.23-0.03-0.35-0.15c-0.19-0.19-0.19-0.51,0-0.71 l1.06-1.06l0.71,0.71L5.85,19.85z"/></g></g>
    </svg>
  </g>
  <!-- Icon 8: 24px -->
  <g transform="translate(196, 152)">
    <rect width="48" height="48" fill="#ffffff" stroke="#e9ecef" stroke-width="1" rx="4"/>
    <svg x="8" y="8" width="32" height="32" viewBox="0 0 24 24">
      <rect fill="#2563eb" height="24" width="24"/><path d="M6,3l0,6c0,2.97,2.16,5.43,5,5.91V19H8v2h8v-2h-3v-4.09c2.84-0.48,5-2.94,5-5.91l0-6H6z M16,8H8l0-3h8C16,5,16,8,16,8z"/>
    </svg>
  </g>
  <!-- Icon 9: 24px -->
  <g transform="translate(256, 152)">
    <rect width="48" height="48" fill="#ffffff" stroke="#e9ecef" stroke-width="1" rx="4"/>
    <svg x="8" y="8" width="32" height="32" viewBox="0 0 24 24">
      <g><rect fill="#2563eb" height="24" width="24"/></g><g><g><path d="M21,15v-2h-3.07c-0.05-0.39-0.12-0.77-0.22-1.14l2.58-1.49l-1-1.73L16.92,10c-0.28-0.48-0.62-0.91-0.99-1.29 C15.97,8.48,16,8.25,16,8c0-0.8-0.24-1.55-0.65-2.18L17,4.17l-1.41-1.41l-1.72,1.72c-1.68-0.89-3.1-0.33-3.73,0L8.41,2.76L7,4.17 l1.65,1.65C8.24,6.45,8,7.2,8,8c0,0.25,0.03,0.48,0.07,0.72C7.7,9.1,7.36,9.53,7.08,10L4.71,8.63l-1,1.73l2.58,1.49 c-0.1,0.37-0.17,0.75-0.22,1.14H3v2h3.07c0.05,0.39,0.12,0.77,0.22,1.14l-2.58,1.49l1,1.73L7.08,18c1.08,1.81,2.88,3,4.92,3 s3.84-1.19,4.92-3l2.37,1.37l1-1.73l-2.58-1.49c0.1-0.37,0.17-0.75,0.22-1.14H21z M13,17h-2v-6h2V17z"/></g></g>
    </svg>
  </g>
  <!-- Icon 10: 24px -->
  <g transform="translate(316, 152)">
    <rect width="48" height="48" fill="#ffffff" stroke="#e9ecef" stroke-width="1" rx="4"/>
    <svg x="8" y="8" width="32" height="32" viewBox="0 0 24 24">
      <path d="M0 0h24v24H0V0z" fill="#2563eb"/><path d="M18.58 7H5.43L3 14v9h3v-2h12v2h3v-9l-2.42-7zM6.5 18c-.83 0-1.5-.67-1.5-1.5S5.67 15 6.5 15s1.5.67 1.5 1.5S7.33 18 6.5 18zm11 0c-.83 0-1.5-.67-1.5-1.5s.67-1.5 1.5-1.5 1.5.67 1.5 1.5-.67 1.5-1.5 1.5zM5 13l1.5-4.5h11L19 13H5zm12-8c.83 0 1.5-.67 1.5-1.5 0-1-1.5-2.7-1.5-2.7s-1.5 1.7-1.5 2.7c0 .83.67 1.5 1.5 1.5zm-5 0c.83 0 1.5-.67 1.5-1.5 0-1-1.5-2.7-1.5-2.7s-1.5 1.7-1.5 2.7c0 .83.67 1.5 1.5 1.5zM7 5c.83 0 1.5-.67 1.5-1.5C8.5 2.5 7 .8 7 .8S5.5 2.5 5.5 3.5C5.5 4.33 6.17 5 7 5z"/>
    </svg>
  </g>
  <!-- Icon 11: 24px -->
  <g transform="translate(376, 152)">
    <rect width="48" height="48" fill="#ffffff" stroke="#e9ecef" stroke-width="1" rx="4"/>
    <svg x="8" y="8" width="32" height="32" viewBox="0 0 24 24">
      <g><rect fill="#2563eb" height="24" width="24" y="0"/></g><g><path d="M12,2C8,2,4,2.5,4,6v9.5c0,0.95,0.38,1.81,1,2.44V21h3v-2h8v2h3v-3.06 c0.62-0.63,1-1.49,1-2.44V6C20,2.5,16.42,2,12,2z M8.5,16C7.67,16,7,15.33,7,14.5S7.67,13,8.5,13s1.5,0.67,1.5,1.5S9.33,16,8.5,16z M15.5,16c-0.83,0-1.5-0.67-1.5-1.5s0.67-1.5,1.5-1.5s1.5,0.67,1.5,1.5S16.33,16,15.5,16z M18,10H6V7h12V10z" enable-background="new"/></g>
    </svg>
  </g>
  <!-- Icon 12: 20px -->
  <g transform="translate(436, 152)">
    <rect width="48" height="48" fill="#ffffff" stroke="#e9ecef" stroke-width="1" rx="4"/>
    <svg x="8" y="8" width="32" height="32" viewBox="0 0 20 20">
      <g><rect fill="#2563eb" height="20" width="20"/></g><g><g><path d="M17.84,6.73l1.39-0.58c-1.01-2.43-2.96-4.37-5.38-5.38l-0.58,1.39C15.33,3.02,16.98,4.67,17.84,6.73z"/><path d="M13.27,17.84l0.58,1.39c2.43-1.01,4.37-2.96,5.38-5.38l-1.39-0.58C16.98,15.33,15.33,16.98,13.27,17.84z"/><path d="M2.16,13.27l-1.39,0.58c1.01,2.43,2.96,4.37,5.38,5.38l0.58-1.39C4.67,16.98,3.02,15.33,2.16,13.27z"/><path d="M6.73,2.16L6.15,0.77C3.72,1.78,1.78,3.72,0.77,6.15l1.39,0.58C3.02,4.67,4.67,3.02,6.73,2.16z"/><path d="M10,9c1.38,0,2.5-1.12,2.5-2.5C12.5,5.12,11.38,4,10,4S7.5,5.12,7.5,6.5C7.5,7.88,8.62,9,10,9z"/><path d="M10,10c-1.53,0-2.96,0.42-4.2,1.14C5.3,11.44,5,11.99,5,12.57V14h10v-1.43c0-0.58-0.3-1.14-0.8-1.43 C12.96,10.42,11.53,10,10,10z"/></g></g>
    </svg>
  </g>
  <!-- Icon 13: 24px -->
  <g transform="translate(496, 152)">
    <rect width="48" height="48" fill="#ffffff" stroke="#e9ecef" stroke-width="1" rx="4"/>
    <svg x="8" y="8" width="32" height="32" viewBox="0 0 24 24">
      <path d="M0 0h24v24H0V0z" fill="#2563eb"/><path d="M7.11 8.53L5.7 7.11C4.8 8.27 4.24 9.61 4.07 11h2.02c.14-.87.49-1.72 1.02-2.47zM6.09 13H4.07c.17 1.39.72 2.73 1.62 3.89l1.41-1.42c-.52-.75-.87-1.59-1.01-2.47zm1.01 5.32c1.16.9 2.51 1.44 3.9 1.61V17.9c-.87-.15-1.71-.49-2.46-1.03L7.1 18.32zM13 4.07V1L8.45 5.55 13 10V6.09c2.84.48 5 2.94 5 5.91s-2.16 5.43-5 5.91v2.02c3.95-.49 7-3.85 7-7.93s-3.05-7.44-7-7.93z"/>
    </svg>
  </g>
  <!-- Icon 14: 24px -->
  <g transform="translate(556, 152)">
    <rect width="48" height="48" fill="#ffffff" stroke="#e9ecef" stroke-width="1" rx="4"/>
    <svg x="8" y="8" width="32" height="32" viewBox="0 0 24 24">
      <g><rect fill="#2563eb" height="24" width="24"/></g><g><g><path d="M12,2C8.69,2,6,4.69,6,8s2.69,6,6,6s6-2.69,6-6S15.31,2,12,2z M15,9h-2v2h-2V9H9V7h2V5h2v2h2V9z"/><path d="M10,16H6.5v6H10c0.8,0,1.5-0.7,1.5-1.5v-3C11.5,16.7,10.8,16,10,16z M10,20.5H8v-3h2V20.5z"/><path d="M18,16h-5v6h1.5v-2h1.1l0.9,2H18l-0.86-2H18V16z M16.5,18.5h-2v-1h2V18.5z"/><polygon points="3.5,18 1.5,18 1.5,16 0,16 0,22 1.5,22 1.5,19.5 3.5,19.5 3.5,22 5,22 5,16 3.5,16"/><polygon points="22,18.5 22,16.5 20.5,16.5 20.5,18.5 18.5,18.5 18.5,20 20.5,20 20.5,22 22,22 22,20 24,20 24,18.5"/></g></g>
    </svg>
  </g>
  <!-- Icon 15: 24px -->
  <g transform="translate(196, 212)">
    <rect width="48" height="48" fill="#ffffff" stroke="#e9ecef" stroke-width="1" rx="4"/>
    <svg x="8" y="8" width="32" height="32" viewBox="0 0 24 24">
      <path d="M0 0h24v24H0V0z" fill="#2563eb"/><path d="M16 8h-2v3h-3v2h3v3h2v-3h3v-2h-3V8zM2 12c0-2.79 1.64-5.2 4.01-6.32V3.52C2.52 4.76 0 8.09 0 12s2.52 7.24 6.01 8.48v-2.16C3.64 17.2 2 14.79 2 12zm13-9c-4.96 0-9 4.04-9 9s4.04 9 9 9 9-4.04 9-9-4.04-9-9-9zm0 16c-3.86 0-7-3.14-7-7s3.14-7 7-7 7 3.14 7 7-3.14 7-7 7z"/>
    </svg>
  </g>
  <!-- Icon 16: 24px -->
  <g transform="translate(256, 212)">
    <rect width="48" height="48" fill="#ffffff" stroke="#e9ecef" stroke-width="1" rx="4"/>
    <svg x="8" y="8" width="32" height="32" viewBox="0 0 24 24">
      <path d="M0 0h24v24H0V0z" fill="#2563eb"/><path d="M9 16h6v-6h4l-7-7-7 7h4v6zm-4 2h14v2H5v-2z"/>
    </svg>
  </g>
  <!-- Icon 17: 20px -->
  <g transform="translate(316, 212)">
    <rect width="48" height="48" fill="#ffffff" stroke="#e9ecef" stroke-width="1" rx="4"/>
    <svg x="8" y="8" width="32" height="32" viewBox="0 0 20 20">
      <g><rect fill="#2563eb" height="20" width="20"/><path d="M15,6V3H5v3c0,0,0,0,0,0L15,6C15,6,15,6,15,6z M14,5H6V4h8V5z M14,7H6l-3,7h14L14,7z M8.25,13h-1.5v-1h1.5V13z M8.25,11 h-1.5v-1h1.5V11z M8.25,9h-1.5V8h1.5V9z M10.75,13h-1.5v-1h1.5V13z M10.75,11h-1.5v-1h1.5V11z M10.75,9h-1.5V8h1.5V9z M13.25,13 h-1.5v-1h1.5V13z M13.25,11h-1.5v-1h1.5V11z M13.25,9h-1.5V8h1.5V9z M17,15l0,2H3l0-2H17z"/></g>
    </svg>
  </g>
  <!-- Icon 18: 20px -->
  <g transform="translate(376, 212)">
    <rect width="48" height="48" fill="#ffffff" stroke="#e9ecef" stroke-width="1" rx="4"/>
    <svg x="8" y="8" width="32" height="32" viewBox="0 0 20 20">
      <g><rect fill="#2563eb" height="20" width="20"/></g><g><g><rect height="4" width="3" x="13" y="12"/><rect height="8" width="3" x="4" y="8"/><rect height="3" width="3" x="4" y="4"/><rect height="3" width="3" x="8.5" y="6"/><rect height="3" width="3" x="13" y="8"/><rect height="6" width="3" x="8.5" y="10"/></g></g>
    </svg>
  </g>
  <!-- Icon 19: 24px -->
  <g transform="translate(436, 212)">
    <rect width="48" height="48" fill="#ffffff" stroke="#e9ecef" stroke-width="1" rx="4"/>
    <svg x="8" y="8" width="32" height="32" viewBox="0 0 24 24">
      <g><rect fill="#2563eb" height="24" width="24"/></g><g><g><path d="M5,5h2v3h10V5h2v5h2V3h-6.18C14.4,1.84,13.3,1,12,1S9.6,1.84,9.18,3H3v18h8v-2H5V5z M12,3c0.55,0,1,0.45,1,1s-0.45,1-1,1 s-1-0.45-1-1S11.45,3,12,3z"/><polygon points="21,11.5 15.51,17 12.5,14 11,15.5 15.51,20 22.5,13"/></g></g>
    </svg>
  </g>
  <!-- Icon 20: 24px -->
  <g transform="translate(496, 212)">
    <rect width="48" height="48" fill="#ffffff" stroke="#e9ecef" stroke-width="1" rx="4"/>
    <svg x="8" y="8" width="32" height="32" viewBox="0 0 24 24">
      <g><rect fill="#2563eb" height="24" width="24"/></g><g><g><rect height="5" width="16" x="4" y="17"/><path d="M20,8l-6-6H4.01l-0.01,9H20V8z M13,9V3.5L18.5,9H13z"/><rect height="2" width="6" x="9" y="13"/><rect height="2" width="6" x="17" y="13"/><rect height="2" width="6" x="1" y="13"/></g></g>
    </svg>
  </g>
  <!-- Icon 21: 24px -->
  <g transform="translate(556, 212)">
    <rect width="48" height="48" fill="#ffffff" stroke="#e9ecef" stroke-width="1" rx="4"/>
    <svg x="8" y="8" width="32" height="32" viewBox="0 0 24 24">
      <rect fill="#2563eb" height="24" width="24"/><path d="M22,2v2H2V2H22z M7,22h3V6H7V22z M14,16h3V6h-3V16z"/>
    </svg>
  </g>
  <!-- Icon 22: 24px -->
  <g transform="translate(196, 272)">
    <rect width="48" height="48" fill="#ffffff" stroke="#e9ecef" stroke-width="1" rx="4"/>
    <svg x="8" y="8" width="32" height="32" viewBox="0 0 24 24">
      <path d="M0 0h24v24H0V0z" fill="#2563eb"/><path d="M18.5 6C15.46 6 13 8.46 13 11.5c0 1.33.47 2.55 1.26 3.5H9.74c.79-.95 1.26-2.17 1.26-3.5C11 8.46 8.54 6 5.5 6S0 8.46 0 11.5 2.46 17 5.5 17h13c3.04 0 5.5-2.46 5.5-5.5S21.54 6 18.5 6zm-13 9C3.57 15 2 13.43 2 11.5S3.57 8 5.5 8 9 9.57 9 11.5 7.43 15 5.5 15zm13 0c-1.93 0-3.5-1.57-3.5-3.5S16.57 8 18.5 8 22 9.57 22 11.5 20.43 15 18.5 15z"/>
    </svg>
  </g>
  <!-- Icon 23: 20px -->
  <g transform="translate(256, 272)">
    <rect width="48" height="48" fill="#ffffff" stroke="#e9ecef" stroke-width="1" rx="4"/>
    <svg x="8" y="8" width="32" height="32" viewBox="0 0 20 20">
      <rect fill="#2563eb" height="20" width="20"/><path d="M12.71,12.84c0.84-0.88,1.17-2.06,0.99-3.18l1.59-0.48c0.42,0.78,1.25,1.32,2.2,1.32c1.38,0,2.5-1.12,2.5-2.5 s-1.12-2.5-2.5-2.5C16.12,5.5,15,6.62,15,8c0,0.08,0,0.15,0.01,0.22L13.42,8.7c-0.52-1.15-1.61-2-2.92-2.17l0-1.58 c1.14-0.23,2-1.24,2-2.45C12.5,1.12,11.38,0,10,0S7.5,1.12,7.5,2.5c0,1.21,0.86,2.22,2,2.45l0,1.58C8.2,6.71,7.11,7.55,6.58,8.7 L4.99,8.22C5,8.15,5,8.08,5,8c0-1.38-1.12-2.5-2.5-2.5S0,6.62,0,8s1.12,2.5,2.5,2.5c0.95,0,1.78-0.53,2.2-1.32L6.3,9.66 c-0.18,1.12,0.15,2.3,0.99,3.18l-1.15,1.43C5.8,14.1,5.41,14,5,14c-1.38,0-2.5,1.12-2.5,2.5S3.62,19,5,19s2.5-1.12,2.5-2.5 c0-0.61-0.22-1.17-0.58-1.6l1.15-1.43c1.18,0.71,2.68,0.71,3.86,0l1.15,1.43c-0.36,0.43-0.58,0.99-0.58,1.6c0,1.38,1.12,2.5,2.5,2.5 s2.5-1.12,2.5-2.5S16.38,14,15,14c-0.41,0-0.8,0.1-1.14,0.27L12.71,12.84z"/>
    </svg>
  </g>
  <!-- Icon 24: 24px -->
  <g transform="translate(316, 272)">
    <rect width="48" height="48" fill="#ffffff" stroke="#e9ecef" stroke-width="1" rx="4"/>
    <svg x="8" y="8" width="32" height="32" viewBox="0 0 24 24">
      <g><path d="M0,0h24v24H0V0z" fill="#2563eb"/></g><g><path d="M5,1v22h14V1H5z M17,18H7V6h10V18z M16,10.05l-1.41-1.41l-3.54,3.54l-1.41-1.41l-1.41,1.41L11.05,15L16,10.05z"/></g>
    </svg>
  </g>
  <!-- Icon 25: 20px -->
  <g transform="translate(376, 272)">
    <rect width="48" height="48" fill="#ffffff" stroke="#e9ecef" stroke-width="1" rx="4"/>
    <svg x="8" y="8" width="32" height="32" viewBox="0 0 20 20">
      <g><rect fill="#2563eb" height="20" width="20"/></g><g><path d="M10,3C6.12,3,2.6,4.53,0,7.01L10,17l10-9.99C17.4,4.53,13.88,3,10,3z M12.56,12.32c-1.53-1.07-3.6-1.07-5.13,0L2.21,7.1 C4.46,5.41,7.17,4.5,10,4.5c2.83,0,5.54,0.91,7.79,2.6L12.56,12.32z"/></g>
    </svg>
  </g>
  <!-- Icon 26: 24px -->
  <g transform="translate(436, 272)">
    <rect width="48" height="48" fill="#ffffff" stroke="#e9ecef" stroke-width="1" rx="4"/>
    <svg x="8" y="8" width="32" height="32" viewBox="0 0 24 24">
      <path d="M0 0h24v24H0V0z" fill="#2563eb"/><path d="M13 5.83l1.88 1.88-1.6 1.6 1.41 1.41 3.02-3.02L12 2h-1v5.03l2 2v-3.2zM5.41 4L4 5.41 10.59 12 5 17.59 6.41 19 11 14.41V22h1l4.29-4.29 2.3 2.29L20 18.59 5.41 4zM13 18.17v-3.76l1.88 1.88L13 18.17z"/>
    </svg>
  </g>
  <!-- Icon 27: 24px -->
  <g transform="translate(496, 272)">
    <rect width="48" height="48" fill="#ffffff" stroke="#e9ecef" stroke-width="1" rx="4"/>
    <svg x="8" y="8" width="32" height="32" viewBox="0 0 24 24">
      <path d="M0 0h24v24H0V0z" fill="#2563eb"/><path d="M12 5V1L7 6l5 5V7c3.31 0 6 2.69 6 6s-2.69 6-6 6-6-2.69-6-6H4c0 4.42 3.58 8 8 8s8-3.58 8-8-3.58-8-8-8zm-1.31 8.9l.25-2.17h2.39v.71h-1.7l-.11.92c.03-.02.07-.03.11-.05s.09-.04.15-.05.12-.03.18-.04.13-.02.2-.02c.21 0 .39.03.55.1s.3.16.41.28.2.27.25.45.09.38.09.6c0 .19-.03.37-.09.54s-.15.32-.27.45-.27.24-.45.31-.39.12-.64.12c-.18 0-.36-.03-.53-.08s-.32-.14-.46-.24-.24-.24-.32-.39-.13-.33-.13-.53h.84c.02.18.08.32.19.41s.25.15.42.15c.11 0 .2-.02.27-.06s.14-.1.18-.17.08-.15.11-.25.03-.2.03-.31-.01-.21-.04-.31-.07-.17-.13-.24-.13-.12-.21-.15-.19-.05-.3-.05c-.08 0-.15.01-.2.02s-.11.03-.15.05-.08.05-.12.07-.07.06-.1.09l-.67-.16z"/>
    </svg>
  </g>
  <!-- Icon 28: 24px -->
  <g transform="translate(556, 272)">
    <rect width="48" height="48" fill="#ffffff" stroke="#e9ecef" stroke-width="1" rx="4"/>
    <svg x="8" y="8" width="32" height="32" viewBox="0 0 24 24">
      <path d="M0 0h24v24H0V0z" fill="#2563eb"/><path d="M23 3H1v18h22V3zm-2 16H3v-3h18v3z"/>
    </svg>
  </g>
  <!-- Icon 29: 24px -->
  <g transform="translate(196, 332)">
    <rect width="48" height="48" fill="#ffffff" stroke="#e9ecef" stroke-width="1" rx="4"/>
    <svg x="8" y="8" width="32" height="32" viewBox="0 0 24 24">
      <rect fill="#2563eb" height="24" width="24"/><path d="M2,7h4v10H2V7z M7,19h10V5H7V19z M18,7h4v10h-4V7z"/>
    </svg>
  </g>
  <!-- Icon 30: 20px -->
  <g transform="translate(256, 332)">
    <rect width="48" height="48" fill="#ffffff" stroke="#e9ecef" stroke-width="1" rx="4"/>
    <svg x="8" y="8" width="32" height="32" viewBox="0 0 20 20">
      <g><rect fill="#2563eb" height="20" width="20"/></g><g><path d="M16.93,6C15.89,3.63,13.11,2,10,2C7.35,2,4.94,3.18,3.64,5L6,5v1H2V2h1l0,2.19C4.49,2.27,7.07,1,10,1c3.78,0,6.97,2.11,8,5 L16.93,6z M12.66,11H11V6.25C11,5.56,10.44,5,9.75,5h0C9.06,5,8.5,5.56,8.5,6.25V15l-3-1l-1,1l4,4h7.16l1-6L12.66,11z"/></g>
    </svg>
  </g>
  <!-- Icon 31: 20px -->
  <g transform="translate(316, 332)">
    <rect width="48" height="48" fill="#ffffff" stroke="#e9ecef" stroke-width="1" rx="4"/>
    <svg x="8" y="8" width="32" height="32" viewBox="0 0 20 20">
      <rect fill="#2563eb" height="20" width="20"/><path d="M16.5,6.5l-2-2c0.06-0.36,0.21-0.71,0.38-1.02c0.23-0.43,0.55-0.8,0.95-1.1C15.27,2.14,14.55,2,14,2 c-2.17,0-3.35,1.5-3.35,1.5H6.5C4.05,3.5,2,5.47,2,8c0,2.33,2,9,2,9h4.5v-1.5H10V17h4.5l1.25-4.5L18,12V6.5H16.5z M11,7.5H7V6h4V7.5 z M13.25,9c-0.41,0-0.75-0.34-0.75-0.75c0-0.41,0.34-0.75,0.75-0.75S14,7.84,14,8.25C14,8.66,13.66,9,13.25,9z M15.82,2.38 C15.27,2.14,14.65,2,14,2c-2.17,0-3.35,1.5-3.35,1.5"/>
    </svg>
  </g>
  <!-- Icon 32: 20px -->
  <g transform="translate(376, 332)">
    <rect width="48" height="48" fill="#ffffff" stroke="#e9ecef" stroke-width="1" rx="4"/>
    <svg x="8" y="8" width="32" height="32" viewBox="0 0 20 20">
      <rect fill="#2563eb" height="20" width="20"/><path d="M17,14.88l-1.5-1.5V10H17V14.88z M10,4.5V3H5.12l1.5,1.5H10z M15.03,6.03L17,8V3h-5l1.97,1.97l-3.44,3.44l1.06,1.06 L15.03,6.03z M16.01,18.13L14.88,17H3V5.12L1.87,3.99l1.06-1.06l14.14,14.14L16.01,18.13z M13.38,15.5l-3.91-3.91L8.06,13L7,11.94 l1.41-1.41L4.5,6.62v8.88H13.38z"/>
    </svg>
  </g>
  <!-- Icon 33: 24px -->
  <g transform="translate(436, 332)">
    <rect width="48" height="48" fill="#ffffff" stroke="#e9ecef" stroke-width="1" rx="4"/>
    <svg x="8" y="8" width="32" height="32" viewBox="0 0 24 24">
      <g><rect fill="#2563eb" height="24" width="24"/></g><g><g><polygon points="17,18 7,18 7,6 14,6 14,1 5,1 5,23 19,23 19,16 17,16"/><polygon points="18,14 23,9 21.59,7.59 19,10.17 19,3 17,3 17,10.17 14.41,7.59 13,9"/></g></g>
    </svg>
  </g>
  <!-- Icon 34: 20px -->
  <g transform="translate(496, 332)">
    <rect width="48" height="48" fill="#ffffff" stroke="#e9ecef" stroke-width="1" rx="4"/>
    <svg x="8" y="8" width="32" height="32" viewBox="0 0 20 20">
      <g><rect fill="#2563eb" height="20" width="20"/></g><g><path d="M17,10.5V4h-3V2h-1.5v2h-5V2H6v2H3v14h7.5v-1.5h-6V9h11v1.5H17z M12,12h1l0,1.35c0.73-0.83,1.81-1.35,3-1.35 c2.21,0,4,1.79,4,4c0,2.21-1.79,4-4,4c-2.04,0-3.72-1.53-3.97-3.5l1.01,0C13.28,17.92,14.51,19,16,19c1.66,0,3-1.34,3-3 s-1.34-3-3-3c-0.89,0-1.69,0.39-2.24,1L15,14v1h-3V12z"/></g>
    </svg>
  </g>
  <!-- Icon 35: 24px -->
  <g transform="translate(556, 332)">
    <rect width="48" height="48" fill="#ffffff" stroke="#e9ecef" stroke-width="1" rx="4"/>
    <svg x="8" y="8" width="32" height="32" viewBox="0 0 24 24">
      <path d="M0 0h24v24H0V0z" fill="#2563eb"/><path d="M22 3h-3V1h-2v2H7V1H5v2H2v20h20V3zm-2 18H4V8h16v13z"/>
    </svg>
  </g>
  
  <!-- Footer -->
  <text x="400" y="580" text-anchor="middle" font-family="system-ui, -apple-system, sans-serif" font-size="12" fill="#6c757d">
    Showing 35 of 2813 icons
  </text>
  
</svg>