<svg width="448" height="368" xmlns="http://www.w3.org/2000/svg">
  <!-- Background -->
  <rect width="448" height="368" fill="#1a1a1a"/>
  
  <!-- Icon Grid -->
  <!-- Icon 1: zoom-out-24 -->
  <g transform="translate(20, 20)">
    <rect width="48" height="48" fill="#1a1a1a" stroke="#333333" stroke-width="1" rx="4"/>
    <svg x="8" y="8" width="32" height="32" viewBox="0 0 24 24" style="fill: #ffffff; stroke: none;">
      <path d="M14.5 11.25a.75.75 0 0 0 0-1.5h-8a.75.75 0 0 0 0 1.5h8Z"/><path d="M0 10.5C0 4.701 4.701 0 10.5 0S21 4.701 21 10.5c0 2.63-.967 5.033-2.564 6.875l4.344 4.345a.749.749 0 1 1-1.06 1.06l-4.345-4.344A10.459 10.459 0 0 1 10.5 21C4.701 21 0 16.299 0 10.5Zm10.5-9a9 9 0 0 0-9 9 9 9 0 0 0 9 9 9 9 0 0 0 9-9 9 9 0 0 0-9-9Z"/>
    </svg>
  </g>
  <!-- Icon 2: versions-24 -->
  <g transform="translate(80, 20)">
    <rect width="48" height="48" fill="#1a1a1a" stroke="#333333" stroke-width="1" rx="4"/>
    <svg x="8" y="8" width="32" height="32" viewBox="0 0 24 24" style="fill: #ffffff; stroke: none;">
      <path d="M10 22a2 2 0 0 1-2-2V4a2 2 0 0 1 2-2h11a2 2 0 0 1 2 2v16a2 2 0 0 1-2 2Zm-.5-2a.5.5 0 0 0 .5.5h11a.5.5 0 0 0 .5-.5V4a.5.5 0 0 0-.5-.5H10a.5.5 0 0 0-.5.5ZM6.17 4.165a.75.75 0 0 1-.335 1.006c-.228.114-.295.177-.315.201a.035.035 0 0 0-.008.016.423.423 0 0 0-.012.112v13c0 .07.008.102.012.112a.03.03 0 0 0 .008.016c.02.024.087.087.315.201a.749.749 0 1 1-.67 1.342c-.272-.136-.58-.315-.81-.598C4.1 19.259 4 18.893 4 18.5v-13c0-.393.1-.759.355-1.073.23-.283.538-.462.81-.598a.75.75 0 0 1 1.006.336ZM2.15 5.624a.75.75 0 0 1-.274 1.025c-.15.087-.257.17-.32.245C1.5 6.96 1.5 6.99 1.5 7v10c0 .01 0 .04.056.106.063.074.17.158.32.245a.75.75 0 0 1-.752 1.298C.73 18.421 0 17.907 0 17V7c0-.907.73-1.42 1.124-1.65a.75.75 0 0 1 1.025.274Z"/>
    </svg>
  </g>
  <!-- Icon 3: undo-16 -->
  <g transform="translate(140, 20)">
    <rect width="48" height="48" fill="#1a1a1a" stroke="#333333" stroke-width="1" rx="4"/>
    <svg x="8" y="8" width="32" height="32" viewBox="0 0 16 16" style="fill: #ffffff; stroke: none;">
      <path d="M1.22 6.28a.749.749 0 0 1 0-1.06l3.5-3.5a.749.749 0 1 1 1.06 1.06L3.561 5h7.188l.001.007L10.749 5c.058 0 .116.007.171.019A4.501 4.501 0 0 1 10.5 14H8.796a.75.75 0 0 1 0-1.5H10.5a3 3 0 1 0 0-6H3.561L5.78 8.72a.749.749 0 1 1-1.06 1.06l-3.5-3.5Z"/>
    </svg>
  </g>
  <!-- Icon 4: tools-24 -->
  <g transform="translate(200, 20)">
    <rect width="48" height="48" fill="#1a1a1a" stroke="#333333" stroke-width="1" rx="4"/>
    <svg x="8" y="8" width="32" height="32" viewBox="0 0 24 24" style="fill: #ffffff; stroke: none;">
      <path d="M7.875 2.292a.114.114 0 0 0-.032.018A7.239 7.239 0 0 0 4.75 8.25a7.248 7.248 0 0 0 3.654 6.297c.57.327.982.955.941 1.682v.002l-.317 6.058a.75.75 0 1 1-1.498-.078l.317-6.062v-.004c.006-.09-.047-.215-.188-.296A8.749 8.749 0 0 1 3.25 8.25a8.738 8.738 0 0 1 3.732-7.169 1.547 1.547 0 0 1 1.709-.064c.484.292.809.835.809 1.46v4.714a.25.25 0 0 0 .119.213l2.25 1.385c.08.05.182.05.262 0l2.25-1.385a.25.25 0 0 0 .119-.213V2.478c0-.626.325-1.169.81-1.461a1.547 1.547 0 0 1 1.708.064 8.741 8.741 0 0 1 3.732 7.17 8.747 8.747 0 0 1-4.41 7.598c-.14.081-.193.206-.188.296v.004l.318 6.062a.75.75 0 1 1-1.498.078l-.317-6.058v-.002c-.041-.727.37-1.355.94-1.682A7.247 7.247 0 0 0 19.25 8.25a7.239 7.239 0 0 0-3.093-5.94.114.114 0 0 0-.032-.018l-.01-.001c-.003 0-.014 0-.031.01-.036.022-.084.079-.084.177V7.19c0 .608-.315 1.172-.833 1.49l-2.25 1.385a1.75 1.75 0 0 1-1.834 0l-2.25-1.384A1.752 1.752 0 0 1 8 7.192V2.477c0-.098-.048-.155-.084-.176a.068.068 0 0 0-.031-.011l-.01.001Z"/>
    </svg>
  </g>
  <!-- Icon 5: table-16 -->
  <g transform="translate(260, 20)">
    <rect width="48" height="48" fill="#1a1a1a" stroke="#333333" stroke-width="1" rx="4"/>
    <svg x="8" y="8" width="32" height="32" viewBox="0 0 16 16" style="fill: #ffffff; stroke: none;">
      <path d="M0 1.75C0 .784.784 0 1.75 0h12.5C15.216 0 16 .784 16 1.75v12.5A1.75 1.75 0 0 1 14.25 16H1.75A1.75 1.75 0 0 1 0 14.25ZM6.5 6.5v8h7.75a.25.25 0 0 0 .25-.25V6.5Zm8-1.5V1.75a.25.25 0 0 0-.25-.25H6.5V5Zm-13 1.5v7.75c0 .138.112.25.25.25H5v-8ZM5 5V1.5H1.75a.25.25 0 0 0-.25.25V5Z"/>
    </svg>
  </g>
  <!-- Icon 6: stack-24 -->
  <g transform="translate(320, 20)">
    <rect width="48" height="48" fill="#1a1a1a" stroke="#333333" stroke-width="1" rx="4"/>
    <svg x="8" y="8" width="32" height="32" viewBox="0 0 24 24" style="fill: #ffffff; stroke: none;">
      <path d="M11.063 1.456a1.749 1.749 0 0 1 1.874 0l8.383 5.316a1.751 1.751 0 0 1 0 2.956l-8.383 5.316a1.749 1.749 0 0 1-1.874 0L2.68 9.728a1.751 1.751 0 0 1 0-2.956Zm1.071 1.267a.25.25 0 0 0-.268 0L3.483 8.039a.25.25 0 0 0 0 .422l8.383 5.316a.25.25 0 0 0 .268 0l8.383-5.316a.25.25 0 0 0 0-.422Z"/><path d="M1.867 12.324a.75.75 0 0 1 1.035-.232l8.964 5.685a.25.25 0 0 0 .268 0l8.964-5.685a.75.75 0 0 1 .804 1.267l-8.965 5.685a1.749 1.749 0 0 1-1.874 0l-8.965-5.685a.75.75 0 0 1-.231-1.035Z"/><path d="M1.867 16.324a.75.75 0 0 1 1.035-.232l8.964 5.685a.25.25 0 0 0 .268 0l8.964-5.685a.75.75 0 0 1 .804 1.267l-8.965 5.685a1.749 1.749 0 0 1-1.874 0l-8.965-5.685a.75.75 0 0 1-.231-1.035Z"/>
    </svg>
  </g>
  <!-- Icon 7: space-16 -->
  <g transform="translate(380, 20)">
    <rect width="48" height="48" fill="#1a1a1a" stroke="#333333" stroke-width="1" rx="4"/>
    <svg x="8" y="8" width="32" height="32" viewBox="0 0 16 16" style="fill: #ffffff; stroke: none;">
      <path d="M0 13.25V2.75C0 1.784.784 1 1.75 1H5c.551 0 1.07.26 1.4.7l.9 1.2a.25.25 0 0 0 .2.1h6.75c.966 0 1.75.784 1.75 1.75v3.638a.75.75 0 0 1-1.5 0V4.75a.25.25 0 0 0-.25-.25H7.5a1.75 1.75 0 0 1-1.4-.7l-.9-1.2a.25.25 0 0 0-.2-.1H1.75a.25.25 0 0 0-.25.25v10.5c0 .138.112.25.25.25h5.663l.076.004a.75.75 0 0 1 0 1.492L7.413 15H1.75A1.75 1.75 0 0 1 0 13.25Z"/><path d="M12.265 9.16a.248.248 0 0 1 .467 0l.237.649a3.726 3.726 0 0 0 2.219 2.218l.649.238a.249.249 0 0 1 0 .467l-.649.237a3.728 3.728 0 0 0-2.219 2.219l-.237.649a.249.249 0 0 1-.467 0l-.238-.649a3.726 3.726 0 0 0-2.218-2.219l-.649-.237a.248.248 0 0 1 0-.467l.649-.238a3.725 3.725 0 0 0 2.218-2.218l.238-.649Z"/>
    </svg>
  </g>
  <!-- Icon 8: sidebar-expand-24 -->
  <g transform="translate(20, 80)">
    <rect width="48" height="48" fill="#1a1a1a" stroke="#333333" stroke-width="1" rx="4"/>
    <svg x="8" y="8" width="32" height="32" viewBox="0 0 24 24" style="fill: #ffffff; stroke: none;">
      <path d="M11.28 9.53 8.81 12l2.47 2.47a.749.749 0 0 1-.326 1.275.749.749 0 0 1-.734-.215l-3-3a.75.75 0 0 1 0-1.06l3-3a.749.749 0 0 1 1.275.326.749.749 0 0 1-.215.734Z"/><path d="M3.75 2h16.5c.966 0 1.75.784 1.75 1.75v16.5A1.75 1.75 0 0 1 20.25 22H3.75A1.75 1.75 0 0 1 2 20.25V3.75C2 2.784 2.784 2 3.75 2ZM3.5 3.75v16.5c0 .138.112.25.25.25H15v-17H3.75a.25.25 0 0 0-.25.25Zm13 16.75h3.75a.25.25 0 0 0 .25-.25V3.75a.25.25 0 0 0-.25-.25H16.5Z"/>
    </svg>
  </g>
  <!-- Icon 9: server-16 -->
  <g transform="translate(80, 80)">
    <rect width="48" height="48" fill="#1a1a1a" stroke="#333333" stroke-width="1" rx="4"/>
    <svg x="8" y="8" width="32" height="32" viewBox="0 0 16 16" style="fill: #ffffff; stroke: none;">
      <path d="M1.75 1h12.5c.966 0 1.75.784 1.75 1.75v4c0 .372-.116.717-.314 1 .198.283.314.628.314 1v4a1.75 1.75 0 0 1-1.75 1.75H1.75A1.75 1.75 0 0 1 0 12.75v-4c0-.358.109-.707.314-1a1.739 1.739 0 0 1-.314-1v-4C0 1.784.784 1 1.75 1ZM1.5 2.75v4c0 .138.112.25.25.25h12.5a.25.25 0 0 0 .25-.25v-4a.25.25 0 0 0-.25-.25H1.75a.25.25 0 0 0-.25.25Zm.25 5.75a.25.25 0 0 0-.25.25v4c0 .138.112.25.25.25h12.5a.25.25 0 0 0 .25-.25v-4a.25.25 0 0 0-.25-.25ZM7 4.75A.75.75 0 0 1 7.75 4h4.5a.75.75 0 0 1 0 1.5h-4.5A.75.75 0 0 1 7 4.75ZM7.75 10h4.5a.75.75 0 0 1 0 1.5h-4.5a.75.75 0 0 1 0-1.5ZM3 4.75A.75.75 0 0 1 3.75 4h.5a.75.75 0 0 1 0 1.5h-.5A.75.75 0 0 1 3 4.75ZM3.75 10h.5a.75.75 0 0 1 0 1.5h-.5a.75.75 0 0 1 0-1.5Z"/>
    </svg>
  </g>
  <!-- Icon 10: repo-push-24 -->
  <g transform="translate(140, 80)">
    <rect width="48" height="48" fill="#1a1a1a" stroke="#333333" stroke-width="1" rx="4"/>
    <svg x="8" y="8" width="32" height="32" viewBox="0 0 24 24" style="fill: #ffffff; stroke: none;">
      <path d="M5.75 0A2.75 2.75 0 0 0 3 2.75v16.5A2.75 2.75 0 0 0 5.75 22h10a.75.75 0 0 0 0-1.5h-10c-.69 0-1.25-.56-1.25-1.25V18A1.5 1.5 0 0 1 6 16.5h6.25a.75.75 0 0 0 0-1.5H6c-.546 0-1.059.146-1.5.401V2.75c0-.69.56-1.25 1.25-1.25H19.5v7a.75.75 0 0 0 1.5 0V.75a.75.75 0 0 0-.75-.75H5.75Z"/><path d="m20 13.903 2.202 2.359a.75.75 0 0 0 1.096-1.024l-3.5-3.75a.75.75 0 0 0-1.096 0l-3.5 3.75a.75.75 0 1 0 1.096 1.024l2.202-2.36v9.348a.75.75 0 0 0 1.5 0v-9.347Z"/>
    </svg>
  </g>
  <!-- Icon 11: redo-16 -->
  <g transform="translate(200, 80)">
    <rect width="48" height="48" fill="#1a1a1a" stroke="#333333" stroke-width="1" rx="4"/>
    <svg x="8" y="8" width="32" height="32" viewBox="0 0 16 16" style="fill: #ffffff; stroke: none;">
      <path d="M14.78 6.28a.749.749 0 0 0 0-1.06l-3.5-3.5a.749.749 0 1 0-1.06 1.06L12.439 5H5.251l-.001.007L5.251 5a.8.8 0 0 0-.171.019A4.501 4.501 0 0 0 5.5 14h1.704a.75.75 0 0 0 0-1.5H5.5a3 3 0 1 1 0-6h6.939L10.22 8.72a.749.749 0 1 0 1.06 1.06l3.5-3.5Z"/>
    </svg>
  </g>
  <!-- Icon 12: plus-24 -->
  <g transform="translate(260, 80)">
    <rect width="48" height="48" fill="#1a1a1a" stroke="#333333" stroke-width="1" rx="4"/>
    <svg x="8" y="8" width="32" height="32" viewBox="0 0 24 24" style="fill: #ffffff; stroke: none;">
      <path d="M11.75 4.5a.75.75 0 0 1 .75.75V11h5.75a.75.75 0 0 1 0 1.5H12.5v5.75a.75.75 0 0 1-1.5 0V12.5H5.25a.75.75 0 0 1 0-1.5H11V5.25a.75.75 0 0 1 .75-.75Z"/>
    </svg>
  </g>
  <!-- Icon 13: people-16 -->
  <g transform="translate(320, 80)">
    <rect width="48" height="48" fill="#1a1a1a" stroke="#333333" stroke-width="1" rx="4"/>
    <svg x="8" y="8" width="32" height="32" viewBox="0 0 16 16" style="fill: #ffffff; stroke: none;">
      <path d="M2 5.5a3.5 3.5 0 1 1 5.898 2.549 5.508 5.508 0 0 1 3.034 4.084.75.75 0 1 1-1.482.235 4 4 0 0 0-7.9 0 .75.75 0 0 1-1.482-.236A5.507 5.507 0 0 1 3.102 8.05 3.493 3.493 0 0 1 2 5.5ZM11 4a3.001 3.001 0 0 1 2.22 5.018 5.01 5.01 0 0 1 2.56 3.012.749.749 0 0 1-.885.954.752.752 0 0 1-.549-.514 3.507 3.507 0 0 0-2.522-2.372.75.75 0 0 1-.574-.73v-.352a.75.75 0 0 1 .416-.672A1.5 1.5 0 0 0 11 5.5.75.75 0 0 1 11 4Zm-5.5-.5a2 2 0 1 0-.001 3.999A2 2 0 0 0 5.5 3.5Z"/>
    </svg>
  </g>
  <!-- Icon 14: package-24 -->
  <g transform="translate(380, 80)">
    <rect width="48" height="48" fill="#1a1a1a" stroke="#333333" stroke-width="1" rx="4"/>
    <svg x="8" y="8" width="32" height="32" viewBox="0 0 24 24" style="fill: #ffffff; stroke: none;">
      <path d="M12.876.64V.639l8.25 4.763c.541.313.875.89.875 1.515v9.525a1.75 1.75 0 0 1-.875 1.516l-8.25 4.762a1.748 1.748 0 0 1-1.75 0l-8.25-4.763a1.75 1.75 0 0 1-.875-1.515V6.917c0-.625.334-1.202.875-1.515L11.126.64a1.748 1.748 0 0 1 1.75 0Zm-1 1.298L4.251 6.34l7.75 4.474 7.75-4.474-7.625-4.402a.248.248 0 0 0-.25 0Zm.875 19.123 7.625-4.402a.25.25 0 0 0 .125-.216V7.639l-7.75 4.474ZM3.501 7.64v8.803c0 .09.048.172.125.216l7.625 4.402v-8.947Z"/>
    </svg>
  </g>
  <!-- Icon 15: move-to-start-24 -->
  <g transform="translate(20, 140)">
    <rect width="48" height="48" fill="#1a1a1a" stroke="#333333" stroke-width="1" rx="4"/>
    <svg x="8" y="8" width="32" height="32" viewBox="0 0 24 24" style="fill: #ffffff; stroke: none;">
      <path d="M12.78 18.78a.749.749 0 0 1-1.06 0l-6.25-6.25a.749.749 0 0 1 0-1.06l6.25-6.25a.749.749 0 1 1 1.06 1.06l-4.969 4.97H22.25a.75.75 0 0 1 0 1.5H7.811l4.969 4.97a.749.749 0 0 1 0 1.06ZM2.75 3.75a.75.75 0 0 1 .75.75v15a.75.75 0 0 1-1.5 0v-15a.75.75 0 0 1 .75-.75Z"/>
    </svg>
  </g>
  <!-- Icon 16: mention-16 -->
  <g transform="translate(80, 140)">
    <rect width="48" height="48" fill="#1a1a1a" stroke="#333333" stroke-width="1" rx="4"/>
    <svg x="8" y="8" width="32" height="32" viewBox="0 0 16 16" style="fill: #ffffff; stroke: none;">
      <path d="M8 .5a7.499 7.499 0 0 1 7.499 7.462l.002.038v1.164a2.612 2.612 0 0 1-4.783 1.454A3.763 3.763 0 0 1 8 11.776 3.776 3.776 0 1 1 11.776 8v1.164a1.112 1.112 0 0 0 2.225 0L14 8a6 6 0 1 0-3.311 5.365.75.75 0 0 1 .673 1.341A7.5 7.5 0 1 1 8 .5Zm0 5.225a2.275 2.275 0 1 0 0 4.552 2.275 2.275 0 0 0 0-4.552Z"/>
    </svg>
  </g>
  <!-- Icon 17: log-24 -->
  <g transform="translate(140, 140)">
    <rect width="48" height="48" fill="#1a1a1a" stroke="#333333" stroke-width="1" rx="4"/>
    <svg x="8" y="8" width="32" height="32" viewBox="0 0 24 24" style="fill: #ffffff; stroke: none;">
      <path d="M9.197 10a.75.75 0 0 0 0 1.5h6.5a.75.75 0 0 0 0-1.5h-6.5Zm-2.382 4a.75.75 0 0 0 0 1.5h6.5a.75.75 0 0 0 0-1.5h-6.5Zm-1.581 4a.75.75 0 0 0 0 1.5h6.5a.75.75 0 0 0 0-1.5h-6.5Z"/><path d="M4.125 0h15.75a4.11 4.11 0 0 1 2.92 1.205A4.11 4.11 0 0 1 24 4.125c0 1.384-.476 2.794-1.128 4.16-.652 1.365-1.515 2.757-2.352 4.104l-.008.013c-.849 1.368-1.669 2.691-2.28 3.97-.614 1.283-.982 2.45-.982 3.503a2.625 2.625 0 1 0 4.083-2.183.75.75 0 1 1 .834-1.247A4.126 4.126 0 0 1 19.875 24H4.5a4.125 4.125 0 0 1-4.125-4.125c0-2.234 1.258-4.656 2.59-6.902.348-.586.702-1.162 1.05-1.728.8-1.304 1.567-2.553 2.144-3.738H3.39c-.823 0-1.886-.193-2.567-1.035A3.647 3.647 0 0 1 0 4.125 4.125 4.125 0 0 1 4.125 0ZM15.75 19.875c0-1.38.476-2.786 1.128-4.15.649-1.358 1.509-2.743 2.343-4.086l.017-.028c.849-1.367 1.669-2.692 2.28-3.972.614-1.285.982-2.457.982-3.514A2.615 2.615 0 0 0 19.875 1.5a2.625 2.625 0 0 0-2.625 2.625c0 .865.421 1.509 1.167 2.009A.75.75 0 0 1 18 7.507H7.812c-.65 1.483-1.624 3.069-2.577 4.619-.334.544-.666 1.083-.98 1.612-1.355 2.287-2.38 4.371-2.38 6.137A2.625 2.625 0 0 0 4.5 22.5h12.193a4.108 4.108 0 0 1-.943-2.625ZM1.5 4.125c-.01.511.163 1.008.487 1.403.254.313.74.479 1.402.479h12.86a3.648 3.648 0 0 1-.499-1.882 4.11 4.11 0 0 1 .943-2.625H4.125A2.625 2.625 0 0 0 1.5 4.125Z"/>
    </svg>
  </g>
  <!-- Icon 18: key-asterisk-16 -->
  <g transform="translate(200, 140)">
    <rect width="48" height="48" fill="#1a1a1a" stroke="#333333" stroke-width="1" rx="4"/>
    <svg x="8" y="8" width="32" height="32" viewBox="0 0 16 16" style="fill: #ffffff; stroke: none;">
      <path d="M0 2.75A2.75 2.75 0 0 1 2.75 0h10.5A2.75 2.75 0 0 1 16 2.75v10.5A2.75 2.75 0 0 1 13.25 16H2.75A2.75 2.75 0 0 1 0 13.25ZM2.75 1.5c-.69 0-1.25.56-1.25 1.25v10.5c0 .69.56 1.25 1.25 1.25h10.5c.69 0 1.25-.56 1.25-1.25V2.75c0-.69-.56-1.25-1.25-1.25Z"/><path d="M8 4a.75.75 0 0 1 .75.75V6.7l1.69-.975a.75.75 0 0 1 .75 1.3L9.5 8l1.69.976a.75.75 0 0 1-.75 1.298L8.75 9.3v1.951a.75.75 0 0 1-1.5 0V9.299l-1.69.976a.75.75 0 0 1-.75-1.3L6.5 8l-1.69-.975a.75.75 0 0 1 .75-1.3l1.69.976V4.75A.75.75 0 0 1 8 4Z"/>
    </svg>
  </g>
  <!-- Icon 19: issue-closed-24 -->
  <g transform="translate(260, 140)">
    <rect width="48" height="48" fill="#1a1a1a" stroke="#333333" stroke-width="1" rx="4"/>
    <svg x="8" y="8" width="32" height="32" viewBox="0 0 24 24" style="fill: #ffffff; stroke: none;">
      <path d="M17.28 9.28a.75.75 0 0 0-1.06-1.06l-5.97 5.97-2.47-2.47a.75.75 0 0 0-1.06 1.06l3 3a.75.75 0 0 0 1.06 0l6.5-6.5Z"/><path d="M12 1c6.075 0 11 4.925 11 11s-4.925 11-11 11S1 18.075 1 12 5.925 1 12 1ZM2.5 12a9.5 9.5 0 0 0 9.5 9.5 9.5 9.5 0 0 0 9.5-9.5A9.5 9.5 0 0 0 12 2.5 9.5 9.5 0 0 0 2.5 12Z"/>
    </svg>
  </g>
  <!-- Icon 20: home-fill-16 -->
  <g transform="translate(320, 140)">
    <rect width="48" height="48" fill="#1a1a1a" stroke="#333333" stroke-width="1" rx="4"/>
    <svg x="8" y="8" width="32" height="32" viewBox="0 0 16 16" style="fill: #ffffff; stroke: none;">
      <path d="M6.906.384a1.75 1.75 0 0 1 2.187 0l5.25 4.2c.415.332.657.835.657 1.367v7.019a1.75 1.75 0 0 1-1.75 1.75h-2.5a.75.75 0 0 1-.75-.75V8.72H6v5.25a.75.75 0 0 1-.75.75h-2.5A1.75 1.75 0 0 1 1 12.97V5.95c0-.531.242-1.034.657-1.366l5.249-4.2Z"/>
    </svg>
  </g>
  <!-- Icon 21: globe-24 -->
  <g transform="translate(380, 140)">
    <rect width="48" height="48" fill="#1a1a1a" stroke="#333333" stroke-width="1" rx="4"/>
    <svg x="8" y="8" width="32" height="32" viewBox="0 0 24 24" style="fill: #ffffff; stroke: none;">
      <path d="M12 1c6.075 0 11 4.925 11 11s-4.925 11-11 11S1 18.075 1 12 5.925 1 12 1Zm3.241 10.5v-.001c-.1-2.708-.992-4.904-1.89-6.452a13.919 13.919 0 0 0-1.304-1.88L12 3.11l-.047.059c-.354.425-.828 1.06-1.304 1.88-.898 1.547-1.79 3.743-1.89 6.451Zm-12.728 0h4.745c.1-3.037 1.1-5.49 2.093-7.204.39-.672.78-1.233 1.119-1.673C6.11 3.329 2.746 7 2.513 11.5Zm18.974 0C21.254 7 17.89 3.329 13.53 2.623c.339.44.729 1.001 1.119 1.673.993 1.714 1.993 4.167 2.093 7.204ZM8.787 13c.182 2.478 1.02 4.5 1.862 5.953.382.661.818 1.29 1.304 1.88l.047.057.047-.059c.354-.425.828-1.06 1.304-1.88.842-1.451 1.679-3.471 1.862-5.951Zm-1.504 0H2.552a9.505 9.505 0 0 0 7.918 8.377 15.773 15.773 0 0 1-1.119-1.673C8.413 18.085 7.47 15.807 7.283 13Zm9.434 0c-.186 2.807-1.13 5.085-2.068 6.704-.39.672-.78 1.233-1.118 1.673A9.506 9.506 0 0 0 21.447 13Z"/>
    </svg>
  </g>
  <!-- Icon 22: gift-16 -->
  <g transform="translate(20, 200)">
    <rect width="48" height="48" fill="#1a1a1a" stroke="#333333" stroke-width="1" rx="4"/>
    <svg x="8" y="8" width="32" height="32" viewBox="0 0 16 16" style="fill: #ffffff; stroke: none;">
      <path d="M2 2.75A2.75 2.75 0 0 1 4.75 0c.983 0 1.873.42 2.57 1.232.268.318.497.668.68 1.042.183-.375.411-.725.68-1.044C9.376.42 10.266 0 11.25 0a2.75 2.75 0 0 1 2.45 4h.55c.966 0 1.75.784 1.75 1.75v2c0 .698-.409 1.301-1 1.582v4.918A1.75 1.75 0 0 1 13.25 16H2.75A1.75 1.75 0 0 1 1 14.25V9.332C.409 9.05 0 8.448 0 7.75v-2C0 4.784.784 4 1.75 4h.55c-.192-.375-.3-.8-.3-1.25ZM7.25 9.5H2.5v4.75c0 .138.112.25.25.25h4.5Zm1.5 0v5h4.5a.25.25 0 0 0 .25-.25V9.5Zm0-4V8h5.5a.25.25 0 0 0 .25-.25v-2a.25.25 0 0 0-.25-.25Zm-7 0a.25.25 0 0 0-.25.25v2c0 .138.112.25.25.25h5.5V5.5h-5.5Zm3-4a1.25 1.25 0 0 0 0 2.5h2.309c-.233-.818-.542-1.401-.878-1.793-.43-.502-.915-.707-1.431-.707ZM8.941 4h2.309a1.25 1.25 0 0 0 0-2.5c-.516 0-1 .205-1.43.707-.337.392-.646.975-.879 1.793Z"/>
    </svg>
  </g>
  <!-- Icon 23: file-symlink-file-24 -->
  <g transform="translate(80, 200)">
    <rect width="48" height="48" fill="#1a1a1a" stroke="#333333" stroke-width="1" rx="4"/>
    <svg x="8" y="8" width="32" height="32" viewBox="0 0 24 24" style="fill: #ffffff; stroke: none;">
      <path d="M3 3a2 2 0 0 1 2-2h9.982a2 2 0 0 1 1.414.586l4.018 4.018A2 2 0 0 1 21 7.018V21a2 2 0 0 1-2 2H4.75a.75.75 0 0 1 0-1.5H19a.5.5 0 0 0 .5-.5V8.5h-4a2 2 0 0 1-2-2v-4H5a.5.5 0 0 0-.5.5v6.25a.75.75 0 0 1-1.5 0Zm6.308 11.5-2.104-2.236a.751.751 0 0 1 .369-1.255.749.749 0 0 1 .723.227l3.294 3.5a.75.75 0 0 1 0 1.028l-3.294 3.5a.749.749 0 0 1-1.275-.293.751.751 0 0 1 .183-.735L9.308 16H4.09a2.59 2.59 0 0 0-2.59 2.59v3.16a.75.75 0 0 1-1.5 0v-3.16a4.09 4.09 0 0 1 4.09-4.09ZM15 2.5v4a.5.5 0 0 0 .5.5h4a.5.5 0 0 0-.146-.336l-4.018-4.018A.5.5 0 0 0 15 2.5Z"/>
    </svg>
  </g>
  <!-- Icon 24: file-diff-16 -->
  <g transform="translate(140, 200)">
    <rect width="48" height="48" fill="#1a1a1a" stroke="#333333" stroke-width="1" rx="4"/>
    <svg x="8" y="8" width="32" height="32" viewBox="0 0 16 16" style="fill: #ffffff; stroke: none;">
      <path d="M1 1.75C1 .784 1.784 0 2.75 0h7.586c.464 0 .909.184 1.237.513l2.914 2.914c.329.328.513.773.513 1.237v9.586A1.75 1.75 0 0 1 13.25 16H2.75A1.75 1.75 0 0 1 1 14.25Zm1.75-.25a.25.25 0 0 0-.25.25v12.5c0 .138.112.25.25.25h10.5a.25.25 0 0 0 .25-.25V4.664a.25.25 0 0 0-.073-.177l-2.914-2.914a.25.25 0 0 0-.177-.073ZM8 3.25a.75.75 0 0 1 .75.75v1.5h1.5a.75.75 0 0 1 0 1.5h-1.5v1.5a.75.75 0 0 1-1.5 0V7h-1.5a.75.75 0 0 1 0-1.5h1.5V4A.75.75 0 0 1 8 3.25Zm-3 8a.75.75 0 0 1 .75-.75h4.5a.75.75 0 0 1 0 1.5h-4.5a.75.75 0 0 1-.75-.75Z"/>
    </svg>
  </g>
  <!-- Icon 25: feed-public-16 -->
  <g transform="translate(200, 200)">
    <rect width="48" height="48" fill="#1a1a1a" stroke="#333333" stroke-width="1" rx="4"/>
    <svg x="8" y="8" width="32" height="32" viewBox="0 0 16 16" style="fill: #ffffff; stroke: none;">
      <path d="M0 8a8 8 0 1 1 16 0A8 8 0 0 1 0 8Zm4.5.25v3a1 1 0 0 0 1 1h5a1 1 0 0 0 1-1v-3a1 1 0 0 0-1-1H7v-1.5a1.5 1.5 0 0 1 2.443-1.167.75.75 0 0 0 .943-1.166A3 3 0 0 0 5.5 5.75v1.5a1 1 0 0 0-1 1Z"/>
    </svg>
  </g>
  <!-- Icon 26: download-24 -->
  <g transform="translate(260, 200)">
    <rect width="48" height="48" fill="#1a1a1a" stroke="#333333" stroke-width="1" rx="4"/>
    <svg x="8" y="8" width="32" height="32" viewBox="0 0 24 24" style="fill: #ffffff; stroke: none;">
      <path d="M4.75 17.25a.75.75 0 0 1 .75.75v2.25c0 .138.112.25.25.25h12.5a.25.25 0 0 0 .25-.25V18a.75.75 0 0 1 1.5 0v2.25A1.75 1.75 0 0 1 18.25 22H5.75A1.75 1.75 0 0 1 4 20.25V18a.75.75 0 0 1 .75-.75Z"/><path d="M5.22 9.97a.749.749 0 0 1 1.06 0l4.97 4.969V2.75a.75.75 0 0 1 1.5 0v12.189l4.97-4.969a.749.749 0 1 1 1.06 1.06l-6.25 6.25a.749.749 0 0 1-1.06 0l-6.25-6.25a.749.749 0 0 1 0-1.06Z"/>
    </svg>
  </g>
  <!-- Icon 27: diff-ignored-16 -->
  <g transform="translate(320, 200)">
    <rect width="48" height="48" fill="#1a1a1a" stroke="#333333" stroke-width="1" rx="4"/>
    <svg x="8" y="8" width="32" height="32" viewBox="0 0 16 16" style="fill: #ffffff; stroke: none;">
      <path d="M13.25 1c.966 0 1.75.784 1.75 1.75v10.5A1.75 1.75 0 0 1 13.25 15H2.75A1.75 1.75 0 0 1 1 13.25V2.75C1 1.784 1.784 1 2.75 1ZM2.75 2.5a.25.25 0 0 0-.25.25v10.5c0 .138.112.25.25.25h10.5a.25.25 0 0 0 .25-.25V2.75a.25.25 0 0 0-.25-.25Zm8.53 3.28-5.5 5.5a.749.749 0 0 1-1.275-.326.749.749 0 0 1 .215-.734l5.5-5.5a.751.751 0 0 1 1.042.018.751.751 0 0 1 .018 1.042Z"/>
    </svg>
  </g>
  <!-- Icon 28: dependabot-24 -->
  <g transform="translate(380, 200)">
    <rect width="48" height="48" fill="#1a1a1a" stroke="#333333" stroke-width="1" rx="4"/>
    <svg x="8" y="8" width="32" height="32" viewBox="0 0 24 24" style="fill: #ffffff; stroke: none;">
      <path d="M8.75 11a.75.75 0 0 1 .75.75v3.5a.75.75 0 0 1-1.5 0v-3.5a.75.75 0 0 1 .75-.75Zm7.25.75a.75.75 0 0 0-1.5 0v3.5a.75.75 0 0 0 1.5 0v-3.5Z"/><path d="M9.813 1h2.437a.75.75 0 0 1 .75.75V5h6.75A2.25 2.25 0 0 1 22 7.25v5.25h1.25a.75.75 0 0 1 0 1.5H22v5.75A2.25 2.25 0 0 1 19.75 22H4.25A2.25 2.25 0 0 1 2 19.75V14H.75a.75.75 0 0 1 0-1.5H2V7.25A2.25 2.25 0 0 1 4.25 5h7.25V2.5H9.813A.75.75 0 0 1 9.812 1ZM3.5 7.25v12.5c0 .414.336.75.75.75h15.5a.75.75 0 0 0 .75-.75V7.25a.75.75 0 0 0-.75-.75H4.25a.75.75 0 0 0-.75.75Z"/>
    </svg>
  </g>
  <!-- Icon 29: copilot-16 -->
  <g transform="translate(20, 260)">
    <rect width="48" height="48" fill="#1a1a1a" stroke="#333333" stroke-width="1" rx="4"/>
    <svg x="8" y="8" width="32" height="32" viewBox="0 0 16 16" style="fill: #ffffff; stroke: none;">
      <path d="M7.998 15.035c-4.562 0-7.873-2.914-7.998-3.749V9.338c.085-.628.677-1.686 1.588-2.065.013-.07.024-.143.036-.218.029-.183.06-.384.126-.612-.201-.508-.254-1.084-.254-1.656 0-.87.128-1.769.693-2.484.579-.733 1.494-1.124 2.724-1.261 1.206-.134 2.262.034 2.944.765.05.053.096.108.139.165.044-.057.094-.112.143-.165.682-.731 1.738-.899 2.944-.765 1.23.137 2.145.528 2.724 1.261.566.715.693 1.614.693 2.484 0 .572-.053 1.148-.254 1.656.066.228.098.429.126.612.012.076.024.148.037.218.924.385 1.522 1.471 1.591 2.095v1.872c0 .766-3.351 3.795-8.002 3.795Zm0-1.485c2.28 0 4.584-1.11 5.002-1.433V7.862l-.023-.116c-.49.21-1.075.291-1.727.291-1.146 0-2.059-.327-2.71-.991A3.222 3.222 0 0 1 8 6.303a3.24 3.24 0 0 1-.544.743c-.65.664-1.563.991-2.71.991-.652 0-1.236-.081-1.727-.291l-.023.116v4.255c.419.323 2.722 1.433 5.002 1.433ZM6.762 2.83c-.193-.206-.637-.413-1.682-.297-1.019.113-1.479.404-1.713.7-.247.312-.369.789-.369 1.554 0 .793.129 1.171.308 1.371.162.181.519.379 1.442.379.853 0 1.339-.235 1.638-.54.315-.322.527-.827.617-1.553.117-.935-.037-1.395-.241-1.614Zm4.155-.297c-1.044-.116-1.488.091-1.681.297-.204.219-.359.679-.242 1.614.091.726.303 1.231.618 1.553.299.305.784.54 1.638.54.922 0 1.28-.198 1.442-.379.179-.2.308-.578.308-1.371 0-.765-.123-1.242-.37-1.554-.233-.296-.693-.587-1.713-.7Z"/><path d="M6.25 9.037a.75.75 0 0 1 .75.75v1.501a.75.75 0 0 1-1.5 0V9.787a.75.75 0 0 1 .75-.75Zm4.25.75v1.501a.75.75 0 0 1-1.5 0V9.787a.75.75 0 0 1 1.5 0Z"/>
    </svg>
  </g>
  <!-- Icon 30: code-review-24 -->
  <g transform="translate(80, 260)">
    <rect width="48" height="48" fill="#1a1a1a" stroke="#333333" stroke-width="1" rx="4"/>
    <svg x="8" y="8" width="32" height="32" viewBox="0 0 24 24" style="fill: #ffffff; stroke: none;">
      <path d="M10.3 6.74a.75.75 0 0 1-.04 1.06l-2.908 2.7 2.908 2.7a.75.75 0 1 1-1.02 1.1l-3.5-3.25a.75.75 0 0 1 0-1.1l3.5-3.25a.75.75 0 0 1 1.06.04Zm3.44 1.06a.75.75 0 1 1 1.02-1.1l3.5 3.25a.75.75 0 0 1 0 1.1l-3.5 3.25a.75.75 0 1 1-1.02-1.1l2.908-2.7-2.908-2.7Z"/><path d="M1.5 4.25c0-.966.784-1.75 1.75-1.75h17.5c.966 0 1.75.784 1.75 1.75v12.5a1.75 1.75 0 0 1-1.75 1.75h-9.69l-3.573 3.573A1.458 1.458 0 0 1 5 21.043V18.5H3.25a1.75 1.75 0 0 1-1.75-1.75ZM3.25 4a.25.25 0 0 0-.25.25v12.5c0 .138.112.25.25.25h2.5a.75.75 0 0 1 .75.75v3.19l3.72-3.72a.749.749 0 0 1 .53-.22h10a.25.25 0 0 0 .25-.25V4.25a.25.25 0 0 0-.25-.25Z"/>
    </svg>
  </g>
  <!-- Icon 31: chevron-up-16 -->
  <g transform="translate(140, 260)">
    <rect width="48" height="48" fill="#1a1a1a" stroke="#333333" stroke-width="1" rx="4"/>
    <svg x="8" y="8" width="32" height="32" viewBox="0 0 16 16" style="fill: #ffffff; stroke: none;">
      <path d="M3.22 10.53a.749.749 0 0 1 0-1.06l4.25-4.25a.749.749 0 0 1 1.06 0l4.25 4.25a.749.749 0 1 1-1.06 1.06L8 6.811 4.28 10.53a.749.749 0 0 1-1.06 0Z"/>
    </svg>
  </g>
  <!-- Icon 32: check-circle-fill-12 -->
  <g transform="translate(200, 260)">
    <rect width="48" height="48" fill="#1a1a1a" stroke="#333333" stroke-width="1" rx="4"/>
    <svg x="8" y="8" width="32" height="32" viewBox="0 0 12 12" style="fill: #ffffff; stroke: none;">
      <path d="M6 0a6 6 0 1 1 0 12A6 6 0 0 1 6 0Zm-.705 8.737L9.63 4.403 8.392 3.166 5.295 6.263l-1.7-1.702L2.356 5.8l2.938 2.938Z"/>
    </svg>
  </g>
  <!-- Icon 33: bookmark-slash-24 -->
  <g transform="translate(260, 260)">
    <rect width="48" height="48" fill="#1a1a1a" stroke="#333333" stroke-width="1" rx="4"/>
    <svg x="8" y="8" width="32" height="32" viewBox="0 0 24 24" style="fill: #ffffff; stroke: none;">
      <path d="M1.565 2.018v-.001l21.75 15.75a.75.75 0 1 1-.88 1.215L19 16.495v4.764a.748.748 0 0 1-1.219.584L12 17.21l-5.781 4.634A.75.75 0 0 1 5 21.259V6.357L.685 3.232a.75.75 0 0 1 .88-1.214ZM17.5 15.408l-11-7.965v12.254l5.031-4.032a.749.749 0 0 1 .938 0l5.031 4.032ZM7.25 2a.75.75 0 0 0 0 1.5h10a.25.25 0 0 1 .25.25v6.5a.75.75 0 0 0 1.5 0v-6.5A1.75 1.75 0 0 0 17.25 2h-10Z"/>
    </svg>
  </g>
  <!-- Icon 34: beaker-16 -->
  <g transform="translate(320, 260)">
    <rect width="48" height="48" fill="#1a1a1a" stroke="#333333" stroke-width="1" rx="4"/>
    <svg x="8" y="8" width="32" height="32" viewBox="0 0 16 16" style="fill: #ffffff; stroke: none;">
      <path d="M5 5.782V2.5h-.25a.75.75 0 0 1 0-1.5h6.5a.75.75 0 0 1 0 1.5H11v3.282l3.666 5.76C15.619 13.04 14.543 15 12.767 15H3.233c-1.776 0-2.852-1.96-1.899-3.458Zm-2.4 6.565a.75.75 0 0 0 .633 1.153h9.534a.75.75 0 0 0 .633-1.153L12.225 10.5h-8.45ZM9.5 2.5h-3V6c0 .143-.04.283-.117.403L4.73 9h6.54L9.617 6.403A.746.746 0 0 1 9.5 6Z"/>
    </svg>
  </g>
  <!-- Icon 35: arrow-both-24 -->
  <g transform="translate(380, 260)">
    <rect width="48" height="48" fill="#1a1a1a" stroke="#333333" stroke-width="1" rx="4"/>
    <svg x="8" y="8" width="32" height="32" viewBox="0 0 24 24" style="fill: #ffffff; stroke: none;">
      <path d="M7.78 5.97a.75.75 0 0 0-1.06 0l-5.25 5.25a.75.75 0 0 0 0 1.06l5.25 5.25a.75.75 0 0 0 1.06-1.06L3.81 12.5h16.38l-3.97 3.97a.75.75 0 1 0 1.06 1.06l5.25-5.25a.75.75 0 0 0 0-1.06l-5.25-5.25a.75.75 0 1 0-1.06 1.06L20.19 11H3.81l3.97-3.97a.75.75 0 0 0 0-1.06Z"/>
    </svg>
  </g>

  <!-- Title Background -->
  <rect x="0" y="323" width="448" height="60" fill="#1a1a1a"/>
  
  <!-- Title -->
  <text x="20" y="348" text-anchor="start" font-family="system-ui, -apple-system, sans-serif" font-size="18" font-weight="bold" fill="#ffffff">Octicons - default</text>

</svg>