<svg width="800" height="600" xmlns="http://www.w3.org/2000/svg">
  <!-- Background -->
  <rect width="800" height="600" fill="#ffffff"/>
  
  <!-- Header Background -->
  <rect width="800" height="80" fill="#f8f9fa"/>
  
  <!-- Title -->
  <text x="400" y="30" text-anchor="middle" font-family="system-ui, -apple-system, sans-serif" font-size="20" font-weight="bold" fill="#212529">Phosphor Icons - duotone</text>
  
  <!-- Subtitle -->
  <text x="400" y="55" text-anchor="middle" font-family="system-ui, -apple-system, sans-serif" font-size="14" fill="#6c757d">1,512 icons</text>
  
  <!-- Icon Grid -->
  <!-- Icon 1: youtube-logo-duotone -->
  <g transform="translate(196, 92)">
    <rect width="48" height="48" fill="#ffffff" stroke="#e9ecef" stroke-width="1" rx="4"/>
    <svg x="8" y="8" width="32" height="32" viewBox="0 0 256 256">
      <path d="M226.59,71.53a16,16,0,0,0-9.63-11C183.48,47.65,128,48,128,48s-55.48-.35-89,12.58a16,16,0,0,0-9.63,11C27.07,80.54,24,98.09,24,128s3.07,47.46,5.41,56.47A16,16,0,0,0,39,195.42C72.52,208.35,128,208,128,208s55.48.35,89-12.58a16,16,0,0,0,9.63-10.95c2.34-9,5.41-26.56,5.41-56.47S228.93,80.54,226.59,71.53ZM112,160V96l48,32Z" opacity="0.2"/><path d="M164.44,121.34l-48-32A8,8,0,0,0,104,96v64a8,8,0,0,0,12.44,6.66l48-32a8,8,0,0,0,0-13.32ZM120,145.05V111l25.58,17ZM234.33,69.52a24,24,0,0,0-14.49-16.4C185.56,39.88,131,40,128,40s-57.56-.12-91.84,13.12a24,24,0,0,0-14.49,16.4C19.08,79.5,16,97.74,16,128s3.08,48.5,5.67,58.48a24,24,0,0,0,14.49,16.41C69,215.56,120.4,216,127.34,216h1.32c6.94,0,58.37-.44,91.18-13.11a24,24,0,0,0,14.49-16.41c2.59-10,5.67-28.22,5.67-58.48S236.92,79.5,234.33,69.52Zm-15.49,113a8,8,0,0,1-4.77,5.49c-31.65,12.22-85.48,12-86.12,12s-54.37.18-86-12a8,8,0,0,1-4.77-5.49C34.8,173.39,32,156.57,32,128s2.8-45.39,5.16-54.47A8,8,0,0,1,41.93,68C73.58,55.82,127.4,56,128.05,56s54.37-.18,86,12a8,8,0,0,1,4.77,5.49C221.2,82.61,224,99.43,224,128S221.2,173.39,218.84,182.47Z"/>
    </svg>
  </g>
  <!-- Icon 2: visor-duotone -->
  <g transform="translate(256, 92)">
    <rect width="48" height="48" fill="#ffffff" stroke="#e9ecef" stroke-width="1" rx="4"/>
    <svg x="8" y="8" width="32" height="32" viewBox="0 0 256 256">
      <path d="M248,127.15A64,64,0,0,1,184,192c-15.48,0-29.68-9.35-40.75-18.5a23.91,23.91,0,0,0-30.45-.05c-11.81,9.79-27.19,19.26-43.89,18.48A64,64,0,0,1,72,64H183.05C218.22,64,247.54,92,248,127.15Z" opacity="0.2"/><path d="M183.05,56H72A72,72,0,0,0,.08,131.4c1.69,36.69,31.76,66.79,68.45,68.52,15.85.74,32-5.9,49.38-20.3a15.88,15.88,0,0,1,20.24,0C148.72,188.39,165,200,184,200a72,72,0,0,0,72-72.95C255.49,87.87,222.76,56,183.05,56Zm40.81,111.34A55.63,55.63,0,0,1,184,184c-13.88,0-27-9.51-35.65-16.67a31.91,31.91,0,0,0-40.65,0C93.52,179,81,184.49,69.28,183.94a56.36,56.36,0,0,1-53.22-53.28A56,56,0,0,1,72,72H183.05c31,0,56.55,24.79,56.95,55.25A55.66,55.66,0,0,1,223.86,167.34ZM184,96a8,8,0,0,1-8,8H80a8,8,0,0,1,0-16h96A8,8,0,0,1,184,96Z"/>
    </svg>
  </g>
  <!-- Icon 3: twitch-logo-duotone -->
  <g transform="translate(316, 92)">
    <rect width="48" height="48" fill="#ffffff" stroke="#e9ecef" stroke-width="1" rx="4"/>
    <svg x="8" y="8" width="32" height="32" viewBox="0 0 256 256">
      <path d="M216,48V156.25a8,8,0,0,1-2.88,6.15l-42.89,35.75A8.05,8.05,0,0,1,165.1,200H120L72,240V200H48a8,8,0,0,1-8-8V48a8,8,0,0,1,8-8H208A8,8,0,0,1,216,48Z" opacity="0.2"/><path d="M208,32H48A16,16,0,0,0,32,48V192a16,16,0,0,0,16,16H64v32a8,8,0,0,0,13.12,6.15L122.9,208h42.2a16,16,0,0,0,10.25-3.71l42.89-35.75A15.93,15.93,0,0,0,224,156.25V48A16,16,0,0,0,208,32Zm0,124.25L165.1,192H120a8,8,0,0,0-5.12,1.85L80,222.92V200a8,8,0,0,0-8-8H48V48H208ZM160,136V88a8,8,0,0,1,16,0v48a8,8,0,0,1-16,0Zm-48,0V88a8,8,0,0,1,16,0v48a8,8,0,0,1-16,0Z"/>
    </svg>
  </g>
  <!-- Icon 4: tire-duotone -->
  <g transform="translate(376, 92)">
    <rect width="48" height="48" fill="#ffffff" stroke="#e9ecef" stroke-width="1" rx="4"/>
    <svg x="8" y="8" width="32" height="32" viewBox="0 0 256 256">
      <path d="M164,224H92c-28.72,0-52-43-52-96S63.28,32,92,32h72c-28.72,0-52,43-52,96S135.28,224,164,224Zm4-136c-8.84,0-16,17.91-16,40s7.16,40,16,40,16-17.91,16-40S176.84,88,168,88Z" opacity="0.2"/><path d="M149.26,159.26C155.09,173.82,163.5,176,168,176s12.91-2.18,18.74-16.74c3.39-8.48,5.26-19.58,5.26-31.26s-1.87-22.78-5.26-31.26C180.91,82.18,172.5,80,168,80s-12.91,2.18-18.74,16.74C145.87,105.22,144,116.32,144,128S145.87,150.78,149.26,159.26ZM168,96.2c2.62,2.06,8,13,8,31.8s-5.38,29.74-8,31.8c-2.62-2.06-8-13-8-31.8S165.38,98.26,168,96.2ZM232,216H196.41C213.12,197.73,224,165.47,224,128c0-58.32-26.35-104-60-104H92C58.35,24,32,69.68,32,128S58.35,232,92,232H232a8,8,0,0,0,0-16ZM193.74,63.93C202.93,80.91,208,103.67,208,128s-5.07,47.09-14.26,64.07C185.38,207.5,174.82,216,164,216s-21.38-8.5-29.74-23.93C125.07,175.09,120,152.33,120,128s5.07-47.09,14.26-64.07C142.62,48.5,153.18,40,164,40S185.38,48.5,193.74,63.93ZM48,128c0-2.5.07-5,.17-7.44L80,97.83l24.43,17.45c-.28,4.16-.43,8.41-.43,12.72a179.89,179.89,0,0,0,3.07,33.5l-22.42-16a8,8,0,0,0-9.3,0l-23.74,17A161,161,0,0,1,48,128ZM62.26,63.93C70.62,48.5,81.18,40,92,40h39.59c-11.9,13-20.84,33.12-25,57.16L84.65,81.49a8,8,0,0,0-9.3,0L50.49,99.25C52.85,86,56.83,74,62.26,63.93Zm0,128.14a100.08,100.08,0,0,1-5.94-13.32L80,161.83l33.94,24.24c4.6,12,10.6,22.22,17.65,29.93H92C81.18,216,70.62,207.5,62.26,192.07Z"/>
    </svg>
  </g>
  <!-- Icon 5: terminal-duotone -->
  <g transform="translate(436, 92)">
    <rect width="48" height="48" fill="#ffffff" stroke="#e9ecef" stroke-width="1" rx="4"/>
    <svg x="8" y="8" width="32" height="32" viewBox="0 0 256 256">
      <path d="M216,80V192H40V64H200A16,16,0,0,1,216,80Z" opacity="0.2"/><path d="M117.31,134l-72,64a8,8,0,1,1-10.63-12L100,128,34.69,70A8,8,0,1,1,45.32,58l72,64a8,8,0,0,1,0,12ZM216,184H120a8,8,0,0,0,0,16h96a8,8,0,0,0,0-16Z"/>
    </svg>
  </g>
  <!-- Icon 6: stool-duotone -->
  <g transform="translate(496, 92)">
    <rect width="48" height="48" fill="#ffffff" stroke="#e9ecef" stroke-width="1" rx="4"/>
    <svg x="8" y="8" width="32" height="32" viewBox="0 0 256 256">
      <path d="M192,40V64a8,8,0,0,1-8,8H72a8,8,0,0,1-8-8V40a8,8,0,0,1,8-8H184A8,8,0,0,1,192,40Z" opacity="0.2"/><path d="M200,64V40a16,16,0,0,0-16-16H72A16,16,0,0,0,56,40V64A16,16,0,0,0,72,80h6.64L56.1,222.75a8,8,0,0,0,6.65,9.15A7.82,7.82,0,0,0,64,232a8,8,0,0,0,7.89-6.75L79.68,176h96.64l7.78,49.25A8,8,0,0,0,192,232a7.82,7.82,0,0,0,1.26-.1,8,8,0,0,0,6.65-9.15L177.36,80H184A16,16,0,0,0,200,64ZM72,40H184V64H72ZM173.79,160H82.21L94.84,80h66.32Z"/>
    </svg>
  </g>
  <!-- Icon 7: speaker-none-duotone -->
  <g transform="translate(556, 92)">
    <rect width="48" height="48" fill="#ffffff" stroke="#e9ecef" stroke-width="1" rx="4"/>
    <svg x="8" y="8" width="32" height="32" viewBox="0 0 256 256">
      <path d="M80,88v80H32a8,8,0,0,1-8-8V96a8,8,0,0,1,8-8Z" opacity="0.2"/><path d="M155.51,24.81a8,8,0,0,0-8.42.88L77.25,80H32A16,16,0,0,0,16,96v64a16,16,0,0,0,16,16H77.25l69.84,54.31A8,8,0,0,0,160,224V32A8,8,0,0,0,155.51,24.81ZM32,96H72v64H32ZM144,207.64,88,164.07V91.94l56-43.58Z"/>
    </svg>
  </g>
  <!-- Icon 8: sign-in-duotone -->
  <g transform="translate(196, 152)">
    <rect width="48" height="48" fill="#ffffff" stroke="#e9ecef" stroke-width="1" rx="4"/>
    <svg x="8" y="8" width="32" height="32" viewBox="0 0 256 256">
      <path d="M200,40V216H40a16,16,0,0,1-16-16V56A16,16,0,0,1,40,40Z" opacity="0.2"/><path d="M141.66,133.66l-40,40a8,8,0,0,1-11.32-11.32L116.69,136H24a8,8,0,0,1,0-16h92.69L90.34,93.66a8,8,0,0,1,11.32-11.32l40,40A8,8,0,0,1,141.66,133.66ZM200,32H136a8,8,0,0,0,0,16h56V208H136a8,8,0,0,0,0,16h64a8,8,0,0,0,8-8V40A8,8,0,0,0,200,32Z"/>
    </svg>
  </g>
  <!-- Icon 9: seal-check-duotone -->
  <g transform="translate(256, 152)">
    <rect width="48" height="48" fill="#ffffff" stroke="#e9ecef" stroke-width="1" rx="4"/>
    <svg x="8" y="8" width="32" height="32" viewBox="0 0 256 256">
      <path d="M232,128c0,12.51-17.82,21.95-22.68,33.69-4.68,11.32,1.42,30.65-7.78,39.85s-28.53,3.1-39.85,7.78C150,214.18,140.5,232,128,232s-22-17.82-33.69-22.68c-11.32-4.68-30.65,1.42-39.85-7.78s-3.1-28.53-7.78-39.85C41.82,150,24,140.5,24,128s17.82-22,22.68-33.69C51.36,83,45.26,63.66,54.46,54.46S83,51.36,94.31,46.68C106.05,41.82,115.5,24,128,24S150,41.82,161.69,46.68c11.32,4.68,30.65-1.42,39.85,7.78s3.1,28.53,7.78,39.85C214.18,106.05,232,115.5,232,128Z" opacity="0.2"/><path d="M225.86,102.82c-3.77-3.94-7.67-8-9.14-11.57-1.36-3.27-1.44-8.69-1.52-13.94-.15-9.76-.31-20.82-8-28.51s-18.75-7.85-28.51-8c-5.25-.08-10.67-.16-13.94-1.52-3.56-1.47-7.63-5.37-11.57-9.14C146.28,23.51,138.44,16,128,16s-18.27,7.51-25.18,14.14c-3.94,3.77-8,7.67-11.57,9.14C88,40.64,82.56,40.72,77.31,40.8c-9.76.15-20.82.31-28.51,8S41,67.55,40.8,77.31c-.08,5.25-.16,10.67-1.52,13.94-1.47,3.56-5.37,7.63-9.14,11.57C23.51,109.72,16,117.56,16,128s7.51,18.27,14.14,25.18c3.77,3.94,7.67,8,9.14,11.57,1.36,3.27,1.44,8.69,1.52,13.94.15,9.76.31,20.82,8,28.51s18.75,7.85,28.51,8c5.25.08,10.67.16,13.94,1.52,3.56,1.47,7.63,5.37,11.57,9.14C109.72,232.49,117.56,240,128,240s18.27-7.51,25.18-14.14c3.94-3.77,8-7.67,11.57-9.14,3.27-1.36,8.69-1.44,13.94-1.52,9.76-.15,20.82-.31,28.51-8s7.85-18.75,8-28.51c.08-5.25.16-10.67,1.52-13.94,1.47-3.56,5.37-7.63,9.14-11.57C232.49,146.28,240,138.44,240,128S232.49,109.73,225.86,102.82Zm-11.55,39.29c-4.79,5-9.75,10.17-12.38,16.52-2.52,6.1-2.63,13.07-2.73,19.82-.1,7-.21,14.33-3.32,17.43s-10.39,3.22-17.43,3.32c-6.75.1-13.72.21-19.82,2.73-6.35,2.63-11.52,7.59-16.52,12.38S132,224,128,224s-9.15-4.92-14.11-9.69-10.17-9.75-16.52-12.38c-6.1-2.52-13.07-2.63-19.82-2.73-7-.1-14.33-.21-17.43-3.32s-3.22-10.39-3.32-17.43c-.1-6.75-.21-13.72-2.73-19.82-2.63-6.35-7.59-11.52-12.38-16.52S32,132,32,128s4.92-9.15,9.69-14.11,9.75-10.17,12.38-16.52c2.52-6.1,2.63-13.07,2.73-19.82.1-7,.21-14.33,3.32-17.43S70.51,56.9,77.55,56.8c6.75-.1,13.72-.21,19.82-2.73,6.35-2.63,11.52-7.59,16.52-12.38S124,32,128,32s9.15,4.92,14.11,9.69,10.17,9.75,16.52,12.38c6.1,2.52,13.07,2.63,19.82,2.73,7,.1,14.33.21,17.43,3.32s3.22,10.39,3.32,17.43c.1,6.75.21,13.72,2.73,19.82,2.63,6.35,7.59,11.52,12.38,16.52S224,124,224,128,219.08,137.15,214.31,142.11ZM173.66,98.34a8,8,0,0,1,0,11.32l-56,56a8,8,0,0,1-11.32,0l-24-24a8,8,0,0,1,11.32-11.32L112,148.69l50.34-50.35A8,8,0,0,1,173.66,98.34Z"/>
    </svg>
  </g>
  <!-- Icon 10: radical-duotone -->
  <g transform="translate(316, 152)">
    <rect width="48" height="48" fill="#ffffff" stroke="#e9ecef" stroke-width="1" rx="4"/>
    <svg x="8" y="8" width="32" height="32" viewBox="0 0 256 256">
      <path d="M240,80V192a16,16,0,0,1-16,16H48a16,16,0,0,1-16-16V80Z" opacity="0.2"/><path d="M248,80v24a8,8,0,0,1-16,0V88H133.55L87.49,210.81a8,8,0,0,1-15,0l-48-128a8,8,0,1,1,15-5.62L80,185.22l40.51-108A8,8,0,0,1,128,72H240A8,8,0,0,1,248,80Z"/>
    </svg>
  </g>
  <!-- Icon 11: placeholder-duotone -->
  <g transform="translate(376, 152)">
    <rect width="48" height="48" fill="#ffffff" stroke="#e9ecef" stroke-width="1" rx="4"/>
    <svg x="8" y="8" width="32" height="32" viewBox="0 0 256 256">
      <path d="M216,48V208a8,8,0,0,1-8,8H48a8,8,0,0,1-8-8V48a8,8,0,0,1,8-8H208A8,8,0,0,1,216,48Z" opacity="0.2"/><path d="M224,48a16,16,0,0,0-16-16H48a15.91,15.91,0,0,0-10.66,4.1,9.08,9.08,0,0,0-1.24,1.24A15.91,15.91,0,0,0,32,48V208a16,16,0,0,0,16,16H208a15.91,15.91,0,0,0,10.66-4.1,7.35,7.35,0,0,0,.65-.59,6,6,0,0,0,.58-.65A15.87,15.87,0,0,0,224,208ZM208,196.7,59.31,48H208ZM48,59.31,196.69,208H48Z"/>
    </svg>
  </g>
  <!-- Icon 12: pentagram-duotone -->
  <g transform="translate(436, 152)">
    <rect width="48" height="48" fill="#ffffff" stroke="#e9ecef" stroke-width="1" rx="4"/>
    <svg x="8" y="8" width="32" height="32" viewBox="0 0 256 256">
      <path d="M228.69,102.47l-54.21,39,20.77,64a8,8,0,0,1-12.31,8.95L128,174.91,73.06,214.44a8,8,0,0,1-12.31-8.95l20.77-64-54.21-39A8,8,0,0,1,32,88H98.87l21.52-66.32a7.94,7.94,0,0,1,15.22,0L157.13,88H224A8,8,0,0,1,228.69,102.47Z" opacity="0.2"/><path d="M239.2,91.06A15.76,15.76,0,0,0,224,80h-61l-19.7-60.74a15.94,15.94,0,0,0-30.46-.05L93.06,80H32a16,16,0,0,0-9.38,29l49.47,35.59L53.14,203A15.77,15.77,0,0,0,59,220.91a15.77,15.77,0,0,0,18.78,0L128,184.77l50.24,36.14A16,16,0,0,0,202.86,203l-19-58.46,49.5-35.62A15.76,15.76,0,0,0,239.2,91.06ZM128,24.15,146.12,80H109.88ZM32,96H87.87L77.3,128.58ZM68.36,208h0l17.39-53.59,28.55,20.54Zm22.57-69.57L104.69,96h46.62l13.76,42.39L128,165.06ZM187.64,208l0,0-45.91-33,28.55-20.54Zm-8.94-79.38L168.13,96H224Z"/>
    </svg>
  </g>
  <!-- Icon 13: open-ai-logo-duotone -->
  <g transform="translate(496, 152)">
    <rect width="48" height="48" fill="#ffffff" stroke="#e9ecef" stroke-width="1" rx="4"/>
    <svg x="8" y="8" width="32" height="32" viewBox="0 0 256 256">
      <path d="M96,174.19l56-32.33v36.95L107.5,204.5a48,48,0,0,1-66.4-64.08h0A48,48,0,0,0,51.5,148.5ZM204.5,107.5,160,81.81l-32,18.48,56,32.33V184a48,48,0,0,1-1.81,13h0A48,48,0,0,0,204.5,107.5ZM104,77.19,148.5,51.5a47.77,47.77,0,0,1,12.19-5v0A48,48,0,0,0,72,72v51.38l32,18.48Z" opacity="0.2"/><path d="M224.32,114.24a56,56,0,0,0-60.07-76.57A56,56,0,0,0,67.93,51.44a56,56,0,0,0-36.25,90.32A56,56,0,0,0,69,217,56.39,56.39,0,0,0,83.59,219a55.75,55.75,0,0,0,8.17-.61,56,56,0,0,0,96.31-13.78,56,56,0,0,0,36.25-90.32ZM182.85,54.43a40,40,0,0,1,28.56,48c-.95-.63-1.91-1.24-2.91-1.81L164,74.88a8,8,0,0,0-8,0l-44,25.41V81.81l40.5-23.38A39.76,39.76,0,0,1,182.85,54.43ZM144,137.24l-16,9.24-16-9.24V118.76l16-9.24,16,9.24ZM80,72a40,40,0,0,1,67.53-29c-1,.51-2,1-3,1.62L100,70.27a8,8,0,0,0-4,6.92V128l-16-9.24ZM40.86,86.93A39.75,39.75,0,0,1,64.12,68.57C64.05,69.71,64,70.85,64,72v51.38a8,8,0,0,0,4,6.93l44,25.4L96,165,55.5,141.57A40,40,0,0,1,40.86,86.93ZM73.15,201.57a40,40,0,0,1-28.56-48c.95.63,1.91,1.24,2.91,1.81L92,181.12a8,8,0,0,0,8,0l44-25.41v18.48l-40.5,23.38A39.76,39.76,0,0,1,73.15,201.57ZM176,184a40,40,0,0,1-67.52,29.05c1-.51,2-1.05,3-1.63L156,185.73a8,8,0,0,0,4-6.92V128l16,9.24Zm39.14-14.93a39.75,39.75,0,0,1-23.26,18.36c.07-1.14.12-2.28.12-3.43V132.62a8,8,0,0,0-4-6.93l-44-25.4,16-9.24,40.5,23.38A40,40,0,0,1,215.14,169.07Z"/>
    </svg>
  </g>
  <!-- Icon 14: note-duotone -->
  <g transform="translate(556, 152)">
    <rect width="48" height="48" fill="#ffffff" stroke="#e9ecef" stroke-width="1" rx="4"/>
    <svg x="8" y="8" width="32" height="32" viewBox="0 0 256 256">
      <path d="M216,160l-56,56V160Z" opacity="0.2"/><path d="M88,96a8,8,0,0,1,8-8h64a8,8,0,0,1,0,16H96A8,8,0,0,1,88,96Zm8,40h64a8,8,0,0,0,0-16H96a8,8,0,0,0,0,16Zm32,16H96a8,8,0,0,0,0,16h32a8,8,0,0,0,0-16ZM224,48V156.69A15.86,15.86,0,0,1,219.31,168L168,219.31A15.86,15.86,0,0,1,156.69,224H48a16,16,0,0,1-16-16V48A16,16,0,0,1,48,32H208A16,16,0,0,1,224,48ZM48,208H152V160a8,8,0,0,1,8-8h48V48H48Zm120-40v28.7L196.69,168Z"/>
    </svg>
  </g>
  <!-- Icon 15: microsoft-powerpoint-logo-duotone -->
  <g transform="translate(196, 212)">
    <rect width="48" height="48" fill="#ffffff" stroke="#e9ecef" stroke-width="1" rx="4"/>
    <svg x="8" y="8" width="32" height="32" viewBox="0 0 256 256">
      <path d="M152,80v96a8,8,0,0,1-8,8H40a8,8,0,0,1-8-8V80a8,8,0,0,1,8-8H144A8,8,0,0,1,152,80Z" opacity="0.2"/><path d="M96,96H80a8,8,0,0,0-8,8v48a8,8,0,0,0,16,0v-8h8a24,24,0,0,0,0-48Zm0,32H88V112h8a8,8,0,0,1,0,16ZM136,24A104.33,104.33,0,0,0,54,64H40A16,16,0,0,0,24,80v96a16,16,0,0,0,16,16H54A104,104,0,1,0,136,24Zm87.63,96H160V80a16,16,0,0,0-16-16V40.37A88.13,88.13,0,0,1,223.63,120ZM128,40.37V64H75.63A88.36,88.36,0,0,1,128,40.37ZM40,80H144v47.9a.51.51,0,0,0,0,.2V176H40Zm88,112v23.63A88.36,88.36,0,0,1,75.63,192Zm16,23.63V192a16,16,0,0,0,16-16V136h63.63A88.13,88.13,0,0,1,144,215.63Z"/>
    </svg>
  </g>
  <!-- Icon 16: lock-simple-open-duotone -->
  <g transform="translate(256, 212)">
    <rect width="48" height="48" fill="#ffffff" stroke="#e9ecef" stroke-width="1" rx="4"/>
    <svg x="8" y="8" width="32" height="32" viewBox="0 0 256 256">
      <path d="M216,96V208a8,8,0,0,1-8,8H48a8,8,0,0,1-8-8V96a8,8,0,0,1,8-8H208A8,8,0,0,1,216,96Z" opacity="0.2"/><path d="M208,80H96V56a32,32,0,0,1,32-32c15.37,0,29.2,11,32.16,25.59a8,8,0,0,0,15.68-3.18C171.32,24.15,151.2,8,128,8A48.05,48.05,0,0,0,80,56V80H48A16,16,0,0,0,32,96V208a16,16,0,0,0,16,16H208a16,16,0,0,0,16-16V96A16,16,0,0,0,208,80Zm0,128H48V96H208V208Z"/>
    </svg>
  </g>
  <!-- Icon 17: lectern-duotone -->
  <g transform="translate(316, 212)">
    <rect width="48" height="48" fill="#ffffff" stroke="#e9ecef" stroke-width="1" rx="4"/>
    <svg x="8" y="8" width="32" height="32" viewBox="0 0 256 256">
      <path d="M232,136H24a8,8,0,0,1-7.16-11.58l40-80A8,8,0,0,1,64,40H192a8,8,0,0,1,7.16,4.42l40,80A8,8,0,0,1,232,136Z" opacity="0.2"/><path d="M246.3,120.84l-40-80A15.92,15.92,0,0,0,192,32H64A15.92,15.92,0,0,0,49.7,40.84l-40,80A16,16,0,0,0,24,144h96v64H96a8,8,0,0,0,0,16h64a8,8,0,0,0,0-16H136V144h96a16,16,0,0,0,14.31-23.16ZM24,128,64,48H192l40,80Zm168-24a8,8,0,0,1-8,8H72a8,8,0,0,1,0-16H184A8,8,0,0,1,192,104Z"/>
    </svg>
  </g>
  <!-- Icon 18: hourglass-simple-high-duotone -->
  <g transform="translate(376, 212)">
    <rect width="48" height="48" fill="#ffffff" stroke="#e9ecef" stroke-width="1" rx="4"/>
    <svg x="8" y="8" width="32" height="32" viewBox="0 0 256 256">
      <path d="M186.48,72,128,128,69.52,72Z" opacity="0.2"/><path d="M211.18,196.56,139.57,128l71.61-68.56a1.59,1.59,0,0,1,.13-.13A16,16,0,0,0,200,32H56A16,16,0,0,0,44.69,59.31a1.59,1.59,0,0,1,.13.13L116.43,128,44.82,196.56a1.59,1.59,0,0,1-.13.13A16,16,0,0,0,56,224H200a16,16,0,0,0,11.32-27.31A1.59,1.59,0,0,1,211.18,196.56ZM56,48h0v0ZM89.43,80h77.14L128,116.92ZM200,48l-16.7,16H72.72L56,48ZM56,208l72-68.92L200,208Z"/>
    </svg>
  </g>
  <!-- Icon 19: hand-palm-duotone -->
  <g transform="translate(436, 212)">
    <rect width="48" height="48" fill="#ffffff" stroke="#e9ecef" stroke-width="1" rx="4"/>
    <svg x="8" y="8" width="32" height="32" viewBox="0 0 256 256">
      <path d="M208,116v36a80,80,0,0,1-160,0V76a20,20,0,0,1,40,0V44a20,20,0,0,1,40,0V60a20,20,0,0,1,40,0v56a20,20,0,0,1,40,0Z" opacity="0.2"/><path d="M188,88a27.75,27.75,0,0,0-12,2.71V60a28,28,0,0,0-41.36-24.6A28,28,0,0,0,80,44v6.71A27.75,27.75,0,0,0,68,48,28,28,0,0,0,40,76v76a88,88,0,0,0,176,0V116A28,28,0,0,0,188,88Zm12,64a72,72,0,0,1-144,0V76a12,12,0,0,1,24,0v44a8,8,0,0,0,16,0V44a12,12,0,0,1,24,0v68a8,8,0,0,0,16,0V60a12,12,0,0,1,24,0v68.67A48.08,48.08,0,0,0,120,176a8,8,0,0,0,16,0,32,32,0,0,1,32-32,8,8,0,0,0,8-8V116a12,12,0,0,1,24,0Z"/>
    </svg>
  </g>
  <!-- Icon 20: globe-duotone -->
  <g transform="translate(496, 212)">
    <rect width="48" height="48" fill="#ffffff" stroke="#e9ecef" stroke-width="1" rx="4"/>
    <svg x="8" y="8" width="32" height="32" viewBox="0 0 256 256">
      <path d="M224,128a96,96,0,1,1-96-96A96,96,0,0,1,224,128Z" opacity="0.2"/><path d="M128,24h0A104,104,0,1,0,232,128,104.12,104.12,0,0,0,128,24Zm88,104a87.61,87.61,0,0,1-3.33,24H174.16a157.44,157.44,0,0,0,0-48h38.51A87.61,87.61,0,0,1,216,128ZM102,168H154a115.11,115.11,0,0,1-26,45A115.27,115.27,0,0,1,102,168Zm-3.9-16a140.84,140.84,0,0,1,0-48h59.88a140.84,140.84,0,0,1,0,48ZM40,128a87.61,87.61,0,0,1,3.33-24H81.84a157.44,157.44,0,0,0,0,48H43.33A87.61,87.61,0,0,1,40,128ZM154,88H102a115.11,115.11,0,0,1,26-45A115.27,115.27,0,0,1,154,88Zm52.33,0H170.71a135.28,135.28,0,0,0-22.3-45.6A88.29,88.29,0,0,1,206.37,88ZM107.59,42.4A135.28,135.28,0,0,0,85.29,88H49.63A88.29,88.29,0,0,1,107.59,42.4ZM49.63,168H85.29a135.28,135.28,0,0,0,22.3,45.6A88.29,88.29,0,0,1,49.63,168Zm98.78,45.6a135.28,135.28,0,0,0,22.3-45.6h35.66A88.29,88.29,0,0,1,148.41,213.6Z"/>
    </svg>
  </g>
  <!-- Icon 21: folder-simple-user-duotone -->
  <g transform="translate(556, 212)">
    <rect width="48" height="48" fill="#ffffff" stroke="#e9ecef" stroke-width="1" rx="4"/>
    <svg x="8" y="8" width="32" height="32" viewBox="0 0 256 256">
      <path d="M216,176a24,24,0,1,1-24-24A24,24,0,0,1,216,176Z" opacity="0.2"/><path d="M214.61,198.62a32,32,0,1,0-45.23,0,40,40,0,0,0-17.11,23.32,8,8,0,0,0,5.67,9.79A8.15,8.15,0,0,0,160,232a8,8,0,0,0,7.73-5.95C170.56,215.42,180.54,208,192,208s21.44,7.42,24.27,18.05a8,8,0,1,0,15.46-4.11A40,40,0,0,0,214.61,198.62ZM192,160a16,16,0,1,1-16,16A16,16,0,0,1,192,160Zm40-72v32a8,8,0,0,1-16,0V88H130.67a16.12,16.12,0,0,1-9.6-3.2L93.33,64H40V200h80a8,8,0,0,1,0,16H40a16,16,0,0,1-16-16V64A16,16,0,0,1,40,48H93.33a16.12,16.12,0,0,1,9.6,3.2L130.67,72H216A16,16,0,0,1,232,88Z"/>
    </svg>
  </g>
  <!-- Icon 22: film-script-duotone -->
  <g transform="translate(196, 272)">
    <rect width="48" height="48" fill="#ffffff" stroke="#e9ecef" stroke-width="1" rx="4"/>
    <svg x="8" y="8" width="32" height="32" viewBox="0 0 256 256">
      <path d="M208,40V216a8,8,0,0,1-8,8H56a8,8,0,0,1-8-8V40a8,8,0,0,1,8-8H200A8,8,0,0,1,208,40Z" opacity="0.2"/><path d="M200,24H56A16,16,0,0,0,40,40V216a16,16,0,0,0,16,16H200a16,16,0,0,0,16-16V40A16,16,0,0,0,200,24Zm0,192H56V40H200V216ZM96,80A12,12,0,1,1,84,68,12,12,0,0,1,96,80Zm0,96a12,12,0,1,1-12-12A12,12,0,0,1,96,176Zm0-48a12,12,0,1,1-12-12A12,12,0,0,1,96,128Z"/>
    </svg>
  </g>
  <!-- Icon 23: file-archive-duotone -->
  <g transform="translate(256, 272)">
    <rect width="48" height="48" fill="#ffffff" stroke="#e9ecef" stroke-width="1" rx="4"/>
    <svg x="8" y="8" width="32" height="32" viewBox="0 0 256 256">
      <path d="M208,88H152V32Z" opacity="0.2"/><path d="M213.66,82.34l-56-56A8,8,0,0,0,152,24H56A16,16,0,0,0,40,40V216a16,16,0,0,0,16,16H200a16,16,0,0,0,16-16V88A8,8,0,0,0,213.66,82.34ZM160,51.31,188.69,80H160ZM200,216H112V200h8a8,8,0,0,0,0-16h-8V168h8a8,8,0,0,0,0-16h-8V136h8a8,8,0,0,0,0-16h-8v-8a8,8,0,0,0-16,0v8H88a8,8,0,0,0,0,16h8v16H88a8,8,0,0,0,0,16h8v16H88a8,8,0,0,0,0,16h8v16H56V40h88V88a8,8,0,0,0,8,8h48V216Z"/>
    </svg>
  </g>
  <!-- Icon 24: ear-duotone -->
  <g transform="translate(316, 272)">
    <rect width="48" height="48" fill="#ffffff" stroke="#e9ecef" stroke-width="1" rx="4"/>
    <svg x="8" y="8" width="32" height="32" viewBox="0 0 256 256">
      <path d="M208,104c0,40-14.44,72-48,112-8.07,9.77-18.34,16-32,16a44,44,0,0,1-44-44c0-41.49-36-28-36-84a80,80,0,0,1,160,0Z" opacity="0.2"/><path d="M216,104a8,8,0,0,1-16,0,72,72,0,0,0-144,0c0,26.7,8.53,34.92,17.57,43.64C82.21,156,92,165.41,92,188a36,36,0,0,0,36,36c10.24,0,18.45-4.16,25.83-13.09a8,8,0,1,1,12.34,10.18C155.81,233.64,143,240,128,240a52.06,52.06,0,0,1-52-52c0-15.79-5.68-21.27-13.54-28.84C52.46,149.5,40,137.5,40,104a88,88,0,0,1,176,0Zm-38.13,57.08A8,8,0,0,0,166.93,164,8,8,0,0,1,152,160c0-9.33,4.82-15.76,10.4-23.2,6.37-8.5,13.6-18.13,13.6-32.8a48,48,0,0,0-96,0,8,8,0,0,0,16,0,32,32,0,0,1,64,0c0,9.33-4.82,15.76-10.4,23.2-6.37,8.5-13.6,18.13-13.6,32.8a24,24,0,0,0,44.78,12A8,8,0,0,0,177.87,161.08Z"/>
    </svg>
  </g>
  <!-- Icon 25: device-tablet-camera-duotone -->
  <g transform="translate(376, 272)">
    <rect width="48" height="48" fill="#ffffff" stroke="#e9ecef" stroke-width="1" rx="4"/>
    <svg x="8" y="8" width="32" height="32" viewBox="0 0 256 256">
      <path d="M208,48V208a16,16,0,0,1-16,16H64a16,16,0,0,1-16-16V48A16,16,0,0,1,64,32H192A16,16,0,0,1,208,48Z" opacity="0.2"/><path d="M192,24H64A24,24,0,0,0,40,48V208a24,24,0,0,0,24,24H192a24,24,0,0,0,24-24V48A24,24,0,0,0,192,24Zm8,184a8,8,0,0,1-8,8H64a8,8,0,0,1-8-8V48a8,8,0,0,1,8-8H192a8,8,0,0,1,8,8ZM140,68a12,12,0,1,1-12-12A12,12,0,0,1,140,68Z"/>
    </svg>
  </g>
  <!-- Icon 26: crane-duotone -->
  <g transform="translate(436, 272)">
    <rect width="48" height="48" fill="#ffffff" stroke="#e9ecef" stroke-width="1" rx="4"/>
    <svg x="8" y="8" width="32" height="32" viewBox="0 0 256 256">
      <path d="M128,168H56V88h48Z" opacity="0.2"/><path d="M228.12,17.14a8,8,0,0,0-7.88-.2L102,80H32A16,16,0,0,0,16,96V200a16,16,0,0,0,16,16h88a16,16,0,0,0,16-16V168a7.81,7.81,0,0,0-.34-2.3L113.54,92,216,37.33V160H200v-8a8,8,0,0,0-16,0v8a16,16,0,0,0,16,16h16a16,16,0,0,0,16-16V24A8,8,0,0,0,228.12,17.14ZM98.05,96l19.2,64H64V96ZM48,96v64H32V96ZM32,200h0V176h88v24Z"/>
    </svg>
  </g>
  <!-- Icon 27: cloud-slash-duotone -->
  <g transform="translate(496, 272)">
    <rect width="48" height="48" fill="#ffffff" stroke="#e9ecef" stroke-width="1" rx="4"/>
    <svg x="8" y="8" width="32" height="32" viewBox="0 0 256 256">
      <path d="M240,128a80,80,0,0,1-80,80H72A56,56,0,1,1,85.92,97.74l0,.1A80,80,0,0,1,240,128Z" opacity="0.2"/><path d="M53.92,34.62A8,8,0,1,0,42.08,45.38L81.32,88.55l-.06.12A65,65,0,0,0,72,88a64,64,0,0,0,0,128h88a87.34,87.34,0,0,0,31.8-5.93l10.28,11.31a8,8,0,1,0,11.84-10.76ZM160,200H72a48,48,0,0,1,0-96c1.1,0,2.2,0,3.3.12A88.4,88.4,0,0,0,72,128a8,8,0,0,0,16,0,72.25,72.25,0,0,1,5.06-26.54l87,95.7A71.66,71.66,0,0,1,160,200Zm88-72a87.89,87.89,0,0,1-22.35,58.61A8,8,0,0,1,213.71,176,72,72,0,0,0,117.37,70a8,8,0,0,1-9.48-12.89A88,88,0,0,1,248,128Z"/>
    </svg>
  </g>
  <!-- Icon 28: chats-duotone -->
  <g transform="translate(556, 272)">
    <rect width="48" height="48" fill="#ffffff" stroke="#e9ecef" stroke-width="1" rx="4"/>
    <svg x="8" y="8" width="32" height="32" viewBox="0 0 256 256">
      <path d="M224,96V224l-39.58-32H88a8,8,0,0,1-8-8V144h88a8,8,0,0,0,8-8V88h40A8,8,0,0,1,224,96Z" opacity="0.2"/><path d="M216,80H184V48a16,16,0,0,0-16-16H40A16,16,0,0,0,24,48V176a8,8,0,0,0,13,6.22L72,154V184a16,16,0,0,0,16,16h93.59L219,230.22a8,8,0,0,0,5,1.78,8,8,0,0,0,8-8V96A16,16,0,0,0,216,80ZM66.55,137.78,40,159.25V48H168v88H71.58A8,8,0,0,0,66.55,137.78ZM216,207.25l-26.55-21.47a8,8,0,0,0-5-1.78H88V152h80a16,16,0,0,0,16-16V96h32Z"/>
    </svg>
  </g>
  <!-- Icon 29: cat-duotone -->
  <g transform="translate(196, 332)">
    <rect width="48" height="48" fill="#ffffff" stroke="#e9ecef" stroke-width="1" rx="4"/>
    <svg x="8" y="8" width="32" height="32" viewBox="0 0 256 256">
      <path d="M224,48v88c0,48.6-43,88-96,88s-96-39.4-96-88V48a8,8,0,0,1,13.66-5.66L67.6,67.6h0a102.87,102.87,0,0,1,120.8,0h0l21.94-25.24A8,8,0,0,1,224,48Z" opacity="0.2"/><path d="M96,140a12,12,0,1,1-12-12A12,12,0,0,1,96,140Zm76-12a12,12,0,1,0,12,12A12,12,0,0,0,172,128Zm60-80v88c0,52.93-46.65,96-104,96S24,188.93,24,136V48A16,16,0,0,1,51.31,36.69c.14.14.26.27.38.41L69,57a111.22,111.22,0,0,1,118.1,0L204.31,37.1c.12-.14.24-.27.38-.41A16,16,0,0,1,232,48Zm-16,0-21.56,24.8A8,8,0,0,1,183.63,74,88.86,88.86,0,0,0,168,64.75V88a8,8,0,1,1-16,0V59.05a97.43,97.43,0,0,0-16-2.72V88a8,8,0,1,1-16,0V56.33a97.43,97.43,0,0,0-16,2.72V88a8,8,0,1,1-16,0V64.75A88.86,88.86,0,0,0,72.37,74a8,8,0,0,1-10.81-1.17L40,48v88c0,41.66,35.21,76,80,79.67V195.31l-13.66-13.66a8,8,0,0,1,11.32-11.31L128,180.68l10.34-10.34a8,8,0,0,1,11.32,11.31L136,195.31v20.36c44.79-3.69,80-38,80-79.67Z"/>
    </svg>
  </g>
  <!-- Icon 30: calendar-plus-duotone -->
  <g transform="translate(256, 332)">
    <rect width="48" height="48" fill="#ffffff" stroke="#e9ecef" stroke-width="1" rx="4"/>
    <svg x="8" y="8" width="32" height="32" viewBox="0 0 256 256">
      <path d="M216,48V88H40V48a8,8,0,0,1,8-8H208A8,8,0,0,1,216,48Z" opacity="0.2"/><path d="M208,32H184V24a8,8,0,0,0-16,0v8H88V24a8,8,0,0,0-16,0v8H48A16,16,0,0,0,32,48V208a16,16,0,0,0,16,16H208a16,16,0,0,0,16-16V48A16,16,0,0,0,208,32ZM72,48v8a8,8,0,0,0,16,0V48h80v8a8,8,0,0,0,16,0V48h24V80H48V48ZM208,208H48V96H208V208Zm-48-56a8,8,0,0,1-8,8H136v16a8,8,0,0,1-16,0V160H104a8,8,0,0,1,0-16h16V128a8,8,0,0,1,16,0v16h16A8,8,0,0,1,160,152Z"/>
    </svg>
  </g>
  <!-- Icon 31: boules-duotone -->
  <g transform="translate(316, 332)">
    <rect width="48" height="48" fill="#ffffff" stroke="#e9ecef" stroke-width="1" rx="4"/>
    <svg x="8" y="8" width="32" height="32" viewBox="0 0 256 256">
      <path d="M215.52,88.48l-127,127a96.47,96.47,0,0,1-48-48l127-127A96.47,96.47,0,0,1,215.52,88.48Z" opacity="0.2"/><path d="M128,24A104,104,0,1,0,232,128,104.11,104.11,0,0,0,128,24Zm56.28,36.41L60.4,184.28A88.33,88.33,0,0,1,50.21,169.1L169.1,50.21A87.8,87.8,0,0,1,184.28,60.41Zm11.31,11.31a87.8,87.8,0,0,1,10.2,15.18L86.9,205.79a87.8,87.8,0,0,1-15.18-10.2ZM128,40a87.81,87.81,0,0,1,25.05,3.64L43.64,153.05A88,88,0,0,1,128,40Zm0,176a87.81,87.81,0,0,1-25-3.64L212.36,103A88,88,0,0,1,128,216Z"/>
    </svg>
  </g>
  <!-- Icon 32: battery-vertical-medium-duotone -->
  <g transform="translate(376, 332)">
    <rect width="48" height="48" fill="#ffffff" stroke="#e9ecef" stroke-width="1" rx="4"/>
    <svg x="8" y="8" width="32" height="32" viewBox="0 0 256 256">
      <path d="M192,56V224a16,16,0,0,1-16,16H80a16,16,0,0,1-16-16V56A16,16,0,0,1,80,40h96A16,16,0,0,1,192,56Z" opacity="0.2"/><path d="M88,8a8,8,0,0,1,8-8h64a8,8,0,0,1,0,16H96A8,8,0,0,1,88,8ZM200,56V224a24,24,0,0,1-24,24H80a24,24,0,0,1-24-24V56A24,24,0,0,1,80,32h96A24,24,0,0,1,200,56Zm-16,0a8,8,0,0,0-8-8H80a8,8,0,0,0-8,8V224a8,8,0,0,0,8,8h96a8,8,0,0,0,8-8Zm-24,96H96a8,8,0,0,0,0,16h64a8,8,0,0,0,0-16Zm0,40H96a8,8,0,0,0,0,16h64a8,8,0,0,0,0-16Z"/>
    </svg>
  </g>
  <!-- Icon 33: arrows-vertical-duotone -->
  <g transform="translate(436, 332)">
    <rect width="48" height="48" fill="#ffffff" stroke="#e9ecef" stroke-width="1" rx="4"/>
    <svg x="8" y="8" width="32" height="32" viewBox="0 0 256 256">
      <path d="M160,56V200l-32,32L96,200V56l32-32Z" opacity="0.2"/><path d="M165.66,194.34a8,8,0,0,1,0,11.32l-32,32a8,8,0,0,1-11.32,0l-32-32a8,8,0,0,1,11.32-11.32L120,212.69V43.31L101.66,61.66A8,8,0,0,1,90.34,50.34l32-32a8,8,0,0,1,11.32,0l32,32a8,8,0,0,1-11.32,11.32L136,43.31V212.69l18.34-18.35A8,8,0,0,1,165.66,194.34Z"/>
    </svg>
  </g>
  <!-- Icon 34: arrow-line-right-duotone -->
  <g transform="translate(496, 332)">
    <rect width="48" height="48" fill="#ffffff" stroke="#e9ecef" stroke-width="1" rx="4"/>
    <svg x="8" y="8" width="32" height="32" viewBox="0 0 256 256">
      <path d="M184,128l-72,72V56Z" opacity="0.2"/><path d="M117.66,50.34A8,8,0,0,0,104,56v64H32a8,8,0,0,0,0,16h72v64a8,8,0,0,0,13.66,5.66l72-72a8,8,0,0,0,0-11.32ZM120,180.69V75.31L172.69,128ZM224,40V216a8,8,0,0,1-16,0V40a8,8,0,0,1,16,0Z"/>
    </svg>
  </g>
  <!-- Icon 35: arrow-bend-right-up-duotone -->
  <g transform="translate(556, 332)">
    <rect width="48" height="48" fill="#ffffff" stroke="#e9ecef" stroke-width="1" rx="4"/>
    <svg x="8" y="8" width="32" height="32" viewBox="0 0 256 256">
      <path d="M200,80H104l48-48Z" opacity="0.2"/><path d="M205.66,74.34l-48-48a8,8,0,0,0-11.32,0l-48,48A8,8,0,0,0,104,88h40v40a88.1,88.1,0,0,1-88,88,8,8,0,0,0,0,16A104.11,104.11,0,0,0,160,128V88h40a8,8,0,0,0,5.66-13.66ZM123.31,72,152,43.31,180.69,72Z"/>
    </svg>
  </g>
  
  <!-- Footer -->
  <text x="400" y="580" text-anchor="middle" font-family="system-ui, -apple-system, sans-serif" font-size="12" fill="#6c757d">
    Showing 35 of 1512 icons
  </text>
  
</svg>