<svg width="448" height="368" xmlns="http://www.w3.org/2000/svg">
  <!-- Background -->
  <rect width="448" height="368" fill="#1a1a1a"/>
  
  <!-- Icon Grid -->
  <!-- Icon 1: youtube-logo-thin -->
  <g transform="translate(20, 20)">
    <rect width="48" height="48" fill="#1a1a1a" stroke="#333333" stroke-width="1" rx="4"/>
    <svg x="8" y="8" width="32" height="32" viewBox="0 0 256 256" style="color: #ffffff; fill: #ffffff;">
      <path d="M162.22,124.67l-48-32A4,4,0,0,0,108,96v64a4,4,0,0,0,2.11,3.53,4,4,0,0,0,4.11-.2l48-32a4,4,0,0,0,0-6.66ZM116,152.53V103.47L152.79,128Zm114.46-82A20,20,0,0,0,218.4,56.85C184.6,43.79,130.27,44,128,44S71.4,43.79,37.6,56.85A20,20,0,0,0,25.54,70.52C23,80.27,20,98.16,20,128s3,47.73,5.54,57.48A20,20,0,0,0,37.6,199.15C71.4,212.21,125.73,212,128,212h.71c6.89,0,57.58-.43,89.72-12.85a20,20,0,0,0,12.06-13.67C233,175.72,236,157.84,236,128S233,80.27,230.46,70.52Zm-7.74,113a12,12,0,0,1-7.21,8.22C183.14,204.19,128.57,204,128,204s-55.11.19-87.48-12.31a12,12,0,0,1-7.21-8.22C30.87,174.17,28,157,28,128s2.87-46.17,5.28-55.47a12,12,0,0,1,7.21-8.22C72.86,51.81,127.43,52,128,52s55.11-.2,87.48,12.31a12,12,0,0,1,7.21,8.22C225.13,81.83,228,99,228,128S225.13,174.17,222.72,183.47Z"/>
    </svg>
  </g>
  <!-- Icon 2: visor-thin -->
  <g transform="translate(80, 20)">
    <rect width="48" height="48" fill="#1a1a1a" stroke="#333333" stroke-width="1" rx="4"/>
    <svg x="8" y="8" width="32" height="32" viewBox="0 0 256 256" style="color: #ffffff; fill: #ffffff;">
      <path d="M183.05,60H72A68,68,0,0,0,4.07,131.21c1.6,34.66,30,63.08,64.65,64.71,14.77.72,30-5.64,46.63-19.38a19.9,19.9,0,0,1,25.35,0C150.79,184.92,166.25,196,184,196a68,68,0,0,0,68-68.9C251.51,90.1,220.58,60,183.05,60ZM226.7,170.15A59.57,59.57,0,0,1,184,188c-15.17,0-29.07-10-38.2-17.58a27.88,27.88,0,0,0-35.55,0c-15,12.41-28.45,18.14-41.15,17.55a60.37,60.37,0,0,1-57-57.09A60,60,0,0,1,72,68H183.05c33.18,0,60.52,26.56,60.94,59.2A59.59,59.59,0,0,1,226.7,170.15ZM180,96a4,4,0,0,1-4,4H80a4,4,0,0,1,0-8h96A4,4,0,0,1,180,96Z"/>
    </svg>
  </g>
  <!-- Icon 3: twitch-logo-thin -->
  <g transform="translate(140, 20)">
    <rect width="48" height="48" fill="#1a1a1a" stroke="#333333" stroke-width="1" rx="4"/>
    <svg x="8" y="8" width="32" height="32" viewBox="0 0 256 256" style="color: #ffffff; fill: #ffffff;">
      <path d="M208,36H48A12,12,0,0,0,36,48V192a12,12,0,0,0,12,12H68v36a4,4,0,0,0,2.3,3.62A3.9,3.9,0,0,0,72,244a4,4,0,0,0,2.56-.93L121.45,204H165.1a12.06,12.06,0,0,0,7.69-2.78l42.89-35.75a11.93,11.93,0,0,0,4.32-9.22V48A12,12,0,0,0,208,36Zm4,120.25a4,4,0,0,1-1.44,3.08l-42.9,35.74a4,4,0,0,1-2.56.93H120a4,4,0,0,0-2.56.93L76,231.46V200a4,4,0,0,0-4-4H48a4,4,0,0,1-4-4V48a4,4,0,0,1,4-4H208a4,4,0,0,1,4,4ZM172,88v48a4,4,0,0,1-8,0V88a4,4,0,0,1,8,0Zm-48,0v48a4,4,0,0,1-8,0V88a4,4,0,0,1,8,0Z"/>
    </svg>
  </g>
  <!-- Icon 4: tire-thin -->
  <g transform="translate(200, 20)">
    <rect width="48" height="48" fill="#1a1a1a" stroke="#333333" stroke-width="1" rx="4"/>
    <svg x="8" y="8" width="32" height="32" viewBox="0 0 256 256" style="color: #ffffff; fill: #ffffff;">
      <path d="M168,172c13,0,20-22.67,20-44s-7-44-20-44-20,22.67-20,44S155,172,168,172Zm0-80c4.89,0,12,14,12,36s-7.11,36-12,36-12-14-12-36S163.11,92,168,92Zm64,128H186.23c6.72-5.11,12.85-12.59,18.06-22.21C214.42,179.08,220,154.3,220,128s-5.58-51.08-15.71-69.79C193.73,38.73,179.43,28,164,28H92C76.57,28,62.27,38.73,51.71,58.21,41.58,76.92,36,101.7,36,128s5.58,51.08,15.71,69.79C62.27,217.27,76.57,228,92,228H232a4,4,0,0,0,0-8ZM197.25,62C206.76,79.58,212,103,212,128s-5.24,48.42-14.75,66c-9.09,16.78-20.9,26-33.25,26s-24.16-9.24-33.25-26C121.24,176.42,116,153,116,128s5.24-48.42,14.75-66c9.09-16.78,20.9-26,33.25-26S188.16,45.24,197.25,62ZM58.75,62C67.84,45.24,79.65,36,92,36h49.77c-6.72,5.11-12.85,12.59-18.06,22.21-7,12.93-11.83,28.77-14.14,46L82.33,84.75a4,4,0,0,0-4.66,0L45.17,108C47.19,90.66,51.84,74.78,58.75,62ZM44.26,118.44,80,92.92l28.59,20.42c-.39,4.81-.59,9.71-.59,14.66a169.72,169.72,0,0,0,5.32,42.89l-31-22.14a4,4,0,0,0-4.66,0L49.13,169.13A161.44,161.44,0,0,1,44,128Q44,123.19,44.26,118.44ZM92,220c-12.35,0-24.16-9.24-33.25-26a106.61,106.61,0,0,1-7.19-16.75L80,156.92l37.32,26.65a111.32,111.32,0,0,0,6.39,14.22c5.21,9.62,11.34,17.1,18.06,22.21Z"/>
    </svg>
  </g>
  <!-- Icon 5: terminal-thin -->
  <g transform="translate(260, 20)">
    <rect width="48" height="48" fill="#1a1a1a" stroke="#333333" stroke-width="1" rx="4"/>
    <svg x="8" y="8" width="32" height="32" viewBox="0 0 256 256" style="color: #ffffff; fill: #ffffff;">
      <path d="M116,128a4,4,0,0,1-1.34,3l-72,64a4,4,0,1,1-5.32-6L106,128,37.34,67a4,4,0,0,1,5.32-6l72,64A4,4,0,0,1,116,128Zm100,60H120a4,4,0,0,0,0,8h96a4,4,0,0,0,0-8Z"/>
    </svg>
  </g>
  <!-- Icon 6: stool-thin -->
  <g transform="translate(320, 20)">
    <rect width="48" height="48" fill="#1a1a1a" stroke="#333333" stroke-width="1" rx="4"/>
    <svg x="8" y="8" width="32" height="32" viewBox="0 0 256 256" style="color: #ffffff; fill: #ffffff;">
      <path d="M196,64V40a12,12,0,0,0-12-12H72A12,12,0,0,0,60,40V64A12,12,0,0,0,72,76H83.32L60.05,223.38A4,4,0,0,0,63.38,228,4.46,4.46,0,0,0,64,228,4,4,0,0,0,68,224.62L76.26,172H179.74l8.31,52.62A4,4,0,0,0,192,228a4.46,4.46,0,0,0,.63-.05,4,4,0,0,0,3.33-4.57L172.68,76H184A12,12,0,0,0,196,64ZM68,64V40a4,4,0,0,1,4-4H184a4,4,0,0,1,4,4V64a4,4,0,0,1-4,4H72A4,4,0,0,1,68,64ZM178.48,164h-101l13.9-88h73.16Z"/>
    </svg>
  </g>
  <!-- Icon 7: speaker-none-thin -->
  <g transform="translate(380, 20)">
    <rect width="48" height="48" fill="#1a1a1a" stroke="#333333" stroke-width="1" rx="4"/>
    <svg x="8" y="8" width="32" height="32" viewBox="0 0 256 256" style="color: #ffffff; fill: #ffffff;">
      <path d="M153.76,28.41a4,4,0,0,0-4.22.43L78.63,84H32A12,12,0,0,0,20,96v64a12,12,0,0,0,12,12H78.63l70.91,55.16A4.07,4.07,0,0,0,152,228a3.92,3.92,0,0,0,1.76-.41A4,4,0,0,0,156,224V32A4,4,0,0,0,153.76,28.41ZM28,160V96a4,4,0,0,1,4-4H76v72H32A4,4,0,0,1,28,160Zm120,55.82L84,166V90l64-49.78Z"/>
    </svg>
  </g>
  <!-- Icon 8: sign-in-thin -->
  <g transform="translate(20, 80)">
    <rect width="48" height="48" fill="#1a1a1a" stroke="#333333" stroke-width="1" rx="4"/>
    <svg x="8" y="8" width="32" height="32" viewBox="0 0 256 256" style="color: #ffffff; fill: #ffffff;">
      <path d="M138.83,130.83l-40,40a4,4,0,0,1-5.66-5.66L126.34,132H24a4,4,0,0,1,0-8H126.34L93.17,90.83a4,4,0,0,1,5.66-5.66l40,40A4,4,0,0,1,138.83,130.83ZM200,36H136a4,4,0,0,0,0,8h60V212H136a4,4,0,0,0,0,8h64a4,4,0,0,0,4-4V40A4,4,0,0,0,200,36Z"/>
    </svg>
  </g>
  <!-- Icon 9: seal-check-thin -->
  <g transform="translate(80, 80)">
    <rect width="48" height="48" fill="#1a1a1a" stroke="#333333" stroke-width="1" rx="4"/>
    <svg x="8" y="8" width="32" height="32" viewBox="0 0 256 256" style="color: #ffffff; fill: #ffffff;">
      <path d="M223,105.58c-4-4.2-8.2-8.54-10-12.8-1.65-4-1.73-9.53-1.82-15.41-.14-9-.29-19.19-6.83-25.74s-16.74-6.69-25.74-6.83c-5.88-.09-11.43-.17-15.41-1.82-4.26-1.76-8.6-5.93-12.8-9.95-6.68-6.41-13.59-13-22.42-13s-15.74,6.62-22.42,13c-4.2,4-8.54,8.2-12.8,10-4,1.65-9.53,1.73-15.41,1.82-9,.14-19.19.29-25.74,6.83S44.94,68.37,44.8,77.37c-.09,5.88-.17,11.43-1.82,15.41-1.76,4.26-5.93,8.6-9.95,12.8-6.41,6.68-13,13.59-13,22.42s6.62,15.74,13,22.42c4,4.2,8.2,8.54,10,12.8,1.65,4,1.73,9.53,1.82,15.41.14,9,.29,19.19,6.83,25.74s16.74,6.69,25.74,6.83c5.88.09,11.43.17,15.41,1.82,4.26,1.76,8.6,5.93,12.8,9.95,6.68,6.41,13.59,13,22.42,13s15.74-6.62,22.42-13c4.2-4,8.54-8.2,12.8-10,4-1.65,9.53-1.73,15.41-1.82,9-.14,19.19-.29,25.74-6.83s6.69-16.74,6.83-25.74c.09-5.88.17-11.43,1.82-15.41,1.76-4.26,5.93-8.6,9.95-12.8,6.41-6.68,13-13.59,13-22.42S229.38,112.26,223,105.58Zm-5.78,39.3c-4.54,4.73-9.24,9.63-11.57,15.28-2.23,5.39-2.33,12-2.43,18.35-.12,8.2-.24,16-4.49,20.2s-12,4.37-20.2,4.49c-6.37.1-13,.2-18.35,2.43-5.65,2.33-10.55,7-15.28,11.57C139.09,222.75,133.62,228,128,228s-11.09-5.25-16.88-10.8c-4.73-4.54-9.63-9.24-15.28-11.57-5.39-2.23-12-2.33-18.35-2.43-8.2-.12-15.95-.24-20.2-4.49s-4.37-12-4.49-20.2c-.1-6.37-.2-13-2.43-18.35-2.33-5.65-7-10.55-11.57-15.28C33.25,139.09,28,133.62,28,128s5.25-11.09,10.8-16.88c4.54-4.73,9.24-9.63,11.57-15.28,2.23-5.39,2.33-12,2.43-18.35.12-8.2.24-15.95,4.49-20.2s12-4.37,20.2-4.49c6.37-.1,13-.2,18.35-2.43,5.65-2.33,10.55-7,15.28-11.57C116.91,33.25,122.38,28,128,28s11.09,5.25,16.88,10.8c4.73,4.54,9.63,9.24,15.28,11.57,5.39,2.23,12,2.33,18.35,2.43,8.2.12,16,.24,20.2,4.49s4.37,12,4.49,20.2c.1,6.37.2,13,2.43,18.35,2.33,5.65,7,10.55,11.57,15.28,5.55,5.79,10.8,11.26,10.8,16.88S222.75,139.09,217.2,144.88Zm-46.37-43.71a4,4,0,0,1,0,5.66l-56,56a4,4,0,0,1-5.66,0l-24-24a4,4,0,0,1,5.66-5.66L112,154.34l53.17-53.17A4,4,0,0,1,170.83,101.17Z"/>
    </svg>
  </g>
  <!-- Icon 10: radical-thin -->
  <g transform="translate(140, 80)">
    <rect width="48" height="48" fill="#1a1a1a" stroke="#333333" stroke-width="1" rx="4"/>
    <svg x="8" y="8" width="32" height="32" viewBox="0 0 256 256" style="color: #ffffff; fill: #ffffff;">
      <path d="M244,80v24a4,4,0,0,1-8,0V84H130.77l-47,125.4a4,4,0,0,1-7.49,0l-48-128a4,4,0,1,1,7.49-2.81L80,196.61l44.26-118A4,4,0,0,1,128,76H240A4,4,0,0,1,244,80Z"/>
    </svg>
  </g>
  <!-- Icon 11: placeholder-thin -->
  <g transform="translate(200, 80)">
    <rect width="48" height="48" fill="#1a1a1a" stroke="#333333" stroke-width="1" rx="4"/>
    <svg x="8" y="8" width="32" height="32" viewBox="0 0 256 256" style="color: #ffffff; fill: #ffffff;">
      <path d="M208,36H48A12,12,0,0,0,36,48V208a12,12,0,0,0,12,12H208a12,12,0,0,0,12-12V48A12,12,0,0,0,208,36Zm4,12V206.34L49.66,44H208A4,4,0,0,1,212,48ZM44,208V49.66L206.34,212H48A4,4,0,0,1,44,208Z"/>
    </svg>
  </g>
  <!-- Icon 12: pentagram-thin -->
  <g transform="translate(260, 80)">
    <rect width="48" height="48" fill="#1a1a1a" stroke="#333333" stroke-width="1" rx="4"/>
    <svg x="8" y="8" width="32" height="32" viewBox="0 0 256 256" style="color: #ffffff; fill: #ffffff;">
      <path d="M235.39,92.29A11.82,11.82,0,0,0,224,84H160L139.42,20.47a11.93,11.93,0,0,0-22.83,0L96,84H32a12,12,0,0,0-7,21.72L76.82,143,57,204.25a11.83,11.83,0,0,0,4.36,13.41,11.8,11.8,0,0,0,14.09,0L128,179.83l52.58,37.83a12,12,0,0,0,18.47-13.41L179.18,143,231,105.7A11.83,11.83,0,0,0,235.39,92.29ZM124.21,22.88a3.93,3.93,0,0,1,7.59,0L151.62,84H104.38ZM29.67,99.23A4,4,0,0,1,32,92H93.37l-14,43Zm41,112a4,4,0,0,1-6.15-4.47h0l19.08-58.8,37.51,27Zm15.52-71.26L101.78,92h52.44l15.55,47.93L128,170Zm105.21,66.79a4,4,0,0,1-6.17,4.46L134.85,174.9l37.51-27Zm34.9-107.5L176.59,135l-14-43H224a4,4,0,0,1,2.36,7.22Z"/>
    </svg>
  </g>
  <!-- Icon 13: open-ai-logo-thin -->
  <g transform="translate(320, 80)">
    <rect width="48" height="48" fill="#1a1a1a" stroke="#333333" stroke-width="1" rx="4"/>
    <svg x="8" y="8" width="32" height="32" viewBox="0 0 256 256" style="color: #ffffff; fill: #ffffff;">
      <path d="M219.68,114.91A52,52,0,0,0,162.49,42,52,52,0,0,0,70.82,55.15a52,52,0,0,0-34.5,85.94A52,52,0,0,0,70,213.16,52.33,52.33,0,0,0,83.59,215a51.66,51.66,0,0,0,9.93-1,52,52,0,0,0,91.66-13.13,52,52,0,0,0,34.5-85.94Zm-35.8-64.34a44,44,0,0,1,29.66,58.36,51.84,51.84,0,0,0-7-4.89L162,78.35a4,4,0,0,0-4,0l-50,28.87V79.5L150.5,55A43.69,43.69,0,0,1,183.88,50.57Zm-35.88,89-20,11.54-20-11.54v-23.1l20-11.54,20,11.54ZM76,72a44,44,0,0,1,78.25-27.62A52.08,52.08,0,0,0,146.5,48L102,73.73a4,4,0,0,0-2,3.46v57.74L76,121.07ZM37.4,84.93A43.72,43.72,0,0,1,68.71,63.46,52.26,52.26,0,0,0,68,72v51.38a4,4,0,0,0,2,3.46l50,28.87L96,169.57,53.5,145A44,44,0,0,1,37.4,84.93Zm34.72,120.5a44,44,0,0,1-29.66-58.36,51.84,51.84,0,0,0,7,4.89L94,177.65a4,4,0,0,0,4,0l50-28.87V176.5L105.5,201A43.69,43.69,0,0,1,72.12,205.43ZM180,184a44,44,0,0,1-78.26,27.61A51.66,51.66,0,0,0,109.5,208L154,182.27a4,4,0,0,0,2-3.46V121.07l24,13.86Zm38.6-12.93a43.72,43.72,0,0,1-31.31,21.47A52.26,52.26,0,0,0,188,184V132.62a4,4,0,0,0-2-3.46l-50-28.87,24-13.86L202.5,111A44,44,0,0,1,218.6,171.07Z"/>
    </svg>
  </g>
  <!-- Icon 14: note-pencil-thin -->
  <g transform="translate(380, 80)">
    <rect width="48" height="48" fill="#1a1a1a" stroke="#333333" stroke-width="1" rx="4"/>
    <svg x="8" y="8" width="32" height="32" viewBox="0 0 256 256" style="color: #ffffff; fill: #ffffff;">
      <path d="M226.83,61.17l-32-32a4,4,0,0,0-5.66,0l-96,96A4,4,0,0,0,92,128v32a4,4,0,0,0,4,4h32a4,4,0,0,0,2.83-1.17l96-96A4,4,0,0,0,226.83,61.17ZM126.34,156H100V129.66l68-68L194.34,88ZM200,82.34,173.66,56,192,37.66,218.34,64ZM220,128v80a12,12,0,0,1-12,12H48a12,12,0,0,1-12-12V48A12,12,0,0,1,48,36h80a4,4,0,0,1,0,8H48a4,4,0,0,0-4,4V208a4,4,0,0,0,4,4H208a4,4,0,0,0,4-4V128a4,4,0,0,1,8,0Z"/>
    </svg>
  </g>
  <!-- Icon 15: microsoft-powerpoint-logo-thin -->
  <g transform="translate(20, 140)">
    <rect width="48" height="48" fill="#1a1a1a" stroke="#333333" stroke-width="1" rx="4"/>
    <svg x="8" y="8" width="32" height="32" viewBox="0 0 256 256" style="color: #ffffff; fill: #ffffff;">
      <path d="M96,100H80a4,4,0,0,0-4,4v48a4,4,0,0,0,8,0V140H96a20,20,0,0,0,0-40Zm0,32H84V108H96a12,12,0,0,1,0,24ZM136,28A100.3,100.3,0,0,0,56,68H40A12,12,0,0,0,28,80v96a12,12,0,0,0,12,12H56A100,100,0,1,0,136,28Zm91.91,96H156V80a12,12,0,0,0-12-12h-4V36.09A92.13,92.13,0,0,1,227.91,124ZM132,36.1V68H66.26A92.36,92.36,0,0,1,132,36.1ZM36,176V80a4,4,0,0,1,4-4H144a4,4,0,0,1,4,4v96a4,4,0,0,1-4,4H40A4,4,0,0,1,36,176Zm30.26,12H132v31.9A92.36,92.36,0,0,1,66.26,188ZM140,219.91V188h4a12,12,0,0,0,12-12V132h71.91A92.13,92.13,0,0,1,140,219.91Z"/>
    </svg>
  </g>
  <!-- Icon 16: lock-thin -->
  <g transform="translate(80, 140)">
    <rect width="48" height="48" fill="#1a1a1a" stroke="#333333" stroke-width="1" rx="4"/>
    <svg x="8" y="8" width="32" height="32" viewBox="0 0 256 256" style="color: #ffffff; fill: #ffffff;">
      <path d="M208,84H172V56a44,44,0,0,0-88,0V84H48A12,12,0,0,0,36,96V208a12,12,0,0,0,12,12H208a12,12,0,0,0,12-12V96A12,12,0,0,0,208,84ZM92,56a36,36,0,0,1,72,0V84H92ZM212,208a4,4,0,0,1-4,4H48a4,4,0,0,1-4-4V96a4,4,0,0,1,4-4H208a4,4,0,0,1,4,4Zm-76-56a8,8,0,1,1-8-8A8,8,0,0,1,136,152Z"/>
    </svg>
  </g>
  <!-- Icon 17: lectern-thin -->
  <g transform="translate(140, 140)">
    <rect width="48" height="48" fill="#1a1a1a" stroke="#333333" stroke-width="1" rx="4"/>
    <svg x="8" y="8" width="32" height="32" viewBox="0 0 256 256" style="color: #ffffff; fill: #ffffff;">
      <path d="M242.72,122.63l-40-80A11.93,11.93,0,0,0,192,36H64a11.93,11.93,0,0,0-10.73,6.63l-40,80A12,12,0,0,0,24,140H124v72H96a4,4,0,0,0,0,8h64a4,4,0,0,0,0-8H132V140H232a12,12,0,0,0,10.73-17.37Zm-7.33,7.47A3.94,3.94,0,0,1,232,132H24a4,4,0,0,1-3.58-5.79l40-80A4,4,0,0,1,64,44H192a4,4,0,0,1,3.58,2.21l40,80A3.94,3.94,0,0,1,235.39,130.1ZM188,104a4,4,0,0,1-4,4H72a4,4,0,0,1,0-8H184A4,4,0,0,1,188,104Z"/>
    </svg>
  </g>
  <!-- Icon 18: hourglass-simple-medium-thin -->
  <g transform="translate(200, 140)">
    <rect width="48" height="48" fill="#1a1a1a" stroke="#333333" stroke-width="1" rx="4"/>
    <svg x="8" y="8" width="32" height="32" viewBox="0 0 256 256" style="color: #ffffff; fill: #ffffff;">
      <path d="M133.78,128l74.68-71.51A12,12,0,0,0,200,36H56a12,12,0,0,0-8.49,20.49l.07.06L122.22,128,47.61,199.45l-.07.06A12,12,0,0,0,56,220H200a12,12,0,0,0,8.42-20.55ZM87.84,84h80.32L128,122.46ZM52.33,46.47A3.93,3.93,0,0,1,56,44H200a4,4,0,0,1,2.89,6.77L176.51,76h-97L53.17,50.8A3.92,3.92,0,0,1,52.33,46.47ZM203.67,209.53A3.93,3.93,0,0,1,200,212H56a4,4,0,0,1-2.86-6.8L124,137.37V168a4,4,0,0,0,8,0V137.37l70.8,67.8A3.93,3.93,0,0,1,203.67,209.53Z"/>
    </svg>
  </g>
  <!-- Icon 19: hand-peace-thin -->
  <g transform="translate(260, 140)">
    <rect width="48" height="48" fill="#1a1a1a" stroke="#333333" stroke-width="1" rx="4"/>
    <svg x="8" y="8" width="32" height="32" viewBox="0 0 256 256" style="color: #ffffff; fill: #ffffff;">
      <path d="M208.77,32a24,24,0,0,0-44,5.79L148,100.54,131.19,37.8A24,24,0,0,0,84.82,50.22l11,41.17-15-2.9a24,24,0,0,0-17.49,43.87l-.55.35a23.85,23.85,0,0,0-10.28,15.22,24.65,24.65,0,0,0-.49,4.89V160a76,76,0,0,0,76,76h.59c41.58-.31,75.42-34.81,75.42-76.9v-3.34a51.91,51.91,0,0,0-12.17-33.35l19.34-72.19A23.82,23.82,0,0,0,208.77,32ZM94.15,36a16,16,0,0,1,29.31,3.86l16.19,60.42A24,24,0,0,0,119.07,107a24.35,24.35,0,0,0-2.24-4.25,23.75,23.75,0,0,0-12.17-9.41L92.55,48.15A15.9,15.9,0,0,1,94.15,36Zm-33.82,72.8A16,16,0,0,1,79.25,96.34l20.76,4a16,16,0,1,1-6.44,31.34l-20.79-4a16,16,0,0,1-12.45-18.87Zm0,40.72A16,16,0,0,1,79.09,137l10.11,2a16,16,0,1,1-6.42,31.35l-10-2a16,16,0,0,1-12.47-18.88ZM196,159.1c0,37.71-30.28,68.62-67.48,68.9A68,68,0,0,1,61,171.43a23.75,23.75,0,0,0,10.24,4.81h0l10,2a24.19,24.19,0,0,0,4.85.49A23.9,23.9,0,0,0,104,138.88a24.07,24.07,0,0,0,9.75-5.89,25,25,0,0,0,2.24,4.25,23.83,23.83,0,0,0,15.24,10.28l10.5,2.11A32.27,32.27,0,0,0,140,160a31.85,31.85,0,0,0,9.14,22.4,4,4,0,0,0,5.71-5.6,24,24,0,0,1-4-28.22,4,4,0,0,0-2.73-5.83l-15.35-3.07a16,16,0,1,1,6.42-31.35l21.4,4.28A44.12,44.12,0,0,1,196,155.76Zm7.45-110.95L185.3,115.88a51.6,51.6,0,0,0-23.11-11.11l-6.68-1.34,17-63.56a16,16,0,0,1,30.91,8.28Z"/>
    </svg>
  </g>
  <!-- Icon 20: globe-hemisphere-east-thin -->
  <g transform="translate(320, 140)">
    <rect width="48" height="48" fill="#1a1a1a" stroke="#333333" stroke-width="1" rx="4"/>
    <svg x="8" y="8" width="32" height="32" viewBox="0 0 256 256" style="color: #ffffff; fill: #ffffff;">
      <path d="M128,28A100,100,0,1,0,228,128,100.11,100.11,0,0,0,128,28Zm0,8a91.48,91.48,0,0,1,52,16.15V74a4,4,0,0,1-1,2.61l-22.17,25.76a4,4,0,0,1-2.49,1.35L122.9,108a3.94,3.94,0,0,1-2.88-.72l-.16-.11L100.13,94.22A12,12,0,0,0,83.2,97.33l-21,31.3a11.93,11.93,0,0,0-2,6.6L60,171.46a4,4,0,0,1-1.8,3.33l-6.65,4.36A92,92,0,0,1,128,36ZM56.32,185.6l6.29-4.13a12,12,0,0,0,5.41-10l.21-36.23a4,4,0,0,1,.67-2.2l20.95-31.3a4,4,0,0,1,5.67-1l.15.11,19.74,12.91a12,12,0,0,0,8.56,2.11l31.47-4.26a12,12,0,0,0,7.49-4.06L185.1,81.81A12,12,0,0,0,188,74V58.31A91.91,91.91,0,0,1,213.5,162l-20.57-18.82a12,12,0,0,0-12.7-2.22l-30.45,12.66a12.06,12.06,0,0,0-7.27,9.33l-2.38,16.19A12,12,0,0,0,149,192.46l21.45,5.63a4,4,0,0,1,1.82,1l5.94,6A91.85,91.85,0,0,1,56.32,185.6Zm128.43,14.76-6.86-6.88a12,12,0,0,0-5.45-3.13L151,184.72a4,4,0,0,1-3-4.45l2.39-16.2a4,4,0,0,1,2.42-3.11l30.45-12.65a4,4,0,0,1,4.24.74L210,169.62A92.43,92.43,0,0,1,184.75,200.36Z"/>
    </svg>
  </g>
  <!-- Icon 21: folder-star-thin -->
  <g transform="translate(380, 140)">
    <rect width="48" height="48" fill="#1a1a1a" stroke="#333333" stroke-width="1" rx="4"/>
    <svg x="8" y="8" width="32" height="32" viewBox="0 0 256 256" style="color: #ffffff; fill: #ffffff;">
      <path d="M216,84a4,4,0,0,1,4,4v32a4,4,0,0,0,8,0V88a12,12,0,0,0-12-12H129.66L101.17,47.51A11.93,11.93,0,0,0,92.69,44H40A12,12,0,0,0,28,56V200.61A11.4,11.4,0,0,0,39.38,212h81.18a4,4,0,0,0,0-8H39.38A3.39,3.39,0,0,1,36,200.61V84ZM40,52H92.69a4,4,0,0,1,2.82,1.17L118.34,76H36V56A4,4,0,0,1,40,52ZM235.81,160.41a4,4,0,0,0-3.5-2.79l-32.24-2.49-12.4-28.72a4,4,0,0,0-7.34,0l-12.4,28.72-32.24,2.49a4,4,0,0,0-2.24,7.08l24.46,20.19L150.45,215a4,4,0,0,0,5.91,4.41L184,203.18l27.64,16.27a4,4,0,0,0,2,.55,4.05,4.05,0,0,0,2.39-.79,4,4,0,0,0,1.49-4.17l-7.46-30.15,24.46-20.19A4,4,0,0,0,235.81,160.41Zm-32.76,19.91a4,4,0,0,0-1.33,4.05l5.78,23.36L186,195.09a4,4,0,0,0-4.06,0L160.5,207.73l5.78-23.36a4,4,0,0,0-1.33-4.05l-18.76-15.48L171,162.92a4,4,0,0,0,3.36-2.4L184,138.1l9.68,22.42a4,4,0,0,0,3.36,2.4l24.77,1.92Z"/>
    </svg>
  </g>
  <!-- Icon 22: film-script-thin -->
  <g transform="translate(20, 200)">
    <rect width="48" height="48" fill="#1a1a1a" stroke="#333333" stroke-width="1" rx="4"/>
    <svg x="8" y="8" width="32" height="32" viewBox="0 0 256 256" style="color: #ffffff; fill: #ffffff;">
      <path d="M200,28H56A12,12,0,0,0,44,40V216a12,12,0,0,0,12,12H200a12,12,0,0,0,12-12V40A12,12,0,0,0,200,28Zm4,188a4,4,0,0,1-4,4H56a4,4,0,0,1-4-4V40a4,4,0,0,1,4-4H200a4,4,0,0,1,4,4ZM92,80a8,8,0,1,1-8-8A8,8,0,0,1,92,80Zm0,96a8,8,0,1,1-8-8A8,8,0,0,1,92,176Zm0-48a8,8,0,1,1-8-8A8,8,0,0,1,92,128Z"/>
    </svg>
  </g>
  <!-- Icon 23: file-archive-thin -->
  <g transform="translate(80, 200)">
    <rect width="48" height="48" fill="#1a1a1a" stroke="#333333" stroke-width="1" rx="4"/>
    <svg x="8" y="8" width="32" height="32" viewBox="0 0 256 256" style="color: #ffffff; fill: #ffffff;">
      <path d="M210.83,85.17l-56-56A4,4,0,0,0,152,28H56A12,12,0,0,0,44,40V216a12,12,0,0,0,12,12H200a12,12,0,0,0,12-12V88A4,4,0,0,0,210.83,85.17ZM156,41.65,198.34,84H156ZM200,220H108V196h12a4,4,0,0,0,0-8H108V164h12a4,4,0,0,0,0-8H108V132h12a4,4,0,0,0,0-8H108V112a4,4,0,0,0-8,0v12H88a4,4,0,0,0,0,8h12v24H88a4,4,0,0,0,0,8h12v24H88a4,4,0,0,0,0,8h12v24H56a4,4,0,0,1-4-4V40a4,4,0,0,1,4-4h92V88a4,4,0,0,0,4,4h52V216A4,4,0,0,1,200,220Z"/>
    </svg>
  </g>
  <!-- Icon 24: ear-slash-thin -->
  <g transform="translate(140, 200)">
    <rect width="48" height="48" fill="#1a1a1a" stroke="#333333" stroke-width="1" rx="4"/>
    <svg x="8" y="8" width="32" height="32" viewBox="0 0 256 256" style="color: #ffffff; fill: #ffffff;">
      <path d="M51,37.31A4,4,0,0,0,45,42.69L58.23,57.2A83.38,83.38,0,0,0,44,104c0,31.79,11.28,42.68,21.24,52.28C73.16,163.91,80,170.51,80,188a48.05,48.05,0,0,0,48,48c13.71,0,25.52-5.87,35.08-17.45a4,4,0,0,0-6.16-5.1C148.83,223.24,139.37,228,128,228a40,40,0,0,1-40-40c0-20.89-8.75-29.33-17.21-37.48C61.55,141.61,52,132.4,52,104A75.36,75.36,0,0,1,63.8,63.33l23,25.27A43.73,43.73,0,0,0,84,104a4,4,0,0,0,8,0,36.2,36.2,0,0,1,1-8.53L141.65,149A37,37,0,0,0,140,160a20,20,0,0,0,28.24,18.21L205,218.69a4,4,0,1,0,5.92-5.38ZM160,172a12,12,0,0,1-12-12,29.55,29.55,0,0,1,.24-3.79l14.13,15.55A12.37,12.37,0,0,1,160,172ZM83.55,37.36a4,4,0,0,1,1.37-5.49A84,84,0,0,1,212,104a4,4,0,0,1-8,0A76,76,0,0,0,89,38.74,4,4,0,0,1,83.55,37.36Zm76.89,80.81A29.85,29.85,0,0,0,164,104a36,36,0,0,0-47.68-34.06,4,4,0,1,1-2.59-7.57A44,44,0,0,1,172,104a38,38,0,0,1-4.46,17.84A4,4,0,0,1,164,124a3.87,3.87,0,0,1-1.83-.45A4,4,0,0,1,160.44,118.17Z"/>
    </svg>
  </g>
  <!-- Icon 25: device-tablet-camera-thin -->
  <g transform="translate(200, 200)">
    <rect width="48" height="48" fill="#1a1a1a" stroke="#333333" stroke-width="1" rx="4"/>
    <svg x="8" y="8" width="32" height="32" viewBox="0 0 256 256" style="color: #ffffff; fill: #ffffff;">
      <path d="M192,28H64A20,20,0,0,0,44,48V208a20,20,0,0,0,20,20H192a20,20,0,0,0,20-20V48A20,20,0,0,0,192,28Zm12,180a12,12,0,0,1-12,12H64a12,12,0,0,1-12-12V48A12,12,0,0,1,64,36H192a12,12,0,0,1,12,12ZM136,68a8,8,0,1,1-8-8A8,8,0,0,1,136,68Z"/>
    </svg>
  </g>
  <!-- Icon 26: crane-thin -->
  <g transform="translate(260, 200)">
    <rect width="48" height="48" fill="#1a1a1a" stroke="#333333" stroke-width="1" rx="4"/>
    <svg x="8" y="8" width="32" height="32" viewBox="0 0 256 256" style="color: #ffffff; fill: #ffffff;">
      <path d="M226.06,20.57a4,4,0,0,0-3.94-.1L103,84H32A12,12,0,0,0,20,96V200a12,12,0,0,0,12,12h88a12,12,0,0,0,12-12V168a4.05,4.05,0,0,0-.17-1.15L108.77,90,220,30.67V160a4,4,0,0,1-4,4H200a4,4,0,0,1-4-4v-8a4,4,0,0,0-8,0v8a12,12,0,0,0,12,12h16a12,12,0,0,0,12-12V24A4,4,0,0,0,226.06,20.57ZM101,92l21.6,72H60V92ZM32,92H52v72H28V96A4,4,0,0,1,32,92Zm88,112H32a4,4,0,0,1-4-4V172h96v28A4,4,0,0,1,120,204Z"/>
    </svg>
  </g>
  <!-- Icon 27: cloud-snow-thin -->
  <g transform="translate(320, 200)">
    <rect width="48" height="48" fill="#1a1a1a" stroke="#333333" stroke-width="1" rx="4"/>
    <svg x="8" y="8" width="32" height="32" viewBox="0 0 256 256" style="color: #ffffff; fill: #ffffff;">
      <path d="M84,196a8,8,0,1,1-8-8A8,8,0,0,1,84,196Zm32,8a8,8,0,1,0,8,8A8,8,0,0,0,116,204Zm48-16a8,8,0,1,0,8,8A8,8,0,0,0,164,188ZM68,228a8,8,0,1,0,8,8A8,8,0,0,0,68,228Zm88,0a8,8,0,1,0,8,8A8,8,0,0,0,156,228ZM228,92a72.08,72.08,0,0,1-72,72H76A48,48,0,1,1,87.51,69.39,72.08,72.08,0,0,1,228,92Zm-8,0A64.06,64.06,0,0,0,92,88.23a4,4,0,0,1-8-.46,71.63,71.63,0,0,1,1.42-10.65A40,40,0,1,0,76,156h80A64.07,64.07,0,0,0,220,92Z"/>
    </svg>
  </g>
  <!-- Icon 28: chats-teardrop-thin -->
  <g transform="translate(380, 200)">
    <rect width="48" height="48" fill="#1a1a1a" stroke="#333333" stroke-width="1" rx="4"/>
    <svg x="8" y="8" width="32" height="32" viewBox="0 0 256 256" style="color: #ffffff; fill: #ffffff;">
      <path d="M166.76,76.32A76,76,0,0,0,20,104v64a12,12,0,0,0,12,12H89.33A76.13,76.13,0,0,0,160,228h64a12,12,0,0,0,12-12V152A76,76,0,0,0,166.76,76.32ZM28,168V104a68,68,0,1,1,68,68H32A4,4,0,0,1,28,168Zm200,48a4,4,0,0,1-4,4H160A68.16,68.16,0,0,1,98,180,76,76,0,0,0,169.5,84.67,68,68,0,0,1,228,152Z"/>
    </svg>
  </g>
  <!-- Icon 29: cat-thin -->
  <g transform="translate(20, 260)">
    <rect width="48" height="48" fill="#1a1a1a" stroke="#333333" stroke-width="1" rx="4"/>
    <svg x="8" y="8" width="32" height="32" viewBox="0 0 256 256" style="color: #ffffff; fill: #ffffff;">
      <path d="M220.59,36.94a11.83,11.83,0,0,0-13.08,2.61l-.19.2L187.77,62.24a107.1,107.1,0,0,0-119.54,0L48.68,39.75l-.19-.2A12,12,0,0,0,28,48v88c0,50.72,44.86,92,100,92s100-41.27,100-92V48A11.82,11.82,0,0,0,220.59,36.94ZM220,136c0,45.09-39.12,82-88,83.91V193.66l14.83-14.83a4,4,0,1,0-5.66-5.65L128,186.35l-13.17-13.17a4,4,0,1,0-5.66,5.65L124,193.66v26.26C75.12,218,36,181.1,36,136V48a3.93,3.93,0,0,1,2.47-3.7,4.39,4.39,0,0,1,1.6-.31,3.77,3.77,0,0,1,2.67,1.1L64.58,70.23a4,4,0,0,0,5.4.59A94,94,0,0,1,92,58.74V88a4,4,0,0,0,8,0V56a100.07,100.07,0,0,1,24-3.93V88a4,4,0,0,0,8,0V52.09A100.07,100.07,0,0,1,156,56V88a4,4,0,0,0,8,0V58.74a94,94,0,0,1,22,12.08,4,4,0,0,0,5.4-.59l21.84-25.11A4,4,0,0,1,220,48ZM92,140a8,8,0,1,1-8-8A8,8,0,0,1,92,140Zm88,0a8,8,0,1,1-8-8A8,8,0,0,1,180,140Z"/>
    </svg>
  </g>
  <!-- Icon 30: calendar-slash-thin -->
  <g transform="translate(80, 260)">
    <rect width="48" height="48" fill="#1a1a1a" stroke="#333333" stroke-width="1" rx="4"/>
    <svg x="8" y="8" width="32" height="32" viewBox="0 0 256 256" style="color: #ffffff; fill: #ffffff;">
      <path d="M51,37.31A4,4,0,0,0,48,36,12,12,0,0,0,36,48V208a12,12,0,0,0,12,12H208a4,4,0,0,0,3-6.69Zm-4.46,7L82.59,84H44V48A4,4,0,0,1,46.5,44.29ZM48,212a4,4,0,0,1-4-4V92H89.87L199,212ZM220,48V177.23a4,4,0,1,1-8,0V92H134.88a4,4,0,0,1,0-8H212V48a4,4,0,0,0-4-4H180V56a4,4,0,0,1-8,0V44H91.25a4,4,0,0,1,0-8H172V24a4,4,0,0,1,8,0V36h28A12,12,0,0,1,220,48Z"/>
    </svg>
  </g>
  <!-- Icon 31: boules-thin -->
  <g transform="translate(140, 260)">
    <rect width="48" height="48" fill="#1a1a1a" stroke="#333333" stroke-width="1" rx="4"/>
    <svg x="8" y="8" width="32" height="32" viewBox="0 0 256 256" style="color: #ffffff; fill: #ffffff;">
      <path d="M128,28A100,100,0,1,0,228,128,100.11,100.11,0,0,0,128,28Zm62.13,32.21L60.21,190.13a91.94,91.94,0,0,1-14.88-21.8l123-123A91.94,91.94,0,0,1,190.13,60.21Zm5.66,5.66a92.24,92.24,0,0,1,14.88,21.8l-123,123a92.24,92.24,0,0,1-21.8-14.88ZM128,36a91.4,91.4,0,0,1,32.43,5.91L41.91,160.43A92,92,0,0,1,128,36Zm0,184a91.4,91.4,0,0,1-32.43-5.91L214.09,95.57A92,92,0,0,1,128,220Z"/>
    </svg>
  </g>
  <!-- Icon 32: battery-vertical-medium-thin -->
  <g transform="translate(200, 260)">
    <rect width="48" height="48" fill="#1a1a1a" stroke="#333333" stroke-width="1" rx="4"/>
    <svg x="8" y="8" width="32" height="32" viewBox="0 0 256 256" style="color: #ffffff; fill: #ffffff;">
      <path d="M92,8a4,4,0,0,1,4-4h64a4,4,0,0,1,0,8H96A4,4,0,0,1,92,8ZM196,56V224a20,20,0,0,1-20,20H80a20,20,0,0,1-20-20V56A20,20,0,0,1,80,36h96A20,20,0,0,1,196,56Zm-8,0a12,12,0,0,0-12-12H80A12,12,0,0,0,68,56V224a12,12,0,0,0,12,12h96a12,12,0,0,0,12-12ZM160,156H96a4,4,0,0,0,0,8h64a4,4,0,0,0,0-8Zm0,40H96a4,4,0,0,0,0,8h64a4,4,0,0,0,0-8Z"/>
    </svg>
  </g>
  <!-- Icon 33: arrows-vertical-thin -->
  <g transform="translate(260, 260)">
    <rect width="48" height="48" fill="#1a1a1a" stroke="#333333" stroke-width="1" rx="4"/>
    <svg x="8" y="8" width="32" height="32" viewBox="0 0 256 256" style="color: #ffffff; fill: #ffffff;">
      <path d="M162.83,197.17a4,4,0,0,1,0,5.66l-32,32a4,4,0,0,1-5.66,0l-32-32a4,4,0,0,1,5.66-5.66L124,222.34V33.66L98.83,58.83a4,4,0,0,1-5.66-5.66l32-32a4,4,0,0,1,5.66,0l32,32a4,4,0,0,1-5.66,5.66L132,33.66V222.34l25.17-25.17A4,4,0,0,1,162.83,197.17Z"/>
    </svg>
  </g>
  <!-- Icon 34: arrow-line-right-thin -->
  <g transform="translate(320, 260)">
    <rect width="48" height="48" fill="#1a1a1a" stroke="#333333" stroke-width="1" rx="4"/>
    <svg x="8" y="8" width="32" height="32" viewBox="0 0 256 256" style="color: #ffffff; fill: #ffffff;">
      <path d="M186.83,125.17a4,4,0,0,1,0,5.66l-72,72a4,4,0,0,1-5.66-5.66L174.34,132H32a4,4,0,0,1,0-8H174.34L109.17,58.83a4,4,0,0,1,5.66-5.66ZM216,36a4,4,0,0,0-4,4V216a4,4,0,0,0,8,0V40A4,4,0,0,0,216,36Z"/>
    </svg>
  </g>
  <!-- Icon 35: arrow-bend-right-up-thin -->
  <g transform="translate(380, 260)">
    <rect width="48" height="48" fill="#1a1a1a" stroke="#333333" stroke-width="1" rx="4"/>
    <svg x="8" y="8" width="32" height="32" viewBox="0 0 256 256" style="color: #ffffff; fill: #ffffff;">
      <path d="M202.83,82.83a4,4,0,0,1-5.66,0L156,41.66V128A100.11,100.11,0,0,1,56,228a4,4,0,0,1,0-8,92.1,92.1,0,0,0,92-92V41.66L106.83,82.83a4,4,0,0,1-5.66-5.66l48-48a4,4,0,0,1,5.66,0l48,48A4,4,0,0,1,202.83,82.83Z"/>
    </svg>
  </g>

  <!-- Title Background -->
  <rect x="0" y="323" width="448" height="60" fill="#1a1a1a"/>
  
  <!-- Title -->
  <text x="20" y="348" text-anchor="start" font-family="system-ui, -apple-system, sans-serif" font-size="18" font-weight="bold" fill="#ffffff">Phosphor Icons - thin</text>

</svg>