<svg width="800" height="600" xmlns="http://www.w3.org/2000/svg">
  <!-- Background -->
  <rect width="800" height="600" fill="#ffffff"/>
  
  <!-- Header Background -->
  <rect width="800" height="80" fill="#f8f9fa"/>
  
  <!-- Title -->
  <text x="400" y="30" text-anchor="middle" font-family="system-ui, -apple-system, sans-serif" font-size="20" font-weight="bold" fill="#212529">Phosphor Icons - bold</text>
  
  <!-- Subtitle -->
  <text x="400" y="55" text-anchor="middle" font-family="system-ui, -apple-system, sans-serif" font-size="14" fill="#6c757d">1,512 icons</text>
  
  <!-- Icon Grid -->
  <!-- Icon 1: youtube-logo-bold -->
  <g transform="translate(12, 92)">
    <rect width="48" height="48" fill="#ffffff" stroke="#e9ecef" stroke-width="1" rx="4"/>
    <svg x="8" y="8" width="32" height="32" viewBox="0 0 256 256">
      <path d="M170.49,117.91l-56-36A12,12,0,0,0,96,92v72a12,12,0,0,0,18.49,10.09l56-36a12,12,0,0,0,0-20.18ZM120,142V114l21.81,14Zm118.21-73.5a28.05,28.05,0,0,0-16.93-19.14C186.4,35.91,131.29,36,128,36s-58.4-.09-93.28,13.38A28.05,28.05,0,0,0,17.79,68.52C15.15,78.72,12,97.32,12,128s3.15,49.28,5.79,59.48a28.05,28.05,0,0,0,16.93,19.14C68.21,219.55,120.36,220,127.37,220h1.26c7,0,59.16-.45,92.65-13.38a28.05,28.05,0,0,0,16.93-19.14c2.64-10.2,5.79-28.8,5.79-59.48S240.85,78.72,238.21,68.52ZM215,181.46a4,4,0,0,1-2.34,2.77C182.78,195.76,132.27,196,128.32,196h-.39c-.53,0-53.64.17-84.56-11.77A4,4,0,0,1,41,181.46c-1.88-7.24-5-23.82-5-53.46s3.15-46.22,5-53.46a4,4,0,0,1,2.34-2.77C74.29,59.83,127.39,60,127.92,60h.15c.54,0,53.64-.17,84.56,11.77A4,4,0,0,1,215,74.54c1.88,7.24,5,23.82,5,53.46S216.85,174.22,215,181.46Z"/>
    </svg>
  </g>
  <!-- Icon 2: visor-bold -->
  <g transform="translate(72, 92)">
    <rect width="48" height="48" fill="#ffffff" stroke="#e9ecef" stroke-width="1" rx="4"/>
    <svg x="8" y="8" width="32" height="32" viewBox="0 0 256 256">
      <path d="M188,104a12,12,0,0,1-12,12H80a12,12,0,0,1,0-24h96A12,12,0,0,1,188,104Zm67.91,27.63A76.29,76.29,0,0,1,182.43,204c-.56,0-1.13,0-1.69,0-14.44,0-29.37-5.78-45.58-17.64a12.08,12.08,0,0,0-14.32,0C104,198.68,88.56,204.44,73.57,204A76.29,76.29,0,0,1,.09,131.63,76,76,0,0,1,76,52H180a76,76,0,0,1,75.91,79.63ZM217.62,92.1A51.56,51.56,0,0,0,180,76H76a52,52,0,0,0-51.94,54.51A52.19,52.19,0,0,0,74.32,180c9.42.29,20-4,32.35-13a36,36,0,0,1,42.66,0c12.36,9,22.91,13.29,32.35,13a52.19,52.19,0,0,0,50.26-49.48A51.63,51.63,0,0,0,217.62,92.1Z"/>
    </svg>
  </g>
  <!-- Icon 3: twitch-logo-bold -->
  <g transform="translate(132, 92)">
    <rect width="48" height="48" fill="#ffffff" stroke="#e9ecef" stroke-width="1" rx="4"/>
    <svg x="8" y="8" width="32" height="32" viewBox="0 0 256 256">
      <path d="M208,28H48A20,20,0,0,0,28,48V192a20,20,0,0,0,20,20H60v28a12,12,0,0,0,19.68,9.22L124.34,212H165.1a20.06,20.06,0,0,0,12.81-4.64l42.89-35.74a19.93,19.93,0,0,0,7.2-15.37V48A20,20,0,0,0,208,28Zm-4,126.38L163.66,188H120a12,12,0,0,0-7.68,2.78L84,214.38V200a12,12,0,0,0-12-12H52V52H204ZM156,136V88a12,12,0,0,1,24,0v48a12,12,0,0,1-24,0Zm-48,0V88a12,12,0,0,1,24,0v48a12,12,0,0,1-24,0Z"/>
    </svg>
  </g>
  <!-- Icon 4: tire-bold -->
  <g transform="translate(192, 92)">
    <rect width="48" height="48" fill="#ffffff" stroke="#e9ecef" stroke-width="1" rx="4"/>
    <svg x="8" y="8" width="32" height="32" viewBox="0 0 256 256">
      <path d="M152,128c0-22.09,7.16-40,16-40s16,17.91,16,40-7.16,40-16,40S152,150.09,152,128Zm92,96a12,12,0,0,1-12,12H92c-18.5,0-35.3-12.22-47.32-34.4C33.92,181.74,28,155.6,28,128s5.92-53.74,16.68-73.6C56.7,32.22,73.5,20,92,20h72c18.5,0,35.3,12.22,47.32,34.4C222.08,74.26,228,100.4,228,128s-5.92,53.74-16.68,73.6a95.07,95.07,0,0,1-6.51,10.4H232A12,12,0,0,1,244,224ZM164,44c-18.92,0-40,34.5-40,84s21.08,84,40,84,40-34.5,40-84S182.92,44,164,44ZM54.33,155.59,73,142.24a12,12,0,0,1,13.94,0l14.66,10.46A186.77,186.77,0,0,1,100,128c0-3.61.11-7.2.31-10.75L80,102.75,52.09,122.68C52,124.44,52,126.21,52,128A160.1,160.1,0,0,0,54.33,155.59ZM56.54,90,73,78.24a12,12,0,0,1,13.94,0l16.91,12.07a134.79,134.79,0,0,1,12.8-35.91A95.07,95.07,0,0,1,123.19,44H92C78.44,44,63.77,61.73,56.54,90ZM92,212h31.19a95.07,95.07,0,0,1-6.51-10.4,115.79,115.79,0,0,1-6-12.91L80,166.75,61.14,180.22C69,200.08,80.88,212,92,212Z"/>
    </svg>
  </g>
  <!-- Icon 5: terminal-bold -->
  <g transform="translate(252, 92)">
    <rect width="48" height="48" fill="#ffffff" stroke="#e9ecef" stroke-width="1" rx="4"/>
    <svg x="8" y="8" width="32" height="32" viewBox="0 0 256 256">
      <path d="M120,137,48,201A12,12,0,1,1,32,183l61.91-55L32,73A12,12,0,1,1,48,55l72,64A12,12,0,0,1,120,137Zm96,43H120a12,12,0,0,0,0,24h96a12,12,0,0,0,0-24Z"/>
    </svg>
  </g>
  <!-- Icon 6: stool-bold -->
  <g transform="translate(312, 92)">
    <rect width="48" height="48" fill="#ffffff" stroke="#e9ecef" stroke-width="1" rx="4"/>
    <svg x="8" y="8" width="32" height="32" viewBox="0 0 256 256">
      <path d="M204,64V40a20,20,0,0,0-20-20H72A20,20,0,0,0,52,40V64A20,20,0,0,0,72,84h2L52.15,222.13a12,12,0,1,0,23.7,3.74L83.1,180h89.8l7.25,45.87a12,12,0,1,0,23.7-3.74L182,84h2A20,20,0,0,0,204,64ZM76,44H180V60H76Zm93.11,112H86.89L98.25,84h59.5Z"/>
    </svg>
  </g>
  <!-- Icon 7: speaker-none-bold -->
  <g transform="translate(372, 92)">
    <rect width="48" height="48" fill="#ffffff" stroke="#e9ecef" stroke-width="1" rx="4"/>
    <svg x="8" y="8" width="32" height="32" viewBox="0 0 256 256">
      <path d="M157.27,21.22a12,12,0,0,0-12.64,1.31L75.88,76H32A20,20,0,0,0,12,96v64a20,20,0,0,0,20,20H75.88l68.75,53.47A12,12,0,0,0,164,224V32A12,12,0,0,0,157.27,21.22ZM36,100H68v56H36Zm104,99.46L92,162.12V93.88l48-37.34Z"/>
    </svg>
  </g>
  <!-- Icon 8: sign-in-bold -->
  <g transform="translate(12, 152)">
    <rect width="48" height="48" fill="#ffffff" stroke="#e9ecef" stroke-width="1" rx="4"/>
    <svg x="8" y="8" width="32" height="32" viewBox="0 0 256 256">
      <path d="M144.49,136.49l-40,40a12,12,0,0,1-17-17L107,140H24a12,12,0,0,1,0-24h83L87.51,96.49a12,12,0,0,1,17-17l40,40A12,12,0,0,1,144.49,136.49ZM200,28H136a12,12,0,0,0,0,24h52V204H136a12,12,0,0,0,0,24h64a12,12,0,0,0,12-12V40A12,12,0,0,0,200,28Z"/>
    </svg>
  </g>
  <!-- Icon 9: seal-bold -->
  <g transform="translate(72, 152)">
    <rect width="48" height="48" fill="#ffffff" stroke="#e9ecef" stroke-width="1" rx="4"/>
    <svg x="8" y="8" width="32" height="32" viewBox="0 0 256 256">
      <path d="M228.75,100.05c-3.52-3.67-7.15-7.46-8.34-10.33-1.06-2.56-1.14-7.83-1.21-12.47-.15-10-.34-22.44-9.18-31.27s-21.27-9-31.27-9.18c-4.64-.07-9.91-.15-12.47-1.21-2.87-1.19-6.66-4.82-10.33-8.34C148.87,20.46,140.05,12,128,12s-20.87,8.46-27.95,15.25c-3.67,3.52-7.46,7.15-10.33,8.34-2.56,1.06-7.83,1.14-12.47,1.21C67.25,37,54.81,37.14,46,46S37,67.25,36.8,77.25c-.07,4.64-.15,9.91-1.21,12.47-1.19,2.87-4.82,6.66-8.34,10.33C20.46,107.13,12,116,12,128S20.46,148.87,27.25,156c3.52,3.67,7.15,7.46,8.34,10.33,1.06,2.56,1.14,7.83,1.21,12.47.15,10,.34,22.44,9.18,31.27s21.27,9,31.27,9.18c4.64.07,9.91.15,12.47,1.21,2.87,1.19,6.66,4.82,10.33,8.34C107.13,235.54,116,244,128,244s20.87-8.46,27.95-15.25c3.67-3.52,7.46-7.15,10.33-8.34,2.56-1.06,7.83-1.14,12.47-1.21,10-.15,22.44-.34,31.27-9.18s9-21.27,9.18-31.27c.07-4.64.15-9.91,1.21-12.47,1.19-2.87,4.82-6.66,8.34-10.33C235.54,148.87,244,140.05,244,128S235.54,107.13,228.75,100.05Zm-17.32,39.29c-4.82,5-10.28,10.72-13.2,17.76-2.81,6.8-2.92,14.16-3,21.29-.08,5.36-.19,12.71-2.15,14.66s-9.3,2.07-14.66,2.15c-7.13.11-14.49.22-21.29,3-7,2.91-12.74,8.37-17.76,13.19C135.78,214.84,130.4,220,128,220s-7.78-5.16-11.34-8.57c-5-4.82-10.72-10.28-17.76-13.2-6.8-2.81-14.16-2.92-21.29-3-5.36-.08-12.71-.19-14.66-2.15s-2.07-9.3-2.15-14.66c-.11-7.13-.22-14.49-3-21.29-2.92-7-8.38-12.73-13.2-17.76C41.16,135.78,36,130.4,36,128s5.16-7.78,8.57-11.34c4.82-5,10.28-10.72,13.2-17.76,2.81-6.8,2.92-14.16,3-21.29C60.88,72.25,61,64.9,63,63s9.3-2.07,14.66-2.15c7.13-.11,14.49-.22,21.29-3,7-2.91,12.74-8.37,17.76-13.19C120.22,41.16,125.6,36,128,36s7.78,5.16,11.34,8.57c5,4.82,10.72,10.28,17.76,13.2,6.8,2.81,14.16,2.92,21.29,3,5.36.08,12.71.19,14.66,2.15s2.07,9.3,2.15,14.66c.11,7.13.22,14.49,3,21.29,2.92,7,8.38,12.73,13.2,17.76,3.41,3.56,8.57,8.94,8.57,11.34S214.84,135.78,211.43,139.34Z"/>
    </svg>
  </g>
  <!-- Icon 10: radical-bold -->
  <g transform="translate(132, 152)">
    <rect width="48" height="48" fill="#ffffff" stroke="#e9ecef" stroke-width="1" rx="4"/>
    <svg x="8" y="8" width="32" height="32" viewBox="0 0 256 256">
      <path d="M252,80v24a12,12,0,0,1-24,0V92H136.32L91.24,212.21a12,12,0,0,1-22.47,0l-48-128a12,12,0,1,1,22.47-8.43l36.76,98,36.77-98A12,12,0,0,1,128,68H240A12,12,0,0,1,252,80Z"/>
    </svg>
  </g>
  <!-- Icon 11: placeholder-bold -->
  <g transform="translate(192, 152)">
    <rect width="48" height="48" fill="#ffffff" stroke="#e9ecef" stroke-width="1" rx="4"/>
    <svg x="8" y="8" width="32" height="32" viewBox="0 0 256 256">
      <path d="M208,28H48A20,20,0,0,0,28,48V208a20,20,0,0,0,20,20H208a20,20,0,0,0,20-20V48A20,20,0,0,0,208,28Zm-4,159L69,52H204ZM52,69,187,204H52Z"/>
    </svg>
  </g>
  <!-- Icon 12: pentagram-bold -->
  <g transform="translate(252, 152)">
    <rect width="48" height="48" fill="#ffffff" stroke="#e9ecef" stroke-width="1" rx="4"/>
    <svg x="8" y="8" width="32" height="32" viewBox="0 0 256 256">
      <path d="M243,89.83A19.94,19.94,0,0,0,224,76H165.85l-18.8-57.95A19.93,19.93,0,0,0,109,18L90.15,76H32A20,20,0,0,0,20.3,112.22l47.1,33.89-18.07,55.7A20,20,0,0,0,80.07,224.2L128,189.71l47.89,34.45a20,20,0,0,0,30.78-22.35l-18.07-55.7,47.15-33.92A20,20,0,0,0,243,89.83ZM128,37.11,140.62,76H115.38ZM44.42,100H82.36l-7.18,22.13Zm31.51,97.6,11.93-36.78,19.59,14.1Zm19.71-60.75,12-36.85h40.82l12,36.85L128,160.14Zm52.91,38.07,19.59-14.1,11.93,36.78Zm32.27-52.79L173.64,100h37.94Z"/>
    </svg>
  </g>
  <!-- Icon 13: open-ai-logo-bold -->
  <g transform="translate(312, 152)">
    <rect width="48" height="48" fill="#ffffff" stroke="#e9ecef" stroke-width="1" rx="4"/>
    <svg x="8" y="8" width="32" height="32" viewBox="0 0 256 256">
      <path d="M228.88,113.61A60,60,0,0,0,166,33.42,60,60,0,0,0,65.1,47.83a60,60,0,0,0-38,94.56A60.08,60.08,0,0,0,83.6,223a57.83,57.83,0,0,0,6.45-.36A60,60,0,0,0,190.9,208.17a60,60,0,0,0,38-94.56ZM181.81,58.3a36,36,0,0,1,26.58,37.6L170,73.73a12,12,0,0,0-12,0L120,95.67V81.81L154.5,61.9A35.74,35.74,0,0,1,181.81,58.3ZM136,123.38v9.24l-8,4.62-8-4.62v-9.24l8-4.62ZM84,72a36,36,0,0,1,56.39-29.67L102,64.49a12,12,0,0,0-6,10.39v43.88l-12-6.93ZM44.33,88.93A35.81,35.81,0,0,1,60,74.43v44.33a12,12,0,0,0,6,10.4l38,21.93L92,158,57.5,138.1A36,36,0,0,1,44.33,88.93ZM74.19,197.7a36,36,0,0,1-26.58-37.6L86,182.27a12,12,0,0,0,12,0l38-21.94v13.86L101.5,194.1A35.74,35.74,0,0,1,74.19,197.7ZM172,184a36,36,0,0,1-56.39,29.67L154,191.51a12,12,0,0,0,6-10.39V137.24l12,6.93Zm39.67-16.93A35.81,35.81,0,0,1,196,181.57V137.24a12,12,0,0,0-6-10.4l-38-21.93L164,98l34.5,19.92A36,36,0,0,1,211.67,167.07Z"/>
    </svg>
  </g>
  <!-- Icon 14: note-bold -->
  <g transform="translate(372, 152)">
    <rect width="48" height="48" fill="#ffffff" stroke="#e9ecef" stroke-width="1" rx="4"/>
    <svg x="8" y="8" width="32" height="32" viewBox="0 0 256 256">
      <path d="M84,108A12,12,0,0,1,96,96h64a12,12,0,0,1,0,24H96A12,12,0,0,1,84,108Zm32,28H96a12,12,0,0,0,0,24h20a12,12,0,0,0,0-24ZM228,48V156.69a19.86,19.86,0,0,1-5.86,14.14l-51.31,51.31A19.86,19.86,0,0,1,156.69,228H48a20,20,0,0,1-20-20V48A20,20,0,0,1,48,28H208A20,20,0,0,1,228,48ZM52,204h92V156a12,12,0,0,1,12-12h48V52H52Zm139-36H168v23Z"/>
    </svg>
  </g>
  <!-- Icon 15: microsoft-powerpoint-logo-bold -->
  <g transform="translate(12, 212)">
    <rect width="48" height="48" fill="#ffffff" stroke="#e9ecef" stroke-width="1" rx="4"/>
    <svg x="8" y="8" width="32" height="32" viewBox="0 0 256 256">
      <path d="M94,88H76a12,12,0,0,0-12,12v52a12,12,0,0,0,24,0v-4h6a30,30,0,0,0,0-60Zm0,36H88V112h6a6,6,0,0,1,0,12ZM136,20A108.16,108.16,0,0,0,59.27,52H40A20,20,0,0,0,20,72V180a20,20,0,0,0,20,20H55.5A108,108,0,1,0,136,20Zm0,24a84.12,84.12,0,0,1,83.13,72H164V72a20,20,0,0,0-20-20H100.27A83.88,83.88,0,0,1,136,44ZM44,76h96V176H44Zm92,136a83.67,83.67,0,0,1-43.32-12H144a20,20,0,0,0,20-20V140h55.13A84.12,84.12,0,0,1,136,212Z"/>
    </svg>
  </g>
  <!-- Icon 16: lock-simple-open-bold -->
  <g transform="translate(72, 212)">
    <rect width="48" height="48" fill="#ffffff" stroke="#e9ecef" stroke-width="1" rx="4"/>
    <svg x="8" y="8" width="32" height="32" viewBox="0 0 256 256">
      <path d="M208,76H100V56a28,28,0,0,1,28-28c13.51,0,25.65,9.62,28.24,22.39a12,12,0,1,0,23.52-4.78C174.87,21.5,153.1,4,128,4A52.06,52.06,0,0,0,76,56V76H48A20,20,0,0,0,28,96V208a20,20,0,0,0,20,20H208a20,20,0,0,0,20-20V96A20,20,0,0,0,208,76Zm-4,128H52V100H204Z"/>
    </svg>
  </g>
  <!-- Icon 17: lectern-bold -->
  <g transform="translate(132, 212)">
    <rect width="48" height="48" fill="#ffffff" stroke="#e9ecef" stroke-width="1" rx="4"/>
    <svg x="8" y="8" width="32" height="32" viewBox="0 0 256 256">
      <path d="M249.87,119.06l-40-80A19.89,19.89,0,0,0,192,28H64A19.89,19.89,0,0,0,46.13,39.06l-40,80A20,20,0,0,0,24,148h92v56H96a12,12,0,0,0,0,24h64a12,12,0,0,0,0-24H140V148h92a20,20,0,0,0,17.89-28.94ZM30.49,124l36-72h123l36,72ZM192,100a12,12,0,0,1-12,12H76a12,12,0,0,1,0-24H180A12,12,0,0,1,192,100Z"/>
    </svg>
  </g>
  <!-- Icon 18: hourglass-simple-high-bold -->
  <g transform="translate(192, 212)">
    <rect width="48" height="48" fill="#ffffff" stroke="#e9ecef" stroke-width="1" rx="4"/>
    <svg x="8" y="8" width="32" height="32" viewBox="0 0 256 256">
      <path d="M214,193.68,145.35,128,214,62.32l.18-.18A20,20,0,0,0,200,28H56A20,20,0,0,0,41.87,62.14l.18.18L110.65,128l-68.6,65.68-.18.18A20,20,0,0,0,56,228H200a20,20,0,0,0,14.14-34.14ZM103.58,88h48.84L128,111.39ZM190,52,177.49,64h-99L66,52ZM66,204l62-59.39L190,204Z"/>
    </svg>
  </g>
  <!-- Icon 19: hand-palm-bold -->
  <g transform="translate(252, 212)">
    <rect width="48" height="48" fill="#ffffff" stroke="#e9ecef" stroke-width="1" rx="4"/>
    <svg x="8" y="8" width="32" height="32" viewBox="0 0 256 256">
      <path d="M188,84a32,32,0,0,0-8,1V60a32,32,0,0,0-43.21-30A32,32,0,0,0,76,44v1A32,32,0,0,0,36,76v76a92,92,0,0,0,184,0V116A32,32,0,0,0,188,84Zm8,68a68,68,0,0,1-136,0V76a8,8,0,0,1,16,0v40a12,12,0,0,0,24,0V44a8,8,0,0,1,16,0v64a12,12,0,0,0,24,0V60a8,8,0,0,1,16,0v65.4A52.09,52.09,0,0,0,116,176a12,12,0,0,0,24,0,28,28,0,0,1,28-28,12,12,0,0,0,12-12V116a8,8,0,0,1,16,0Z"/>
    </svg>
  </g>
  <!-- Icon 20: globe-bold -->
  <g transform="translate(312, 212)">
    <rect width="48" height="48" fill="#ffffff" stroke="#e9ecef" stroke-width="1" rx="4"/>
    <svg x="8" y="8" width="32" height="32" viewBox="0 0 256 256">
      <path d="M128,20A108,108,0,1,0,236,128,108.12,108.12,0,0,0,128,20Zm0,187a113.4,113.4,0,0,1-20.39-35h40.82a116.94,116.94,0,0,1-10,20.77A108.61,108.61,0,0,1,128,207Zm-26.49-59a135.42,135.42,0,0,1,0-40h53a135.42,135.42,0,0,1,0,40ZM44,128a83.49,83.49,0,0,1,2.43-20H77.25a160.63,160.63,0,0,0,0,40H46.43A83.49,83.49,0,0,1,44,128Zm84-79a113.4,113.4,0,0,1,20.39,35H107.59a116.94,116.94,0,0,1,10-20.77A108.61,108.61,0,0,1,128,49Zm50.73,59h30.82a83.52,83.52,0,0,1,0,40H178.75a160.63,160.63,0,0,0,0-40Zm20.77-24H173.71a140.82,140.82,0,0,0-15.5-34.36A84.51,84.51,0,0,1,199.52,84ZM97.79,49.64A140.82,140.82,0,0,0,82.29,84H56.48A84.51,84.51,0,0,1,97.79,49.64ZM56.48,172H82.29a140.82,140.82,0,0,0,15.5,34.36A84.51,84.51,0,0,1,56.48,172Zm101.73,34.36A140.82,140.82,0,0,0,173.71,172h25.81A84.51,84.51,0,0,1,158.21,206.36Z"/>
    </svg>
  </g>
  <!-- Icon 21: folder-simple-user-bold -->
  <g transform="translate(372, 212)">
    <rect width="48" height="48" fill="#ffffff" stroke="#e9ecef" stroke-width="1" rx="4"/>
    <svg x="8" y="8" width="32" height="32" viewBox="0 0 256 256">
      <path d="M220.51,197.94a36,36,0,1,0-57,0,43.75,43.75,0,0,0-15.08,23,12,12,0,0,0,8.52,14.67A11.77,11.77,0,0,0,160,236a12,12,0,0,0,11.59-8.92C174,218.2,182.35,212,192,212s18,6.2,20.4,15.08a12,12,0,0,0,23.19-6.17A43.7,43.7,0,0,0,220.51,197.94ZM192,164a12,12,0,1,1-12,12A12,12,0,0,1,192,164Zm44-76v20a12,12,0,0,1-24,0V92H130.67a20.1,20.1,0,0,1-12-4L92,68H44V196h68a12,12,0,0,1,0,24H40a20,20,0,0,1-20-20V64A20,20,0,0,1,40,44H93.33a20.12,20.12,0,0,1,12,4L132,68h84A20,20,0,0,1,236,88Z"/>
    </svg>
  </g>
  <!-- Icon 22: film-script-bold -->
  <g transform="translate(12, 272)">
    <rect width="48" height="48" fill="#ffffff" stroke="#e9ecef" stroke-width="1" rx="4"/>
    <svg x="8" y="8" width="32" height="32" viewBox="0 0 256 256">
      <path d="M200,20H56A20,20,0,0,0,36,40V216a20,20,0,0,0,20,20H200a20,20,0,0,0,20-20V40A20,20,0,0,0,200,20Zm-4,192H60V44H196ZM76,80A16,16,0,1,1,92,96,16,16,0,0,1,76,80Zm0,96a16,16,0,1,1,16,16A16,16,0,0,1,76,176Zm0-48a16,16,0,1,1,16,16A16,16,0,0,1,76,128Z"/>
    </svg>
  </g>
  <!-- Icon 23: file-archive-bold -->
  <g transform="translate(72, 272)">
    <rect width="48" height="48" fill="#ffffff" stroke="#e9ecef" stroke-width="1" rx="4"/>
    <svg x="8" y="8" width="32" height="32" viewBox="0 0 256 256">
      <path d="M216.49,79.51l-56-56A12,12,0,0,0,152,20H56A20,20,0,0,0,36,40V216a20,20,0,0,0,20,20H200a20,20,0,0,0,20-20V88A12,12,0,0,0,216.49,79.51ZM183,80H160V57ZM116,212V192h8a12,12,0,0,0,0-24h-8V152h8a12,12,0,0,0,0-24h-8V116a12,12,0,0,0-24,0v12H84a12,12,0,0,0,0,24h8v16H84a12,12,0,0,0,0,24h8v20H60V44h76V92a12,12,0,0,0,12,12h48V212Z"/>
    </svg>
  </g>
  <!-- Icon 24: ear-bold -->
  <g transform="translate(132, 272)">
    <rect width="48" height="48" fill="#ffffff" stroke="#e9ecef" stroke-width="1" rx="4"/>
    <svg x="8" y="8" width="32" height="32" viewBox="0 0 256 256">
      <path d="M220,104a12,12,0,0,1-24,0,68,68,0,0,0-136,0c0,25,7.58,32.3,16.35,40.76S96,163.71,96,188a32,32,0,0,0,32,32c9,0,16.19-3.7,22.75-11.64a12,12,0,0,1,18.5,15.28C158.09,237.15,144.21,244,128,244a56.06,56.06,0,0,1-56-56c0-14.09-4.63-18.56-12.31-26C49.13,151.86,36,139.19,36,104a92,92,0,0,1,184,0Zm-40.13,53.61a12,12,0,0,0-16.4,4.38,4,4,0,0,1-7.47-2c0-7.61,3.65-12.86,9.6-20.8C172,130.65,180,120,180,104a52,52,0,0,0-104,0,12,12,0,0,0,24,0,28,28,0,0,1,56,0c0,7.61-3.65,12.86-9.6,20.8C140,133.35,132,144,132,160a28,28,0,0,0,52.25,14A12,12,0,0,0,179.87,157.61Z"/>
    </svg>
  </g>
  <!-- Icon 25: device-tablet-bold -->
  <g transform="translate(192, 272)">
    <rect width="48" height="48" fill="#ffffff" stroke="#e9ecef" stroke-width="1" rx="4"/>
    <svg x="8" y="8" width="32" height="32" viewBox="0 0 256 256">
      <path d="M192,20H64A28,28,0,0,0,36,48V208a28,28,0,0,0,28,28H192a28,28,0,0,0,28-28V48A28,28,0,0,0,192,20ZM60,84H196v88H60Zm4-40H192a4,4,0,0,1,4,4V60H60V48A4,4,0,0,1,64,44ZM192,212H64a4,4,0,0,1-4-4V196H196v12A4,4,0,0,1,192,212Z"/>
    </svg>
  </g>
  <!-- Icon 26: crane-bold -->
  <g transform="translate(252, 272)">
    <rect width="48" height="48" fill="#ffffff" stroke="#e9ecef" stroke-width="1" rx="4"/>
    <svg x="8" y="8" width="32" height="32" viewBox="0 0 256 256">
      <path d="M230.17,13.71a12,12,0,0,0-11.82-.3L101,76H32A20,20,0,0,0,12,96V200a20,20,0,0,0,20,20h88a20,20,0,0,0,20-20V168a11.86,11.86,0,0,0-.51-3.45L118.32,94,212,44V156H200v-4a12,12,0,0,0-24,0v8a20,20,0,0,0,20,20h20a20,20,0,0,0,20-20V24A12,12,0,0,0,230.17,13.71ZM95.07,100l16.8,56H76V100ZM52,100v56H36V100ZM36,196V180h80v16Z"/>
    </svg>
  </g>
  <!-- Icon 27: cloud-slash-bold -->
  <g transform="translate(312, 272)">
    <rect width="48" height="48" fill="#ffffff" stroke="#e9ecef" stroke-width="1" rx="4"/>
    <svg x="8" y="8" width="32" height="32" viewBox="0 0 256 256">
      <path d="M56.88,31.93A12,12,0,1,0,39.12,48.07L71.79,84A68,68,0,0,0,72,220h88a91.26,91.26,0,0,0,30.66-5.24l8.46,9.31a12,12,0,0,0,17.76-16.14ZM160,196H72a44,44,0,0,1-1.8-87.95A91.91,91.91,0,0,0,68,128a12,12,0,0,0,24,0,68.22,68.22,0,0,1,2.66-18.84l77.88,85.67A68.67,68.67,0,0,1,160,196Zm92-68a91.32,91.32,0,0,1-17.53,54,12,12,0,1,1-19.41-14.11,68,68,0,0,0-89.57-98.53,12,12,0,0,1-12.2-20.66A92,92,0,0,1,252,128Z"/>
    </svg>
  </g>
  <!-- Icon 28: chats-circle-bold -->
  <g transform="translate(372, 272)">
    <rect width="48" height="48" fill="#ffffff" stroke="#e9ecef" stroke-width="1" rx="4"/>
    <svg x="8" y="8" width="32" height="32" viewBox="0 0 256 256">
      <path d="M236.34,187.09A84,84,0,0,0,172.29,68.9,84,84,0,0,0,19.66,139.09l-6.84,23.26a20,20,0,0,0,24.83,24.83l23.26-6.84a83.94,83.94,0,0,0,22.76,6.74,84.06,84.06,0,0,0,111.42,41.26l23.26,6.84a20,20,0,0,0,24.83-24.83ZM62,155.5a11.88,11.88,0,0,0-3.39.49l-20.72,6.09L44,141.35a12,12,0,0,0-.93-9A60,60,0,1,1,67.7,156.92,12,12,0,0,0,62,155.5Zm150.89,24.8a12,12,0,0,0-.93,9l6.09,20.73L197.36,204a12,12,0,0,0-9.06.93A60,60,0,0,1,111,186.63a83.93,83.93,0,0,0,68.55-91.37,60,60,0,0,1,33.38,85Z"/>
    </svg>
  </g>
  <!-- Icon 29: cat-bold -->
  <g transform="translate(12, 332)">
    <rect width="48" height="48" fill="#ffffff" stroke="#e9ecef" stroke-width="1" rx="4"/>
    <svg x="8" y="8" width="32" height="32" viewBox="0 0 256 256">
      <path d="M223.65,29.53a20,20,0,0,0-21.79,4.34c-.2.2-.39.4-.57.61l-15,17.3a115.34,115.34,0,0,0-116.5,0l-15-17.3c-.18-.21-.37-.41-.57-.61A20,20,0,0,0,20,48v88c0,55.14,48.45,100,108,100s108-44.86,108-100V48A20,20,0,0,0,223.65,29.53ZM212,136c0,38.22-31.35,69.93-72,75.21V197l12.49-12.49a12,12,0,0,0-17-17L128,175l-7.51-7.52a12,12,0,0,0-17,17L116,197v14.24c-40.65-5.28-72-37-72-75.21V58.74L58.54,75.47a12,12,0,0,0,16.21,1.76A86,86,0,0,1,96,65.74V88a12,12,0,0,0,24,0V60.35q4-.35,8-.35t8,.35V88a12,12,0,0,0,24,0V65.74a86.2,86.2,0,0,1,21.25,11.49,12,12,0,0,0,16.21-1.76L212,58.74Zm-112,4a16,16,0,1,1-16-16A16,16,0,0,1,100,140Zm88,0a16,16,0,1,1-16-16A16,16,0,0,1,188,140Z"/>
    </svg>
  </g>
  <!-- Icon 30: calendar-plus-bold -->
  <g transform="translate(72, 332)">
    <rect width="48" height="48" fill="#ffffff" stroke="#e9ecef" stroke-width="1" rx="4"/>
    <svg x="8" y="8" width="32" height="32" viewBox="0 0 256 256">
      <path d="M208,28H188V24a12,12,0,0,0-24,0v4H92V24a12,12,0,0,0-24,0v4H48A20,20,0,0,0,28,48V208a20,20,0,0,0,20,20H208a20,20,0,0,0,20-20V48A20,20,0,0,0,208,28ZM68,52a12,12,0,0,0,24,0h72a12,12,0,0,0,24,0h16V76H52V52ZM52,204V100H204V204Zm112-52a12,12,0,0,1-12,12H140v12a12,12,0,0,1-24,0V164H104a12,12,0,0,1,0-24h12V128a12,12,0,0,1,24,0v12h12A12,12,0,0,1,164,152Z"/>
    </svg>
  </g>
  <!-- Icon 31: boules-bold -->
  <g transform="translate(132, 332)">
    <rect width="48" height="48" fill="#ffffff" stroke="#e9ecef" stroke-width="1" rx="4"/>
    <svg x="8" y="8" width="32" height="32" viewBox="0 0 256 256">
      <path d="M128,20A108,108,0,1,0,236,128,108.12,108.12,0,0,0,128,20Zm50.28,40.75L60.75,178.28a84.87,84.87,0,0,1-8.36-13.7L164.58,52.39A84.87,84.87,0,0,1,178.28,60.75Zm17,17a84.87,84.87,0,0,1,8.36,13.7L91.42,203.61a84.87,84.87,0,0,1-13.7-8.36ZM128,44a84.53,84.53,0,0,1,10.37.66L44.66,138.37A83.87,83.87,0,0,1,128,44Zm0,168a84.53,84.53,0,0,1-10.37-.66l93.71-93.71A83.87,83.87,0,0,1,128,212Z"/>
    </svg>
  </g>
  <!-- Icon 32: battery-vertical-medium-bold -->
  <g transform="translate(192, 332)">
    <rect width="48" height="48" fill="#ffffff" stroke="#e9ecef" stroke-width="1" rx="4"/>
    <svg x="8" y="8" width="32" height="32" viewBox="0 0 256 256">
      <path d="M92,12A12,12,0,0,1,104,0h48a12,12,0,0,1,0,24H104A12,12,0,0,1,92,12ZM204,60V228a28,28,0,0,1-28,28H80a28,28,0,0,1-28-28V60A28,28,0,0,1,80,32h96A28,28,0,0,1,204,60Zm-24,0a4,4,0,0,0-4-4H80a4,4,0,0,0-4,4V228a4,4,0,0,0,4,4h96a4,4,0,0,0,4-4Zm-24,92H100a12,12,0,0,0,0,24h56a12,12,0,0,0,0-24Zm0,40H100a12,12,0,0,0,0,24h56a12,12,0,0,0,0-24Z"/>
    </svg>
  </g>
  <!-- Icon 33: arrows-vertical-bold -->
  <g transform="translate(252, 332)">
    <rect width="48" height="48" fill="#ffffff" stroke="#e9ecef" stroke-width="1" rx="4"/>
    <svg x="8" y="8" width="32" height="32" viewBox="0 0 256 256">
      <path d="M168.49,191.51a12,12,0,0,1,0,17l-32,32a12,12,0,0,1-17,0l-32-32a12,12,0,0,1,17-17L116,203V53L104.49,64.49a12,12,0,1,1-17-17l32-32a12,12,0,0,1,17,0l32,32a12,12,0,0,1-17,17L140,53V203l11.51-11.52A12,12,0,0,1,168.49,191.51Z"/>
    </svg>
  </g>
  <!-- Icon 34: arrow-line-right-bold -->
  <g transform="translate(312, 332)">
    <rect width="48" height="48" fill="#ffffff" stroke="#e9ecef" stroke-width="1" rx="4"/>
    <svg x="8" y="8" width="32" height="32" viewBox="0 0 256 256">
      <path d="M184.49,119.51a12,12,0,0,1,0,17l-72,72a12,12,0,0,1-17-17L147,140H32a12,12,0,0,1,0-24H147L95.51,64.49a12,12,0,0,1,17-17ZM216,28a12,12,0,0,0-12,12V216a12,12,0,0,0,24,0V40A12,12,0,0,0,216,28Z"/>
    </svg>
  </g>
  <!-- Icon 35: arrow-bend-right-up-bold -->
  <g transform="translate(372, 332)">
    <rect width="48" height="48" fill="#ffffff" stroke="#e9ecef" stroke-width="1" rx="4"/>
    <svg x="8" y="8" width="32" height="32" viewBox="0 0 256 256">
      <path d="M208.49,88.49a12,12,0,0,1-17,0L164,61v67A108.12,108.12,0,0,1,56,236a12,12,0,0,1,0-24,84.09,84.09,0,0,0,84-84V61L112.49,88.49a12,12,0,0,1-17-17l48-48a12,12,0,0,1,17,0l48,48A12,12,0,0,1,208.49,88.49Z"/>
    </svg>
  </g>
  
  <!-- Footer -->
  <text x="400" y="580" text-anchor="middle" font-family="system-ui, -apple-system, sans-serif" font-size="12" fill="#6c757d">
    Showing 35 of 1512 icons
  </text>
  
</svg>