<svg width="800" height="600" xmlns="http://www.w3.org/2000/svg">
  <!-- Background -->
  <rect width="800" height="600" fill="#ffffff"/>
  
  <!-- Header Background -->
  <rect width="800" height="80" fill="#f8f9fa"/>
  
  <!-- Title -->
  <text x="400" y="30" text-anchor="middle" font-family="system-ui, -apple-system, sans-serif" font-size="20" font-weight="bold" fill="#212529">Phosphor Icons - regular</text>
  
  <!-- Subtitle -->
  <text x="400" y="55" text-anchor="middle" font-family="system-ui, -apple-system, sans-serif" font-size="14" fill="#6c757d">1,512 icons</text>
  
  <!-- Icon Grid -->
  <!-- Icon 1: youtube-logo -->
  <g transform="translate(196, 92)">
    <rect width="48" height="48" fill="#ffffff" stroke="#e9ecef" stroke-width="1" rx="4"/>
    <svg x="8" y="8" width="32" height="32" viewBox="0 0 256 256">
      <path d="M164.44,121.34l-48-32A8,8,0,0,0,104,96v64a8,8,0,0,0,12.44,6.66l48-32a8,8,0,0,0,0-13.32ZM120,145.05V111l25.58,17ZM234.33,69.52a24,24,0,0,0-14.49-16.4C185.56,39.88,131,40,128,40s-57.56-.12-91.84,13.12a24,24,0,0,0-14.49,16.4C19.08,79.5,16,97.74,16,128s3.08,48.5,5.67,58.48a24,24,0,0,0,14.49,16.41C69,215.56,120.4,216,127.34,216h1.32c6.94,0,58.37-.44,91.18-13.11a24,24,0,0,0,14.49-16.41c2.59-10,5.67-28.22,5.67-58.48S236.92,79.5,234.33,69.52Zm-15.49,113a8,8,0,0,1-4.77,5.49c-31.65,12.22-85.48,12-86,12H128c-.54,0-54.33.2-86-12a8,8,0,0,1-4.77-5.49C34.8,173.39,32,156.57,32,128s2.8-45.39,5.16-54.47A8,8,0,0,1,41.93,68c30.52-11.79,81.66-12,85.85-12h.27c.54,0,54.38-.18,86,12a8,8,0,0,1,4.77,5.49C221.2,82.61,224,99.43,224,128S221.2,173.39,218.84,182.47Z"/>
    </svg>
  </g>
  <!-- Icon 2: visor -->
  <g transform="translate(256, 92)">
    <rect width="48" height="48" fill="#ffffff" stroke="#e9ecef" stroke-width="1" rx="4"/>
    <svg x="8" y="8" width="32" height="32" viewBox="0 0 256 256">
      <path d="M183.05,56H72A72,72,0,0,0,.08,131.4c1.69,36.69,31.76,66.79,68.45,68.52,15.85.74,32-5.9,49.38-20.3a15.88,15.88,0,0,1,20.24,0C148.72,188.39,165,200,184,200a72,72,0,0,0,72-72.95C255.49,87.87,222.76,56,183.05,56Zm40.81,111.34A55.63,55.63,0,0,1,184,184c-13.88,0-27-9.51-35.65-16.67a31.91,31.91,0,0,0-40.65,0C93.52,179,80.94,184.49,69.28,183.94a56.36,56.36,0,0,1-53.22-53.28A56,56,0,0,1,72,72H183.05c31,0,56.55,24.79,56.95,55.25A55.66,55.66,0,0,1,223.86,167.34ZM184,96a8,8,0,0,1-8,8H80a8,8,0,0,1,0-16h96A8,8,0,0,1,184,96Z"/>
    </svg>
  </g>
  <!-- Icon 3: twitch-logo -->
  <g transform="translate(316, 92)">
    <rect width="48" height="48" fill="#ffffff" stroke="#e9ecef" stroke-width="1" rx="4"/>
    <svg x="8" y="8" width="32" height="32" viewBox="0 0 256 256">
      <path d="M208,32H48A16,16,0,0,0,32,48V192a16,16,0,0,0,16,16H64v32a8,8,0,0,0,13.12,6.15L122.9,208h42.2a16,16,0,0,0,10.25-3.71l42.89-35.75A15.93,15.93,0,0,0,224,156.25V48A16,16,0,0,0,208,32Zm0,124.25L165.1,192H120a8,8,0,0,0-5.12,1.85L80,222.92V200a8,8,0,0,0-8-8H48V48H208ZM160,136V88a8,8,0,0,1,16,0v48a8,8,0,0,1-16,0Zm-48,0V88a8,8,0,0,1,16,0v48a8,8,0,0,1-16,0Z"/>
    </svg>
  </g>
  <!-- Icon 4: tire -->
  <g transform="translate(376, 92)">
    <rect width="48" height="48" fill="#ffffff" stroke="#e9ecef" stroke-width="1" rx="4"/>
    <svg x="8" y="8" width="32" height="32" viewBox="0 0 256 256">
      <path d="M149.26,159.26C155.09,173.82,163.5,176,168,176s12.91-2.18,18.74-16.74c3.39-8.48,5.26-19.58,5.26-31.26s-1.87-22.78-5.26-31.26C180.91,82.18,172.5,80,168,80s-12.91,2.18-18.74,16.74C145.87,105.22,144,116.32,144,128S145.87,150.78,149.26,159.26ZM168,96.2c2.62,2.06,8,13,8,31.8s-5.38,29.74-8,31.8c-2.62-2.06-8-13-8-31.8S165.38,98.26,168,96.2ZM232,216H196.41C213.12,197.73,224,165.47,224,128c0-58.32-26.35-104-60-104H92C58.35,24,32,69.68,32,128S58.35,232,92,232H232a8,8,0,0,0,0-16ZM193.74,63.93C202.93,80.91,208,103.67,208,128s-5.07,47.09-14.26,64.07C185.38,207.5,174.82,216,164,216s-21.38-8.5-29.74-23.93C125.07,175.09,120,152.33,120,128s5.07-47.09,14.26-64.07C142.62,48.5,153.18,40,164,40S185.38,48.5,193.74,63.93ZM48,128c0-2.5.07-5,.17-7.44L80,97.83l24.43,17.45c-.28,4.16-.43,8.41-.43,12.72a179.89,179.89,0,0,0,3.07,33.5l-22.42-16a8,8,0,0,0-9.3,0l-23.74,17A161,161,0,0,1,48,128ZM62.26,63.93C70.62,48.5,81.18,40,92,40h39.59c-11.9,13-20.84,33.12-25,57.16L84.65,81.49a8,8,0,0,0-9.3,0L50.49,99.25C52.85,86,56.83,74,62.26,63.93Zm0,128.14a100.08,100.08,0,0,1-5.94-13.32L80,161.83l33.94,24.24c4.6,12,10.6,22.22,17.65,29.93H92C81.18,216,70.62,207.5,62.26,192.07Z"/>
    </svg>
  </g>
  <!-- Icon 5: terminal-window -->
  <g transform="translate(436, 92)">
    <rect width="48" height="48" fill="#ffffff" stroke="#e9ecef" stroke-width="1" rx="4"/>
    <svg x="8" y="8" width="32" height="32" viewBox="0 0 256 256">
      <path d="M128,128a8,8,0,0,1-3,6.25l-40,32a8,8,0,1,1-10-12.5L107.19,128,75,102.25a8,8,0,1,1,10-12.5l40,32A8,8,0,0,1,128,128Zm48,24H136a8,8,0,0,0,0,16h40a8,8,0,0,0,0-16Zm56-96V200a16,16,0,0,1-16,16H40a16,16,0,0,1-16-16V56A16,16,0,0,1,40,40H216A16,16,0,0,1,232,56ZM216,200V56H40V200H216Z"/>
    </svg>
  </g>
  <!-- Icon 6: stool -->
  <g transform="translate(496, 92)">
    <rect width="48" height="48" fill="#ffffff" stroke="#e9ecef" stroke-width="1" rx="4"/>
    <svg x="8" y="8" width="32" height="32" viewBox="0 0 256 256">
      <path d="M200,64V40a16,16,0,0,0-16-16H72A16,16,0,0,0,56,40V64A16,16,0,0,0,72,80h6.64L56.1,222.75a8,8,0,0,0,6.65,9.15A7.82,7.82,0,0,0,64,232a8,8,0,0,0,7.89-6.75L79.68,176h96.64l7.78,49.25A8,8,0,0,0,192,232a7.82,7.82,0,0,0,1.26-.1,8,8,0,0,0,6.65-9.15L177.36,80H184A16,16,0,0,0,200,64ZM72,40H184V64H72ZM173.79,160H82.21L94.84,80h66.32Z"/>
    </svg>
  </g>
  <!-- Icon 7: speaker-none -->
  <g transform="translate(556, 92)">
    <rect width="48" height="48" fill="#ffffff" stroke="#e9ecef" stroke-width="1" rx="4"/>
    <svg x="8" y="8" width="32" height="32" viewBox="0 0 256 256">
      <path d="M155.51,24.81a8,8,0,0,0-8.42.88L77.25,80H32A16,16,0,0,0,16,96v64a16,16,0,0,0,16,16H77.25l69.84,54.31A8,8,0,0,0,160,224V32A8,8,0,0,0,155.51,24.81ZM32,96H72v64H32ZM144,207.64,88,164.09V91.91l56-43.55Z"/>
    </svg>
  </g>
  <!-- Icon 8: sign-in -->
  <g transform="translate(196, 152)">
    <rect width="48" height="48" fill="#ffffff" stroke="#e9ecef" stroke-width="1" rx="4"/>
    <svg x="8" y="8" width="32" height="32" viewBox="0 0 256 256">
      <path d="M141.66,133.66l-40,40a8,8,0,0,1-11.32-11.32L116.69,136H24a8,8,0,0,1,0-16h92.69L90.34,93.66a8,8,0,0,1,11.32-11.32l40,40A8,8,0,0,1,141.66,133.66ZM200,32H136a8,8,0,0,0,0,16h56V208H136a8,8,0,0,0,0,16h64a8,8,0,0,0,8-8V40A8,8,0,0,0,200,32Z"/>
    </svg>
  </g>
  <!-- Icon 9: seal-check -->
  <g transform="translate(256, 152)">
    <rect width="48" height="48" fill="#ffffff" stroke="#e9ecef" stroke-width="1" rx="4"/>
    <svg x="8" y="8" width="32" height="32" viewBox="0 0 256 256">
      <path d="M225.86,102.82c-3.77-3.94-7.67-8-9.14-11.57-1.36-3.27-1.44-8.69-1.52-13.94-.15-9.76-.31-20.82-8-28.51s-18.75-7.85-28.51-8c-5.25-.08-10.67-.16-13.94-1.52-3.56-1.47-7.63-5.37-11.57-9.14C146.28,23.51,138.44,16,128,16s-18.27,7.51-25.18,14.14c-3.94,3.77-8,7.67-11.57,9.14C88,40.64,82.56,40.72,77.31,40.8c-9.76.15-20.82.31-28.51,8S41,67.55,40.8,77.31c-.08,5.25-.16,10.67-1.52,13.94-1.47,3.56-5.37,7.63-9.14,11.57C23.51,109.72,16,117.56,16,128s7.51,18.27,14.14,25.18c3.77,3.94,7.67,8,9.14,11.57,1.36,3.27,1.44,8.69,1.52,13.94.15,9.76.31,20.82,8,28.51s18.75,7.85,28.51,8c5.25.08,10.67.16,13.94,1.52,3.56,1.47,7.63,5.37,11.57,9.14C109.72,232.49,117.56,240,128,240s18.27-7.51,25.18-14.14c3.94-3.77,8-7.67,11.57-9.14,3.27-1.36,8.69-1.44,13.94-1.52,9.76-.15,20.82-.31,28.51-8s7.85-18.75,8-28.51c.08-5.25.16-10.67,1.52-13.94,1.47-3.56,5.37-7.63,9.14-11.57C232.49,146.28,240,138.44,240,128S232.49,109.73,225.86,102.82Zm-11.55,39.29c-4.79,5-9.75,10.17-12.38,16.52-2.52,6.1-2.63,13.07-2.73,19.82-.1,7-.21,14.33-3.32,17.43s-10.39,3.22-17.43,3.32c-6.75.1-13.72.21-19.82,2.73-6.35,2.63-11.52,7.59-16.52,12.38S132,224,128,224s-9.15-4.92-14.11-9.69-10.17-9.75-16.52-12.38c-6.1-2.52-13.07-2.63-19.82-2.73-7-.1-14.33-.21-17.43-3.32s-3.22-10.39-3.32-17.43c-.1-6.75-.21-13.72-2.73-19.82-2.63-6.35-7.59-11.52-12.38-16.52S32,132,32,128s4.92-9.15,9.69-14.11,9.75-10.17,12.38-16.52c2.52-6.1,2.63-13.07,2.73-19.82.1-7,.21-14.33,3.32-17.43S70.51,56.9,77.55,56.8c6.75-.1,13.72-.21,19.82-2.73,6.35-2.63,11.52-7.59,16.52-12.38S124,32,128,32s9.15,4.92,14.11,9.69,10.17,9.75,16.52,12.38c6.1,2.52,13.07,2.63,19.82,2.73,7,.1,14.33.21,17.43,3.32s3.22,10.39,3.32,17.43c.1,6.75.21,13.72,2.73,19.82,2.63,6.35,7.59,11.52,12.38,16.52S224,124,224,128,219.08,137.15,214.31,142.11ZM173.66,98.34a8,8,0,0,1,0,11.32l-56,56a8,8,0,0,1-11.32,0l-24-24a8,8,0,0,1,11.32-11.32L112,148.69l50.34-50.35A8,8,0,0,1,173.66,98.34Z"/>
    </svg>
  </g>
  <!-- Icon 10: radical -->
  <g transform="translate(316, 152)">
    <rect width="48" height="48" fill="#ffffff" stroke="#e9ecef" stroke-width="1" rx="4"/>
    <svg x="8" y="8" width="32" height="32" viewBox="0 0 256 256">
      <path d="M248,80v24a8,8,0,0,1-16,0V88H133.55L87.49,210.81a8,8,0,0,1-15,0l-48-128a8,8,0,1,1,15-5.62L80,185.22l40.51-108A8,8,0,0,1,128,72H240A8,8,0,0,1,248,80Z"/>
    </svg>
  </g>
  <!-- Icon 11: placeholder -->
  <g transform="translate(376, 152)">
    <rect width="48" height="48" fill="#ffffff" stroke="#e9ecef" stroke-width="1" rx="4"/>
    <svg x="8" y="8" width="32" height="32" viewBox="0 0 256 256">
      <path d="M208,32H48A16,16,0,0,0,32,48V208a16,16,0,0,0,16,16H208a16,16,0,0,0,16-16V48A16,16,0,0,0,208,32ZM48,208V59.31L196.69,208ZM59.31,48H208V196.7Z"/>
    </svg>
  </g>
  <!-- Icon 12: pentagram -->
  <g transform="translate(436, 152)">
    <rect width="48" height="48" fill="#ffffff" stroke="#e9ecef" stroke-width="1" rx="4"/>
    <svg x="8" y="8" width="32" height="32" viewBox="0 0 256 256">
      <path d="M239.18,91.05A15.75,15.75,0,0,0,224,80h-61L143.23,19.26a15.93,15.93,0,0,0-30.45-.05L93.06,80H32a16,16,0,0,0-9.37,29l49.46,35.58L53.15,203A15.75,15.75,0,0,0,59,220.88a15.74,15.74,0,0,0,18.77,0L128,184.75l50.23,36.13A16,16,0,0,0,202.85,203l-19-58.46,49.49-35.61A15.74,15.74,0,0,0,239.18,91.05ZM128,24.15,146.12,80H109.88ZM32,96H87.87L77.3,128.56Zm36.34,112h0l17.39-53.59,28.54,20.54Zm22.57-69.57L104.69,96h46.62l13.75,42.38L128,165Zm96.69,69.57,0,0-45.9-33,28.54-20.54Zm-8.93-79.38L168.13,96H224Z"/>
    </svg>
  </g>
  <!-- Icon 13: open-ai-logo -->
  <g transform="translate(496, 152)">
    <rect width="48" height="48" fill="#ffffff" stroke="#e9ecef" stroke-width="1" rx="4"/>
    <svg x="8" y="8" width="32" height="32" viewBox="0 0 256 256">
      <path d="M224.32,114.24a56,56,0,0,0-60.07-76.57A56,56,0,0,0,67.93,51.44a56,56,0,0,0-36.25,90.32A56,56,0,0,0,69,217,56.39,56.39,0,0,0,83.59,219a55.75,55.75,0,0,0,8.17-.61,56,56,0,0,0,96.31-13.78,56,56,0,0,0,36.25-90.32ZM182.85,54.43a40,40,0,0,1,28.56,48c-.95-.63-1.91-1.24-2.91-1.81L164,74.88a8,8,0,0,0-8,0l-44,25.41V81.81l40.5-23.38A39.76,39.76,0,0,1,182.85,54.43ZM144,137.24l-16,9.24-16-9.24V118.76l16-9.24,16,9.24ZM80,72a40,40,0,0,1,67.53-29c-1,.51-2,1-3,1.62L100,70.27a8,8,0,0,0-4,6.92V128l-16-9.24ZM40.86,86.93A39.75,39.75,0,0,1,64.12,68.57C64.05,69.71,64,70.85,64,72v51.38a8,8,0,0,0,4,6.93l44,25.4L96,165,55.5,141.57A40,40,0,0,1,40.86,86.93ZM73.15,201.57a40,40,0,0,1-28.56-48c.95.63,1.91,1.24,2.91,1.81L92,181.12a8,8,0,0,0,8,0l44-25.41v18.48l-40.5,23.38A39.76,39.76,0,0,1,73.15,201.57ZM176,184a40,40,0,0,1-67.52,29.05c1-.51,2-1.05,3-1.63L156,185.73a8,8,0,0,0,4-6.92V128l16,9.24Zm39.14-14.93a39.75,39.75,0,0,1-23.26,18.36c.07-1.14.12-2.28.12-3.43V132.62a8,8,0,0,0-4-6.93l-44-25.4,16-9.24,40.5,23.38A40,40,0,0,1,215.14,169.07Z"/>
    </svg>
  </g>
  <!-- Icon 14: note-pencil -->
  <g transform="translate(556, 152)">
    <rect width="48" height="48" fill="#ffffff" stroke="#e9ecef" stroke-width="1" rx="4"/>
    <svg x="8" y="8" width="32" height="32" viewBox="0 0 256 256">
      <path d="M229.66,58.34l-32-32a8,8,0,0,0-11.32,0l-96,96A8,8,0,0,0,88,128v32a8,8,0,0,0,8,8h32a8,8,0,0,0,5.66-2.34l96-96A8,8,0,0,0,229.66,58.34ZM124.69,152H104V131.31l64-64L188.69,88ZM200,76.69,179.31,56,192,43.31,212.69,64ZM224,128v80a16,16,0,0,1-16,16H48a16,16,0,0,1-16-16V48A16,16,0,0,1,48,32h80a8,8,0,0,1,0,16H48V208H208V128a8,8,0,0,1,16,0Z"/>
    </svg>
  </g>
  <!-- Icon 15: microsoft-powerpoint-logo -->
  <g transform="translate(196, 212)">
    <rect width="48" height="48" fill="#ffffff" stroke="#e9ecef" stroke-width="1" rx="4"/>
    <svg x="8" y="8" width="32" height="32" viewBox="0 0 256 256">
      <path d="M96,96H80a8,8,0,0,0-8,8v48a8,8,0,0,0,16,0v-8h8a24,24,0,0,0,0-48Zm0,32H88V112h8a8,8,0,0,1,0,16ZM136,24A104.33,104.33,0,0,0,54,64H40A16,16,0,0,0,24,80v96a16,16,0,0,0,16,16H54A104,104,0,1,0,136,24Zm87.63,96H160V80a16,16,0,0,0-16-16V40.37A88.13,88.13,0,0,1,223.63,120ZM128,40.37V64H75.63A88.36,88.36,0,0,1,128,40.37ZM40,80H144v47.9a.51.51,0,0,0,0,.2V176H40Zm88,112v23.63A88.36,88.36,0,0,1,75.63,192Zm16,23.63V192a16,16,0,0,0,16-16V136h63.63A88.13,88.13,0,0,1,144,215.63Z"/>
    </svg>
  </g>
  <!-- Icon 16: lock -->
  <g transform="translate(256, 212)">
    <rect width="48" height="48" fill="#ffffff" stroke="#e9ecef" stroke-width="1" rx="4"/>
    <svg x="8" y="8" width="32" height="32" viewBox="0 0 256 256">
      <path d="M208,80H176V56a48,48,0,0,0-96,0V80H48A16,16,0,0,0,32,96V208a16,16,0,0,0,16,16H208a16,16,0,0,0,16-16V96A16,16,0,0,0,208,80ZM96,56a32,32,0,0,1,64,0V80H96ZM208,208H48V96H208V208Zm-68-56a12,12,0,1,1-12-12A12,12,0,0,1,140,152Z"/>
    </svg>
  </g>
  <!-- Icon 17: lectern -->
  <g transform="translate(316, 212)">
    <rect width="48" height="48" fill="#ffffff" stroke="#e9ecef" stroke-width="1" rx="4"/>
    <svg x="8" y="8" width="32" height="32" viewBox="0 0 256 256">
      <path d="M246.3,120.84l-40-80A15.92,15.92,0,0,0,192,32H64A15.92,15.92,0,0,0,49.7,40.84l-40,80A16,16,0,0,0,24,144h96v64H96a8,8,0,0,0,0,16h64a8,8,0,0,0,0-16H136V144h96a16,16,0,0,0,14.31-23.16ZM24,128,64,48H192l40,80Zm168-24a8,8,0,0,1-8,8H72a8,8,0,0,1,0-16H184A8,8,0,0,1,192,104Z"/>
    </svg>
  </g>
  <!-- Icon 18: hourglass-simple-medium -->
  <g transform="translate(376, 212)">
    <rect width="48" height="48" fill="#ffffff" stroke="#e9ecef" stroke-width="1" rx="4"/>
    <svg x="8" y="8" width="32" height="32" viewBox="0 0 256 256">
      <path d="M211.18,196.56,139.57,128l71.61-68.56a1.59,1.59,0,0,1,.13-.13A16,16,0,0,0,200,32H56A16,16,0,0,0,44.7,59.31l.12.13L116.43,128,44.82,196.56l-.12.13A16,16,0,0,0,56,224H200a16,16,0,0,0,11.32-27.31A1.59,1.59,0,0,1,211.18,196.56ZM56,48h0v0ZM97.79,88h60.42L128,116.92ZM200,48,174.92,72H81.08L56,48ZM56,208l64-61.26V168a8,8,0,0,0,16,0V146.74L200,208Z"/>
    </svg>
  </g>
  <!-- Icon 19: hand-peace -->
  <g transform="translate(436, 212)">
    <rect width="48" height="48" fill="#ffffff" stroke="#e9ecef" stroke-width="1" rx="4"/>
    <svg x="8" y="8" width="32" height="32" viewBox="0 0 256 256">
      <path d="M212.24,30A28,28,0,0,0,161,36.77L148,85.09,135.05,36.77A28,28,0,1,0,81,51.26l9.38,35-8.73-1.68A28,28,0,0,0,56.8,132.38,27.86,27.86,0,0,0,48,152.87V160a80,80,0,0,0,80,80h.61c43.78-.33,79.39-36.62,79.39-80.9v-3.34a55.88,55.88,0,0,0-11.77-34.27L215,51.26A27.8,27.8,0,0,0,212.24,30ZM97.61,38a12,12,0,0,1,22,2.9l14.77,55.15a28,28,0,0,0-14,4.77,2.26,2.26,0,0,0-.16-.26A27.65,27.65,0,0,0,108,90.35L96.42,47.12A11.94,11.94,0,0,1,97.61,38Zm-33.36,71.6a12,12,0,0,1,14.25-9.34l20.71,4a12,12,0,0,1,9.36,14.16,12,12,0,0,1-14.25,9.34l-20.75-4a12,12,0,0,1-9.32-14.15Zm0,40.72a12,12,0,0,1,14-9.37l10.11,2a12,12,0,0,1,9.36,14.15,12,12,0,0,1-14.2,9.35l-10-2a12,12,0,0,1-9.34-14.16ZM192,159.1c0,35.53-28.49,64.64-63.5,64.9a64.08,64.08,0,0,1-61.56-44.78,30.74,30.74,0,0,0,3.48.95h0l10,2a28.33,28.33,0,0,0,5.61.57,28,28,0,0,0,24.16-42.14c.79-.43,1.57-.89,2.32-1.4l.16.26a27.82,27.82,0,0,0,17.78,12l6.32,1.26a36,36,0,0,0,9.53,32.49A8,8,0,0,0,157.71,174a20,20,0,0,1-3.31-23.51,8,8,0,0,0-5.46-11.66l-15.34-3.07a12,12,0,0,1-9.35-14.15h0a12,12,0,0,1,14.18-9.35l21.41,4.28A40.1,40.1,0,0,1,192,155.76Zm7.59-112-16.62,62a55.55,55.55,0,0,0-20-8.28l-2.5-.5L176.4,40.91a12,12,0,1,1,23.18,6.21Z"/>
    </svg>
  </g>
  <!-- Icon 20: globe-hemisphere-east -->
  <g transform="translate(496, 212)">
    <rect width="48" height="48" fill="#ffffff" stroke="#e9ecef" stroke-width="1" rx="4"/>
    <svg x="8" y="8" width="32" height="32" viewBox="0 0 256 256">
      <path d="M128,24A104,104,0,1,0,232,128,104.11,104.11,0,0,0,128,24Zm0,16a87.5,87.5,0,0,1,48,14.28V74L153.83,99.74,122.36,104l-.31-.22L102.38,90.92A16,16,0,0,0,79.87,95.1L58.93,126.4a16,16,0,0,0-2.7,8.81L56,171.44l-3.27,2.15A88,88,0,0,1,128,40ZM62.29,186.47l2.52-1.65A16,16,0,0,0,72,171.53l.21-36.23L93.17,104a3.62,3.62,0,0,0,.32.22l19.67,12.87a15.94,15.94,0,0,0,11.35,2.77L156,115.59a16,16,0,0,0,10-5.41l22.17-25.76A16,16,0,0,0,192,74V67.67A87.87,87.87,0,0,1,211.77,155l-16.14-14.76a16,16,0,0,0-16.93-3l-30.46,12.65a16.08,16.08,0,0,0-9.68,12.45l-2.39,16.19a16,16,0,0,0,11.77,17.81L169.4,202l2.36,2.37A87.88,87.88,0,0,1,62.29,186.47ZM185,195l-4.3-4.31a16,16,0,0,0-7.26-4.18L152,180.85l2.39-16.19L184.84,152,205,170.48A88.43,88.43,0,0,1,185,195Z"/>
    </svg>
  </g>
  <!-- Icon 21: folder-star -->
  <g transform="translate(556, 212)">
    <rect width="48" height="48" fill="#ffffff" stroke="#e9ecef" stroke-width="1" rx="4"/>
    <svg x="8" y="8" width="32" height="32" viewBox="0 0 256 256">
      <path d="M120.56,200H40V88H216v32a8,8,0,0,0,16,0V88a16,16,0,0,0-16-16H131.31L104,44.69A15.86,15.86,0,0,0,92.69,40H40A16,16,0,0,0,24,56V200.62A15.4,15.4,0,0,0,39.38,216h81.18a8,8,0,0,0,0-16ZM92.69,56l16,16H40V56ZM239.63,159.2a8,8,0,0,0-7-5.56l-29.84-2.31-11.43-26.5a8,8,0,0,0-14.7,0l-11.43,26.5-29.84,2.31a8,8,0,0,0-4.47,14.14l22.51,18.59-6.85,27.71a8,8,0,0,0,11.82,8.81L184,207.82l25.61,15.07a8,8,0,0,0,11.82-8.81l-6.85-27.71,22.51-18.59A8,8,0,0,0,239.63,159.2Zm-39.12,18a8,8,0,0,0-2.68,8.09l3.5,14.12-13.27-7.81a8,8,0,0,0-8.12,0l-13.27,7.81,3.5-14.12a8,8,0,0,0-2.68-8.09l-11.11-9.18,14.89-1.15a8,8,0,0,0,6.73-4.8l6-13.92,6,13.92a8,8,0,0,0,6.73,4.8l14.89,1.15Z"/>
    </svg>
  </g>
  <!-- Icon 22: film-script -->
  <g transform="translate(196, 272)">
    <rect width="48" height="48" fill="#ffffff" stroke="#e9ecef" stroke-width="1" rx="4"/>
    <svg x="8" y="8" width="32" height="32" viewBox="0 0 256 256">
      <path d="M200,24H56A16,16,0,0,0,40,40V216a16,16,0,0,0,16,16H200a16,16,0,0,0,16-16V40A16,16,0,0,0,200,24Zm0,192H56V40H200V216ZM96,76A12,12,0,1,1,84,64,12,12,0,0,1,96,76Zm0,104a12,12,0,1,1-12-12A12,12,0,0,1,96,180Zm0-52a12,12,0,1,1-12-12A12,12,0,0,1,96,128Z"/>
    </svg>
  </g>
  <!-- Icon 23: file-archive -->
  <g transform="translate(256, 272)">
    <rect width="48" height="48" fill="#ffffff" stroke="#e9ecef" stroke-width="1" rx="4"/>
    <svg x="8" y="8" width="32" height="32" viewBox="0 0 256 256">
      <path d="M213.66,82.34l-56-56A8,8,0,0,0,152,24H56A16,16,0,0,0,40,40V216a16,16,0,0,0,16,16H200a16,16,0,0,0,16-16V88A8,8,0,0,0,213.66,82.34ZM160,51.31,188.69,80H160ZM200,216H112V200h8a8,8,0,0,0,0-16h-8V168h8a8,8,0,0,0,0-16h-8V136h8a8,8,0,0,0,0-16h-8v-8a8,8,0,0,0-16,0v8H88a8,8,0,0,0,0,16h8v16H88a8,8,0,0,0,0,16h8v16H88a8,8,0,0,0,0,16h8v16H56V40h88V88a8,8,0,0,0,8,8h48V216Z"/>
    </svg>
  </g>
  <!-- Icon 24: ear-slash -->
  <g transform="translate(316, 272)">
    <rect width="48" height="48" fill="#ffffff" stroke="#e9ecef" stroke-width="1" rx="4"/>
    <svg x="8" y="8" width="32" height="32" viewBox="0 0 256 256">
      <path d="M213.92,210.62a8,8,0,1,1-11.84,10.76l-35-38.45A24,24,0,0,1,136,160a40.83,40.83,0,0,1,1.21-10L96,104.66A8,8,0,0,1,80,104a47.84,47.84,0,0,1,2.22-14.46L64.5,70A71.47,71.47,0,0,0,56,104c0,26.7,8.53,34.92,17.57,43.64C82.21,156,92,165.41,92,188a36,36,0,0,0,36,36c10.24,0,18.45-4.16,25.83-13.09a8,8,0,1,1,12.34,10.18C155.81,233.64,143,240,128,240a52.06,52.06,0,0,1-52-52c0-15.79-5.68-21.27-13.54-28.84C52.46,149.5,40,137.5,40,104A87.26,87.26,0,0,1,53.21,57.62L42.08,45.38A8,8,0,1,1,53.92,34.62ZM91.09,42.17A72,72,0,0,1,200,104a8,8,0,0,0,16,0A88,88,0,0,0,82.87,28.44a8,8,0,1,0,8.22,13.73Zm69.23,85a8,8,0,0,0,10.78-3.44A41.93,41.93,0,0,0,176,104a48,48,0,0,0-63.57-45.42,8,8,0,0,0,5.19,15.14A32,32,0,0,1,160,104a26,26,0,0,1-3.12,12.34A8,8,0,0,0,160.32,127.12Z"/>
    </svg>
  </g>
  <!-- Icon 25: device-tablet-camera -->
  <g transform="translate(376, 272)">
    <rect width="48" height="48" fill="#ffffff" stroke="#e9ecef" stroke-width="1" rx="4"/>
    <svg x="8" y="8" width="32" height="32" viewBox="0 0 256 256">
      <path d="M192,24H64A24,24,0,0,0,40,48V208a24,24,0,0,0,24,24H192a24,24,0,0,0,24-24V48A24,24,0,0,0,192,24Zm8,184a8,8,0,0,1-8,8H64a8,8,0,0,1-8-8V48a8,8,0,0,1,8-8H192a8,8,0,0,1,8,8ZM140,68a12,12,0,1,1-12-12A12,12,0,0,1,140,68Z"/>
    </svg>
  </g>
  <!-- Icon 26: crane-tower -->
  <g transform="translate(436, 272)">
    <rect width="48" height="48" fill="#ffffff" stroke="#e9ecef" stroke-width="1" rx="4"/>
    <svg x="8" y="8" width="32" height="32" viewBox="0 0 256 256">
      <path d="M240,80H108.94L87.16,36.42A8,8,0,0,0,80,32H48a8,8,0,0,0-8,8V80H24a8,8,0,0,0,0,16H40V208H24a8,8,0,0,0,0,16H128a8,8,0,0,0,0-16H112V96h96v88H192v-8a8,8,0,0,0-16,0v8a16,16,0,0,0,16,16h16a16,16,0,0,0,16-16V96h16a8,8,0,0,0,0-16ZM56,48H75.06l16,32H56Zm0,160V160H96v48Zm40-64H56V96H96Z"/>
    </svg>
  </g>
  <!-- Icon 27: cloud-snow -->
  <g transform="translate(496, 272)">
    <rect width="48" height="48" fill="#ffffff" stroke="#e9ecef" stroke-width="1" rx="4"/>
    <svg x="8" y="8" width="32" height="32" viewBox="0 0 256 256">
      <path d="M88,196a12,12,0,1,1-12-12A12,12,0,0,1,88,196Zm28,4a12,12,0,1,0,12,12A12,12,0,0,0,116,200Zm48-16a12,12,0,1,0,12,12A12,12,0,0,0,164,184ZM68,224a12,12,0,1,0,12,12A12,12,0,0,0,68,224Zm88,0a12,12,0,1,0,12,12A12,12,0,0,0,156,224ZM232,92a76.08,76.08,0,0,1-76,76H76A52,52,0,0,1,76,64a53.26,53.26,0,0,1,8.92.76A76.08,76.08,0,0,1,232,92Zm-16,0A60.06,60.06,0,0,0,96,88.46a8,8,0,0,1-16-.92q.21-3.66.77-7.23A38.11,38.11,0,0,0,76,80a36,36,0,0,0,0,72h80A60.07,60.07,0,0,0,216,92Z"/>
    </svg>
  </g>
  <!-- Icon 28: chats-teardrop -->
  <g transform="translate(556, 272)">
    <rect width="48" height="48" fill="#ffffff" stroke="#e9ecef" stroke-width="1" rx="4"/>
    <svg x="8" y="8" width="32" height="32" viewBox="0 0 256 256">
      <path d="M169.57,72.59A80,80,0,0,0,16,104v64a16,16,0,0,0,16,16H86.67A80.15,80.15,0,0,0,160,232h64a16,16,0,0,0,16-16V152A80,80,0,0,0,169.57,72.59ZM32,104a64,64,0,1,1,64,64H32ZM224,216H160a64.14,64.14,0,0,1-55.68-32.43A79.93,79.93,0,0,0,174.7,89.71,64,64,0,0,1,224,152Z"/>
    </svg>
  </g>
  <!-- Icon 29: cat -->
  <g transform="translate(196, 332)">
    <rect width="48" height="48" fill="#ffffff" stroke="#e9ecef" stroke-width="1" rx="4"/>
    <svg x="8" y="8" width="32" height="32" viewBox="0 0 256 256">
      <path d="M96,140a12,12,0,1,1-12-12A12,12,0,0,1,96,140Zm76-12a12,12,0,1,0,12,12A12,12,0,0,0,172,128Zm60-80v88c0,52.93-46.65,96-104,96S24,188.93,24,136V48A16,16,0,0,1,51.31,36.69c.14.14.26.27.38.41L69,57a111.22,111.22,0,0,1,118.1,0L204.31,37.1c.12-.14.24-.27.38-.41A16,16,0,0,1,232,48Zm-16,0-21.56,24.8A8,8,0,0,1,183.63,74,88.86,88.86,0,0,0,168,64.75V88a8,8,0,1,1-16,0V59.05a97.43,97.43,0,0,0-16-2.72V88a8,8,0,1,1-16,0V56.33a97.43,97.43,0,0,0-16,2.72V88a8,8,0,1,1-16,0V64.75A88.86,88.86,0,0,0,72.37,74a8,8,0,0,1-10.81-1.17L40,48v88c0,41.66,35.21,76,80,79.67V195.31l-13.66-13.66a8,8,0,0,1,11.32-11.31L128,180.68l10.34-10.34a8,8,0,0,1,11.32,11.31L136,195.31v20.36c44.79-3.69,80-38,80-79.67Z"/>
    </svg>
  </g>
  <!-- Icon 30: calendar-slash -->
  <g transform="translate(256, 332)">
    <rect width="48" height="48" fill="#ffffff" stroke="#e9ecef" stroke-width="1" rx="4"/>
    <svg x="8" y="8" width="32" height="32" viewBox="0 0 256 256">
      <path d="M53.92,34.62A8,8,0,0,0,48,32,16,16,0,0,0,32,48V208a16,16,0,0,0,16,16H208a8,8,0,0,0,5.92-13.38ZM73.55,80H48V51.88ZM48,208V96H88.1L189.92,208ZM224,48V177.23a8,8,0,1,1-16,0V96H134.88a8,8,0,0,1,0-16H208V48H184v8a8,8,0,0,1-16,0V48H91.25a8,8,0,0,1,0-16H168V24a8,8,0,0,1,16,0v8h24A16,16,0,0,1,224,48Z"/>
    </svg>
  </g>
  <!-- Icon 31: boules -->
  <g transform="translate(316, 332)">
    <rect width="48" height="48" fill="#ffffff" stroke="#e9ecef" stroke-width="1" rx="4"/>
    <svg x="8" y="8" width="32" height="32" viewBox="0 0 256 256">
      <path d="M128,24A104,104,0,1,0,232,128,104.11,104.11,0,0,0,128,24Zm56.28,36.41L60.4,184.28A88.33,88.33,0,0,1,50.21,169.1L169.1,50.21A87.8,87.8,0,0,1,184.28,60.41Zm11.31,11.31a87.8,87.8,0,0,1,10.2,15.18L86.9,205.79a87.8,87.8,0,0,1-15.18-10.2ZM128,40a87.81,87.81,0,0,1,25.05,3.64L43.64,153.05A88,88,0,0,1,128,40Zm0,176a87.81,87.81,0,0,1-25-3.64L212.36,103A88,88,0,0,1,128,216Z"/>
    </svg>
  </g>
  <!-- Icon 32: battery-vertical-medium -->
  <g transform="translate(376, 332)">
    <rect width="48" height="48" fill="#ffffff" stroke="#e9ecef" stroke-width="1" rx="4"/>
    <svg x="8" y="8" width="32" height="32" viewBox="0 0 256 256">
      <path d="M176,32H80A24,24,0,0,0,56,56V224a24,24,0,0,0,24,24h96a24,24,0,0,0,24-24V56A24,24,0,0,0,176,32Zm8,192a8,8,0,0,1-8,8H80a8,8,0,0,1-8-8V56a8,8,0,0,1,8-8h96a8,8,0,0,1,8,8Zm-16-24a8,8,0,0,1-8,8H96a8,8,0,0,1,0-16h64A8,8,0,0,1,168,200ZM88,8a8,8,0,0,1,8-8h64a8,8,0,0,1,0,16H96A8,8,0,0,1,88,8Zm80,152a8,8,0,0,1-8,8H96a8,8,0,0,1,0-16h64A8,8,0,0,1,168,160Z"/>
    </svg>
  </g>
  <!-- Icon 33: arrows-vertical -->
  <g transform="translate(436, 332)">
    <rect width="48" height="48" fill="#ffffff" stroke="#e9ecef" stroke-width="1" rx="4"/>
    <svg x="8" y="8" width="32" height="32" viewBox="0 0 256 256">
      <path d="M165.66,194.34a8,8,0,0,1,0,11.32l-32,32a8,8,0,0,1-11.32,0l-32-32a8,8,0,0,1,11.32-11.32L120,212.69V43.31L101.66,61.66A8,8,0,0,1,90.34,50.34l32-32a8,8,0,0,1,11.32,0l32,32a8,8,0,0,1-11.32,11.32L136,43.31V212.69l18.34-18.35A8,8,0,0,1,165.66,194.34Z"/>
    </svg>
  </g>
  <!-- Icon 34: arrow-line-right -->
  <g transform="translate(496, 332)">
    <rect width="48" height="48" fill="#ffffff" stroke="#e9ecef" stroke-width="1" rx="4"/>
    <svg x="8" y="8" width="32" height="32" viewBox="0 0 256 256">
      <path d="M189.66,122.34a8,8,0,0,1,0,11.32l-72,72a8,8,0,0,1-11.32-11.32L164.69,136H32a8,8,0,0,1,0-16H164.69L106.34,61.66a8,8,0,0,1,11.32-11.32ZM216,32a8,8,0,0,0-8,8V216a8,8,0,0,0,16,0V40A8,8,0,0,0,216,32Z"/>
    </svg>
  </g>
  <!-- Icon 35: arrow-bend-right-up -->
  <g transform="translate(556, 332)">
    <rect width="48" height="48" fill="#ffffff" stroke="#e9ecef" stroke-width="1" rx="4"/>
    <svg x="8" y="8" width="32" height="32" viewBox="0 0 256 256">
      <path d="M205.66,85.66a8,8,0,0,1-11.32,0L160,51.31V128A104.11,104.11,0,0,1,56,232a8,8,0,0,1,0-16,88.1,88.1,0,0,0,88-88V51.31L109.66,85.66A8,8,0,0,1,98.34,74.34l48-48a8,8,0,0,1,11.32,0l48,48A8,8,0,0,1,205.66,85.66Z"/>
    </svg>
  </g>
  
  <!-- Footer -->
  <text x="400" y="580" text-anchor="middle" font-family="system-ui, -apple-system, sans-serif" font-size="12" fill="#6c757d">
    Showing 35 of 1512 icons
  </text>
  
</svg>