<svg width="800" height="600" xmlns="http://www.w3.org/2000/svg">
  <!-- Background -->
  <rect width="800" height="600" fill="#ffffff"/>
  
  <!-- Header Background -->
  <rect width="800" height="80" fill="#f8f9fa"/>
  
  <!-- Title -->
  <text x="400" y="30" text-anchor="middle" font-family="system-ui, -apple-system, sans-serif" font-size="20" font-weight="bold" fill="#212529">Phosphor Icons - fill</text>
  
  <!-- Subtitle -->
  <text x="400" y="55" text-anchor="middle" font-family="system-ui, -apple-system, sans-serif" font-size="14" fill="#6c757d">1,512 icons</text>
  
  <!-- Icon Grid -->
  <!-- Icon 1: youtube-logo-fill -->
  <g transform="translate(12, 92)">
    <rect width="48" height="48" fill="#ffffff" stroke="#e9ecef" stroke-width="1" rx="4"/>
    <svg x="8" y="8" width="32" height="32" viewBox="0 0 256 256">
      <path d="M234.33,69.52a24,24,0,0,0-14.49-16.4C185.56,39.88,131,40,128,40s-57.56-.12-91.84,13.12a24,24,0,0,0-14.49,16.4C19.08,79.5,16,97.74,16,128s3.08,48.5,5.67,58.48a24,24,0,0,0,14.49,16.41C69,215.56,120.4,216,127.34,216h1.32c6.94,0,58.37-.44,91.18-13.11a24,24,0,0,0,14.49-16.41c2.59-10,5.67-28.22,5.67-58.48S236.92,79.5,234.33,69.52Zm-73.74,65-40,28A8,8,0,0,1,108,156V100a8,8,0,0,1,12.59-6.55l40,28a8,8,0,0,1,0,13.1Z"/>
    </svg>
  </g>
  <!-- Icon 2: visor-fill -->
  <g transform="translate(72, 92)">
    <rect width="48" height="48" fill="#ffffff" stroke="#e9ecef" stroke-width="1" rx="4"/>
    <svg x="8" y="8" width="32" height="32" viewBox="0 0 256 256">
      <path d="M183.05,56H72A72,72,0,0,0,.08,131.4c1.69,36.69,31.76,66.79,68.45,68.52,15.84.72,32-5.9,49.38-20.3a15.87,15.87,0,0,1,20.24,0C148.72,188.39,165,200,184,200a72,72,0,0,0,72-72.95C255.49,87.87,222.76,56,183.05,56ZM176,104H80a8,8,0,0,1,0-16h96a8,8,0,0,1,0,16Z"/>
    </svg>
  </g>
  <!-- Icon 3: twitch-logo-fill -->
  <g transform="translate(132, 92)">
    <rect width="48" height="48" fill="#ffffff" stroke="#e9ecef" stroke-width="1" rx="4"/>
    <svg x="8" y="8" width="32" height="32" viewBox="0 0 256 256">
      <path d="M208,32H48A16,16,0,0,0,32,48V192a16,16,0,0,0,16,16H64v32a8,8,0,0,0,13.12,6.15L122.9,208h42.2a16,16,0,0,0,10.25-3.71l42.89-35.75A15.93,15.93,0,0,0,224,156.25V48A16,16,0,0,0,208,32ZM128,136a8,8,0,0,1-16,0V88a8,8,0,0,1,16,0Zm48,0a8,8,0,0,1-16,0V88a8,8,0,0,1,16,0Z"/>
    </svg>
  </g>
  <!-- Icon 4: tire-fill -->
  <g transform="translate(192, 92)">
    <rect width="48" height="48" fill="#ffffff" stroke="#e9ecef" stroke-width="1" rx="4"/>
    <svg x="8" y="8" width="32" height="32" viewBox="0 0 256 256">
      <path d="M184,128c0,22.09-7.16,40-16,40s-16-17.91-16-40,7.16-40,16-40S184,105.91,184,128Zm56,96a8,8,0,0,1-8,8H92c-33.64,0-60-45.68-60-104S58.36,24,92,24h72c33.64,0,60,45.68,60,104,0,37.47-10.88,69.73-27.59,88H232A8,8,0,0,1,240,224ZM57.87,111.81a7.93,7.93,0,0,0,4.64-1.49L80,97.83l13.28,9.49a8,8,0,0,0,9.3-13L84.65,81.49a8,8,0,0,0-9.3,0L53.21,97.3a8,8,0,0,0,4.66,14.51Zm46.67,47.89L84.65,145.49a8,8,0,0,0-9.3,0L56,159.29a8,8,0,1,0,9.3,13L80,161.83l15.24,10.88a8,8,0,1,0,9.3-13Zm89.2,32.37c9.19-17,14.26-39.74,14.26-64.07s-5.07-47.09-14.26-64.07C185.38,48.5,174.82,40,164,40s-21.38,8.5-29.74,23.93C125.07,80.91,120,103.67,120,128s5.07,47.09,14.26,64.07C142.62,207.5,153.18,216,164,216S185.38,207.5,193.74,192.07Z"/>
    </svg>
  </g>
  <!-- Icon 5: terminal-fill -->
  <g transform="translate(252, 92)">
    <rect width="48" height="48" fill="#ffffff" stroke="#e9ecef" stroke-width="1" rx="4"/>
    <svg x="8" y="8" width="32" height="32" viewBox="0 0 256 256">
      <path d="M216,40H40A16,16,0,0,0,24,56V200a16,16,0,0,0,16,16H216a16,16,0,0,0,16-16V56A16,16,0,0,0,216,40ZM77.66,173.66a8,8,0,0,1-11.32-11.32L100.69,128,66.34,93.66A8,8,0,0,1,77.66,82.34l40,40a8,8,0,0,1,0,11.32ZM192,176H128a8,8,0,0,1,0-16h64a8,8,0,0,1,0,16Z"/>
    </svg>
  </g>
  <!-- Icon 6: stool-fill -->
  <g transform="translate(312, 92)">
    <rect width="48" height="48" fill="#ffffff" stroke="#e9ecef" stroke-width="1" rx="4"/>
    <svg x="8" y="8" width="32" height="32" viewBox="0 0 256 256">
      <path d="M200,64V40a16,16,0,0,0-16-16H72A16,16,0,0,0,56,40V64A16,16,0,0,0,72,80h6.64L56.1,222.75a8,8,0,0,0,6.65,9.15A7.82,7.82,0,0,0,64,232a8,8,0,0,0,7.89-6.75L79.68,176h96.64l7.78,49.25A8,8,0,0,0,192,232a7.82,7.82,0,0,0,1.26-.1,8,8,0,0,0,6.65-9.15L177.36,80H184A16,16,0,0,0,200,64Zm-26.21,96H82.21L94.84,80h66.32Z"/>
    </svg>
  </g>
  <!-- Icon 7: speaker-none-fill -->
  <g transform="translate(372, 92)">
    <rect width="48" height="48" fill="#ffffff" stroke="#e9ecef" stroke-width="1" rx="4"/>
    <svg x="8" y="8" width="32" height="32" viewBox="0 0 256 256">
      <path d="M64,84v88a4,4,0,0,1-4,4H32a16,16,0,0,1-16-16V96A16,16,0,0,1,32,80H60A4,4,0,0,1,64,84Zm93.15-58.15a8,8,0,0,0-10-.16l-65.57,51A4,4,0,0,0,80,79.84v96.32a4,4,0,0,0,1.55,3.15l65.57,51a8,8,0,0,0,9,.56,8.29,8.29,0,0,0,3.91-7.18V32.25A8.27,8.27,0,0,0,157.12,25.85Z"/>
    </svg>
  </g>
  <!-- Icon 8: sign-in-fill -->
  <g transform="translate(12, 152)">
    <rect width="48" height="48" fill="#ffffff" stroke="#e9ecef" stroke-width="1" rx="4"/>
    <svg x="8" y="8" width="32" height="32" viewBox="0 0 256 256">
      <path d="M141.66,133.66l-40,40A8,8,0,0,1,88,168V136H24a8,8,0,0,1,0-16H88V88a8,8,0,0,1,13.66-5.66l40,40A8,8,0,0,1,141.66,133.66ZM200,32H136a8,8,0,0,0,0,16h56V208H136a8,8,0,0,0,0,16h64a8,8,0,0,0,8-8V40A8,8,0,0,0,200,32Z"/>
    </svg>
  </g>
  <!-- Icon 9: seal-check-fill -->
  <g transform="translate(72, 152)">
    <rect width="48" height="48" fill="#ffffff" stroke="#e9ecef" stroke-width="1" rx="4"/>
    <svg x="8" y="8" width="32" height="32" viewBox="0 0 256 256">
      <path d="M225.86,102.82c-3.77-3.94-7.67-8-9.14-11.57-1.36-3.27-1.44-8.69-1.52-13.94-.15-9.76-.31-20.82-8-28.51s-18.75-7.85-28.51-8c-5.25-.08-10.67-.16-13.94-1.52-3.56-1.47-7.63-5.37-11.57-9.14C146.28,23.51,138.44,16,128,16s-18.27,7.51-25.18,14.14c-3.94,3.77-8,7.67-11.57,9.14C88,40.64,82.56,40.72,77.31,40.8c-9.76.15-20.82.31-28.51,8S41,67.55,40.8,77.31c-.08,5.25-.16,10.67-1.52,13.94-1.47,3.56-5.37,7.63-9.14,11.57C23.51,109.72,16,117.56,16,128s7.51,18.27,14.14,25.18c3.77,3.94,7.67,8,9.14,11.57,1.36,3.27,1.44,8.69,1.52,13.94.15,9.76.31,20.82,8,28.51s18.75,7.85,28.51,8c5.25.08,10.67.16,13.94,1.52,3.56,1.47,7.63,5.37,11.57,9.14C109.72,232.49,117.56,240,128,240s18.27-7.51,25.18-14.14c3.94-3.77,8-7.67,11.57-9.14,3.27-1.36,8.69-1.44,13.94-1.52,9.76-.15,20.82-.31,28.51-8s7.85-18.75,8-28.51c.08-5.25.16-10.67,1.52-13.94,1.47-3.56,5.37-7.63,9.14-11.57C232.49,146.28,240,138.44,240,128S232.49,109.73,225.86,102.82Zm-52.2,6.84-56,56a8,8,0,0,1-11.32,0l-24-24a8,8,0,0,1,11.32-11.32L112,148.69l50.34-50.35a8,8,0,0,1,11.32,11.32Z"/>
    </svg>
  </g>
  <!-- Icon 10: radical-fill -->
  <g transform="translate(132, 152)">
    <rect width="48" height="48" fill="#ffffff" stroke="#e9ecef" stroke-width="1" rx="4"/>
    <svg x="8" y="8" width="32" height="32" viewBox="0 0 256 256">
      <path d="M208,32H48A16,16,0,0,0,32,48V208a16,16,0,0,0,16,16H208a16,16,0,0,0,16-16V48A16,16,0,0,0,208,32Zm0,80a8,8,0,0,1-16,0v-8H125.42l-30,75a8,8,0,0,1-14.86,0l-32-80A8,8,0,1,1,63.43,93L88,154.46,112.57,93A8,8,0,0,1,120,88h80a8,8,0,0,1,8,8Z"/>
    </svg>
  </g>
  <!-- Icon 11: placeholder-fill -->
  <g transform="translate(192, 152)">
    <rect width="48" height="48" fill="#ffffff" stroke="#e9ecef" stroke-width="1" rx="4"/>
    <svg x="8" y="8" width="32" height="32" viewBox="0 0 256 256">
      <path d="M208,32H48A16,16,0,0,0,32,48V208a16,16,0,0,0,16,16H208a16,16,0,0,0,16-16V48A16,16,0,0,0,208,32ZM187.31,187.31a8,8,0,0,1-11.31,0L68.69,80A8,8,0,0,1,80,68.69L187.31,176A8,8,0,0,1,187.31,187.31Z"/>
    </svg>
  </g>
  <!-- Icon 12: pentagram-fill -->
  <g transform="translate(252, 152)">
    <rect width="48" height="48" fill="#ffffff" stroke="#e9ecef" stroke-width="1" rx="4"/>
    <svg x="8" y="8" width="32" height="32" viewBox="0 0 256 256">
      <path d="M60.18,129.52a4,4,0,0,1-6.15,2L22.66,109a15.78,15.78,0,0,1-5.82-18A16.33,16.33,0,0,1,32.43,80H70.74a4,4,0,0,1,3.81,5.24Zm-7,73.48A15.75,15.75,0,0,0,59,220.88a15.74,15.74,0,0,0,18.77,0l32.05-23.06a4,4,0,0,0,0-6.5L71.38,163.72a4,4,0,0,0-6.14,2ZM143.23,19.26a15.93,15.93,0,0,0-30.45-.05L100,58.76A4,4,0,0,0,103.76,64h48.48a4,4,0,0,0,3.81-5.23ZM160,80H96a4,4,0,0,0-3.8,2.77L73,141.77a4,4,0,0,0,1.47,4.48l51.17,36.82a4,4,0,0,0,4.68,0l51.17-36.82a4,4,0,0,0,1.47-4.48l-19.15-59A4,4,0,0,0,160,80Zm79.13,11a16.33,16.33,0,0,0-15.59-11H185.26a4,4,0,0,0-3.81,5.24l14.37,44.29a4,4,0,0,0,6.14,2l31.41-22.6A15.75,15.75,0,0,0,239.16,91Zm-54.55,72.75-38.4,27.63a4,4,0,0,0,0,6.5l32,23A16,16,0,0,0,202.85,203l-12.09-37.27A4,4,0,0,0,184.61,163.72Z"/>
    </svg>
  </g>
  <!-- Icon 13: open-ai-logo-fill -->
  <g transform="translate(312, 152)">
    <rect width="48" height="48" fill="#ffffff" stroke="#e9ecef" stroke-width="1" rx="4"/>
    <svg x="8" y="8" width="32" height="32" viewBox="0 0 256 256">
      <path d="M224.32,114.24a56,56,0,0,0-60.07-76.57A56,56,0,0,0,67.93,51.44a56,56,0,0,0-36.25,90.32A56,56,0,0,0,69,217,56.39,56.39,0,0,0,83.59,219a55.75,55.75,0,0,0,8.17-.61,56,56,0,0,0,96.31-13.78,56,56,0,0,0,36.25-90.32Zm-80.32,23-16,9.24-16-9.24V118.76l16-9.24,16,9.24Zm38.85-82.81a40,40,0,0,1,28.56,48c-.95-.63-1.91-1.24-2.91-1.81L164,74.88a8,8,0,0,0-8,0l-44,25.41V81.81l40.5-23.38A39.76,39.76,0,0,1,182.85,54.43Zm-142,32.5A39.75,39.75,0,0,1,64.12,68.57C64.05,69.71,64,70.85,64,72v51.38a8,8,0,0,0,4,6.93l44,25.4L96,165,55.5,141.57A40,40,0,0,1,40.86,86.93ZM136,224a39.79,39.79,0,0,1-27.52-10.95c1-.51,2-1.05,3-1.63L156,185.73a8,8,0,0,0,4-6.92V128l16,9.24V184A40,40,0,0,1,136,224Z"/>
    </svg>
  </g>
  <!-- Icon 14: note-fill -->
  <g transform="translate(372, 152)">
    <rect width="48" height="48" fill="#ffffff" stroke="#e9ecef" stroke-width="1" rx="4"/>
    <svg x="8" y="8" width="32" height="32" viewBox="0 0 256 256">
      <path d="M208,32H48A16,16,0,0,0,32,48V208a16,16,0,0,0,16,16H156.69A15.92,15.92,0,0,0,168,219.31L219.31,168A15.92,15.92,0,0,0,224,156.69V48A16,16,0,0,0,208,32ZM96,88h64a8,8,0,0,1,0,16H96a8,8,0,0,1,0-16Zm32,80H96a8,8,0,0,1,0-16h32a8,8,0,0,1,0,16ZM96,136a8,8,0,0,1,0-16h64a8,8,0,0,1,0,16Zm64,68.69V160h44.7Z"/>
    </svg>
  </g>
  <!-- Icon 15: microsoft-powerpoint-logo-fill -->
  <g transform="translate(12, 212)">
    <rect width="48" height="48" fill="#ffffff" stroke="#e9ecef" stroke-width="1" rx="4"/>
    <svg x="8" y="8" width="32" height="32" viewBox="0 0 256 256">
      <path d="M136,24A104.33,104.33,0,0,0,54,64H40A16,16,0,0,0,24,80v96a16,16,0,0,0,16,16H54A104,104,0,1,0,136,24ZM72,152V104a8,8,0,0,1,8-8H96a24,24,0,0,1,0,48H88v8a8,8,0,0,1-16,0Zm56,63.63A88.36,88.36,0,0,1,75.63,192H128ZM128,64H75.63A88.36,88.36,0,0,1,128,40.37Zm16-23.63A88.13,88.13,0,0,1,223.63,120H160V80a16,16,0,0,0-16-16Zm0,175.26V192a16,16,0,0,0,16-16V136h63.63A88.13,88.13,0,0,1,144,215.63ZM96,128H88V112h8a8,8,0,0,1,0,16Z"/>
    </svg>
  </g>
  <!-- Icon 16: lock-simple-open-fill -->
  <g transform="translate(72, 212)">
    <rect width="48" height="48" fill="#ffffff" stroke="#e9ecef" stroke-width="1" rx="4"/>
    <svg x="8" y="8" width="32" height="32" viewBox="0 0 256 256">
      <path d="M224,96V208a16,16,0,0,1-16,16H48a16,16,0,0,1-16-16V96A16,16,0,0,1,48,80H80V56A48.05,48.05,0,0,1,128,8c23.2,0,43.32,16.15,47.84,38.41a8,8,0,0,1-15.68,3.18C157.2,35,143.37,24,128,24A32,32,0,0,0,96,56V80H208A16,16,0,0,1,224,96Z"/>
    </svg>
  </g>
  <!-- Icon 17: lectern-fill -->
  <g transform="translate(132, 212)">
    <rect width="48" height="48" fill="#ffffff" stroke="#e9ecef" stroke-width="1" rx="4"/>
    <svg x="8" y="8" width="32" height="32" viewBox="0 0 256 256">
      <path d="M246.3,120.84l-40-80A15.92,15.92,0,0,0,192,32H64A15.92,15.92,0,0,0,49.7,40.84l-40,80A16,16,0,0,0,24,144h96v64H96a8,8,0,0,0,0,16h64a8,8,0,0,0,0-16H136V144h96a16,16,0,0,0,14.31-23.16ZM192,120H64a8,8,0,0,1,0-16H192a8,8,0,0,1,0,16Z"/>
    </svg>
  </g>
  <!-- Icon 18: hourglass-simple-high-fill -->
  <g transform="translate(192, 212)">
    <rect width="48" height="48" fill="#ffffff" stroke="#e9ecef" stroke-width="1" rx="4"/>
    <svg x="8" y="8" width="32" height="32" viewBox="0 0 256 256">
      <path d="M211.18,196.56,139.57,128l71.61-68.56a1.59,1.59,0,0,1,.13-.13A16,16,0,0,0,200,32H56A16,16,0,0,0,44.69,59.31a1.59,1.59,0,0,1,.13.13L116.43,128,44.82,196.56a1.59,1.59,0,0,1-.13.13A16,16,0,0,0,56,224H200a16,16,0,0,0,11.32-27.31A1.59,1.59,0,0,1,211.18,196.56ZM56,48h0v0Zm144,0-16.7,16H72.72L56,48ZM56,208l72-68.92L200,208Z"/>
    </svg>
  </g>
  <!-- Icon 19: hand-palm-fill -->
  <g transform="translate(252, 212)">
    <rect width="48" height="48" fill="#ffffff" stroke="#e9ecef" stroke-width="1" rx="4"/>
    <svg x="8" y="8" width="32" height="32" viewBox="0 0 256 256">
      <path d="M216,104v48a88,88,0,0,1-176,0V64a16,16,0,0,1,32,0v56a8,8,0,0,0,16,0V32a16,16,0,0,1,32,0v80a8,8,0,0,0,16,0V48a16,16,0,0,1,32,0v80.67A48.08,48.08,0,0,0,128,176a8,8,0,0,0,16,0,32,32,0,0,1,32-32,8,8,0,0,0,8-8V104a16,16,0,0,1,32,0Z"/>
    </svg>
  </g>
  <!-- Icon 20: globe-fill -->
  <g transform="translate(312, 212)">
    <rect width="48" height="48" fill="#ffffff" stroke="#e9ecef" stroke-width="1" rx="4"/>
    <svg x="8" y="8" width="32" height="32" viewBox="0 0 256 256">
      <path d="M128,24h0A104,104,0,1,0,232,128,104.12,104.12,0,0,0,128,24Zm78.36,64H170.71a135.28,135.28,0,0,0-22.3-45.6A88.29,88.29,0,0,1,206.37,88ZM216,128a87.61,87.61,0,0,1-3.33,24H174.16a157.44,157.44,0,0,0,0-48h38.51A87.61,87.61,0,0,1,216,128ZM128,43a115.27,115.27,0,0,1,26,45H102A115.11,115.11,0,0,1,128,43ZM102,168H154a115.11,115.11,0,0,1-26,45A115.27,115.27,0,0,1,102,168Zm-3.9-16a140.84,140.84,0,0,1,0-48h59.88a140.84,140.84,0,0,1,0,48Zm50.35,61.6a135.28,135.28,0,0,0,22.3-45.6h35.66A88.29,88.29,0,0,1,148.41,213.6Z"/>
    </svg>
  </g>
  <!-- Icon 21: folder-simple-user-fill -->
  <g transform="translate(372, 212)">
    <rect width="48" height="48" fill="#ffffff" stroke="#e9ecef" stroke-width="1" rx="4"/>
    <svg x="8" y="8" width="32" height="32" viewBox="0 0 256 256">
      <path d="M231.73,221.94A8,8,0,0,1,224,232H160A8,8,0,0,1,152.27,222a40,40,0,0,1,17.11-23.33,32,32,0,1,1,45.24,0A40,40,0,0,1,231.73,221.94ZM216,72H130.67L102.93,51.2a16.12,16.12,0,0,0-9.6-3.2H40A16,16,0,0,0,24,64V200a16,16,0,0,0,16,16h80a8,8,0,0,0,0-16H40V64H93.33l27.74,20.8a16.12,16.12,0,0,0,9.6,3.2H216v32a8,8,0,0,0,16,0V88A16,16,0,0,0,216,72Z"/>
    </svg>
  </g>
  <!-- Icon 22: film-script-fill -->
  <g transform="translate(12, 272)">
    <rect width="48" height="48" fill="#ffffff" stroke="#e9ecef" stroke-width="1" rx="4"/>
    <svg x="8" y="8" width="32" height="32" viewBox="0 0 256 256">
      <path d="M200,24H56A16,16,0,0,0,40,40V216a16,16,0,0,0,16,16H200a16,16,0,0,0,16-16V40A16,16,0,0,0,200,24ZM76,188a12,12,0,1,1,12-12A12,12,0,0,1,76,188Zm0-48a12,12,0,1,1,12-12A12,12,0,0,1,76,140Zm0-48A12,12,0,1,1,88,80,12,12,0,0,1,76,92Z"/>
    </svg>
  </g>
  <!-- Icon 23: file-archive-fill -->
  <g transform="translate(72, 272)">
    <rect width="48" height="48" fill="#ffffff" stroke="#e9ecef" stroke-width="1" rx="4"/>
    <svg x="8" y="8" width="32" height="32" viewBox="0 0 256 256">
      <path d="M213.66,82.34l-56-56A8,8,0,0,0,152,24H56A16,16,0,0,0,40,40V216a16,16,0,0,0,16,16H92a4,4,0,0,0,4-4V208H88.27A8.17,8.17,0,0,1,80,200.53,8,8,0,0,1,88,192h8V176H88.27A8.17,8.17,0,0,1,80,168.53,8,8,0,0,1,88,160h8V144H88.27A8.17,8.17,0,0,1,80,136.53,8,8,0,0,1,88,128h8v-7.73a8.18,8.18,0,0,1,7.47-8.25,8,8,0,0,1,8.53,8v8h7.73a8.17,8.17,0,0,1,8.25,7.47,8,8,0,0,1-8,8.53h-8v16h7.73a8.17,8.17,0,0,1,8.25,7.47,8,8,0,0,1-8,8.53h-8v16h7.73a8.17,8.17,0,0,1,8.25,7.47,8,8,0,0,1-8,8.53h-8v20a4,4,0,0,0,4,4h84a16,16,0,0,0,16-16V88A8,8,0,0,0,213.66,82.34ZM152,88V44l44,44Z"/>
    </svg>
  </g>
  <!-- Icon 24: ear-fill -->
  <g transform="translate(132, 272)">
    <rect width="48" height="48" fill="#ffffff" stroke="#e9ecef" stroke-width="1" rx="4"/>
    <svg x="8" y="8" width="32" height="32" viewBox="0 0 256 256">
      <path d="M128,24A104,104,0,1,0,232,128,104.11,104.11,0,0,0,128,24Zm20,128a4.21,4.21,0,0,0,1.33-.22,8,8,0,0,1,5.34,15.08A20,20,0,0,1,128,148c0-8.85,4.77-15.23,9-20.87,3.77-5,7-9.38,7-15.13a16,16,0,0,0-32,0,8,8,0,0,1-16,0,32,32,0,0,1,64,0c0,11.07-5.66,18.63-10.2,24.71-3.6,4.81-5.8,7.93-5.8,11.29A4,4,0,0,0,148,152Zm36-32a8,8,0,0,1-8-8,48,48,0,0,0-96,0c0,11.9,6.71,20.5,13.82,29.6,7,8.92,14.18,18.15,14.18,30.4a20,20,0,0,0,34,14.29,8,8,0,1,1,11.19,11.42A36,36,0,0,1,92,172c0-6.74-5-13.14-10.79-20.55C73.54,141.63,64,129.41,64,112a64,64,0,0,1,128,0A8,8,0,0,1,184,120Z"/>
    </svg>
  </g>
  <!-- Icon 25: device-tablet-camera-fill -->
  <g transform="translate(192, 272)">
    <rect width="48" height="48" fill="#ffffff" stroke="#e9ecef" stroke-width="1" rx="4"/>
    <svg x="8" y="8" width="32" height="32" viewBox="0 0 256 256">
      <path d="M192,24H64A24,24,0,0,0,40,48V208a24,24,0,0,0,24,24H192a24,24,0,0,0,24-24V48A24,24,0,0,0,192,24ZM128,80a12,12,0,1,1,12-12A12,12,0,0,1,128,80Z"/>
    </svg>
  </g>
  <!-- Icon 26: crane-fill -->
  <g transform="translate(252, 272)">
    <rect width="48" height="48" fill="#ffffff" stroke="#e9ecef" stroke-width="1" rx="4"/>
    <svg x="8" y="8" width="32" height="32" viewBox="0 0 256 256">
      <path d="M228.12,17.14a8,8,0,0,0-7.88-.2L102,80H32A16,16,0,0,0,16,96V200a16,16,0,0,0,16,16h88a16,16,0,0,0,16-16V168a7.31,7.31,0,0,0-.08-1.05l0-.24a9.6,9.6,0,0,0-.22-1,.09.09,0,0,0,0-.05v0a.64.64,0,0,1,0-.07L113.54,92,216,37.33V160H200v-8a8,8,0,0,0-16,0v8a16,16,0,0,0,16,16h16a16,16,0,0,0,16-16V24A8,8,0,0,0,228.12,17.14ZM48,96v64H32V96ZM32,200h0V176h88v24Z"/>
    </svg>
  </g>
  <!-- Icon 27: cloud-slash-fill -->
  <g transform="translate(312, 272)">
    <rect width="48" height="48" fill="#ffffff" stroke="#e9ecef" stroke-width="1" rx="4"/>
    <svg x="8" y="8" width="32" height="32" viewBox="0 0 256 256">
      <path d="M248,128.72A87.74,87.74,0,0,1,222.41,190a4,4,0,0,1-5.77-.16L103.78,65.67a4,4,0,0,1,.39-5.76A87.82,87.82,0,0,1,160.87,40C209.15,40.47,248.38,80.43,248,128.72ZM53.92,34.62A8,8,0,1,0,42.08,45.38L81.33,88.56l-.06.11A64,64,0,0,0,8,153c.53,35.12,29.84,63,65,63h87a87.65,87.65,0,0,0,31.78-5.95l10.3,11.33a8,8,0,0,0,11.33.52,8.32,8.32,0,0,0,.29-11.52Z"/>
    </svg>
  </g>
  <!-- Icon 28: chats-fill -->
  <g transform="translate(372, 272)">
    <rect width="48" height="48" fill="#ffffff" stroke="#e9ecef" stroke-width="1" rx="4"/>
    <svg x="8" y="8" width="32" height="32" viewBox="0 0 256 256">
      <path d="M232,96a16,16,0,0,0-16-16H184V48a16,16,0,0,0-16-16H40A16,16,0,0,0,24,48V176a8,8,0,0,0,13,6.22L72,154V184a16,16,0,0,0,16,16h93.59L219,230.22a8,8,0,0,0,5,1.78,8,8,0,0,0,8-8Zm-42.55,89.78a8,8,0,0,0-5-1.78H88V152h80a16,16,0,0,0,16-16V96h32V207.25Z"/>
    </svg>
  </g>
  <!-- Icon 29: cat-fill -->
  <g transform="translate(12, 332)">
    <rect width="48" height="48" fill="#ffffff" stroke="#e9ecef" stroke-width="1" rx="4"/>
    <svg x="8" y="8" width="32" height="32" viewBox="0 0 256 256">
      <path d="M222.83,33.54a16,16,0,0,0-18.14,3.15c-.14.14-.26.27-.38.41L187.05,57A111.28,111.28,0,0,0,69,57L51.69,37.1c-.12-.14-.24-.27-.38-.41a16,16,0,0,0-18.14-3.15A16.4,16.4,0,0,0,24,48.46V136c0,49,40.06,89.63,91.56,95.32a4,4,0,0,0,4.44-4v-32l-13.42-13.43a8.22,8.22,0,0,1-.41-11.37,8,8,0,0,1,11.49-.18L128,180.68l10.34-10.35a8,8,0,0,1,11.49.18,8.22,8.22,0,0,1-.41,11.37L136,195.31v32a4,4,0,0,0,4.44,4C191.94,225.62,232,185,232,136V48.46A16.4,16.4,0,0,0,222.83,33.54ZM84,152a12,12,0,1,1,12-12A12,12,0,0,1,84,152Zm20-64a8,8,0,1,1-16,0V69a8,8,0,0,1,16,0Zm32,0a8,8,0,1,1-16,0V64a8,8,0,0,1,16,0Zm16,0V69a8,8,0,0,1,16,0V88a8,8,0,1,1-16,0Zm20,64a12,12,0,1,1,12-12A12,12,0,0,1,172,152Z"/>
    </svg>
  </g>
  <!-- Icon 30: calendar-plus-fill -->
  <g transform="translate(72, 332)">
    <rect width="48" height="48" fill="#ffffff" stroke="#e9ecef" stroke-width="1" rx="4"/>
    <svg x="8" y="8" width="32" height="32" viewBox="0 0 256 256">
      <path d="M208,32H184V24a8,8,0,0,0-16,0v8H88V24a8,8,0,0,0-16,0v8H48A16,16,0,0,0,32,48V208a16,16,0,0,0,16,16H208a16,16,0,0,0,16-16V48A16,16,0,0,0,208,32ZM152,160H136v16a8,8,0,0,1-16,0V160H104a8,8,0,0,1,0-16h16V128a8,8,0,0,1,16,0v16h16a8,8,0,0,1,0,16ZM48,80V48H72v8a8,8,0,0,0,16,0V48h80v8a8,8,0,0,0,16,0V48h24V80Z"/>
    </svg>
  </g>
  <!-- Icon 31: boules-fill -->
  <g transform="translate(132, 332)">
    <rect width="48" height="48" fill="#ffffff" stroke="#e9ecef" stroke-width="1" rx="4"/>
    <svg x="8" y="8" width="32" height="32" viewBox="0 0 256 256">
      <path d="M232,128c0,56.63-47.38,104-104,104a103.67,103.67,0,0,1-31.52-4.89,4,4,0,0,1-1.62-6.65L220.46,94.85a4,4,0,0,1,6.65,1.62A103.69,103.69,0,0,1,232,128ZM215.84,72.39a103.16,103.16,0,0,0-6.06-8.56,4,4,0,0,0-6-.33L63.5,203.82a4,4,0,0,0,.33,6,103.16,103.16,0,0,0,8.56,6.06,4,4,0,0,0,5-.54L215.3,77.39A4,4,0,0,0,215.84,72.39ZM192.17,46.22a103.16,103.16,0,0,0-8.56-6.06,4,4,0,0,0-5,.54L40.7,178.62a4,4,0,0,0-.54,5,103.16,103.16,0,0,0,6.06,8.56,4,4,0,0,0,6,.33L192.5,52.18A4,4,0,0,0,192.17,46.22ZM159.53,28.89A103.67,103.67,0,0,0,128,24C71.38,24,24,71.37,24,128a103.69,103.69,0,0,0,4.89,31.53,4,4,0,0,0,6.65,1.62L161.15,35.54A4,4,0,0,0,159.53,28.89Z"/>
    </svg>
  </g>
  <!-- Icon 32: battery-vertical-medium-fill -->
  <g transform="translate(192, 332)">
    <rect width="48" height="48" fill="#ffffff" stroke="#e9ecef" stroke-width="1" rx="4"/>
    <svg x="8" y="8" width="32" height="32" viewBox="0 0 256 256">
      <path d="M88,8a8,8,0,0,1,8-8h64a8,8,0,0,1,0,16H96A8,8,0,0,1,88,8ZM200,56V224a24,24,0,0,1-24,24H80a24,24,0,0,1-24-24V56A24,24,0,0,1,80,32h96A24,24,0,0,1,200,56Zm-16,0a8,8,0,0,0-8-8H80a8,8,0,0,0-8,8V224a8,8,0,0,0,8,8h96a8,8,0,0,0,8-8Zm-24,88H96a8,8,0,0,0-8,8v56a8,8,0,0,0,8,8h64a8,8,0,0,0,8-8V152A8,8,0,0,0,160,144Z"/>
    </svg>
  </g>
  <!-- Icon 33: arrows-vertical-fill -->
  <g transform="translate(252, 332)">
    <rect width="48" height="48" fill="#ffffff" stroke="#e9ecef" stroke-width="1" rx="4"/>
    <svg x="8" y="8" width="32" height="32" viewBox="0 0 256 256">
      <path d="M167.39,196.94a8,8,0,0,1-1.73,8.72l-32,32a8,8,0,0,1-11.32,0l-32-32A8,8,0,0,1,96,192h24V64H96a8,8,0,0,1-5.66-13.66l32-32a8,8,0,0,1,11.32,0l32,32A8,8,0,0,1,160,64H136V192h24A8,8,0,0,1,167.39,196.94Z"/>
    </svg>
  </g>
  <!-- Icon 34: arrow-line-right-fill -->
  <g transform="translate(312, 332)">
    <rect width="48" height="48" fill="#ffffff" stroke="#e9ecef" stroke-width="1" rx="4"/>
    <svg x="8" y="8" width="32" height="32" viewBox="0 0 256 256">
      <path d="M224,40V216a8,8,0,0,1-16,0V40a8,8,0,0,1,16,0ZM117.66,50.34A8,8,0,0,0,104,56v64H32a8,8,0,0,0,0,16h72v64a8,8,0,0,0,13.66,5.66l72-72a8,8,0,0,0,0-11.32Z"/>
    </svg>
  </g>
  <!-- Icon 35: arrow-bend-right-up-fill -->
  <g transform="translate(372, 332)">
    <rect width="48" height="48" fill="#ffffff" stroke="#e9ecef" stroke-width="1" rx="4"/>
    <svg x="8" y="8" width="32" height="32" viewBox="0 0 256 256">
      <path d="M207.39,83.06A8,8,0,0,1,200,88H160v40A104.11,104.11,0,0,1,56,232a8,8,0,0,1,0-16,88.1,88.1,0,0,0,88-88V88H104a8,8,0,0,1-5.66-13.66l48-48a8,8,0,0,1,11.32,0l48,48A8,8,0,0,1,207.39,83.06Z"/>
    </svg>
  </g>
  
  <!-- Footer -->
  <text x="400" y="580" text-anchor="middle" font-family="system-ui, -apple-system, sans-serif" font-size="12" fill="#6c757d">
    Showing 35 of 1512 icons
  </text>
  
</svg>