<svg width="448" height="368" xmlns="http://www.w3.org/2000/svg">
  <!-- Background -->
  <rect width="448" height="368" fill="#1a1a1a"/>
  
  <!-- Icon Grid -->
  <!-- Icon 1: youtube-logo-light -->
  <g transform="translate(20, 20)">
    <rect width="48" height="48" fill="#1a1a1a" stroke="#333333" stroke-width="1" rx="4"/>
    <svg x="8" y="8" width="32" height="32" viewBox="0 0 256 256" style="color: #ffffff; fill: #ffffff;">
      <path d="M163.33,123l-48-32A6,6,0,0,0,106,96v64a6,6,0,0,0,9.33,5l48-32a6,6,0,0,0,0-10ZM118,148.79V107.21L149.18,128ZM232.4,70a22,22,0,0,0-13.28-15C185,41.79,130.27,42,128,42s-57-.21-91.16,13A22,22,0,0,0,23.6,70C21.05,79.89,18,98,18,128s3.05,48.11,5.6,58a22,22,0,0,0,13.28,15C71,214.21,125.72,214,128,214h.71c6.91,0,58-.44,90.45-13a22,22,0,0,0,13.28-15c2.55-9.87,5.6-27.93,5.6-58S235,79.89,232.4,70ZM220.78,183a10,10,0,0,1-6,6.86C182.78,202.19,128.58,202,128,202s-54.71.2-86.75-12.17a10,10,0,0,1-6-6.86C32.84,173.78,30,156.78,30,128s2.84-45.78,5.22-55a10,10,0,0,1,6-6.86C72.06,54.26,123.53,54,127.76,54H128c.54,0,54.71-.2,86.75,12.17a10,10,0,0,1,6,6.86c2.38,9.19,5.22,26.19,5.22,55S223.16,173.78,220.78,183Z"/>
    </svg>
  </g>
  <!-- Icon 2: visor-light -->
  <g transform="translate(80, 20)">
    <rect width="48" height="48" fill="#1a1a1a" stroke="#333333" stroke-width="1" rx="4"/>
    <svg x="8" y="8" width="32" height="32" viewBox="0 0 256 256" style="color: #ffffff; fill: #ffffff;">
      <path d="M183.05,58H72A70,70,0,0,0,2.08,131.3C3.72,167,33,196.24,68.62,197.92c15.31.71,31-5.77,48-19.84a17.89,17.89,0,0,1,22.8,0C149.75,186.66,165.6,198,184,198a70,70,0,0,0,70-70.93C253.5,89,221.67,58,183.05,58Zm42.23,110.74A57.57,57.57,0,0,1,184,186c-14.53,0-28-9.77-36.93-17.13a29.9,29.9,0,0,0-38.09,0h0c-14.58,12.09-27.6,17.67-39.78,17.1a58.36,58.36,0,0,1-55.12-55.18A58,58,0,0,1,72,70H183.05c32.09,0,58.54,25.67,58.95,57.23A57.62,57.62,0,0,1,225.28,168.74ZM182,96a6,6,0,0,1-6,6H80a6,6,0,0,1,0-12h96A6,6,0,0,1,182,96Z"/>
    </svg>
  </g>
  <!-- Icon 3: twitch-logo-light -->
  <g transform="translate(140, 20)">
    <rect width="48" height="48" fill="#1a1a1a" stroke="#333333" stroke-width="1" rx="4"/>
    <svg x="8" y="8" width="32" height="32" viewBox="0 0 256 256" style="color: #ffffff; fill: #ffffff;">
      <path d="M208,34H48A14,14,0,0,0,34,48V192a14,14,0,0,0,14,14H66v34a6,6,0,0,0,9.84,4.61L122.17,206H165.1a14,14,0,0,0,9-3.25L217,167a14,14,0,0,0,5-10.76V48A14,14,0,0,0,208,34Zm2,122.25a2,2,0,0,1-.72,1.54l-42.9,35.75a2,2,0,0,1-1.28.46H120a6,6,0,0,0-3.84,1.39L78,227.19V200a6,6,0,0,0-6-6H48a2,2,0,0,1-2-2V48a2,2,0,0,1,2-2H208a2,2,0,0,1,2,2ZM174,88v48a6,6,0,0,1-12,0V88a6,6,0,0,1,12,0Zm-48,0v48a6,6,0,0,1-12,0V88a6,6,0,0,1,12,0Z"/>
    </svg>
  </g>
  <!-- Icon 4: tire-light -->
  <g transform="translate(200, 20)">
    <rect width="48" height="48" fill="#1a1a1a" stroke="#333333" stroke-width="1" rx="4"/>
    <svg x="8" y="8" width="32" height="32" viewBox="0 0 256 256" style="color: #ffffff; fill: #ffffff;">
      <path d="M168,174c14.44,0,22-23.14,22-46s-7.56-46-22-46-22,23.14-22,46S153.56,174,168,174Zm0-80c2.57,0,10,11.69,10,34s-7.43,34-10,34-10-11.69-10-34S165.43,94,168,94Zm64,124H191.71C209.89,201,222,167.43,222,128c0-57.2-25.48-102-58-102H92C59.48,26,34,70.8,34,128S59.48,230,92,230H232a6,6,0,0,0,0-12Zm-22-90c0,48.79-21.07,90-46,90s-46-41.21-46-90,21.07-90,46-90S210,79.21,210,128ZM46,128c0-2.86.08-5.69.22-8.5L80,95.37l26.5,18.93c-.33,4.47-.5,9-.5,13.7a175.72,175.72,0,0,0,4,38.08l-26.55-19a6,6,0,0,0-7,0l-26.1,18.64A160.24,160.24,0,0,1,46,128ZM92,38h44.29C122.49,50.92,112.2,73.35,108,100.65L83.49,83.12a6,6,0,0,0-7,0L47.79,103.63C53.37,66.24,71.36,38,92,38Zm0,180C76.42,218,62.36,201.92,54,178l26-18.58,35.53,25.39c5.22,13.92,12.34,25.35,20.76,33.24Z"/>
    </svg>
  </g>
  <!-- Icon 5: terminal-light -->
  <g transform="translate(260, 20)">
    <rect width="48" height="48" fill="#1a1a1a" stroke="#333333" stroke-width="1" rx="4"/>
    <svg x="8" y="8" width="32" height="32" viewBox="0 0 256 256" style="color: #ffffff; fill: #ffffff;">
      <path d="M116,132.48l-72,64a6,6,0,0,1-8-9L103,128,36,68.49a6,6,0,0,1,8-9l72,64a6,6,0,0,1,0,9ZM216,186H120a6,6,0,0,0,0,12h96a6,6,0,0,0,0-12Z"/>
    </svg>
  </g>
  <!-- Icon 6: stool-light -->
  <g transform="translate(320, 20)">
    <rect width="48" height="48" fill="#1a1a1a" stroke="#333333" stroke-width="1" rx="4"/>
    <svg x="8" y="8" width="32" height="32" viewBox="0 0 256 256" style="color: #ffffff; fill: #ffffff;">
      <path d="M198,64V40a14,14,0,0,0-14-14H72A14,14,0,0,0,58,40V64A14,14,0,0,0,72,78h9L58.07,223.06a6,6,0,0,0,5,6.87,6,6,0,0,0,6.86-5L78,174H178l8,50.93a6,6,0,1,0,11.86-1.87L175,78h9A14,14,0,0,0,198,64ZM70,64V40a2,2,0,0,1,2-2H184a2,2,0,0,1,2,2V64a2,2,0,0,1-2,2H72A2,2,0,0,1,70,64Zm106.14,98H79.86L93.13,78h69.74Z"/>
    </svg>
  </g>
  <!-- Icon 7: speaker-none-light -->
  <g transform="translate(380, 20)">
    <rect width="48" height="48" fill="#1a1a1a" stroke="#333333" stroke-width="1" rx="4"/>
    <svg x="8" y="8" width="32" height="32" viewBox="0 0 256 256" style="color: #ffffff; fill: #ffffff;">
      <path d="M154.64,26.61a6,6,0,0,0-6.32.65L77.94,82H32A14,14,0,0,0,18,96v64a14,14,0,0,0,14,14H77.94l70.38,54.74A6,6,0,0,0,158,224V32A6,6,0,0,0,154.64,26.61ZM30,160V96a2,2,0,0,1,2-2H74v68H32A2,2,0,0,1,30,160Zm116,51.73L86,165.06V90.94l60-46.67Z"/>
    </svg>
  </g>
  <!-- Icon 8: sign-in-light -->
  <g transform="translate(20, 80)">
    <rect width="48" height="48" fill="#1a1a1a" stroke="#333333" stroke-width="1" rx="4"/>
    <svg x="8" y="8" width="32" height="32" viewBox="0 0 256 256" style="color: #ffffff; fill: #ffffff;">
      <path d="M140.24,132.24l-40,40a6,6,0,0,1-8.48-8.48L121.51,134H24a6,6,0,0,1,0-12h97.51L91.76,92.24a6,6,0,0,1,8.48-8.48l40,40A6,6,0,0,1,140.24,132.24ZM200,34H136a6,6,0,0,0,0,12h58V210H136a6,6,0,0,0,0,12h64a6,6,0,0,0,6-6V40A6,6,0,0,0,200,34Z"/>
    </svg>
  </g>
  <!-- Icon 9: seal-check-light -->
  <g transform="translate(80, 80)">
    <rect width="48" height="48" fill="#1a1a1a" stroke="#333333" stroke-width="1" rx="4"/>
    <svg x="8" y="8" width="32" height="32" viewBox="0 0 256 256" style="color: #ffffff; fill: #ffffff;">
      <path d="M224.42,104.2c-3.9-4.07-7.93-8.27-9.55-12.18-1.5-3.63-1.58-9-1.67-14.68-.14-9.38-.3-20-7.42-27.12S188,42.94,178.66,42.8c-5.68-.09-11-.17-14.68-1.67-3.91-1.62-8.11-5.65-12.18-9.55C145.16,25.22,137.64,18,128,18s-17.16,7.22-23.8,13.58c-4.07,3.9-8.27,7.93-12.18,9.55-3.63,1.5-9,1.58-14.68,1.67-9.38.14-20,.3-27.12,7.42S42.94,68,42.8,77.34c-.09,5.68-.17,11-1.67,14.68-1.62,3.91-5.65,8.11-9.55,12.18C25.22,110.84,18,118.36,18,128s7.22,17.16,13.58,23.8c3.9,4.07,7.93,8.27,9.55,12.18,1.5,3.63,1.58,9,1.67,14.68.14,9.38.3,20,7.42,27.12S68,213.06,77.34,213.2c5.68.09,11,.17,14.68,1.67,3.91,1.62,8.11,5.65,12.18,9.55C110.84,230.78,118.36,238,128,238s17.16-7.22,23.8-13.58c4.07-3.9,8.27-7.93,12.18-9.55,3.63-1.5,9-1.58,14.68-1.67,9.38-.14,20-.3,27.12-7.42s7.28-17.74,7.42-27.12c.09-5.68.17-11,1.67-14.68,1.62-3.91,5.65-8.11,9.55-12.18C230.78,145.16,238,137.64,238,128S230.78,110.84,224.42,104.2Zm-8.66,39.3c-4.67,4.86-9.5,9.9-12,15.9-2.38,5.74-2.48,12.52-2.58,19.08-.11,7.44-.23,15.14-3.9,18.82s-11.38,3.79-18.82,3.9c-6.56.1-13.34.2-19.08,2.58-6,2.48-11,7.31-15.91,12-5.25,5-10.68,10.24-15.49,10.24s-10.24-5.21-15.5-10.24c-4.86-4.67-9.9-9.5-15.9-12-5.74-2.38-12.52-2.48-19.08-2.58-7.44-.11-15.14-.23-18.82-3.9s-3.79-11.38-3.9-18.82c-.1-6.56-.2-13.34-2.58-19.08-2.48-6-7.31-11-12-15.91C35.21,138.24,30,132.81,30,128s5.21-10.24,10.24-15.5c4.67-4.86,9.5-9.9,12-15.9,2.38-5.74,2.48-12.52,2.58-19.08.11-7.44.23-15.14,3.9-18.82s11.38-3.79,18.82-3.9c6.56-.1,13.34-.2,19.08-2.58,6-2.48,11-7.31,15.91-12C117.76,35.21,123.19,30,128,30s10.24,5.21,15.5,10.24c4.86,4.67,9.9,9.5,15.9,12,5.74,2.38,12.52,2.48,19.08,2.58,7.44.11,15.14.23,18.82,3.9s3.79,11.38,3.9,18.82c.1,6.56.2,13.34,2.58,19.08,2.48,6,7.31,11,12,15.91,5,5.25,10.24,10.68,10.24,15.49S220.79,138.24,215.76,143.5ZM172.24,99.76a6,6,0,0,1,0,8.48l-56,56a6,6,0,0,1-8.48,0l-24-24a6,6,0,0,1,8.48-8.48L112,151.51l51.76-51.75A6,6,0,0,1,172.24,99.76Z"/>
    </svg>
  </g>
  <!-- Icon 10: radical-light -->
  <g transform="translate(140, 80)">
    <rect width="48" height="48" fill="#1a1a1a" stroke="#333333" stroke-width="1" rx="4"/>
    <svg x="8" y="8" width="32" height="32" viewBox="0 0 256 256" style="color: #ffffff; fill: #ffffff;">
      <path d="M246,80v24a6,6,0,0,1-12,0V86H132.16L85.62,210.11a6,6,0,0,1-11.24,0l-48-128a6,6,0,1,1,11.24-4.22L80,190.91l42.38-113A6,6,0,0,1,128,74H240A6,6,0,0,1,246,80Z"/>
    </svg>
  </g>
  <!-- Icon 11: placeholder-light -->
  <g transform="translate(200, 80)">
    <rect width="48" height="48" fill="#1a1a1a" stroke="#333333" stroke-width="1" rx="4"/>
    <svg x="8" y="8" width="32" height="32" viewBox="0 0 256 256" style="color: #ffffff; fill: #ffffff;">
      <path d="M208,34H48A14,14,0,0,0,34,48V208a14,14,0,0,0,14,14H208a14,14,0,0,0,14-14V48A14,14,0,0,0,208,34Zm2,14V201.52L54.49,46H208A2,2,0,0,1,210,48ZM46,208V54.48L201.51,210H48A2,2,0,0,1,46,208Z"/>
    </svg>
  </g>
  <!-- Icon 12: pentagram-light -->
  <g transform="translate(260, 80)">
    <rect width="48" height="48" fill="#1a1a1a" stroke="#333333" stroke-width="1" rx="4"/>
    <svg x="8" y="8" width="32" height="32" viewBox="0 0 256 256" style="color: #ffffff; fill: #ffffff;">
      <path d="M237.29,91.67A13.8,13.8,0,0,0,224,82H161.48L141.33,19.87a13.93,13.93,0,0,0-26.64-.05L94.51,82H32a14,14,0,0,0-8.21,25.35l50.65,36.44L55.05,203.63a13.78,13.78,0,0,0,5.09,15.64,13.77,13.77,0,0,0,16.43,0l51.43-37,51.41,37A14,14,0,0,0,201,203.63l-19.42-59.85,50.67-36.46A13.79,13.79,0,0,0,237.29,91.67ZM126.11,23.49a1.94,1.94,0,0,1,3.79,0l19,58.46H107.13ZM30.85,97.61a1.86,1.86,0,0,1-.73-2.23A1.88,1.88,0,0,1,32,94H90.62l-12.26,37.8Zm38.69,112a2,2,0,0,1-3.08-2.24h0l18.23-56.2,33,23.77Zm19-70.42L103.24,94h49.52l14.65,45.16L128,167.51Zm100.95,68.18a2,2,0,0,1-3.1,2.22L138.27,174.9l33-23.77ZM225.17,97.59l-47.53,34.2L165.38,94H224a1.86,1.86,0,0,1,1.9,1.39A1.83,1.83,0,0,1,225.17,97.59Z"/>
    </svg>
  </g>
  <!-- Icon 13: open-ai-logo-light -->
  <g transform="translate(320, 80)">
    <rect width="48" height="48" fill="#1a1a1a" stroke="#333333" stroke-width="1" rx="4"/>
    <svg x="8" y="8" width="32" height="32" viewBox="0 0 256 256" style="color: #ffffff; fill: #ffffff;">
      <path d="M222,114.56a54,54,0,0,0-58.67-74.73,54,54,0,0,0-94,13.46A54,54,0,0,0,34,141.44a54,54,0,0,0,35.56,73.65A54.54,54.54,0,0,0,83.59,217a52.86,52.86,0,0,0,9.06-.78,54,54,0,0,0,94-13.46A54,54,0,0,0,222,114.56ZM183.37,52.5a42,42,0,0,1,29.21,53.14,54.84,54.84,0,0,0-5.08-3.33L163,76.62a6,6,0,0,0-6,0l-47,27.13V80.66l41.5-24A41.73,41.73,0,0,1,183.37,52.5ZM146,138.39l-18,10.39-18-10.39V117.61l18-10.39,18,10.39ZM78,72a42,42,0,0,1,72.92-28.43,56.18,56.18,0,0,0-5.42,2.74L101,72a6,6,0,0,0-3,5.19v54.27L78,119.92ZM39.13,85.93a41.75,41.75,0,0,1,27.22-20A55.09,55.09,0,0,0,66,72v51.38a6,6,0,0,0,3,5.2l47,27.13L96,167.26l-41.5-24A42,42,0,0,1,39.13,85.93ZM72.63,203.5a42,42,0,0,1-29.21-53.14,54.84,54.84,0,0,0,5.08,3.33L93,179.38a6,6,0,0,0,6,0l47-27.13v23.09l-41.5,24A41.73,41.73,0,0,1,72.63,203.5ZM178,184a42,42,0,0,1-72.92,28.43,56.18,56.18,0,0,0,5.42-2.74L155,184a6,6,0,0,0,3-5.19V124.54l20,11.54Zm38.87-13.93a41.75,41.75,0,0,1-27.22,20A55.09,55.09,0,0,0,190,184V132.62a6,6,0,0,0-3-5.2l-47-27.13,20-11.55,41.5,24A42,42,0,0,1,216.87,170.07Z"/>
    </svg>
  </g>
  <!-- Icon 14: note-light -->
  <g transform="translate(380, 80)">
    <rect width="48" height="48" fill="#1a1a1a" stroke="#333333" stroke-width="1" rx="4"/>
    <svg x="8" y="8" width="32" height="32" viewBox="0 0 256 256" style="color: #ffffff; fill: #ffffff;">
      <path d="M90,96a6,6,0,0,1,6-6h64a6,6,0,0,1,0,12H96A6,6,0,0,1,90,96Zm6,38h64a6,6,0,0,0,0-12H96a6,6,0,0,0,0,12Zm32,20H96a6,6,0,0,0,0,12h32a6,6,0,0,0,0-12ZM222,48V156.69a13.94,13.94,0,0,1-4.1,9.9L166.59,217.9a13.94,13.94,0,0,1-9.9,4.1H48a14,14,0,0,1-14-14V48A14,14,0,0,1,48,34H208A14,14,0,0,1,222,48ZM48,210H154V160a6,6,0,0,1,6-6h50V48a2,2,0,0,0-2-2H48a2,2,0,0,0-2,2V208A2,2,0,0,0,48,210Zm153.52-44H166v35.52Z"/>
    </svg>
  </g>
  <!-- Icon 15: microsoft-powerpoint-logo-light -->
  <g transform="translate(20, 140)">
    <rect width="48" height="48" fill="#1a1a1a" stroke="#333333" stroke-width="1" rx="4"/>
    <svg x="8" y="8" width="32" height="32" viewBox="0 0 256 256" style="color: #ffffff; fill: #ffffff;">
      <path d="M96,98H80a6,6,0,0,0-6,6v48a6,6,0,0,0,12,0V142H96a22,22,0,0,0,0-44Zm0,32H86V110H96a10,10,0,0,1,0,20ZM136,26A102.35,102.35,0,0,0,55,66H40A14,14,0,0,0,26,80v96a14,14,0,0,0,14,14H55A102,102,0,1,0,136,26Zm89.8,96H158V80a14,14,0,0,0-14-14h-2V38.2A90.15,90.15,0,0,1,225.8,122ZM130,38.21V66H70.78A90.39,90.39,0,0,1,130,38.21ZM38,176V80a2,2,0,0,1,2-2H144a2,2,0,0,1,2,2v96a2,2,0,0,1-2,2H40A2,2,0,0,1,38,176Zm32.78,14H130v27.79A90.39,90.39,0,0,1,70.78,190ZM142,217.8V190h2a14,14,0,0,0,14-14V134h67.8A90.14,90.14,0,0,1,142,217.8Z"/>
    </svg>
  </g>
  <!-- Icon 16: lock-simple-open-light -->
  <g transform="translate(80, 140)">
    <rect width="48" height="48" fill="#1a1a1a" stroke="#333333" stroke-width="1" rx="4"/>
    <svg x="8" y="8" width="32" height="32" viewBox="0 0 256 256" style="color: #ffffff; fill: #ffffff;">
      <path d="M208,82H94V56a34,34,0,0,1,34-34c16.3,0,31,11.69,34.12,27.19a6,6,0,0,0,11.76-2.38C169.55,25.48,150.26,10,128,10A46.06,46.06,0,0,0,82,56V82H48A14,14,0,0,0,34,96V208a14,14,0,0,0,14,14H208a14,14,0,0,0,14-14V96A14,14,0,0,0,208,82Zm2,126a2,2,0,0,1-2,2H48a2,2,0,0,1-2-2V96a2,2,0,0,1,2-2H208a2,2,0,0,1,2,2Z"/>
    </svg>
  </g>
  <!-- Icon 17: lectern-light -->
  <g transform="translate(140, 140)">
    <rect width="48" height="48" fill="#1a1a1a" stroke="#333333" stroke-width="1" rx="4"/>
    <svg x="8" y="8" width="32" height="32" viewBox="0 0 256 256" style="color: #ffffff; fill: #ffffff;">
      <path d="M244.51,121.74l-40-80A13.92,13.92,0,0,0,192,34H64a13.92,13.92,0,0,0-12.52,7.74l-40,80A14,14,0,0,0,24,142h98v68H96a6,6,0,0,0,0,12h64a6,6,0,0,0,0-12H134V142h98a14,14,0,0,0,12.52-20.26Zm-10.82,7.31a1.93,1.93,0,0,1-1.7.95H24a2,2,0,0,1-1.79-2.89l40-80A2,2,0,0,1,64,46H192a2,2,0,0,1,1.79,1.11l40,80A2,2,0,0,1,233.69,129.05ZM190,104a6,6,0,0,1-6,6H72a6,6,0,0,1,0-12H184A6,6,0,0,1,190,104Z"/>
    </svg>
  </g>
  <!-- Icon 18: hourglass-simple-light -->
  <g transform="translate(200, 140)">
    <rect width="48" height="48" fill="#1a1a1a" stroke="#333333" stroke-width="1" rx="4"/>
    <svg x="8" y="8" width="32" height="32" viewBox="0 0 256 256" style="color: #ffffff; fill: #ffffff;">
      <path d="M209.8,198l-73.12-70L209.8,58l.09-.09A14,14,0,0,0,200,34H56a14,14,0,0,0-9.9,23.9l.09.09,73.12,70L46.2,198l-.09.09A14,14,0,0,0,56,222H200a14,14,0,0,0,9.9-23.9ZM54.16,47.23A1.91,1.91,0,0,1,56,46H200a2,2,0,0,1,1.45,3.38L128,119.69,54.56,49.38A1.91,1.91,0,0,1,54.16,47.23ZM201.84,208.77A1.91,1.91,0,0,1,200,210H56a2,2,0,0,1-1.45-3.38L128,136.31l73.44,70.31A1.91,1.91,0,0,1,201.84,208.77Z"/>
    </svg>
  </g>
  <!-- Icon 19: hand-palm-light -->
  <g transform="translate(260, 140)">
    <rect width="48" height="48" fill="#1a1a1a" stroke="#333333" stroke-width="1" rx="4"/>
    <svg x="8" y="8" width="32" height="32" viewBox="0 0 256 256" style="color: #ffffff; fill: #ffffff;">
      <path d="M188,90a25.8,25.8,0,0,0-14,4.11V60a26,26,0,0,0-40.59-21.51A26,26,0,0,0,82,44V54.11A26,26,0,0,0,42,76v76a86,86,0,0,0,172,0V116A26,26,0,0,0,188,90Zm14,62a74,74,0,0,1-148,0V76a14,14,0,0,1,28,0v44a6,6,0,0,0,12,0V44a14,14,0,0,1,28,0v68a6,6,0,0,0,12,0V60a14,14,0,0,1,28,0v70.39A46.07,46.07,0,0,0,122,176a6,6,0,0,0,12,0,34,34,0,0,1,34-34,6,6,0,0,0,6-6V116a14,14,0,0,1,28,0Z"/>
    </svg>
  </g>
  <!-- Icon 20: globe-hemisphere-east-light -->
  <g transform="translate(320, 140)">
    <rect width="48" height="48" fill="#1a1a1a" stroke="#333333" stroke-width="1" rx="4"/>
    <svg x="8" y="8" width="32" height="32" viewBox="0 0 256 256" style="color: #ffffff; fill: #ffffff;">
      <path d="M128,26A102,102,0,1,0,230,128,102.12,102.12,0,0,0,128,26Zm0,12a89.53,89.53,0,0,1,50,15.2V74a2,2,0,0,1-.48,1.31L155.35,101a2,2,0,0,1-1.25.68L122.63,106a2,2,0,0,1-1.44-.36l-.24-.16-19.7-12.89a14,14,0,0,0-19.71,3.64l-21,31.3a13.94,13.94,0,0,0-2.36,7.71L58,171.45a2,2,0,0,1-.9,1.66l-5,3.27A90,90,0,0,1,128,38ZM59.28,186.05l4.43-2.9A14,14,0,0,0,70,171.52l.21-36.23a2.05,2.05,0,0,1,.33-1.1l21-31.3a2,2,0,0,1,1.31-.86,2,2,0,0,1,1.52.35l.24.16,19.7,12.89a13.93,13.93,0,0,0,10,2.44l31.47-4.26a14,14,0,0,0,8.73-4.74l22.17-25.76A14,14,0,0,0,190,74V62.82a89.91,89.91,0,0,1,22.68,95.67l-18.4-16.82a14,14,0,0,0-14.82-2.6L149,151.73a14.11,14.11,0,0,0-8.48,10.89l-2.38,16.19a14,14,0,0,0,10.3,15.58L169.9,200a2.09,2.09,0,0,1,.91.53l4.18,4.18A89.86,89.86,0,0,1,59.28,186.05ZM184.9,197.68l-5.59-5.61a14,14,0,0,0-6.36-3.65l-21.46-5.63a2,2,0,0,1-1.47-2.23l2.39-16.19a2,2,0,0,1,1.21-1.56l30.45-12.66a2,2,0,0,1,2.12.37l21.36,19.54A90.79,90.79,0,0,1,184.9,197.68Z"/>
    </svg>
  </g>
  <!-- Icon 21: folder-simple-user-light -->
  <g transform="translate(380, 140)">
    <rect width="48" height="48" fill="#1a1a1a" stroke="#333333" stroke-width="1" rx="4"/>
    <svg x="8" y="8" width="32" height="32" viewBox="0 0 256 256" style="color: #ffffff; fill: #ffffff;">
      <path d="M211.28,199a30,30,0,1,0-38.56,0,38.09,38.09,0,0,0-18.52,23.5,6,6,0,0,0,4.26,7.34,6.26,6.26,0,0,0,1.54.2,6,6,0,0,0,5.8-4.46C168.86,214,179.63,206,192,206s23.14,8,26.2,19.54a6,6,0,0,0,11.6-3.08A38.09,38.09,0,0,0,211.28,199ZM192,158a18,18,0,1,1-18,18A18,18,0,0,1,192,158Zm38-70v32a6,6,0,0,1-12,0V88a2,2,0,0,0-2-2H130.67a14,14,0,0,1-8.4-2.8L94.53,62.4a2,2,0,0,0-1.2-.4H40a2,2,0,0,0-2,2V200a2,2,0,0,0,2,2h80a6,6,0,0,1,0,12H40a14,14,0,0,1-14-14V64A14,14,0,0,1,40,50H93.33a14,14,0,0,1,8.4,2.8l27.74,20.8a2,2,0,0,0,1.2.4H216A14,14,0,0,1,230,88Z"/>
    </svg>
  </g>
  <!-- Icon 22: film-script-light -->
  <g transform="translate(20, 200)">
    <rect width="48" height="48" fill="#1a1a1a" stroke="#333333" stroke-width="1" rx="4"/>
    <svg x="8" y="8" width="32" height="32" viewBox="0 0 256 256" style="color: #ffffff; fill: #ffffff;">
      <path d="M200,26H56A14,14,0,0,0,42,40V216a14,14,0,0,0,14,14H200a14,14,0,0,0,14-14V40A14,14,0,0,0,200,26Zm2,190a2,2,0,0,1-2,2H56a2,2,0,0,1-2-2V40a2,2,0,0,1,2-2H200a2,2,0,0,1,2,2ZM94,80A10,10,0,1,1,84,70,10,10,0,0,1,94,80Zm0,96a10,10,0,1,1-10-10A10,10,0,0,1,94,176Zm0-48a10,10,0,1,1-10-10A10,10,0,0,1,94,128Z"/>
    </svg>
  </g>
  <!-- Icon 23: file-archive-light -->
  <g transform="translate(80, 200)">
    <rect width="48" height="48" fill="#1a1a1a" stroke="#333333" stroke-width="1" rx="4"/>
    <svg x="8" y="8" width="32" height="32" viewBox="0 0 256 256" style="color: #ffffff; fill: #ffffff;">
      <path d="M212.24,83.76l-56-56A6,6,0,0,0,152,26H56A14,14,0,0,0,42,40V216a14,14,0,0,0,14,14H200a14,14,0,0,0,14-14V88A6,6,0,0,0,212.24,83.76ZM158,46.48,193.52,82H158ZM200,218H110V198h10a6,6,0,0,0,0-12H110V166h10a6,6,0,0,0,0-12H110V134h10a6,6,0,0,0,0-12H110V112a6,6,0,0,0-12,0v10H88a6,6,0,0,0,0,12H98v20H88a6,6,0,0,0,0,12H98v20H88a6,6,0,0,0,0,12H98v20H56a2,2,0,0,1-2-2V40a2,2,0,0,1,2-2h90V88a6,6,0,0,0,6,6h50V216A2,2,0,0,1,200,218Z"/>
    </svg>
  </g>
  <!-- Icon 24: ear-light -->
  <g transform="translate(140, 200)">
    <rect width="48" height="48" fill="#1a1a1a" stroke="#333333" stroke-width="1" rx="4"/>
    <svg x="8" y="8" width="32" height="32" viewBox="0 0 256 256" style="color: #ffffff; fill: #ffffff;">
      <path d="M214,104a6,6,0,0,1-12,0,74,74,0,0,0-148,0c0,27.55,8.83,36.06,18.18,45.08,4.31,4.15,8.77,8.45,12.16,14.47C88.15,170.31,90,178.3,90,188a38,38,0,0,0,38,38c10.74,0,19.69-4.52,27.37-13.82a6,6,0,0,1,9.26,7.64C154.66,231.88,142.34,238,128,238a50.06,50.06,0,0,1-50-50c0-16.64-6.24-22.66-14.15-30.29C54.12,148.33,42,136.64,42,104a86,86,0,0,1,172,0Zm-37.14,58.81a6,6,0,0,0-8.19,2.19A10,10,0,0,1,150,160c0-10,5-16.67,10.8-24.4C167,127.35,174,118,174,104a46,46,0,0,0-92,0,6,6,0,0,0,12,0,34,34,0,0,1,68,0c0,10-5,16.67-10.8,24.4C145,136.65,138,146,138,160a22,22,0,0,0,41.05,11A6,6,0,0,0,176.86,162.81Z"/>
    </svg>
  </g>
  <!-- Icon 25: device-tablet-camera-light -->
  <g transform="translate(200, 200)">
    <rect width="48" height="48" fill="#1a1a1a" stroke="#333333" stroke-width="1" rx="4"/>
    <svg x="8" y="8" width="32" height="32" viewBox="0 0 256 256" style="color: #ffffff; fill: #ffffff;">
      <path d="M192,26H64A22,22,0,0,0,42,48V208a22,22,0,0,0,22,22H192a22,22,0,0,0,22-22V48A22,22,0,0,0,192,26Zm10,182a10,10,0,0,1-10,10H64a10,10,0,0,1-10-10V48A10,10,0,0,1,64,38H192a10,10,0,0,1,10,10ZM138,68a10,10,0,1,1-10-10A10,10,0,0,1,138,68Z"/>
    </svg>
  </g>
  <!-- Icon 26: crane-light -->
  <g transform="translate(260, 200)">
    <rect width="48" height="48" fill="#1a1a1a" stroke="#333333" stroke-width="1" rx="4"/>
    <svg x="8" y="8" width="32" height="32" viewBox="0 0 256 256" style="color: #ffffff; fill: #ffffff;">
      <path d="M227.09,18.86a6,6,0,0,0-5.91-.15L102.5,82H32A14,14,0,0,0,18,96V200a14,14,0,0,0,14,14h88a14,14,0,0,0,14-14V168a6.28,6.28,0,0,0-.25-1.72L111.16,91,218,34V160a2,2,0,0,1-2,2H200a2,2,0,0,1-2-2v-8a6,6,0,0,0-12,0v8a14,14,0,0,0,14,14h16a14,14,0,0,0,14-14V24A6,6,0,0,0,227.09,18.86ZM99.54,94l20.4,68H62V94ZM32,94H50v68H30V96A2,2,0,0,1,32,94Zm88,108H32a2,2,0,0,1-2-2V174h92v26A2,2,0,0,1,120,202Z"/>
    </svg>
  </g>
  <!-- Icon 27: cloud-slash-light -->
  <g transform="translate(320, 200)">
    <rect width="48" height="48" fill="#1a1a1a" stroke="#333333" stroke-width="1" rx="4"/>
    <svg x="8" y="8" width="32" height="32" viewBox="0 0 256 256" style="color: #ffffff; fill: #ffffff;">
      <path d="M52.44,36A6,6,0,0,0,43.56,44l40.18,44.2c-.45.87-.9,1.75-1.32,2.64A62,62,0,1,0,72,214h88a85.23,85.23,0,0,0,32.35-6.3L203.56,220a6,6,0,0,0,8.88-8.08ZM160,202H72a50,50,0,1,1,5.9-99.64A86.25,86.25,0,0,0,74,128a6,6,0,0,0,12,0,73.92,73.92,0,0,1,6.44-30.2l91.22,100.34A73.65,73.65,0,0,1,160,202Zm86-74a85.85,85.85,0,0,1-21.85,57.27,6,6,0,0,1-4.47,2,6,6,0,0,1-4.47-10,74,74,0,0,0-99-108.92,6,6,0,1,1-7.11-9.67A86,86,0,0,1,246,128Z"/>
    </svg>
  </g>
  <!-- Icon 28: chats-light -->
  <g transform="translate(380, 200)">
    <rect width="48" height="48" fill="#1a1a1a" stroke="#333333" stroke-width="1" rx="4"/>
    <svg x="8" y="8" width="32" height="32" viewBox="0 0 256 256" style="color: #ffffff; fill: #ffffff;">
      <path d="M216,82H182V48a14,14,0,0,0-14-14H40A14,14,0,0,0,26,48V176a6,6,0,0,0,3.42,5.41A5.86,5.86,0,0,0,32,182a6,6,0,0,0,3.77-1.33L73.71,150H74v34a14,14,0,0,0,14,14h94.29l37.94,30.67A6,6,0,0,0,224,230a5.86,5.86,0,0,0,2.58-.59A6,6,0,0,0,230,224V96A14,14,0,0,0,216,82ZM71.58,138a6,6,0,0,0-3.77,1.33L38,163.43V48a2,2,0,0,1,2-2H168a2,2,0,0,1,2,2v88a2,2,0,0,1-2,2ZM218,211.43l-29.81-24.1a6,6,0,0,0-3.77-1.33H88a2,2,0,0,1-2-2V150h82a14,14,0,0,0,14-14V94h34a2,2,0,0,1,2,2Z"/>
    </svg>
  </g>
  <!-- Icon 29: cat-light -->
  <g transform="translate(20, 260)">
    <rect width="48" height="48" fill="#1a1a1a" stroke="#333333" stroke-width="1" rx="4"/>
    <svg x="8" y="8" width="32" height="32" viewBox="0 0 256 256" style="color: #ffffff; fill: #ffffff;">
      <path d="M221.36,35.07a14,14,0,0,0-15.26,3l-.29.3L187.42,59.58a109.16,109.16,0,0,0-118.84,0L50.19,38.41l-.29-.3A14,14,0,0,0,26,48v88c0,51.83,45.76,94,102,94s102-42.17,102-94V48A14,14,0,0,0,221.36,35.07ZM218,136c0,43.38-37.16,79-84,81.81V194.48l14.24-14.24a6,6,0,0,0-8.48-8.49L128,183.51l-11.76-11.76a6,6,0,0,0-8.48,8.49L122,194.48v23.33C75.16,215,38,179.38,38,136V48a1.91,1.91,0,0,1,1.23-1.85,2.28,2.28,0,0,1,.82-.17,1.87,1.87,0,0,1,1.26.5l21.76,25a6,6,0,0,0,8.11.88A91.52,91.52,0,0,1,90,61.68V88a6,6,0,1,0,12,0V57.51a97.85,97.85,0,0,1,20-3.32V88a6,6,0,1,0,12,0V54.19a97.85,97.85,0,0,1,20,3.32V88a6,6,0,1,0,12,0V61.68a91.52,91.52,0,0,1,18.82,10.73,6,6,0,0,0,8.11-.88l21.76-25A2,2,0,0,1,218,48ZM94,140a10,10,0,1,1-10-10A10,10,0,0,1,94,140Zm88,0a10,10,0,1,1-10-10A10,10,0,0,1,182,140Z"/>
    </svg>
  </g>
  <!-- Icon 30: calendar-plus-light -->
  <g transform="translate(80, 260)">
    <rect width="48" height="48" fill="#1a1a1a" stroke="#333333" stroke-width="1" rx="4"/>
    <svg x="8" y="8" width="32" height="32" viewBox="0 0 256 256" style="color: #ffffff; fill: #ffffff;">
      <path d="M208,34H182V24a6,6,0,0,0-12,0V34H86V24a6,6,0,0,0-12,0V34H48A14,14,0,0,0,34,48V208a14,14,0,0,0,14,14H208a14,14,0,0,0,14-14V48A14,14,0,0,0,208,34ZM48,46H74V56a6,6,0,0,0,12,0V46h84V56a6,6,0,0,0,12,0V46h26a2,2,0,0,1,2,2V82H46V48A2,2,0,0,1,48,46ZM208,210H48a2,2,0,0,1-2-2V94H210V208A2,2,0,0,1,208,210Zm-50-58a6,6,0,0,1-6,6H134v18a6,6,0,0,1-12,0V158H104a6,6,0,0,1,0-12h18V128a6,6,0,0,1,12,0v18h18A6,6,0,0,1,158,152Z"/>
    </svg>
  </g>
  <!-- Icon 31: boules-light -->
  <g transform="translate(140, 260)">
    <rect width="48" height="48" fill="#1a1a1a" stroke="#333333" stroke-width="1" rx="4"/>
    <svg x="8" y="8" width="32" height="32" viewBox="0 0 256 256" style="color: #ffffff; fill: #ffffff;">
      <path d="M128,26A102,102,0,1,0,230,128,102.12,102.12,0,0,0,128,26Zm59.22,34.29L60.29,187.22a90.21,90.21,0,0,1-12.53-18.49l121-121A90.21,90.21,0,0,1,187.22,60.29Zm8.49,8.49a90.21,90.21,0,0,1,12.53,18.49l-121,121a90.21,90.21,0,0,1-18.49-12.53ZM128,38a89.67,89.67,0,0,1,28.79,4.72L42.72,156.79A90,90,0,0,1,128,38Zm0,180a89.67,89.67,0,0,1-28.79-4.72L213.28,99.21A90,90,0,0,1,128,218Z"/>
    </svg>
  </g>
  <!-- Icon 32: battery-vertical-medium-light -->
  <g transform="translate(200, 260)">
    <rect width="48" height="48" fill="#1a1a1a" stroke="#333333" stroke-width="1" rx="4"/>
    <svg x="8" y="8" width="32" height="32" viewBox="0 0 256 256" style="color: #ffffff; fill: #ffffff;">
      <path d="M90,8a6,6,0,0,1,6-6h64a6,6,0,0,1,0,12H96A6,6,0,0,1,90,8ZM198,56V224a22,22,0,0,1-22,22H80a22,22,0,0,1-22-22V56A22,22,0,0,1,80,34h96A22,22,0,0,1,198,56Zm-12,0a10,10,0,0,0-10-10H80A10,10,0,0,0,70,56V224a10,10,0,0,0,10,10h96a10,10,0,0,0,10-10Zm-26,98H96a6,6,0,0,0,0,12h64a6,6,0,0,0,0-12Zm0,40H96a6,6,0,0,0,0,12h64a6,6,0,0,0,0-12Z"/>
    </svg>
  </g>
  <!-- Icon 33: arrows-vertical-light -->
  <g transform="translate(260, 260)">
    <rect width="48" height="48" fill="#1a1a1a" stroke="#333333" stroke-width="1" rx="4"/>
    <svg x="8" y="8" width="32" height="32" viewBox="0 0 256 256" style="color: #ffffff; fill: #ffffff;">
      <path d="M164.24,195.76a6,6,0,0,1,0,8.48l-32,32a6,6,0,0,1-8.48,0l-32-32a6,6,0,0,1,8.48-8.48L122,217.51v-179L100.24,60.24a6,6,0,0,1-8.48-8.48l32-32a6,6,0,0,1,8.48,0l32,32a6,6,0,1,1-8.48,8.48L134,38.49v179l21.76-21.75A6,6,0,0,1,164.24,195.76Z"/>
    </svg>
  </g>
  <!-- Icon 34: arrow-line-right-light -->
  <g transform="translate(320, 260)">
    <rect width="48" height="48" fill="#1a1a1a" stroke="#333333" stroke-width="1" rx="4"/>
    <svg x="8" y="8" width="32" height="32" viewBox="0 0 256 256" style="color: #ffffff; fill: #ffffff;">
      <path d="M188.24,123.76a6,6,0,0,1,0,8.48l-72,72a6,6,0,0,1-8.48-8.48L169.51,134H32a6,6,0,0,1,0-12H169.51L107.76,60.24a6,6,0,0,1,8.48-8.48ZM216,34a6,6,0,0,0-6,6V216a6,6,0,0,0,12,0V40A6,6,0,0,0,216,34Z"/>
    </svg>
  </g>
  <!-- Icon 35: arrow-bend-right-up-light -->
  <g transform="translate(380, 260)">
    <rect width="48" height="48" fill="#1a1a1a" stroke="#333333" stroke-width="1" rx="4"/>
    <svg x="8" y="8" width="32" height="32" viewBox="0 0 256 256" style="color: #ffffff; fill: #ffffff;">
      <path d="M204.24,84.24a6,6,0,0,1-8.48,0L158,46.49V128A102.12,102.12,0,0,1,56,230a6,6,0,0,1,0-12,90.1,90.1,0,0,0,90-90V46.49L108.24,84.24a6,6,0,0,1-8.48-8.48l48-48a6,6,0,0,1,8.48,0l48,48A6,6,0,0,1,204.24,84.24Z"/>
    </svg>
  </g>

  <!-- Title Background -->
  <rect x="0" y="323" width="448" height="60" fill="#1a1a1a"/>
  
  <!-- Title -->
  <text x="20" y="348" text-anchor="start" font-family="system-ui, -apple-system, sans-serif" font-size="18" font-weight="bold" fill="#ffffff">Phosphor Icons - light</text>

</svg>