<svg width="800" height="600" xmlns="http://www.w3.org/2000/svg">
  <!-- Background -->
  <rect width="800" height="600" fill="#ffffff"/>
  
  <!-- Header Background -->
  <rect width="800" height="80" fill="#f8f9fa"/>
  
  <!-- Title -->
  <text x="400" y="30" text-anchor="middle" font-family="system-ui, -apple-system, sans-serif" font-size="20" font-weight="bold" fill="#212529">Radix Icons</text>
  
  <!-- Subtitle -->
  <text x="400" y="55" text-anchor="middle" font-family="system-ui, -apple-system, sans-serif" font-size="14" fill="#6c757d">318 icons</text>
  
  <!-- Icon Grid -->
  <!-- Icon 1: zoom-out -->
  <g transform="translate(196, 92)">
    <rect width="48" height="48" fill="#ffffff" stroke="#e9ecef" stroke-width="1" rx="4"/>
    <svg x="8" y="8" width="32" height="32" viewBox="0 0 15 15">
      
  <path
    fill-rule="evenodd"
    clip-rule="evenodd"
    d="M6.5 10C8.433 10 10 8.433 10 6.5C10 4.567 8.433 3 6.5 3C4.567 3 3 4.567 3 6.5C3 8.433 4.567 10 6.5 10ZM6.5 11C7.56251 11 8.53901 10.6318 9.30884 10.0159L12.1464 12.8536C12.3417 13.0488 12.6583 13.0488 12.8536 12.8536C13.0488 12.6583 13.0488 12.3417 12.8536 12.1464L10.0159 9.30884C10.6318 8.53901 11 7.56251 11 6.5C11 4.01472 8.98528 2 6.5 2C4.01472 2 2 4.01472 2 6.5C2 8.98528 4.01472 11 6.5 11ZM4.75 6C4.47386 6 4.25 6.22386 4.25 6.5C4.25 6.77614 4.47386 7 4.75 7H8.25C8.52614 7 8.75 6.77614 8.75 6.5C8.75 6.22386 8.52614 6 8.25 6H4.75Z"
    fill="#2563eb"
  />

    </svg>
  </g>
  <!-- Icon 2: value -->
  <g transform="translate(256, 92)">
    <rect width="48" height="48" fill="#ffffff" stroke="#e9ecef" stroke-width="1" rx="4"/>
    <svg x="8" y="8" width="32" height="32" viewBox="0 0 15 15">
      
  <path
    fill-rule="evenodd"
    clip-rule="evenodd"
    d="M0.877075 7.49988C0.877075 3.84219 3.84222 0.877045 7.49991 0.877045C11.1576 0.877045 14.1227 3.84219 14.1227 7.49988C14.1227 11.1575 11.1576 14.1227 7.49991 14.1227C3.84222 14.1227 0.877075 11.1575 0.877075 7.49988ZM7.49991 1.82704C4.36689 1.82704 1.82708 4.36686 1.82708 7.49988C1.82708 10.6329 4.36689 13.1727 7.49991 13.1727C10.6329 13.1727 13.1727 10.6329 13.1727 7.49988C13.1727 4.36686 10.6329 1.82704 7.49991 1.82704Z"
    fill="#2563eb"
  />

    </svg>
  </g>
  <!-- Icon 3: triangle-down -->
  <g transform="translate(316, 92)">
    <rect width="48" height="48" fill="#ffffff" stroke="#e9ecef" stroke-width="1" rx="4"/>
    <svg x="8" y="8" width="32" height="32" viewBox="0 0 15 15">
      
  <path d="M4 6H11L7.5 10.5L4 6Z" fill="#2563eb" />

    </svg>
  </g>
  <!-- Icon 4: thick-arrow-right -->
  <g transform="translate(376, 92)">
    <rect width="48" height="48" fill="#ffffff" stroke="#e9ecef" stroke-width="1" rx="4"/>
    <svg x="8" y="8" width="32" height="32" viewBox="0 0 15 15">
      
  <path
    fill-rule="evenodd"
    clip-rule="evenodd"
    d="M14 7.5C14 7.66148 13.922 7.81301 13.7906 7.90687L6.79062 12.9069C6.63821 13.0157 6.43774 13.0303 6.27121 12.9446C6.10467 12.8589 6 12.6873 6 12.5L6 10L3.5 10C3.22386 10 3 9.77614 3 9.5L3 5.5C3 5.22386 3.22386 5 3.5 5L6 5L6 2.5C6 2.31271 6.10467 2.14112 6.27121 2.05542C6.43774 1.96972 6.63821 1.98427 6.79062 2.09313L13.7906 7.09314C13.922 7.18699 14 7.33853 14 7.5ZM7 3.4716L7 5.5C7 5.77614 6.77614 6 6.5 6L4 6L4 9L6.5 9C6.77614 9 7 9.22386 7 9.5L7 11.5284L12.6398 7.5L7 3.4716Z"
    fill="#2563eb"
  />

    </svg>
  </g>
  <!-- Icon 5: text-align-justify -->
  <g transform="translate(436, 92)">
    <rect width="48" height="48" fill="#ffffff" stroke="#e9ecef" stroke-width="1" rx="4"/>
    <svg x="8" y="8" width="32" height="32" viewBox="0 0 15 15">
      
  <path
    fill-rule="evenodd"
    clip-rule="evenodd"
    d="M2.5 4C2.22386 4 2 4.22386 2 4.5C2 4.77614 2.22386 5 2.5 5H12.5C12.7761 5 13 4.77614 13 4.5C13 4.22386 12.7761 4 12.5 4H2.5ZM2 7.5C2 7.22386 2.22386 7 2.5 7H12.5C12.7761 7 13 7.22386 13 7.5C13 7.77614 12.7761 8 12.5 8H2.5C2.22386 8 2 7.77614 2 7.5ZM2 10.5C2 10.2239 2.22386 10 2.5 10H12.5C12.7761 10 13 10.2239 13 10.5C13 10.7761 12.7761 11 12.5 11H2.5C2.22386 11 2 10.7761 2 10.5Z"
    fill="#2563eb"
  />

    </svg>
  </g>
  <!-- Icon 6: stretch-vertically -->
  <g transform="translate(496, 92)">
    <rect width="48" height="48" fill="#ffffff" stroke="#e9ecef" stroke-width="1" rx="4"/>
    <svg x="8" y="8" width="32" height="32" viewBox="0 0 15 15">
      
  <path
    fill-rule="evenodd"
    clip-rule="evenodd"
    d="M0.999878 0.5C0.999878 0.223858 1.22374 0 1.49988 0H13.4999C13.776 0 13.9999 0.223858 13.9999 0.5C13.9999 0.776142 13.776 1 13.4999 1H6H1.49988C1.22374 1 0.999878 0.776142 0.999878 0.5ZM9 14V1L6 1V14H1.49988C1.22374 14 0.999878 14.2239 0.999878 14.5C0.999878 14.7761 1.22374 15 1.49988 15H13.4999C13.776 15 13.9999 14.7761 13.9999 14.5C13.9999 14.2239 13.776 14 13.4999 14H9Z"
    fill="#2563eb"
  />

    </svg>
  </g>
  <!-- Icon 7: speaker-quiet -->
  <g transform="translate(556, 92)">
    <rect width="48" height="48" fill="#ffffff" stroke="#e9ecef" stroke-width="1" rx="4"/>
    <svg x="8" y="8" width="32" height="32" viewBox="0 0 15 15">
      
  <path
    fill-rule="evenodd"
    clip-rule="evenodd"
    d="M8 1.5C8 1.31062 7.893 1.13749 7.72361 1.05279C7.55421 0.968093 7.35151 0.986371 7.2 1.1L3.33333 4H1.5C0.671573 4 0 4.67158 0 5.5V9.5C0 10.3284 0.671573 11 1.5 11H3.33333L7.2 13.9C7.35151 14.0136 7.55421 14.0319 7.72361 13.9472C7.893 13.8625 8 13.6894 8 13.5V1.5ZM3.8 4.9L7 2.5V12.5L3.8 10.1C3.71345 10.0351 3.60819 10 3.5 10H1.5C1.22386 10 1 9.77614 1 9.5V5.5C1 5.22386 1.22386 5 1.5 5H3.5C3.60819 5 3.71345 4.96491 3.8 4.9ZM10.083 5.05577C9.96066 4.87185 9.71235 4.82195 9.52843 4.94432C9.3445 5.06669 9.2946 5.31499 9.41697 5.49892C10.2207 6.70693 10.2207 8.29303 9.41697 9.50104C9.2946 9.68496 9.3445 9.93326 9.52843 10.0556C9.71235 10.178 9.96066 10.1281 10.083 9.94418C11.0653 8.46773 11.0653 6.53222 10.083 5.05577Z"
    fill="#2563eb"
  />

    </svg>
  </g>
  <!-- Icon 8: slash -->
  <g transform="translate(196, 152)">
    <rect width="48" height="48" fill="#ffffff" stroke="#e9ecef" stroke-width="1" rx="4"/>
    <svg x="8" y="8" width="32" height="32" viewBox="0 0 15 15">
      
  <path
    fill-rule="evenodd"
    clip-rule="evenodd"
    d="M4.10876 14L9.46582 1H10.8178L5.46074 14H4.10876Z"
    fill="#2563eb"
  />

    </svg>
  </g>
  <!-- Icon 9: shadow-inner -->
  <g transform="translate(256, 152)">
    <rect width="48" height="48" fill="#ffffff" stroke="#e9ecef" stroke-width="1" rx="4"/>
    <svg x="8" y="8" width="32" height="32" viewBox="0 0 15 15">
      
  <path
    opacity=".05"
    fill-rule="evenodd"
    clip-rule="evenodd"
    d="M12.1619 3.85182C8.35817 4.88918 4.88936 8.358 3.85199 12.1617L3.3696 12.0301C4.45356 8.05564 8.05581 4.45339 12.0303 3.36943L12.1619 3.85182Z"
    fill="#2563eb"
  />
  <path
    opacity=".1"
    fill-rule="evenodd"
    clip-rule="evenodd"
    d="M11.8807 3.42707C8.03441 4.50542 4.50561 8.03422 3.42726 11.8805L2.94582 11.7456C4.07129 7.73121 7.7314 4.0711 11.7458 2.94563L11.8807 3.42707Z"
    fill="#2563eb"
  />
  <path
    opacity=".15"
    fill-rule="evenodd"
    clip-rule="evenodd"
    d="M11.5201 3.02556C7.69092 4.16199 4.16779 7.68323 3.02805 11.512L2.54883 11.3694C3.73676 7.37869 7.38659 3.73076 11.3778 2.54623L11.5201 3.02556Z"
    fill="#2563eb"
  />
  <path
    opacity=".2"
    fill-rule="evenodd"
    clip-rule="evenodd"
    d="M11.0468 2.66169C7.31117 3.87664 3.87918 7.3079 2.66298 11.0434L2.18754 10.8886C3.45324 7.00109 7.00445 3.45062 10.8921 2.18621L11.0468 2.66169Z"
    fill="#2563eb"
  />
  <path
    opacity=".25"
    fill-rule="evenodd"
    clip-rule="evenodd"
    d="M10.5201 2.32365C6.92091 3.61447 3.62391 6.90876 2.32845 10.5073L1.858 10.338C3.20398 6.59909 6.61155 3.19424 10.3513 1.85301L10.5201 2.32365Z"
    fill="#2563eb"
  />
  <path
    opacity=".3"
    fill-rule="evenodd"
    clip-rule="evenodd"
    d="M9.90222 2.03122C6.50003 3.39465 3.39968 6.49367 2.03399 9.89551L1.56998 9.70924C2.98651 6.18076 6.18728 2.98133 9.71622 1.5671L9.90222 2.03122Z"
    fill="#2563eb"
  />
  <path
    opacity=".35"
    fill-rule="evenodd"
    clip-rule="evenodd"
    d="M9.20727 1.78873C6.06136 3.20349 3.21103 6.05203 1.79331 9.19738L1.33747 8.99192C2.80536 5.73528 5.74485 2.7976 9.0022 1.33272L9.20727 1.78873Z"
    fill="#2563eb"
  />
  <path
    opacity=".4"
    fill-rule="evenodd"
    clip-rule="evenodd"
    d="M8.40713 1.62085C5.59323 3.05117 3.05794 5.58509 1.62544 8.39847L1.17987 8.1716C2.66036 5.26397 5.27232 2.6534 8.18057 1.17513L8.40713 1.62085Z"
    fill="#2563eb"
  />
  <path
    opacity=".45"
    fill-rule="evenodd"
    clip-rule="evenodd"
    d="M7.46207 1.56747C5.08689 2.94695 2.95362 5.07912 1.57249 7.45379L1.14028 7.20241C2.56503 4.75273 4.7607 2.55818 7.21096 1.1351L7.46207 1.56747Z"
    fill="#2563eb"
  />
  <path
    opacity=".5"
    fill-rule="evenodd"
    clip-rule="evenodd"
    d="M6.30407 1.70487C4.51964 2.91063 2.90983 4.52061 1.7043 6.30513L1.28998 6.02524C2.5313 4.18773 4.18673 2.53214 6.02413 1.29059L6.30407 1.70487Z"
    fill="#2563eb"
  />
  <path
    fill-rule="evenodd"
    clip-rule="evenodd"
    d="M0.877075 7.49988C0.877075 3.84219 3.84222 0.877045 7.49991 0.877045C11.1576 0.877045 14.1227 3.84219 14.1227 7.49988C14.1227 11.1575 11.1576 14.1227 7.49991 14.1227C3.84222 14.1227 0.877075 11.1575 0.877075 7.49988ZM7.49991 1.82704C4.36689 1.82704 1.82708 4.36686 1.82708 7.49988C1.82708 10.6329 4.36689 13.1727 7.49991 13.1727C10.6329 13.1727 13.1727 10.6329 13.1727 7.49988C13.1727 4.36686 10.6329 1.82704 7.49991 1.82704Z"
    fill="#2563eb"
  />

    </svg>
  </g>
  <!-- Icon 10: rotate-counter-clockwise -->
  <g transform="translate(316, 152)">
    <rect width="48" height="48" fill="#ffffff" stroke="#e9ecef" stroke-width="1" rx="4"/>
    <svg x="8" y="8" width="32" height="32" viewBox="0 0 15 15">
      
  <path
    fill-rule="evenodd"
    clip-rule="evenodd"
    d="M7.59664 2.93628C7.76085 3.06401 8.00012 2.94698 8.00012 2.73895V1.99998C9.98143 2 11.1848 2.3637 11.9105 3.08945C12.6363 3.81522 13 5.0186 13 6.99998C13 7.27613 13.2239 7.49998 13.5 7.49998C13.7761 7.49998 14 7.27613 14 6.99998C14 4.9438 13.6325 3.39719 12.6176 2.38234C11.6028 1.36752 10.0562 0.999999 8.00012 0.999984V0.261266C8.00012 0.0532293 7.76085 -0.0637944 7.59664 0.063928L6.00384 1.30277C5.87516 1.40286 5.87516 1.59735 6.00384 1.69744L7.59664 2.93628ZM9.5 5H2.5C2.22386 5 2 5.22386 2 5.5V12.5C2 12.7761 2.22386 13 2.5 13H9.5C9.77614 13 10 12.7761 10 12.5V5.5C10 5.22386 9.77614 5 9.5 5ZM2.5 4C1.67157 4 1 4.67157 1 5.5V12.5C1 13.3284 1.67157 14 2.5 14H9.5C10.3284 14 11 13.3284 11 12.5V5.5C11 4.67157 10.3284 4 9.5 4H2.5Z"
    fill="#2563eb"
  />

    </svg>
  </g>
  <!-- Icon 11: question-mark-circled -->
  <g transform="translate(376, 152)">
    <rect width="48" height="48" fill="#ffffff" stroke="#e9ecef" stroke-width="1" rx="4"/>
    <svg x="8" y="8" width="32" height="32" viewBox="0 0 15 15">
      
  <path
    fill-rule="evenodd"
    clip-rule="evenodd"
    d="M0.877075 7.49972C0.877075 3.84204 3.84222 0.876892 7.49991 0.876892C11.1576 0.876892 14.1227 3.84204 14.1227 7.49972C14.1227 11.1574 11.1576 14.1226 7.49991 14.1226C3.84222 14.1226 0.877075 11.1574 0.877075 7.49972ZM7.49991 1.82689C4.36689 1.82689 1.82708 4.36671 1.82708 7.49972C1.82708 10.6327 4.36689 13.1726 7.49991 13.1726C10.6329 13.1726 13.1727 10.6327 13.1727 7.49972C13.1727 4.36671 10.6329 1.82689 7.49991 1.82689ZM8.24993 10.5C8.24993 10.9142 7.91414 11.25 7.49993 11.25C7.08571 11.25 6.74993 10.9142 6.74993 10.5C6.74993 10.0858 7.08571 9.75 7.49993 9.75C7.91414 9.75 8.24993 10.0858 8.24993 10.5ZM6.05003 6.25C6.05003 5.57211 6.63511 4.925 7.50003 4.925C8.36496 4.925 8.95003 5.57211 8.95003 6.25C8.95003 6.74118 8.68002 6.99212 8.21447 7.27494C8.16251 7.30651 8.10258 7.34131 8.03847 7.37854L8.03841 7.37858C7.85521 7.48497 7.63788 7.61119 7.47449 7.73849C7.23214 7.92732 6.95003 8.23198 6.95003 8.7C6.95004 9.00376 7.19628 9.25 7.50004 9.25C7.8024 9.25 8.04778 9.00601 8.05002 8.70417L8.05056 8.7033C8.05924 8.6896 8.08493 8.65735 8.15058 8.6062C8.25207 8.52712 8.36508 8.46163 8.51567 8.37436L8.51571 8.37433C8.59422 8.32883 8.68296 8.27741 8.78559 8.21506C9.32004 7.89038 10.05 7.35382 10.05 6.25C10.05 4.92789 8.93511 3.825 7.50003 3.825C6.06496 3.825 4.95003 4.92789 4.95003 6.25C4.95003 6.55376 5.19628 6.8 5.50003 6.8C5.80379 6.8 6.05003 6.55376 6.05003 6.25Z"
    fill="#2563eb"
  />

    </svg>
  </g>
  <!-- Icon 12: pie-chart -->
  <g transform="translate(436, 152)">
    <rect width="48" height="48" fill="#ffffff" stroke="#e9ecef" stroke-width="1" rx="4"/>
    <svg x="8" y="8" width="32" height="32" viewBox="0 0 15 15">
      
  <path
    fill-rule="evenodd"
    clip-rule="evenodd"
    d="M1.85001 7.50043C1.85001 4.37975 4.37963 1.85001 7.50001 1.85001C10.6204 1.85001 13.15 4.37975 13.15 7.50043C13.15 10.6211 10.6204 13.1509 7.50001 13.1509C4.37963 13.1509 1.85001 10.6211 1.85001 7.50043ZM7.50001 0.850006C3.82728 0.850006 0.850006 3.82753 0.850006 7.50043C0.850006 11.1733 3.82728 14.1509 7.50001 14.1509C11.1727 14.1509 14.15 11.1733 14.15 7.50043C14.15 3.82753 11.1727 0.850006 7.50001 0.850006ZM7.00001 8.00001V3.12811C7.16411 3.10954 7.33094 3.10001 7.50001 3.10001C9.93006 3.10001 11.9 5.07014 11.9 7.50043C11.9 7.66935 11.8905 7.83604 11.872 8.00001H7.00001Z"
    fill="#2563eb"
  />

    </svg>
  </g>
  <!-- Icon 13: opacity -->
  <g transform="translate(496, 152)">
    <rect width="48" height="48" fill="#ffffff" stroke="#e9ecef" stroke-width="1" rx="4"/>
    <svg x="8" y="8" width="32" height="32" viewBox="0 0 15 15">
      
  <path
    fill-rule="evenodd"
    clip-rule="evenodd"
    d="M7.5 1.5C4.5 4.25 3 6.5 3 9C3 11.4853 5.01472 13.5 7.5 13.5C9.98528 13.5 12 11.4853 12 9C12 6.5 10.5 4.25 7.5 1.5ZM11 9C11 7.11203 9.97315 5.27195 7.5 2.87357C5.02686 5.27195 4 7.11203 4 9C4 10.933 5.567 12.5 7.5 12.5C9.433 12.5 11 10.933 11 9Z"
    fill="#2563eb"
  />

    </svg>
  </g>
  <!-- Icon 14: minus -->
  <g transform="translate(556, 152)">
    <rect width="48" height="48" fill="#ffffff" stroke="#e9ecef" stroke-width="1" rx="4"/>
    <svg x="8" y="8" width="32" height="32" viewBox="0 0 15 15">
      
  <path
    fill-rule="evenodd"
    clip-rule="evenodd"
    d="M2.25 7.5C2.25 7.22386 2.47386 7 2.75 7H12.25C12.5261 7 12.75 7.22386 12.75 7.5C12.75 7.77614 12.5261 8 12.25 8H2.75C2.47386 8 2.25 7.77614 2.25 7.5Z"
    fill="#2563eb"
  />

    </svg>
  </g>
  <!-- Icon 15: lock-open-1 -->
  <g transform="translate(196, 212)">
    <rect width="48" height="48" fill="#ffffff" stroke="#e9ecef" stroke-width="1" rx="4"/>
    <svg x="8" y="8" width="32" height="32" viewBox="0 0 15 15">
      
  <path
    fill-rule="evenodd"
    clip-rule="evenodd"
    d="M7.4986 0C6.3257 0 5.36107 0.38943 4.73753 1.19361C4.23745 1.83856 4 2.68242 4 3.63325H5C5 2.84313 5.19691 2.23312 5.5278 1.80636C5.91615 1.30552 6.55152 1 7.4986 1C8.35683 1 8.96336 1.26502 9.35846 1.68623C9.75793 2.11211 10 2.76044 10 3.63601V6H3C2.44772 6 2 6.44772 2 7V13C2 13.5523 2.44772 14 3 14H12C12.5523 14 13 13.5523 13 13V7C13 6.44771 12.5523 6 12 6H11V3.63601C11 2.58135 10.7065 1.66167 10.0878 1.0021C9.46477 0.337871 8.57061 0 7.4986 0ZM3 7H12V13H3V7Z"
    fill="#2563eb"
  />

    </svg>
  </g>
  <!-- Icon 16: link-1 -->
  <g transform="translate(256, 212)">
    <rect width="48" height="48" fill="#ffffff" stroke="#e9ecef" stroke-width="1" rx="4"/>
    <svg x="8" y="8" width="32" height="32" viewBox="0 0 15 15">
      
  <path
    fill-rule="evenodd"
    clip-rule="evenodd"
    d="M4.62471 4.00001L4.56402 4.00001C4.04134 3.99993 3.70687 3.99988 3.4182 4.055C2.2379 4.28039 1.29846 5.17053 1.05815 6.33035C0.999538 6.61321 0.999604 6.93998 0.999703 7.43689L0.999711 7.50001L0.999703 7.56313C0.999604 8.06004 0.999538 8.38681 1.05815 8.66967C1.29846 9.8295 2.2379 10.7196 3.4182 10.945C3.70688 11.0001 4.04135 11.0001 4.56403 11L4.62471 11H5.49971C5.77585 11 5.99971 10.7762 5.99971 10.5C5.99971 10.2239 5.77585 10 5.49971 10H4.62471C4.02084 10 3.78907 9.99777 3.60577 9.96277C2.80262 9.8094 2.19157 9.21108 2.03735 8.46678C2.00233 8.29778 1.99971 8.08251 1.99971 7.50001C1.99971 6.91752 2.00233 6.70225 2.03735 6.53324C2.19157 5.78895 2.80262 5.19062 3.60577 5.03725C3.78907 5.00225 4.02084 5.00001 4.62471 5.00001H5.49971C5.77585 5.00001 5.99971 4.77615 5.99971 4.50001C5.99971 4.22387 5.77585 4.00001 5.49971 4.00001H4.62471ZM10.3747 5.00001C10.9786 5.00001 11.2104 5.00225 11.3937 5.03725C12.1968 5.19062 12.8079 5.78895 12.9621 6.53324C12.9971 6.70225 12.9997 6.91752 12.9997 7.50001C12.9997 8.08251 12.9971 8.29778 12.9621 8.46678C12.8079 9.21108 12.1968 9.8094 11.3937 9.96277C11.2104 9.99777 10.9786 10 10.3747 10H9.49971C9.22357 10 8.99971 10.2239 8.99971 10.5C8.99971 10.7762 9.22357 11 9.49971 11H10.3747L10.4354 11C10.9581 11.0001 11.2925 11.0001 11.5812 10.945C12.7615 10.7196 13.701 9.8295 13.9413 8.66967C13.9999 8.38681 13.9998 8.06005 13.9997 7.56314L13.9997 7.50001L13.9997 7.43688C13.9998 6.93998 13.9999 6.61321 13.9413 6.33035C13.701 5.17053 12.7615 4.28039 11.5812 4.055C11.2925 3.99988 10.9581 3.99993 10.4354 4.00001L10.3747 4.00001H9.49971C9.22357 4.00001 8.99971 4.22387 8.99971 4.50001C8.99971 4.77615 9.22357 5.00001 9.49971 5.00001H10.3747ZM5.00038 7C4.72424 7 4.50038 7.22386 4.50038 7.5C4.50038 7.77614 4.72424 8 5.00038 8H10.0004C10.2765 8 10.5004 7.77614 10.5004 7.5C10.5004 7.22386 10.2765 7 10.0004 7H5.00038Z"
    fill="#2563eb"
  />

    </svg>
  </g>
  <!-- Icon 17: layers -->
  <g transform="translate(316, 212)">
    <rect width="48" height="48" fill="#ffffff" stroke="#e9ecef" stroke-width="1" rx="4"/>
    <svg x="8" y="8" width="32" height="32" viewBox="0 0 15 15">
      
  <path
    fill-rule="evenodd"
    clip-rule="evenodd"
    d="M7.75432 0.819537C7.59742 0.726821 7.4025 0.726821 7.24559 0.819537L1.74559 4.06954C1.59336 4.15949 1.49996 4.32317 1.49996 4.5C1.49996 4.67683 1.59336 4.84051 1.74559 4.93046L7.24559 8.18046C7.4025 8.27318 7.59742 8.27318 7.75432 8.18046L13.2543 4.93046C13.4066 4.84051 13.5 4.67683 13.5 4.5C13.5 4.32317 13.4066 4.15949 13.2543 4.06954L7.75432 0.819537ZM7.49996 7.16923L2.9828 4.5L7.49996 1.83077L12.0171 4.5L7.49996 7.16923ZM1.5695 7.49564C1.70998 7.2579 2.01659 7.17906 2.25432 7.31954L7.49996 10.4192L12.7456 7.31954C12.9833 7.17906 13.2899 7.2579 13.4304 7.49564C13.5709 7.73337 13.4921 8.03998 13.2543 8.18046L7.75432 11.4305C7.59742 11.5232 7.4025 11.5232 7.24559 11.4305L1.74559 8.18046C1.50786 8.03998 1.42901 7.73337 1.5695 7.49564ZM1.56949 10.4956C1.70998 10.2579 2.01658 10.1791 2.25432 10.3195L7.49996 13.4192L12.7456 10.3195C12.9833 10.1791 13.2899 10.2579 13.4304 10.4956C13.5709 10.7334 13.4921 11.04 13.2543 11.1805L7.75432 14.4305C7.59742 14.5232 7.4025 14.5232 7.24559 14.4305L1.74559 11.1805C1.50785 11.04 1.42901 10.7334 1.56949 10.4956Z"
    fill="#2563eb"
  />

    </svg>
  </g>
  <!-- Icon 18: iconjar-logo -->
  <g transform="translate(376, 212)">
    <rect width="48" height="48" fill="#ffffff" stroke="#e9ecef" stroke-width="1" rx="4"/>
    <svg x="8" y="8" width="32" height="32" viewBox="0 0 15 15">
      
  <path
    fill-rule="evenodd"
    clip-rule="evenodd"
    d="M7.5 0.0032959C6.80473 0.0032959 6.24953 0.281106 6.25 0.749995C6.25 0.997258 6.42446 1.12014 6.57687 1.22749C6.69507 1.31074 6.8 1.38465 6.8 1.5C6.8 1.7071 6.06224 1.74264 5.19789 1.78427C3.97553 1.84314 2.5 1.91421 2.5 2.5C2.5 2.77614 2.72386 3 3 3H12C12.2761 3 12.5 2.77614 12.5 2.5C12.5 1.91421 11.0245 1.84314 9.80211 1.78427C8.93776 1.74264 8.2 1.7071 8.2 1.5C8.2 1.38465 8.30493 1.31074 8.42313 1.22749C8.57554 1.12014 8.75 0.997258 8.75 0.749995C8.75047 0.281106 8.19527 0.0032959 7.5 0.0032959ZM2.89451 6.12266C2.25806 6.52471 1.90417 7.31118 2.02473 8.0556L2.83588 12.4772C3.00993 13.3562 3.7629 14 4.66061 14H10.3373C11.2354 14 11.9884 13.3562 12.1625 12.4772L12.9736 8.05607C13.089 7.32358 12.8284 6.53276 12.1331 6.09373C11.7283 5.83013 11.6412 5.33231 12.1331 5.12796C12.8284 4.86435 12.6948 4 12 4H10.3001H6.80005H2.99996C2.30469 4 2.19878 4.89328 2.89451 5.15689C3.38642 5.33231 3.29939 5.83013 2.89451 6.12266ZM8.20006 6.25C8.20006 5.81769 8.08572 5.37615 7.90635 5L4.11093 5C4.20626 5.21312 4.2419 5.43889 4.22904 5.65521C4.19522 6.22412 3.84587 6.66899 3.48016 6.93322L3.45492 6.95146L3.42858 6.9681C3.13407 7.15414 2.95801 7.53989 3.01058 7.88749L3.81797 12.2886C3.90513 12.7154 4.26148 13 4.66061 13H10.3373C10.737 13 11.0932 12.7153 11.1804 12.2886L11.9874 7.8898C12.048 7.48247 11.8954 7.12631 11.5992 6.93927L11.5875 6.93184L11.5875 6.93176C11.1947 6.67602 10.8331 6.22785 10.7986 5.64798C10.7846 5.412 10.8264 5.19397 10.9112 5H9.05517C9.01987 5.14611 9.00006 5.31201 9.00006 5.5C9.00006 5.9745 9.21679 6.37127 9.44367 6.78662C9.69284 7.24278 9.95425 7.72136 9.95425 8.34993C9.95425 9.2698 9.49868 9.84205 8.62189 9.84205C8.13206 9.84205 7.57818 9.46097 7.57818 8.75781C7.57818 8.35279 7.71558 8.01646 7.86121 7.65998C8.0254 7.25806 8.20006 6.83051 8.20006 6.25Z"
    fill="#2563eb"
  />

    </svg>
  </g>
  <!-- Icon 19: half-2 -->
  <g transform="translate(436, 212)">
    <rect width="48" height="48" fill="#ffffff" stroke="#e9ecef" stroke-width="1" rx="4"/>
    <svg x="8" y="8" width="32" height="32" viewBox="0 0 15 15">
      
  <path
    fill-rule="evenodd"
    clip-rule="evenodd"
    d="M7.49991 0.876892C3.84222 0.876892 0.877075 3.84204 0.877075 7.49972C0.877075 11.1574 3.84222 14.1226 7.49991 14.1226C11.1576 14.1226 14.1227 11.1574 14.1227 7.49972C14.1227 3.84204 11.1576 0.876892 7.49991 0.876892ZM7.49988 1.82689C4.36688 1.8269 1.82707 4.36672 1.82707 7.49972C1.82707 10.6327 4.36688 13.1725 7.49988 13.1726V1.82689Z"
    fill="#2563eb"
  />

    </svg>
  </g>
  <!-- Icon 20: font-style -->
  <g transform="translate(496, 212)">
    <rect width="48" height="48" fill="#ffffff" stroke="#e9ecef" stroke-width="1" rx="4"/>
    <svg x="8" y="8" width="32" height="32" viewBox="0 0 15 15">
      
  <path
    fill-rule="evenodd"
    clip-rule="evenodd"
    d="M1.03791 9.98075C0.934777 9.6583 1.11603 9.37719 1.40005 9.24871C1.68408 9.12022 2.09463 9.13412 2.27071 9.45426C2.85393 10.5147 3.64599 10.7282 4.48665 10.7282C5.52721 10.7282 6.29659 10.2615 6.29659 9.45426C6.29659 8.8047 5.9119 8.46416 4.87134 8.14253L4.15872 7.92181C2.64518 7.44883 1.88842 6.69206 1.88842 5.45601C1.88842 3.79743 3.27583 2.6875 5.24342 2.6875C6.91733 2.6875 7.97409 3.33536 8.43833 4.31065C8.57087 4.58909 8.57614 4.91294 8.22794 5.19114C7.87974 5.46934 7.52351 5.34799 7.23327 5.03839C6.47215 4.22653 5.99545 4.04968 5.25604 4.04968C4.1398 4.04968 3.547 4.63618 3.547 5.27943C3.547 5.86592 3.96322 6.23169 4.94702 6.5344L5.67856 6.76143C7.22994 7.23441 7.97409 7.95964 7.97409 9.17047C7.97409 10.7723 6.69389 12.0903 4.46143 12.0903C2.86612 12.0903 1.40005 11.1131 1.03791 9.98075ZM11.8491 8.77985C10.661 8.39543 10.1649 7.86114 10.1649 6.98805C10.1649 5.86736 11.1636 5.04639 12.6128 5.04639C13.8546 5.04639 14.6629 5.63345 14.9778 6.6346C15.0443 6.84599 14.9593 6.98006 14.7475 7.0491C14.5394 7.11697 14.3176 7.09974 14.238 6.89611C13.9356 6.12273 13.352 5.76311 12.5998 5.76311C11.6467 5.76311 11.0135 6.25178 11.0135 6.91638C11.0135 7.45066 11.3464 7.75038 12.2473 8.04358L12.8348 8.23254C14.062 8.62999 14.5516 9.13821 14.5516 10.0178C14.5516 11.1972 13.481 12.0442 11.9927 12.0442C10.6439 12.0442 9.65644 11.2809 9.41979 10.3361C9.36535 10.1188 9.41192 10.0287 9.70039 9.96184C9.98886 9.89499 10.0714 9.89918 10.1715 10.1369C10.4555 10.8114 11.1531 11.3275 12.0318 11.3275C12.9914 11.3275 13.6834 10.7802 13.6834 10.0634C13.6834 9.53567 13.3961 9.28807 12.4366 8.97532L11.8491 8.77985Z"
    fill="#2563eb"
  />

    </svg>
  </g>
  <!-- Icon 21: file-minus -->
  <g transform="translate(556, 212)">
    <rect width="48" height="48" fill="#ffffff" stroke="#e9ecef" stroke-width="1" rx="4"/>
    <svg x="8" y="8" width="32" height="32" viewBox="0 0 15 15">
      
  <path
    fill-rule="evenodd"
    clip-rule="evenodd"
    d="M3 2.5C3 2.22386 3.22386 2 3.5 2H9.29289L12 4.70711V12.5C12 12.7761 11.7761 13 11.5 13H3.5C3.22386 13 3 12.7761 3 12.5V2.5ZM3.5 1C2.67157 1 2 1.67157 2 2.5V12.5C2 13.3284 2.67157 14 3.5 14H11.5C12.3284 14 13 13.3284 13 12.5V4.60355C13 4.40464 12.921 4.21388 12.7803 4.07322L9.85355 1.14645C9.75979 1.05268 9.63261 1 9.5 1H3.5ZM5.25 7C4.97386 7 4.75 7.22386 4.75 7.5C4.75 7.77614 4.97386 8 5.25 8H9.75C10.0261 8 10.25 7.77614 10.25 7.5C10.25 7.22386 10.0261 7 9.75 7H5.25Z"
    fill="#2563eb"
  />

    </svg>
  </g>
  <!-- Icon 22: exclamation-triangle -->
  <g transform="translate(196, 272)">
    <rect width="48" height="48" fill="#ffffff" stroke="#e9ecef" stroke-width="1" rx="4"/>
    <svg x="8" y="8" width="32" height="32" viewBox="0 0 15 15">
      
  <path
    fill-rule="evenodd"
    clip-rule="evenodd"
    d="M8.4449 0.608765C8.0183 -0.107015 6.9817 -0.107015 6.55509 0.608766L0.161178 11.3368C-0.275824 12.07 0.252503 13 1.10608 13H13.8939C14.7475 13 15.2758 12.07 14.8388 11.3368L8.4449 0.608765ZM7.4141 1.12073C7.45288 1.05566 7.54712 1.05566 7.5859 1.12073L13.9798 11.8488C14.0196 11.9154 13.9715 12 13.8939 12H1.10608C1.02849 12 0.980454 11.9154 1.02018 11.8488L7.4141 1.12073ZM6.8269 4.48611C6.81221 4.10423 7.11783 3.78663 7.5 3.78663C7.88217 3.78663 8.18778 4.10423 8.1731 4.48612L8.01921 8.48701C8.00848 8.766 7.7792 8.98664 7.5 8.98664C7.2208 8.98664 6.99151 8.766 6.98078 8.48701L6.8269 4.48611ZM8.24989 10.476C8.24989 10.8902 7.9141 11.226 7.49989 11.226C7.08567 11.226 6.74989 10.8902 6.74989 10.476C6.74989 10.0618 7.08567 9.72599 7.49989 9.72599C7.9141 9.72599 8.24989 10.0618 8.24989 10.476Z"
    fill="#2563eb"
  />

    </svg>
  </g>
  <!-- Icon 23: drag-handle-vertical -->
  <g transform="translate(256, 272)">
    <rect width="48" height="48" fill="#ffffff" stroke="#e9ecef" stroke-width="1" rx="4"/>
    <svg x="8" y="8" width="32" height="32" viewBox="0 0 15 15">
      
  <path
    fill-rule="evenodd"
    clip-rule="evenodd"
    d="M4.09998 12.5C4.09998 12.7209 4.27906 12.9 4.49998 12.9C4.72089 12.9 4.89998 12.7209 4.89998 12.5L4.89998 2.50002C4.89998 2.27911 4.72089 2.10003 4.49998 2.10003C4.27906 2.10003 4.09998 2.27911 4.09998 2.50002L4.09998 12.5ZM6.09998 12.5C6.09998 12.7209 6.27906 12.9 6.49998 12.9C6.72089 12.9 6.89998 12.7209 6.89998 12.5L6.89998 2.50002C6.89998 2.27911 6.72089 2.10003 6.49998 2.10003C6.27906 2.10003 6.09998 2.27911 6.09998 2.50002L6.09998 12.5ZM8.49998 12.9C8.27906 12.9 8.09998 12.7209 8.09998 12.5L8.09998 2.50002C8.09998 2.27911 8.27906 2.10002 8.49998 2.10002C8.72089 2.10002 8.89998 2.27911 8.89998 2.50002L8.89998 12.5C8.89998 12.7209 8.72089 12.9 8.49998 12.9ZM10.1 12.5C10.1 12.7209 10.2791 12.9 10.5 12.9C10.7209 12.9 10.9 12.7209 10.9 12.5L10.9 2.50002C10.9 2.27911 10.7209 2.10002 10.5 2.10002C10.2791 2.10002 10.1 2.27911 10.1 2.50002L10.1 12.5Z"
    fill="#2563eb"
  />

    </svg>
  </g>
  <!-- Icon 24: dots-vertical -->
  <g transform="translate(316, 272)">
    <rect width="48" height="48" fill="#ffffff" stroke="#e9ecef" stroke-width="1" rx="4"/>
    <svg x="8" y="8" width="32" height="32" viewBox="0 0 15 15">
      
  <path
    fill-rule="evenodd"
    clip-rule="evenodd"
    d="M8.625 2.5C8.625 3.12132 8.12132 3.625 7.5 3.625C6.87868 3.625 6.375 3.12132 6.375 2.5C6.375 1.87868 6.87868 1.375 7.5 1.375C8.12132 1.375 8.625 1.87868 8.625 2.5ZM8.625 7.5C8.625 8.12132 8.12132 8.625 7.5 8.625C6.87868 8.625 6.375 8.12132 6.375 7.5C6.375 6.87868 6.87868 6.375 7.5 6.375C8.12132 6.375 8.625 6.87868 8.625 7.5ZM7.5 13.625C8.12132 13.625 8.625 13.1213 8.625 12.5C8.625 11.8787 8.12132 11.375 7.5 11.375C6.87868 11.375 6.375 11.8787 6.375 12.5C6.375 13.1213 6.87868 13.625 7.5 13.625Z"
    fill="#2563eb"
  />

    </svg>
  </g>
  <!-- Icon 25: desktop -->
  <g transform="translate(376, 272)">
    <rect width="48" height="48" fill="#ffffff" stroke="#e9ecef" stroke-width="1" rx="4"/>
    <svg x="8" y="8" width="32" height="32" viewBox="0 0 15 15">
      
  <path
    fill-rule="evenodd"
    clip-rule="evenodd"
    d="M1 3.25C1 3.11193 1.11193 3 1.25 3H13.75C13.8881 3 14 3.11193 14 3.25V10.75C14 10.8881 13.8881 11 13.75 11H1.25C1.11193 11 1 10.8881 1 10.75V3.25ZM1.25 2C0.559643 2 0 2.55964 0 3.25V10.75C0 11.4404 0.559644 12 1.25 12H5.07341L4.82991 13.2986C4.76645 13.6371 5.02612 13.95 5.37049 13.95H9.62951C9.97389 13.95 10.2336 13.6371 10.1701 13.2986L9.92659 12H13.75C14.4404 12 15 11.4404 15 10.75V3.25C15 2.55964 14.4404 2 13.75 2H1.25ZM9.01091 12H5.98909L5.79222 13.05H9.20778L9.01091 12Z"
    fill="#2563eb"
  />

    </svg>
  </g>
  <!-- Icon 26: cross-circled -->
  <g transform="translate(436, 272)">
    <rect width="48" height="48" fill="#ffffff" stroke="#e9ecef" stroke-width="1" rx="4"/>
    <svg x="8" y="8" width="32" height="32" viewBox="0 0 15 15">
      
  <path
    fill-rule="evenodd"
    clip-rule="evenodd"
    d="M0.877075 7.49988C0.877075 3.84219 3.84222 0.877045 7.49991 0.877045C11.1576 0.877045 14.1227 3.84219 14.1227 7.49988C14.1227 11.1575 11.1576 14.1227 7.49991 14.1227C3.84222 14.1227 0.877075 11.1575 0.877075 7.49988ZM7.49991 1.82704C4.36689 1.82704 1.82708 4.36686 1.82708 7.49988C1.82708 10.6329 4.36689 13.1727 7.49991 13.1727C10.6329 13.1727 13.1727 10.6329 13.1727 7.49988C13.1727 4.36686 10.6329 1.82704 7.49991 1.82704ZM9.85358 5.14644C10.0488 5.3417 10.0488 5.65829 9.85358 5.85355L8.20713 7.49999L9.85358 9.14644C10.0488 9.3417 10.0488 9.65829 9.85358 9.85355C9.65832 10.0488 9.34173 10.0488 9.14647 9.85355L7.50002 8.2071L5.85358 9.85355C5.65832 10.0488 5.34173 10.0488 5.14647 9.85355C4.95121 9.65829 4.95121 9.3417 5.14647 9.14644L6.79292 7.49999L5.14647 5.85355C4.95121 5.65829 4.95121 5.3417 5.14647 5.14644C5.34173 4.95118 5.65832 4.95118 5.85358 5.14644L7.50002 6.79289L9.14647 5.14644C9.34173 4.95118 9.65832 4.95118 9.85358 5.14644Z"
    fill="#2563eb"
  />

    </svg>
  </g>
  <!-- Icon 27: corner-bottom-right -->
  <g transform="translate(496, 272)">
    <rect width="48" height="48" fill="#ffffff" stroke="#e9ecef" stroke-width="1" rx="4"/>
    <svg x="8" y="8" width="32" height="32" viewBox="0 0 15 15">
      
  <path
    fill-rule="evenodd"
    clip-rule="evenodd"
    d="M5.12263 12H5.1H3.5C3.22386 12 3 11.7761 3 11.5C3 11.2239 3.22386 11 3.5 11H5.1C6.22836 11 7.04455 10.9996 7.68648 10.9472C8.32256 10.8952 8.74338 10.7946 9.08897 10.6185C9.74753 10.283 10.283 9.74753 10.6185 9.08897C10.7946 8.74338 10.8952 8.32256 10.9472 7.68648C10.9996 7.04455 11 6.22836 11 5.1V3.5C11 3.22386 11.2239 3 11.5 3C11.7761 3 12 3.22386 12 3.5V5.1V5.12263C12 6.22359 12 7.08052 11.9438 7.76791C11.8868 8.46584 11.7694 9.0329 11.5095 9.54296C11.0781 10.3897 10.3897 11.0781 9.54296 11.5095C9.0329 11.7694 8.46584 11.8868 7.76791 11.9438C7.08052 12 6.22359 12 5.12263 12Z"
    fill="#2563eb"
  />

    </svg>
  </g>
  <!-- Icon 28: component-2 -->
  <g transform="translate(556, 272)">
    <rect width="48" height="48" fill="#ffffff" stroke="#e9ecef" stroke-width="1" rx="4"/>
    <svg x="8" y="8" width="32" height="32" viewBox="0 0 15 15">
      
  <path
    fill-rule="evenodd"
    clip-rule="evenodd"
    d="M3.87935 1H3.9H11.1H11.1207C11.5231 0.999994 11.8553 0.999989 12.1259 1.0221C12.407 1.04506 12.6653 1.09434 12.908 1.21799C13.2843 1.40973 13.5903 1.7157 13.782 2.09202C13.9057 2.33469 13.9549 2.59304 13.9779 2.87409C14 3.14468 14 3.47686 14 3.87934V3.9V11.1V11.1207C14 11.5231 14 11.8553 13.9779 12.1259C13.9549 12.407 13.9057 12.6653 13.782 12.908C13.5903 13.2843 13.2843 13.5903 12.908 13.782C12.6653 13.9057 12.407 13.9549 12.1259 13.9779C11.8553 14 11.5231 14 11.1207 14H11.1H3.9H3.87934C3.47686 14 3.14468 14 2.87409 13.9779C2.59304 13.9549 2.33469 13.9057 2.09202 13.782C1.7157 13.5903 1.40973 13.2843 1.21799 12.908C1.09434 12.6653 1.04506 12.407 1.0221 12.1259C0.999989 11.8553 0.999994 11.5231 1 11.1207V11.1207V11.1V3.9V3.87935V3.87934C0.999994 3.47686 0.999989 3.14468 1.0221 2.87409C1.04506 2.59304 1.09434 2.33469 1.21799 2.09202C1.40973 1.7157 1.7157 1.40973 2.09202 1.21799C2.33469 1.09434 2.59304 1.04506 2.87409 1.0221C3.14469 0.999989 3.47687 0.999994 3.87935 1ZM2.95552 2.01878C2.73631 2.03669 2.62421 2.06915 2.54601 2.10899C2.35785 2.20487 2.20487 2.35785 2.10899 2.54601C2.06915 2.62421 2.03669 2.73631 2.01878 2.95552C2.00039 3.18056 2 3.47171 2 3.9V7H7V2H3.9C3.47171 2 3.18056 2.00039 2.95552 2.01878ZM7 8H2V11.1C2 11.5283 2.00039 11.8194 2.01878 12.0445C2.03669 12.2637 2.06915 12.3758 2.10899 12.454C2.20487 12.6422 2.35785 12.7951 2.54601 12.891C2.62421 12.9309 2.73631 12.9633 2.95552 12.9812C3.18056 12.9996 3.47171 13 3.9 13H7V8ZM8 8H13V11.1C13 11.5283 12.9996 11.8194 12.9812 12.0445C12.9633 12.2637 12.9309 12.3758 12.891 12.454C12.7951 12.6422 12.6422 12.7951 12.454 12.891C12.3758 12.9309 12.2637 12.9633 12.0445 12.9812C11.8194 12.9996 11.5283 13 11.1 13H8V8ZM13 7H8V2H11.1C11.5283 2 11.8194 2.00039 12.0445 2.01878C12.2637 2.03669 12.3758 2.06915 12.454 2.10899C12.6422 2.20487 12.7951 2.35785 12.891 2.54601C12.9309 2.62421 12.9633 2.73631 12.9812 2.95552C12.9996 3.18056 13 3.47171 13 3.9V7Z"
    fill="#2563eb"
  />

    </svg>
  </g>
  <!-- Icon 29: clipboard -->
  <g transform="translate(196, 332)">
    <rect width="48" height="48" fill="#ffffff" stroke="#e9ecef" stroke-width="1" rx="4"/>
    <svg x="8" y="8" width="32" height="32" viewBox="0 0 15 15">
      
  <path
    fill-rule="evenodd"
    clip-rule="evenodd"
    d="M5 2V1H10V2H5ZM4.75 0C4.33579 0 4 0.335786 4 0.75V1H3.5C2.67157 1 2 1.67157 2 2.5V12.5C2 13.3284 2.67157 14 3.5 14H11.5C12.3284 14 13 13.3284 13 12.5V2.5C13 1.67157 12.3284 1 11.5 1H11V0.75C11 0.335786 10.6642 0 10.25 0H4.75ZM11 2V2.25C11 2.66421 10.6642 3 10.25 3H4.75C4.33579 3 4 2.66421 4 2.25V2H3.5C3.22386 2 3 2.22386 3 2.5V12.5C3 12.7761 3.22386 13 3.5 13H11.5C11.7761 13 12 12.7761 12 12.5V2.5C12 2.22386 11.7761 2 11.5 2H11Z"
    fill="#2563eb"
  />

    </svg>
  </g>
  <!-- Icon 30: check -->
  <g transform="translate(256, 332)">
    <rect width="48" height="48" fill="#ffffff" stroke="#e9ecef" stroke-width="1" rx="4"/>
    <svg x="8" y="8" width="32" height="32" viewBox="0 0 15 15">
      
  <path
    fill-rule="evenodd"
    clip-rule="evenodd"
    d="M11.4669 3.72684C11.7558 3.91574 11.8369 4.30308 11.648 4.59198L7.39799 11.092C7.29783 11.2452 7.13556 11.3467 6.95402 11.3699C6.77247 11.3931 6.58989 11.3355 6.45446 11.2124L3.70446 8.71241C3.44905 8.48022 3.43023 8.08494 3.66242 7.82953C3.89461 7.57412 4.28989 7.55529 4.5453 7.78749L6.75292 9.79441L10.6018 3.90792C10.7907 3.61902 11.178 3.53795 11.4669 3.72684Z"
    fill="#2563eb"
  />

    </svg>
  </g>
  <!-- Icon 31: card-stack-plus -->
  <g transform="translate(316, 332)">
    <rect width="48" height="48" fill="#ffffff" stroke="#e9ecef" stroke-width="1" rx="4"/>
    <svg x="8" y="8" width="32" height="32" viewBox="0 0 15 15">
      
  <path
    fill-rule="evenodd"
    clip-rule="evenodd"
    d="M2 3.5C2 3.22386 2.22386 3 2.5 3H12.5C12.7761 3 13 3.22386 13 3.5V9.5C13 9.77614 12.7761 10 12.5 10H2.5C2.22386 10 2 9.77614 2 9.5V3.5ZM2 10.9146C1.4174 10.7087 1 10.1531 1 9.5V3.5C1 2.67157 1.67157 2 2.5 2H12.5C13.3284 2 14 2.67157 14 3.5V9.5C14 10.1531 13.5826 10.7087 13 10.9146V11.5C13 12.3284 12.3284 13 11.5 13H3.5C2.67157 13 2 12.3284 2 11.5V10.9146ZM12 11V11.5C12 11.7761 11.7761 12 11.5 12H3.5C3.22386 12 3 11.7761 3 11.5V11H12ZM5 6.5C5 6.22386 5.22386 6 5.5 6H7V4.5C7 4.22386 7.22386 4 7.5 4C7.77614 4 8 4.22386 8 4.5V6H9.5C9.77614 6 10 6.22386 10 6.5C10 6.77614 9.77614 7 9.5 7H8V8.5C8 8.77614 7.77614 9 7.5 9C7.22386 9 7 8.77614 7 8.5V7H5.5C5.22386 7 5 6.77614 5 6.5Z"
    fill="#2563eb"
  />

    </svg>
  </g>
  <!-- Icon 32: border-style -->
  <g transform="translate(376, 332)">
    <rect width="48" height="48" fill="#ffffff" stroke="#e9ecef" stroke-width="1" rx="4"/>
    <svg x="8" y="8" width="32" height="32" viewBox="0 0 15 15">
      
  <path
    fill-rule="evenodd"
    clip-rule="evenodd"
    d="M1.5 3C1.22386 3 1 3.22386 1 3.5C1 3.77614 1.22386 4 1.5 4H13.5C13.7761 4 14 3.77614 14 3.5C14 3.22386 13.7761 3 13.5 3H1.5ZM1 7.5C1 7.22386 1.22386 7 1.5 7H3.5C3.77614 7 4 7.22386 4 7.5C4 7.77614 3.77614 8 3.5 8H1.5C1.22386 8 1 7.77614 1 7.5ZM1 11.5C1 11.2239 1.22386 11 1.5 11C1.77614 11 2 11.2239 2 11.5C2 11.7761 1.77614 12 1.5 12C1.22386 12 1 11.7761 1 11.5ZM3 11.5C3 11.2239 3.22386 11 3.5 11C3.77614 11 4 11.2239 4 11.5C4 11.7761 3.77614 12 3.5 12C3.22386 12 3 11.7761 3 11.5ZM5.5 11C5.22386 11 5 11.2239 5 11.5C5 11.7761 5.22386 12 5.5 12C5.77614 12 6 11.7761 6 11.5C6 11.2239 5.77614 11 5.5 11ZM7 11.5C7 11.2239 7.22386 11 7.5 11C7.77614 11 8 11.2239 8 11.5C8 11.7761 7.77614 12 7.5 12C7.22386 12 7 11.7761 7 11.5ZM9.5 11C9.22386 11 9 11.2239 9 11.5C9 11.7761 9.22386 12 9.5 12C9.77614 12 10 11.7761 10 11.5C10 11.2239 9.77614 11 9.5 11ZM11 11.5C11 11.2239 11.2239 11 11.5 11C11.7761 11 12 11.2239 12 11.5C12 11.7761 11.7761 12 11.5 12C11.2239 12 11 11.7761 11 11.5ZM13.5 11C13.2239 11 13 11.2239 13 11.5C13 11.7761 13.2239 12 13.5 12C13.7761 12 14 11.7761 14 11.5C14 11.2239 13.7761 11 13.5 11ZM6.5 7C6.22386 7 6 7.22386 6 7.5C6 7.77614 6.22386 8 6.5 8H8.5C8.77614 8 9 7.77614 9 7.5C9 7.22386 8.77614 7 8.5 7H6.5ZM11 7.5C11 7.22386 11.2239 7 11.5 7H13.5C13.7761 7 14 7.22386 14 7.5C14 7.77614 13.7761 8 13.5 8H11.5C11.2239 8 11 7.77614 11 7.5Z"
    fill="#2563eb"
  />

    </svg>
  </g>
  <!-- Icon 33: border-all -->
  <g transform="translate(436, 332)">
    <rect width="48" height="48" fill="#ffffff" stroke="#e9ecef" stroke-width="1" rx="4"/>
    <svg x="8" y="8" width="32" height="32" viewBox="0 0 15 15">
      
  <path
    fill-rule="evenodd"
    clip-rule="evenodd"
    d="M0.25 1C0.25 0.585786 0.585786 0.25 1 0.25H14C14.4142 0.25 14.75 0.585786 14.75 1V14C14.75 14.4142 14.4142 14.75 14 14.75H1C0.585786 14.75 0.25 14.4142 0.25 14V1ZM1.75 1.75V13.25H13.25V1.75H1.75Z"
    fill="#2563eb"
  />
  <rect x="7" y="5" width="1" height="1" rx=".5" fill="#2563eb" />
  <rect x="7" y="3" width="1" height="1" rx=".5" fill="#2563eb" />
  <rect x="7" y="7" width="1" height="1" rx=".5" fill="#2563eb" />
  <rect x="5" y="7" width="1" height="1" rx=".5" fill="#2563eb" />
  <rect x="3" y="7" width="1" height="1" rx=".5" fill="#2563eb" />
  <rect x="9" y="7" width="1" height="1" rx=".5" fill="#2563eb" />
  <rect x="11" y="7" width="1" height="1" rx=".5" fill="#2563eb" />
  <rect x="7" y="9" width="1" height="1" rx=".5" fill="#2563eb" />
  <rect x="7" y="11" width="1" height="1" rx=".5" fill="#2563eb" />

    </svg>
  </g>
  <!-- Icon 34: aspect-ratio -->
  <g transform="translate(496, 332)">
    <rect width="48" height="48" fill="#ffffff" stroke="#e9ecef" stroke-width="1" rx="4"/>
    <svg x="8" y="8" width="32" height="32" viewBox="0 0 15 15">
      
  <path
    fill-rule="evenodd"
    clip-rule="evenodd"
    d="M2.5 2H12.5C12.7761 2 13 2.22386 13 2.5V12.5C13 12.7761 12.7761 13 12.5 13H2.5C2.22386 13 2 12.7761 2 12.5V2.5C2 2.22386 2.22386 2 2.5 2ZM1 2.5C1 1.67157 1.67157 1 2.5 1H12.5C13.3284 1 14 1.67157 14 2.5V12.5C14 13.3284 13.3284 14 12.5 14H2.5C1.67157 14 1 13.3284 1 12.5V2.5ZM7.5 4C7.77614 4 8 3.77614 8 3.5C8 3.22386 7.77614 3 7.5 3C7.22386 3 7 3.22386 7 3.5C7 3.77614 7.22386 4 7.5 4ZM8 5.5C8 5.77614 7.77614 6 7.5 6C7.22386 6 7 5.77614 7 5.5C7 5.22386 7.22386 5 7.5 5C7.77614 5 8 5.22386 8 5.5ZM7.5 8C7.77614 8 8 7.77614 8 7.5C8 7.22386 7.77614 7 7.5 7C7.22386 7 7 7.22386 7 7.5C7 7.77614 7.22386 8 7.5 8ZM10 7.5C10 7.77614 9.77614 8 9.5 8C9.22386 8 9 7.77614 9 7.5C9 7.22386 9.22386 7 9.5 7C9.77614 7 10 7.22386 10 7.5ZM11.5 8C11.7761 8 12 7.77614 12 7.5C12 7.22386 11.7761 7 11.5 7C11.2239 7 11 7.22386 11 7.5C11 7.77614 11.2239 8 11.5 8Z"
    fill="#2563eb"
  />

    </svg>
  </g>
  <!-- Icon 35: archive -->
  <g transform="translate(556, 332)">
    <rect width="48" height="48" fill="#ffffff" stroke="#e9ecef" stroke-width="1" rx="4"/>
    <svg x="8" y="8" width="32" height="32" viewBox="0 0 15 15">
      
  <path
    fill-rule="evenodd"
    clip-rule="evenodd"
    d="M3.30902 1C2.93025 1 2.58398 1.214 2.41459 1.55279L1.05279 4.27639C1.01807 4.34582 1 4.42238 1 4.5V13C1 13.5523 1.44772 14 2 14H13C13.5523 14 14 13.5523 14 13V4.5C14 4.42238 13.9819 4.34582 13.9472 4.27639L12.5854 1.55281C12.416 1.21403 12.0698 1.00003 11.691 1.00003L7.5 1.00001L3.30902 1ZM3.30902 2L7 2.00001V4H2.30902L3.30902 2ZM8 4V2.00002L11.691 2.00003L12.691 4H8ZM7.5 5H13V13H2V5H7.5ZM5.5 7C5.22386 7 5 7.22386 5 7.5C5 7.77614 5.22386 8 5.5 8H9.5C9.77614 8 10 7.77614 10 7.5C10 7.22386 9.77614 7 9.5 7H5.5Z"
    fill="#2563eb"
  />

    </svg>
  </g>
  
  <!-- Footer -->
  <text x="400" y="580" text-anchor="middle" font-family="system-ui, -apple-system, sans-serif" font-size="12" fill="#6c757d">
    Showing 35 of 318 icons
  </text>
  
</svg>