<svg width="800" height="600" xmlns="http://www.w3.org/2000/svg">
  <!-- Background -->
  <rect width="800" height="600" fill="#ffffff"/>
  
  <!-- Header Background -->
  <rect width="800" height="80" fill="#f8f9fa"/>
  
  <!-- Title -->
  <text x="400" y="30" text-anchor="middle" font-family="system-ui, -apple-system, sans-serif" font-size="20" font-weight="bold" fill="#212529">Remix Icon - default</text>
  
  <!-- Subtitle -->
  <text x="400" y="55" text-anchor="middle" font-family="system-ui, -apple-system, sans-serif" font-size="14" fill="#6c757d">3,058 icons</text>
  
  <!-- Icon Grid -->
  <!-- Icon 1: windy-line -->
  <g transform="translate(196, 92)">
    <rect width="48" height="48" fill="#ffffff" stroke="#e9ecef" stroke-width="1" rx="4"/>
    <svg x="8" y="8" width="32" height="32" viewBox="0 0 24 24">
      <path d="M10.5 17H4V15H10.5C12.433 15 14 16.567 14 18.5C14 20.433 12.433 22 10.5 22C8.99957 22 7.71966 21.0559 7.22196 19.7293L9.09513 19.0268C9.30843 19.5954 9.85696 20 10.5 20C11.3284 20 12 19.3284 12 18.5C12 17.6716 11.3284 17 10.5 17ZM5 11H18.5C20.433 11 22 12.567 22 14.5C22 16.433 20.433 18 18.5 18C16.9996 18 15.7197 17.0559 15.222 15.7293L17.0951 15.0268C17.3084 15.5954 17.857 16 18.5 16C19.3284 16 20 15.3284 20 14.5C20 13.6716 19.3284 13 18.5 13H5C3.34315 13 2 11.6569 2 10C2 8.34315 3.34315 7 5 7H13.5C14.3284 7 15 6.32843 15 5.5C15 4.67157 14.3284 4 13.5 4C12.857 4 12.3084 4.40463 12.0951 4.97317L10.222 4.27073C10.7197 2.94414 11.9996 2 13.5 2C15.433 2 17 3.567 17 5.5C17 7.433 15.433 9 13.5 9H5C4.44772 9 4 9.44772 4 10C4 10.5523 4.44772 11 5 11Z"/>
    </svg>
  </g>
  <!-- Icon 2: user-unfollow-fill -->
  <g transform="translate(256, 92)">
    <rect width="48" height="48" fill="#ffffff" stroke="#e9ecef" stroke-width="1" rx="4"/>
    <svg x="8" y="8" width="32" height="32" viewBox="0 0 24 24">
      <path d="M14 14.252V22H4C4 17.5817 7.58172 14 12 14C12.6906 14 13.3608 14.0875 14 14.252ZM12 13C8.685 13 6 10.315 6 7C6 3.685 8.685 1 12 1C15.315 1 18 3.685 18 7C18 10.315 15.315 13 12 13ZM19 16.5858L21.1213 14.4645L22.5355 15.8787L20.4142 18L22.5355 20.1213L21.1213 21.5355L19 19.4142L16.8787 21.5355L15.4645 20.1213L17.5858 18L15.4645 15.8787L16.8787 14.4645L19 16.5858Z"/>
    </svg>
  </g>
  <!-- Icon 3: emotion-normal-line -->
  <g transform="translate(316, 92)">
    <rect width="48" height="48" fill="#ffffff" stroke="#e9ecef" stroke-width="1" rx="4"/>
    <svg x="8" y="8" width="32" height="32" viewBox="0 0 24 24">
      <path d="M12 22C6.47715 22 2 17.5228 2 12C2 6.47715 6.47715 2 12 2C17.5228 2 22 6.47715 22 12C22 17.5228 17.5228 22 12 22ZM12 20C16.4183 20 20 16.4183 20 12C20 7.58172 16.4183 4 12 4C7.58172 4 4 7.58172 4 12C4 16.4183 7.58172 20 12 20ZM8 14H16V16H8V14ZM8 11C7.17157 11 6.5 10.3284 6.5 9.5C6.5 8.67157 7.17157 8 8 8C8.82843 8 9.5 8.67157 9.5 9.5C9.5 10.3284 8.82843 11 8 11ZM16 11C15.1716 11 14.5 10.3284 14.5 9.5C14.5 8.67157 15.1716 8 16 8C16.8284 8 17.5 8.67157 17.5 9.5C17.5 10.3284 16.8284 11 16 11Z"/>
    </svg>
  </g>
  <!-- Icon 4: rocket-fill -->
  <g transform="translate(376, 92)">
    <rect width="48" height="48" fill="#ffffff" stroke="#e9ecef" stroke-width="1" rx="4"/>
    <svg x="8" y="8" width="32" height="32" viewBox="0 0 24 24">
      <path d="M5.33053 15.9288C5.115 14.9914 5.00054 14.0103 5.00054 12.9999C5.00054 7.91198 7.90319 3.5636 12.0005 1.81799C16.0979 3.5636 19.0005 7.91198 19.0005 12.9999C19.0005 14.0103 18.8861 14.9914 18.6706 15.9288L20.6907 17.7245C20.8704 17.8842 20.9109 18.1493 20.7872 18.3555L18.33 22.4508C18.1879 22.6876 17.8808 22.7644 17.644 22.6223C17.609 22.6013 17.5766 22.576 17.5477 22.5471L15.2934 20.2928C15.1059 20.1053 14.8515 19.9999 14.5863 19.9999H9.41476C9.14954 19.9999 8.89519 20.1053 8.70765 20.2928L6.45337 22.5471C6.2581 22.7424 5.94152 22.7424 5.74626 22.5471C5.71735 22.5182 5.6921 22.4859 5.67107 22.4508L3.21385 18.3555C3.09014 18.1493 3.13071 17.8842 3.31042 17.7245L5.33053 15.9288ZM12.0005 12.9999C13.1051 12.9999 14.0005 12.1045 14.0005 10.9999C14.0005 9.89537 13.1051 8.99994 12.0005 8.99994C10.896 8.99994 10.0005 9.89537 10.0005 10.9999C10.0005 12.1045 10.896 12.9999 12.0005 12.9999Z"/>
    </svg>
  </g>
  <!-- Icon 5: compass-4-line -->
  <g transform="translate(436, 92)">
    <rect width="48" height="48" fill="#ffffff" stroke="#e9ecef" stroke-width="1" rx="4"/>
    <svg x="8" y="8" width="32" height="32" viewBox="0 0 24 24">
      <path d="M12 22C6.47715 22 2 17.5228 2 12C2 6.47715 6.47715 2 12 2C17.5228 2 22 6.47715 22 12C22 17.5228 17.5228 22 12 22ZM12 20C16.4183 20 20 16.4183 20 12C20 7.58172 16.4183 4 12 4C7.58172 4 4 7.58172 4 12C4 16.4183 7.58172 20 12 20ZM15.4462 9.96803L9.96803 15.4462C9.38559 15.102 8.89798 14.6144 8.55382 14.032L14.032 8.55382C14.6144 8.89798 15.102 9.38559 15.4462 9.96803Z"/>
    </svg>
  </g>
  <!-- Icon 6: speaker-3-fill -->
  <g transform="translate(496, 92)">
    <rect width="48" height="48" fill="#ffffff" stroke="#e9ecef" stroke-width="1" rx="4"/>
    <svg x="8" y="8" width="32" height="32" viewBox="0 0 24 24">
      <path d="M4 3H20C20.5523 3 21 3.44772 21 4V20C21 20.5523 20.5523 21 20 21H4C3.44772 21 3 20.5523 3 20V4C3 3.44772 3.44772 3 4 3ZM12 16C9.79086 16 8 14.2091 8 12C8 9.79086 9.79086 8 12 8C14.2091 8 16 9.79086 16 12C16 14.2091 14.2091 16 12 16ZM12 18C15.3137 18 18 15.3137 18 12C18 8.68629 15.3137 6 12 6C8.68629 6 6 8.68629 6 12C6 15.3137 8.68629 18 12 18ZM6 7C6.55228 7 7 6.55228 7 6C7 5.44772 6.55228 5 6 5C5.44772 5 5 5.44772 5 6C5 6.55228 5.44772 7 6 7ZM18 7C18.5523 7 19 6.55228 19 6C19 5.44772 18.5523 5 18 5C17.4477 5 17 5.44772 17 6C17 6.55228 17.4477 7 18 7ZM18 19C18.5523 19 19 18.5523 19 18C19 17.4477 18.5523 17 18 17C17.4477 17 17 17.4477 17 18C17 18.5523 17.4477 19 18 19ZM6 19C6.55228 19 7 18.5523 7 18C7 17.4477 6.55228 17 6 17C5.44772 17 5 17.4477 5 18C5 18.5523 5.44772 19 6 19ZM12 13.5C12.8284 13.5 13.5 12.8284 13.5 12C13.5 11.1716 12.8284 10.5 12 10.5C11.1716 10.5 10.5 11.1716 10.5 12C10.5 12.8284 11.1716 13.5 12 13.5Z"/>
    </svg>
  </g>
  <!-- Icon 7: order-play-line -->
  <g transform="translate(556, 92)">
    <rect width="48" height="48" fill="#ffffff" stroke="#e9ecef" stroke-width="1" rx="4"/>
    <svg x="8" y="8" width="32" height="32" viewBox="0 0 24 24">
      <path d="M17 3.99998V2.0675C17 1.79136 17.2239 1.5675 17.5 1.5675C17.617 1.5675 17.7302 1.60851 17.8201 1.68339L21.9391 5.11587C22.1512 5.29266 22.1799 5.60794 22.0031 5.82008C21.9081 5.93407 21.7674 5.99998 21.619 5.99998H2V3.99998H17ZM2 18H22V20H2V18ZM2 11H22V13H2V11Z"/>
    </svg>
  </g>
  <!-- Icon 8: forward-30-fill -->
  <g transform="translate(196, 152)">
    <rect width="48" height="48" fill="#ffffff" stroke="#e9ecef" stroke-width="1" rx="4"/>
    <svg x="8" y="8" width="32" height="32" viewBox="0 0 24 24">
      <path d="M2 12C2 6.47715 6.47715 2 12 2 15.0159 2 17.72 3.33509 19.5534 5.44648L22 3V9H16.7854C17.2274 9.45094 17.5 10.0686 17.5 10.75V13.25C17.5 14.6307 16.3807 15.75 15 15.75 13.6193 15.75 12.5 14.6307 12.5 13.25V10.75C12.5 9.36929 13.6193 8.25 15 8.25 15.4985 8.25 15.9629 8.39588 16.3528 8.64728L18.1351 6.86543C16.6676 5.11383 14.4639 4 12 4 7.58172 4 4 7.58172 4 12 4 16.4183 7.58172 20 12 20 16.4183 20 20 16.4183 20 12H22C22 17.5228 17.5228 22 12 22 6.47715 22 2 17.5228 2 12ZM15 9.75C14.4477 9.75 14 10.1977 14 10.75V13.25C14 13.8023 14.4477 14.25 15 14.25 15.5523 14.25 16 13.8023 16 13.25V10.75C16 10.1977 15.5523 9.75 15 9.75ZM9.99981 13.375C9.99981 13.0298 9.71999 12.75 9.37481 12.75H7.5V11.25H9.37481C9.71999 11.25 9.99981 10.9702 9.99981 10.625 9.99981 10.2798 9.71999 10 9.37481 10H6.75V8.5H9.37481C10.5484 8.5 11.4998 9.4514 11.4998 10.625 11.4998 11.1494 11.3099 11.6294 10.9951 12 11.3099 12.3706 11.4998 12.8506 11.4998 13.375 11.4998 14.5486 10.5484 15.5 9.37481 15.5H6.75V14H9.37481C9.71999 14 9.99981 13.7202 9.99981 13.375Z"/>
    </svg>
  </g>
  <!-- Icon 9: star-off-line -->
  <g transform="translate(256, 152)">
    <rect width="48" height="48" fill="#ffffff" stroke="#e9ecef" stroke-width="1" rx="4"/>
    <svg x="8" y="8" width="32" height="32" viewBox="0 0 24 24">
      <path d="M23.4132 8.7918L18.0211 13.7783L16.6058 12.363L18.8719 10.2674L14.039 9.69434L12.0006 5.27502L11.2169 6.97405L9.70961 5.46678L12.0006 0.5L15.3862 7.84006L23.4132 8.7918ZM8.45885 9.87258L5.12921 10.2674L8.70231 13.5717L7.75383 18.3451L12.0006 15.968L16.2473 18.3451L16.0777 17.4914L8.45885 9.87258ZM18.6224 20.0361L19.054 22.2082L12.0006 18.26L4.94715 22.2082L6.52248 14.2799L0.587891 8.7918L6.65832 8.07205L1.39397 2.80769L2.80818 1.39348L22.6072 21.1925L21.193 22.6067L18.6224 20.0361Z"/>
    </svg>
  </g>
  <!-- Icon 10: progress-5-fill -->
  <g transform="translate(316, 152)">
    <rect width="48" height="48" fill="#ffffff" stroke="#e9ecef" stroke-width="1" rx="4"/>
    <svg x="8" y="8" width="32" height="32" viewBox="0 0 24 24">
      <path d="M12 22C17.5228 22 22 17.5228 22 12C22 6.47715 17.5228 2 12 2C6.47715 2 2 6.47715 2 12C2 17.5228 6.47715 22 12 22ZM18 12C18 15.3137 15.3137 18 12 18C10.3431 18 8.84311 17.3284 7.75732 16.2426L12 12V6C15.3137 6 18 8.68629 18 12Z"/>
    </svg>
  </g>
  <!-- Icon 11: information-2-line -->
  <g transform="translate(376, 152)">
    <rect width="48" height="48" fill="#ffffff" stroke="#e9ecef" stroke-width="1" rx="4"/>
    <svg x="8" y="8" width="32" height="32" viewBox="0 0 24 24">
      <path d="M12 22C6.47715 22 2 17.5228 2 12 2 6.47715 6.47715 2 12 2 17.5228 2 22 6.47715 22 12 22 17.5228 17.5228 22 12 22ZM12 20C16.4183 20 20 16.4183 20 12 20 7.58172 16.4183 4 12 4 7.58172 4 4 7.58172 4 12 4 16.4183 7.58172 20 12 20ZM13 10.5V15H14V17H10V15H11V12.5H10V10.5H13ZM13.5 8C13.5 8.82843 12.8284 9.5 12 9.5 11.1716 9.5 10.5 8.82843 10.5 8 10.5 7.17157 11.1716 6.5 12 6.5 12.8284 6.5 13.5 7.17157 13.5 8Z"/>
    </svg>
  </g>
  <!-- Icon 12: checkbox-multiple-blank-fill -->
  <g transform="translate(436, 152)">
    <rect width="48" height="48" fill="#ffffff" stroke="#e9ecef" stroke-width="1" rx="4"/>
    <svg x="8" y="8" width="32" height="32" viewBox="0 0 24 24">
      <path d="M6.99979 7V3C6.99979 2.44772 7.4475 2 7.99979 2H20.9998C21.5521 2 21.9998 2.44772 21.9998 3V16C21.9998 16.5523 21.5521 17 20.9998 17H17V20.9925C17 21.5489 16.551 22 15.9925 22H3.00728C2.45086 22 2 21.5511 2 20.9925L2.00276 8.00748C2.00288 7.45107 2.4518 7 3.01025 7H6.99979ZM8.99979 7H15.9927C16.549 7 17 7.44892 17 8.00748V15H19.9998V4H8.99979V7Z"/>
    </svg>
  </g>
  <!-- Icon 13: pulse-line -->
  <g transform="translate(496, 152)">
    <rect width="48" height="48" fill="#ffffff" stroke="#e9ecef" stroke-width="1" rx="4"/>
    <svg x="8" y="8" width="32" height="32" viewBox="0 0 24 24">
      <path d="M9 7.53861L15 21.5386L18.6594 13H23V11H17.3406L15 16.4614L9 2.46143L5.3406 11H1V13H6.6594L9 7.53861Z"/>
    </svg>
  </g>
  <!-- Icon 14: wechat-2-fill -->
  <g transform="translate(556, 152)">
    <rect width="48" height="48" fill="#ffffff" stroke="#e9ecef" stroke-width="1" rx="4"/>
    <svg x="8" y="8" width="32" height="32" viewBox="0 0 24 24">
      <path d="M5.45777 18.1847C3.359 16.677 2.00098 14.4001 2.00098 11.9078C2.00098 7.32317 6.47628 3.6001 12.001 3.6001C17.5257 3.6001 22.001 7.32317 22.001 11.9078C22.001 16.4924 17.5257 20.2155 12.001 20.2155C10.859 20.2155 9.74789 20.0616 8.72937 19.7539C8.63678 19.7232 8.51332 19.7232 8.42073 19.7232C8.23554 19.7232 8.05036 19.7847 7.89604 19.877L5.70468 21.1386C5.64295 21.1693 5.58122 21.2001 5.5195 21.2001C5.33431 21.2001 5.17999 21.0463 5.17999 20.8616C5.17999 20.7693 5.21085 20.7078 5.24172 20.6155C5.27258 20.5847 5.55036 19.5693 5.70468 18.9539C5.70468 18.8924 5.73554 18.8001 5.73554 18.7386C5.73554 18.4924 5.64295 18.3078 5.45777 18.1847ZM8.66764 10.5115C9.38493 10.5115 9.95278 9.94335 9.95278 9.22567C9.95278 8.50799 9.38493 7.93982 8.66764 7.93982C7.95036 7.93982 7.3825 8.50799 7.3825 9.22567C7.3825 9.94335 7.95036 10.5115 8.66764 10.5115ZM15.3343 10.5115C16.0516 10.5115 16.6194 9.94335 16.6194 9.22567C16.6194 8.50799 16.0516 7.93982 15.3343 7.93982C14.617 7.93982 14.0492 8.50799 14.0492 9.22567C14.0492 9.94335 14.617 10.5115 15.3343 10.5115Z"/>
    </svg>
  </g>
  <!-- Icon 15: paypal-line -->
  <g transform="translate(196, 212)">
    <rect width="48" height="48" fill="#ffffff" stroke="#e9ecef" stroke-width="1" rx="4"/>
    <svg x="8" y="8" width="32" height="32" viewBox="0 0 24 24">
      <path d="M8.49626 20.6667H10.0474L10.5852 17.2912C10.8012 15.93 11.9747 14.9253 13.3545 14.9253H13.8545C16.5322 14.9253 17.915 13.9421 18.4055 11.4224C18.6134 10.3564 18.5222 9.69183 18.2339 9.32047C17.0272 12.3744 14.4449 13.4793 11.2725 13.4793H10.3878C10.004 13.4793 9.59454 13.6889 9.53611 14.0602L8.49626 20.6667ZM3.55247 20.3733C3.21381 20.3733 2.95514 20.0713 3.00781 19.736L5.68247 2.776C5.75314 2.32933 6.13847 2 6.59047 2H13.0138C15.2265 2 16.9558 2.46733 17.9131 3.558C18.783 4.54853 19.0364 5.64237 18.7846 7.25001C19.1438 7.44133 19.4518 7.67467 19.6998 7.956C20.5185 8.88867 20.6785 10.216 20.3685 11.8053C19.6278 15.6107 17.0925 16.9253 13.8545 16.9253H13.3545C12.9591 16.9253 12.6225 17.214 12.5605 17.6047L11.8578 21.988C11.7958 22.3787 11.4591 22.6667 11.0638 22.6667H6.72114C6.42447 22.6667 6.19781 22.402 6.24381 22.1093L6.51781 20.3733H3.55247ZM10.3878 11.4793H11.2725C14.462 11.4793 16.1671 10.2667 16.7549 7.2501C16.7744 7.14856 16.7919 7.04727 16.8086 6.94101C16.9746 5.88187 16.8586 5.38808 16.4104 4.87773C15.9451 4.34763 14.8073 4 13.0138 4H7.51416L5.24742 18.3733H6.80845L7.53821 13.7452L7.54562 13.7463C7.84632 12.4296 9.0169 11.4793 10.3878 11.4793Z"/>
    </svg>
  </g>
  <!-- Icon 16: finder-fill -->
  <g transform="translate(256, 212)">
    <rect width="48" height="48" fill="#ffffff" stroke="#e9ecef" stroke-width="1" rx="4"/>
    <svg x="8" y="8" width="32" height="32" viewBox="0 0 24 24">
      <path d="M21.001 3C21.5533 3 22.001 3.44772 22.001 4V20C22.001 20.5523 21.5533 21 21.001 21H3.00098C2.44869 21 2.00098 20.5523 2.00098 20V4C2.00098 3.44772 2.44869 3 3.00098 3H21.001ZM20.001 4.99996H11.5356C10.8458 6.97692 10.501 9.6436 10.501 13H13.501C13.386 13.9194 13.3504 14.8785 13.3939 15.8772C14.6196 15.6656 16.0978 15.1004 17.421 14.1679L18.5557 15.8321C16.914 16.9265 15.2534 17.6108 13.5802 17.8753C13.6316 18.2452 13.6929 18.6202 13.7642 19.0001L20.001 19V4.99996ZM6.55568 14.1679L5.44628 15.8321C7.60332 17.2701 9.79308 18 12.001 18V16C10.2089 16 8.39863 15.3966 6.55568 14.1679ZM17.001 7C17.5533 7 18.001 7.44772 18.001 8V9C18.001 9.55228 17.5533 10 17.001 10C16.4487 10 16.001 9.55228 16.001 9V8C16.001 7.44772 16.4487 7 17.001 7ZM7.00098 7C6.44869 7 6.00098 7.45174 6.00098 8C6.00098 8.3655 6.00098 8.69884 6.00098 9C6.00098 9.55228 6.44869 10 7.00098 10C7.55326 10 8.00098 9.55 8.00098 9V8C8.00098 7.44772 7.55326 7 7.00098 7Z"/>
    </svg>
  </g>
  <!-- Icon 17: vip-line -->
  <g transform="translate(316, 212)">
    <rect width="48" height="48" fill="#ffffff" stroke="#e9ecef" stroke-width="1" rx="4"/>
    <svg x="8" y="8" width="32" height="32" viewBox="0 0 24 24">
      <path d="M2.00488 19H22.0049V21H2.00488V19ZM11.0049 8H13.0049V16H11.0049V8ZM7.97001 8L6.10912 13.1127L4.24824 8H2.12334L5.10912 15.9637H7.10912L10.0949 8H7.97001ZM17.0049 14V16H15.0049V8H19.0049C20.6617 8 22.0049 9.34315 22.0049 11C22.0049 12.6569 20.6617 14 19.0049 14H17.0049ZM17.0049 10V12H19.0049C19.5572 12 20.0049 11.5523 20.0049 11C20.0049 10.4477 19.5572 10 19.0049 10H17.0049ZM2.00488 3H22.0049V5H2.00488V3Z"/>
    </svg>
  </g>
  <!-- Icon 18: money-cny-box-fill -->
  <g transform="translate(376, 212)">
    <rect width="48" height="48" fill="#ffffff" stroke="#e9ecef" stroke-width="1" rx="4"/>
    <svg x="8" y="8" width="32" height="32" viewBox="0 0 24 24">
      <path d="M3.00488 3.00275H21.0049C21.5572 3.00275 22.0049 3.45046 22.0049 4.00275V20.0027C22.0049 20.555 21.5572 21.0027 21.0049 21.0027H3.00488C2.4526 21.0027 2.00488 20.555 2.00488 20.0027V4.00275C2.00488 3.45046 2.4526 3.00275 3.00488 3.00275ZM13.0049 13.0027V12.0027H16.0049V10.0027H13.4191L15.5404 7.88143L14.1262 6.46721L12.0049 8.58853L9.88356 6.46721L8.46935 7.88143L10.5907 10.0027H8.00488V12.0027H11.0049V13.0027H8.00488V15.0027H11.0049V17.0027H13.0049V15.0027H16.0049V13.0027H13.0049Z"/>
    </svg>
  </g>
  <!-- Icon 19: table-view -->
  <g transform="translate(436, 212)">
    <rect width="48" height="48" fill="#ffffff" stroke="#e9ecef" stroke-width="1" rx="4"/>
    <svg x="8" y="8" width="32" height="32" viewBox="0 0 24 24">
      <path d="M3 3C2.44772 3 2 3.44772 2 4V20C2 20.5523 2.44772 21 3 21H21C21.5523 21 22 20.5523 22 20V4C22 3.44772 21.5523 3 21 3H3ZM8 5V8H4V5H8ZM4 14V10H8V14H4ZM4 16H8V19H4V16ZM10 16H20V19H10V16ZM20 14H10V10H20V14ZM20 5V8H10V5H20Z"/>
    </svg>
  </g>
  <!-- Icon 20: h-2 -->
  <g transform="translate(496, 212)">
    <rect width="48" height="48" fill="#ffffff" stroke="#e9ecef" stroke-width="1" rx="4"/>
    <svg x="8" y="8" width="32" height="32" viewBox="0 0 24 24">
      <path d="M4 4V11H11V4H13V20H11V13H4V20H2V4H4ZM18.5 8C20.5711 8 22.25 9.67893 22.25 11.75C22.25 12.6074 21.9623 13.3976 21.4781 14.0292L21.3302 14.2102L18.0343 18H22V20H15L14.9993 18.444L19.8207 12.8981C20.0881 12.5908 20.25 12.1893 20.25 11.75C20.25 10.7835 19.4665 10 18.5 10C17.5818 10 16.8288 10.7071 16.7558 11.6065L16.75 11.75H14.75C14.75 9.67893 16.4289 8 18.5 8Z"/>
    </svg>
  </g>
  <!-- Icon 21: css3-line -->
  <g transform="translate(556, 212)">
    <rect width="48" height="48" fill="#ffffff" stroke="#e9ecef" stroke-width="1" rx="4"/>
    <svg x="8" y="8" width="32" height="32" viewBox="0 0 24 24">
      <path d="M2.8 14H4.83961L4.2947 16.7245L10.0393 18.8787L17.2665 16.4697L18.3604 11H3.4L3.8 9H18.7604L19.5604 5H4.6L5 3H22L19 18L10 21L2 18L2.8 14Z"/>
    </svg>
  </g>
  <!-- Icon 22: folder-image-line -->
  <g transform="translate(196, 272)">
    <rect width="48" height="48" fill="#ffffff" stroke="#e9ecef" stroke-width="1" rx="4"/>
    <svg x="8" y="8" width="32" height="32" viewBox="0 0 24 24">
      <path d="M4 5V19H20V7H11.5858L9.58579 5H4ZM12.4142 5H21C21.5523 5 22 5.44772 22 6V20C22 20.5523 21.5523 21 21 21H3C2.44772 21 2 20.5523 2 20V4C2 3.44772 2.44772 3 3 3H10.4142L12.4142 5ZM10 10.5C10 11.3284 9.32843 12 8.5 12C7.67157 12 7 11.3284 7 10.5C7 9.67157 7.67157 9 8.5 9C9.32843 9 10 9.67157 10 10.5ZM18 17L14 11L7 17H18Z"/>
    </svg>
  </g>
  <!-- Icon 23: file-line -->
  <g transform="translate(256, 272)">
    <rect width="48" height="48" fill="#ffffff" stroke="#e9ecef" stroke-width="1" rx="4"/>
    <svg x="8" y="8" width="32" height="32" viewBox="0 0 24 24">
      <path d="M9 2.00318V2H19.9978C20.5513 2 21 2.45531 21 2.9918V21.0082C21 21.556 20.5551 22 20.0066 22H3.9934C3.44476 22 3 21.5501 3 20.9932V8L9 2.00318ZM5.82918 8H9V4.83086L5.82918 8ZM11 4V9C11 9.55228 10.5523 10 10 10H5V20H19V4H11Z"/>
    </svg>
  </g>
  <!-- Icon 24: usb-fill -->
  <g transform="translate(316, 272)">
    <rect width="48" height="48" fill="#ffffff" stroke="#e9ecef" stroke-width="1" rx="4"/>
    <svg x="8" y="8" width="32" height="32" viewBox="0 0 24 24">
      <path d="M12 1L15 6H13V13.381L16 11.882L15.999 11H15V7H19V11H17.999L18 13.118L13 15.618L13.0009 17.171C14.1656 17.5831 15 18.6941 15 20C15 21.6569 13.6569 23 12 23C10.3431 23 9 21.6569 9 20C9 18.813 9.68934 17.7871 10.6895 17.3006L6 14L5.99892 11.7318C5.40172 11.3858 5 10.7398 5 10C5 8.89543 5.89543 8 7 8C8.10457 8 9 8.89543 9 10C9 10.7403 8.59783 11.3866 8.00007 11.7324L8 13L11 15.086V6H9L12 1Z"/>
    </svg>
  </g>
  <!-- Icon 25: mac-line -->
  <g transform="translate(376, 272)">
    <rect width="48" height="48" fill="#ffffff" stroke="#e9ecef" stroke-width="1" rx="4"/>
    <svg x="8" y="8" width="32" height="32" viewBox="0 0 24 24">
      <path d="M14 18V20L16 21V22H8L7.99639 21.0036L10 20V18H2.9918C2.44405 18 2 17.5511 2 16.9925V4.00748C2 3.45107 2.45531 3 2.9918 3H21.0082C21.556 3 22 3.44892 22 4.00748V16.9925C22 17.5489 21.5447 18 21.0082 18H14ZM4 5V14H20V5H4Z"/>
    </svg>
  </g>
  <!-- Icon 26: question-answer-fill -->
  <g transform="translate(436, 272)">
    <rect width="48" height="48" fill="#ffffff" stroke="#e9ecef" stroke-width="1" rx="4"/>
    <svg x="8" y="8" width="32" height="32" viewBox="0 0 24 24">
      <path d="M8 18H18.2372L20 19.3851V9H21C21.5523 9 22 9.44772 22 10V23.5L17.5455 20H9C8.44772 20 8 19.5523 8 19V18ZM5.45455 16L1 19.5V4C1 3.44772 1.44772 3 2 3H17C17.5523 3 18 3.44772 18 4V16H5.45455Z"/>
    </svg>
  </g>
  <!-- Icon 27: slideshow-2-line -->
  <g transform="translate(496, 272)">
    <rect width="48" height="48" fill="#ffffff" stroke="#e9ecef" stroke-width="1" rx="4"/>
    <svg x="8" y="8" width="32" height="32" viewBox="0 0 24 24">
      <path d="M13 17V20H18V22H6V20H11V17H4C3.44772 17 3 16.5523 3 16V4H2V2H22V4H21V16C21 16.5523 20.5523 17 20 17H13ZM5 15H19V4H5V15ZM10 6L15 9.5L10 13V6Z"/>
    </svg>
  </g>
  <!-- Icon 28: inbox-fill -->
  <g transform="translate(556, 272)">
    <rect width="48" height="48" fill="#ffffff" stroke="#e9ecef" stroke-width="1" rx="4"/>
    <svg x="8" y="8" width="32" height="32" viewBox="0 0 24 24">
      <path d="M3 3H21C21.5523 3 22 3.44772 22 4V20C22 20.5523 21.5523 21 21 21H3C2.44772 21 2 20.5523 2 20V4C2 3.44772 2.44772 3 3 3ZM9 12C9 13.6569 10.3431 15 12 15C13.6569 15 15 13.6569 15 12H20V5H4V12H9Z"/>
    </svg>
  </g>
  <!-- Icon 29: bar-chart-2-line -->
  <g transform="translate(196, 332)">
    <rect width="48" height="48" fill="#ffffff" stroke="#e9ecef" stroke-width="1" rx="4"/>
    <svg x="8" y="8" width="32" height="32" viewBox="0 0 24 24">
      <path d="M2 13H8V21H2V13ZM16 8H22V21H16V8ZM9 3H15V21H9V3ZM4 15V19H6V15H4ZM11 5V19H13V5H11ZM18 10V19H20V10H18Z"/>
    </svg>
  </g>
  <!-- Icon 30: magic-fill -->
  <g transform="translate(256, 332)">
    <rect width="48" height="48" fill="#ffffff" stroke="#e9ecef" stroke-width="1" rx="4"/>
    <svg x="8" y="8" width="32" height="32" viewBox="0 0 24 24">
      <path d="M15.2238 15.5079L13.0111 20.1581C12.8687 20.4573 12.5107 20.5844 12.2115 20.442C12.1448 20.4103 12.0845 20.3665 12.0337 20.3129L8.49229 16.5741C8.39749 16.474 8.27113 16.4096 8.13445 16.3918L3.02816 15.7243C2.69958 15.6814 2.46804 15.3802 2.51099 15.0516C2.52056 14.9784 2.54359 14.9075 2.5789 14.8426L5.04031 10.3192C5.1062 10.1981 5.12839 10.058 5.10314 9.92253L4.16 4.85991C4.09931 4.53414 4.3142 4.22086 4.63997 4.16017C4.7126 4.14664 4.78711 4.14664 4.85974 4.16017L9.92237 5.10331C10.0579 5.12855 10.198 5.10637 10.319 5.04048L14.8424 2.57907C15.1335 2.42068 15.4979 2.52825 15.6562 2.81931C15.6916 2.88421 15.7146 2.95507 15.7241 3.02833L16.3916 8.13462C16.4095 8.2713 16.4739 8.39766 16.5739 8.49245L20.3127 12.0338C20.5533 12.2617 20.5636 12.6415 20.3357 12.8821C20.2849 12.9357 20.2246 12.9795 20.1579 13.0112L15.5078 15.224C15.3833 15.2832 15.283 15.3835 15.2238 15.5079ZM16.0206 17.435L17.4348 16.0208L21.6775 20.2634L20.2633 21.6776L16.0206 17.435Z"/>
    </svg>
  </g>
  <!-- Icon 31: crop-2-line -->
  <g transform="translate(316, 332)">
    <rect width="48" height="48" fill="#ffffff" stroke="#e9ecef" stroke-width="1" rx="4"/>
    <svg x="8" y="8" width="32" height="32" viewBox="0 0 24 24">
      <path d="M8.41421 17H15V19H6C5.44772 19 5 18.5523 5 18V7H2V5H5V2H7V15.5858L15.5858 7H9V5H17.5858L20.1421 2.44365L21.5563 3.85786L19 6.41421V17H22V19H19V22H17V8.41421L8.41421 17Z"/>
    </svg>
  </g>
  <!-- Icon 32: service-bell-fill -->
  <g transform="translate(376, 332)">
    <rect width="48" height="48" fill="#ffffff" stroke="#e9ecef" stroke-width="1" rx="4"/>
    <svg x="8" y="8" width="32" height="32" viewBox="0 0 24 24">
      <path d="M15 3V5H13V6.04938C18.0533 6.5511 22 10.8147 22 16H2C2 10.8147 5.94668 6.5511 11 6.04938V5H9V3H15ZM23 20V18H1V20H23Z"/>
    </svg>
  </g>
  <!-- Icon 33: dice-2-line -->
  <g transform="translate(436, 332)">
    <rect width="48" height="48" fill="#ffffff" stroke="#e9ecef" stroke-width="1" rx="4"/>
    <svg x="8" y="8" width="32" height="32" viewBox="0 0 24 24">
      <path d="M19 5V19H5L5 5H19ZM5 3C3.89543 3 3 3.89543 3 5V19C3 20.1046 3.89543 21 5 21H19C20.1046 21 21 20.1046 21 19V5C21 3.89543 20.1046 3 19 3H5ZM16.5 15C16.5 15.8284 15.8284 16.5 15 16.5C14.1716 16.5 13.5 15.8284 13.5 15C13.5 14.1716 14.1716 13.5 15 13.5C15.8284 13.5 16.5 14.1716 16.5 15ZM9 10.5C9.82843 10.5 10.5 9.82843 10.5 9C10.5 8.17157 9.82843 7.5 9 7.5C8.17157 7.5 7.5 8.17157 7.5 9C7.5 9.82843 8.17157 10.5 9 10.5Z"/>
    </svg>
  </g>
  <!-- Icon 34: building-3-fill -->
  <g transform="translate(496, 332)">
    <rect width="48" height="48" fill="#ffffff" stroke="#e9ecef" stroke-width="1" rx="4"/>
    <svg x="8" y="8" width="32" height="32" viewBox="0 0 24 24">
      <path d="M10 10.1111V1L21 7V21H3V7L10 10.1111Z"/>
    </svg>
  </g>
  <!-- Icon 35: arrow-up-wide-line -->
  <g transform="translate(556, 332)">
    <rect width="48" height="48" fill="#ffffff" stroke="#e9ecef" stroke-width="1" rx="4"/>
    <svg x="8" y="8" width="32" height="32" viewBox="0 0 24 24">
      <path d="M12 8.36853L20.9679 13.1162L20.0321 14.8838L12 10.6315L3.96789 14.8838L3.03211 13.1162L12 8.36853Z"/>
    </svg>
  </g>
  
  <!-- Footer -->
  <text x="400" y="580" text-anchor="middle" font-family="system-ui, -apple-system, sans-serif" font-size="12" fill="#6c757d">
    Showing 35 of 3058 icons
  </text>
  
</svg>