<svg width="448" height="368" xmlns="http://www.w3.org/2000/svg">
  <!-- Background -->
  <rect width="448" height="368" fill="#1a1a1a"/>
  
  <!-- Icon Grid -->
  <!-- Icon 1: windy-line -->
  <g transform="translate(20, 20)">
    <rect width="48" height="48" fill="#1a1a1a" stroke="#333333" stroke-width="1" rx="4"/>
    <svg x="8" y="8" width="32" height="32" viewBox="0 0 24 24" style="color: #ffffff; fill: #ffffff;">
      <path d="M10.5 17H4V15H10.5C12.433 15 14 16.567 14 18.5C14 20.433 12.433 22 10.5 22C8.99957 22 7.71966 21.0559 7.22196 19.7293L9.09513 19.0268C9.30843 19.5954 9.85696 20 10.5 20C11.3284 20 12 19.3284 12 18.5C12 17.6716 11.3284 17 10.5 17ZM5 11H18.5C20.433 11 22 12.567 22 14.5C22 16.433 20.433 18 18.5 18C16.9996 18 15.7197 17.0559 15.222 15.7293L17.0951 15.0268C17.3084 15.5954 17.857 16 18.5 16C19.3284 16 20 15.3284 20 14.5C20 13.6716 19.3284 13 18.5 13H5C3.34315 13 2 11.6569 2 10C2 8.34315 3.34315 7 5 7H13.5C14.3284 7 15 6.32843 15 5.5C15 4.67157 14.3284 4 13.5 4C12.857 4 12.3084 4.40463 12.0951 4.97317L10.222 4.27073C10.7197 2.94414 11.9996 2 13.5 2C15.433 2 17 3.567 17 5.5C17 7.433 15.433 9 13.5 9H5C4.44772 9 4 9.44772 4 10C4 10.5523 4.44772 11 5 11Z"/>
    </svg>
  </g>
  <!-- Icon 2: user-unfollow-fill -->
  <g transform="translate(80, 20)">
    <rect width="48" height="48" fill="#1a1a1a" stroke="#333333" stroke-width="1" rx="4"/>
    <svg x="8" y="8" width="32" height="32" viewBox="0 0 24 24" style="color: #ffffff; fill: #ffffff;">
      <path d="M14 14.252V22H4C4 17.5817 7.58172 14 12 14C12.6906 14 13.3608 14.0875 14 14.252ZM12 13C8.685 13 6 10.315 6 7C6 3.685 8.685 1 12 1C15.315 1 18 3.685 18 7C18 10.315 15.315 13 12 13ZM19 16.5858L21.1213 14.4645L22.5355 15.8787L20.4142 18L22.5355 20.1213L21.1213 21.5355L19 19.4142L16.8787 21.5355L15.4645 20.1213L17.5858 18L15.4645 15.8787L16.8787 14.4645L19 16.5858Z"/>
    </svg>
  </g>
  <!-- Icon 3: emotion-normal-line -->
  <g transform="translate(140, 20)">
    <rect width="48" height="48" fill="#1a1a1a" stroke="#333333" stroke-width="1" rx="4"/>
    <svg x="8" y="8" width="32" height="32" viewBox="0 0 24 24" style="color: #ffffff; fill: #ffffff;">
      <path d="M12 22C6.47715 22 2 17.5228 2 12C2 6.47715 6.47715 2 12 2C17.5228 2 22 6.47715 22 12C22 17.5228 17.5228 22 12 22ZM12 20C16.4183 20 20 16.4183 20 12C20 7.58172 16.4183 4 12 4C7.58172 4 4 7.58172 4 12C4 16.4183 7.58172 20 12 20ZM8 14H16V16H8V14ZM8 11C7.17157 11 6.5 10.3284 6.5 9.5C6.5 8.67157 7.17157 8 8 8C8.82843 8 9.5 8.67157 9.5 9.5C9.5 10.3284 8.82843 11 8 11ZM16 11C15.1716 11 14.5 10.3284 14.5 9.5C14.5 8.67157 15.1716 8 16 8C16.8284 8 17.5 8.67157 17.5 9.5C17.5 10.3284 16.8284 11 16 11Z"/>
    </svg>
  </g>
  <!-- Icon 4: plug-2-fill -->
  <g transform="translate(200, 20)">
    <rect width="48" height="48" fill="#1a1a1a" stroke="#333333" stroke-width="1" rx="4"/>
    <svg x="8" y="8" width="32" height="32" viewBox="0 0 24 24" style="color: #ffffff; fill: #ffffff;">
      <path d="M13 18V20H19V22H13C11.8954 22 11 21.1046 11 20V18H8C5.79086 18 4 16.2091 4 14V10H20V14C20 16.2091 18.2091 18 16 18H13ZM17 6H19C19.5523 6 20 6.44772 20 7V9H4V7C4 6.44772 4.44772 6 5 6H7V2H9V6H15V2H17V6ZM12 14.5C12.5523 14.5 13 14.0523 13 13.5C13 12.9477 12.5523 12.5 12 12.5C11.4477 12.5 11 12.9477 11 13.5C11 14.0523 11.4477 14.5 12 14.5ZM11 2H13V5H11V2Z"/>
    </svg>
  </g>
  <!-- Icon 5: bell-line -->
  <g transform="translate(260, 20)">
    <rect width="48" height="48" fill="#1a1a1a" stroke="#333333" stroke-width="1" rx="4"/>
    <svg x="8" y="8" width="32" height="32" viewBox="0 0 24 24" style="color: #ffffff; fill: #ffffff;">
      <path d="M14.1213 9.87865C18.4171 14.1744 20.9497 18.6066 19.7782 19.7782C19.3031 20.2532 18.2918 20.1192 16.971 19.5055C13.746 21.6451 9.44716 21.4873 6.38175 19.032L6.34315 19.071L4.92893 17.6568L4.96734 17.6174C2.51262 14.5521 2.35503 10.2537 4.49456 7.03005C3.88075 5.70797 3.74678 4.69685 4.22183 4.2218C5.34959 3.09404 9.49865 5.39866 13.639 9.40425L14.1213 9.87865ZM12.7071 11.2929C10.823 9.40876 8.86963 7.84195 7.23581 6.86954L7.05025 7.05023C4.55691 9.54357 4.33771 13.4499 6.39266 16.1917L8.23943 14.3462C8.06128 13.679 8.23392 12.9376 8.75736 12.4142C9.53841 11.6331 10.8047 11.6331 11.5858 12.4142C12.3668 13.1952 12.3668 14.4616 11.5858 15.2426C11.0626 15.7658 10.3218 15.9385 9.65487 15.7608L7.80749 17.6067C10.5493 19.6623 14.4562 19.4433 16.9497 16.9497L17.1286 16.7623L17.076 16.6734C16.1001 15.0582 14.5564 13.1422 12.7071 11.2929ZM19.7782 4.2218C20.5592 5.00285 20.5592 6.26918 19.7782 7.05023C19.7254 7.10299 19.6704 7.1522 19.6135 7.19783C21.2057 9.71504 21.4267 12.8522 20.276 15.5426C19.8994 14.8064 19.4347 14.0317 18.8899 13.2368C19.2795 11.0596 18.6326 8.73308 16.9497 7.05023C15.2669 5.36737 12.9404 4.72049 10.7627 5.10957C9.96765 4.56488 9.19311 4.10029 8.45731 3.72447C11.1478 2.57335 14.2849 2.79427 16.8039 4.38695C16.8478 4.32955 16.897 4.27457 16.9497 4.2218C17.7308 3.44075 18.9971 3.44075 19.7782 4.2218Z"/>
    </svg>
  </g>
  <!-- Icon 6: parking-box-fill -->
  <g transform="translate(320, 20)">
    <rect width="48" height="48" fill="#1a1a1a" stroke="#333333" stroke-width="1" rx="4"/>
    <svg x="8" y="8" width="32" height="32" viewBox="0 0 24 24" style="color: #ffffff; fill: #ffffff;">
      <path d="M11 14H12.5C14.433 14 16 12.433 16 10.5C16 8.567 14.433 7 12.5 7H9V17H11V14ZM4 3H20C20.5523 3 21 3.44772 21 4V20C21 20.5523 20.5523 21 20 21H4C3.44772 21 3 20.5523 3 20V4C3 3.44772 3.44772 3 4 3ZM11 9H12.5C13.3284 9 14 9.67157 14 10.5C14 11.3284 13.3284 12 12.5 12H11V9Z"/>
    </svg>
  </g>
  <!-- Icon 7: barricade-line -->
  <g transform="translate(380, 20)">
    <rect width="48" height="48" fill="#1a1a1a" stroke="#333333" stroke-width="1" rx="4"/>
    <svg x="8" y="8" width="32" height="32" viewBox="0 0 24 24" style="color: #ffffff; fill: #ffffff;">
      <path d="M6.49323 19H17.5068L16.8401 16H7.1599L6.49323 19ZM19.5556 19H21V21H3V19H4.44444L7.82598 3.78307C7.92766 3.32553 8.33347 3 8.80217 3H15.1978C15.6665 3 16.0723 3.32553 16.174 3.78307L19.5556 19ZM7.60434 14H16.3957L15.5068 10H8.49323L7.60434 14ZM8.93768 8H15.0623L14.3957 5H9.60434L8.93768 8Z"/>
    </svg>
  </g>
  <!-- Icon 8: rewind-fill -->
  <g transform="translate(20, 80)">
    <rect width="48" height="48" fill="#1a1a1a" stroke="#333333" stroke-width="1" rx="4"/>
    <svg x="8" y="8" width="32" height="32" viewBox="0 0 24 24" style="color: #ffffff; fill: #ffffff;">
      <path d="M12 10.6667L21.2227 4.51823C21.4524 4.36506 21.7629 4.42714 21.9161 4.65691C21.9708 4.73904 22 4.83554 22 4.93426V19.0657C22 19.3419 21.7762 19.5657 21.5 19.5657C21.4013 19.5657 21.3048 19.5365 21.2227 19.4818L12 13.3333V19.0657C12 19.3419 11.7762 19.5657 11.5 19.5657C11.4013 19.5657 11.3048 19.5365 11.2227 19.4818L0.62407 12.416C0.394306 12.2628 0.332219 11.9524 0.485395 11.7226C0.522013 11.6677 0.569144 11.6206 0.62407 11.584L11.2227 4.51823C11.4524 4.36506 11.7629 4.42714 11.9161 4.65691C11.9708 4.73904 12 4.83554 12 4.93426V10.6667Z"/>
    </svg>
  </g>
  <!-- Icon 9: movie-line -->
  <g transform="translate(80, 80)">
    <rect width="48" height="48" fill="#1a1a1a" stroke="#333333" stroke-width="1" rx="4"/>
    <svg x="8" y="8" width="32" height="32" viewBox="0 0 24 24" style="color: #ffffff; fill: #ffffff;">
      <path d="M2 3.9934C2 3.44476 2.45531 3 2.9918 3H21.0082C21.556 3 22 3.44495 22 3.9934V20.0066C22 20.5552 21.5447 21 21.0082 21H2.9918C2.44405 21 2 20.5551 2 20.0066V3.9934ZM4 5V19H20V5H4ZM10.6219 8.41459L15.5008 11.6672C15.6846 11.7897 15.7343 12.0381 15.6117 12.2219C15.5824 12.2658 15.5447 12.3035 15.5008 12.3328L10.6219 15.5854C10.4381 15.708 10.1897 15.6583 10.0672 15.4745C10.0234 15.4088 10 15.3316 10 15.2526V8.74741C10 8.52649 10.1791 8.34741 10.4 8.34741C10.479 8.34741 10.5562 8.37078 10.6219 8.41459Z"/>
    </svg>
  </g>
  <!-- Icon 10: closed-captioning-fill -->
  <g transform="translate(140, 80)">
    <rect width="48" height="48" fill="#1a1a1a" stroke="#333333" stroke-width="1" rx="4"/>
    <svg x="8" y="8" width="32" height="32" viewBox="0 0 24 24" style="color: #ffffff; fill: #ffffff;">
      <path d="M21 3C21.5523 3 22 3.44772 22 4V20C22 20.5523 21.5523 21 21 21H3C2.44772 21 2 20.5523 2 20V4C2 3.44772 2.44772 3 3 3H21ZM9 8C6.792 8 5 9.792 5 12C5 14.208 6.792 16 9 16C10.1 16 11.1 15.55 11.828 14.828L10.4144 13.4144C10.0525 13.7762 9.5525 14 9 14C7.895 14 7 13.105 7 12C7 10.895 7.895 10 9 10C9.55 10 10.0483 10.22 10.4153 10.5866L11.829 9.173C11.1049 8.44841 10.1045 8 9 8ZM16 8C13.792 8 12 9.792 12 12C12 14.208 13.792 16 16 16C17.104 16 18.104 15.552 18.828 14.828L17.4144 13.4144C17.0525 13.7762 16.5525 14 16 14C14.895 14 14 13.105 14 12C14 10.895 14.895 10 16 10C16.553 10 17.0534 10.2241 17.4153 10.5866L18.829 9.173C18.1049 8.44841 17.1045 8 16 8Z"/>
    </svg>
  </g>
  <!-- Icon 11: shield-keyhole-fill -->
  <g transform="translate(200, 80)">
    <rect width="48" height="48" fill="#1a1a1a" stroke="#333333" stroke-width="1" rx="4"/>
    <svg x="8" y="8" width="32" height="32" viewBox="0 0 24 24" style="color: #ffffff; fill: #ffffff;">
      <path d="M12 1L20.2169 2.82598C20.6745 2.92766 21 3.33347 21 3.80217V13.7889C21 15.795 19.9974 17.6684 18.3282 18.7812L12 23L5.6718 18.7812C4.00261 17.6684 3 15.795 3 13.7889V3.80217C3 3.33347 3.32553 2.92766 3.78307 2.82598L12 1ZM12 7C10.8954 7 10 7.89543 10 9C10 9.74025 10.4022 10.3866 10.9999 10.7324L11 15H13L13.0011 10.7318C13.5983 10.3858 14 9.73984 14 9C14 7.89543 13.1046 7 12 7Z"/>
    </svg>
  </g>
  <!-- Icon 12: menu-fold-line -->
  <g transform="translate(260, 80)">
    <rect width="48" height="48" fill="#1a1a1a" stroke="#333333" stroke-width="1" rx="4"/>
    <svg x="8" y="8" width="32" height="32" viewBox="0 0 24 24" style="color: #ffffff; fill: #ffffff;">
      <path d="M21 17.9995V19.9995H3V17.9995H21ZM6.59619 3.90332L8.01041 5.31753L4.82843 8.49951L8.01041 11.6815L6.59619 13.0957L2 8.49951L6.59619 3.90332ZM21 10.9995V12.9995H12V10.9995H21ZM21 3.99951V5.99951H12V3.99951H21Z"/>
    </svg>
  </g>
  <!-- Icon 13: filter-3-line -->
  <g transform="translate(320, 80)">
    <rect width="48" height="48" fill="#1a1a1a" stroke="#333333" stroke-width="1" rx="4"/>
    <svg x="8" y="8" width="32" height="32" viewBox="0 0 24 24" style="color: #ffffff; fill: #ffffff;">
      <path d="M10 18H14V16H10V18ZM3 6V8H21V6H3ZM6 13H18V11H6V13Z"/>
    </svg>
  </g>
  <!-- Icon 14: alarm-warning-fill -->
  <g transform="translate(380, 80)">
    <rect width="48" height="48" fill="#1a1a1a" stroke="#333333" stroke-width="1" rx="4"/>
    <svg x="8" y="8" width="32" height="32" viewBox="0 0 24 24" style="color: #ffffff; fill: #ffffff;">
      <path d="M4.00001 20V14C4.00001 9.58172 7.58173 6 12 6C16.4183 6 20 9.58172 20 14V20H21V22H3.00001V20H4.00001ZM6.00001 14H8.00001C8.00001 11.7909 9.79087 10 12 10V8C8.6863 8 6.00001 10.6863 6.00001 14ZM11 2H13V5H11V2ZM19.7782 4.80761L21.1924 6.22183L19.0711 8.34315L17.6569 6.92893L19.7782 4.80761ZM2.80762 6.22183L4.22183 4.80761L6.34315 6.92893L4.92894 8.34315L2.80762 6.22183Z"/>
    </svg>
  </g>
  <!-- Icon 15: heart-add-2-line -->
  <g transform="translate(20, 140)">
    <rect width="48" height="48" fill="#1a1a1a" stroke="#333333" stroke-width="1" rx="4"/>
    <svg x="8" y="8" width="32" height="32" viewBox="0 0 24 24" style="color: #ffffff; fill: #ffffff;">
      <path d="M4 9C4 6.49238 5.71351 5 7.5 5C9.40609 5 10.7537 6.58211 12 7.82843C13.2463 6.58211 14.5939 5 16.5 5C18.3158 5 20 6.48356 20 9C20 10.1222 19.7639 11.1501 19.3509 12.1019L21.1856 12.8981C21.7005 11.7114 22 10.4135 22 9C22 5.49592 19.5337 3 16.5 3C14.5905 3 13.1464 3.9848 12 5.02802C10.8536 3.9848 9.40952 3 7.5 3C4.50355 3 2 5.49623 2 9C2 12.0199 3.36207 14.4702 5.20346 16.445C7.03313 18.4073 9.38528 19.955 11.4916 21.1985L12.5084 19.4762C10.441 18.2557 8.29313 16.8259 6.66623 15.0811C5.05106 13.3489 4 11.3626 4 9ZM19 17V14H17V17H14V19H16.999L17 22H19L18.999 19H22V17H19Z"/>
    </svg>
  </g>
  <!-- Icon 16: trello-fill -->
  <g transform="translate(80, 140)">
    <rect width="48" height="48" fill="#1a1a1a" stroke="#333333" stroke-width="1" rx="4"/>
    <svg x="8" y="8" width="32" height="32" viewBox="0 0 24 24" style="color: #ffffff; fill: #ffffff;">
      <path d="M5.25098 3H18.751C19.993 3 21.001 4.00737 21.001 5.25V18.75C21.001 19.992 19.9935 21 18.751 21H5.25098C4.00898 21 3.00098 19.9925 3.00098 18.75V5.25C3.00098 4.008 4.00835 3 5.25098 3ZM13.171 6.42054V12.1795C13.171 12.7762 13.6545 13.26 14.2507 13.26H17.5812C18.1776 13.26 18.661 12.7765 18.661 12.1795V6.42054C18.661 5.82384 18.1774 5.34 17.5812 5.34H14.2507C13.6543 5.34 13.171 5.82348 13.171 6.42054ZM5.34098 6.42045V16.6796C5.34098 17.2762 5.82455 17.76 6.42071 17.76H9.75125C10.3476 17.76 10.831 17.277 10.831 16.6796V6.42045C10.831 5.82375 10.3474 5.34 9.75125 5.34H6.42071C5.82428 5.34 5.34098 5.82303 5.34098 6.42045Z"/>
    </svg>
  </g>
  <!-- Icon 17: mini-program-line -->
  <g transform="translate(140, 140)">
    <rect width="48" height="48" fill="#1a1a1a" stroke="#333333" stroke-width="1" rx="4"/>
    <svg x="8" y="8" width="32" height="32" viewBox="0 0 24 24" style="color: #ffffff; fill: #ffffff;">
      <path d="M12.001 22C6.47813 22 2.00098 17.5228 2.00098 12C2.00098 6.47715 6.47813 2 12.001 2C17.5238 2 22.001 6.47715 22.001 12C22.001 17.5228 17.5238 22 12.001 22ZM12.001 20C16.4193 20 20.001 16.4183 20.001 12C20.001 7.58172 16.4193 4 12.001 4C7.5827 4 4.00098 7.58172 4.00098 12C4.00098 16.4183 7.5827 20 12.001 20ZM13.001 14C13.001 15.9332 11.434 17.5002 9.50098 17.5002C7.56798 17.5002 6.00098 15.9332 6.00098 14.0002C6.00098 12.6262 6.80048 11.3965 8.02405 10.8265C8.52467 10.5932 9.11958 10.81 9.35282 11.3106C9.58607 11.8112 9.36932 12.4061 8.86871 12.6393C8.34353 12.884 8.00098 13.4109 8.00098 14.0002C8.00098 14.8287 8.67255 15.5002 9.50098 15.5002C10.3294 15.5002 11.001 14.8287 11.001 14.0002V10C11.001 8.067 12.568 6.5 14.501 6.5C16.434 6.5 18.001 8.067 18.001 10C18.001 11.3741 17.2015 12.6037 15.9779 13.1738C15.4773 13.407 14.8824 13.1903 14.6491 12.6897C14.4159 12.189 14.6326 11.5941 15.1332 11.3609C15.6584 11.1162 16.001 10.5894 16.001 10C16.001 9.17157 15.3294 8.5 14.501 8.5C13.6725 8.5 13.001 9.17157 13.001 10V14Z"/>
    </svg>
  </g>
  <!-- Icon 18: disqus-fill -->
  <g transform="translate(200, 140)">
    <rect width="48" height="48" fill="#1a1a1a" stroke="#333333" stroke-width="1" rx="4"/>
    <svg x="8" y="8" width="32" height="32" viewBox="0 0 24 24" style="color: #ffffff; fill: #ffffff;">
      <path d="M12 2C17.5228 2 22 6.47715 22 12C22 17.5228 17.5228 22 12 22C9.47017 22 7.15975 21.0606 5.39856 19.5116L1.5 20L2.92355 16.2031C2.33082 14.9253 2 13.5013 2 12C2 6.47715 6.47715 2 12 2ZM8 7.0003V17.0003H11.7335L11.9959 16.9963C15.3714 16.8928 17.3333 14.7848 17.3333 11.9714V11.9436L17.3295 11.7287C17.2307 8.95633 15.2107 7.0003 11.7896 7.0003H8ZM11.8314 9.45793C13.4594 9.45793 14.54 10.3861 14.54 11.9868V12.0147L14.5352 12.1978C14.4561 13.6979 13.3968 14.5434 11.8314 14.5434H10.723V9.45793H11.8314Z"/>
    </svg>
  </g>
  <!-- Icon 19: single-quotes-r -->
  <g transform="translate(260, 140)">
    <rect width="48" height="48" fill="#1a1a1a" stroke="#333333" stroke-width="1" rx="4"/>
    <svg x="8" y="8" width="32" height="32" viewBox="0 0 24 24" style="color: #ffffff; fill: #ffffff;">
      <path d="M14.4167 6.67891C15.4469 7.77257 16.0001 9 16.0001 10.9897C16.0001 14.4891 13.5436 17.6263 9.96951 19.1768L9.07682 17.7992C12.4121 15.9946 13.0639 13.6539 13.3245 12.178C12.7875 12.4557 12.0845 12.5533 11.3954 12.4895C9.59102 12.3222 8.16895 10.8409 8.16895 9C8.16895 7.067 9.73595 5.5 11.6689 5.5C12.742 5.5 13.7681 5.99045 14.4167 6.67891Z"/>
    </svg>
  </g>
  <!-- Icon 20: delete-row -->
  <g transform="translate(320, 140)">
    <rect width="48" height="48" fill="#1a1a1a" stroke="#333333" stroke-width="1" rx="4"/>
    <svg x="8" y="8" width="32" height="32" viewBox="0 0 24 24" style="color: #ffffff; fill: #ffffff;">
      <path d="M20 5C20.5523 5 21 5.44772 21 6V12C21 12.5523 20.5523 13 20 13C20.628 13.8355 21 14.8743 21 16C21 18.7614 18.7614 21 16 21C13.2386 21 11 18.7614 11 16C11 14.8743 11.372 13.8355 11.9998 12.9998L4 13C3.44772 13 3 12.5523 3 12V6C3 5.44772 3.44772 5 4 5H20ZM13 15V17H19V15H13ZM19 7H5V11H19V7Z"/>
    </svg>
  </g>
  <!-- Icon 21: refund-2-line -->
  <g transform="translate(380, 140)">
    <rect width="48" height="48" fill="#1a1a1a" stroke="#333333" stroke-width="1" rx="4"/>
    <svg x="8" y="8" width="32" height="32" viewBox="0 0 24 24" style="color: #ffffff; fill: #ffffff;">
      <path d="M5.67591 4.25667C9.60392 1.03828 15.4094 1.26236 19.076 4.92893C22.9812 8.83418 22.9812 15.1658 19.076 19.0711C15.1707 22.9763 8.83906 22.9763 4.93382 19.0711C2.40932 16.5466 1.51676 13.0081 2.25611 9.76666L2.33275 9.45394L4.26718 9.96315C3.56967 12.623 4.26329 15.5721 6.34803 17.6569C9.47222 20.781 14.5375 20.781 17.6617 17.6569C20.7859 14.5327 20.7859 9.46734 17.6617 6.34315C14.8441 3.5255 10.4475 3.24903 7.32006 5.51375L7.09886 5.67983L8.1158 6.6967L3.5196 7.75736L4.58026 3.16117L5.67591 4.25667ZM13.0049 6V8H15.5049V10H10.0049C9.72874 10 9.50488 10.2239 9.50488 10.5C9.50488 10.7455 9.68176 10.9496 9.91501 10.9919L10.0049 11H14.0049C15.3856 11 16.5049 12.1193 16.5049 13.5C16.5049 14.8807 15.3856 16 14.0049 16H13.0049V18H11.0049V16H8.50488V14H14.0049C14.281 14 14.5049 13.7761 14.5049 13.5C14.5049 13.2545 14.328 13.0504 14.0948 13.0081L14.0049 13H10.0049C8.62417 13 7.50488 11.8807 7.50488 10.5C7.50488 9.11929 8.62417 8 10.0049 8H11.0049V6H13.0049Z"/>
    </svg>
  </g>
  <!-- Icon 22: copper-coin-fill -->
  <g transform="translate(20, 200)">
    <rect width="48" height="48" fill="#1a1a1a" stroke="#333333" stroke-width="1" rx="4"/>
    <svg x="8" y="8" width="32" height="32" viewBox="0 0 24 24" style="color: #ffffff; fill: #ffffff;">
      <path d="M12.0049 22.0027C6.48204 22.0027 2.00488 17.5256 2.00488 12.0027C2.00488 6.4799 6.48204 2.00275 12.0049 2.00275C17.5277 2.00275 22.0049 6.4799 22.0049 12.0027C22.0049 17.5256 17.5277 22.0027 12.0049 22.0027ZM12.0049 7.76011L7.76224 12.0027L12.0049 16.2454L16.2475 12.0027L12.0049 7.76011Z"/>
    </svg>
  </g>
  <!-- Icon 23: remote-control-line -->
  <g transform="translate(80, 200)">
    <rect width="48" height="48" fill="#1a1a1a" stroke="#333333" stroke-width="1" rx="4"/>
    <svg x="8" y="8" width="32" height="32" viewBox="0 0 24 24" style="color: #ffffff; fill: #ffffff;">
      <path d="M17.0001 12C17.5524 12 18.0001 12.4477 18.0001 13V22H16.0001V14H8.00015V22H6.00015V13C6.00015 12.4477 6.44786 12 7.00015 12H17.0001ZM12.0001 16V18H10.0001V16H12.0001ZM12.0001 6C14.3491 6 16.3827 7.34978 17.3678 9.31602L15.5787 10.2108C14.922 8.89991 13.5662 8 12.0001 8C10.4341 8 9.07833 8.89991 8.42163 10.2108L6.63247 9.31602C7.61755 7.34978 9.65122 6 12.0001 6ZM12.0001 2C15.9153 2 19.3049 4.24991 20.9466 7.5273L19.1576 8.42242C17.8443 5.80019 15.1325 4 12.0001 4C8.86783 4 6.15596 5.80019 4.84271 8.42242L3.05371 7.5273C4.69541 4.24991 8.08503 2 12.0001 2Z"/>
    </svg>
  </g>
  <!-- Icon 24: battery-saver-fill -->
  <g transform="translate(140, 200)">
    <rect width="48" height="48" fill="#1a1a1a" stroke="#333333" stroke-width="1" rx="4"/>
    <svg x="8" y="8" width="32" height="32" viewBox="0 0 24 24" style="color: #ffffff; fill: #ffffff;">
      <path d="M14 2C14.5523 2 15 2.44772 15 3V4H18C18.5523 4 19 4.44772 19 5V21C19 21.5523 18.5523 22 18 22H6C5.44772 22 5 21.5523 5 21V5C5 4.44772 5.44772 4 6 4H9V3C9 2.44772 9.44772 2 10 2H14ZM13 9H11V12H8V14H11V17H13V14H16V12H13V9Z"/>
    </svg>
  </g>
  <!-- Icon 25: sticky-note-line -->
  <g transform="translate(200, 200)">
    <rect width="48" height="48" fill="#1a1a1a" stroke="#333333" stroke-width="1" rx="4"/>
    <svg x="8" y="8" width="32" height="32" viewBox="0 0 24 24" style="color: #ffffff; fill: #ffffff;">
      <path d="M21 15L15 20.996L4.00221 21C3.4487 21 3 20.5551 3 20.0066V3.9934C3 3.44476 3.44495 3 3.9934 3H20.0066C20.5552 3 21 3.45576 21 4.00247V15ZM19 5H5V19H13V14C13 13.4872 13.386 13.0645 13.8834 13.0067L14 13L19 12.999V5ZM18.171 14.999L15 15V18.169L18.171 14.999Z"/>
    </svg>
  </g>
  <!-- Icon 26: folder-3-fill -->
  <g transform="translate(260, 200)">
    <rect width="48" height="48" fill="#1a1a1a" stroke="#333333" stroke-width="1" rx="4"/>
    <svg x="8" y="8" width="32" height="32" viewBox="0 0 24 24" style="color: #ffffff; fill: #ffffff;">
      <path d="M22 8V20C22 20.5523 21.5523 21 21 21H3C2.44772 21 2 20.5523 2 20V7H21C21.5523 7 22 7.44772 22 8ZM12.4142 5H2V4C2 3.44772 2.44772 3 3 3H10.4142L12.4142 5Z"/>
    </svg>
  </g>
  <!-- Icon 27: file-code-line -->
  <g transform="translate(320, 200)">
    <rect width="48" height="48" fill="#1a1a1a" stroke="#333333" stroke-width="1" rx="4"/>
    <svg x="8" y="8" width="32" height="32" viewBox="0 0 24 24" style="color: #ffffff; fill: #ffffff;">
      <path d="M15 4H5V20H19V8H15V4ZM3 2.9918C3 2.44405 3.44749 2 3.9985 2H16L20.9997 7L21 20.9925C21 21.5489 20.5551 22 20.0066 22H3.9934C3.44476 22 3 21.5447 3 21.0082V2.9918ZM17.6569 12L14.1213 15.5355L12.7071 14.1213L14.8284 12L12.7071 9.87868L14.1213 8.46447L17.6569 12ZM6.34315 12L9.87868 8.46447L11.2929 9.87868L9.17157 12L11.2929 14.1213L9.87868 15.5355L6.34315 12Z"/>
    </svg>
  </g>
  <!-- Icon 28: chat-smile-ai-fill -->
  <g transform="translate(380, 200)">
    <rect width="48" height="48" fill="#1a1a1a" stroke="#333333" stroke-width="1" rx="4"/>
    <svg x="8" y="8" width="32" height="32" viewBox="0 0 24 24" style="color: #ffffff; fill: #ffffff;">
      <path d="M20.7134 8.12811L20.4668 8.69379C20.2864 9.10792 19.7136 9.10792 19.5331 8.69379L19.2866 8.12811C18.8471 7.11947 18.0555 6.31641 17.0677 5.87708L16.308 5.53922C15.8973 5.35653 15.8973 4.75881 16.308 4.57612L17.0252 4.25714C18.0384 3.80651 18.8442 2.97373 19.2761 1.93083L19.5293 1.31953C19.7058 0.893489 20.2942 0.893489 20.4706 1.31953L20.7238 1.93083C21.1558 2.97373 21.9616 3.80651 22.9748 4.25714L23.6919 4.57612C24.1027 4.75881 24.1027 5.35653 23.6919 5.53922L22.9323 5.87708C21.9445 6.31641 21.1529 7.11947 20.7134 8.12811ZM20 11C20.6695 11 21.3134 10.8903 21.9147 10.688C21.971 11.1174 22 11.5553 22 12C22 17.5228 17.5228 22 12 22C10.2975 22 8.6944 21.5746 7.29117 20.8242L2 22L3.17581 16.7088C2.42544 15.3056 2 13.7025 2 12C2 6.47715 6.47715 2 12 2C12.9056 2 13.7831 2.12039 14.6174 2.34603C14.2221 3.14617 14 4.04715 14 5C14 8.31371 16.6863 11 20 11ZM7 12C7 14.7614 9.23858 17 12 17C14.7614 17 17 14.7614 17 12H15C15 13.6569 13.6569 15 12 15C10.3431 15 9 13.6569 9 12H7Z"/>
    </svg>
  </g>
  <!-- Icon 29: government-line -->
  <g transform="translate(20, 260)">
    <rect width="48" height="48" fill="#1a1a1a" stroke="#333333" stroke-width="1" rx="4"/>
    <svg x="8" y="8" width="32" height="32" viewBox="0 0 24 24" style="color: #ffffff; fill: #ffffff;">
      <path d="M20 6H23V8H22V19H23V21H1V19H2V8H1V6H4V4C4 3.44772 4.44772 3 5 3H19C19.5523 3 20 3.44772 20 4V6ZM20 8H4V19H7V12H9V19H11V12H13V19H15V12H17V19H20V8ZM6 5V6H18V5H6Z"/>
    </svg>
  </g>
  <!-- Icon 30: magic-fill -->
  <g transform="translate(80, 260)">
    <rect width="48" height="48" fill="#1a1a1a" stroke="#333333" stroke-width="1" rx="4"/>
    <svg x="8" y="8" width="32" height="32" viewBox="0 0 24 24" style="color: #ffffff; fill: #ffffff;">
      <path d="M15.2238 15.5079L13.0111 20.1581C12.8687 20.4573 12.5107 20.5844 12.2115 20.442C12.1448 20.4103 12.0845 20.3665 12.0337 20.3129L8.49229 16.5741C8.39749 16.474 8.27113 16.4096 8.13445 16.3918L3.02816 15.7243C2.69958 15.6814 2.46804 15.3802 2.51099 15.0516C2.52056 14.9784 2.54359 14.9075 2.5789 14.8426L5.04031 10.3192C5.1062 10.1981 5.12839 10.058 5.10314 9.92253L4.16 4.85991C4.09931 4.53414 4.3142 4.22086 4.63997 4.16017C4.7126 4.14664 4.78711 4.14664 4.85974 4.16017L9.92237 5.10331C10.0579 5.12855 10.198 5.10637 10.319 5.04048L14.8424 2.57907C15.1335 2.42068 15.4979 2.52825 15.6562 2.81931C15.6916 2.88421 15.7146 2.95507 15.7241 3.02833L16.3916 8.13462C16.4095 8.2713 16.4739 8.39766 16.5739 8.49245L20.3127 12.0338C20.5533 12.2617 20.5636 12.6415 20.3357 12.8821C20.2849 12.9357 20.2246 12.9795 20.1579 13.0112L15.5078 15.224C15.3833 15.2832 15.283 15.3835 15.2238 15.5079ZM16.0206 17.435L17.4348 16.0208L21.6775 20.2634L20.2633 21.6776L16.0206 17.435Z"/>
    </svg>
  </g>
  <!-- Icon 31: crop-2-line -->
  <g transform="translate(140, 260)">
    <rect width="48" height="48" fill="#1a1a1a" stroke="#333333" stroke-width="1" rx="4"/>
    <svg x="8" y="8" width="32" height="32" viewBox="0 0 24 24" style="color: #ffffff; fill: #ffffff;">
      <path d="M8.41421 17H15V19H6C5.44772 19 5 18.5523 5 18V7H2V5H5V2H7V15.5858L15.5858 7H9V5H17.5858L20.1421 2.44365L21.5563 3.85786L19 6.41421V17H22V19H19V22H17V8.41421L8.41421 17Z"/>
    </svg>
  </g>
  <!-- Icon 32: send-plane-fill -->
  <g transform="translate(200, 260)">
    <rect width="48" height="48" fill="#1a1a1a" stroke="#333333" stroke-width="1" rx="4"/>
    <svg x="8" y="8" width="32" height="32" viewBox="0 0 24 24" style="color: #ffffff; fill: #ffffff;">
      <path d="M1.94607 9.31543C1.42353 9.14125 1.4194 8.86022 1.95682 8.68108L21.043 2.31901C21.5715 2.14285 21.8746 2.43866 21.7265 2.95694L16.2733 22.0432C16.1223 22.5716 15.8177 22.59 15.5944 22.0876L11.9999 14L17.9999 6.00005L9.99992 12L1.94607 9.31543Z"/>
    </svg>
  </g>
  <!-- Icon 33: global-line -->
  <g transform="translate(260, 260)">
    <rect width="48" height="48" fill="#1a1a1a" stroke="#333333" stroke-width="1" rx="4"/>
    <svg x="8" y="8" width="32" height="32" viewBox="0 0 24 24" style="color: #ffffff; fill: #ffffff;">
      <path d="M12 22C6.47715 22 2 17.5228 2 12C2 6.47715 6.47715 2 12 2C17.5228 2 22 6.47715 22 12C22 17.5228 17.5228 22 12 22ZM9.71002 19.6674C8.74743 17.6259 8.15732 15.3742 8.02731 13H4.06189C4.458 16.1765 6.71639 18.7747 9.71002 19.6674ZM10.0307 13C10.1811 15.4388 10.8778 17.7297 12 19.752C13.1222 17.7297 13.8189 15.4388 13.9693 13H10.0307ZM19.9381 13H15.9727C15.8427 15.3742 15.2526 17.6259 14.29 19.6674C17.2836 18.7747 19.542 16.1765 19.9381 13ZM4.06189 11H8.02731C8.15732 8.62577 8.74743 6.37407 9.71002 4.33256C6.71639 5.22533 4.458 7.8235 4.06189 11ZM10.0307 11H13.9693C13.8189 8.56122 13.1222 6.27025 12 4.24799C10.8778 6.27025 10.1811 8.56122 10.0307 11ZM14.29 4.33256C15.2526 6.37407 15.8427 8.62577 15.9727 11H19.9381C19.542 7.8235 17.2836 5.22533 14.29 4.33256Z"/>
    </svg>
  </g>
  <!-- Icon 34: archive-stack-fill -->
  <g transform="translate(320, 260)">
    <rect width="48" height="48" fill="#1a1a1a" stroke="#333333" stroke-width="1" rx="4"/>
    <svg x="8" y="8" width="32" height="32" viewBox="0 0 24 24" style="color: #ffffff; fill: #ffffff;">
      <path d="M4 5H20V3H4V5ZM20 9H4V7H20V9ZM9 13H15V11H21V20C21 20.5523 20.5523 21 20 21H4C3.44772 21 3 20.5523 3 20V11H9V13Z"/>
    </svg>
  </g>
  <!-- Icon 35: arrow-up-wide-line -->
  <g transform="translate(380, 260)">
    <rect width="48" height="48" fill="#1a1a1a" stroke="#333333" stroke-width="1" rx="4"/>
    <svg x="8" y="8" width="32" height="32" viewBox="0 0 24 24" style="color: #ffffff; fill: #ffffff;">
      <path d="M12 8.36853L20.9679 13.1162L20.0321 14.8838L12 10.6315L3.96789 14.8838L3.03211 13.1162L12 8.36853Z"/>
    </svg>
  </g>

  <!-- Title Background -->
  <rect x="0" y="323" width="448" height="60" fill="#1a1a1a"/>
  
  <!-- Title -->
  <text x="20" y="348" text-anchor="start" font-family="system-ui, -apple-system, sans-serif" font-size="18" font-weight="bold" fill="#ffffff">Remix Icon - default</text>

</svg>