<svg width="800" height="600" xmlns="http://www.w3.org/2000/svg">
  <!-- Background -->
  <rect width="800" height="600" fill="#ffffff"/>
  
  <!-- Header Background -->
  <rect width="800" height="80" fill="#f8f9fa"/>
  
  <!-- Title -->
  <text x="400" y="30" text-anchor="middle" font-family="system-ui, -apple-system, sans-serif" font-size="20" font-weight="bold" fill="#212529">Remix Icon - default</text>
  
  <!-- Subtitle -->
  <text x="400" y="55" text-anchor="middle" font-family="system-ui, -apple-system, sans-serif" font-size="14" fill="#6c757d">3,058 icons</text>
  
  <!-- Icon Grid -->
  <!-- Icon 1: windy-line -->
  <g transform="translate(196, 92)">
    <rect width="48" height="48" fill="#ffffff" stroke="#e9ecef" stroke-width="1" rx="4"/>
    <svg x="8" y="8" width="32" height="32" viewBox="0 0 24 24">
      <path d="M10.5 17H4V15H10.5C12.433 15 14 16.567 14 18.5C14 20.433 12.433 22 10.5 22C8.99957 22 7.71966 21.0559 7.22196 19.7293L9.09513 19.0268C9.30843 19.5954 9.85696 20 10.5 20C11.3284 20 12 19.3284 12 18.5C12 17.6716 11.3284 17 10.5 17ZM5 11H18.5C20.433 11 22 12.567 22 14.5C22 16.433 20.433 18 18.5 18C16.9996 18 15.7197 17.0559 15.222 15.7293L17.0951 15.0268C17.3084 15.5954 17.857 16 18.5 16C19.3284 16 20 15.3284 20 14.5C20 13.6716 19.3284 13 18.5 13H5C3.34315 13 2 11.6569 2 10C2 8.34315 3.34315 7 5 7H13.5C14.3284 7 15 6.32843 15 5.5C15 4.67157 14.3284 4 13.5 4C12.857 4 12.3084 4.40463 12.0951 4.97317L10.222 4.27073C10.7197 2.94414 11.9996 2 13.5 2C15.433 2 17 3.567 17 5.5C17 7.433 15.433 9 13.5 9H5C4.44772 9 4 9.44772 4 10C4 10.5523 4.44772 11 5 11Z"/>
    </svg>
  </g>
  <!-- Icon 2: user-unfollow-fill -->
  <g transform="translate(256, 92)">
    <rect width="48" height="48" fill="#ffffff" stroke="#e9ecef" stroke-width="1" rx="4"/>
    <svg x="8" y="8" width="32" height="32" viewBox="0 0 24 24">
      <path d="M14 14.252V22H4C4 17.5817 7.58172 14 12 14C12.6906 14 13.3608 14.0875 14 14.252ZM12 13C8.685 13 6 10.315 6 7C6 3.685 8.685 1 12 1C15.315 1 18 3.685 18 7C18 10.315 15.315 13 12 13ZM19 16.5858L21.1213 14.4645L22.5355 15.8787L20.4142 18L22.5355 20.1213L21.1213 21.5355L19 19.4142L16.8787 21.5355L15.4645 20.1213L17.5858 18L15.4645 15.8787L16.8787 14.4645L19 16.5858Z"/>
    </svg>
  </g>
  <!-- Icon 3: emotion-normal-line -->
  <g transform="translate(316, 92)">
    <rect width="48" height="48" fill="#ffffff" stroke="#e9ecef" stroke-width="1" rx="4"/>
    <svg x="8" y="8" width="32" height="32" viewBox="0 0 24 24">
      <path d="M12 22C6.47715 22 2 17.5228 2 12C2 6.47715 6.47715 2 12 2C17.5228 2 22 6.47715 22 12C22 17.5228 17.5228 22 12 22ZM12 20C16.4183 20 20 16.4183 20 12C20 7.58172 16.4183 4 12 4C7.58172 4 4 7.58172 4 12C4 16.4183 7.58172 20 12 20ZM8 14H16V16H8V14ZM8 11C7.17157 11 6.5 10.3284 6.5 9.5C6.5 8.67157 7.17157 8 8 8C8.82843 8 9.5 8.67157 9.5 9.5C9.5 10.3284 8.82843 11 8 11ZM16 11C15.1716 11 14.5 10.3284 14.5 9.5C14.5 8.67157 15.1716 8 16 8C16.8284 8 17.5 8.67157 17.5 9.5C17.5 10.3284 16.8284 11 16 11Z"/>
    </svg>
  </g>
  <!-- Icon 4: rocket-fill -->
  <g transform="translate(376, 92)">
    <rect width="48" height="48" fill="#ffffff" stroke="#e9ecef" stroke-width="1" rx="4"/>
    <svg x="8" y="8" width="32" height="32" viewBox="0 0 24 24">
      <path d="M5.33053 15.9288C5.115 14.9914 5.00054 14.0103 5.00054 12.9999C5.00054 7.91198 7.90319 3.5636 12.0005 1.81799C16.0979 3.5636 19.0005 7.91198 19.0005 12.9999C19.0005 14.0103 18.8861 14.9914 18.6706 15.9288L20.6907 17.7245C20.8704 17.8842 20.9109 18.1493 20.7872 18.3555L18.33 22.4508C18.1879 22.6876 17.8808 22.7644 17.644 22.6223C17.609 22.6013 17.5766 22.576 17.5477 22.5471L15.2934 20.2928C15.1059 20.1053 14.8515 19.9999 14.5863 19.9999H9.41476C9.14954 19.9999 8.89519 20.1053 8.70765 20.2928L6.45337 22.5471C6.2581 22.7424 5.94152 22.7424 5.74626 22.5471C5.71735 22.5182 5.6921 22.4859 5.67107 22.4508L3.21385 18.3555C3.09014 18.1493 3.13071 17.8842 3.31042 17.7245L5.33053 15.9288ZM12.0005 12.9999C13.1051 12.9999 14.0005 12.1045 14.0005 10.9999C14.0005 9.89537 13.1051 8.99994 12.0005 8.99994C10.896 8.99994 10.0005 9.89537 10.0005 10.9999C10.0005 12.1045 10.896 12.9999 12.0005 12.9999Z"/>
    </svg>
  </g>
  <!-- Icon 5: compass-4-line -->
  <g transform="translate(436, 92)">
    <rect width="48" height="48" fill="#ffffff" stroke="#e9ecef" stroke-width="1" rx="4"/>
    <svg x="8" y="8" width="32" height="32" viewBox="0 0 24 24">
      <path d="M12 22C6.47715 22 2 17.5228 2 12C2 6.47715 6.47715 2 12 2C17.5228 2 22 6.47715 22 12C22 17.5228 17.5228 22 12 22ZM12 20C16.4183 20 20 16.4183 20 12C20 7.58172 16.4183 4 12 4C7.58172 4 4 7.58172 4 12C4 16.4183 7.58172 20 12 20ZM15.4462 9.96803L9.96803 15.4462C9.38559 15.102 8.89798 14.6144 8.55382 14.032L14.032 8.55382C14.6144 8.89798 15.102 9.38559 15.4462 9.96803Z"/>
    </svg>
  </g>
  <!-- Icon 6: speaker-3-fill -->
  <g transform="translate(496, 92)">
    <rect width="48" height="48" fill="#ffffff" stroke="#e9ecef" stroke-width="1" rx="4"/>
    <svg x="8" y="8" width="32" height="32" viewBox="0 0 24 24">
      <path d="M4 3H20C20.5523 3 21 3.44772 21 4V20C21 20.5523 20.5523 21 20 21H4C3.44772 21 3 20.5523 3 20V4C3 3.44772 3.44772 3 4 3ZM12 16C9.79086 16 8 14.2091 8 12C8 9.79086 9.79086 8 12 8C14.2091 8 16 9.79086 16 12C16 14.2091 14.2091 16 12 16ZM12 18C15.3137 18 18 15.3137 18 12C18 8.68629 15.3137 6 12 6C8.68629 6 6 8.68629 6 12C6 15.3137 8.68629 18 12 18ZM6 7C6.55228 7 7 6.55228 7 6C7 5.44772 6.55228 5 6 5C5.44772 5 5 5.44772 5 6C5 6.55228 5.44772 7 6 7ZM18 7C18.5523 7 19 6.55228 19 6C19 5.44772 18.5523 5 18 5C17.4477 5 17 5.44772 17 6C17 6.55228 17.4477 7 18 7ZM18 19C18.5523 19 19 18.5523 19 18C19 17.4477 18.5523 17 18 17C17.4477 17 17 17.4477 17 18C17 18.5523 17.4477 19 18 19ZM6 19C6.55228 19 7 18.5523 7 18C7 17.4477 6.55228 17 6 17C5.44772 17 5 17.4477 5 18C5 18.5523 5.44772 19 6 19ZM12 13.5C12.8284 13.5 13.5 12.8284 13.5 12C13.5 11.1716 12.8284 10.5 12 10.5C11.1716 10.5 10.5 11.1716 10.5 12C10.5 12.8284 11.1716 13.5 12 13.5Z"/>
    </svg>
  </g>
  <!-- Icon 7: order-play-line -->
  <g transform="translate(556, 92)">
    <rect width="48" height="48" fill="#ffffff" stroke="#e9ecef" stroke-width="1" rx="4"/>
    <svg x="8" y="8" width="32" height="32" viewBox="0 0 24 24">
      <path d="M17 3.99998V2.0675C17 1.79136 17.2239 1.5675 17.5 1.5675C17.617 1.5675 17.7302 1.60851 17.8201 1.68339L21.9391 5.11587C22.1512 5.29266 22.1799 5.60794 22.0031 5.82008C21.9081 5.93407 21.7674 5.99998 21.619 5.99998H2V3.99998H17ZM2 18H22V20H2V18ZM2 11H22V13H2V11Z"/>
    </svg>
  </g>
  <!-- Icon 8: forward-30-fill -->
  <g transform="translate(196, 152)">
    <rect width="48" height="48" fill="#ffffff" stroke="#e9ecef" stroke-width="1" rx="4"/>
    <svg x="8" y="8" width="32" height="32" viewBox="0 0 24 24">
      <path d="M2 12C2 6.47715 6.47715 2 12 2 15.0159 2 17.72 3.33509 19.5534 5.44648L22 3V9H16.7854C17.2274 9.45094 17.5 10.0686 17.5 10.75V13.25C17.5 14.6307 16.3807 15.75 15 15.75 13.6193 15.75 12.5 14.6307 12.5 13.25V10.75C12.5 9.36929 13.6193 8.25 15 8.25 15.4985 8.25 15.9629 8.39588 16.3528 8.64728L18.1351 6.86543C16.6676 5.11383 14.4639 4 12 4 7.58172 4 4 7.58172 4 12 4 16.4183 7.58172 20 12 20 16.4183 20 20 16.4183 20 12H22C22 17.5228 17.5228 22 12 22 6.47715 22 2 17.5228 2 12ZM15 9.75C14.4477 9.75 14 10.1977 14 10.75V13.25C14 13.8023 14.4477 14.25 15 14.25 15.5523 14.25 16 13.8023 16 13.25V10.75C16 10.1977 15.5523 9.75 15 9.75ZM9.99981 13.375C9.99981 13.0298 9.71999 12.75 9.37481 12.75H7.5V11.25H9.37481C9.71999 11.25 9.99981 10.9702 9.99981 10.625 9.99981 10.2798 9.71999 10 9.37481 10H6.75V8.5H9.37481C10.5484 8.5 11.4998 9.4514 11.4998 10.625 11.4998 11.1494 11.3099 11.6294 10.9951 12 11.3099 12.3706 11.4998 12.8506 11.4998 13.375 11.4998 14.5486 10.5484 15.5 9.37481 15.5H6.75V14H9.37481C9.71999 14 9.99981 13.7202 9.99981 13.375Z"/>
    </svg>
  </g>
  <!-- Icon 9: lungs-line -->
  <g transform="translate(256, 152)">
    <rect width="48" height="48" fill="#ffffff" stroke="#e9ecef" stroke-width="1" rx="4"/>
    <svg x="8" y="8" width="32" height="32" viewBox="0 0 24 24">
      <path d="M22.0013 17C22 21 22 21 18.0012 21C14.0012 21 13.0013 18 13.0013 15C13.0013 14.6216 12.9834 14.0822 12.9746 13.4495L14.9976 14.6186L15.0013 15C15.0013 17.7759 15.8173 19 18.0012 19C19.1415 19 19.6118 18.993 19.9637 18.9625C19.9943 18.6106 20.0012 18.1403 20.0012 17C20.0012 13.7947 19.298 10.9675 18.1657 9.09922C17.3283 7.71769 16.5533 7.2575 16.1337 7.39737C15.8411 7.49489 15.5286 8.04672 15.3027 9.02034L13.5124 7.98683C13.882 6.79047 14.4945 5.83557 15.5013 5.5C18.5007 4.50018 22.0036 9.5 22.0013 17ZM8.5 5.5C9.50665 5.83555 10.1192 6.79037 10.4888 7.98665L8.69853 9.02034C8.47269 8.04672 8.16013 7.49489 7.86754 7.39737C7.44794 7.2575 6.67292 7.71769 5.83557 9.09922C4.70322 10.9675 4 13.7947 4 17C4 18.1403 4.00698 18.6106 4.0375 18.9625C4.3894 18.993 4.85973 19 6 19C8.18395 19 9 17.7759 9 15L9.00367 14.6176L11.0266 13.4502C11.0179 14.0826 11 14.6218 11 15C11 18 10 21 6 21C2 21 2 21 2 17C2 9.5 5.50055 4.50018 8.5 5.5ZM13 2L12.9998 9.422L17.6962 12.134L16.6962 13.866L11.9998 11.155L7.30385 13.866L6.30385 12.134L10.9998 9.422L11 2H13Z"/>
    </svg>
  </g>
  <!-- Icon 10: tooth-fill -->
  <g transform="translate(316, 152)">
    <rect width="48" height="48" fill="#ffffff" stroke="#e9ecef" stroke-width="1" rx="4"/>
    <svg x="8" y="8" width="32" height="32" viewBox="0 0 24 24">
      <path d="M12.0002 3.23235C13.5819 4.0567 14.7825 5.51252 15.2664 7.26605C15.4134 7.79843 15.9641 8.1109 16.4964 7.96396C17.0288 7.81702 17.3413 7.26633 17.1943 6.73395C16.7346 5.06811 15.7806 3.60711 14.4998 2.519C14.665 2.50641 14.8318 2.5 15 2.5C17.0071 2.5 18.6792 3.228 19.8307 4.60982C20.962 5.96738 21.5 7.84558 21.5 10C21.5 13.0971 20.9858 15.8652 20.1051 17.8976C19.265 19.8362 17.8974 21.5 16 21.5C14.8997 21.5 14.2129 20.8477 13.8053 20.1396C13.4431 19.5106 13.2269 18.7169 13.0529 18.0779C12.8459 17.3179 12.6873 16.7504 12.4615 16.3583C12.2754 16.0352 12.1497 16 12 16C11.8503 16 11.7246 16.0352 11.5385 16.3583C11.3127 16.7504 11.1541 17.3179 10.9471 18.0779L10.9471 18.0779C10.7731 18.7169 10.5569 19.5106 10.1947 20.1396C9.78706 20.8477 9.10027 21.5 8 21.5C6.1026 21.5 4.73499 19.8362 3.89494 17.8976C3.01425 15.8652 2.5 13.0971 2.5 10C2.5 7.84558 3.03797 5.96738 4.16928 4.60982C5.32079 3.228 6.9929 2.5 9 2.5C9.00948 2.5 9.01896 2.50002 9.02843 2.50006C10.0987 2.50466 11.1098 2.7686 12 3.23245C12.0001 3.23242 12.0001 3.23238 12.0002 3.23235Z"/>
    </svg>
  </g>
  <!-- Icon 11: door-lock-box-line -->
  <g transform="translate(376, 152)">
    <rect width="48" height="48" fill="#ffffff" stroke="#e9ecef" stroke-width="1" rx="4"/>
    <svg x="8" y="8" width="32" height="32" viewBox="0 0 24 24">
      <path d="M4 3H20C20.5523 3 21 3.44772 21 4V20C21 20.5523 20.5523 21 20 21H4C3.44772 21 3 20.5523 3 20V4C3 3.44772 3.44772 3 4 3ZM5 5V19H19V5H5ZM11 12.792C10.117 12.4062 9.5 11.5252 9.5 10.5C9.5 9.11929 10.6193 8 12 8C13.3807 8 14.5 9.11929 14.5 10.5C14.5 11.5252 13.883 12.4062 13 12.792V16H11V12.792Z"/>
    </svg>
  </g>
  <!-- Icon 12: star-fill -->
  <g transform="translate(436, 152)">
    <rect width="48" height="48" fill="#ffffff" stroke="#e9ecef" stroke-width="1" rx="4"/>
    <svg x="8" y="8" width="32" height="32" viewBox="0 0 24 24">
      <path d="M12.0006 18.26L4.94715 22.2082L6.52248 14.2799L0.587891 8.7918L8.61493 7.84006L12.0006 0.5L15.3862 7.84006L23.4132 8.7918L17.4787 14.2799L19.054 22.2082L12.0006 18.26Z"/>
    </svg>
  </g>
  <!-- Icon 13: progress-1-line -->
  <g transform="translate(496, 152)">
    <rect width="48" height="48" fill="#ffffff" stroke="#e9ecef" stroke-width="1" rx="4"/>
    <svg x="8" y="8" width="32" height="32" viewBox="0 0 24 24">
      <path d="M2 12C2 17.5228 6.47715 22 12 22C17.5228 22 22 17.5228 22 12C22 6.47715 17.5228 2 12 2C6.47715 2 2 6.47715 2 12ZM20 12C20 16.4183 16.4183 20 12 20C7.58172 20 4 16.4183 4 12C4 7.58172 7.58172 4 12 4C16.4183 4 20 7.58172 20 12ZM12 12V6C13.6569 6 15.1569 6.67157 16.2426 7.75736L12 12Z"/>
    </svg>
  </g>
  <!-- Icon 14: hourglass-fill -->
  <g transform="translate(556, 152)">
    <rect width="48" height="48" fill="#ffffff" stroke="#e9ecef" stroke-width="1" rx="4"/>
    <svg x="8" y="8" width="32" height="32" viewBox="0 0 24 24">
      <path d="M6 4H4V2H20V4H18V6C18 7.61543 17.1838 8.91468 16.1561 9.97667C15.4532 10.703 14.598 11.372 13.7309 12C14.598 12.628 15.4532 13.297 16.1561 14.0233C17.1838 15.0853 18 16.3846 18 18V20H20V22H4V20H6V18C6 16.3846 6.81616 15.0853 7.8439 14.0233C8.54682 13.297 9.40202 12.628 10.2691 12C9.40202 11.372 8.54682 10.703 7.8439 9.97667C6.81616 8.91468 6 7.61543 6 6V4ZM8 4V6C8 6.68514 8.26026 7.33499 8.77131 8H15.2287C15.7397 7.33499 16 6.68514 16 6V4H8ZM12 13.2219C10.9548 13.9602 10.008 14.663 9.2811 15.4142C9.09008 15.6116 8.92007 15.8064 8.77131 16H15.2287C15.0799 15.8064 14.9099 15.6116 14.7189 15.4142C13.992 14.663 13.0452 13.9602 12 13.2219Z"/>
    </svg>
  </g>
  <!-- Icon 15: checkbox-blank-line -->
  <g transform="translate(196, 212)">
    <rect width="48" height="48" fill="#ffffff" stroke="#e9ecef" stroke-width="1" rx="4"/>
    <svg x="8" y="8" width="32" height="32" viewBox="0 0 24 24">
      <path d="M4 3H20C20.5523 3 21 3.44772 21 4V20C21 20.5523 20.5523 21 20 21H4C3.44772 21 3 20.5523 3 20V4C3 3.44772 3.44772 3 4 3ZM5 5V19H19V5H5Z"/>
    </svg>
  </g>
  <!-- Icon 16: trello-fill -->
  <g transform="translate(256, 212)">
    <rect width="48" height="48" fill="#ffffff" stroke="#e9ecef" stroke-width="1" rx="4"/>
    <svg x="8" y="8" width="32" height="32" viewBox="0 0 24 24">
      <path d="M5.25098 3H18.751C19.993 3 21.001 4.00737 21.001 5.25V18.75C21.001 19.992 19.9935 21 18.751 21H5.25098C4.00898 21 3.00098 19.9925 3.00098 18.75V5.25C3.00098 4.008 4.00835 3 5.25098 3ZM13.171 6.42054V12.1795C13.171 12.7762 13.6545 13.26 14.2507 13.26H17.5812C18.1776 13.26 18.661 12.7765 18.661 12.1795V6.42054C18.661 5.82384 18.1774 5.34 17.5812 5.34H14.2507C13.6543 5.34 13.171 5.82348 13.171 6.42054ZM5.34098 6.42045V16.6796C5.34098 17.2762 5.82455 17.76 6.42071 17.76H9.75125C10.3476 17.76 10.831 17.277 10.831 16.6796V6.42045C10.831 5.82375 10.3474 5.34 9.75125 5.34H6.42071C5.82428 5.34 5.34098 5.82303 5.34098 6.42045Z"/>
    </svg>
  </g>
  <!-- Icon 17: mini-program-line -->
  <g transform="translate(316, 212)">
    <rect width="48" height="48" fill="#ffffff" stroke="#e9ecef" stroke-width="1" rx="4"/>
    <svg x="8" y="8" width="32" height="32" viewBox="0 0 24 24">
      <path d="M12.001 22C6.47813 22 2.00098 17.5228 2.00098 12C2.00098 6.47715 6.47813 2 12.001 2C17.5238 2 22.001 6.47715 22.001 12C22.001 17.5228 17.5238 22 12.001 22ZM12.001 20C16.4193 20 20.001 16.4183 20.001 12C20.001 7.58172 16.4193 4 12.001 4C7.5827 4 4.00098 7.58172 4.00098 12C4.00098 16.4183 7.5827 20 12.001 20ZM13.001 14C13.001 15.9332 11.434 17.5002 9.50098 17.5002C7.56798 17.5002 6.00098 15.9332 6.00098 14.0002C6.00098 12.6262 6.80048 11.3965 8.02405 10.8265C8.52467 10.5932 9.11958 10.81 9.35282 11.3106C9.58607 11.8112 9.36932 12.4061 8.86871 12.6393C8.34353 12.884 8.00098 13.4109 8.00098 14.0002C8.00098 14.8287 8.67255 15.5002 9.50098 15.5002C10.3294 15.5002 11.001 14.8287 11.001 14.0002V10C11.001 8.067 12.568 6.5 14.501 6.5C16.434 6.5 18.001 8.067 18.001 10C18.001 11.3741 17.2015 12.6037 15.9779 13.1738C15.4773 13.407 14.8824 13.1903 14.6491 12.6897C14.4159 12.189 14.6326 11.5941 15.1332 11.3609C15.6584 11.1162 16.001 10.5894 16.001 10C16.001 9.17157 15.3294 8.5 14.501 8.5C13.6725 8.5 13.001 9.17157 13.001 10V14Z"/>
    </svg>
  </g>
  <!-- Icon 18: disqus-fill -->
  <g transform="translate(376, 212)">
    <rect width="48" height="48" fill="#ffffff" stroke="#e9ecef" stroke-width="1" rx="4"/>
    <svg x="8" y="8" width="32" height="32" viewBox="0 0 24 24">
      <path d="M12 2C17.5228 2 22 6.47715 22 12C22 17.5228 17.5228 22 12 22C9.47017 22 7.15975 21.0606 5.39856 19.5116L1.5 20L2.92355 16.2031C2.33082 14.9253 2 13.5013 2 12C2 6.47715 6.47715 2 12 2ZM8 7.0003V17.0003H11.7335L11.9959 16.9963C15.3714 16.8928 17.3333 14.7848 17.3333 11.9714V11.9436L17.3295 11.7287C17.2307 8.95633 15.2107 7.0003 11.7896 7.0003H8ZM11.8314 9.45793C13.4594 9.45793 14.54 10.3861 14.54 11.9868V12.0147L14.5352 12.1978C14.4561 13.6979 13.3968 14.5434 11.8314 14.5434H10.723V9.45793H11.8314Z"/>
    </svg>
  </g>
  <!-- Icon 19: shopping-cart-line -->
  <g transform="translate(436, 212)">
    <rect width="48" height="48" fill="#ffffff" stroke="#e9ecef" stroke-width="1" rx="4"/>
    <svg x="8" y="8" width="32" height="32" viewBox="0 0 24 24">
      <path d="M4.00488 16V4H2.00488V2H5.00488C5.55717 2 6.00488 2.44772 6.00488 3V15H18.4433L20.4433 7H8.00488V5H21.7241C22.2764 5 22.7241 5.44772 22.7241 6C22.7241 6.08176 22.7141 6.16322 22.6942 6.24254L20.1942 16.2425C20.083 16.6877 19.683 17 19.2241 17H5.00488C4.4526 17 4.00488 16.5523 4.00488 16ZM6.00488 23C4.90031 23 4.00488 22.1046 4.00488 21C4.00488 19.8954 4.90031 19 6.00488 19C7.10945 19 8.00488 19.8954 8.00488 21C8.00488 22.1046 7.10945 23 6.00488 23ZM18.0049 23C16.9003 23 16.0049 22.1046 16.0049 21C16.0049 19.8954 16.9003 19 18.0049 19C19.1095 19 20.0049 19.8954 20.0049 21C20.0049 22.1046 19.1095 23 18.0049 23Z"/>
    </svg>
  </g>
  <!-- Icon 20: exchange-box-fill -->
  <g transform="translate(496, 212)">
    <rect width="48" height="48" fill="#ffffff" stroke="#e9ecef" stroke-width="1" rx="4"/>
    <svg x="8" y="8" width="32" height="32" viewBox="0 0 24 24">
      <path d="M3.00488 3.00275H21.0049C21.5572 3.00275 22.0049 3.45046 22.0049 4.00275V20.0027C22.0049 20.555 21.5572 21.0027 21.0049 21.0027H3.00488C2.4526 21.0027 2.00488 20.555 2.00488 20.0027V4.00275C2.00488 3.45046 2.4526 3.00275 3.00488 3.00275ZM12.0049 9.00275H8.00488V11.0027H17.0049L12.0049 6.00275V9.00275ZM7.00488 13.0027L12.0049 18.0027V15.0027H16.0049V13.0027H7.00488Z"/>
    </svg>
  </g>
  <!-- Icon 21: css3-line -->
  <g transform="translate(556, 212)">
    <rect width="48" height="48" fill="#ffffff" stroke="#e9ecef" stroke-width="1" rx="4"/>
    <svg x="8" y="8" width="32" height="32" viewBox="0 0 24 24">
      <path d="M2.8 14H4.83961L4.2947 16.7245L10.0393 18.8787L17.2665 16.4697L18.3604 11H3.4L3.8 9H18.7604L19.5604 5H4.6L5 3H22L19 18L10 21L2 18L2.8 14Z"/>
    </svg>
  </g>
  <!-- Icon 22: restart-fill -->
  <g transform="translate(196, 272)">
    <rect width="48" height="48" fill="#ffffff" stroke="#e9ecef" stroke-width="1" rx="4"/>
    <svg x="8" y="8" width="32" height="32" viewBox="0 0 24 24">
      <path d="M12 22C6.47715 22 2 17.5228 2 12C2 6.47715 6.47715 2 12 2C17.5228 2 22 6.47715 22 12C22 17.5228 17.5228 22 12 22ZM16.8201 17.0761C18.1628 15.8007 19 13.9981 19 12C19 8.13401 15.866 5 12 5C8.13401 5 5 8.13401 5 12C5 15.866 8.13401 19 12 19C13.0609 19 14.0666 18.764 14.9676 18.3417L13.9928 16.5871C13.3823 16.8527 12.7083 17 12 17C9.23858 17 7 14.7614 7 12C7 9.23858 9.23858 7 12 7C14.7614 7 17 9.23858 17 12H14L16.8201 17.0761Z"/>
    </svg>
  </g>
  <!-- Icon 23: battery-saver-line -->
  <g transform="translate(256, 272)">
    <rect width="48" height="48" fill="#ffffff" stroke="#e9ecef" stroke-width="1" rx="4"/>
    <svg x="8" y="8" width="32" height="32" viewBox="0 0 24 24">
      <path d="M14 2C14.5523 2 15 2.44772 15 3V4H18C18.5523 4 19 4.44772 19 5V21C19 21.5523 18.5523 22 18 22H6C5.44772 22 5 21.5523 5 21V5C5 4.44772 5.44772 4 6 4H9V3C9 2.44772 9.44772 2 10 2H14ZM13 4H11V6H7V20H17V6H13V4ZM13 9V12H16V14H13V17H11V14H8V12H11V9H13Z"/>
    </svg>
  </g>
  <!-- Icon 24: folder-history-line -->
  <g transform="translate(316, 272)">
    <rect width="48" height="48" fill="#ffffff" stroke="#e9ecef" stroke-width="1" rx="4"/>
    <svg x="8" y="8" width="32" height="32" viewBox="0 0 24 24">
      <path d="M10.4142 3L12.4142 5H21C21.5523 5 22 5.44772 22 6V20C22 20.5523 21.5523 21 21 21H3C2.44772 21 2 20.5523 2 20V4C2 3.44772 2.44772 3 3 3H10.4142ZM9.58579 5H4V19H20V7H11.5858L9.58579 5ZM13 9V13H16V15H11V9H13Z"/>
    </svg>
  </g>
  <!-- Icon 25: file-info-fill -->
  <g transform="translate(376, 272)">
    <rect width="48" height="48" fill="#ffffff" stroke="#e9ecef" stroke-width="1" rx="4"/>
    <svg x="8" y="8" width="32" height="32" viewBox="0 0 24 24">
      <path d="M16 2L21 7V21.0082C21 21.556 20.5551 22 20.0066 22H3.9934C3.44476 22 3 21.5447 3 21.0082V2.9918C3 2.44405 3.44495 2 3.9934 2H16ZM11 7V9H13V7H11ZM11 11V17H13V11H11Z"/>
    </svg>
  </g>
  <!-- Icon 26: question-answer-fill -->
  <g transform="translate(436, 272)">
    <rect width="48" height="48" fill="#ffffff" stroke="#e9ecef" stroke-width="1" rx="4"/>
    <svg x="8" y="8" width="32" height="32" viewBox="0 0 24 24">
      <path d="M8 18H18.2372L20 19.3851V9H21C21.5523 9 22 9.44772 22 10V23.5L17.5455 20H9C8.44772 20 8 19.5523 8 19V18ZM5.45455 16L1 19.5V4C1 3.44772 1.44772 3 2 3H17C17.5523 3 18 3.44772 18 4V16H5.45455Z"/>
    </svg>
  </g>
  <!-- Icon 27: superscript-2 -->
  <g transform="translate(496, 272)">
    <rect width="48" height="48" fill="#ffffff" stroke="#e9ecef" stroke-width="1" rx="4"/>
    <svg x="8" y="8" width="32" height="32" viewBox="0 0 24 24">
      <path d="M11 7V20H9V7H3V5H15V7H11ZM19.5507 6.5803C19.7042 6.43453 19.8 6.22845 19.8 6C19.8 5.55817 19.4418 5.2 19 5.2C18.5582 5.2 18.2 5.55817 18.2 6C18.2 6.07624 18.2107 6.14999 18.2306 6.21983L17.0765 6.54958C17.0267 6.37497 17 6.1906 17 6C17 4.89543 17.8954 4 19 4C20.1046 4 21 4.89543 21 6C21 6.57273 20.7593 7.08923 20.3735 7.45384L18.7441 9H21V10H17V9L19.5507 6.5803V6.5803Z"/>
    </svg>
  </g>
  <!-- Icon 28: functions -->
  <g transform="translate(556, 272)">
    <rect width="48" height="48" fill="#ffffff" stroke="#e9ecef" stroke-width="1" rx="4"/>
    <svg x="8" y="8" width="32" height="32" viewBox="0 0 24 24">
      <path d="M5 18L12.6796 12L5 6V4H19V6H8.26348L16 12L8.26348 18H19V20H5V18Z"/>
    </svg>
  </g>
  <!-- Icon 29: pentagon-line -->
  <g transform="translate(196, 332)">
    <rect width="48" height="48" fill="#ffffff" stroke="#e9ecef" stroke-width="1" rx="4"/>
    <svg x="8" y="8" width="32" height="32" viewBox="0 0 24 24">
      <path d="M12.0004 3.03043L20.5309 9.22822L17.2725 19.2564H6.72821L3.46984 9.22822L12.0004 3.03043ZM22.7473 8.50806L12.0004 0.699951L1.25342 8.50806L5.35838 21.1418H18.6423L22.7473 8.50806Z"/>
    </svg>
  </g>
  <!-- Icon 30: flip-vertical-2-fill -->
  <g transform="translate(256, 332)">
    <rect width="48" height="48" fill="#ffffff" stroke="#e9ecef" stroke-width="1" rx="4"/>
    <svg x="8" y="8" width="32" height="32" viewBox="0 0 24 24">
      <path d="M4 3C3.44772 3 3 3.44772 3 4V20C3 20.5523 3.44772 21 4 21H20C20.5523 21 21 20.5523 21 20V4C21 3.44772 20.5523 3 20 3H4ZM8 10L12 6L16 10H13V14H16L12 18L8 14H11L11 10H8Z"/>
    </svg>
  </g>
  <!-- Icon 31: store-line -->
  <g transform="translate(316, 332)">
    <rect width="48" height="48" fill="#ffffff" stroke="#e9ecef" stroke-width="1" rx="4"/>
    <svg x="8" y="8" width="32" height="32" viewBox="0 0 24 24">
      <path d="M21 11.6458V21C21 21.5523 20.5523 22 20 22H4C3.44772 22 3 21.5523 3 21V11.6458C2.37764 10.9407 2 10.0144 2 9V3C2 2.44772 2.44772 2 3 2H21C21.5523 2 22 2.44772 22 3V9C22 10.0144 21.6224 10.9407 21 11.6458ZM19 12.874C18.6804 12.9562 18.3453 13 18 13C16.8053 13 15.7329 12.4762 15 11.6458C14.2671 12.4762 13.1947 13 12 13C10.8053 13 9.73294 12.4762 9 11.6458C8.26706 12.4762 7.19469 13 6 13C5.6547 13 5.31962 12.9562 5 12.874V20H19V12.874ZM14 9C14 8.44772 14.4477 8 15 8C15.5523 8 16 8.44772 16 9C16 10.1046 16.8954 11 18 11C19.1046 11 20 10.1046 20 9V4H4V9C4 10.1046 4.89543 11 6 11C7.10457 11 8 10.1046 8 9C8 8.44772 8.44772 8 9 8C9.55228 8 10 8.44772 10 9C10 10.1046 10.8954 11 12 11C13.1046 11 14 10.1046 14 9Z"/>
    </svg>
  </g>
  <!-- Icon 32: send-plane-fill -->
  <g transform="translate(376, 332)">
    <rect width="48" height="48" fill="#ffffff" stroke="#e9ecef" stroke-width="1" rx="4"/>
    <svg x="8" y="8" width="32" height="32" viewBox="0 0 24 24">
      <path d="M1.94607 9.31543C1.42353 9.14125 1.4194 8.86022 1.95682 8.68108L21.043 2.31901C21.5715 2.14285 21.8746 2.43866 21.7265 2.95694L16.2733 22.0432C16.1223 22.5716 15.8177 22.59 15.5944 22.0876L11.9999 14L17.9999 6.00005L9.99992 12L1.94607 9.31543Z"/>
    </svg>
  </g>
  <!-- Icon 33: global-line -->
  <g transform="translate(436, 332)">
    <rect width="48" height="48" fill="#ffffff" stroke="#e9ecef" stroke-width="1" rx="4"/>
    <svg x="8" y="8" width="32" height="32" viewBox="0 0 24 24">
      <path d="M12 22C6.47715 22 2 17.5228 2 12C2 6.47715 6.47715 2 12 2C17.5228 2 22 6.47715 22 12C22 17.5228 17.5228 22 12 22ZM9.71002 19.6674C8.74743 17.6259 8.15732 15.3742 8.02731 13H4.06189C4.458 16.1765 6.71639 18.7747 9.71002 19.6674ZM10.0307 13C10.1811 15.4388 10.8778 17.7297 12 19.752C13.1222 17.7297 13.8189 15.4388 13.9693 13H10.0307ZM19.9381 13H15.9727C15.8427 15.3742 15.2526 17.6259 14.29 19.6674C17.2836 18.7747 19.542 16.1765 19.9381 13ZM4.06189 11H8.02731C8.15732 8.62577 8.74743 6.37407 9.71002 4.33256C6.71639 5.22533 4.458 7.8235 4.06189 11ZM10.0307 11H13.9693C13.8189 8.56122 13.1222 6.27025 12 4.24799C10.8778 6.27025 10.1811 8.56122 10.0307 11ZM14.29 4.33256C15.2526 6.37407 15.8427 8.62577 15.9727 11H19.9381C19.542 7.8235 17.2836 5.22533 14.29 4.33256Z"/>
    </svg>
  </g>
  <!-- Icon 34: archive-stack-fill -->
  <g transform="translate(496, 332)">
    <rect width="48" height="48" fill="#ffffff" stroke="#e9ecef" stroke-width="1" rx="4"/>
    <svg x="8" y="8" width="32" height="32" viewBox="0 0 24 24">
      <path d="M4 5H20V3H4V5ZM20 9H4V7H20V9ZM9 13H15V11H21V20C21 20.5523 20.5523 21 20 21H4C3.44772 21 3 20.5523 3 20V11H9V13Z"/>
    </svg>
  </g>
  <!-- Icon 35: arrow-up-wide-line -->
  <g transform="translate(556, 332)">
    <rect width="48" height="48" fill="#ffffff" stroke="#e9ecef" stroke-width="1" rx="4"/>
    <svg x="8" y="8" width="32" height="32" viewBox="0 0 24 24">
      <path d="M12 8.36853L20.9679 13.1162L20.0321 14.8838L12 10.6315L3.96789 14.8838L3.03211 13.1162L12 8.36853Z"/>
    </svg>
  </g>
  
  <!-- Footer -->
  <text x="400" y="580" text-anchor="middle" font-family="system-ui, -apple-system, sans-serif" font-size="12" fill="#6c757d">
    Showing 35 of 3058 icons
  </text>
  
</svg>