<svg width="800" height="600" xmlns="http://www.w3.org/2000/svg">
  <!-- Background -->
  <rect width="800" height="600" fill="#ffffff"/>
  
  <!-- Header Background -->
  <rect width="800" height="80" fill="#f8f9fa"/>
  
  <!-- Title -->
  <text x="400" y="30" text-anchor="middle" font-family="system-ui, -apple-system, sans-serif" font-size="20" font-weight="bold" fill="#212529">Remix Icon - default</text>
  
  <!-- Subtitle -->
  <text x="400" y="55" text-anchor="middle" font-family="system-ui, -apple-system, sans-serif" font-size="14" fill="#6c757d">3,058 icons</text>
  
  <!-- Icon Grid -->
  <!-- Icon 1: windy-line -->
  <g transform="translate(12, 92)">
    <rect width="48" height="48" fill="#ffffff" stroke="#e9ecef" stroke-width="1" rx="4"/>
    <svg x="8" y="8" width="32" height="32" viewBox="0 0 24 24">
      <path d="M10.5 17H4V15H10.5C12.433 15 14 16.567 14 18.5C14 20.433 12.433 22 10.5 22C8.99957 22 7.71966 21.0559 7.22196 19.7293L9.09513 19.0268C9.30843 19.5954 9.85696 20 10.5 20C11.3284 20 12 19.3284 12 18.5C12 17.6716 11.3284 17 10.5 17ZM5 11H18.5C20.433 11 22 12.567 22 14.5C22 16.433 20.433 18 18.5 18C16.9996 18 15.7197 17.0559 15.222 15.7293L17.0951 15.0268C17.3084 15.5954 17.857 16 18.5 16C19.3284 16 20 15.3284 20 14.5C20 13.6716 19.3284 13 18.5 13H5C3.34315 13 2 11.6569 2 10C2 8.34315 3.34315 7 5 7H13.5C14.3284 7 15 6.32843 15 5.5C15 4.67157 14.3284 4 13.5 4C12.857 4 12.3084 4.40463 12.0951 4.97317L10.222 4.27073C10.7197 2.94414 11.9996 2 13.5 2C15.433 2 17 3.567 17 5.5C17 7.433 15.433 9 13.5 9H5C4.44772 9 4 9.44772 4 10C4 10.5523 4.44772 11 5 11Z"/>
    </svg>
  </g>
  <!-- Icon 2: voice-recognition-fill -->
  <g transform="translate(72, 92)">
    <rect width="48" height="48" fill="#ffffff" stroke="#e9ecef" stroke-width="1" rx="4"/>
    <svg x="8" y="8" width="32" height="32" viewBox="0 0 24 24">
      <path d="M20.998 3V21H2.99805V3H20.998ZM12.998 6H10.998V18H12.998V6ZM8.99805 9H6.99805V15H8.99805V9ZM16.998 9H14.998V15H16.998V9Z"/>
    </svg>
  </g>
  <!-- Icon 3: flower-line -->
  <g transform="translate(132, 92)">
    <rect width="48" height="48" fill="#ffffff" stroke="#e9ecef" stroke-width="1" rx="4"/>
    <svg x="8" y="8" width="32" height="32" viewBox="0 0 24 24">
      <path d="M11.9999 2.07617L12.4551 2.30885C14.2208 3.21149 15.7328 4.53815 16.8573 6.15479C17.7852 5.71408 18.7788 5.38878 19.8193 5.19765L21 4.98077V12.9998C21 17.9703 16.9706 22 12 22C7.02944 22 3 17.9706 3 13V4.98077L4.18066 5.19765C5.22115 5.38877 6.2147 5.71404 7.14253 6.15472C8.26706 4.53811 9.77902 3.21147 11.5447 2.30885L11.9999 2.07617ZM8.87757 7.1651C10.1073 8.02652 11.1679 9.11272 12 10.3645C12.8322 9.11279 13.893 8.02648 15.1223 7.16521C14.2952 6.016 13.2302 5.04929 11.9999 4.33747C10.7697 5.04926 9.70468 6.01593 8.87757 7.1651ZM10.8993 12.4338C10.0182 10.7203 8.65593 9.29326 6.99112 8.33231C6.3667 7.97189 5.6999 7.67713 5 7.45734V13C5 16.29 7.26961 19.0498 10.3285 19.7992C10.1137 18.9004 10 17.9629 10 16.9998C10 15.3831 10.3198 13.8412 10.8993 12.4338ZM12.4531 19.9856C16.1079 19.7521 19 16.7136 19 12.9998V7.45734C18.3 7.67715 17.6332 7.97193 17.0088 8.33239C14.0127 10.0618 12 13.2964 12 16.9998C12 18.0411 12.1588 19.0437 12.4531 19.9856Z"/>
    </svg>
  </g>
  <!-- Icon 4: user-follow-line -->
  <g transform="translate(192, 92)">
    <rect width="48" height="48" fill="#ffffff" stroke="#e9ecef" stroke-width="1" rx="4"/>
    <svg x="8" y="8" width="32" height="32" viewBox="0 0 24 24">
      <path d="M14 14.252V16.3414C13.3744 16.1203 12.7013 16 12 16C8.68629 16 6 18.6863 6 22H4C4 17.5817 7.58172 14 12 14C12.6906 14 13.3608 14.0875 14 14.252ZM12 13C8.685 13 6 10.315 6 7C6 3.685 8.685 1 12 1C15.315 1 18 3.685 18 7C18 10.315 15.315 13 12 13ZM12 11C14.21 11 16 9.21 16 7C16 4.79 14.21 3 12 3C9.79 3 8 4.79 8 7C8 9.21 9.79 11 12 11ZM17.7929 19.9142L21.3284 16.3787L22.7426 17.7929L17.7929 22.7426L14.2574 19.2071L15.6716 17.7929L17.7929 19.9142Z"/>
    </svg>
  </g>
  <!-- Icon 5: account-circle-line -->
  <g transform="translate(252, 92)">
    <rect width="48" height="48" fill="#ffffff" stroke="#e9ecef" stroke-width="1" rx="4"/>
    <svg x="8" y="8" width="32" height="32" viewBox="0 0 24 24">
      <path d="M12 2C17.5228 2 22 6.47715 22 12C22 17.5228 17.5228 22 12 22C6.47715 22 2 17.5228 2 12C2 6.47715 6.47715 2 12 2ZM12.1597 16C10.1243 16 8.29182 16.8687 7.01276 18.2556C8.38039 19.3474 10.114 20 12 20C13.9695 20 15.7727 19.2883 17.1666 18.1081C15.8956 16.8074 14.1219 16 12.1597 16ZM12 4C7.58172 4 4 7.58172 4 12C4 13.8106 4.6015 15.4807 5.61557 16.8214C7.25639 15.0841 9.58144 14 12.1597 14C14.6441 14 16.8933 15.0066 18.5218 16.6342C19.4526 15.3267 20 13.7273 20 12C20 7.58172 16.4183 4 12 4ZM12 5C14.2091 5 16 6.79086 16 9C16 11.2091 14.2091 13 12 13C9.79086 13 8 11.2091 8 9C8 6.79086 9.79086 5 12 5ZM12 7C10.8954 7 10 7.89543 10 9C10 10.1046 10.8954 11 12 11C13.1046 11 14 10.1046 14 9C14 7.89543 13.1046 7 12 7Z"/>
    </svg>
  </g>
  <!-- Icon 6: parking-box-fill -->
  <g transform="translate(312, 92)">
    <rect width="48" height="48" fill="#ffffff" stroke="#e9ecef" stroke-width="1" rx="4"/>
    <svg x="8" y="8" width="32" height="32" viewBox="0 0 24 24">
      <path d="M11 14H12.5C14.433 14 16 12.433 16 10.5C16 8.567 14.433 7 12.5 7H9V17H11V14ZM4 3H20C20.5523 3 21 3.44772 21 4V20C21 20.5523 20.5523 21 20 21H4C3.44772 21 3 20.5523 3 20V4C3 3.44772 3.44772 3 4 3ZM11 9H12.5C13.3284 9 14 9.67157 14 10.5C14 11.3284 13.3284 12 12.5 12H11V9Z"/>
    </svg>
  </g>
  <!-- Icon 7: barricade-line -->
  <g transform="translate(372, 92)">
    <rect width="48" height="48" fill="#ffffff" stroke="#e9ecef" stroke-width="1" rx="4"/>
    <svg x="8" y="8" width="32" height="32" viewBox="0 0 24 24">
      <path d="M6.49323 19H17.5068L16.8401 16H7.1599L6.49323 19ZM19.5556 19H21V21H3V19H4.44444L7.82598 3.78307C7.92766 3.32553 8.33347 3 8.80217 3H15.1978C15.6665 3 16.0723 3.32553 16.174 3.78307L19.5556 19ZM7.60434 14H16.3957L15.5068 10H8.49323L7.60434 14ZM8.93768 8H15.0623L14.3957 5H9.60434L8.93768 8Z"/>
    </svg>
  </g>
  <!-- Icon 8: upload-cloud-fill -->
  <g transform="translate(12, 152)">
    <rect width="48" height="48" fill="#ffffff" stroke="#e9ecef" stroke-width="1" rx="4"/>
    <svg x="8" y="8" width="32" height="32" viewBox="0 0 24 24">
      <path d="M7 20.9811C3.64378 20.7257 1 17.9216 1 14.5C1 12.1716 2.22429 10.1291 4.06426 8.9812C4.56469 5.044 7.92686 2 12 2C16.0731 2 19.4353 5.044 19.9357 8.9812C21.7757 10.1291 23 12.1716 23 14.5C23 17.9216 20.3562 20.7257 17 20.9811V21H7V20.9811ZM13 13H16L12 8L8 13H11V17H13V13Z"/>
    </svg>
  </g>
  <!-- Icon 9: search-2-line -->
  <g transform="translate(72, 152)">
    <rect width="48" height="48" fill="#ffffff" stroke="#e9ecef" stroke-width="1" rx="4"/>
    <svg x="8" y="8" width="32" height="32" viewBox="0 0 24 24">
      <path d="M11 2C15.968 2 20 6.032 20 11C20 15.968 15.968 20 11 20C6.032 20 2 15.968 2 11C2 6.032 6.032 2 11 2ZM11 18C14.8675 18 18 14.8675 18 11C18 7.1325 14.8675 4 11 4C7.1325 4 4 7.1325 4 11C4 14.8675 7.1325 18 11 18ZM19.4853 18.0711L22.3137 20.8995L20.8995 22.3137L18.0711 19.4853L19.4853 18.0711Z"/>
    </svg>
  </g>
  <!-- Icon 10: lock-star-fill -->
  <g transform="translate(132, 152)">
    <rect width="48" height="48" fill="#ffffff" stroke="#e9ecef" stroke-width="1" rx="4"/>
    <svg x="8" y="8" width="32" height="32" viewBox="0 0 24 24">
      <path d="M12 1C8.68629 1 6 3.68629 6 7V8H4C3.44772 8 3 8.44772 3 9V21C3 21.5523 3.44772 22 4 22H13.044C12.6947 21.2389 12.5 20.3922 12.5 19.5C12.5 16.1863 15.1863 13.5 18.5 13.5C19.3922 13.5 20.2389 13.6947 21 14.044V9C21 8.44772 20.5523 8 20 8H18V7C18 3.68629 15.3137 1 12 1ZM16 8H8V7C8 4.79086 9.79086 3 12 3C14.2091 3 16 4.79086 16 7V8ZM21.145 23.1406L20.6399 20.1953L22.7798 18.1094L19.8225 17.6797L18.5 15L17.1775 17.6797L14.2202 18.1094L16.3601 20.1953L15.855 23.1406L18.5 21.75L21.145 23.1406Z"/>
    </svg>
  </g>
  <!-- Icon 11: delete-bin-4-line -->
  <g transform="translate(192, 152)">
    <rect width="48" height="48" fill="#ffffff" stroke="#e9ecef" stroke-width="1" rx="4"/>
    <svg x="8" y="8" width="32" height="32" viewBox="0 0 24 24">
      <path d="M20 7V21C20 21.5523 19.5523 22 19 22H5C4.44772 22 4 21.5523 4 21V7H2V5H22V7H20ZM6 7V20H18V7H6ZM7 2H17V4H7V2ZM11 10H13V17H11V10Z"/>
    </svg>
  </g>
  <!-- Icon 12: cake-2-fill -->
  <g transform="translate(252, 152)">
    <rect width="48" height="48" fill="#ffffff" stroke="#e9ecef" stroke-width="1" rx="4"/>
    <svg x="8" y="8" width="32" height="32" viewBox="0 0 24 24">
      <path d="M8 6V9.999H11V6H13V9.999H16V6H18V9.999L19 10C20.5977 10 21.9037 11.2489 21.9949 12.8237L22 13V14C22 15.0139 21.6227 15.9397 21.001 16.6447L21 21C21 21.5523 20.5523 22 20 22H4C3.44772 22 3 21.5523 3 21L2.99917 16.6401C2.47812 16.0464 2.12795 15.2943 2.02793 14.4584L2.00551 14.2052L2 14V13C2 11.4023 3.24892 10.0963 4.82373 10.0051L5 10L6 9.999V6H8ZM19 12H5C4.48716 12 4.06449 12.386 4.00673 12.8834L4 13L3.99958 13.9711L4.00342 14.1184C4.06444 15.1715 4.93934 16 6 16C7.00762 16 7.84761 15.2523 7.98033 14.2995L7.99532 14.1474L8.00042 13.9711C8.03649 12.7225 9.82713 12.6779 9.98853 13.8373L9.99958 13.9711L10.0034 14.1184C10.0644 15.1715 10.9393 16 12 16C13.0544 16 13.9182 15.1841 13.9945 14.1493L14.007 13.8668C14.131 12.7111 15.869 12.7111 15.993 13.8668L16.0055 14.1493C16.0818 15.1841 16.9456 16 18 16C19.0544 16 19.9182 15.1841 19.9945 14.1493L20 14V13C20 12.4872 19.614 12.0645 19.1166 12.0067L19 12ZM7 1C8.31948 1.87119 8.6633 3.08803 8.44889 3.88823C8.23448 4.68843 7.41197 5.1633 6.61177 4.94889C5.81157 4.73448 5.3367 3.91197 5.55111 3.11177C5.84871 2.00111 7 2.5 7 1ZM12 1C13.3195 1.87119 13.6633 3.08803 13.4489 3.88823C13.2345 4.68843 12.412 5.1633 11.6118 4.94889C10.8116 4.73448 10.3367 3.91197 10.5511 3.11177C10.8487 2.00111 12 2.5 12 1ZM17 1C18.3195 1.87119 18.6633 3.08803 18.4489 3.88823C18.2345 4.68843 17.412 5.1633 16.6118 4.94889C15.8116 4.73448 15.3367 3.91197 15.5511 3.11177C15.8487 2.00111 17 2.5 17 1Z"/>
    </svg>
  </g>
  <!-- Icon 13: rewind-mini-line -->
  <g transform="translate(312, 152)">
    <rect width="48" height="48" fill="#ffffff" stroke="#e9ecef" stroke-width="1" rx="4"/>
    <svg x="8" y="8" width="32" height="32" viewBox="0 0 24 24">
      <path d="M9.0002 9.85985L5.96831 12L9.0002 14.1402V9.85985ZM10.9087 17.3234C10.7494 17.549 10.4375 17.6028 10.2119 17.4435L3.07889 12.4085C3.03228 12.3756 2.99164 12.335 2.95874 12.2883C2.7995 12.0627 2.85329 11.7508 3.07889 11.5915L10.2119 6.55648C10.2962 6.49693 10.3969 6.46497 10.5002 6.46497C10.7763 6.46497 11.0002 6.68882 11.0002 6.96497V17.035C11.0002 17.1383 10.9682 17.239 10.9087 17.3234ZM18.0002 14.1402V9.85985L14.9683 12L18.0002 14.1402ZM12.0789 12.4085C12.0323 12.3756 11.9916 12.335 11.9587 12.2883C11.7995 12.0627 11.8533 11.7508 12.0789 11.5915L19.2119 6.55648C19.2962 6.49693 19.3969 6.46497 19.5002 6.46497C19.7763 6.46497 20.0002 6.68882 20.0002 6.96497V17.035C20.0002 17.1383 19.9682 17.239 19.9087 17.3234C19.7494 17.549 19.4375 17.6028 19.2119 17.4435L12.0789 12.4085Z"/>
    </svg>
  </g>
  <!-- Icon 14: music-2-fill -->
  <g transform="translate(372, 152)">
    <rect width="48" height="48" fill="#ffffff" stroke="#e9ecef" stroke-width="1" rx="4"/>
    <svg x="8" y="8" width="32" height="32" viewBox="0 0 24 24">
      <path d="M20 3V17C20 19.2091 18.2091 21 16 21C13.7909 21 12 19.2091 12 17C12 14.7909 13.7909 13 16 13C16.7286 13 17.4117 13.1948 18 13.5351V6H9V17C9 19.2091 7.20914 21 5 21C2.79086 21 1 19.2091 1 17C1 14.7909 2.79086 13 5 13C5.72857 13 6.41165 13.1948 7 13.5351V3H20Z"/>
    </svg>
  </g>
  <!-- Icon 15: disc-line -->
  <g transform="translate(12, 212)">
    <rect width="48" height="48" fill="#ffffff" stroke="#e9ecef" stroke-width="1" rx="4"/>
    <svg x="8" y="8" width="32" height="32" viewBox="0 0 24 24">
      <path d="M15 4.58152V12C15 13.6569 13.6569 15 12 15C10.3431 15 9 13.6569 9 12C9 10.3431 10.3431 9 12 9C12.3506 9 12.6872 9.06016 13 9.17071V2.04938C18.0533 2.5511 22 6.81465 22 12C22 17.5229 17.5228 22 12 22C6.47715 22 2 17.5229 2 12C2 6.81465 5.94668 2.5511 11 2.04938V4.0619C7.05369 4.55399 4 7.92038 4 12C4 16.4183 7.58172 20 12 20C16.4183 20 20 16.4183 20 12C20 8.64262 17.9318 5.76829 15 4.58152Z"/>
    </svg>
  </g>
  <!-- Icon 16: trello-fill -->
  <g transform="translate(72, 212)">
    <rect width="48" height="48" fill="#ffffff" stroke="#e9ecef" stroke-width="1" rx="4"/>
    <svg x="8" y="8" width="32" height="32" viewBox="0 0 24 24">
      <path d="M5.25098 3H18.751C19.993 3 21.001 4.00737 21.001 5.25V18.75C21.001 19.992 19.9935 21 18.751 21H5.25098C4.00898 21 3.00098 19.9925 3.00098 18.75V5.25C3.00098 4.008 4.00835 3 5.25098 3ZM13.171 6.42054V12.1795C13.171 12.7762 13.6545 13.26 14.2507 13.26H17.5812C18.1776 13.26 18.661 12.7765 18.661 12.1795V6.42054C18.661 5.82384 18.1774 5.34 17.5812 5.34H14.2507C13.6543 5.34 13.171 5.82348 13.171 6.42054ZM5.34098 6.42045V16.6796C5.34098 17.2762 5.82455 17.76 6.42071 17.76H9.75125C10.3476 17.76 10.831 17.277 10.831 16.6796V6.42045C10.831 5.82375 10.3474 5.34 9.75125 5.34H6.42071C5.82428 5.34 5.34098 5.82303 5.34098 6.42045Z"/>
    </svg>
  </g>
  <!-- Icon 17: mini-program-line -->
  <g transform="translate(132, 212)">
    <rect width="48" height="48" fill="#ffffff" stroke="#e9ecef" stroke-width="1" rx="4"/>
    <svg x="8" y="8" width="32" height="32" viewBox="0 0 24 24">
      <path d="M12.001 22C6.47813 22 2.00098 17.5228 2.00098 12C2.00098 6.47715 6.47813 2 12.001 2C17.5238 2 22.001 6.47715 22.001 12C22.001 17.5228 17.5238 22 12.001 22ZM12.001 20C16.4193 20 20.001 16.4183 20.001 12C20.001 7.58172 16.4193 4 12.001 4C7.5827 4 4.00098 7.58172 4.00098 12C4.00098 16.4183 7.5827 20 12.001 20ZM13.001 14C13.001 15.9332 11.434 17.5002 9.50098 17.5002C7.56798 17.5002 6.00098 15.9332 6.00098 14.0002C6.00098 12.6262 6.80048 11.3965 8.02405 10.8265C8.52467 10.5932 9.11958 10.81 9.35282 11.3106C9.58607 11.8112 9.36932 12.4061 8.86871 12.6393C8.34353 12.884 8.00098 13.4109 8.00098 14.0002C8.00098 14.8287 8.67255 15.5002 9.50098 15.5002C10.3294 15.5002 11.001 14.8287 11.001 14.0002V10C11.001 8.067 12.568 6.5 14.501 6.5C16.434 6.5 18.001 8.067 18.001 10C18.001 11.3741 17.2015 12.6037 15.9779 13.1738C15.4773 13.407 14.8824 13.1903 14.6491 12.6897C14.4159 12.189 14.6326 11.5941 15.1332 11.3609C15.6584 11.1162 16.001 10.5894 16.001 10C16.001 9.17157 15.3294 8.5 14.501 8.5C13.6725 8.5 13.001 9.17157 13.001 10V14Z"/>
    </svg>
  </g>
  <!-- Icon 18: disqus-fill -->
  <g transform="translate(192, 212)">
    <rect width="48" height="48" fill="#ffffff" stroke="#e9ecef" stroke-width="1" rx="4"/>
    <svg x="8" y="8" width="32" height="32" viewBox="0 0 24 24">
      <path d="M12 2C17.5228 2 22 6.47715 22 12C22 17.5228 17.5228 22 12 22C9.47017 22 7.15975 21.0606 5.39856 19.5116L1.5 20L2.92355 16.2031C2.33082 14.9253 2 13.5013 2 12C2 6.47715 6.47715 2 12 2ZM8 7.0003V17.0003H11.7335L11.9959 16.9963C15.3714 16.8928 17.3333 14.7848 17.3333 11.9714V11.9436L17.3295 11.7287C17.2307 8.95633 15.2107 7.0003 11.7896 7.0003H8ZM11.8314 9.45793C13.4594 9.45793 14.54 10.3861 14.54 11.9868V12.0147L14.5352 12.1978C14.4561 13.6979 13.3968 14.5434 11.8314 14.5434H10.723V9.45793H11.8314Z"/>
    </svg>
  </g>
  <!-- Icon 19: shopping-cart-line -->
  <g transform="translate(252, 212)">
    <rect width="48" height="48" fill="#ffffff" stroke="#e9ecef" stroke-width="1" rx="4"/>
    <svg x="8" y="8" width="32" height="32" viewBox="0 0 24 24">
      <path d="M4.00488 16V4H2.00488V2H5.00488C5.55717 2 6.00488 2.44772 6.00488 3V15H18.4433L20.4433 7H8.00488V5H21.7241C22.2764 5 22.7241 5.44772 22.7241 6C22.7241 6.08176 22.7141 6.16322 22.6942 6.24254L20.1942 16.2425C20.083 16.6877 19.683 17 19.2241 17H5.00488C4.4526 17 4.00488 16.5523 4.00488 16ZM6.00488 23C4.90031 23 4.00488 22.1046 4.00488 21C4.00488 19.8954 4.90031 19 6.00488 19C7.10945 19 8.00488 19.8954 8.00488 21C8.00488 22.1046 7.10945 23 6.00488 23ZM18.0049 23C16.9003 23 16.0049 22.1046 16.0049 21C16.0049 19.8954 16.9003 19 18.0049 19C19.1095 19 20.0049 19.8954 20.0049 21C20.0049 22.1046 19.1095 23 18.0049 23Z"/>
    </svg>
  </g>
  <!-- Icon 20: exchange-box-fill -->
  <g transform="translate(312, 212)">
    <rect width="48" height="48" fill="#ffffff" stroke="#e9ecef" stroke-width="1" rx="4"/>
    <svg x="8" y="8" width="32" height="32" viewBox="0 0 24 24">
      <path d="M3.00488 3.00275H21.0049C21.5572 3.00275 22.0049 3.45046 22.0049 4.00275V20.0027C22.0049 20.555 21.5572 21.0027 21.0049 21.0027H3.00488C2.4526 21.0027 2.00488 20.555 2.00488 20.0027V4.00275C2.00488 3.45046 2.4526 3.00275 3.00488 3.00275ZM12.0049 9.00275H8.00488V11.0027H17.0049L12.0049 6.00275V9.00275ZM7.00488 13.0027L12.0049 18.0027V15.0027H16.0049V13.0027H7.00488Z"/>
    </svg>
  </g>
  <!-- Icon 21: separator -->
  <g transform="translate(372, 212)">
    <rect width="48" height="48" fill="#ffffff" stroke="#e9ecef" stroke-width="1" rx="4"/>
    <svg x="8" y="8" width="32" height="32" viewBox="0 0 24 24">
      <path d="M2 11H4V13H2V11ZM6 11H18V13H6V11ZM20 11H22V13H20V11Z"/>
    </svg>
  </g>
  <!-- Icon 22: custom-size -->
  <g transform="translate(12, 272)">
    <rect width="48" height="48" fill="#ffffff" stroke="#e9ecef" stroke-width="1" rx="4"/>
    <svg x="8" y="8" width="32" height="32" viewBox="0 0 24 24">
      <path d="M8 3H15V0.5L18.5 4L15 7.5V5H8V7.5L4.5 4L8 0.5V3ZM3 17V6.5H5V17C5 18.1046 5.89543 19 7 19H17.5V21H7C4.79086 21 3 19.2091 3 17ZM21 16V9H23.5L20 5.5L16.5 9H19V16H16.5L20 19.5L23.5 16H21Z"/>
    </svg>
  </g>
  <!-- Icon 23: remote-control-line -->
  <g transform="translate(72, 272)">
    <rect width="48" height="48" fill="#ffffff" stroke="#e9ecef" stroke-width="1" rx="4"/>
    <svg x="8" y="8" width="32" height="32" viewBox="0 0 24 24">
      <path d="M17.0001 12C17.5524 12 18.0001 12.4477 18.0001 13V22H16.0001V14H8.00015V22H6.00015V13C6.00015 12.4477 6.44786 12 7.00015 12H17.0001ZM12.0001 16V18H10.0001V16H12.0001ZM12.0001 6C14.3491 6 16.3827 7.34978 17.3678 9.31602L15.5787 10.2108C14.922 8.89991 13.5662 8 12.0001 8C10.4341 8 9.07833 8.89991 8.42163 10.2108L6.63247 9.31602C7.61755 7.34978 9.65122 6 12.0001 6ZM12.0001 2C15.9153 2 19.3049 4.24991 20.9466 7.5273L19.1576 8.42242C17.8443 5.80019 15.1325 4 12.0001 4C8.86783 4 6.15596 5.80019 4.84271 8.42242L3.05371 7.5273C4.69541 4.24991 8.08503 2 12.0001 2Z"/>
    </svg>
  </g>
  <!-- Icon 24: battery-saver-fill -->
  <g transform="translate(132, 272)">
    <rect width="48" height="48" fill="#ffffff" stroke="#e9ecef" stroke-width="1" rx="4"/>
    <svg x="8" y="8" width="32" height="32" viewBox="0 0 24 24">
      <path d="M14 2C14.5523 2 15 2.44772 15 3V4H18C18.5523 4 19 4.44772 19 5V21C19 21.5523 18.5523 22 18 22H6C5.44772 22 5 21.5523 5 21V5C5 4.44772 5.44772 4 6 4H9V3C9 2.44772 9.44772 2 10 2H14ZM13 9H11V12H8V14H11V17H13V14H16V12H13V9Z"/>
    </svg>
  </g>
  <!-- Icon 25: questionnaire-line -->
  <g transform="translate(192, 272)">
    <rect width="48" height="48" fill="#ffffff" stroke="#e9ecef" stroke-width="1" rx="4"/>
    <svg x="8" y="8" width="32" height="32" viewBox="0 0 24 24">
      <path d="M5.76282 17H20V5H4V18.3851L5.76282 17ZM6.45455 19L2 22.5V4C2 3.44772 2.44772 3 3 3H21C21.5523 3 22 3.44772 22 4V18C22 18.5523 21.5523 19 21 19H6.45455ZM11 14H13V16H11V14ZM8.56731 8.81346C8.88637 7.20919 10.302 6 12 6C13.933 6 15.5 7.567 15.5 9.5C15.5 11.433 13.933 13 12 13H11V11H12C12.8284 11 13.5 10.3284 13.5 9.5C13.5 8.67157 12.8284 8 12 8C11.2723 8 10.6656 8.51823 10.5288 9.20577L8.56731 8.81346Z"/>
    </svg>
  </g>
  <!-- Icon 26: pages-fill -->
  <g transform="translate(252, 272)">
    <rect width="48" height="48" fill="#ffffff" stroke="#e9ecef" stroke-width="1" rx="4"/>
    <svg x="8" y="8" width="32" height="32" viewBox="0 0 24 24">
      <path d="M20 22H4C3.44772 22 3 21.5523 3 21V8H21V21C21 21.5523 20.5523 22 20 22ZM21 6H3V3C3 2.44772 3.44772 2 4 2H20C20.5523 2 21 2.44772 21 3V6ZM7 11V15H11V11H7ZM7 17V19H17V17H7ZM13 12V14H17V12H13Z"/>
    </svg>
  </g>
  <!-- Icon 27: file-warning-line -->
  <g transform="translate(312, 272)">
    <rect width="48" height="48" fill="#ffffff" stroke="#e9ecef" stroke-width="1" rx="4"/>
    <svg x="8" y="8" width="32" height="32" viewBox="0 0 24 24">
      <path d="M15 4H5V20H19V8H15V4ZM3 2.9918C3 2.44405 3.44749 2 3.9985 2H16L20.9997 7L21 20.9925C21 21.5489 20.5551 22 20.0066 22H3.9934C3.44476 22 3 21.5447 3 21.0082V2.9918ZM11 15H13V17H11V15ZM11 7H13V13H11V7Z"/>
    </svg>
  </g>
  <!-- Icon 28: file-chart-fill -->
  <g transform="translate(372, 272)">
    <rect width="48" height="48" fill="#ffffff" stroke="#e9ecef" stroke-width="1" rx="4"/>
    <svg x="8" y="8" width="32" height="32" viewBox="0 0 24 24">
      <path d="M16 2L21 7V21.0082C21 21.556 20.5551 22 20.0066 22H3.9934C3.44476 22 3 21.5447 3 21.0082V2.9918C3 2.44405 3.44495 2 3.9934 2H16ZM11 7V17H13V7H11ZM15 11V17H17V11H15ZM7 13V17H9V13H7Z"/>
    </svg>
  </g>
  <!-- Icon 29: government-line -->
  <g transform="translate(12, 332)">
    <rect width="48" height="48" fill="#ffffff" stroke="#e9ecef" stroke-width="1" rx="4"/>
    <svg x="8" y="8" width="32" height="32" viewBox="0 0 24 24">
      <path d="M20 6H23V8H22V19H23V21H1V19H2V8H1V6H4V4C4 3.44772 4.44772 3 5 3H19C19.5523 3 20 3.44772 20 4V6ZM20 8H4V19H7V12H9V19H11V12H13V19H15V12H17V19H20V8ZM6 5V6H18V5H6Z"/>
    </svg>
  </g>
  <!-- Icon 30: magic-fill -->
  <g transform="translate(72, 332)">
    <rect width="48" height="48" fill="#ffffff" stroke="#e9ecef" stroke-width="1" rx="4"/>
    <svg x="8" y="8" width="32" height="32" viewBox="0 0 24 24">
      <path d="M15.2238 15.5079L13.0111 20.1581C12.8687 20.4573 12.5107 20.5844 12.2115 20.442C12.1448 20.4103 12.0845 20.3665 12.0337 20.3129L8.49229 16.5741C8.39749 16.474 8.27113 16.4096 8.13445 16.3918L3.02816 15.7243C2.69958 15.6814 2.46804 15.3802 2.51099 15.0516C2.52056 14.9784 2.54359 14.9075 2.5789 14.8426L5.04031 10.3192C5.1062 10.1981 5.12839 10.058 5.10314 9.92253L4.16 4.85991C4.09931 4.53414 4.3142 4.22086 4.63997 4.16017C4.7126 4.14664 4.78711 4.14664 4.85974 4.16017L9.92237 5.10331C10.0579 5.12855 10.198 5.10637 10.319 5.04048L14.8424 2.57907C15.1335 2.42068 15.4979 2.52825 15.6562 2.81931C15.6916 2.88421 15.7146 2.95507 15.7241 3.02833L16.3916 8.13462C16.4095 8.2713 16.4739 8.39766 16.5739 8.49245L20.3127 12.0338C20.5533 12.2617 20.5636 12.6415 20.3357 12.8821C20.2849 12.9357 20.2246 12.9795 20.1579 13.0112L15.5078 15.224C15.3833 15.2832 15.283 15.3835 15.2238 15.5079ZM16.0206 17.435L17.4348 16.0208L21.6775 20.2634L20.2633 21.6776L16.0206 17.435Z"/>
    </svg>
  </g>
  <!-- Icon 31: crop-2-line -->
  <g transform="translate(132, 332)">
    <rect width="48" height="48" fill="#ffffff" stroke="#e9ecef" stroke-width="1" rx="4"/>
    <svg x="8" y="8" width="32" height="32" viewBox="0 0 24 24">
      <path d="M8.41421 17H15V19H6C5.44772 19 5 18.5523 5 18V7H2V5H5V2H7V15.5858L15.5858 7H9V5H17.5858L20.1421 2.44365L21.5563 3.85786L19 6.41421V17H22V19H19V22H17V8.41421L8.41421 17Z"/>
    </svg>
  </g>
  <!-- Icon 32: expand-horizontal-fill -->
  <g transform="translate(192, 332)">
    <rect width="48" height="48" fill="#ffffff" stroke="#e9ecef" stroke-width="1" rx="4"/>
    <svg x="8" y="8" width="32" height="32" viewBox="0 0 24 24">
      <path d="M0.5 12L5.44975 7.05029L5.44876 11H10V13H5.44826L5.44727 16.9473L0.5 12ZM14 13H18.5501L18.55 16.9493L23.5 11.9996L18.5503 7.0498L18.5502 11H14V13Z"/>
    </svg>
  </g>
  <!-- Icon 33: arrow-right-down-line -->
  <g transform="translate(252, 332)">
    <rect width="48" height="48" fill="#ffffff" stroke="#e9ecef" stroke-width="1" rx="4"/>
    <svg x="8" y="8" width="32" height="32" viewBox="0 0 24 24">
      <path d="M14.5895 16.0032L5.98291 7.39664L7.39712 5.98242L16.0037 14.589V7.00324H18.0037V18.0032H7.00373V16.0032H14.5895Z"/>
    </svg>
  </g>
  <!-- Icon 34: service-fill -->
  <g transform="translate(312, 332)">
    <rect width="48" height="48" fill="#ffffff" stroke="#e9ecef" stroke-width="1" rx="4"/>
    <svg x="8" y="8" width="32" height="32" viewBox="0 0 24 24">
      <path d="M14.1213 10.4792C13.7308 10.0886 13.0976 10.0886 12.7071 10.4792L12 11.1863C11.2189 11.9673 9.95259 11.9673 9.17154 11.1863C8.39049 10.4052 8.39049 9.13888 9.17154 8.35783L14.8022 2.72568C16.9061 2.24973 19.2008 2.83075 20.8388 4.46875C23.2582 6.88811 23.3716 10.7402 21.1792 13.2939L19.071 15.4289L14.1213 10.4792ZM3.16113 4.46875C5.33452 2.29536 8.66411 1.98283 11.17 3.53116L7.75732 6.94362C6.19523 8.50572 6.19523 11.0384 7.75732 12.6005C9.27209 14.1152 11.6995 14.1611 13.2695 12.7382L13.4142 12.6005L17.6568 16.8431L13.4142 21.0858C12.6331 21.8668 11.3668 21.8668 10.5858 21.0858L3.16113 13.6611C0.622722 11.1227 0.622722 7.00715 3.16113 4.46875Z"/>
    </svg>
  </g>
  <!-- Icon 35: id-card-line -->
  <g transform="translate(372, 332)">
    <rect width="48" height="48" fill="#ffffff" stroke="#e9ecef" stroke-width="1" rx="4"/>
    <svg x="8" y="8" width="32" height="32" viewBox="0 0 24 24">
      <path d="M3 6H21V18H3V6ZM2 4C1.44772 4 1 4.44772 1 5V19C1 19.5523 1.44772 20 2 20H22C22.5523 20 23 19.5523 23 19V5C23 4.44772 22.5523 4 22 4H2ZM13 8H19V10H13V8ZM18 12H13V14H18V12ZM10.5 10C10.5 11.3807 9.38071 12.5 8 12.5C6.61929 12.5 5.5 11.3807 5.5 10C5.5 8.61929 6.61929 7.5 8 7.5C9.38071 7.5 10.5 8.61929 10.5 10ZM8 13.5C6.067 13.5 4.5 15.067 4.5 17H11.5C11.5 15.067 9.933 13.5 8 13.5Z"/>
    </svg>
  </g>
  
  <!-- Footer -->
  <text x="400" y="580" text-anchor="middle" font-family="system-ui, -apple-system, sans-serif" font-size="12" fill="#6c757d">
    Showing 35 of 3058 icons
  </text>
  
</svg>