<svg width="800" height="600" xmlns="http://www.w3.org/2000/svg">
  <!-- Background -->
  <rect width="800" height="600" fill="#ffffff"/>
  
  <!-- Header Background -->
  <rect width="800" height="80" fill="#f8f9fa"/>
  
  <!-- Title -->
  <text x="400" y="30" text-anchor="middle" font-family="system-ui, -apple-system, sans-serif" font-size="20" font-weight="bold" fill="#212529">RPG Awesome</text>
  
  <!-- Subtitle -->
  <text x="400" y="55" text-anchor="middle" font-family="system-ui, -apple-system, sans-serif" font-size="14" fill="#6c757d">495 icons</text>
  
  <!-- Icon Grid -->
  <!-- Icon 1: zigzag-leaf -->
  <g transform="translate(12, 92)">
    <rect width="48" height="48" fill="#ffffff" stroke="#e9ecef" stroke-width="1" rx="4"/>
    <svg x="8" y="8" width="32" height="32" viewBox="0 0 1792 1792">
      
  <g transform="translate(Infinity, -Infinity) scale(1.75, -1.75)">
    <path d="" fill="#2563eb"/>
  </g>

    </svg>
  </g>
  <!-- Icon 2: vest -->
  <g transform="translate(72, 92)">
    <rect width="48" height="48" fill="#ffffff" stroke="#e9ecef" stroke-width="1" rx="4"/>
    <svg x="8" y="8" width="32" height="32" viewBox="0 0 1792 1792">
      
  <g transform="translate(Infinity, -Infinity) scale(1.75, -1.75)">
    <path d="" fill="#2563eb"/>
  </g>

    </svg>
  </g>
  <!-- Icon 3: tower -->
  <g transform="translate(132, 92)">
    <rect width="48" height="48" fill="#ffffff" stroke="#e9ecef" stroke-width="1" rx="4"/>
    <svg x="8" y="8" width="32" height="32" viewBox="0 0 1792 1792">
      
  <g transform="translate(Infinity, -Infinity) scale(1.75, -1.75)">
    <path d="" fill="#2563eb"/>
  </g>

    </svg>
  </g>
  <!-- Icon 4: target-laser -->
  <g transform="translate(192, 92)">
    <rect width="48" height="48" fill="#ffffff" stroke="#e9ecef" stroke-width="1" rx="4"/>
    <svg x="8" y="8" width="32" height="32" viewBox="0 0 1792 1792">
      
  <g transform="translate(Infinity, -Infinity) scale(1.75, -1.75)">
    <path d="" fill="#2563eb"/>
  </g>

    </svg>
  </g>
  <!-- Icon 5: spray-can -->
  <g transform="translate(252, 92)">
    <rect width="48" height="48" fill="#ffffff" stroke="#e9ecef" stroke-width="1" rx="4"/>
    <svg x="8" y="8" width="32" height="32" viewBox="0 0 1792 1792">
      
  <g transform="translate(Infinity, -Infinity) scale(1.75, -1.75)">
    <path d="" fill="#2563eb"/>
  </g>

    </svg>
  </g>
  <!-- Icon 6: soccer-ball -->
  <g transform="translate(312, 92)">
    <rect width="48" height="48" fill="#ffffff" stroke="#e9ecef" stroke-width="1" rx="4"/>
    <svg x="8" y="8" width="32" height="32" viewBox="0 0 1792 1792">
      
  <g transform="translate(Infinity, -Infinity) scale(1.75, -1.75)">
    <path d="" fill="#2563eb"/>
  </g>

    </svg>
  </g>
  <!-- Icon 7: shotgun-shell -->
  <g transform="translate(372, 92)">
    <rect width="48" height="48" fill="#ffffff" stroke="#e9ecef" stroke-width="1" rx="4"/>
    <svg x="8" y="8" width="32" height="32" viewBox="0 0 1792 1792">
      
  <g transform="translate(Infinity, -Infinity) scale(1.75, -1.75)">
    <path d="" fill="#2563eb"/>
  </g>

    </svg>
  </g>
  <!-- Icon 8: satellite -->
  <g transform="translate(12, 152)">
    <rect width="48" height="48" fill="#ffffff" stroke="#e9ecef" stroke-width="1" rx="4"/>
    <svg x="8" y="8" width="32" height="32" viewBox="0 0 1792 1792">
      
  <g transform="translate(Infinity, -Infinity) scale(1.75, -1.75)">
    <path d="" fill="#2563eb"/>
  </g>

    </svg>
  </g>
  <!-- Icon 9: relic-blade -->
  <g transform="translate(72, 152)">
    <rect width="48" height="48" fill="#ffffff" stroke="#e9ecef" stroke-width="1" rx="4"/>
    <svg x="8" y="8" width="32" height="32" viewBox="0 0 1792 1792">
      
  <g transform="translate(Infinity, -Infinity) scale(1.75, -1.75)">
    <path d="" fill="#2563eb"/>
  </g>

    </svg>
  </g>
  <!-- Icon 10: podium -->
  <g transform="translate(132, 152)">
    <rect width="48" height="48" fill="#ffffff" stroke="#e9ecef" stroke-width="1" rx="4"/>
    <svg x="8" y="8" width="32" height="32" viewBox="0 0 1792 1792">
      
  <g transform="translate(Infinity, -Infinity) scale(1.75, -1.75)">
    <path d="" fill="#2563eb"/>
  </g>

    </svg>
  </g>
  <!-- Icon 11: pine-tree -->
  <g transform="translate(192, 152)">
    <rect width="48" height="48" fill="#ffffff" stroke="#e9ecef" stroke-width="1" rx="4"/>
    <svg x="8" y="8" width="32" height="32" viewBox="0 0 1792 1792">
      
  <g transform="translate(Infinity, -Infinity) scale(1.75, -1.75)">
    <path d="" fill="#2563eb"/>
  </g>

    </svg>
  </g>
  <!-- Icon 12: overhead -->
  <g transform="translate(252, 152)">
    <rect width="48" height="48" fill="#ffffff" stroke="#e9ecef" stroke-width="1" rx="4"/>
    <svg x="8" y="8" width="32" height="32" viewBox="0 0 1792 1792">
      
  <g transform="translate(Infinity, -Infinity) scale(1.75, -1.75)">
    <path d="" fill="#2563eb"/>
  </g>

    </svg>
  </g>
  <!-- Icon 13: mp5 -->
  <g transform="translate(312, 152)">
    <rect width="48" height="48" fill="#ffffff" stroke="#e9ecef" stroke-width="1" rx="4"/>
    <svg x="8" y="8" width="32" height="32" viewBox="0 0 1792 1792">
      
  <g transform="translate(Infinity, -Infinity) scale(1.75, -1.75)">
    <path d="" fill="#2563eb"/>
  </g>

    </svg>
  </g>
  <!-- Icon 14: magnet -->
  <g transform="translate(372, 152)">
    <rect width="48" height="48" fill="#ffffff" stroke="#e9ecef" stroke-width="1" rx="4"/>
    <svg x="8" y="8" width="32" height="32" viewBox="0 0 1792 1792">
      
  <g transform="translate(Infinity, -Infinity) scale(1.75, -1.75)">
    <path d="" fill="#2563eb"/>
  </g>

    </svg>
  </g>
  <!-- Icon 15: libra -->
  <g transform="translate(12, 212)">
    <rect width="48" height="48" fill="#ffffff" stroke="#e9ecef" stroke-width="1" rx="4"/>
    <svg x="8" y="8" width="32" height="32" viewBox="0 0 1792 1792">
      
  <g transform="translate(Infinity, -Infinity) scale(1.75, -1.75)">
    <path d="" fill="#2563eb"/>
  </g>

    </svg>
  </g>
  <!-- Icon 16: lantern-flame -->
  <g transform="translate(72, 212)">
    <rect width="48" height="48" fill="#ffffff" stroke="#e9ecef" stroke-width="1" rx="4"/>
    <svg x="8" y="8" width="32" height="32" viewBox="0 0 1792 1792">
      
  <g transform="translate(Infinity, -Infinity) scale(1.75, -1.75)">
    <path d="" fill="#2563eb"/>
  </g>

    </svg>
  </g>
  <!-- Icon 17: incense -->
  <g transform="translate(132, 212)">
    <rect width="48" height="48" fill="#ffffff" stroke="#e9ecef" stroke-width="1" rx="4"/>
    <svg x="8" y="8" width="32" height="32" viewBox="0 0 1792 1792">
      
  <g transform="translate(Infinity, -Infinity) scale(1.75, -1.75)">
    <path d="" fill="#2563eb"/>
  </g>

    </svg>
  </g>
  <!-- Icon 18: hive-emblem -->
  <g transform="translate(192, 212)">
    <rect width="48" height="48" fill="#ffffff" stroke="#e9ecef" stroke-width="1" rx="4"/>
    <svg x="8" y="8" width="32" height="32" viewBox="0 0 1792 1792">
      
  <g transform="translate(Infinity, -Infinity) scale(1.75, -1.75)">
    <path d="" fill="#2563eb"/>
  </g>

    </svg>
  </g>
  <!-- Icon 19: harpoon-trident -->
  <g transform="translate(252, 212)">
    <rect width="48" height="48" fill="#ffffff" stroke="#e9ecef" stroke-width="1" rx="4"/>
    <svg x="8" y="8" width="32" height="32" viewBox="0 0 1792 1792">
      
  <g transform="translate(Infinity, -Infinity) scale(1.75, -1.75)">
    <path d="" fill="#2563eb"/>
  </g>

    </svg>
  </g>
  <!-- Icon 20: gold-bar -->
  <g transform="translate(312, 212)">
    <rect width="48" height="48" fill="#ffffff" stroke="#e9ecef" stroke-width="1" rx="4"/>
    <svg x="8" y="8" width="32" height="32" viewBox="0 0 1792 1792">
      
  <g transform="translate(Infinity, -Infinity) scale(1.75, -1.75)">
    <path d="" fill="#2563eb"/>
  </g>

    </svg>
  </g>
  <!-- Icon 21: frost-emblem -->
  <g transform="translate(372, 212)">
    <rect width="48" height="48" fill="#ffffff" stroke="#e9ecef" stroke-width="1" rx="4"/>
    <svg x="8" y="8" width="32" height="32" viewBox="0 0 1792 1792">
      
  <g transform="translate(Infinity, -Infinity) scale(1.75, -1.75)">
    <path d="" fill="#2563eb"/>
  </g>

    </svg>
  </g>
  <!-- Icon 22: flaming-arrow -->
  <g transform="translate(12, 272)">
    <rect width="48" height="48" fill="#ffffff" stroke="#e9ecef" stroke-width="1" rx="4"/>
    <svg x="8" y="8" width="32" height="32" viewBox="0 0 1792 1792">
      
  <g transform="translate(Infinity, -Infinity) scale(1.75, -1.75)">
    <path d="" fill="#2563eb"/>
  </g>

    </svg>
  </g>
  <!-- Icon 23: fast-ship -->
  <g transform="translate(72, 272)">
    <rect width="48" height="48" fill="#ffffff" stroke="#e9ecef" stroke-width="1" rx="4"/>
    <svg x="8" y="8" width="32" height="32" viewBox="0 0 1792 1792">
      
  <g transform="translate(Infinity, -Infinity) scale(1.75, -1.75)">
    <path d="" fill="#2563eb"/>
  </g>

    </svg>
  </g>
  <!-- Icon 24: egg-pod -->
  <g transform="translate(132, 272)">
    <rect width="48" height="48" fill="#ffffff" stroke="#e9ecef" stroke-width="1" rx="4"/>
    <svg x="8" y="8" width="32" height="32" viewBox="0 0 1792 1792">
      
  <g transform="translate(Infinity, -Infinity) scale(1.75, -1.75)">
    <path d="" fill="#2563eb"/>
  </g>

    </svg>
  </g>
  <!-- Icon 25: double-team -->
  <g transform="translate(192, 272)">
    <rect width="48" height="48" fill="#ffffff" stroke="#e9ecef" stroke-width="1" rx="4"/>
    <svg x="8" y="8" width="32" height="32" viewBox="0 0 1792 1792">
      
  <g transform="translate(Infinity, -Infinity) scale(1.75, -1.75)">
    <path d="" fill="#2563eb"/>
  </g>

    </svg>
  </g>
  <!-- Icon 26: dervish-swords -->
  <g transform="translate(252, 272)">
    <rect width="48" height="48" fill="#ffffff" stroke="#e9ecef" stroke-width="1" rx="4"/>
    <svg x="8" y="8" width="32" height="32" viewBox="0 0 1792 1792">
      
  <g transform="translate(Infinity, -Infinity) scale(1.75, -1.75)">
    <path d="" fill="#2563eb"/>
  </g>

    </svg>
  </g>
  <!-- Icon 27: crystal-ball -->
  <g transform="translate(312, 272)">
    <rect width="48" height="48" fill="#ffffff" stroke="#e9ecef" stroke-width="1" rx="4"/>
    <svg x="8" y="8" width="32" height="32" viewBox="0 0 1792 1792">
      
  <g transform="translate(Infinity, -Infinity) scale(1.75, -1.75)">
    <path d="" fill="#2563eb"/>
  </g>

    </svg>
  </g>
  <!-- Icon 28: crab-claw -->
  <g transform="translate(372, 272)">
    <rect width="48" height="48" fill="#ffffff" stroke="#e9ecef" stroke-width="1" rx="4"/>
    <svg x="8" y="8" width="32" height="32" viewBox="0 0 1792 1792">
      
  <g transform="translate(Infinity, -Infinity) scale(1.75, -1.75)">
    <path d="" fill="#2563eb"/>
  </g>

    </svg>
  </g>
  <!-- Icon 29: circular-saw -->
  <g transform="translate(12, 332)">
    <rect width="48" height="48" fill="#ffffff" stroke="#e9ecef" stroke-width="1" rx="4"/>
    <svg x="8" y="8" width="32" height="32" viewBox="0 0 1792 1792">
      
  <g transform="translate(Infinity, -Infinity) scale(1.75, -1.75)">
    <path d="" fill="#2563eb"/>
  </g>

    </svg>
  </g>
  <!-- Icon 30: candle -->
  <g transform="translate(72, 332)">
    <rect width="48" height="48" fill="#ffffff" stroke="#e9ecef" stroke-width="1" rx="4"/>
    <svg x="8" y="8" width="32" height="32" viewBox="0 0 1792 1792">
      
  <g transform="translate(Infinity, -Infinity) scale(1.75, -1.75)">
    <path d="" fill="#2563eb"/>
  </g>

    </svg>
  </g>
  <!-- Icon 31: broken-shield -->
  <g transform="translate(132, 332)">
    <rect width="48" height="48" fill="#ffffff" stroke="#e9ecef" stroke-width="1" rx="4"/>
    <svg x="8" y="8" width="32" height="32" viewBox="0 0 1792 1792">
      
  <g transform="translate(Infinity, -Infinity) scale(1.75, -1.75)">
    <path d="" fill="#2563eb"/>
  </g>

    </svg>
  </g>
  <!-- Icon 32: boot-stomp -->
  <g transform="translate(192, 332)">
    <rect width="48" height="48" fill="#ffffff" stroke="#e9ecef" stroke-width="1" rx="4"/>
    <svg x="8" y="8" width="32" height="32" viewBox="0 0 1792 1792">
      
  <g transform="translate(Infinity, -Infinity) scale(1.75, -1.75)">
    <path d="" fill="#2563eb"/>
  </g>

    </svg>
  </g>
  <!-- Icon 33: bird-claw -->
  <g transform="translate(252, 332)">
    <rect width="48" height="48" fill="#ffffff" stroke="#e9ecef" stroke-width="1" rx="4"/>
    <svg x="8" y="8" width="32" height="32" viewBox="0 0 1792 1792">
      
  <g transform="translate(Infinity, -Infinity) scale(1.75, -1.75)">
    <path d="" fill="#2563eb"/>
  </g>

    </svg>
  </g>
  <!-- Icon 34: battery-25 -->
  <g transform="translate(312, 332)">
    <rect width="48" height="48" fill="#ffffff" stroke="#e9ecef" stroke-width="1" rx="4"/>
    <svg x="8" y="8" width="32" height="32" viewBox="0 0 1792 1792">
      
  <g transform="translate(Infinity, -Infinity) scale(1.75, -1.75)">
    <path d="" fill="#2563eb"/>
  </g>

    </svg>
  </g>
  <!-- Icon 35: arrow-flights -->
  <g transform="translate(372, 332)">
    <rect width="48" height="48" fill="#ffffff" stroke="#e9ecef" stroke-width="1" rx="4"/>
    <svg x="8" y="8" width="32" height="32" viewBox="0 0 1792 1792">
      
  <g transform="translate(Infinity, -Infinity) scale(1.75, -1.75)">
    <path d="" fill="#2563eb"/>
  </g>

    </svg>
  </g>
  
  <!-- Footer -->
  <text x="400" y="580" text-anchor="middle" font-family="system-ui, -apple-system, sans-serif" font-size="12" fill="#6c757d">
    Showing 35 of 495 icons
  </text>
  
</svg>