<svg width="800" height="600" xmlns="http://www.w3.org/2000/svg">
  <!-- Background -->
  <rect width="800" height="600" fill="#ffffff"/>
  
  <!-- Header Background -->
  <rect width="800" height="80" fill="#f8f9fa"/>
  
  <!-- Title -->
  <text x="400" y="30" text-anchor="middle" font-family="system-ui, -apple-system, sans-serif" font-size="20" font-weight="bold" fill="#212529">System UIcons</text>
  
  <!-- Subtitle -->
  <text x="400" y="55" text-anchor="middle" font-family="system-ui, -apple-system, sans-serif" font-size="14" fill="#6c757d">430 icons</text>
  
  <!-- Icon Grid -->
  <!-- Icon 1: zoom_reset -->
  <g transform="translate(196, 92)">
    <rect width="48" height="48" fill="#ffffff" stroke="#e9ecef" stroke-width="1" rx="4"/>
    <svg x="8" y="8" width="32" height="32" viewBox="0 0 21 21">
      <g fill="none" fill-rule="evenodd" stroke="#2563eb" stroke-linecap="round" stroke-linejoin="round" transform="translate(3 1)"><path d="m.5 7.5c0 2.7614237 2.23857625 5 5 5 2.76142375 0 5-2.2385763 5-5 0-2.76142375-2.23857625-5-5-5-1.60217594 0-3.02834512.75357449-3.94340319 1.92561913"/><path d="m1.5.5v4h4"/><path d="m14.5 16.5-5.379-5.379"/></g>
    </svg>
  </g>
  <!-- Icon 2: wifi_error -->
  <g transform="translate(256, 92)">
    <rect width="48" height="48" fill="#ffffff" stroke="#e9ecef" stroke-width="1" rx="4"/>
    <svg x="8" y="8" width="32" height="32" viewBox="0 0 21 21">
      <g fill="none" fill-rule="evenodd" stroke="#2563eb" stroke-linecap="round" stroke-linejoin="round" transform="translate(3 4)"><path d="m2.72727273 7.03333352c.83153145-.67721428 1.77549265-1.15192805 2.76464632-1.42414131m4.05036413-.00556707c.99655252.27128439 1.94775872.74785385 2.78498982 1.42970838"/><path d="m7.5 8.5.027-8"/><path d="m.28636364 4.66666685c1.5285413-1.31742426 3.34019897-2.14638559 5.22503093-2.48688401m4.08697814.02039968c1.84534719.35249472 3.61641569 1.17465617 5.11526399 2.46648433m-9.57954579 4.73999982c.16101236-.11184953.32823746-.21100517.50026542-.29746717m3.70520939-.01635045c.18361827.09024549.36190455.19485144.53316189.31381785"/><circle cx="7.5" cy="11.5" fill="none" r="1"/></g>
    </svg>
  </g>
  <!-- Icon 3: volume_disabled -->
  <g transform="translate(316, 92)">
    <rect width="48" height="48" fill="#ffffff" stroke="#e9ecef" stroke-width="1" rx="4"/>
    <svg x="8" y="8" width="32" height="32" viewBox="0 0 21 21">
      <g fill="none" fill-rule="evenodd" stroke="#2563eb" stroke-linecap="round" stroke-linejoin="round" transform="translate(2 2)"><path d="m9.5 7.5v9l-5-5h-3c-.55228475 0-1-.4477153-1-1v-4c0-.55228475.44771525-1 1-1h3l1.5-1.5"/><path d="m7.521 2.479 1.979-1.979v5"/><path d="m3.5 1.5 12 12"/><path d="m11.5 6.5v1"/><path d="m13.7200616 11.7079223c-.3369299.4755068-1.0769504 1.0728661-2.2200616 1.7920777"/><path d="m11.5 9.5v1"/><path d="m14.5 10c0-.69729457 0-1.19729457 0-1.5 0-1.82842712-.8333333-3.32842712-2.5-4.5"/></g>
    </svg>
  </g>
  <!-- Icon 4: user_add -->
  <g transform="translate(376, 92)">
    <rect width="48" height="48" fill="#ffffff" stroke="#e9ecef" stroke-width="1" rx="4"/>
    <svg x="8" y="8" width="32" height="32" viewBox="0 0 21 21">
      <g fill="none" fill-rule="evenodd" stroke="#2563eb" stroke-linecap="round" stroke-linejoin="round" transform="translate(3 2)"><path d="m7.5.5c1.65685425 0 3 1.34314575 3 3v2c0 1.65685425-1.34314575 3-3 3s-3-1.34314575-3-3v-2c0-1.65685425 1.34314575-3 3-3z"/><path d="m14.5 2.5v4"/><path d="m16.5 4.5h-4"/><path d="m14.5 14.5v-.7281753c0-3.1864098-3.6862915-5.2718247-7-5.2718247s-7 2.0854149-7 5.2718247v.7281753c0 .5522847.44771525 1 1 1h12c.5522847 0 1-.4477153 1-1z"/></g>
    </svg>
  </g>
  <!-- Icon 5: trash_alt -->
  <g transform="translate(436, 92)">
    <rect width="48" height="48" fill="#ffffff" stroke="#e9ecef" stroke-width="1" rx="4"/>
    <svg x="8" y="8" width="32" height="32" viewBox="0 0 21 21">
      <g fill="none" fill-rule="evenodd" transform="translate(3 4)"><path d="m3.04312645.77339244c1.30458237-.50251803 2.79020688-.75708722 4.45687355-.76370756 1.66666667-.00645659 3.1522912.2481126 4.4568735.76370756 1.4533332.41523806 2.3707846 1.84683012 2.1409518 3.3407434l-1.0760143 6.99409286c-.3002042 1.9513268-1.9792025 3.3917713-3.95348683 3.3917713h-3.13664834c-1.97428433 0-3.65328268-1.4404445-3.95348679-3.3917713l-1.0760143-6.99409286c-.22983281-1.49391328.68761852-2.92550534 2.14095171-3.3407434z" stroke="#2563eb" stroke-linecap="round" stroke-linejoin="round"/><path d="m7.5 6c3.5555556 0 5-1.5 5-2.5s-1.4444444-2.25-5-2.25c-3.55555556 0-5 1.25-5 2.25s1.44444444 2.5 5 2.5z" fill="none"/></g>
    </svg>
  </g>
  <!-- Icon 6: target -->
  <g transform="translate(496, 92)">
    <rect width="48" height="48" fill="#ffffff" stroke="#e9ecef" stroke-width="1" rx="4"/>
    <svg x="8" y="8" width="32" height="32" viewBox="0 0 21 21">
      <g fill="none" fill-rule="evenodd" stroke="#2563eb" stroke-linecap="round" stroke-linejoin="round"><circle cx="10.5" cy="10.5" r="8"/><circle cx="10.5" cy="10.5" r="2"/><circle cx="10.5" cy="10.5" r="5"/></g>
    </svg>
  </g>
  <!-- Icon 7: split -->
  <g transform="translate(556, 92)">
    <rect width="48" height="48" fill="#ffffff" stroke="#e9ecef" stroke-width="1" rx="4"/>
    <svg x="8" y="8" width="32" height="32" viewBox="0 0 21 21">
      <g fill="none" fill-rule="evenodd" stroke="#2563eb" stroke-linecap="round" stroke-linejoin="round" transform="translate(3 5)"><path d="m12.5.5h-10.00000001c-1.1045695 0-2 .8954305-2 2v6c0 1.1045695.8954305 2 2 2h10.00000001c1.1045695 0 2-.8954305 2-2v-6c0-1.1045695-.8954305-2-2-2z"/><path d="m7.5.5v10"/></g>
    </svg>
  </g>
  <!-- Icon 8: signal_full -->
  <g transform="translate(196, 152)">
    <rect width="48" height="48" fill="#ffffff" stroke="#e9ecef" stroke-width="1" rx="4"/>
    <svg x="8" y="8" width="32" height="32" viewBox="0 0 24 24">
      <g fill="none" fill-rule="evenodd"><g fill="none" stroke="#2563eb" stroke-linecap="round" stroke-linejoin="round"><path d="M5.5 16.5v-3a1 1 0 112 0v3a1 1 0 01-2 0zM9.5 16.5v-6a1 1 0 112 0v6a1 1 0 01-2 0zM13.5 16.5v-9a1 1 0 112 0v9a1 1 0 01-2 0z"/></g></g>
    </svg>
  </g>
  <!-- Icon 9: ruler -->
  <g transform="translate(256, 152)">
    <rect width="48" height="48" fill="#ffffff" stroke="#e9ecef" stroke-width="1" rx="4"/>
    <svg x="8" y="8" width="32" height="32" viewBox="0 0 21 21">
      <g fill="none" fill-rule="evenodd" stroke="#2563eb" stroke-linecap="round" stroke-linejoin="round" transform="translate(2 8)"><path d="m1.5.5h14c.5522847 0 1 .44771525 1 1v4c0 .55228475-.4477153 1-1 1h-14c-.55228475 0-1-.44771525-1-1v-4c0-.55228475.44771525-1 1-1z"/><path d="m3.5 1v2.5"/><path d="m5.5 1v2.5"/><path d="m7.5 1v3.5"/><path d="m9.5 1v2.5"/><path d="m11.5 1v2.5"/><path d="m13.5 1v3.5"/></g>
    </svg>
  </g>
  <!-- Icon 10: replicate_alt -->
  <g transform="translate(316, 152)">
    <rect width="48" height="48" fill="#ffffff" stroke="#e9ecef" stroke-width="1" rx="4"/>
    <svg x="8" y="8" width="32" height="32" viewBox="0 0 21 21">
      <g fill="none" fill-rule="evenodd" stroke="#2563eb" stroke-linecap="round" stroke-linejoin="round" transform="translate(3 3)"><path d="m14.5 9.5v-7c0-1.1045695-.8954305-2-2-2h-7c-1.1045695 0-2 .8954305-2 2v7c0 1.1045695.8954305 2 2 2h7c1.1045695 0 2-.8954305 2-2z"/><path d="m11.5 11.5v1c0 1.1045695-.8954305 2-2 2h-7c-1.1045695 0-2-.8954305-2-2v-7c0-1.1045695.8954305-2 2-2h1"/></g>
    </svg>
  </g>
  <!-- Icon 11: push_down -->
  <g transform="translate(376, 152)">
    <rect width="48" height="48" fill="#ffffff" stroke="#e9ecef" stroke-width="1" rx="4"/>
    <svg x="8" y="8" width="32" height="32" viewBox="0 0 21 21">
      <g fill="none" fill-rule="evenodd" stroke="#2563eb" stroke-linecap="round" stroke-linejoin="round" transform="translate(3 3)"><path d="m3.5 7.5 4 4 4-4"/><path d="m7.5.5v11"/><path d="m.5 14.5h14"/></g>
    </svg>
  </g>
  <!-- Icon 12: pie_third -->
  <g transform="translate(436, 152)">
    <rect width="48" height="48" fill="#ffffff" stroke="#e9ecef" stroke-width="1" rx="4"/>
    <svg x="8" y="8" width="32" height="32" viewBox="0 0 21 21">
      <path d="m6.518813.74721736c-2.85207705.72664194-5.09182846 2.98568348-5.79082981 5.84870021m7.77201681-6.09591757c4.418278 0 8 3.581722 8 8s-3.581722 8-8 8-8-3.5-8-8h8c0-1.77777778 0-4.44444444 0-8z" fill="none" stroke="#2563eb" stroke-linecap="round" stroke-linejoin="round" transform="translate(2 2)"/>
    </svg>
  </g>
  <!-- Icon 13: paperclip -->
  <g transform="translate(496, 152)">
    <rect width="48" height="48" fill="#ffffff" stroke="#e9ecef" stroke-width="1" rx="4"/>
    <svg x="8" y="8" width="32" height="32" viewBox="0 0 21 21">
      <path d="m9.24264069 5.05025253v7.07106777c.17157287 3.7363257-1.24264069 5.6219437-4.24264069 5.6568543-3 .0349105-4.41421356-1.8507075-4.24264069-5.6568543v-7.07106777c-.11438191-2.82842712.82842713-4.24264068 2.82842713-4.24264068s2.94280904 1.41421356 2.82842712 4.24264068v7.07106777c.07786153 1.4142136-.39354299 2.1213204-1.41421356 2.1213204s-1.49207509-.7071068-1.41421356-2.1213204v-7.07106777" fill="none" stroke="#2563eb" stroke-linecap="round" stroke-linejoin="round" transform="matrix(.70710678 .70710678 -.70710678 .70710678 13.535219 1.393091)"/>
    </svg>
  </g>
  <!-- Icon 14: nut -->
  <g transform="translate(556, 152)">
    <rect width="48" height="48" fill="#ffffff" stroke="#e9ecef" stroke-width="1" rx="4"/>
    <svg x="8" y="8" width="32" height="32" viewBox="0 0 21 21">
      <g fill="none" fill-rule="evenodd" stroke="#2563eb" stroke-linecap="round" stroke-linejoin="round" transform="translate(4 3)"><path d="m6.5.5 6 4v6l-6 4-6-4v-6z"/><circle cx="6.5" cy="7.5" r="3"/></g>
    </svg>
  </g>
  <!-- Icon 15: microphone_muted -->
  <g transform="translate(196, 212)">
    <rect width="48" height="48" fill="#ffffff" stroke="#e9ecef" stroke-width="1" rx="4"/>
    <svg x="8" y="8" width="32" height="32" viewBox="0 0 21 21">
      <g fill="none" fill-rule="evenodd" stroke="#2563eb" stroke-linecap="round" stroke-linejoin="round" transform="translate(5 2)"><path d="m8.5 6 .00115967 1.5c-.21419271 2-1.21535238 3-3.00115967 3s-2.78464762-1-2.99884033-3l-.00115967-3.5c0-2 1.85706111-3.2309912 2.5-3.5"/><g transform="translate(6)"><path d="m.5 4.5 4-4"/><path d="m4.5 4.5-4-4z"/></g><path d="m10.5 7.5c0 2.7614237-2.23857625 5-5 5-2.6887547 0-4.88181811-2.1223067-4.99538049-4.78311038l-.00461951-.21688962"/><path d="m5.522 12.5v4"/></g>
    </svg>
  </g>
  <!-- Icon 16: mail_new -->
  <g transform="translate(256, 212)">
    <rect width="48" height="48" fill="#ffffff" stroke="#e9ecef" stroke-width="1" rx="4"/>
    <svg x="8" y="8" width="32" height="32" viewBox="0 0 21 21">
      <g fill="none" fill-rule="evenodd" stroke="#2563eb" stroke-linecap="round" stroke-linejoin="round" transform="translate(3.5 3.5)"><path d="m6.00772212.56701593-5 2.85714286c-.62314999.35608571-1.00772212 1.01877259-1.00772212 1.73648628v6.83935493c0 1.1045695.8954305 2 2 2h10c1.1045695 0 2-.8954305 2-2v-6.83935493c0-.71771369-.3845721-1.38040057-1.0077221-1.73648628l-5.00000002-2.85714286c-.61486534-.35135162-1.36969042-.35135162-1.98455576 0z"/><path d="m7 5v6"/><path d="m4 8h6"/></g>
    </svg>
  </g>
  <!-- Icon 17: link_vertical -->
  <g transform="translate(316, 212)">
    <rect width="48" height="48" fill="#ffffff" stroke="#e9ecef" stroke-width="1" rx="4"/>
    <svg x="8" y="8" width="32" height="32" viewBox="0 0 21 21">
      <g fill="none" fill-rule="evenodd" stroke="#2563eb" stroke-linecap="round" stroke-linejoin="round" transform="translate(6 3)"><path d="m8.5 9.5v1c0 2.209139-1.790861 4-4 4s-4-1.790861-4-4c0-.92155 0-.61385143 0-1m0-4c0-.44444444 0-.11111111 0-1 0-2.209139 1.790861-4 4-4s4 1.790861 4 4v1"/><path d="m4.5 4.5v6"/></g>
    </svg>
  </g>
  <!-- Icon 18: jump_right -->
  <g transform="translate(376, 212)">
    <rect width="48" height="48" fill="#ffffff" stroke="#e9ecef" stroke-width="1" rx="4"/>
    <svg x="8" y="8" width="32" height="32" viewBox="0 0 21 21">
      <g fill="none" fill-rule="evenodd" stroke="#2563eb" stroke-linecap="round" stroke-linejoin="round" transform="translate(5.5 6.5)"><path d="m0 8v-2c0-1.65685425 1.34314575-3 3-3h8"/><path d="m7.999 6 3.001-3-3.001-3"/></g>
    </svg>
  </g>
  <!-- Icon 19: home_alt -->
  <g transform="translate(436, 212)">
    <rect width="48" height="48" fill="#ffffff" stroke="#e9ecef" stroke-width="1" rx="4"/>
    <svg x="8" y="8" width="32" height="32" viewBox="0 0 21 21">
      <g fill="none" fill-rule="evenodd" stroke="#2563eb" stroke-linecap="round" stroke-linejoin="round" transform="translate(1 1)"><path d="m.5 9.5 9-9 9 9"/><path d="m2.5 10.5v4c0 1.1045695.8954305 2 2 2h10c1.1045695 0 2-.8954305 2-2v-4"/></g>
    </svg>
  </g>
  <!-- Icon 20: grid_small -->
  <g transform="translate(496, 212)">
    <rect width="48" height="48" fill="#ffffff" stroke="#e9ecef" stroke-width="1" rx="4"/>
    <svg x="8" y="8" width="32" height="32" viewBox="0 0 21 21">
      <path d="m5 4h1c.55228475 0 1 .44771525 1 1v1c0 .55228475-.44771525 1-1 1h-1c-.55228475 0-1-.44771525-1-1v-1c0-.55228475.44771525-1 1-1zm0-4h1c.55228475 0 1 .44771525 1 1v1c0 .55228475-.44771525 1-1 1h-1c-.55228475 0-1-.44771525-1-1v-1c0-.55228475.44771525-1 1-1zm4 4h1c.5522847 0 1 .44771525 1 1v1c0 .55228475-.4477153 1-1 1h-1c-.55228475 0-1-.44771525-1-1v-1c0-.55228475.44771525-1 1-1zm0-4h1c.5522847 0 1 .44771525 1 1v1c0 .55228475-.4477153 1-1 1h-1c-.55228475 0-1-.44771525-1-1v-1c0-.55228475.44771525-1 1-1zm0 8h1c.5522847 0 1 .44771525 1 1v1c0 .5522847-.4477153 1-1 1h-1c-.55228475 0-1-.4477153-1-1v-1c0-.55228475.44771525-1 1-1zm-4 0h1c.55228475 0 1 .44771525 1 1v1c0 .5522847-.44771525 1-1 1h-1c-.55228475 0-1-.4477153-1-1v-1c0-.55228475.44771525-1 1-1zm-4-4h1c.55228475 0 1 .44771525 1 1v1c0 .55228475-.44771525 1-1 1h-1c-.55228475 0-1-.44771525-1-1v-1c0-.55228475.44771525-1 1-1zm0-4h1c.55228475 0 1 .44771525 1 1v1c0 .55228475-.44771525 1-1 1h-1c-.55228475 0-1-.44771525-1-1v-1c0-.55228475.44771525-1 1-1zm0 8h1c.55228475 0 1 .44771525 1 1v1c0 .5522847-.44771525 1-1 1h-1c-.55228475 0-1-.4477153-1-1v-1c0-.55228475.44771525-1 1-1z" fill="#2563eb" fill-rule="evenodd" transform="translate(5 5)"/>
    </svg>
  </g>
  <!-- Icon 21: funnel -->
  <g transform="translate(556, 212)">
    <rect width="48" height="48" fill="#ffffff" stroke="#e9ecef" stroke-width="1" rx="4"/>
    <svg x="8" y="8" width="32" height="32" viewBox="0 0 21 21">
      <path d="m.5.5h12l-4 7v3l-3 3v-6z" fill="none" stroke="#2563eb" stroke-linecap="round" stroke-linejoin="round" transform="translate(4 4)"/>
    </svg>
  </g>
  <!-- Icon 22: flame -->
  <g transform="translate(196, 272)">
    <rect width="48" height="48" fill="#ffffff" stroke="#e9ecef" stroke-width="1" rx="4"/>
    <svg x="8" y="8" width="32" height="32" viewBox="0 0 21 21">
      
  <g fill="none" fill-rule="evenodd" stroke="#2563eb" stroke-linecap="round" stroke-linejoin="round" transform="translate(5 3)">
    <path d="M5.5,16 C8.53756612,16 11,13.5714286 11,9.28571429 C11,6.42857143 9.16666667,3.33333333 5.5,0 C1.83333333,3.33333333 0,6.42857143 0,9.28571429 C0,13.5714286 2.46243388,16 5.5,16 Z"/>
    <path d="M5.5,16 C7.01878306,16 8.25,14.7857143 8.25,12.6428571 C8.25,11.2142857 7.33333333,9.66666667 5.5,8 C3.66666667,9.66666667 2.75,11.2142857 2.75,12.6428571 C2.75,14.7857143 3.98121694,16 5.5,16 Z"/>
  </g>

    </svg>
  </g>
  <!-- Icon 23: file_download -->
  <g transform="translate(256, 272)">
    <rect width="48" height="48" fill="#ffffff" stroke="#e9ecef" stroke-width="1" rx="4"/>
    <svg x="8" y="8" width="32" height="32" viewBox="0 0 21 21">
      <g fill="none" fill-rule="evenodd" stroke="#2563eb" stroke-linecap="round" stroke-linejoin="round" transform="translate(4 2)"><path d="m4.5 1.5h-2.00245461c-1.1045695 0-2 .8954305-2 2v10c0 1.1045695.8954305 2 2 2h8.00000001c1.1043778-.000491 1.9997288-.8956223 2.0004909-2l.0019637-8-4-4"/><path d="m9.5 8.586-3 2.914-3-2.914"/><path d="m6.5.5v11"/></g>
    </svg>
  </g>
  <!-- Icon 24: exit_right -->
  <g transform="translate(316, 272)">
    <rect width="48" height="48" fill="#ffffff" stroke="#e9ecef" stroke-width="1" rx="4"/>
    <svg x="8" y="8" width="32" height="32" viewBox="0 0 21 21">
      <g fill="none" fill-rule="evenodd" stroke="#2563eb" stroke-linecap="round" stroke-linejoin="round" transform="translate(4 3)"><path d="m10.595 10.5 2.905-3-2.905-3"/><path d="m13.5 7.5h-9"/><path d="m10.5.5-8 .00224609c-1.1043501.00087167-1.9994384.89621131-2 2.00056153v9.99438478c0 1.1045695.8954305 2 2 2h8.0954792"/></g>
    </svg>
  </g>
  <!-- Icon 25: download -->
  <g transform="translate(376, 272)">
    <rect width="48" height="48" fill="#ffffff" stroke="#e9ecef" stroke-width="1" rx="4"/>
    <svg x="8" y="8" width="32" height="32" viewBox="0 0 21 21">
      <g fill="none" fill-rule="evenodd" stroke="#2563eb" stroke-linecap="round" stroke-linejoin="round" transform="translate(4 3)"><path d="m2.5 7.5 4 4.232 4-4.191"/><path d="m6.5.5v11"/><path d="m.5 14.5h12"/></g>
    </svg>
  </g>
  <!-- Icon 26: diamond -->
  <g transform="translate(436, 272)">
    <rect width="48" height="48" fill="#ffffff" stroke="#e9ecef" stroke-width="1" rx="4"/>
    <svg x="8" y="8" width="32" height="32" viewBox="0 0 21 21">
      <g fill="none" fill-rule="evenodd" stroke="#2563eb" stroke-linecap="round" stroke-linejoin="round" transform="translate(2 4)"><path d="m13.5 0 3 4-8 10-8-10 3.009-4z"/><path d="m.5 4h16"/><path d="m5.5 4 3 10"/><path d="m11.5 4-3 10"/><path d="m3.509 0 1.991 4 3-4 3 4 2-4"/></g>
    </svg>
  </g>
  <!-- Icon 27: contacts -->
  <g transform="translate(496, 272)">
    <rect width="48" height="48" fill="#ffffff" stroke="#e9ecef" stroke-width="1" rx="4"/>
    <svg x="8" y="8" width="32" height="32" viewBox="0 0 21 21">
      <g fill="none" fill-rule="evenodd" stroke="#2563eb" stroke-linecap="round" stroke-linejoin="round" transform="translate(3 3)"><circle cx="7.5" cy="5.5" r="2"/><path d="m.5 3.5h1v-1c0-1.1045695.8954305-2 2-2h8c1.1045695 0 2 .8954305 2 2v10c0 1.1045695-.8954305 2-2 2h-8c-1.1045695 0-2-.8954305-2-2v-1h-1"/><path d="m.5 7.5h1"/><path d="m.5 5.5h1"/><path d="m.5 9.5h1"/><path d="m10.5 10.5v-1c0-1.1045695-.8954305-2-2-2h-2c-1.1045695 0-2 .8954305-2 2v1c0 .5522847.44771525 1 1 1h4c.5522847 0 1-.4477153 1-1z"/></g>
    </svg>
  </g>
  <!-- Icon 28: cloud -->
  <g transform="translate(556, 272)">
    <rect width="48" height="48" fill="#ffffff" stroke="#e9ecef" stroke-width="1" rx="4"/>
    <svg x="8" y="8" width="32" height="32" viewBox="0 0 21 21">
      <path d="m8.5.5c2.7614237 0 5 2.23857625 5 5 0 .48543539-.0691781.95471338-.1982137 1.39851335.3339576-.25026476.748773-.39851335 1.1982137-.39851335 1.1045695 0 2 .8954305 2 2s-.8954305 2-2 2c-1.104407 0-10.16182706 0-11 0-1.65685425 0-3-1.34314575-3-3s1.34314575-3 3-3c.03335948 0 .06659179.00054449.09968852.00162508.46264217-2.28304993 2.48077946-4.00162508 4.90031148-4.00162508z" fill="none" stroke="#2563eb" stroke-linecap="round" stroke-linejoin="round" transform="translate(2 5)"/>
    </svg>
  </g>
  <!-- Icon 29: circle -->
  <g transform="translate(196, 332)">
    <rect width="48" height="48" fill="#ffffff" stroke="#e9ecef" stroke-width="1" rx="4"/>
    <svg x="8" y="8" width="32" height="32" viewBox="0 0 21 21">
      <circle cx="10.5" cy="10.5" fill="none" r="8" stroke="#2563eb" stroke-linecap="round" stroke-linejoin="round"/>
    </svg>
  </g>
  <!-- Icon 30: chevron_down_circle -->
  <g transform="translate(256, 332)">
    <rect width="48" height="48" fill="#ffffff" stroke="#e9ecef" stroke-width="1" rx="4"/>
    <svg x="8" y="8" width="32" height="32" viewBox="0 0 21 21">
      <g fill="none" fill-rule="evenodd" stroke="#2563eb" stroke-linecap="round" stroke-linejoin="round" transform="translate(2 2)"><circle cx="8.5" cy="8.5" r="8"/><path d="m5.466 7.466 3 3.068 3-3.068"/></g>
    </svg>
  </g>
  <!-- Icon 31: carousel -->
  <g transform="translate(316, 332)">
    <rect width="48" height="48" fill="#ffffff" stroke="#e9ecef" stroke-width="1" rx="4"/>
    <svg x="8" y="8" width="32" height="32" viewBox="0 0 21 21">
      <g fill="none" fill-rule="evenodd" stroke="#2563eb" stroke-linecap="round" stroke-linejoin="round" transform="translate(2 5)"><path d="m12.5.5h-8.00000001c-1.1045695 0-2 .8954305-2 2v6c0 1.1045695.8954305 2 2 2h8.00000001c1.1045695 0 2-.8954305 2-2v-6c0-1.1045695-.8954305-2-2-2z"/><path d="m16.5.5v10"/><path d="m.5.5v10"/></g>
    </svg>
  </g>
  <!-- Icon 32: calendar_month -->
  <g transform="translate(376, 332)">
    <rect width="48" height="48" fill="#ffffff" stroke="#e9ecef" stroke-width="1" rx="4"/>
    <svg x="8" y="8" width="32" height="32" viewBox="0 0 21 21">
      <g fill="none" fill-rule="evenodd" transform="translate(2 2)"><path d="m2.5.5h12c1.1045695 0 2 .8954305 2 2v12c0 1.1045695-.8954305 2-2 2h-12c-1.1045695 0-2-.8954305-2-2v-12c0-1.1045695.8954305-2 2-2z" stroke="#2563eb" stroke-linecap="round" stroke-linejoin="round"/><path d="m.5 4.5h16" stroke="#2563eb" stroke-linecap="round" stroke-linejoin="round"/><g fill="none"><circle cx="8.5" cy="8.5" r="1"/><circle cx="4.5" cy="8.5" r="1"/><circle cx="12.5" cy="8.5" r="1"/><circle cx="8.5" cy="12.5" r="1"/><circle cx="4.5" cy="12.5" r="1"/><circle cx="12.5" cy="12.5" r="1"/></g></g>
    </svg>
  </g>
  <!-- Icon 33: briefcase -->
  <g transform="translate(436, 332)">
    <rect width="48" height="48" fill="#ffffff" stroke="#e9ecef" stroke-width="1" rx="4"/>
    <svg x="8" y="8" width="32" height="32" viewBox="0 0 21 21">
      <path d="m2.49999919 3.5h10.00000001c1.1045695 0 2 .8954305 2 2v5c0 1.1045695-.8954305 2-2 2h-10.00000001c-1.1045695 0-2-.8954305-2-2v-5c0-1.1045695.8954305-2 2-2zm4.00000081-3h2c1.1045695 0 2 .8954305 2 2v1h-6v-1c0-1.1045695.8954305-2 2-2z" fill="none" stroke="#2563eb" stroke-linecap="round" stroke-linejoin="round" transform="translate(3 4)"/>
    </svg>
  </g>
  <!-- Icon 34: book -->
  <g transform="translate(496, 332)">
    <rect width="48" height="48" fill="#ffffff" stroke="#e9ecef" stroke-width="1" rx="4"/>
    <svg x="8" y="8" width="32" height="32" viewBox="0 0 21 21">
      <path d="m16.5 1.59090909c-1.3333333-.72727273-2.6666667-1.09090909-4-1.09090909s-2.66666667.36363636-4 1.09090909v9.90909091c1.33333333-.6666667 2.6666667-1 4-1s2.6666667.3333333 4 1zm-8 0c-1.33333333-.72727273-2.66666667-1.09090909-4-1.09090909s-2.66666667.36363636-4 1.09090909v9.90909091c1.33333333-.6666667 2.66666667-1 4-1s2.66666667.3333333 4 1z" fill="none" stroke="#2563eb" stroke-linecap="round" stroke-linejoin="round" transform="translate(2 5)"/>
    </svg>
  </g>
  <!-- Icon 35: bag -->
  <g transform="translate(556, 332)">
    <rect width="48" height="48" fill="#ffffff" stroke="#e9ecef" stroke-width="1" rx="4"/>
    <svg x="8" y="8" width="32" height="32" viewBox="0 0 21 21">
      <g fill="none" fill-rule="evenodd" stroke="#2563eb" stroke-linecap="round" stroke-linejoin="round" transform="translate(4 4)"><path d="m2.42575356.50254623 8.09559774-.00228586c.5209891-.00014706.9548019.39973175.9969972.91900932l.8938128 10.99973961c.0447299.5504704-.3652538 1.0329756-.9157242 1.0777056l-.0809907.0032851h-9.83555122c-.55228475 0-1-.4477152-1-1l.00294679-.076713.84614072-10.99745378c.0400765-.52088193.4743495-.92313949.99677087-.92328699z"/><path d="m9.5 4.5v.64527222c0 1.10456949-1.8954305 1.35472778-3 1.35472778s-3-.3954305-3-1.5v-.5"/></g>
    </svg>
  </g>
  
  <!-- Footer -->
  <text x="400" y="580" text-anchor="middle" font-family="system-ui, -apple-system, sans-serif" font-size="12" fill="#6c757d">
    Showing 35 of 430 icons
  </text>
  
</svg>