<svg xmlns="http://www.w3.org/2000/svg" viewBox="0 0 1792 1792">
  <g transform="translate(60.375, 1729.486111111111) scale(1.75, -1.75)">
    <path d="M124 835Q160 828 203 800Q246 772 284.5 734Q323 696 350.5 653.5Q378 611 383 576Q350 580 308.5 606.5Q267 633 228.5 671Q190 709 161 753Q132 797 124 835ZM479 748L363 632Q371 617 376 603Q381 589 383 576Q370 578 356 583Q342 588 327 596L199 468L252 415L532 695L479 748ZM124 835Q132 834 140 831.5Q148 829 156 825L188 857L120 925L32 836L100 768L134 803Q131 811 128.5 819Q126 827 124 835ZM844 268L763 254L778 334L697 319L714 399L634 383L649 463L568 449L583 530L489 624L339 475L704 110Q731 83 765 56Q799 29 836 8.5Q873 -12 912 -22Q951 -32 987 -24Q970 -8 942.5 28.5Q915 65 890.5 108.5Q866 152 851.5 195.5Q837 239 844 268Z" fill="currentColor"/>
  </g>
</svg>