<svg xmlns="http://www.w3.org/2000/svg" viewBox="0 0 1792 1792">
  <g transform="translate(78.75, 1679.125) scale(1.75, -1.75)">
    <path d="M859 891L252 404L228 429L37 290Q49 246 68.5 206Q88 166 113.5 130Q139 94 169 60.5Q199 27 232 -4L399 179L277 311L282 327L374 213L448 293L460 349L513 362L521 411L569 422L572 466L625 481L631 522L675 535L688 578L731 595L744 631L779 645L787 677L822 692L829 722L864 736L871 770L903 778L908 812L937 814L971 850L859 891ZM315 179L239 98Q232 158 204.5 203Q177 248 124 275L187 318L315 179Z" fill="currentColor"/>
  </g>
</svg>