<svg xmlns="http://www.w3.org/2000/svg" viewBox="0 0 1792 1792">
  <g transform="translate(266, 1736) scale(1.75, -1.75)">
    <path d="M512 928Q467 928 424 917Q381 906 347 886.5Q313 867 292.5 839.5Q272 812 272 778Q272 733 294.5 703Q317 673 317 628Q317 594 309.5 584.5Q302 575 302 553Q302 542 331 530Q360 518 392 508L392 448L632 448L632 508Q632 508 677 524Q722 540 722 553Q721 574 714 584Q707 594 707 628Q707 650 729.5 692Q752 734 752 778Q752 812 731.5 839.5Q711 867 677 886.5Q643 906 600 917Q557 928 512 928ZM422 748Q447 748 464.5 730.5Q482 713 482 688Q482 663 464.5 645.5Q447 628 422 628Q397 628 379.5 645.5Q362 663 362 688Q362 713 379.5 730.5Q397 748 422 748ZM602 748Q627 748 644.5 730.5Q662 713 662 688Q662 663 644.5 645.5Q627 628 602 628Q577 628 559.5 645.5Q542 663 542 688Q542 713 559.5 730.5Q577 748 602 748ZM512 643Q523 643 540 611Q557 579 557 568Q557 546 555 542Q553 538 542 538L482 538Q471 538 469 542Q467 546 467 568Q467 579 484 611Q501 643 512 643ZM272 388L272 298L752 298L752 388L272 388ZM272 238L272 148L752 148L752 238L272 238ZM212 88Q190 88 171 69.5Q152 51 152 28L152 -32L872 -32L872 28Q872 50 853.5 69Q835 88 812 88L212 88Z" fill="currentColor"/>
  </g>
</svg>